M48
; DRILL file {KiCad (5.1.5)-3} date 2020/09/04 17:35:18
; FORMAT={-:-/ absolute / inch / decimal}
; #@! TF.CreationDate,2020-09-04T17:35:18+09:00
; #@! TF.GenerationSoftware,Kicad,Pcbnew,(5.1.5)-3
FMAT,2
INCH
T1C0.0157
T2C0.0236
T3C0.0295
T4C0.0300
T5C0.0354
T6C0.0394
T7C0.0591
T8C0.0827
T9C0.1260
T10C0.0669
T11C0.1575
%
G90
G05
T1
X1.5624Y-2.1205
X1.685Y-2.3929
X1.7287Y-2.727
X1.9472Y-2.9446
X2.0602Y-1.9506
X2.1592Y-1.99
X2.9126Y-1.8358
X3.0982Y-1.8452
X3.0999Y-3.671
X3.1287Y-2.0325
X3.1553Y-1.8024
X3.169Y-3.8128
X3.1764Y-2.0128
X3.202Y-3.6131
X3.2349Y-3.4339
X3.2481Y-3.6034
X3.2746Y-3.4046
X3.2759Y-1.7292
X3.5243Y-1.3646
X3.5566Y-3.6603
X3.6161Y-1.6642
X3.6321Y-3.7226
X3.6409Y-3.7674
X3.6464Y-1.5897
X3.6929Y-1.4085
X3.6937Y-3.3795
X3.7421Y-2.1833
X3.8042Y-1.6516
X3.8074Y-1.7443
X3.8295Y-3.3353
X3.8359Y-1.5298
X3.8492Y-3.425
X3.8833Y-3.7751
X3.8836Y-2.0325
X3.9056Y-1.3871
X3.9127Y-3.8375
X3.9159Y-3.8814
X3.957Y-2.025
X3.975Y-1.225
X4.0279Y-3.8889
X4.2216Y-2.3337
X4.2492Y-4.3719
X4.3287Y-2.3406
X4.4107Y-2.4315
X4.4108Y-4.3662
T2
X2.925Y-3.15
X2.925Y-3.2287
X2.925Y-1.3463
X2.925Y-1.425
T3
X3.45Y-4.325
X3.5Y-4.325
X3.55Y-4.325
X3.675Y-4.325
X3.725Y-4.325
X3.775Y-4.325
X0.975Y-2.7
X0.975Y-2.75
X0.975Y-2.8
X3.675Y-2.525
X3.725Y-2.525
X3.775Y-2.525
X3.45Y-2.525
X3.5Y-2.525
X3.55Y-2.525
T4
X1.4516Y-2.65
X1.4516Y-2.85
X2.0963Y-2.1114
X2.175Y-2.1114
X2.2537Y-2.1114
X2.5136Y-2.3713
X2.5136Y-2.45
X2.5136Y-2.5287
T5
X1.2Y-2.6
X1.2Y-2.9
T6
X2.875Y-2.2
X3.8Y-2.2
X3.8Y-2.3
X4.4Y-1.35
X4.4Y-1.45
X4.4Y-1.55
X4.4Y-1.65
X4.4Y-1.75
X4.4Y-1.85
X2.775Y-4.1
X2.875Y-4.1
X2.975Y-4.1
X3.075Y-4.1
X3.1Y-2.2
X3.2Y-2.2
X3.3Y-2.2
X3.4Y-2.2
X3.5Y-2.2
X3.6Y-2.2
X4.3258Y-1.975
X4.4242Y-1.975
X2.875Y-4.0
X2.75Y-3.275
X3.2Y-2.3
X3.3Y-2.3
X3.4Y-2.3
X3.5Y-2.3
X3.6Y-2.3
X3.7Y-2.3
X2.975Y-4.0
X3.1Y-4.0
X3.2Y-4.0
X3.3Y-4.0
X3.4Y-4.0
X3.5Y-4.0
X3.6Y-4.0
X2.975Y-2.2
X4.3258Y-3.775
X4.4242Y-3.775
X3.8Y-4.0
X3.8Y-4.1
X3.2Y-4.1
X3.3Y-4.1
X3.4Y-4.1
X3.5Y-4.1
X3.6Y-4.1
X3.7Y-4.1
X2.75Y-1.375
X4.625Y-2.125
X4.625Y-2.225
X4.625Y-2.325
X2.775Y-2.3
X2.875Y-2.3
X2.975Y-2.3
X3.075Y-2.3
X2.75Y-3.175
X4.4Y-3.15
X4.4Y-3.25
X4.4Y-3.35
X4.4Y-3.45
X4.4Y-3.55
X4.4Y-3.65
X4.625Y-3.925
X4.625Y-4.025
X4.625Y-4.125
X2.75Y-1.475
X2.05Y-2.925
X2.05Y-3.025
T7
X1.1Y-2.275
X1.35Y-2.175
X1.2Y-3.125
X1.45Y-3.025
X2.05Y-3.225
X2.3Y-3.125
T8
X1.9388Y-2.2138
X2.4112Y-2.6862
T9
X2.8283Y-2.972
X4.5969Y-2.55
X2.8283Y-4.35
X4.5969Y-1.172
X2.8252Y-1.172
X4.6Y-4.35
X4.6Y-2.972
X2.8252Y-2.55
T10
X2.0Y-3.325
X2.4Y-3.325
X1.05Y-2.375
X1.45Y-2.375
X1.15Y-3.225
X1.55Y-3.225
T11
X2.2Y-3.325
X1.25Y-2.375
X1.35Y-3.225
T0
M30
