G04 #@! TF.GenerationSoftware,KiCad,Pcbnew,(5.1.5)-3*
G04 #@! TF.CreationDate,2020-09-25T18:16:36+09:00*
G04 #@! TF.ProjectId,righthand,72696768-7468-4616-9e64-2e6b69636164,rev?*
G04 #@! TF.SameCoordinates,Original*
G04 #@! TF.FileFunction,Soldermask,Bot*
G04 #@! TF.FilePolarity,Negative*
%FSLAX46Y46*%
G04 Gerber Fmt 4.6, Leading zero omitted, Abs format (unit mm)*
G04 Created by KiCad (PCBNEW (5.1.5)-3) date 2020-09-25 18:16:36*
%MOMM*%
%LPD*%
G04 APERTURE LIST*
%ADD10C,0.100000*%
G04 APERTURE END LIST*
D10*
G36*
X141568254Y-95182818D02*
G01*
X141941511Y-95337426D01*
X141941513Y-95337427D01*
X142214752Y-95520000D01*
X142277436Y-95561884D01*
X142563116Y-95847564D01*
X142787574Y-96183489D01*
X142942182Y-96556746D01*
X143021000Y-96952993D01*
X143021000Y-97357007D01*
X142942182Y-97753254D01*
X142787574Y-98126511D01*
X142787573Y-98126513D01*
X142563116Y-98462436D01*
X142277436Y-98748116D01*
X141941513Y-98972573D01*
X141941512Y-98972574D01*
X141941511Y-98972574D01*
X141568254Y-99127182D01*
X141172007Y-99206000D01*
X140767993Y-99206000D01*
X140371746Y-99127182D01*
X139998489Y-98972574D01*
X139998488Y-98972574D01*
X139998487Y-98972573D01*
X139662564Y-98748116D01*
X139376884Y-98462436D01*
X139152427Y-98126513D01*
X139152426Y-98126511D01*
X138997818Y-97753254D01*
X138919000Y-97357007D01*
X138919000Y-96952993D01*
X138997818Y-96556746D01*
X139152426Y-96183489D01*
X139376884Y-95847564D01*
X139662564Y-95561884D01*
X139725248Y-95520000D01*
X139998487Y-95337427D01*
X139998489Y-95337426D01*
X140371746Y-95182818D01*
X140767993Y-95104000D01*
X141172007Y-95104000D01*
X141568254Y-95182818D01*
G37*
G36*
X161888254Y-95182818D02*
G01*
X162261511Y-95337426D01*
X162261513Y-95337427D01*
X162534752Y-95520000D01*
X162597436Y-95561884D01*
X162883116Y-95847564D01*
X163107574Y-96183489D01*
X163262182Y-96556746D01*
X163341000Y-96952993D01*
X163341000Y-97357007D01*
X163262182Y-97753254D01*
X163107574Y-98126511D01*
X163107573Y-98126513D01*
X162883116Y-98462436D01*
X162597436Y-98748116D01*
X162261513Y-98972573D01*
X162261512Y-98972574D01*
X162261511Y-98972574D01*
X161888254Y-99127182D01*
X161492007Y-99206000D01*
X161087993Y-99206000D01*
X160691746Y-99127182D01*
X160318489Y-98972574D01*
X160318488Y-98972574D01*
X160318487Y-98972573D01*
X159982564Y-98748116D01*
X159696884Y-98462436D01*
X159472427Y-98126513D01*
X159472426Y-98126511D01*
X159317818Y-97753254D01*
X159239000Y-97357007D01*
X159239000Y-96952993D01*
X159317818Y-96556746D01*
X159472426Y-96183489D01*
X159696884Y-95847564D01*
X159982564Y-95561884D01*
X160045248Y-95520000D01*
X160318487Y-95337427D01*
X160318489Y-95337426D01*
X160691746Y-95182818D01*
X161087993Y-95104000D01*
X161492007Y-95104000D01*
X161888254Y-95182818D01*
G37*
G36*
X182208254Y-95182818D02*
G01*
X182581511Y-95337426D01*
X182581513Y-95337427D01*
X182854752Y-95520000D01*
X182917436Y-95561884D01*
X183203116Y-95847564D01*
X183427574Y-96183489D01*
X183582182Y-96556746D01*
X183661000Y-96952993D01*
X183661000Y-97357007D01*
X183582182Y-97753254D01*
X183427574Y-98126511D01*
X183427573Y-98126513D01*
X183203116Y-98462436D01*
X182917436Y-98748116D01*
X182581513Y-98972573D01*
X182581512Y-98972574D01*
X182581511Y-98972574D01*
X182208254Y-99127182D01*
X181812007Y-99206000D01*
X181407993Y-99206000D01*
X181011746Y-99127182D01*
X180638489Y-98972574D01*
X180638488Y-98972574D01*
X180638487Y-98972573D01*
X180302564Y-98748116D01*
X180016884Y-98462436D01*
X179792427Y-98126513D01*
X179792426Y-98126511D01*
X179637818Y-97753254D01*
X179559000Y-97357007D01*
X179559000Y-96952993D01*
X179637818Y-96556746D01*
X179792426Y-96183489D01*
X180016884Y-95847564D01*
X180302564Y-95561884D01*
X180365248Y-95520000D01*
X180638487Y-95337427D01*
X180638489Y-95337426D01*
X181011746Y-95182818D01*
X181407993Y-95104000D01*
X181812007Y-95104000D01*
X182208254Y-95182818D01*
G37*
G36*
X167014549Y-96026116D02*
G01*
X167125734Y-96048232D01*
X167335203Y-96134997D01*
X167523720Y-96260960D01*
X167684040Y-96421280D01*
X167810003Y-96609797D01*
X167896768Y-96819266D01*
X167941000Y-97041636D01*
X167941000Y-97268364D01*
X167896768Y-97490734D01*
X167810003Y-97700203D01*
X167684040Y-97888720D01*
X167523720Y-98049040D01*
X167335203Y-98175003D01*
X167125734Y-98261768D01*
X167014549Y-98283884D01*
X166903365Y-98306000D01*
X166676635Y-98306000D01*
X166565451Y-98283884D01*
X166454266Y-98261768D01*
X166244797Y-98175003D01*
X166056280Y-98049040D01*
X165895960Y-97888720D01*
X165769997Y-97700203D01*
X165683232Y-97490734D01*
X165639000Y-97268364D01*
X165639000Y-97041636D01*
X165683232Y-96819266D01*
X165769997Y-96609797D01*
X165895960Y-96421280D01*
X166056280Y-96260960D01*
X166244797Y-96134997D01*
X166454266Y-96048232D01*
X166565451Y-96026116D01*
X166676635Y-96004000D01*
X166903365Y-96004000D01*
X167014549Y-96026116D01*
G37*
G36*
X135694549Y-96026116D02*
G01*
X135805734Y-96048232D01*
X136015203Y-96134997D01*
X136203720Y-96260960D01*
X136364040Y-96421280D01*
X136490003Y-96609797D01*
X136576768Y-96819266D01*
X136621000Y-97041636D01*
X136621000Y-97268364D01*
X136576768Y-97490734D01*
X136490003Y-97700203D01*
X136364040Y-97888720D01*
X136203720Y-98049040D01*
X136015203Y-98175003D01*
X135805734Y-98261768D01*
X135694549Y-98283884D01*
X135583365Y-98306000D01*
X135356635Y-98306000D01*
X135245451Y-98283884D01*
X135134266Y-98261768D01*
X134924797Y-98175003D01*
X134736280Y-98049040D01*
X134575960Y-97888720D01*
X134449997Y-97700203D01*
X134363232Y-97490734D01*
X134319000Y-97268364D01*
X134319000Y-97041636D01*
X134363232Y-96819266D01*
X134449997Y-96609797D01*
X134575960Y-96421280D01*
X134736280Y-96260960D01*
X134924797Y-96134997D01*
X135134266Y-96048232D01*
X135245451Y-96026116D01*
X135356635Y-96004000D01*
X135583365Y-96004000D01*
X135694549Y-96026116D01*
G37*
G36*
X146694549Y-96026116D02*
G01*
X146805734Y-96048232D01*
X147015203Y-96134997D01*
X147203720Y-96260960D01*
X147364040Y-96421280D01*
X147490003Y-96609797D01*
X147576768Y-96819266D01*
X147621000Y-97041636D01*
X147621000Y-97268364D01*
X147576768Y-97490734D01*
X147490003Y-97700203D01*
X147364040Y-97888720D01*
X147203720Y-98049040D01*
X147015203Y-98175003D01*
X146805734Y-98261768D01*
X146694549Y-98283884D01*
X146583365Y-98306000D01*
X146356635Y-98306000D01*
X146245451Y-98283884D01*
X146134266Y-98261768D01*
X145924797Y-98175003D01*
X145736280Y-98049040D01*
X145575960Y-97888720D01*
X145449997Y-97700203D01*
X145363232Y-97490734D01*
X145319000Y-97268364D01*
X145319000Y-97041636D01*
X145363232Y-96819266D01*
X145449997Y-96609797D01*
X145575960Y-96421280D01*
X145736280Y-96260960D01*
X145924797Y-96134997D01*
X146134266Y-96048232D01*
X146245451Y-96026116D01*
X146356635Y-96004000D01*
X146583365Y-96004000D01*
X146694549Y-96026116D01*
G37*
G36*
X187334549Y-96026116D02*
G01*
X187445734Y-96048232D01*
X187655203Y-96134997D01*
X187843720Y-96260960D01*
X188004040Y-96421280D01*
X188130003Y-96609797D01*
X188216768Y-96819266D01*
X188261000Y-97041636D01*
X188261000Y-97268364D01*
X188216768Y-97490734D01*
X188130003Y-97700203D01*
X188004040Y-97888720D01*
X187843720Y-98049040D01*
X187655203Y-98175003D01*
X187445734Y-98261768D01*
X187334549Y-98283884D01*
X187223365Y-98306000D01*
X186996635Y-98306000D01*
X186885451Y-98283884D01*
X186774266Y-98261768D01*
X186564797Y-98175003D01*
X186376280Y-98049040D01*
X186215960Y-97888720D01*
X186089997Y-97700203D01*
X186003232Y-97490734D01*
X185959000Y-97268364D01*
X185959000Y-97041636D01*
X186003232Y-96819266D01*
X186089997Y-96609797D01*
X186215960Y-96421280D01*
X186376280Y-96260960D01*
X186564797Y-96134997D01*
X186774266Y-96048232D01*
X186885451Y-96026116D01*
X186996635Y-96004000D01*
X187223365Y-96004000D01*
X187334549Y-96026116D01*
G37*
G36*
X176334549Y-96026116D02*
G01*
X176445734Y-96048232D01*
X176655203Y-96134997D01*
X176843720Y-96260960D01*
X177004040Y-96421280D01*
X177130003Y-96609797D01*
X177216768Y-96819266D01*
X177261000Y-97041636D01*
X177261000Y-97268364D01*
X177216768Y-97490734D01*
X177130003Y-97700203D01*
X177004040Y-97888720D01*
X176843720Y-98049040D01*
X176655203Y-98175003D01*
X176445734Y-98261768D01*
X176334549Y-98283884D01*
X176223365Y-98306000D01*
X175996635Y-98306000D01*
X175885451Y-98283884D01*
X175774266Y-98261768D01*
X175564797Y-98175003D01*
X175376280Y-98049040D01*
X175215960Y-97888720D01*
X175089997Y-97700203D01*
X175003232Y-97490734D01*
X174959000Y-97268364D01*
X174959000Y-97041636D01*
X175003232Y-96819266D01*
X175089997Y-96609797D01*
X175215960Y-96421280D01*
X175376280Y-96260960D01*
X175564797Y-96134997D01*
X175774266Y-96048232D01*
X175885451Y-96026116D01*
X175996635Y-96004000D01*
X176223365Y-96004000D01*
X176334549Y-96026116D01*
G37*
G36*
X156014549Y-96026116D02*
G01*
X156125734Y-96048232D01*
X156335203Y-96134997D01*
X156523720Y-96260960D01*
X156684040Y-96421280D01*
X156810003Y-96609797D01*
X156896768Y-96819266D01*
X156941000Y-97041636D01*
X156941000Y-97268364D01*
X156896768Y-97490734D01*
X156810003Y-97700203D01*
X156684040Y-97888720D01*
X156523720Y-98049040D01*
X156335203Y-98175003D01*
X156125734Y-98261768D01*
X156014549Y-98283884D01*
X155903365Y-98306000D01*
X155676635Y-98306000D01*
X155565451Y-98283884D01*
X155454266Y-98261768D01*
X155244797Y-98175003D01*
X155056280Y-98049040D01*
X154895960Y-97888720D01*
X154769997Y-97700203D01*
X154683232Y-97490734D01*
X154639000Y-97268364D01*
X154639000Y-97041636D01*
X154683232Y-96819266D01*
X154769997Y-96609797D01*
X154895960Y-96421280D01*
X155056280Y-96260960D01*
X155244797Y-96134997D01*
X155454266Y-96048232D01*
X155565451Y-96026116D01*
X155676635Y-96004000D01*
X155903365Y-96004000D01*
X156014549Y-96026116D01*
G37*
G36*
X190316000Y-97552000D02*
G01*
X189414000Y-97552000D01*
X189414000Y-96250000D01*
X190316000Y-96250000D01*
X190316000Y-97552000D01*
G37*
G36*
X190316000Y-95520000D02*
G01*
X189414000Y-95520000D01*
X189414000Y-94218000D01*
X190316000Y-94218000D01*
X190316000Y-95520000D01*
G37*
G36*
X166514549Y-92226116D02*
G01*
X166625734Y-92248232D01*
X166835203Y-92334997D01*
X167023720Y-92460960D01*
X167184040Y-92621280D01*
X167310003Y-92809797D01*
X167396768Y-93019266D01*
X167441000Y-93241636D01*
X167441000Y-93468364D01*
X167396768Y-93690734D01*
X167310003Y-93900203D01*
X167184040Y-94088720D01*
X167023720Y-94249040D01*
X166835203Y-94375003D01*
X166625734Y-94461768D01*
X166514549Y-94483884D01*
X166403365Y-94506000D01*
X166176635Y-94506000D01*
X166065451Y-94483884D01*
X165954266Y-94461768D01*
X165744797Y-94375003D01*
X165556280Y-94249040D01*
X165395960Y-94088720D01*
X165269997Y-93900203D01*
X165183232Y-93690734D01*
X165139000Y-93468364D01*
X165139000Y-93241636D01*
X165183232Y-93019266D01*
X165269997Y-92809797D01*
X165395960Y-92621280D01*
X165556280Y-92460960D01*
X165744797Y-92334997D01*
X165954266Y-92248232D01*
X166065451Y-92226116D01*
X166176635Y-92204000D01*
X166403365Y-92204000D01*
X166514549Y-92226116D01*
G37*
G36*
X186834549Y-92226116D02*
G01*
X186945734Y-92248232D01*
X187155203Y-92334997D01*
X187343720Y-92460960D01*
X187504040Y-92621280D01*
X187630003Y-92809797D01*
X187716768Y-93019266D01*
X187761000Y-93241636D01*
X187761000Y-93468364D01*
X187716768Y-93690734D01*
X187630003Y-93900203D01*
X187504040Y-94088720D01*
X187343720Y-94249040D01*
X187155203Y-94375003D01*
X186945734Y-94461768D01*
X186834549Y-94483884D01*
X186723365Y-94506000D01*
X186496635Y-94506000D01*
X186385451Y-94483884D01*
X186274266Y-94461768D01*
X186064797Y-94375003D01*
X185876280Y-94249040D01*
X185715960Y-94088720D01*
X185589997Y-93900203D01*
X185503232Y-93690734D01*
X185459000Y-93468364D01*
X185459000Y-93241636D01*
X185503232Y-93019266D01*
X185589997Y-92809797D01*
X185715960Y-92621280D01*
X185876280Y-92460960D01*
X186064797Y-92334997D01*
X186274266Y-92248232D01*
X186385451Y-92226116D01*
X186496635Y-92204000D01*
X186723365Y-92204000D01*
X186834549Y-92226116D01*
G37*
G36*
X146194549Y-92226116D02*
G01*
X146305734Y-92248232D01*
X146515203Y-92334997D01*
X146703720Y-92460960D01*
X146864040Y-92621280D01*
X146990003Y-92809797D01*
X147076768Y-93019266D01*
X147121000Y-93241636D01*
X147121000Y-93468364D01*
X147076768Y-93690734D01*
X146990003Y-93900203D01*
X146864040Y-94088720D01*
X146703720Y-94249040D01*
X146515203Y-94375003D01*
X146305734Y-94461768D01*
X146194549Y-94483884D01*
X146083365Y-94506000D01*
X145856635Y-94506000D01*
X145745451Y-94483884D01*
X145634266Y-94461768D01*
X145424797Y-94375003D01*
X145236280Y-94249040D01*
X145075960Y-94088720D01*
X144949997Y-93900203D01*
X144863232Y-93690734D01*
X144819000Y-93468364D01*
X144819000Y-93241636D01*
X144863232Y-93019266D01*
X144949997Y-92809797D01*
X145075960Y-92621280D01*
X145236280Y-92460960D01*
X145424797Y-92334997D01*
X145634266Y-92248232D01*
X145745451Y-92226116D01*
X145856635Y-92204000D01*
X146083365Y-92204000D01*
X146194549Y-92226116D01*
G37*
G36*
X161514549Y-90126116D02*
G01*
X161625734Y-90148232D01*
X161835203Y-90234997D01*
X162023720Y-90360960D01*
X162184040Y-90521280D01*
X162310003Y-90709797D01*
X162396768Y-90919266D01*
X162441000Y-91141636D01*
X162441000Y-91368364D01*
X162396768Y-91590734D01*
X162310003Y-91800203D01*
X162184040Y-91988720D01*
X162023720Y-92149040D01*
X161835203Y-92275003D01*
X161625734Y-92361768D01*
X161514549Y-92383884D01*
X161403365Y-92406000D01*
X161176635Y-92406000D01*
X161065451Y-92383884D01*
X160954266Y-92361768D01*
X160744797Y-92275003D01*
X160556280Y-92149040D01*
X160395960Y-91988720D01*
X160269997Y-91800203D01*
X160183232Y-91590734D01*
X160139000Y-91368364D01*
X160139000Y-91141636D01*
X160183232Y-90919266D01*
X160269997Y-90709797D01*
X160395960Y-90521280D01*
X160556280Y-90360960D01*
X160744797Y-90234997D01*
X160954266Y-90148232D01*
X161065451Y-90126116D01*
X161176635Y-90104000D01*
X161403365Y-90104000D01*
X161514549Y-90126116D01*
G37*
G36*
X141194549Y-90126116D02*
G01*
X141305734Y-90148232D01*
X141515203Y-90234997D01*
X141703720Y-90360960D01*
X141864040Y-90521280D01*
X141990003Y-90709797D01*
X142076768Y-90919266D01*
X142121000Y-91141636D01*
X142121000Y-91368364D01*
X142076768Y-91590734D01*
X141990003Y-91800203D01*
X141864040Y-91988720D01*
X141703720Y-92149040D01*
X141515203Y-92275003D01*
X141305734Y-92361768D01*
X141194549Y-92383884D01*
X141083365Y-92406000D01*
X140856635Y-92406000D01*
X140745451Y-92383884D01*
X140634266Y-92361768D01*
X140424797Y-92275003D01*
X140236280Y-92149040D01*
X140075960Y-91988720D01*
X139949997Y-91800203D01*
X139863232Y-91590734D01*
X139819000Y-91368364D01*
X139819000Y-91141636D01*
X139863232Y-90919266D01*
X139949997Y-90709797D01*
X140075960Y-90521280D01*
X140236280Y-90360960D01*
X140424797Y-90234997D01*
X140634266Y-90148232D01*
X140745451Y-90126116D01*
X140856635Y-90104000D01*
X141083365Y-90104000D01*
X141194549Y-90126116D01*
G37*
G36*
X181834549Y-90126116D02*
G01*
X181945734Y-90148232D01*
X182155203Y-90234997D01*
X182343720Y-90360960D01*
X182504040Y-90521280D01*
X182630003Y-90709797D01*
X182716768Y-90919266D01*
X182761000Y-91141636D01*
X182761000Y-91368364D01*
X182716768Y-91590734D01*
X182630003Y-91800203D01*
X182504040Y-91988720D01*
X182343720Y-92149040D01*
X182155203Y-92275003D01*
X181945734Y-92361768D01*
X181834549Y-92383884D01*
X181723365Y-92406000D01*
X181496635Y-92406000D01*
X181385451Y-92383884D01*
X181274266Y-92361768D01*
X181064797Y-92275003D01*
X180876280Y-92149040D01*
X180715960Y-91988720D01*
X180589997Y-91800203D01*
X180503232Y-91590734D01*
X180459000Y-91368364D01*
X180459000Y-91141636D01*
X180503232Y-90919266D01*
X180589997Y-90709797D01*
X180715960Y-90521280D01*
X180876280Y-90360960D01*
X181064797Y-90234997D01*
X181274266Y-90148232D01*
X181385451Y-90126116D01*
X181496635Y-90104000D01*
X181723365Y-90104000D01*
X181834549Y-90126116D01*
G37*
G36*
X161888254Y-74862818D02*
G01*
X162261511Y-75017426D01*
X162261513Y-75017427D01*
X162534752Y-75200000D01*
X162597436Y-75241884D01*
X162883116Y-75527564D01*
X163107574Y-75863489D01*
X163262182Y-76236746D01*
X163341000Y-76632993D01*
X163341000Y-77037007D01*
X163262182Y-77433254D01*
X163107574Y-77806511D01*
X163107573Y-77806513D01*
X162883116Y-78142436D01*
X162597436Y-78428116D01*
X162261513Y-78652573D01*
X162261512Y-78652574D01*
X162261511Y-78652574D01*
X161888254Y-78807182D01*
X161492007Y-78886000D01*
X161087993Y-78886000D01*
X160691746Y-78807182D01*
X160318489Y-78652574D01*
X160318488Y-78652574D01*
X160318487Y-78652573D01*
X159982564Y-78428116D01*
X159696884Y-78142436D01*
X159472427Y-77806513D01*
X159472426Y-77806511D01*
X159317818Y-77433254D01*
X159239000Y-77037007D01*
X159239000Y-76632993D01*
X159317818Y-76236746D01*
X159472426Y-75863489D01*
X159696884Y-75527564D01*
X159982564Y-75241884D01*
X160045248Y-75200000D01*
X160318487Y-75017427D01*
X160318489Y-75017426D01*
X160691746Y-74862818D01*
X161087993Y-74784000D01*
X161492007Y-74784000D01*
X161888254Y-74862818D01*
G37*
G36*
X141568254Y-74862818D02*
G01*
X141941511Y-75017426D01*
X141941513Y-75017427D01*
X142214752Y-75200000D01*
X142277436Y-75241884D01*
X142563116Y-75527564D01*
X142787574Y-75863489D01*
X142942182Y-76236746D01*
X143021000Y-76632993D01*
X143021000Y-77037007D01*
X142942182Y-77433254D01*
X142787574Y-77806511D01*
X142787573Y-77806513D01*
X142563116Y-78142436D01*
X142277436Y-78428116D01*
X141941513Y-78652573D01*
X141941512Y-78652574D01*
X141941511Y-78652574D01*
X141568254Y-78807182D01*
X141172007Y-78886000D01*
X140767993Y-78886000D01*
X140371746Y-78807182D01*
X139998489Y-78652574D01*
X139998488Y-78652574D01*
X139998487Y-78652573D01*
X139662564Y-78428116D01*
X139376884Y-78142436D01*
X139152427Y-77806513D01*
X139152426Y-77806511D01*
X138997818Y-77433254D01*
X138919000Y-77037007D01*
X138919000Y-76632993D01*
X138997818Y-76236746D01*
X139152426Y-75863489D01*
X139376884Y-75527564D01*
X139662564Y-75241884D01*
X139725248Y-75200000D01*
X139998487Y-75017427D01*
X139998489Y-75017426D01*
X140371746Y-74862818D01*
X140767993Y-74784000D01*
X141172007Y-74784000D01*
X141568254Y-74862818D01*
G37*
G36*
X182208254Y-74862818D02*
G01*
X182581511Y-75017426D01*
X182581513Y-75017427D01*
X182854752Y-75200000D01*
X182917436Y-75241884D01*
X183203116Y-75527564D01*
X183427574Y-75863489D01*
X183582182Y-76236746D01*
X183661000Y-76632993D01*
X183661000Y-77037007D01*
X183582182Y-77433254D01*
X183427574Y-77806511D01*
X183427573Y-77806513D01*
X183203116Y-78142436D01*
X182917436Y-78428116D01*
X182581513Y-78652573D01*
X182581512Y-78652574D01*
X182581511Y-78652574D01*
X182208254Y-78807182D01*
X181812007Y-78886000D01*
X181407993Y-78886000D01*
X181011746Y-78807182D01*
X180638489Y-78652574D01*
X180638488Y-78652574D01*
X180638487Y-78652573D01*
X180302564Y-78428116D01*
X180016884Y-78142436D01*
X179792427Y-77806513D01*
X179792426Y-77806511D01*
X179637818Y-77433254D01*
X179559000Y-77037007D01*
X179559000Y-76632993D01*
X179637818Y-76236746D01*
X179792426Y-75863489D01*
X180016884Y-75527564D01*
X180302564Y-75241884D01*
X180365248Y-75200000D01*
X180638487Y-75017427D01*
X180638489Y-75017426D01*
X181011746Y-74862818D01*
X181407993Y-74784000D01*
X181812007Y-74784000D01*
X182208254Y-74862818D01*
G37*
G36*
X167014549Y-75706116D02*
G01*
X167125734Y-75728232D01*
X167335203Y-75814997D01*
X167523720Y-75940960D01*
X167684040Y-76101280D01*
X167810003Y-76289797D01*
X167896768Y-76499266D01*
X167941000Y-76721636D01*
X167941000Y-76948364D01*
X167896768Y-77170734D01*
X167810003Y-77380203D01*
X167684040Y-77568720D01*
X167523720Y-77729040D01*
X167335203Y-77855003D01*
X167125734Y-77941768D01*
X167014549Y-77963884D01*
X166903365Y-77986000D01*
X166676635Y-77986000D01*
X166565451Y-77963884D01*
X166454266Y-77941768D01*
X166244797Y-77855003D01*
X166056280Y-77729040D01*
X165895960Y-77568720D01*
X165769997Y-77380203D01*
X165683232Y-77170734D01*
X165639000Y-76948364D01*
X165639000Y-76721636D01*
X165683232Y-76499266D01*
X165769997Y-76289797D01*
X165895960Y-76101280D01*
X166056280Y-75940960D01*
X166244797Y-75814997D01*
X166454266Y-75728232D01*
X166565451Y-75706116D01*
X166676635Y-75684000D01*
X166903365Y-75684000D01*
X167014549Y-75706116D01*
G37*
G36*
X176334549Y-75706116D02*
G01*
X176445734Y-75728232D01*
X176655203Y-75814997D01*
X176843720Y-75940960D01*
X177004040Y-76101280D01*
X177130003Y-76289797D01*
X177216768Y-76499266D01*
X177261000Y-76721636D01*
X177261000Y-76948364D01*
X177216768Y-77170734D01*
X177130003Y-77380203D01*
X177004040Y-77568720D01*
X176843720Y-77729040D01*
X176655203Y-77855003D01*
X176445734Y-77941768D01*
X176334549Y-77963884D01*
X176223365Y-77986000D01*
X175996635Y-77986000D01*
X175885451Y-77963884D01*
X175774266Y-77941768D01*
X175564797Y-77855003D01*
X175376280Y-77729040D01*
X175215960Y-77568720D01*
X175089997Y-77380203D01*
X175003232Y-77170734D01*
X174959000Y-76948364D01*
X174959000Y-76721636D01*
X175003232Y-76499266D01*
X175089997Y-76289797D01*
X175215960Y-76101280D01*
X175376280Y-75940960D01*
X175564797Y-75814997D01*
X175774266Y-75728232D01*
X175885451Y-75706116D01*
X175996635Y-75684000D01*
X176223365Y-75684000D01*
X176334549Y-75706116D01*
G37*
G36*
X135694549Y-75706116D02*
G01*
X135805734Y-75728232D01*
X136015203Y-75814997D01*
X136203720Y-75940960D01*
X136364040Y-76101280D01*
X136490003Y-76289797D01*
X136576768Y-76499266D01*
X136621000Y-76721636D01*
X136621000Y-76948364D01*
X136576768Y-77170734D01*
X136490003Y-77380203D01*
X136364040Y-77568720D01*
X136203720Y-77729040D01*
X136015203Y-77855003D01*
X135805734Y-77941768D01*
X135694549Y-77963884D01*
X135583365Y-77986000D01*
X135356635Y-77986000D01*
X135245451Y-77963884D01*
X135134266Y-77941768D01*
X134924797Y-77855003D01*
X134736280Y-77729040D01*
X134575960Y-77568720D01*
X134449997Y-77380203D01*
X134363232Y-77170734D01*
X134319000Y-76948364D01*
X134319000Y-76721636D01*
X134363232Y-76499266D01*
X134449997Y-76289797D01*
X134575960Y-76101280D01*
X134736280Y-75940960D01*
X134924797Y-75814997D01*
X135134266Y-75728232D01*
X135245451Y-75706116D01*
X135356635Y-75684000D01*
X135583365Y-75684000D01*
X135694549Y-75706116D01*
G37*
G36*
X187334549Y-75706116D02*
G01*
X187445734Y-75728232D01*
X187655203Y-75814997D01*
X187843720Y-75940960D01*
X188004040Y-76101280D01*
X188130003Y-76289797D01*
X188216768Y-76499266D01*
X188261000Y-76721636D01*
X188261000Y-76948364D01*
X188216768Y-77170734D01*
X188130003Y-77380203D01*
X188004040Y-77568720D01*
X187843720Y-77729040D01*
X187655203Y-77855003D01*
X187445734Y-77941768D01*
X187334549Y-77963884D01*
X187223365Y-77986000D01*
X186996635Y-77986000D01*
X186885451Y-77963884D01*
X186774266Y-77941768D01*
X186564797Y-77855003D01*
X186376280Y-77729040D01*
X186215960Y-77568720D01*
X186089997Y-77380203D01*
X186003232Y-77170734D01*
X185959000Y-76948364D01*
X185959000Y-76721636D01*
X186003232Y-76499266D01*
X186089997Y-76289797D01*
X186215960Y-76101280D01*
X186376280Y-75940960D01*
X186564797Y-75814997D01*
X186774266Y-75728232D01*
X186885451Y-75706116D01*
X186996635Y-75684000D01*
X187223365Y-75684000D01*
X187334549Y-75706116D01*
G37*
G36*
X146694549Y-75706116D02*
G01*
X146805734Y-75728232D01*
X147015203Y-75814997D01*
X147203720Y-75940960D01*
X147364040Y-76101280D01*
X147490003Y-76289797D01*
X147576768Y-76499266D01*
X147621000Y-76721636D01*
X147621000Y-76948364D01*
X147576768Y-77170734D01*
X147490003Y-77380203D01*
X147364040Y-77568720D01*
X147203720Y-77729040D01*
X147015203Y-77855003D01*
X146805734Y-77941768D01*
X146694549Y-77963884D01*
X146583365Y-77986000D01*
X146356635Y-77986000D01*
X146245451Y-77963884D01*
X146134266Y-77941768D01*
X145924797Y-77855003D01*
X145736280Y-77729040D01*
X145575960Y-77568720D01*
X145449997Y-77380203D01*
X145363232Y-77170734D01*
X145319000Y-76948364D01*
X145319000Y-76721636D01*
X145363232Y-76499266D01*
X145449997Y-76289797D01*
X145575960Y-76101280D01*
X145736280Y-75940960D01*
X145924797Y-75814997D01*
X146134266Y-75728232D01*
X146245451Y-75706116D01*
X146356635Y-75684000D01*
X146583365Y-75684000D01*
X146694549Y-75706116D01*
G37*
G36*
X156014549Y-75706116D02*
G01*
X156125734Y-75728232D01*
X156335203Y-75814997D01*
X156523720Y-75940960D01*
X156684040Y-76101280D01*
X156810003Y-76289797D01*
X156896768Y-76499266D01*
X156941000Y-76721636D01*
X156941000Y-76948364D01*
X156896768Y-77170734D01*
X156810003Y-77380203D01*
X156684040Y-77568720D01*
X156523720Y-77729040D01*
X156335203Y-77855003D01*
X156125734Y-77941768D01*
X156014549Y-77963884D01*
X155903365Y-77986000D01*
X155676635Y-77986000D01*
X155565451Y-77963884D01*
X155454266Y-77941768D01*
X155244797Y-77855003D01*
X155056280Y-77729040D01*
X154895960Y-77568720D01*
X154769997Y-77380203D01*
X154683232Y-77170734D01*
X154639000Y-76948364D01*
X154639000Y-76721636D01*
X154683232Y-76499266D01*
X154769997Y-76289797D01*
X154895960Y-76101280D01*
X155056280Y-75940960D01*
X155244797Y-75814997D01*
X155454266Y-75728232D01*
X155565451Y-75706116D01*
X155676635Y-75684000D01*
X155903365Y-75684000D01*
X156014549Y-75706116D01*
G37*
G36*
X190316000Y-77232000D02*
G01*
X189414000Y-77232000D01*
X189414000Y-75930000D01*
X190316000Y-75930000D01*
X190316000Y-77232000D01*
G37*
G36*
X190316000Y-75200000D02*
G01*
X189414000Y-75200000D01*
X189414000Y-73898000D01*
X190316000Y-73898000D01*
X190316000Y-75200000D01*
G37*
G36*
X166514549Y-71906116D02*
G01*
X166625734Y-71928232D01*
X166835203Y-72014997D01*
X167023720Y-72140960D01*
X167184040Y-72301280D01*
X167310003Y-72489797D01*
X167396768Y-72699266D01*
X167441000Y-72921636D01*
X167441000Y-73148364D01*
X167396768Y-73370734D01*
X167310003Y-73580203D01*
X167184040Y-73768720D01*
X167023720Y-73929040D01*
X166835203Y-74055003D01*
X166625734Y-74141768D01*
X166514549Y-74163884D01*
X166403365Y-74186000D01*
X166176635Y-74186000D01*
X166065451Y-74163884D01*
X165954266Y-74141768D01*
X165744797Y-74055003D01*
X165556280Y-73929040D01*
X165395960Y-73768720D01*
X165269997Y-73580203D01*
X165183232Y-73370734D01*
X165139000Y-73148364D01*
X165139000Y-72921636D01*
X165183232Y-72699266D01*
X165269997Y-72489797D01*
X165395960Y-72301280D01*
X165556280Y-72140960D01*
X165744797Y-72014997D01*
X165954266Y-71928232D01*
X166065451Y-71906116D01*
X166176635Y-71884000D01*
X166403365Y-71884000D01*
X166514549Y-71906116D01*
G37*
G36*
X146194549Y-71906116D02*
G01*
X146305734Y-71928232D01*
X146515203Y-72014997D01*
X146703720Y-72140960D01*
X146864040Y-72301280D01*
X146990003Y-72489797D01*
X147076768Y-72699266D01*
X147121000Y-72921636D01*
X147121000Y-73148364D01*
X147076768Y-73370734D01*
X146990003Y-73580203D01*
X146864040Y-73768720D01*
X146703720Y-73929040D01*
X146515203Y-74055003D01*
X146305734Y-74141768D01*
X146194549Y-74163884D01*
X146083365Y-74186000D01*
X145856635Y-74186000D01*
X145745451Y-74163884D01*
X145634266Y-74141768D01*
X145424797Y-74055003D01*
X145236280Y-73929040D01*
X145075960Y-73768720D01*
X144949997Y-73580203D01*
X144863232Y-73370734D01*
X144819000Y-73148364D01*
X144819000Y-72921636D01*
X144863232Y-72699266D01*
X144949997Y-72489797D01*
X145075960Y-72301280D01*
X145236280Y-72140960D01*
X145424797Y-72014997D01*
X145634266Y-71928232D01*
X145745451Y-71906116D01*
X145856635Y-71884000D01*
X146083365Y-71884000D01*
X146194549Y-71906116D01*
G37*
G36*
X186834549Y-71906116D02*
G01*
X186945734Y-71928232D01*
X187155203Y-72014997D01*
X187343720Y-72140960D01*
X187504040Y-72301280D01*
X187630003Y-72489797D01*
X187716768Y-72699266D01*
X187761000Y-72921636D01*
X187761000Y-73148364D01*
X187716768Y-73370734D01*
X187630003Y-73580203D01*
X187504040Y-73768720D01*
X187343720Y-73929040D01*
X187155203Y-74055003D01*
X186945734Y-74141768D01*
X186834549Y-74163884D01*
X186723365Y-74186000D01*
X186496635Y-74186000D01*
X186385451Y-74163884D01*
X186274266Y-74141768D01*
X186064797Y-74055003D01*
X185876280Y-73929040D01*
X185715960Y-73768720D01*
X185589997Y-73580203D01*
X185503232Y-73370734D01*
X185459000Y-73148364D01*
X185459000Y-72921636D01*
X185503232Y-72699266D01*
X185589997Y-72489797D01*
X185715960Y-72301280D01*
X185876280Y-72140960D01*
X186064797Y-72014997D01*
X186274266Y-71928232D01*
X186385451Y-71906116D01*
X186496635Y-71884000D01*
X186723365Y-71884000D01*
X186834549Y-71906116D01*
G37*
G36*
X141194549Y-69806116D02*
G01*
X141305734Y-69828232D01*
X141515203Y-69914997D01*
X141703720Y-70040960D01*
X141864040Y-70201280D01*
X141990003Y-70389797D01*
X142076768Y-70599266D01*
X142121000Y-70821636D01*
X142121000Y-71048364D01*
X142076768Y-71270734D01*
X141990003Y-71480203D01*
X141864040Y-71668720D01*
X141703720Y-71829040D01*
X141515203Y-71955003D01*
X141305734Y-72041768D01*
X141194549Y-72063884D01*
X141083365Y-72086000D01*
X140856635Y-72086000D01*
X140745451Y-72063884D01*
X140634266Y-72041768D01*
X140424797Y-71955003D01*
X140236280Y-71829040D01*
X140075960Y-71668720D01*
X139949997Y-71480203D01*
X139863232Y-71270734D01*
X139819000Y-71048364D01*
X139819000Y-70821636D01*
X139863232Y-70599266D01*
X139949997Y-70389797D01*
X140075960Y-70201280D01*
X140236280Y-70040960D01*
X140424797Y-69914997D01*
X140634266Y-69828232D01*
X140745451Y-69806116D01*
X140856635Y-69784000D01*
X141083365Y-69784000D01*
X141194549Y-69806116D01*
G37*
G36*
X181834549Y-69806116D02*
G01*
X181945734Y-69828232D01*
X182155203Y-69914997D01*
X182343720Y-70040960D01*
X182504040Y-70201280D01*
X182630003Y-70389797D01*
X182716768Y-70599266D01*
X182761000Y-70821636D01*
X182761000Y-71048364D01*
X182716768Y-71270734D01*
X182630003Y-71480203D01*
X182504040Y-71668720D01*
X182343720Y-71829040D01*
X182155203Y-71955003D01*
X181945734Y-72041768D01*
X181834549Y-72063884D01*
X181723365Y-72086000D01*
X181496635Y-72086000D01*
X181385451Y-72063884D01*
X181274266Y-72041768D01*
X181064797Y-71955003D01*
X180876280Y-71829040D01*
X180715960Y-71668720D01*
X180589997Y-71480203D01*
X180503232Y-71270734D01*
X180459000Y-71048364D01*
X180459000Y-70821636D01*
X180503232Y-70599266D01*
X180589997Y-70389797D01*
X180715960Y-70201280D01*
X180876280Y-70040960D01*
X181064797Y-69914997D01*
X181274266Y-69828232D01*
X181385451Y-69806116D01*
X181496635Y-69784000D01*
X181723365Y-69784000D01*
X181834549Y-69806116D01*
G37*
G36*
X161514549Y-69806116D02*
G01*
X161625734Y-69828232D01*
X161835203Y-69914997D01*
X162023720Y-70040960D01*
X162184040Y-70201280D01*
X162310003Y-70389797D01*
X162396768Y-70599266D01*
X162441000Y-70821636D01*
X162441000Y-71048364D01*
X162396768Y-71270734D01*
X162310003Y-71480203D01*
X162184040Y-71668720D01*
X162023720Y-71829040D01*
X161835203Y-71955003D01*
X161625734Y-72041768D01*
X161514549Y-72063884D01*
X161403365Y-72086000D01*
X161176635Y-72086000D01*
X161065451Y-72063884D01*
X160954266Y-72041768D01*
X160744797Y-71955003D01*
X160556280Y-71829040D01*
X160395960Y-71668720D01*
X160269997Y-71480203D01*
X160183232Y-71270734D01*
X160139000Y-71048364D01*
X160139000Y-70821636D01*
X160183232Y-70599266D01*
X160269997Y-70389797D01*
X160395960Y-70201280D01*
X160556280Y-70040960D01*
X160744797Y-69914997D01*
X160954266Y-69828232D01*
X161065451Y-69806116D01*
X161176635Y-69784000D01*
X161403365Y-69784000D01*
X161514549Y-69806116D01*
G37*
G36*
X153907142Y-65933242D02*
G01*
X154055101Y-65994529D01*
X154188255Y-66083499D01*
X154301501Y-66196745D01*
X154390471Y-66329899D01*
X154451758Y-66477858D01*
X154483000Y-66634925D01*
X154483000Y-66795075D01*
X154451758Y-66952142D01*
X154390471Y-67100101D01*
X154301501Y-67233255D01*
X154188255Y-67346501D01*
X154055101Y-67435471D01*
X153907142Y-67496758D01*
X153750075Y-67528000D01*
X153589925Y-67528000D01*
X153432858Y-67496758D01*
X153284899Y-67435471D01*
X153151745Y-67346501D01*
X153038499Y-67233255D01*
X152949529Y-67100101D01*
X152888242Y-66952142D01*
X152857000Y-66795075D01*
X152857000Y-66634925D01*
X152888242Y-66477858D01*
X152949529Y-66329899D01*
X153038499Y-66196745D01*
X153151745Y-66083499D01*
X153284899Y-65994529D01*
X153432858Y-65933242D01*
X153589925Y-65902000D01*
X153750075Y-65902000D01*
X153907142Y-65933242D01*
G37*
G36*
X148827142Y-65933242D02*
G01*
X148975101Y-65994529D01*
X149108255Y-66083499D01*
X149221501Y-66196745D01*
X149310471Y-66329899D01*
X149371758Y-66477858D01*
X149403000Y-66634925D01*
X149403000Y-66795075D01*
X149371758Y-66952142D01*
X149310471Y-67100101D01*
X149221501Y-67233255D01*
X149108255Y-67346501D01*
X148975101Y-67435471D01*
X148827142Y-67496758D01*
X148670075Y-67528000D01*
X148509925Y-67528000D01*
X148352858Y-67496758D01*
X148204899Y-67435471D01*
X148071745Y-67346501D01*
X147958499Y-67233255D01*
X147869529Y-67100101D01*
X147808242Y-66952142D01*
X147777000Y-66795075D01*
X147777000Y-66634925D01*
X147808242Y-66477858D01*
X147869529Y-66329899D01*
X147958499Y-66196745D01*
X148071745Y-66083499D01*
X148204899Y-65994529D01*
X148352858Y-65933242D01*
X148509925Y-65902000D01*
X148670075Y-65902000D01*
X148827142Y-65933242D01*
G37*
G36*
X159497916Y-65882334D02*
G01*
X159606492Y-65915271D01*
X159606495Y-65915272D01*
X159640114Y-65933242D01*
X159706557Y-65968756D01*
X159794264Y-66040736D01*
X159857383Y-66117646D01*
X159874702Y-66134965D01*
X159895077Y-66148579D01*
X159917716Y-66157957D01*
X159941749Y-66162737D01*
X159966253Y-66162737D01*
X159990286Y-66157957D01*
X160012925Y-66148579D01*
X160033299Y-66134966D01*
X160050626Y-66117639D01*
X160064240Y-66097264D01*
X160073618Y-66074625D01*
X160078398Y-66050592D01*
X160079000Y-66038340D01*
X160079000Y-65874000D01*
X161231000Y-65874000D01*
X161231000Y-67476000D01*
X160079000Y-67476000D01*
X160079000Y-67311660D01*
X160076598Y-67287274D01*
X160069485Y-67263825D01*
X160057934Y-67242214D01*
X160042389Y-67223272D01*
X160023447Y-67207727D01*
X160001836Y-67196176D01*
X159978387Y-67189063D01*
X159954001Y-67186661D01*
X159929615Y-67189063D01*
X159906166Y-67196176D01*
X159884555Y-67207727D01*
X159857381Y-67232356D01*
X159794264Y-67309264D01*
X159706556Y-67381244D01*
X159642600Y-67415429D01*
X159606494Y-67434728D01*
X159606491Y-67434729D01*
X159497915Y-67467666D01*
X159385000Y-67478787D01*
X159272084Y-67467666D01*
X159163508Y-67434729D01*
X159163505Y-67434728D01*
X159127399Y-67415429D01*
X159063443Y-67381244D01*
X158975736Y-67309264D01*
X158903756Y-67221556D01*
X158860239Y-67140140D01*
X158846625Y-67119766D01*
X158829298Y-67102439D01*
X158808924Y-67088825D01*
X158786285Y-67079448D01*
X158762251Y-67074668D01*
X158737747Y-67074668D01*
X158713714Y-67079449D01*
X158691075Y-67088826D01*
X158670701Y-67102440D01*
X158653374Y-67119767D01*
X158639762Y-67140140D01*
X158596244Y-67221557D01*
X158524264Y-67309264D01*
X158436556Y-67381244D01*
X158372600Y-67415429D01*
X158336494Y-67434728D01*
X158336491Y-67434729D01*
X158227915Y-67467666D01*
X158115000Y-67478787D01*
X158002084Y-67467666D01*
X157893508Y-67434729D01*
X157893505Y-67434728D01*
X157857399Y-67415429D01*
X157793443Y-67381244D01*
X157705736Y-67309264D01*
X157633756Y-67221556D01*
X157590239Y-67140140D01*
X157580272Y-67121494D01*
X157574492Y-67102440D01*
X157547334Y-67012915D01*
X157539000Y-66928297D01*
X157539000Y-66421702D01*
X157547334Y-66337084D01*
X157580271Y-66228508D01*
X157580272Y-66228505D01*
X157633756Y-66128445D01*
X157633757Y-66128443D01*
X157705737Y-66040736D01*
X157793444Y-65968756D01*
X157859887Y-65933242D01*
X157893506Y-65915272D01*
X157893509Y-65915271D01*
X158002085Y-65882334D01*
X158115000Y-65871213D01*
X158227916Y-65882334D01*
X158336492Y-65915271D01*
X158336495Y-65915272D01*
X158370114Y-65933242D01*
X158436557Y-65968756D01*
X158524264Y-66040736D01*
X158596244Y-66128443D01*
X158639761Y-66209859D01*
X158653375Y-66230234D01*
X158670702Y-66247561D01*
X158691076Y-66261174D01*
X158713715Y-66270552D01*
X158737748Y-66275332D01*
X158762252Y-66275332D01*
X158786285Y-66270552D01*
X158808924Y-66261174D01*
X158829299Y-66247560D01*
X158846626Y-66230233D01*
X158860239Y-66209859D01*
X158903756Y-66128445D01*
X158903757Y-66128443D01*
X158975737Y-66040736D01*
X159063444Y-65968756D01*
X159129887Y-65933242D01*
X159163506Y-65915272D01*
X159163509Y-65915271D01*
X159272085Y-65882334D01*
X159385000Y-65871213D01*
X159497916Y-65882334D01*
G37*
G36*
X174411000Y-64686000D02*
G01*
X171799000Y-64686000D01*
X171799000Y-63584000D01*
X174411000Y-63584000D01*
X174411000Y-64686000D01*
G37*
G36*
X171101000Y-62146000D02*
G01*
X168489000Y-62146000D01*
X168489000Y-61044000D01*
X171101000Y-61044000D01*
X171101000Y-62146000D01*
G37*
G36*
X149041000Y-60722000D02*
G01*
X148139000Y-60722000D01*
X148139000Y-59420000D01*
X149041000Y-59420000D01*
X149041000Y-60722000D01*
G37*
G36*
X174411000Y-59606000D02*
G01*
X171799000Y-59606000D01*
X171799000Y-58504000D01*
X174411000Y-58504000D01*
X174411000Y-59606000D01*
G37*
G36*
X149041000Y-58690000D02*
G01*
X148139000Y-58690000D01*
X148139000Y-57388000D01*
X149041000Y-57388000D01*
X149041000Y-58690000D01*
G37*
G36*
X151378228Y-56966703D02*
G01*
X151533100Y-57030853D01*
X151672481Y-57123985D01*
X151791015Y-57242519D01*
X151884147Y-57381900D01*
X151948297Y-57536772D01*
X151981000Y-57701184D01*
X151981000Y-57868816D01*
X151948297Y-58033228D01*
X151884147Y-58188100D01*
X151791015Y-58327481D01*
X151672481Y-58446015D01*
X151533100Y-58539147D01*
X151378228Y-58603297D01*
X151213816Y-58636000D01*
X151046184Y-58636000D01*
X150881772Y-58603297D01*
X150726900Y-58539147D01*
X150587519Y-58446015D01*
X150468985Y-58327481D01*
X150375853Y-58188100D01*
X150311703Y-58033228D01*
X150279000Y-57868816D01*
X150279000Y-57701184D01*
X150311703Y-57536772D01*
X150375853Y-57381900D01*
X150468985Y-57242519D01*
X150587519Y-57123985D01*
X150726900Y-57030853D01*
X150881772Y-56966703D01*
X151046184Y-56934000D01*
X151213816Y-56934000D01*
X151378228Y-56966703D01*
G37*
G36*
X141568254Y-54542818D02*
G01*
X141941511Y-54697426D01*
X141941513Y-54697427D01*
X142214752Y-54880000D01*
X142277436Y-54921884D01*
X142563116Y-55207564D01*
X142787574Y-55543489D01*
X142942182Y-55916746D01*
X143021000Y-56312993D01*
X143021000Y-56717007D01*
X142942182Y-57113254D01*
X142787574Y-57486511D01*
X142787573Y-57486513D01*
X142563116Y-57822436D01*
X142277436Y-58108116D01*
X141941513Y-58332573D01*
X141941512Y-58332574D01*
X141941511Y-58332574D01*
X141568254Y-58487182D01*
X141172007Y-58566000D01*
X140767993Y-58566000D01*
X140371746Y-58487182D01*
X139998489Y-58332574D01*
X139998488Y-58332574D01*
X139998487Y-58332573D01*
X139662564Y-58108116D01*
X139376884Y-57822436D01*
X139152427Y-57486513D01*
X139152426Y-57486511D01*
X138997818Y-57113254D01*
X138919000Y-56717007D01*
X138919000Y-56312993D01*
X138997818Y-55916746D01*
X139152426Y-55543489D01*
X139376884Y-55207564D01*
X139662564Y-54921884D01*
X139725248Y-54880000D01*
X139998487Y-54697427D01*
X139998489Y-54697426D01*
X140371746Y-54542818D01*
X140767993Y-54464000D01*
X141172007Y-54464000D01*
X141568254Y-54542818D01*
G37*
G36*
X161888254Y-54542818D02*
G01*
X162261511Y-54697426D01*
X162261513Y-54697427D01*
X162534752Y-54880000D01*
X162597436Y-54921884D01*
X162883116Y-55207564D01*
X163107574Y-55543489D01*
X163262182Y-55916746D01*
X163341000Y-56312993D01*
X163341000Y-56717007D01*
X163262182Y-57113254D01*
X163107574Y-57486511D01*
X163107573Y-57486513D01*
X162883116Y-57822436D01*
X162597436Y-58108116D01*
X162261513Y-58332573D01*
X162261512Y-58332574D01*
X162261511Y-58332574D01*
X161888254Y-58487182D01*
X161492007Y-58566000D01*
X161087993Y-58566000D01*
X160691746Y-58487182D01*
X160318489Y-58332574D01*
X160318488Y-58332574D01*
X160318487Y-58332573D01*
X159982564Y-58108116D01*
X159696884Y-57822436D01*
X159472427Y-57486513D01*
X159472426Y-57486511D01*
X159317818Y-57113254D01*
X159239000Y-56717007D01*
X159239000Y-56312993D01*
X159317818Y-55916746D01*
X159472426Y-55543489D01*
X159696884Y-55207564D01*
X159982564Y-54921884D01*
X160045248Y-54880000D01*
X160318487Y-54697427D01*
X160318489Y-54697426D01*
X160691746Y-54542818D01*
X161087993Y-54464000D01*
X161492007Y-54464000D01*
X161888254Y-54542818D01*
G37*
G36*
X182208254Y-54542818D02*
G01*
X182581511Y-54697426D01*
X182581513Y-54697427D01*
X182854752Y-54880000D01*
X182917436Y-54921884D01*
X183203116Y-55207564D01*
X183427574Y-55543489D01*
X183582182Y-55916746D01*
X183661000Y-56312993D01*
X183661000Y-56717007D01*
X183582182Y-57113254D01*
X183427574Y-57486511D01*
X183427573Y-57486513D01*
X183203116Y-57822436D01*
X182917436Y-58108116D01*
X182581513Y-58332573D01*
X182581512Y-58332574D01*
X182581511Y-58332574D01*
X182208254Y-58487182D01*
X181812007Y-58566000D01*
X181407993Y-58566000D01*
X181011746Y-58487182D01*
X180638489Y-58332574D01*
X180638488Y-58332574D01*
X180638487Y-58332573D01*
X180302564Y-58108116D01*
X180016884Y-57822436D01*
X179792427Y-57486513D01*
X179792426Y-57486511D01*
X179637818Y-57113254D01*
X179559000Y-56717007D01*
X179559000Y-56312993D01*
X179637818Y-55916746D01*
X179792426Y-55543489D01*
X180016884Y-55207564D01*
X180302564Y-54921884D01*
X180365248Y-54880000D01*
X180638487Y-54697427D01*
X180638489Y-54697426D01*
X181011746Y-54542818D01*
X181407993Y-54464000D01*
X181812007Y-54464000D01*
X182208254Y-54542818D01*
G37*
G36*
X176334549Y-55386116D02*
G01*
X176445734Y-55408232D01*
X176655203Y-55494997D01*
X176843720Y-55620960D01*
X177004040Y-55781280D01*
X177130003Y-55969797D01*
X177216768Y-56179266D01*
X177261000Y-56401636D01*
X177261000Y-56628364D01*
X177216768Y-56850734D01*
X177130003Y-57060203D01*
X177004040Y-57248720D01*
X176843720Y-57409040D01*
X176655203Y-57535003D01*
X176655202Y-57535004D01*
X176655201Y-57535004D01*
X176593850Y-57560416D01*
X176445734Y-57621768D01*
X176334549Y-57643884D01*
X176223365Y-57666000D01*
X175996635Y-57666000D01*
X175885451Y-57643884D01*
X175774266Y-57621768D01*
X175626150Y-57560416D01*
X175564799Y-57535004D01*
X175564798Y-57535004D01*
X175564797Y-57535003D01*
X175376280Y-57409040D01*
X175215960Y-57248720D01*
X175089997Y-57060203D01*
X175003232Y-56850734D01*
X174959000Y-56628364D01*
X174959000Y-56401636D01*
X175003232Y-56179266D01*
X175089997Y-55969797D01*
X175215960Y-55781280D01*
X175376280Y-55620960D01*
X175564797Y-55494997D01*
X175774266Y-55408232D01*
X175885451Y-55386116D01*
X175996635Y-55364000D01*
X176223365Y-55364000D01*
X176334549Y-55386116D01*
G37*
G36*
X135694549Y-55386116D02*
G01*
X135805734Y-55408232D01*
X136015203Y-55494997D01*
X136203720Y-55620960D01*
X136364040Y-55781280D01*
X136490003Y-55969797D01*
X136576768Y-56179266D01*
X136621000Y-56401636D01*
X136621000Y-56628364D01*
X136576768Y-56850734D01*
X136490003Y-57060203D01*
X136364040Y-57248720D01*
X136203720Y-57409040D01*
X136015203Y-57535003D01*
X136015202Y-57535004D01*
X136015201Y-57535004D01*
X135953850Y-57560416D01*
X135805734Y-57621768D01*
X135694549Y-57643884D01*
X135583365Y-57666000D01*
X135356635Y-57666000D01*
X135245451Y-57643884D01*
X135134266Y-57621768D01*
X134986150Y-57560416D01*
X134924799Y-57535004D01*
X134924798Y-57535004D01*
X134924797Y-57535003D01*
X134736280Y-57409040D01*
X134575960Y-57248720D01*
X134449997Y-57060203D01*
X134363232Y-56850734D01*
X134319000Y-56628364D01*
X134319000Y-56401636D01*
X134363232Y-56179266D01*
X134449997Y-55969797D01*
X134575960Y-55781280D01*
X134736280Y-55620960D01*
X134924797Y-55494997D01*
X135134266Y-55408232D01*
X135245451Y-55386116D01*
X135356635Y-55364000D01*
X135583365Y-55364000D01*
X135694549Y-55386116D01*
G37*
G36*
X156014549Y-55386116D02*
G01*
X156125734Y-55408232D01*
X156335203Y-55494997D01*
X156523720Y-55620960D01*
X156684040Y-55781280D01*
X156810003Y-55969797D01*
X156896768Y-56179266D01*
X156941000Y-56401636D01*
X156941000Y-56628364D01*
X156896768Y-56850734D01*
X156810003Y-57060203D01*
X156684040Y-57248720D01*
X156523720Y-57409040D01*
X156335203Y-57535003D01*
X156335202Y-57535004D01*
X156335201Y-57535004D01*
X156273850Y-57560416D01*
X156125734Y-57621768D01*
X156014549Y-57643884D01*
X155903365Y-57666000D01*
X155676635Y-57666000D01*
X155565451Y-57643884D01*
X155454266Y-57621768D01*
X155306150Y-57560416D01*
X155244799Y-57535004D01*
X155244798Y-57535004D01*
X155244797Y-57535003D01*
X155056280Y-57409040D01*
X154895960Y-57248720D01*
X154769997Y-57060203D01*
X154683232Y-56850734D01*
X154639000Y-56628364D01*
X154639000Y-56401636D01*
X154683232Y-56179266D01*
X154769997Y-55969797D01*
X154895960Y-55781280D01*
X155056280Y-55620960D01*
X155244797Y-55494997D01*
X155454266Y-55408232D01*
X155565451Y-55386116D01*
X155676635Y-55364000D01*
X155903365Y-55364000D01*
X156014549Y-55386116D01*
G37*
G36*
X187334549Y-55386116D02*
G01*
X187445734Y-55408232D01*
X187655203Y-55494997D01*
X187843720Y-55620960D01*
X188004040Y-55781280D01*
X188130003Y-55969797D01*
X188216768Y-56179266D01*
X188261000Y-56401636D01*
X188261000Y-56628364D01*
X188216768Y-56850734D01*
X188130003Y-57060203D01*
X188004040Y-57248720D01*
X187843720Y-57409040D01*
X187655203Y-57535003D01*
X187655202Y-57535004D01*
X187655201Y-57535004D01*
X187593850Y-57560416D01*
X187445734Y-57621768D01*
X187334549Y-57643884D01*
X187223365Y-57666000D01*
X186996635Y-57666000D01*
X186885451Y-57643884D01*
X186774266Y-57621768D01*
X186626150Y-57560416D01*
X186564799Y-57535004D01*
X186564798Y-57535004D01*
X186564797Y-57535003D01*
X186376280Y-57409040D01*
X186215960Y-57248720D01*
X186089997Y-57060203D01*
X186003232Y-56850734D01*
X185959000Y-56628364D01*
X185959000Y-56401636D01*
X186003232Y-56179266D01*
X186089997Y-55969797D01*
X186215960Y-55781280D01*
X186376280Y-55620960D01*
X186564797Y-55494997D01*
X186774266Y-55408232D01*
X186885451Y-55386116D01*
X186996635Y-55364000D01*
X187223365Y-55364000D01*
X187334549Y-55386116D01*
G37*
G36*
X167014549Y-55386116D02*
G01*
X167125734Y-55408232D01*
X167335203Y-55494997D01*
X167523720Y-55620960D01*
X167684040Y-55781280D01*
X167810003Y-55969797D01*
X167896768Y-56179266D01*
X167941000Y-56401636D01*
X167941000Y-56628364D01*
X167896768Y-56850734D01*
X167810003Y-57060203D01*
X167684040Y-57248720D01*
X167523720Y-57409040D01*
X167335203Y-57535003D01*
X167335202Y-57535004D01*
X167335201Y-57535004D01*
X167273850Y-57560416D01*
X167125734Y-57621768D01*
X167014549Y-57643884D01*
X166903365Y-57666000D01*
X166676635Y-57666000D01*
X166565451Y-57643884D01*
X166454266Y-57621768D01*
X166306150Y-57560416D01*
X166244799Y-57535004D01*
X166244798Y-57535004D01*
X166244797Y-57535003D01*
X166056280Y-57409040D01*
X165895960Y-57248720D01*
X165769997Y-57060203D01*
X165683232Y-56850734D01*
X165639000Y-56628364D01*
X165639000Y-56401636D01*
X165683232Y-56179266D01*
X165769997Y-55969797D01*
X165895960Y-55781280D01*
X166056280Y-55620960D01*
X166244797Y-55494997D01*
X166454266Y-55408232D01*
X166565451Y-55386116D01*
X166676635Y-55364000D01*
X166903365Y-55364000D01*
X167014549Y-55386116D01*
G37*
G36*
X146694549Y-55386116D02*
G01*
X146805734Y-55408232D01*
X147015203Y-55494997D01*
X147203720Y-55620960D01*
X147364040Y-55781280D01*
X147490003Y-55969797D01*
X147576768Y-56179266D01*
X147621000Y-56401636D01*
X147621000Y-56628364D01*
X147576768Y-56850734D01*
X147490003Y-57060203D01*
X147364040Y-57248720D01*
X147203720Y-57409040D01*
X147015203Y-57535003D01*
X147015202Y-57535004D01*
X147015201Y-57535004D01*
X146953850Y-57560416D01*
X146805734Y-57621768D01*
X146694549Y-57643884D01*
X146583365Y-57666000D01*
X146356635Y-57666000D01*
X146245451Y-57643884D01*
X146134266Y-57621768D01*
X145986150Y-57560416D01*
X145924799Y-57535004D01*
X145924798Y-57535004D01*
X145924797Y-57535003D01*
X145736280Y-57409040D01*
X145575960Y-57248720D01*
X145449997Y-57060203D01*
X145363232Y-56850734D01*
X145319000Y-56628364D01*
X145319000Y-56401636D01*
X145363232Y-56179266D01*
X145449997Y-55969797D01*
X145575960Y-55781280D01*
X145736280Y-55620960D01*
X145924797Y-55494997D01*
X146134266Y-55408232D01*
X146245451Y-55386116D01*
X146356635Y-55364000D01*
X146583365Y-55364000D01*
X146694549Y-55386116D01*
G37*
G36*
X171101000Y-57066000D02*
G01*
X168489000Y-57066000D01*
X168489000Y-55964000D01*
X171101000Y-55964000D01*
X171101000Y-57066000D01*
G37*
G36*
X190316000Y-56912000D02*
G01*
X189414000Y-56912000D01*
X189414000Y-55610000D01*
X190316000Y-55610000D01*
X190316000Y-56912000D01*
G37*
G36*
X190316000Y-54880000D02*
G01*
X189414000Y-54880000D01*
X189414000Y-53578000D01*
X190316000Y-53578000D01*
X190316000Y-54880000D01*
G37*
G36*
X174411000Y-54526000D02*
G01*
X171799000Y-54526000D01*
X171799000Y-53424000D01*
X174411000Y-53424000D01*
X174411000Y-54526000D01*
G37*
G36*
X166514549Y-51586116D02*
G01*
X166625734Y-51608232D01*
X166835203Y-51694997D01*
X167023720Y-51820960D01*
X167184040Y-51981280D01*
X167310003Y-52169797D01*
X167396768Y-52379266D01*
X167441000Y-52601636D01*
X167441000Y-52828364D01*
X167396768Y-53050734D01*
X167310003Y-53260203D01*
X167184040Y-53448720D01*
X167023720Y-53609040D01*
X166835203Y-53735003D01*
X166625734Y-53821768D01*
X166514549Y-53843884D01*
X166403365Y-53866000D01*
X166176635Y-53866000D01*
X166065451Y-53843884D01*
X165954266Y-53821768D01*
X165744797Y-53735003D01*
X165556280Y-53609040D01*
X165395960Y-53448720D01*
X165269997Y-53260203D01*
X165183232Y-53050734D01*
X165139000Y-52828364D01*
X165139000Y-52601636D01*
X165183232Y-52379266D01*
X165269997Y-52169797D01*
X165395960Y-51981280D01*
X165556280Y-51820960D01*
X165744797Y-51694997D01*
X165954266Y-51608232D01*
X166065451Y-51586116D01*
X166176635Y-51564000D01*
X166403365Y-51564000D01*
X166514549Y-51586116D01*
G37*
G36*
X146194549Y-51586116D02*
G01*
X146305734Y-51608232D01*
X146515203Y-51694997D01*
X146703720Y-51820960D01*
X146864040Y-51981280D01*
X146990003Y-52169797D01*
X147076768Y-52379266D01*
X147121000Y-52601636D01*
X147121000Y-52828364D01*
X147076768Y-53050734D01*
X146990003Y-53260203D01*
X146864040Y-53448720D01*
X146703720Y-53609040D01*
X146515203Y-53735003D01*
X146305734Y-53821768D01*
X146194549Y-53843884D01*
X146083365Y-53866000D01*
X145856635Y-53866000D01*
X145745451Y-53843884D01*
X145634266Y-53821768D01*
X145424797Y-53735003D01*
X145236280Y-53609040D01*
X145075960Y-53448720D01*
X144949997Y-53260203D01*
X144863232Y-53050734D01*
X144819000Y-52828364D01*
X144819000Y-52601636D01*
X144863232Y-52379266D01*
X144949997Y-52169797D01*
X145075960Y-51981280D01*
X145236280Y-51820960D01*
X145424797Y-51694997D01*
X145634266Y-51608232D01*
X145745451Y-51586116D01*
X145856635Y-51564000D01*
X146083365Y-51564000D01*
X146194549Y-51586116D01*
G37*
G36*
X186834549Y-51586116D02*
G01*
X186945734Y-51608232D01*
X187155203Y-51694997D01*
X187343720Y-51820960D01*
X187504040Y-51981280D01*
X187630003Y-52169797D01*
X187716768Y-52379266D01*
X187761000Y-52601636D01*
X187761000Y-52828364D01*
X187716768Y-53050734D01*
X187630003Y-53260203D01*
X187504040Y-53448720D01*
X187343720Y-53609040D01*
X187155203Y-53735003D01*
X186945734Y-53821768D01*
X186834549Y-53843884D01*
X186723365Y-53866000D01*
X186496635Y-53866000D01*
X186385451Y-53843884D01*
X186274266Y-53821768D01*
X186064797Y-53735003D01*
X185876280Y-53609040D01*
X185715960Y-53448720D01*
X185589997Y-53260203D01*
X185503232Y-53050734D01*
X185459000Y-52828364D01*
X185459000Y-52601636D01*
X185503232Y-52379266D01*
X185589997Y-52169797D01*
X185715960Y-51981280D01*
X185876280Y-51820960D01*
X186064797Y-51694997D01*
X186274266Y-51608232D01*
X186385451Y-51586116D01*
X186496635Y-51564000D01*
X186723365Y-51564000D01*
X186834549Y-51586116D01*
G37*
G36*
X151981000Y-53556000D02*
G01*
X150279000Y-53556000D01*
X150279000Y-51854000D01*
X151981000Y-51854000D01*
X151981000Y-53556000D01*
G37*
G36*
X171101000Y-51986000D02*
G01*
X168489000Y-51986000D01*
X168489000Y-50884000D01*
X171101000Y-50884000D01*
X171101000Y-51986000D01*
G37*
G36*
X141194549Y-49486116D02*
G01*
X141305734Y-49508232D01*
X141515203Y-49594997D01*
X141703720Y-49720960D01*
X141864040Y-49881280D01*
X141990003Y-50069797D01*
X142076768Y-50279266D01*
X142121000Y-50501636D01*
X142121000Y-50728364D01*
X142076768Y-50950734D01*
X141990003Y-51160203D01*
X141864040Y-51348720D01*
X141703720Y-51509040D01*
X141515203Y-51635003D01*
X141305734Y-51721768D01*
X141194549Y-51743884D01*
X141083365Y-51766000D01*
X140856635Y-51766000D01*
X140745451Y-51743884D01*
X140634266Y-51721768D01*
X140424797Y-51635003D01*
X140236280Y-51509040D01*
X140075960Y-51348720D01*
X139949997Y-51160203D01*
X139863232Y-50950734D01*
X139819000Y-50728364D01*
X139819000Y-50501636D01*
X139863232Y-50279266D01*
X139949997Y-50069797D01*
X140075960Y-49881280D01*
X140236280Y-49720960D01*
X140424797Y-49594997D01*
X140634266Y-49508232D01*
X140745451Y-49486116D01*
X140856635Y-49464000D01*
X141083365Y-49464000D01*
X141194549Y-49486116D01*
G37*
G36*
X181834549Y-49486116D02*
G01*
X181945734Y-49508232D01*
X182155203Y-49594997D01*
X182343720Y-49720960D01*
X182504040Y-49881280D01*
X182630003Y-50069797D01*
X182716768Y-50279266D01*
X182761000Y-50501636D01*
X182761000Y-50728364D01*
X182716768Y-50950734D01*
X182630003Y-51160203D01*
X182504040Y-51348720D01*
X182343720Y-51509040D01*
X182155203Y-51635003D01*
X181945734Y-51721768D01*
X181834549Y-51743884D01*
X181723365Y-51766000D01*
X181496635Y-51766000D01*
X181385451Y-51743884D01*
X181274266Y-51721768D01*
X181064797Y-51635003D01*
X180876280Y-51509040D01*
X180715960Y-51348720D01*
X180589997Y-51160203D01*
X180503232Y-50950734D01*
X180459000Y-50728364D01*
X180459000Y-50501636D01*
X180503232Y-50279266D01*
X180589997Y-50069797D01*
X180715960Y-49881280D01*
X180876280Y-49720960D01*
X181064797Y-49594997D01*
X181274266Y-49508232D01*
X181385451Y-49486116D01*
X181496635Y-49464000D01*
X181723365Y-49464000D01*
X181834549Y-49486116D01*
G37*
G36*
X161514549Y-49486116D02*
G01*
X161625734Y-49508232D01*
X161835203Y-49594997D01*
X162023720Y-49720960D01*
X162184040Y-49881280D01*
X162310003Y-50069797D01*
X162396768Y-50279266D01*
X162441000Y-50501636D01*
X162441000Y-50728364D01*
X162396768Y-50950734D01*
X162310003Y-51160203D01*
X162184040Y-51348720D01*
X162023720Y-51509040D01*
X161835203Y-51635003D01*
X161625734Y-51721768D01*
X161514549Y-51743884D01*
X161403365Y-51766000D01*
X161176635Y-51766000D01*
X161065451Y-51743884D01*
X160954266Y-51721768D01*
X160744797Y-51635003D01*
X160556280Y-51509040D01*
X160395960Y-51348720D01*
X160269997Y-51160203D01*
X160183232Y-50950734D01*
X160139000Y-50728364D01*
X160139000Y-50501636D01*
X160183232Y-50279266D01*
X160269997Y-50069797D01*
X160395960Y-49881280D01*
X160556280Y-49720960D01*
X160744797Y-49594997D01*
X160954266Y-49508232D01*
X161065451Y-49486116D01*
X161176635Y-49464000D01*
X161403365Y-49464000D01*
X161514549Y-49486116D01*
G37*
G36*
X174411000Y-49446000D02*
G01*
X171799000Y-49446000D01*
X171799000Y-48344000D01*
X174411000Y-48344000D01*
X174411000Y-49446000D01*
G37*
G36*
X139351000Y-49446000D02*
G01*
X136739000Y-49446000D01*
X136739000Y-48344000D01*
X139351000Y-48344000D01*
X139351000Y-49446000D01*
G37*
G36*
X142661000Y-46906000D02*
G01*
X140049000Y-46906000D01*
X140049000Y-45804000D01*
X142661000Y-45804000D01*
X142661000Y-46906000D01*
G37*
G36*
X171101000Y-46906000D02*
G01*
X168489000Y-46906000D01*
X168489000Y-45804000D01*
X171101000Y-45804000D01*
X171101000Y-46906000D01*
G37*
G36*
X139351000Y-44366000D02*
G01*
X136739000Y-44366000D01*
X136739000Y-43264000D01*
X139351000Y-43264000D01*
X139351000Y-44366000D01*
G37*
G36*
X174411000Y-44366000D02*
G01*
X171799000Y-44366000D01*
X171799000Y-43264000D01*
X174411000Y-43264000D01*
X174411000Y-44366000D01*
G37*
G36*
X131896000Y-42307000D02*
G01*
X130994000Y-42307000D01*
X130994000Y-41005000D01*
X131896000Y-41005000D01*
X131896000Y-42307000D01*
G37*
G36*
X171101000Y-41826000D02*
G01*
X168489000Y-41826000D01*
X168489000Y-40724000D01*
X171101000Y-40724000D01*
X171101000Y-41826000D01*
G37*
G36*
X142661000Y-41826000D02*
G01*
X140049000Y-41826000D01*
X140049000Y-40724000D01*
X142661000Y-40724000D01*
X142661000Y-41826000D01*
G37*
G36*
X131896000Y-40275000D02*
G01*
X130994000Y-40275000D01*
X130994000Y-38973000D01*
X131896000Y-38973000D01*
X131896000Y-40275000D01*
G37*
G36*
X174411000Y-39286000D02*
G01*
X171799000Y-39286000D01*
X171799000Y-38184000D01*
X174411000Y-38184000D01*
X174411000Y-39286000D01*
G37*
G36*
X182208254Y-34222818D02*
G01*
X182581511Y-34377426D01*
X182581513Y-34377427D01*
X182854752Y-34560000D01*
X182917436Y-34601884D01*
X183203116Y-34887564D01*
X183427574Y-35223489D01*
X183582182Y-35596746D01*
X183661000Y-35992993D01*
X183661000Y-36397007D01*
X183582182Y-36793254D01*
X183427574Y-37166511D01*
X183427573Y-37166513D01*
X183203116Y-37502436D01*
X182917436Y-37788116D01*
X182581513Y-38012573D01*
X182581512Y-38012574D01*
X182581511Y-38012574D01*
X182208254Y-38167182D01*
X181812007Y-38246000D01*
X181407993Y-38246000D01*
X181011746Y-38167182D01*
X180638489Y-38012574D01*
X180638488Y-38012574D01*
X180638487Y-38012573D01*
X180302564Y-37788116D01*
X180016884Y-37502436D01*
X179792427Y-37166513D01*
X179792426Y-37166511D01*
X179637818Y-36793254D01*
X179559000Y-36397007D01*
X179559000Y-35992993D01*
X179637818Y-35596746D01*
X179792426Y-35223489D01*
X180016884Y-34887564D01*
X180302564Y-34601884D01*
X180365248Y-34560000D01*
X180638487Y-34377427D01*
X180638489Y-34377426D01*
X181011746Y-34222818D01*
X181407993Y-34144000D01*
X181812007Y-34144000D01*
X182208254Y-34222818D01*
G37*
G36*
X141568254Y-34222818D02*
G01*
X141941511Y-34377426D01*
X141941513Y-34377427D01*
X142214752Y-34560000D01*
X142277436Y-34601884D01*
X142563116Y-34887564D01*
X142787574Y-35223489D01*
X142942182Y-35596746D01*
X143021000Y-35992993D01*
X143021000Y-36397007D01*
X142942182Y-36793254D01*
X142787574Y-37166511D01*
X142787573Y-37166513D01*
X142563116Y-37502436D01*
X142277436Y-37788116D01*
X141941513Y-38012573D01*
X141941512Y-38012574D01*
X141941511Y-38012574D01*
X141568254Y-38167182D01*
X141172007Y-38246000D01*
X140767993Y-38246000D01*
X140371746Y-38167182D01*
X139998489Y-38012574D01*
X139998488Y-38012574D01*
X139998487Y-38012573D01*
X139662564Y-37788116D01*
X139376884Y-37502436D01*
X139152427Y-37166513D01*
X139152426Y-37166511D01*
X138997818Y-36793254D01*
X138919000Y-36397007D01*
X138919000Y-35992993D01*
X138997818Y-35596746D01*
X139152426Y-35223489D01*
X139376884Y-34887564D01*
X139662564Y-34601884D01*
X139725248Y-34560000D01*
X139998487Y-34377427D01*
X139998489Y-34377426D01*
X140371746Y-34222818D01*
X140767993Y-34144000D01*
X141172007Y-34144000D01*
X141568254Y-34222818D01*
G37*
G36*
X161888254Y-34222818D02*
G01*
X162261511Y-34377426D01*
X162261513Y-34377427D01*
X162534752Y-34560000D01*
X162597436Y-34601884D01*
X162883116Y-34887564D01*
X163107574Y-35223489D01*
X163262182Y-35596746D01*
X163341000Y-35992993D01*
X163341000Y-36397007D01*
X163262182Y-36793254D01*
X163107574Y-37166511D01*
X163107573Y-37166513D01*
X162883116Y-37502436D01*
X162597436Y-37788116D01*
X162261513Y-38012573D01*
X162261512Y-38012574D01*
X162261511Y-38012574D01*
X161888254Y-38167182D01*
X161492007Y-38246000D01*
X161087993Y-38246000D01*
X160691746Y-38167182D01*
X160318489Y-38012574D01*
X160318488Y-38012574D01*
X160318487Y-38012573D01*
X159982564Y-37788116D01*
X159696884Y-37502436D01*
X159472427Y-37166513D01*
X159472426Y-37166511D01*
X159317818Y-36793254D01*
X159239000Y-36397007D01*
X159239000Y-35992993D01*
X159317818Y-35596746D01*
X159472426Y-35223489D01*
X159696884Y-34887564D01*
X159982564Y-34601884D01*
X160045248Y-34560000D01*
X160318487Y-34377427D01*
X160318489Y-34377426D01*
X160691746Y-34222818D01*
X161087993Y-34144000D01*
X161492007Y-34144000D01*
X161888254Y-34222818D01*
G37*
G36*
X135694549Y-35066116D02*
G01*
X135805734Y-35088232D01*
X136015203Y-35174997D01*
X136203720Y-35300960D01*
X136364040Y-35461280D01*
X136490003Y-35649797D01*
X136576768Y-35859266D01*
X136621000Y-36081636D01*
X136621000Y-36308364D01*
X136576768Y-36530734D01*
X136490003Y-36740203D01*
X136364040Y-36928720D01*
X136203720Y-37089040D01*
X136015203Y-37215003D01*
X135805734Y-37301768D01*
X135694549Y-37323884D01*
X135583365Y-37346000D01*
X135356635Y-37346000D01*
X135245451Y-37323884D01*
X135134266Y-37301768D01*
X134924797Y-37215003D01*
X134736280Y-37089040D01*
X134575960Y-36928720D01*
X134449997Y-36740203D01*
X134363232Y-36530734D01*
X134319000Y-36308364D01*
X134319000Y-36081636D01*
X134363232Y-35859266D01*
X134449997Y-35649797D01*
X134575960Y-35461280D01*
X134736280Y-35300960D01*
X134924797Y-35174997D01*
X135134266Y-35088232D01*
X135245451Y-35066116D01*
X135356635Y-35044000D01*
X135583365Y-35044000D01*
X135694549Y-35066116D01*
G37*
G36*
X146694549Y-35066116D02*
G01*
X146805734Y-35088232D01*
X147015203Y-35174997D01*
X147203720Y-35300960D01*
X147364040Y-35461280D01*
X147490003Y-35649797D01*
X147576768Y-35859266D01*
X147621000Y-36081636D01*
X147621000Y-36308364D01*
X147576768Y-36530734D01*
X147490003Y-36740203D01*
X147364040Y-36928720D01*
X147203720Y-37089040D01*
X147015203Y-37215003D01*
X146805734Y-37301768D01*
X146694549Y-37323884D01*
X146583365Y-37346000D01*
X146356635Y-37346000D01*
X146245451Y-37323884D01*
X146134266Y-37301768D01*
X145924797Y-37215003D01*
X145736280Y-37089040D01*
X145575960Y-36928720D01*
X145449997Y-36740203D01*
X145363232Y-36530734D01*
X145319000Y-36308364D01*
X145319000Y-36081636D01*
X145363232Y-35859266D01*
X145449997Y-35649797D01*
X145575960Y-35461280D01*
X145736280Y-35300960D01*
X145924797Y-35174997D01*
X146134266Y-35088232D01*
X146245451Y-35066116D01*
X146356635Y-35044000D01*
X146583365Y-35044000D01*
X146694549Y-35066116D01*
G37*
G36*
X176334549Y-35066116D02*
G01*
X176445734Y-35088232D01*
X176655203Y-35174997D01*
X176843720Y-35300960D01*
X177004040Y-35461280D01*
X177130003Y-35649797D01*
X177216768Y-35859266D01*
X177261000Y-36081636D01*
X177261000Y-36308364D01*
X177216768Y-36530734D01*
X177130003Y-36740203D01*
X177004040Y-36928720D01*
X176843720Y-37089040D01*
X176655203Y-37215003D01*
X176445734Y-37301768D01*
X176334549Y-37323884D01*
X176223365Y-37346000D01*
X175996635Y-37346000D01*
X175885451Y-37323884D01*
X175774266Y-37301768D01*
X175564797Y-37215003D01*
X175376280Y-37089040D01*
X175215960Y-36928720D01*
X175089997Y-36740203D01*
X175003232Y-36530734D01*
X174959000Y-36308364D01*
X174959000Y-36081636D01*
X175003232Y-35859266D01*
X175089997Y-35649797D01*
X175215960Y-35461280D01*
X175376280Y-35300960D01*
X175564797Y-35174997D01*
X175774266Y-35088232D01*
X175885451Y-35066116D01*
X175996635Y-35044000D01*
X176223365Y-35044000D01*
X176334549Y-35066116D01*
G37*
G36*
X187334549Y-35066116D02*
G01*
X187445734Y-35088232D01*
X187655203Y-35174997D01*
X187843720Y-35300960D01*
X188004040Y-35461280D01*
X188130003Y-35649797D01*
X188216768Y-35859266D01*
X188261000Y-36081636D01*
X188261000Y-36308364D01*
X188216768Y-36530734D01*
X188130003Y-36740203D01*
X188004040Y-36928720D01*
X187843720Y-37089040D01*
X187655203Y-37215003D01*
X187445734Y-37301768D01*
X187334549Y-37323884D01*
X187223365Y-37346000D01*
X186996635Y-37346000D01*
X186885451Y-37323884D01*
X186774266Y-37301768D01*
X186564797Y-37215003D01*
X186376280Y-37089040D01*
X186215960Y-36928720D01*
X186089997Y-36740203D01*
X186003232Y-36530734D01*
X185959000Y-36308364D01*
X185959000Y-36081636D01*
X186003232Y-35859266D01*
X186089997Y-35649797D01*
X186215960Y-35461280D01*
X186376280Y-35300960D01*
X186564797Y-35174997D01*
X186774266Y-35088232D01*
X186885451Y-35066116D01*
X186996635Y-35044000D01*
X187223365Y-35044000D01*
X187334549Y-35066116D01*
G37*
G36*
X167014549Y-35066116D02*
G01*
X167125734Y-35088232D01*
X167335203Y-35174997D01*
X167523720Y-35300960D01*
X167684040Y-35461280D01*
X167810003Y-35649797D01*
X167896768Y-35859266D01*
X167941000Y-36081636D01*
X167941000Y-36308364D01*
X167896768Y-36530734D01*
X167810003Y-36740203D01*
X167684040Y-36928720D01*
X167523720Y-37089040D01*
X167335203Y-37215003D01*
X167125734Y-37301768D01*
X167014549Y-37323884D01*
X166903365Y-37346000D01*
X166676635Y-37346000D01*
X166565451Y-37323884D01*
X166454266Y-37301768D01*
X166244797Y-37215003D01*
X166056280Y-37089040D01*
X165895960Y-36928720D01*
X165769997Y-36740203D01*
X165683232Y-36530734D01*
X165639000Y-36308364D01*
X165639000Y-36081636D01*
X165683232Y-35859266D01*
X165769997Y-35649797D01*
X165895960Y-35461280D01*
X166056280Y-35300960D01*
X166244797Y-35174997D01*
X166454266Y-35088232D01*
X166565451Y-35066116D01*
X166676635Y-35044000D01*
X166903365Y-35044000D01*
X167014549Y-35066116D01*
G37*
G36*
X156014549Y-35066116D02*
G01*
X156125734Y-35088232D01*
X156335203Y-35174997D01*
X156523720Y-35300960D01*
X156684040Y-35461280D01*
X156810003Y-35649797D01*
X156896768Y-35859266D01*
X156941000Y-36081636D01*
X156941000Y-36308364D01*
X156896768Y-36530734D01*
X156810003Y-36740203D01*
X156684040Y-36928720D01*
X156523720Y-37089040D01*
X156335203Y-37215003D01*
X156125734Y-37301768D01*
X156014549Y-37323884D01*
X155903365Y-37346000D01*
X155676635Y-37346000D01*
X155565451Y-37323884D01*
X155454266Y-37301768D01*
X155244797Y-37215003D01*
X155056280Y-37089040D01*
X154895960Y-36928720D01*
X154769997Y-36740203D01*
X154683232Y-36530734D01*
X154639000Y-36308364D01*
X154639000Y-36081636D01*
X154683232Y-35859266D01*
X154769997Y-35649797D01*
X154895960Y-35461280D01*
X155056280Y-35300960D01*
X155244797Y-35174997D01*
X155454266Y-35088232D01*
X155565451Y-35066116D01*
X155676635Y-35044000D01*
X155903365Y-35044000D01*
X156014549Y-35066116D01*
G37*
G36*
X171101000Y-36746000D02*
G01*
X168489000Y-36746000D01*
X168489000Y-35644000D01*
X171101000Y-35644000D01*
X171101000Y-36746000D01*
G37*
G36*
X190316000Y-36592000D02*
G01*
X189414000Y-36592000D01*
X189414000Y-35290000D01*
X190316000Y-35290000D01*
X190316000Y-36592000D01*
G37*
G36*
X190316000Y-34560000D02*
G01*
X189414000Y-34560000D01*
X189414000Y-33258000D01*
X190316000Y-33258000D01*
X190316000Y-34560000D01*
G37*
G36*
X174411000Y-34206000D02*
G01*
X171799000Y-34206000D01*
X171799000Y-33104000D01*
X174411000Y-33104000D01*
X174411000Y-34206000D01*
G37*
G36*
X186834549Y-31266116D02*
G01*
X186945734Y-31288232D01*
X187155203Y-31374997D01*
X187343720Y-31500960D01*
X187504040Y-31661280D01*
X187630003Y-31849797D01*
X187716768Y-32059266D01*
X187761000Y-32281636D01*
X187761000Y-32508364D01*
X187716768Y-32730734D01*
X187630003Y-32940203D01*
X187504040Y-33128720D01*
X187343720Y-33289040D01*
X187155203Y-33415003D01*
X186945734Y-33501768D01*
X186834549Y-33523884D01*
X186723365Y-33546000D01*
X186496635Y-33546000D01*
X186385451Y-33523884D01*
X186274266Y-33501768D01*
X186064797Y-33415003D01*
X185876280Y-33289040D01*
X185715960Y-33128720D01*
X185589997Y-32940203D01*
X185503232Y-32730734D01*
X185459000Y-32508364D01*
X185459000Y-32281636D01*
X185503232Y-32059266D01*
X185589997Y-31849797D01*
X185715960Y-31661280D01*
X185876280Y-31500960D01*
X186064797Y-31374997D01*
X186274266Y-31288232D01*
X186385451Y-31266116D01*
X186496635Y-31244000D01*
X186723365Y-31244000D01*
X186834549Y-31266116D01*
G37*
G36*
X166514549Y-31266116D02*
G01*
X166625734Y-31288232D01*
X166835203Y-31374997D01*
X167023720Y-31500960D01*
X167184040Y-31661280D01*
X167310003Y-31849797D01*
X167396768Y-32059266D01*
X167441000Y-32281636D01*
X167441000Y-32508364D01*
X167396768Y-32730734D01*
X167310003Y-32940203D01*
X167184040Y-33128720D01*
X167023720Y-33289040D01*
X166835203Y-33415003D01*
X166625734Y-33501768D01*
X166514549Y-33523884D01*
X166403365Y-33546000D01*
X166176635Y-33546000D01*
X166065451Y-33523884D01*
X165954266Y-33501768D01*
X165744797Y-33415003D01*
X165556280Y-33289040D01*
X165395960Y-33128720D01*
X165269997Y-32940203D01*
X165183232Y-32730734D01*
X165139000Y-32508364D01*
X165139000Y-32281636D01*
X165183232Y-32059266D01*
X165269997Y-31849797D01*
X165395960Y-31661280D01*
X165556280Y-31500960D01*
X165744797Y-31374997D01*
X165954266Y-31288232D01*
X166065451Y-31266116D01*
X166176635Y-31244000D01*
X166403365Y-31244000D01*
X166514549Y-31266116D01*
G37*
G36*
X146194549Y-31266116D02*
G01*
X146305734Y-31288232D01*
X146515203Y-31374997D01*
X146703720Y-31500960D01*
X146864040Y-31661280D01*
X146990003Y-31849797D01*
X147076768Y-32059266D01*
X147121000Y-32281636D01*
X147121000Y-32508364D01*
X147076768Y-32730734D01*
X146990003Y-32940203D01*
X146864040Y-33128720D01*
X146703720Y-33289040D01*
X146515203Y-33415003D01*
X146305734Y-33501768D01*
X146194549Y-33523884D01*
X146083365Y-33546000D01*
X145856635Y-33546000D01*
X145745451Y-33523884D01*
X145634266Y-33501768D01*
X145424797Y-33415003D01*
X145236280Y-33289040D01*
X145075960Y-33128720D01*
X144949997Y-32940203D01*
X144863232Y-32730734D01*
X144819000Y-32508364D01*
X144819000Y-32281636D01*
X144863232Y-32059266D01*
X144949997Y-31849797D01*
X145075960Y-31661280D01*
X145236280Y-31500960D01*
X145424797Y-31374997D01*
X145634266Y-31288232D01*
X145745451Y-31266116D01*
X145856635Y-31244000D01*
X146083365Y-31244000D01*
X146194549Y-31266116D01*
G37*
G36*
X131896000Y-33417000D02*
G01*
X130994000Y-33417000D01*
X130994000Y-32115000D01*
X131896000Y-32115000D01*
X131896000Y-33417000D01*
G37*
G36*
X171101000Y-31666000D02*
G01*
X168489000Y-31666000D01*
X168489000Y-30564000D01*
X171101000Y-30564000D01*
X171101000Y-31666000D01*
G37*
G36*
X141194549Y-29166116D02*
G01*
X141305734Y-29188232D01*
X141515203Y-29274997D01*
X141703720Y-29400960D01*
X141864040Y-29561280D01*
X141990003Y-29749797D01*
X142076768Y-29959266D01*
X142121000Y-30181636D01*
X142121000Y-30408364D01*
X142076768Y-30630734D01*
X141990003Y-30840203D01*
X141864040Y-31028720D01*
X141703720Y-31189040D01*
X141515203Y-31315003D01*
X141305734Y-31401768D01*
X141194549Y-31423884D01*
X141083365Y-31446000D01*
X140856635Y-31446000D01*
X140745451Y-31423884D01*
X140634266Y-31401768D01*
X140424797Y-31315003D01*
X140236280Y-31189040D01*
X140075960Y-31028720D01*
X139949997Y-30840203D01*
X139863232Y-30630734D01*
X139819000Y-30408364D01*
X139819000Y-30181636D01*
X139863232Y-29959266D01*
X139949997Y-29749797D01*
X140075960Y-29561280D01*
X140236280Y-29400960D01*
X140424797Y-29274997D01*
X140634266Y-29188232D01*
X140745451Y-29166116D01*
X140856635Y-29144000D01*
X141083365Y-29144000D01*
X141194549Y-29166116D01*
G37*
G36*
X161514549Y-29166116D02*
G01*
X161625734Y-29188232D01*
X161835203Y-29274997D01*
X162023720Y-29400960D01*
X162184040Y-29561280D01*
X162310003Y-29749797D01*
X162396768Y-29959266D01*
X162441000Y-30181636D01*
X162441000Y-30408364D01*
X162396768Y-30630734D01*
X162310003Y-30840203D01*
X162184040Y-31028720D01*
X162023720Y-31189040D01*
X161835203Y-31315003D01*
X161625734Y-31401768D01*
X161514549Y-31423884D01*
X161403365Y-31446000D01*
X161176635Y-31446000D01*
X161065451Y-31423884D01*
X160954266Y-31401768D01*
X160744797Y-31315003D01*
X160556280Y-31189040D01*
X160395960Y-31028720D01*
X160269997Y-30840203D01*
X160183232Y-30630734D01*
X160139000Y-30408364D01*
X160139000Y-30181636D01*
X160183232Y-29959266D01*
X160269997Y-29749797D01*
X160395960Y-29561280D01*
X160556280Y-29400960D01*
X160744797Y-29274997D01*
X160954266Y-29188232D01*
X161065451Y-29166116D01*
X161176635Y-29144000D01*
X161403365Y-29144000D01*
X161514549Y-29166116D01*
G37*
G36*
X181834549Y-29166116D02*
G01*
X181945734Y-29188232D01*
X182155203Y-29274997D01*
X182343720Y-29400960D01*
X182504040Y-29561280D01*
X182630003Y-29749797D01*
X182716768Y-29959266D01*
X182761000Y-30181636D01*
X182761000Y-30408364D01*
X182716768Y-30630734D01*
X182630003Y-30840203D01*
X182504040Y-31028720D01*
X182343720Y-31189040D01*
X182155203Y-31315003D01*
X181945734Y-31401768D01*
X181834549Y-31423884D01*
X181723365Y-31446000D01*
X181496635Y-31446000D01*
X181385451Y-31423884D01*
X181274266Y-31401768D01*
X181064797Y-31315003D01*
X180876280Y-31189040D01*
X180715960Y-31028720D01*
X180589997Y-30840203D01*
X180503232Y-30630734D01*
X180459000Y-30408364D01*
X180459000Y-30181636D01*
X180503232Y-29959266D01*
X180589997Y-29749797D01*
X180715960Y-29561280D01*
X180876280Y-29400960D01*
X181064797Y-29274997D01*
X181274266Y-29188232D01*
X181385451Y-29166116D01*
X181496635Y-29144000D01*
X181723365Y-29144000D01*
X181834549Y-29166116D01*
G37*
G36*
X131896000Y-31385000D02*
G01*
X130994000Y-31385000D01*
X130994000Y-30083000D01*
X131896000Y-30083000D01*
X131896000Y-31385000D01*
G37*
G36*
X174411000Y-29126000D02*
G01*
X171799000Y-29126000D01*
X171799000Y-28024000D01*
X174411000Y-28024000D01*
X174411000Y-29126000D01*
G37*
M02*
