G04 #@! TF.GenerationSoftware,KiCad,Pcbnew,(5.1.5)-3*
G04 #@! TF.CreationDate,2020-09-25T18:16:36+09:00*
G04 #@! TF.ProjectId,righthand,72696768-7468-4616-9e64-2e6b69636164,rev?*
G04 #@! TF.SameCoordinates,Original*
G04 #@! TF.FileFunction,Legend,Bot*
G04 #@! TF.FilePolarity,Positive*
%FSLAX46Y46*%
G04 Gerber Fmt 4.6, Leading zero omitted, Abs format (unit mm)*
G04 Created by KiCad (PCBNEW (5.1.5)-3) date 2020-09-25 18:16:36*
%MOMM*%
%LPD*%
G04 APERTURE LIST*
%ADD10C,0.150000*%
%ADD11C,0.120000*%
G04 APERTURE END LIST*
D10*
X155630000Y-66675000D02*
G75*
G03X155630000Y-66675000I-4500000J0D01*
G01*
D11*
X157546522Y-68513478D02*
G75*
G02X159385000Y-64075000I1838478J1838478D01*
G01*
X161223478Y-68513478D02*
G75*
G03X159385000Y-64075000I-1838478J1838478D01*
G01*
X161185000Y-68525000D02*
X157585000Y-68525000D01*
D10*
X148082000Y-58547000D02*
X148082000Y-59563000D01*
X149098000Y-59563000D02*
X149098000Y-58547000D01*
X190373000Y-35433000D02*
X190373000Y-34417000D01*
X189357000Y-34417000D02*
X189357000Y-35433000D01*
X190373000Y-55753000D02*
X190373000Y-54737000D01*
X189357000Y-54737000D02*
X189357000Y-55753000D01*
X190373000Y-76073000D02*
X190373000Y-75057000D01*
X189357000Y-75057000D02*
X189357000Y-76073000D01*
X190373000Y-96393000D02*
X190373000Y-95377000D01*
X189357000Y-95377000D02*
X189357000Y-96393000D01*
X130937000Y-31242000D02*
X130937000Y-32258000D01*
X131953000Y-32258000D02*
X131953000Y-31242000D01*
X130937000Y-40132000D02*
X130937000Y-41148000D01*
X131953000Y-41148000D02*
X131953000Y-40132000D01*
D11*
X172780000Y-59815000D02*
X172780000Y-63375000D01*
X172780000Y-54735000D02*
X172780000Y-58295000D01*
X172780000Y-49655000D02*
X172780000Y-53215000D01*
X172780000Y-44575000D02*
X172780000Y-48135000D01*
X172780000Y-39495000D02*
X172780000Y-43055000D01*
X172780000Y-34415000D02*
X172780000Y-37975000D01*
X172780000Y-29335000D02*
X172780000Y-32895000D01*
X170120000Y-62355000D02*
X170120000Y-65465000D01*
X170120000Y-57275000D02*
X170120000Y-60835000D01*
X170120000Y-52195000D02*
X170120000Y-55755000D01*
X170120000Y-47115000D02*
X170120000Y-50675000D01*
X170120000Y-42035000D02*
X170120000Y-45595000D01*
X170120000Y-36955000D02*
X170120000Y-40515000D01*
X170120000Y-31875000D02*
X170120000Y-35435000D01*
X170120000Y-64895000D02*
X170120000Y-65465000D01*
X172780000Y-27245000D02*
X172780000Y-27815000D01*
X172780000Y-27815000D02*
X174300000Y-27815000D01*
X170120000Y-27245000D02*
X170120000Y-30355000D01*
X172780000Y-65465000D02*
X170120000Y-65465000D01*
X172780000Y-27245000D02*
X170120000Y-27245000D01*
X141030000Y-47115000D02*
X141030000Y-50225000D01*
X141030000Y-42035000D02*
X141030000Y-45595000D01*
X138370000Y-44575000D02*
X138370000Y-48135000D01*
X138370000Y-49655000D02*
X138370000Y-50225000D01*
X141030000Y-39945000D02*
X141030000Y-40515000D01*
X141030000Y-40515000D02*
X142550000Y-40515000D01*
X138370000Y-39945000D02*
X138370000Y-43055000D01*
X141030000Y-50225000D02*
X138370000Y-50225000D01*
X141030000Y-39945000D02*
X138370000Y-39945000D01*
X151130000Y-56458629D02*
X151130000Y-53805000D01*
X152456371Y-57785000D02*
G75*
G03X152456371Y-57785000I-1326371J0D01*
G01*
D10*
X151772857Y-68397380D02*
X152249047Y-68397380D01*
X152249047Y-67397380D01*
X151487142Y-68349761D02*
X151344285Y-68397380D01*
X151106190Y-68397380D01*
X151010952Y-68349761D01*
X150963333Y-68302142D01*
X150915714Y-68206904D01*
X150915714Y-68111666D01*
X150963333Y-68016428D01*
X151010952Y-67968809D01*
X151106190Y-67921190D01*
X151296666Y-67873571D01*
X151391904Y-67825952D01*
X151439523Y-67778333D01*
X151487142Y-67683095D01*
X151487142Y-67587857D01*
X151439523Y-67492619D01*
X151391904Y-67445000D01*
X151296666Y-67397380D01*
X151058571Y-67397380D01*
X150915714Y-67445000D01*
X150534761Y-67492619D02*
X150487142Y-67445000D01*
X150391904Y-67397380D01*
X150153809Y-67397380D01*
X150058571Y-67445000D01*
X150010952Y-67492619D01*
X149963333Y-67587857D01*
X149963333Y-67683095D01*
X150010952Y-67825952D01*
X150582380Y-68397380D01*
X149963333Y-68397380D01*
X159480238Y-65317619D02*
X159575476Y-65270000D01*
X159670714Y-65174761D01*
X159813571Y-65031904D01*
X159908809Y-64984285D01*
X160004047Y-64984285D01*
X159956428Y-65222380D02*
X160051666Y-65174761D01*
X160146904Y-65079523D01*
X160194523Y-64889047D01*
X160194523Y-64555714D01*
X160146904Y-64365238D01*
X160051666Y-64270000D01*
X159956428Y-64222380D01*
X159765952Y-64222380D01*
X159670714Y-64270000D01*
X159575476Y-64365238D01*
X159527857Y-64555714D01*
X159527857Y-64889047D01*
X159575476Y-65079523D01*
X159670714Y-65174761D01*
X159765952Y-65222380D01*
X159956428Y-65222380D01*
X158670714Y-64222380D02*
X158861190Y-64222380D01*
X158956428Y-64270000D01*
X159004047Y-64317619D01*
X159099285Y-64460476D01*
X159146904Y-64650952D01*
X159146904Y-65031904D01*
X159099285Y-65127142D01*
X159051666Y-65174761D01*
X158956428Y-65222380D01*
X158765952Y-65222380D01*
X158670714Y-65174761D01*
X158623095Y-65127142D01*
X158575476Y-65031904D01*
X158575476Y-64793809D01*
X158623095Y-64698571D01*
X158670714Y-64650952D01*
X158765952Y-64603333D01*
X158956428Y-64603333D01*
X159051666Y-64650952D01*
X159099285Y-64698571D01*
X159146904Y-64793809D01*
X147772380Y-58412142D02*
X147296190Y-58078809D01*
X147772380Y-57840714D02*
X146772380Y-57840714D01*
X146772380Y-58221666D01*
X146820000Y-58316904D01*
X146867619Y-58364523D01*
X146962857Y-58412142D01*
X147105714Y-58412142D01*
X147200952Y-58364523D01*
X147248571Y-58316904D01*
X147296190Y-58221666D01*
X147296190Y-57840714D01*
X147772380Y-59364523D02*
X147772380Y-58793095D01*
X147772380Y-59078809D02*
X146772380Y-59078809D01*
X146915238Y-58983571D01*
X147010476Y-58888333D01*
X147058095Y-58793095D01*
X147200952Y-59935952D02*
X147153333Y-59840714D01*
X147105714Y-59793095D01*
X147010476Y-59745476D01*
X146962857Y-59745476D01*
X146867619Y-59793095D01*
X146820000Y-59840714D01*
X146772380Y-59935952D01*
X146772380Y-60126428D01*
X146820000Y-60221666D01*
X146867619Y-60269285D01*
X146962857Y-60316904D01*
X147010476Y-60316904D01*
X147105714Y-60269285D01*
X147153333Y-60221666D01*
X147200952Y-60126428D01*
X147200952Y-59935952D01*
X147248571Y-59840714D01*
X147296190Y-59793095D01*
X147391428Y-59745476D01*
X147581904Y-59745476D01*
X147677142Y-59793095D01*
X147724761Y-59840714D01*
X147772380Y-59935952D01*
X147772380Y-60126428D01*
X147724761Y-60221666D01*
X147677142Y-60269285D01*
X147581904Y-60316904D01*
X147391428Y-60316904D01*
X147296190Y-60269285D01*
X147248571Y-60221666D01*
X147200952Y-60126428D01*
X190317380Y-31107142D02*
X189841190Y-30773809D01*
X190317380Y-30535714D02*
X189317380Y-30535714D01*
X189317380Y-30916666D01*
X189365000Y-31011904D01*
X189412619Y-31059523D01*
X189507857Y-31107142D01*
X189650714Y-31107142D01*
X189745952Y-31059523D01*
X189793571Y-31011904D01*
X189841190Y-30916666D01*
X189841190Y-30535714D01*
X189412619Y-31488095D02*
X189365000Y-31535714D01*
X189317380Y-31630952D01*
X189317380Y-31869047D01*
X189365000Y-31964285D01*
X189412619Y-32011904D01*
X189507857Y-32059523D01*
X189603095Y-32059523D01*
X189745952Y-32011904D01*
X190317380Y-31440476D01*
X190317380Y-32059523D01*
X189317380Y-32678571D02*
X189317380Y-32773809D01*
X189365000Y-32869047D01*
X189412619Y-32916666D01*
X189507857Y-32964285D01*
X189698333Y-33011904D01*
X189936428Y-33011904D01*
X190126904Y-32964285D01*
X190222142Y-32916666D01*
X190269761Y-32869047D01*
X190317380Y-32773809D01*
X190317380Y-32678571D01*
X190269761Y-32583333D01*
X190222142Y-32535714D01*
X190126904Y-32488095D01*
X189936428Y-32440476D01*
X189698333Y-32440476D01*
X189507857Y-32488095D01*
X189412619Y-32535714D01*
X189365000Y-32583333D01*
X189317380Y-32678571D01*
X190317380Y-51427142D02*
X189841190Y-51093809D01*
X190317380Y-50855714D02*
X189317380Y-50855714D01*
X189317380Y-51236666D01*
X189365000Y-51331904D01*
X189412619Y-51379523D01*
X189507857Y-51427142D01*
X189650714Y-51427142D01*
X189745952Y-51379523D01*
X189793571Y-51331904D01*
X189841190Y-51236666D01*
X189841190Y-50855714D01*
X189412619Y-51808095D02*
X189365000Y-51855714D01*
X189317380Y-51950952D01*
X189317380Y-52189047D01*
X189365000Y-52284285D01*
X189412619Y-52331904D01*
X189507857Y-52379523D01*
X189603095Y-52379523D01*
X189745952Y-52331904D01*
X190317380Y-51760476D01*
X190317380Y-52379523D01*
X190317380Y-53331904D02*
X190317380Y-52760476D01*
X190317380Y-53046190D02*
X189317380Y-53046190D01*
X189460238Y-52950952D01*
X189555476Y-52855714D01*
X189603095Y-52760476D01*
X190317380Y-71747142D02*
X189841190Y-71413809D01*
X190317380Y-71175714D02*
X189317380Y-71175714D01*
X189317380Y-71556666D01*
X189365000Y-71651904D01*
X189412619Y-71699523D01*
X189507857Y-71747142D01*
X189650714Y-71747142D01*
X189745952Y-71699523D01*
X189793571Y-71651904D01*
X189841190Y-71556666D01*
X189841190Y-71175714D01*
X189412619Y-72128095D02*
X189365000Y-72175714D01*
X189317380Y-72270952D01*
X189317380Y-72509047D01*
X189365000Y-72604285D01*
X189412619Y-72651904D01*
X189507857Y-72699523D01*
X189603095Y-72699523D01*
X189745952Y-72651904D01*
X190317380Y-72080476D01*
X190317380Y-72699523D01*
X189412619Y-73080476D02*
X189365000Y-73128095D01*
X189317380Y-73223333D01*
X189317380Y-73461428D01*
X189365000Y-73556666D01*
X189412619Y-73604285D01*
X189507857Y-73651904D01*
X189603095Y-73651904D01*
X189745952Y-73604285D01*
X190317380Y-73032857D01*
X190317380Y-73651904D01*
X190317380Y-92067142D02*
X189841190Y-91733809D01*
X190317380Y-91495714D02*
X189317380Y-91495714D01*
X189317380Y-91876666D01*
X189365000Y-91971904D01*
X189412619Y-92019523D01*
X189507857Y-92067142D01*
X189650714Y-92067142D01*
X189745952Y-92019523D01*
X189793571Y-91971904D01*
X189841190Y-91876666D01*
X189841190Y-91495714D01*
X189412619Y-92448095D02*
X189365000Y-92495714D01*
X189317380Y-92590952D01*
X189317380Y-92829047D01*
X189365000Y-92924285D01*
X189412619Y-92971904D01*
X189507857Y-93019523D01*
X189603095Y-93019523D01*
X189745952Y-92971904D01*
X190317380Y-92400476D01*
X190317380Y-93019523D01*
X189317380Y-93352857D02*
X189317380Y-93971904D01*
X189698333Y-93638571D01*
X189698333Y-93781428D01*
X189745952Y-93876666D01*
X189793571Y-93924285D01*
X189888809Y-93971904D01*
X190126904Y-93971904D01*
X190222142Y-93924285D01*
X190269761Y-93876666D01*
X190317380Y-93781428D01*
X190317380Y-93495714D01*
X190269761Y-93400476D01*
X190222142Y-93352857D01*
X131897380Y-34282142D02*
X131421190Y-33948809D01*
X131897380Y-33710714D02*
X130897380Y-33710714D01*
X130897380Y-34091666D01*
X130945000Y-34186904D01*
X130992619Y-34234523D01*
X131087857Y-34282142D01*
X131230714Y-34282142D01*
X131325952Y-34234523D01*
X131373571Y-34186904D01*
X131421190Y-34091666D01*
X131421190Y-33710714D01*
X130992619Y-34663095D02*
X130945000Y-34710714D01*
X130897380Y-34805952D01*
X130897380Y-35044047D01*
X130945000Y-35139285D01*
X130992619Y-35186904D01*
X131087857Y-35234523D01*
X131183095Y-35234523D01*
X131325952Y-35186904D01*
X131897380Y-34615476D01*
X131897380Y-35234523D01*
X131230714Y-36091666D02*
X131897380Y-36091666D01*
X130849761Y-35853571D02*
X131564047Y-35615476D01*
X131564047Y-36234523D01*
X131897380Y-43172142D02*
X131421190Y-42838809D01*
X131897380Y-42600714D02*
X130897380Y-42600714D01*
X130897380Y-42981666D01*
X130945000Y-43076904D01*
X130992619Y-43124523D01*
X131087857Y-43172142D01*
X131230714Y-43172142D01*
X131325952Y-43124523D01*
X131373571Y-43076904D01*
X131421190Y-42981666D01*
X131421190Y-42600714D01*
X130992619Y-43553095D02*
X130945000Y-43600714D01*
X130897380Y-43695952D01*
X130897380Y-43934047D01*
X130945000Y-44029285D01*
X130992619Y-44076904D01*
X131087857Y-44124523D01*
X131183095Y-44124523D01*
X131325952Y-44076904D01*
X131897380Y-43505476D01*
X131897380Y-44124523D01*
X130897380Y-45029285D02*
X130897380Y-44553095D01*
X131373571Y-44505476D01*
X131325952Y-44553095D01*
X131278333Y-44648333D01*
X131278333Y-44886428D01*
X131325952Y-44981666D01*
X131373571Y-45029285D01*
X131468809Y-45076904D01*
X131706904Y-45076904D01*
X131802142Y-45029285D01*
X131849761Y-44981666D01*
X131897380Y-44886428D01*
X131897380Y-44648333D01*
X131849761Y-44553095D01*
X131802142Y-44505476D01*
X169084523Y-27392380D02*
X169084523Y-28106666D01*
X169132142Y-28249523D01*
X169227380Y-28344761D01*
X169370238Y-28392380D01*
X169465476Y-28392380D01*
X168655952Y-27487619D02*
X168608333Y-27440000D01*
X168513095Y-27392380D01*
X168275000Y-27392380D01*
X168179761Y-27440000D01*
X168132142Y-27487619D01*
X168084523Y-27582857D01*
X168084523Y-27678095D01*
X168132142Y-27820952D01*
X168703571Y-28392380D01*
X168084523Y-28392380D01*
X167465476Y-27392380D02*
X167370238Y-27392380D01*
X167275000Y-27440000D01*
X167227380Y-27487619D01*
X167179761Y-27582857D01*
X167132142Y-27773333D01*
X167132142Y-28011428D01*
X167179761Y-28201904D01*
X167227380Y-28297142D01*
X167275000Y-28344761D01*
X167370238Y-28392380D01*
X167465476Y-28392380D01*
X167560714Y-28344761D01*
X167608333Y-28297142D01*
X167655952Y-28201904D01*
X167703571Y-28011428D01*
X167703571Y-27773333D01*
X167655952Y-27582857D01*
X167608333Y-27487619D01*
X167560714Y-27440000D01*
X167465476Y-27392380D01*
X136612380Y-40465476D02*
X137326666Y-40465476D01*
X137469523Y-40417857D01*
X137564761Y-40322619D01*
X137612380Y-40179761D01*
X137612380Y-40084523D01*
X136707619Y-40894047D02*
X136660000Y-40941666D01*
X136612380Y-41036904D01*
X136612380Y-41275000D01*
X136660000Y-41370238D01*
X136707619Y-41417857D01*
X136802857Y-41465476D01*
X136898095Y-41465476D01*
X137040952Y-41417857D01*
X137612380Y-40846428D01*
X137612380Y-41465476D01*
X136945714Y-42322619D02*
X137612380Y-42322619D01*
X136564761Y-42084523D02*
X137279047Y-41846428D01*
X137279047Y-42465476D01*
X149256009Y-54506904D02*
X148256009Y-54506904D01*
X148256009Y-54745000D01*
X148303629Y-54887857D01*
X148398867Y-54983095D01*
X148494105Y-55030714D01*
X148684581Y-55078333D01*
X148827438Y-55078333D01*
X149017914Y-55030714D01*
X149113152Y-54983095D01*
X149208390Y-54887857D01*
X149256009Y-54745000D01*
X149256009Y-54506904D01*
X148256009Y-55935476D02*
X148256009Y-55745000D01*
X148303629Y-55649761D01*
X148351248Y-55602142D01*
X148494105Y-55506904D01*
X148684581Y-55459285D01*
X149065533Y-55459285D01*
X149160771Y-55506904D01*
X149208390Y-55554523D01*
X149256009Y-55649761D01*
X149256009Y-55840238D01*
X149208390Y-55935476D01*
X149160771Y-55983095D01*
X149065533Y-56030714D01*
X148827438Y-56030714D01*
X148732200Y-55983095D01*
X148684581Y-55935476D01*
X148636962Y-55840238D01*
X148636962Y-55649761D01*
X148684581Y-55554523D01*
X148732200Y-55506904D01*
X148827438Y-55459285D01*
X152382380Y-53943095D02*
X151382380Y-53943095D01*
X152382380Y-54514523D02*
X151810952Y-54085952D01*
X151382380Y-54514523D02*
X151953809Y-53943095D01*
M02*
