G04 #@! TF.GenerationSoftware,KiCad,Pcbnew,(5.1.5)-3*
G04 #@! TF.CreationDate,2020-09-25T18:16:36+09:00*
G04 #@! TF.ProjectId,righthand,72696768-7468-4616-9e64-2e6b69636164,rev?*
G04 #@! TF.SameCoordinates,Original*
G04 #@! TF.FileFunction,Copper,L1,Top*
G04 #@! TF.FilePolarity,Positive*
%FSLAX46Y46*%
G04 Gerber Fmt 4.6, Leading zero omitted, Abs format (unit mm)*
G04 Created by KiCad (PCBNEW (5.1.5)-3) date 2020-09-25 18:16:36*
%MOMM*%
%LPD*%
G04 APERTURE LIST*
%ADD10C,1.524000*%
%ADD11R,1.050000X1.500000*%
%ADD12O,1.050000X1.500000*%
%ADD13R,0.750000X2.000000*%
%ADD14R,2.000000X0.900000*%
%ADD15C,2.200000*%
%ADD16C,4.000000*%
%ADD17O,1.600000X1.600000*%
%ADD18R,1.600000X1.600000*%
%ADD19C,0.800000*%
%ADD20C,0.250000*%
%ADD21C,0.350000*%
%ADD22C,0.254000*%
G04 APERTURE END LIST*
D10*
X153670000Y-66715000D03*
X148590000Y-66715000D03*
D11*
X160655000Y-66675000D03*
D12*
X158115000Y-66675000D03*
X159385000Y-66675000D03*
D13*
X127889000Y-29210000D03*
X130175000Y-29210000D03*
X130175000Y-34290000D03*
X127889000Y-34290000D03*
X127889000Y-38100000D03*
X130175000Y-38100000D03*
X130175000Y-43180000D03*
X127889000Y-43180000D03*
D14*
X148590000Y-44958000D03*
X148590000Y-48260000D03*
X153670000Y-48260000D03*
X153670000Y-44958000D03*
X168910000Y-44958000D03*
X168910000Y-48260000D03*
X173990000Y-48260000D03*
X173990000Y-44958000D03*
X168725000Y-85598000D03*
X168725000Y-88900000D03*
X173805000Y-88900000D03*
X173805000Y-85598000D03*
X148590000Y-85598000D03*
X148590000Y-88900000D03*
X153670000Y-88900000D03*
X153670000Y-85598000D03*
D15*
X135470000Y-36195000D03*
X146470000Y-36195000D03*
D16*
X140970000Y-36195000D03*
D15*
X145970000Y-32395000D03*
X140970000Y-30295000D03*
X135470000Y-56515000D03*
X146470000Y-56515000D03*
D16*
X140970000Y-56515000D03*
D15*
X145970000Y-52715000D03*
X140970000Y-50615000D03*
X135470000Y-76835000D03*
X146470000Y-76835000D03*
D16*
X140970000Y-76835000D03*
D15*
X145970000Y-73035000D03*
X140970000Y-70935000D03*
X135470000Y-97155000D03*
X146470000Y-97155000D03*
D16*
X140970000Y-97155000D03*
D15*
X145970000Y-93355000D03*
X140970000Y-91255000D03*
X155790000Y-36195000D03*
X166790000Y-36195000D03*
D16*
X161290000Y-36195000D03*
D15*
X166290000Y-32395000D03*
X161290000Y-30295000D03*
X155790000Y-56515000D03*
X166790000Y-56515000D03*
D16*
X161290000Y-56515000D03*
D15*
X166290000Y-52715000D03*
X161290000Y-50615000D03*
X155790000Y-76835000D03*
X166790000Y-76835000D03*
D16*
X161290000Y-76835000D03*
D15*
X166290000Y-73035000D03*
X161290000Y-70935000D03*
X155790000Y-97155000D03*
X166790000Y-97155000D03*
D16*
X161290000Y-97155000D03*
D15*
X166290000Y-93355000D03*
X161290000Y-91255000D03*
X176110000Y-36195000D03*
X187110000Y-36195000D03*
D16*
X181610000Y-36195000D03*
D15*
X186610000Y-32395000D03*
X181610000Y-30295000D03*
X176110000Y-56515000D03*
X187110000Y-56515000D03*
D16*
X181610000Y-56515000D03*
D15*
X186610000Y-52715000D03*
X181610000Y-50615000D03*
X176110000Y-76835000D03*
X187110000Y-76835000D03*
D16*
X181610000Y-76835000D03*
D15*
X186610000Y-73035000D03*
X181610000Y-70935000D03*
X176110000Y-97155000D03*
X187110000Y-97155000D03*
D16*
X181610000Y-97155000D03*
D15*
X186610000Y-93355000D03*
X181610000Y-91255000D03*
D17*
X151130000Y-57785000D03*
D18*
X151130000Y-52705000D03*
D19*
X177470600Y-50800600D03*
X175013800Y-84529200D03*
X174350900Y-37514900D03*
X139674700Y-42316700D03*
X166441300Y-84722700D03*
X164967900Y-44958000D03*
X169462000Y-33052400D03*
X188284300Y-34360300D03*
X157631900Y-48260000D03*
X134058200Y-40371300D03*
X131355200Y-37244500D03*
X190504300Y-47088000D03*
X166953800Y-66675000D03*
X141056600Y-47933100D03*
X138801000Y-47743900D03*
X150989900Y-48260000D03*
X165305700Y-89583000D03*
X173212700Y-46503100D03*
X130416600Y-40209200D03*
X173735900Y-50035300D03*
X167363300Y-49035400D03*
X172392700Y-34780500D03*
X130175000Y-31750000D03*
X164694800Y-65599700D03*
D20*
X172664700Y-44958000D02*
X170928900Y-46693800D01*
X170928900Y-46693800D02*
X151481500Y-46693800D01*
X151481500Y-46693800D02*
X149915300Y-48260000D01*
X148590000Y-48260000D02*
X149915300Y-48260000D01*
X173990000Y-44958000D02*
X172664700Y-44958000D01*
X173805000Y-85598000D02*
X175130300Y-85598000D01*
X175130300Y-85598000D02*
X175130300Y-84645700D01*
X175130300Y-84645700D02*
X175013800Y-84529200D01*
X168910000Y-48260000D02*
X170235300Y-48260000D01*
X177470600Y-50800600D02*
X172775900Y-50800600D01*
X172775900Y-50800600D02*
X170235300Y-48260000D01*
X168725000Y-88900000D02*
X167399700Y-88900000D01*
X153670000Y-85598000D02*
X164097700Y-85598000D01*
X164097700Y-85598000D02*
X167399700Y-88900000D01*
D21*
X168197400Y-44958000D02*
X174350900Y-38804500D01*
X174350900Y-38804500D02*
X174350900Y-37514900D01*
X168197400Y-44958000D02*
X167484700Y-44958000D01*
X168910000Y-44958000D02*
X168197400Y-44958000D01*
X139674700Y-44605300D02*
X139674700Y-42316700D01*
X148590000Y-44958000D02*
X140027400Y-44958000D01*
X140027400Y-44958000D02*
X139674700Y-44605300D01*
X139674700Y-44605300D02*
X127889000Y-44605300D01*
X127889000Y-34290000D02*
X127889000Y-29210000D01*
X127889000Y-38100000D02*
X127889000Y-34290000D01*
X127889000Y-43180000D02*
X127889000Y-38100000D01*
X127889000Y-43892600D02*
X127889000Y-43180000D01*
X127889000Y-43892600D02*
X127889000Y-44605300D01*
X149302700Y-44958000D02*
X148590000Y-44958000D01*
X149302700Y-44958000D02*
X150015300Y-44958000D01*
X167484700Y-44958000D02*
X166609400Y-45833300D01*
X166609400Y-45833300D02*
X150890600Y-45833300D01*
X150890600Y-45833300D02*
X150015300Y-44958000D01*
X150015300Y-85598000D02*
X150890600Y-84722700D01*
X150890600Y-84722700D02*
X166441300Y-84722700D01*
X166441300Y-84722700D02*
X166441300Y-84739600D01*
X166441300Y-84739600D02*
X167299700Y-85598000D01*
X168725000Y-85598000D02*
X167299700Y-85598000D01*
X148590000Y-85598000D02*
X150015300Y-85598000D01*
D20*
X153670000Y-44958000D02*
X164967900Y-44958000D01*
X188284300Y-34360300D02*
X186125700Y-34360300D01*
X186125700Y-34360300D02*
X184817800Y-33052400D01*
X184817800Y-33052400D02*
X169462000Y-33052400D01*
X172664700Y-48260000D02*
X171880100Y-47475400D01*
X171880100Y-47475400D02*
X158416500Y-47475400D01*
X158416500Y-47475400D02*
X157631900Y-48260000D01*
X154332700Y-48260000D02*
X157631900Y-48260000D01*
X153670000Y-48260000D02*
X154332700Y-48260000D01*
X131355200Y-37244500D02*
X131355200Y-37668300D01*
X131355200Y-37668300D02*
X134058200Y-40371300D01*
X160655000Y-66675000D02*
X166953800Y-66675000D01*
X173327400Y-48260000D02*
X174499400Y-47088000D01*
X174499400Y-47088000D02*
X190504300Y-47088000D01*
X173327400Y-48260000D02*
X172664700Y-48260000D01*
X173990000Y-48260000D02*
X173327400Y-48260000D01*
X138801000Y-47743900D02*
X138990200Y-47933100D01*
X138990200Y-47933100D02*
X141056600Y-47933100D01*
X150989900Y-48260000D02*
X153670000Y-48260000D01*
X165305700Y-89583000D02*
X155678300Y-89583000D01*
X155678300Y-89583000D02*
X154995300Y-88900000D01*
X165305700Y-89583000D02*
X165398000Y-89675300D01*
X165398000Y-89675300D02*
X171704400Y-89675300D01*
X171704400Y-89675300D02*
X172479700Y-88900000D01*
X153670000Y-88900000D02*
X154995300Y-88900000D01*
X173805000Y-88900000D02*
X172479700Y-88900000D01*
X145970000Y-73035000D02*
X166290000Y-73035000D01*
X186610000Y-73035000D02*
X166290000Y-73035000D01*
X173212700Y-46503100D02*
X178890200Y-46503100D01*
X178890200Y-46503100D02*
X189009700Y-36383600D01*
X189009700Y-36383600D02*
X189009700Y-33985000D01*
X189009700Y-33985000D02*
X187419700Y-32395000D01*
X187419700Y-32395000D02*
X186610000Y-32395000D01*
X186610000Y-32395000D02*
X186542100Y-32327100D01*
X186542100Y-32327100D02*
X166357900Y-32327100D01*
X166357900Y-32327100D02*
X166290000Y-32395000D01*
X166290000Y-32395000D02*
X145970000Y-32395000D01*
X130175000Y-40209200D02*
X130416600Y-40209200D01*
X130175000Y-43180000D02*
X130175000Y-40209200D01*
X130175000Y-40209200D02*
X130175000Y-38100000D01*
X166290000Y-93355000D02*
X145970000Y-93355000D01*
X186610000Y-93355000D02*
X166290000Y-93355000D01*
X145970000Y-52715000D02*
X147085400Y-53830400D01*
X147085400Y-53830400D02*
X165174600Y-53830400D01*
X165174600Y-53830400D02*
X166290000Y-52715000D01*
X166290000Y-52715000D02*
X186610000Y-52715000D01*
X173735900Y-50035300D02*
X181030300Y-50035300D01*
X181030300Y-50035300D02*
X181610000Y-50615000D01*
X140970000Y-50615000D02*
X142549600Y-49035400D01*
X142549600Y-49035400D02*
X167363300Y-49035400D01*
X172392700Y-34780500D02*
X171481800Y-33869600D01*
X171481800Y-33869600D02*
X131780200Y-33869600D01*
X131780200Y-33869600D02*
X130875300Y-32964700D01*
X130875300Y-32964700D02*
X130175000Y-32964700D01*
X130175000Y-32964700D02*
X130175000Y-31750000D01*
X130175000Y-34290000D02*
X130175000Y-32964700D01*
X130175000Y-31750000D02*
X130175000Y-29210000D01*
X158115000Y-65599700D02*
X164694800Y-65599700D01*
X158115000Y-66675000D02*
X158115000Y-65599700D01*
D22*
G36*
X190373000Y-27992606D02*
G01*
X190373000Y-104722394D01*
X189177394Y-105918000D01*
X133402606Y-105918000D01*
X132207000Y-104722394D01*
X132207000Y-96984117D01*
X133735000Y-96984117D01*
X133735000Y-97325883D01*
X133801675Y-97661081D01*
X133932463Y-97976831D01*
X134122337Y-98260998D01*
X134364002Y-98502663D01*
X134648169Y-98692537D01*
X134963919Y-98823325D01*
X135299117Y-98890000D01*
X135640883Y-98890000D01*
X135976081Y-98823325D01*
X136291831Y-98692537D01*
X136575998Y-98502663D01*
X136817663Y-98260998D01*
X137007537Y-97976831D01*
X137138325Y-97661081D01*
X137205000Y-97325883D01*
X137205000Y-96984117D01*
X137187369Y-96895475D01*
X138335000Y-96895475D01*
X138335000Y-97414525D01*
X138436261Y-97923601D01*
X138634893Y-98403141D01*
X138923262Y-98834715D01*
X139290285Y-99201738D01*
X139721859Y-99490107D01*
X140201399Y-99688739D01*
X140710475Y-99790000D01*
X141229525Y-99790000D01*
X141738601Y-99688739D01*
X142218141Y-99490107D01*
X142649715Y-99201738D01*
X143016738Y-98834715D01*
X143305107Y-98403141D01*
X143503739Y-97923601D01*
X143605000Y-97414525D01*
X143605000Y-96984117D01*
X144735000Y-96984117D01*
X144735000Y-97325883D01*
X144801675Y-97661081D01*
X144932463Y-97976831D01*
X145122337Y-98260998D01*
X145364002Y-98502663D01*
X145648169Y-98692537D01*
X145963919Y-98823325D01*
X146299117Y-98890000D01*
X146640883Y-98890000D01*
X146976081Y-98823325D01*
X147291831Y-98692537D01*
X147575998Y-98502663D01*
X147817663Y-98260998D01*
X148007537Y-97976831D01*
X148138325Y-97661081D01*
X148205000Y-97325883D01*
X148205000Y-96984117D01*
X154055000Y-96984117D01*
X154055000Y-97325883D01*
X154121675Y-97661081D01*
X154252463Y-97976831D01*
X154442337Y-98260998D01*
X154684002Y-98502663D01*
X154968169Y-98692537D01*
X155283919Y-98823325D01*
X155619117Y-98890000D01*
X155960883Y-98890000D01*
X156296081Y-98823325D01*
X156611831Y-98692537D01*
X156895998Y-98502663D01*
X157137663Y-98260998D01*
X157327537Y-97976831D01*
X157458325Y-97661081D01*
X157525000Y-97325883D01*
X157525000Y-96984117D01*
X157507369Y-96895475D01*
X158655000Y-96895475D01*
X158655000Y-97414525D01*
X158756261Y-97923601D01*
X158954893Y-98403141D01*
X159243262Y-98834715D01*
X159610285Y-99201738D01*
X160041859Y-99490107D01*
X160521399Y-99688739D01*
X161030475Y-99790000D01*
X161549525Y-99790000D01*
X162058601Y-99688739D01*
X162538141Y-99490107D01*
X162969715Y-99201738D01*
X163336738Y-98834715D01*
X163625107Y-98403141D01*
X163823739Y-97923601D01*
X163925000Y-97414525D01*
X163925000Y-96984117D01*
X165055000Y-96984117D01*
X165055000Y-97325883D01*
X165121675Y-97661081D01*
X165252463Y-97976831D01*
X165442337Y-98260998D01*
X165684002Y-98502663D01*
X165968169Y-98692537D01*
X166283919Y-98823325D01*
X166619117Y-98890000D01*
X166960883Y-98890000D01*
X167296081Y-98823325D01*
X167611831Y-98692537D01*
X167895998Y-98502663D01*
X168137663Y-98260998D01*
X168327537Y-97976831D01*
X168458325Y-97661081D01*
X168525000Y-97325883D01*
X168525000Y-96984117D01*
X174375000Y-96984117D01*
X174375000Y-97325883D01*
X174441675Y-97661081D01*
X174572463Y-97976831D01*
X174762337Y-98260998D01*
X175004002Y-98502663D01*
X175288169Y-98692537D01*
X175603919Y-98823325D01*
X175939117Y-98890000D01*
X176280883Y-98890000D01*
X176616081Y-98823325D01*
X176931831Y-98692537D01*
X177215998Y-98502663D01*
X177457663Y-98260998D01*
X177647537Y-97976831D01*
X177778325Y-97661081D01*
X177845000Y-97325883D01*
X177845000Y-96984117D01*
X177827369Y-96895475D01*
X178975000Y-96895475D01*
X178975000Y-97414525D01*
X179076261Y-97923601D01*
X179274893Y-98403141D01*
X179563262Y-98834715D01*
X179930285Y-99201738D01*
X180361859Y-99490107D01*
X180841399Y-99688739D01*
X181350475Y-99790000D01*
X181869525Y-99790000D01*
X182378601Y-99688739D01*
X182858141Y-99490107D01*
X183289715Y-99201738D01*
X183656738Y-98834715D01*
X183945107Y-98403141D01*
X184143739Y-97923601D01*
X184245000Y-97414525D01*
X184245000Y-96984117D01*
X185375000Y-96984117D01*
X185375000Y-97325883D01*
X185441675Y-97661081D01*
X185572463Y-97976831D01*
X185762337Y-98260998D01*
X186004002Y-98502663D01*
X186288169Y-98692537D01*
X186603919Y-98823325D01*
X186939117Y-98890000D01*
X187280883Y-98890000D01*
X187616081Y-98823325D01*
X187931831Y-98692537D01*
X188215998Y-98502663D01*
X188457663Y-98260998D01*
X188647537Y-97976831D01*
X188778325Y-97661081D01*
X188845000Y-97325883D01*
X188845000Y-96984117D01*
X188778325Y-96648919D01*
X188647537Y-96333169D01*
X188457663Y-96049002D01*
X188215998Y-95807337D01*
X187931831Y-95617463D01*
X187616081Y-95486675D01*
X187280883Y-95420000D01*
X186939117Y-95420000D01*
X186603919Y-95486675D01*
X186288169Y-95617463D01*
X186004002Y-95807337D01*
X185762337Y-96049002D01*
X185572463Y-96333169D01*
X185441675Y-96648919D01*
X185375000Y-96984117D01*
X184245000Y-96984117D01*
X184245000Y-96895475D01*
X184143739Y-96386399D01*
X183945107Y-95906859D01*
X183656738Y-95475285D01*
X183289715Y-95108262D01*
X182858141Y-94819893D01*
X182378601Y-94621261D01*
X181869525Y-94520000D01*
X181350475Y-94520000D01*
X180841399Y-94621261D01*
X180361859Y-94819893D01*
X179930285Y-95108262D01*
X179563262Y-95475285D01*
X179274893Y-95906859D01*
X179076261Y-96386399D01*
X178975000Y-96895475D01*
X177827369Y-96895475D01*
X177778325Y-96648919D01*
X177647537Y-96333169D01*
X177457663Y-96049002D01*
X177215998Y-95807337D01*
X176931831Y-95617463D01*
X176616081Y-95486675D01*
X176280883Y-95420000D01*
X175939117Y-95420000D01*
X175603919Y-95486675D01*
X175288169Y-95617463D01*
X175004002Y-95807337D01*
X174762337Y-96049002D01*
X174572463Y-96333169D01*
X174441675Y-96648919D01*
X174375000Y-96984117D01*
X168525000Y-96984117D01*
X168458325Y-96648919D01*
X168327537Y-96333169D01*
X168137663Y-96049002D01*
X167895998Y-95807337D01*
X167611831Y-95617463D01*
X167296081Y-95486675D01*
X166960883Y-95420000D01*
X166619117Y-95420000D01*
X166283919Y-95486675D01*
X165968169Y-95617463D01*
X165684002Y-95807337D01*
X165442337Y-96049002D01*
X165252463Y-96333169D01*
X165121675Y-96648919D01*
X165055000Y-96984117D01*
X163925000Y-96984117D01*
X163925000Y-96895475D01*
X163823739Y-96386399D01*
X163625107Y-95906859D01*
X163336738Y-95475285D01*
X162969715Y-95108262D01*
X162538141Y-94819893D01*
X162058601Y-94621261D01*
X161549525Y-94520000D01*
X161030475Y-94520000D01*
X160521399Y-94621261D01*
X160041859Y-94819893D01*
X159610285Y-95108262D01*
X159243262Y-95475285D01*
X158954893Y-95906859D01*
X158756261Y-96386399D01*
X158655000Y-96895475D01*
X157507369Y-96895475D01*
X157458325Y-96648919D01*
X157327537Y-96333169D01*
X157137663Y-96049002D01*
X156895998Y-95807337D01*
X156611831Y-95617463D01*
X156296081Y-95486675D01*
X155960883Y-95420000D01*
X155619117Y-95420000D01*
X155283919Y-95486675D01*
X154968169Y-95617463D01*
X154684002Y-95807337D01*
X154442337Y-96049002D01*
X154252463Y-96333169D01*
X154121675Y-96648919D01*
X154055000Y-96984117D01*
X148205000Y-96984117D01*
X148138325Y-96648919D01*
X148007537Y-96333169D01*
X147817663Y-96049002D01*
X147575998Y-95807337D01*
X147291831Y-95617463D01*
X146976081Y-95486675D01*
X146640883Y-95420000D01*
X146299117Y-95420000D01*
X145963919Y-95486675D01*
X145648169Y-95617463D01*
X145364002Y-95807337D01*
X145122337Y-96049002D01*
X144932463Y-96333169D01*
X144801675Y-96648919D01*
X144735000Y-96984117D01*
X143605000Y-96984117D01*
X143605000Y-96895475D01*
X143503739Y-96386399D01*
X143305107Y-95906859D01*
X143016738Y-95475285D01*
X142649715Y-95108262D01*
X142218141Y-94819893D01*
X141738601Y-94621261D01*
X141229525Y-94520000D01*
X140710475Y-94520000D01*
X140201399Y-94621261D01*
X139721859Y-94819893D01*
X139290285Y-95108262D01*
X138923262Y-95475285D01*
X138634893Y-95906859D01*
X138436261Y-96386399D01*
X138335000Y-96895475D01*
X137187369Y-96895475D01*
X137138325Y-96648919D01*
X137007537Y-96333169D01*
X136817663Y-96049002D01*
X136575998Y-95807337D01*
X136291831Y-95617463D01*
X135976081Y-95486675D01*
X135640883Y-95420000D01*
X135299117Y-95420000D01*
X134963919Y-95486675D01*
X134648169Y-95617463D01*
X134364002Y-95807337D01*
X134122337Y-96049002D01*
X133932463Y-96333169D01*
X133801675Y-96648919D01*
X133735000Y-96984117D01*
X132207000Y-96984117D01*
X132207000Y-93184117D01*
X144235000Y-93184117D01*
X144235000Y-93525883D01*
X144301675Y-93861081D01*
X144432463Y-94176831D01*
X144622337Y-94460998D01*
X144864002Y-94702663D01*
X145148169Y-94892537D01*
X145463919Y-95023325D01*
X145799117Y-95090000D01*
X146140883Y-95090000D01*
X146476081Y-95023325D01*
X146791831Y-94892537D01*
X147075998Y-94702663D01*
X147317663Y-94460998D01*
X147507537Y-94176831D01*
X147533148Y-94115000D01*
X164726852Y-94115000D01*
X164752463Y-94176831D01*
X164942337Y-94460998D01*
X165184002Y-94702663D01*
X165468169Y-94892537D01*
X165783919Y-95023325D01*
X166119117Y-95090000D01*
X166460883Y-95090000D01*
X166796081Y-95023325D01*
X167111831Y-94892537D01*
X167395998Y-94702663D01*
X167637663Y-94460998D01*
X167827537Y-94176831D01*
X167853148Y-94115000D01*
X185046852Y-94115000D01*
X185072463Y-94176831D01*
X185262337Y-94460998D01*
X185504002Y-94702663D01*
X185788169Y-94892537D01*
X186103919Y-95023325D01*
X186439117Y-95090000D01*
X186780883Y-95090000D01*
X187116081Y-95023325D01*
X187431831Y-94892537D01*
X187715998Y-94702663D01*
X187957663Y-94460998D01*
X188147537Y-94176831D01*
X188278325Y-93861081D01*
X188345000Y-93525883D01*
X188345000Y-93184117D01*
X188278325Y-92848919D01*
X188147537Y-92533169D01*
X187957663Y-92249002D01*
X187715998Y-92007337D01*
X187431831Y-91817463D01*
X187116081Y-91686675D01*
X186780883Y-91620000D01*
X186439117Y-91620000D01*
X186103919Y-91686675D01*
X185788169Y-91817463D01*
X185504002Y-92007337D01*
X185262337Y-92249002D01*
X185072463Y-92533169D01*
X185046852Y-92595000D01*
X182723661Y-92595000D01*
X182957663Y-92360998D01*
X183147537Y-92076831D01*
X183278325Y-91761081D01*
X183345000Y-91425883D01*
X183345000Y-91084117D01*
X183278325Y-90748919D01*
X183147537Y-90433169D01*
X182957663Y-90149002D01*
X182715998Y-89907337D01*
X182431831Y-89717463D01*
X182116081Y-89586675D01*
X181780883Y-89520000D01*
X181439117Y-89520000D01*
X181103919Y-89586675D01*
X180788169Y-89717463D01*
X180504002Y-89907337D01*
X180262337Y-90149002D01*
X180072463Y-90433169D01*
X179941675Y-90748919D01*
X179875000Y-91084117D01*
X179875000Y-91425883D01*
X179941675Y-91761081D01*
X180072463Y-92076831D01*
X180262337Y-92360998D01*
X180496339Y-92595000D01*
X167853148Y-92595000D01*
X167827537Y-92533169D01*
X167637663Y-92249002D01*
X167395998Y-92007337D01*
X167111831Y-91817463D01*
X166796081Y-91686675D01*
X166460883Y-91620000D01*
X166119117Y-91620000D01*
X165783919Y-91686675D01*
X165468169Y-91817463D01*
X165184002Y-92007337D01*
X164942337Y-92249002D01*
X164752463Y-92533169D01*
X164726852Y-92595000D01*
X162403661Y-92595000D01*
X162637663Y-92360998D01*
X162827537Y-92076831D01*
X162958325Y-91761081D01*
X163025000Y-91425883D01*
X163025000Y-91084117D01*
X162958325Y-90748919D01*
X162827537Y-90433169D01*
X162637663Y-90149002D01*
X162395998Y-89907337D01*
X162111831Y-89717463D01*
X161796081Y-89586675D01*
X161460883Y-89520000D01*
X161119117Y-89520000D01*
X160783919Y-89586675D01*
X160468169Y-89717463D01*
X160184002Y-89907337D01*
X159942337Y-90149002D01*
X159752463Y-90433169D01*
X159621675Y-90748919D01*
X159555000Y-91084117D01*
X159555000Y-91425883D01*
X159621675Y-91761081D01*
X159752463Y-92076831D01*
X159942337Y-92360998D01*
X160176339Y-92595000D01*
X147533148Y-92595000D01*
X147507537Y-92533169D01*
X147317663Y-92249002D01*
X147075998Y-92007337D01*
X146791831Y-91817463D01*
X146476081Y-91686675D01*
X146140883Y-91620000D01*
X145799117Y-91620000D01*
X145463919Y-91686675D01*
X145148169Y-91817463D01*
X144864002Y-92007337D01*
X144622337Y-92249002D01*
X144432463Y-92533169D01*
X144301675Y-92848919D01*
X144235000Y-93184117D01*
X132207000Y-93184117D01*
X132207000Y-91084117D01*
X139235000Y-91084117D01*
X139235000Y-91425883D01*
X139301675Y-91761081D01*
X139432463Y-92076831D01*
X139622337Y-92360998D01*
X139864002Y-92602663D01*
X140148169Y-92792537D01*
X140463919Y-92923325D01*
X140799117Y-92990000D01*
X141140883Y-92990000D01*
X141476081Y-92923325D01*
X141791831Y-92792537D01*
X142075998Y-92602663D01*
X142317663Y-92360998D01*
X142507537Y-92076831D01*
X142638325Y-91761081D01*
X142705000Y-91425883D01*
X142705000Y-91084117D01*
X142638325Y-90748919D01*
X142507537Y-90433169D01*
X142317663Y-90149002D01*
X142075998Y-89907337D01*
X141791831Y-89717463D01*
X141476081Y-89586675D01*
X141140883Y-89520000D01*
X140799117Y-89520000D01*
X140463919Y-89586675D01*
X140148169Y-89717463D01*
X139864002Y-89907337D01*
X139622337Y-90149002D01*
X139432463Y-90433169D01*
X139301675Y-90748919D01*
X139235000Y-91084117D01*
X132207000Y-91084117D01*
X132207000Y-88450000D01*
X146951928Y-88450000D01*
X146951928Y-89350000D01*
X146964188Y-89474482D01*
X147000498Y-89594180D01*
X147059463Y-89704494D01*
X147138815Y-89801185D01*
X147235506Y-89880537D01*
X147345820Y-89939502D01*
X147465518Y-89975812D01*
X147590000Y-89988072D01*
X149590000Y-89988072D01*
X149714482Y-89975812D01*
X149834180Y-89939502D01*
X149944494Y-89880537D01*
X150041185Y-89801185D01*
X150120537Y-89704494D01*
X150179502Y-89594180D01*
X150215812Y-89474482D01*
X150228072Y-89350000D01*
X152031928Y-89350000D01*
X152044188Y-89474482D01*
X152080498Y-89594180D01*
X152139463Y-89704494D01*
X152218815Y-89801185D01*
X152315506Y-89880537D01*
X152425820Y-89939502D01*
X152545518Y-89975812D01*
X152670000Y-89988072D01*
X153384250Y-89985000D01*
X153543000Y-89826250D01*
X153543000Y-89027000D01*
X153797000Y-89027000D01*
X153797000Y-89826250D01*
X153955750Y-89985000D01*
X154670000Y-89988072D01*
X154794482Y-89975812D01*
X154914180Y-89939502D01*
X155024494Y-89880537D01*
X155121185Y-89801185D01*
X155200537Y-89704494D01*
X155259502Y-89594180D01*
X155295812Y-89474482D01*
X155308072Y-89350000D01*
X155305000Y-89185750D01*
X155146250Y-89027000D01*
X153797000Y-89027000D01*
X153543000Y-89027000D01*
X152193750Y-89027000D01*
X152035000Y-89185750D01*
X152031928Y-89350000D01*
X150228072Y-89350000D01*
X150228072Y-88450000D01*
X152031928Y-88450000D01*
X152035000Y-88614250D01*
X152193750Y-88773000D01*
X153543000Y-88773000D01*
X153543000Y-87973750D01*
X153797000Y-87973750D01*
X153797000Y-88773000D01*
X155146250Y-88773000D01*
X155305000Y-88614250D01*
X155308072Y-88450000D01*
X155295812Y-88325518D01*
X155259502Y-88205820D01*
X155200537Y-88095506D01*
X155121185Y-87998815D01*
X155024494Y-87919463D01*
X154914180Y-87860498D01*
X154794482Y-87824188D01*
X154670000Y-87811928D01*
X153955750Y-87815000D01*
X153797000Y-87973750D01*
X153543000Y-87973750D01*
X153384250Y-87815000D01*
X152670000Y-87811928D01*
X152545518Y-87824188D01*
X152425820Y-87860498D01*
X152315506Y-87919463D01*
X152218815Y-87998815D01*
X152139463Y-88095506D01*
X152080498Y-88205820D01*
X152044188Y-88325518D01*
X152031928Y-88450000D01*
X150228072Y-88450000D01*
X150215812Y-88325518D01*
X150179502Y-88205820D01*
X150120537Y-88095506D01*
X150041185Y-87998815D01*
X149944494Y-87919463D01*
X149834180Y-87860498D01*
X149714482Y-87824188D01*
X149590000Y-87811928D01*
X147590000Y-87811928D01*
X147465518Y-87824188D01*
X147345820Y-87860498D01*
X147235506Y-87919463D01*
X147138815Y-87998815D01*
X147059463Y-88095506D01*
X147000498Y-88205820D01*
X146964188Y-88325518D01*
X146951928Y-88450000D01*
X132207000Y-88450000D01*
X132207000Y-85148000D01*
X146951928Y-85148000D01*
X146951928Y-86048000D01*
X146964188Y-86172482D01*
X147000498Y-86292180D01*
X147059463Y-86402494D01*
X147138815Y-86499185D01*
X147235506Y-86578537D01*
X147345820Y-86637502D01*
X147465518Y-86673812D01*
X147590000Y-86686072D01*
X149590000Y-86686072D01*
X149714482Y-86673812D01*
X149834180Y-86637502D01*
X149944494Y-86578537D01*
X150041185Y-86499185D01*
X150120537Y-86402494D01*
X150121067Y-86401502D01*
X150174088Y-86396280D01*
X150326773Y-86349963D01*
X150467489Y-86274749D01*
X150590828Y-86173528D01*
X150616199Y-86142613D01*
X151226113Y-85532700D01*
X152031928Y-85532700D01*
X152031928Y-86048000D01*
X152044188Y-86172482D01*
X152080498Y-86292180D01*
X152139463Y-86402494D01*
X152218815Y-86499185D01*
X152315506Y-86578537D01*
X152425820Y-86637502D01*
X152545518Y-86673812D01*
X152670000Y-86686072D01*
X154670000Y-86686072D01*
X154794482Y-86673812D01*
X154914180Y-86637502D01*
X155024494Y-86578537D01*
X155121185Y-86499185D01*
X155200537Y-86402494D01*
X155224320Y-86358000D01*
X163782899Y-86358000D01*
X166835901Y-89411003D01*
X166859699Y-89440001D01*
X166975424Y-89534974D01*
X167107453Y-89605546D01*
X167148176Y-89617899D01*
X167194463Y-89704494D01*
X167273815Y-89801185D01*
X167370506Y-89880537D01*
X167480820Y-89939502D01*
X167600518Y-89975812D01*
X167725000Y-89988072D01*
X169725000Y-89988072D01*
X169849482Y-89975812D01*
X169969180Y-89939502D01*
X170079494Y-89880537D01*
X170176185Y-89801185D01*
X170255537Y-89704494D01*
X170314502Y-89594180D01*
X170350812Y-89474482D01*
X170363072Y-89350000D01*
X172166928Y-89350000D01*
X172179188Y-89474482D01*
X172215498Y-89594180D01*
X172274463Y-89704494D01*
X172353815Y-89801185D01*
X172450506Y-89880537D01*
X172560820Y-89939502D01*
X172680518Y-89975812D01*
X172805000Y-89988072D01*
X173519250Y-89985000D01*
X173678000Y-89826250D01*
X173678000Y-89027000D01*
X173932000Y-89027000D01*
X173932000Y-89826250D01*
X174090750Y-89985000D01*
X174805000Y-89988072D01*
X174929482Y-89975812D01*
X175049180Y-89939502D01*
X175159494Y-89880537D01*
X175256185Y-89801185D01*
X175335537Y-89704494D01*
X175394502Y-89594180D01*
X175430812Y-89474482D01*
X175443072Y-89350000D01*
X175440000Y-89185750D01*
X175281250Y-89027000D01*
X173932000Y-89027000D01*
X173678000Y-89027000D01*
X172328750Y-89027000D01*
X172170000Y-89185750D01*
X172166928Y-89350000D01*
X170363072Y-89350000D01*
X170363072Y-88450000D01*
X172166928Y-88450000D01*
X172170000Y-88614250D01*
X172328750Y-88773000D01*
X173678000Y-88773000D01*
X173678000Y-87973750D01*
X173932000Y-87973750D01*
X173932000Y-88773000D01*
X175281250Y-88773000D01*
X175440000Y-88614250D01*
X175443072Y-88450000D01*
X175430812Y-88325518D01*
X175394502Y-88205820D01*
X175335537Y-88095506D01*
X175256185Y-87998815D01*
X175159494Y-87919463D01*
X175049180Y-87860498D01*
X174929482Y-87824188D01*
X174805000Y-87811928D01*
X174090750Y-87815000D01*
X173932000Y-87973750D01*
X173678000Y-87973750D01*
X173519250Y-87815000D01*
X172805000Y-87811928D01*
X172680518Y-87824188D01*
X172560820Y-87860498D01*
X172450506Y-87919463D01*
X172353815Y-87998815D01*
X172274463Y-88095506D01*
X172215498Y-88205820D01*
X172179188Y-88325518D01*
X172166928Y-88450000D01*
X170363072Y-88450000D01*
X170350812Y-88325518D01*
X170314502Y-88205820D01*
X170255537Y-88095506D01*
X170176185Y-87998815D01*
X170079494Y-87919463D01*
X169969180Y-87860498D01*
X169849482Y-87824188D01*
X169725000Y-87811928D01*
X167725000Y-87811928D01*
X167600518Y-87824188D01*
X167480820Y-87860498D01*
X167450960Y-87876459D01*
X165107201Y-85532700D01*
X165790600Y-85532700D01*
X165951044Y-85639905D01*
X166139402Y-85717926D01*
X166307562Y-85751375D01*
X166698805Y-86142618D01*
X166724172Y-86173528D01*
X166755080Y-86198893D01*
X166847510Y-86274749D01*
X166922724Y-86314951D01*
X166988227Y-86349963D01*
X167140912Y-86396280D01*
X167193933Y-86401502D01*
X167194463Y-86402494D01*
X167273815Y-86499185D01*
X167370506Y-86578537D01*
X167480820Y-86637502D01*
X167600518Y-86673812D01*
X167725000Y-86686072D01*
X169725000Y-86686072D01*
X169849482Y-86673812D01*
X169969180Y-86637502D01*
X170079494Y-86578537D01*
X170176185Y-86499185D01*
X170255537Y-86402494D01*
X170314502Y-86292180D01*
X170350812Y-86172482D01*
X170363072Y-86048000D01*
X170363072Y-85148000D01*
X172166928Y-85148000D01*
X172166928Y-86048000D01*
X172179188Y-86172482D01*
X172215498Y-86292180D01*
X172274463Y-86402494D01*
X172353815Y-86499185D01*
X172450506Y-86578537D01*
X172560820Y-86637502D01*
X172680518Y-86673812D01*
X172805000Y-86686072D01*
X174805000Y-86686072D01*
X174929482Y-86673812D01*
X175049180Y-86637502D01*
X175159494Y-86578537D01*
X175256185Y-86499185D01*
X175335537Y-86402494D01*
X175381824Y-86315899D01*
X175422547Y-86303546D01*
X175554576Y-86232974D01*
X175670301Y-86138001D01*
X175765274Y-86022276D01*
X175835846Y-85890247D01*
X175879303Y-85746986D01*
X175893977Y-85598000D01*
X175890300Y-85560667D01*
X175890300Y-85080376D01*
X175931005Y-85019456D01*
X176009026Y-84831098D01*
X176048800Y-84631139D01*
X176048800Y-84427261D01*
X176009026Y-84227302D01*
X175931005Y-84038944D01*
X175817737Y-83869426D01*
X175673574Y-83725263D01*
X175504056Y-83611995D01*
X175315698Y-83533974D01*
X175115739Y-83494200D01*
X174911861Y-83494200D01*
X174711902Y-83533974D01*
X174523544Y-83611995D01*
X174354026Y-83725263D01*
X174209863Y-83869426D01*
X174096595Y-84038944D01*
X174018574Y-84227302D01*
X173978800Y-84427261D01*
X173978800Y-84509928D01*
X172805000Y-84509928D01*
X172680518Y-84522188D01*
X172560820Y-84558498D01*
X172450506Y-84617463D01*
X172353815Y-84696815D01*
X172274463Y-84793506D01*
X172215498Y-84903820D01*
X172179188Y-85023518D01*
X172166928Y-85148000D01*
X170363072Y-85148000D01*
X170350812Y-85023518D01*
X170314502Y-84903820D01*
X170255537Y-84793506D01*
X170176185Y-84696815D01*
X170079494Y-84617463D01*
X169969180Y-84558498D01*
X169849482Y-84522188D01*
X169725000Y-84509928D01*
X167725000Y-84509928D01*
X167600518Y-84522188D01*
X167480820Y-84558498D01*
X167465540Y-84566666D01*
X167436526Y-84420802D01*
X167358505Y-84232444D01*
X167245237Y-84062926D01*
X167101074Y-83918763D01*
X166931556Y-83805495D01*
X166743198Y-83727474D01*
X166543239Y-83687700D01*
X166339361Y-83687700D01*
X166139402Y-83727474D01*
X165951044Y-83805495D01*
X165790600Y-83912700D01*
X150930387Y-83912700D01*
X150890599Y-83908781D01*
X150850811Y-83912700D01*
X150850809Y-83912700D01*
X150731812Y-83924420D01*
X150579127Y-83970737D01*
X150544587Y-83989199D01*
X150438410Y-84045951D01*
X150382810Y-84091581D01*
X150315072Y-84147172D01*
X150289705Y-84178082D01*
X149883127Y-84584661D01*
X149834180Y-84558498D01*
X149714482Y-84522188D01*
X149590000Y-84509928D01*
X147590000Y-84509928D01*
X147465518Y-84522188D01*
X147345820Y-84558498D01*
X147235506Y-84617463D01*
X147138815Y-84696815D01*
X147059463Y-84793506D01*
X147000498Y-84903820D01*
X146964188Y-85023518D01*
X146951928Y-85148000D01*
X132207000Y-85148000D01*
X132207000Y-76664117D01*
X133735000Y-76664117D01*
X133735000Y-77005883D01*
X133801675Y-77341081D01*
X133932463Y-77656831D01*
X134122337Y-77940998D01*
X134364002Y-78182663D01*
X134648169Y-78372537D01*
X134963919Y-78503325D01*
X135299117Y-78570000D01*
X135640883Y-78570000D01*
X135976081Y-78503325D01*
X136291831Y-78372537D01*
X136575998Y-78182663D01*
X136817663Y-77940998D01*
X137007537Y-77656831D01*
X137138325Y-77341081D01*
X137205000Y-77005883D01*
X137205000Y-76664117D01*
X137187369Y-76575475D01*
X138335000Y-76575475D01*
X138335000Y-77094525D01*
X138436261Y-77603601D01*
X138634893Y-78083141D01*
X138923262Y-78514715D01*
X139290285Y-78881738D01*
X139721859Y-79170107D01*
X140201399Y-79368739D01*
X140710475Y-79470000D01*
X141229525Y-79470000D01*
X141738601Y-79368739D01*
X142218141Y-79170107D01*
X142649715Y-78881738D01*
X143016738Y-78514715D01*
X143305107Y-78083141D01*
X143503739Y-77603601D01*
X143605000Y-77094525D01*
X143605000Y-76664117D01*
X144735000Y-76664117D01*
X144735000Y-77005883D01*
X144801675Y-77341081D01*
X144932463Y-77656831D01*
X145122337Y-77940998D01*
X145364002Y-78182663D01*
X145648169Y-78372537D01*
X145963919Y-78503325D01*
X146299117Y-78570000D01*
X146640883Y-78570000D01*
X146976081Y-78503325D01*
X147291831Y-78372537D01*
X147575998Y-78182663D01*
X147817663Y-77940998D01*
X148007537Y-77656831D01*
X148138325Y-77341081D01*
X148205000Y-77005883D01*
X148205000Y-76664117D01*
X154055000Y-76664117D01*
X154055000Y-77005883D01*
X154121675Y-77341081D01*
X154252463Y-77656831D01*
X154442337Y-77940998D01*
X154684002Y-78182663D01*
X154968169Y-78372537D01*
X155283919Y-78503325D01*
X155619117Y-78570000D01*
X155960883Y-78570000D01*
X156296081Y-78503325D01*
X156611831Y-78372537D01*
X156895998Y-78182663D01*
X157137663Y-77940998D01*
X157327537Y-77656831D01*
X157458325Y-77341081D01*
X157525000Y-77005883D01*
X157525000Y-76664117D01*
X157507369Y-76575475D01*
X158655000Y-76575475D01*
X158655000Y-77094525D01*
X158756261Y-77603601D01*
X158954893Y-78083141D01*
X159243262Y-78514715D01*
X159610285Y-78881738D01*
X160041859Y-79170107D01*
X160521399Y-79368739D01*
X161030475Y-79470000D01*
X161549525Y-79470000D01*
X162058601Y-79368739D01*
X162538141Y-79170107D01*
X162969715Y-78881738D01*
X163336738Y-78514715D01*
X163625107Y-78083141D01*
X163823739Y-77603601D01*
X163925000Y-77094525D01*
X163925000Y-76664117D01*
X165055000Y-76664117D01*
X165055000Y-77005883D01*
X165121675Y-77341081D01*
X165252463Y-77656831D01*
X165442337Y-77940998D01*
X165684002Y-78182663D01*
X165968169Y-78372537D01*
X166283919Y-78503325D01*
X166619117Y-78570000D01*
X166960883Y-78570000D01*
X167296081Y-78503325D01*
X167611831Y-78372537D01*
X167895998Y-78182663D01*
X168137663Y-77940998D01*
X168327537Y-77656831D01*
X168458325Y-77341081D01*
X168525000Y-77005883D01*
X168525000Y-76664117D01*
X174375000Y-76664117D01*
X174375000Y-77005883D01*
X174441675Y-77341081D01*
X174572463Y-77656831D01*
X174762337Y-77940998D01*
X175004002Y-78182663D01*
X175288169Y-78372537D01*
X175603919Y-78503325D01*
X175939117Y-78570000D01*
X176280883Y-78570000D01*
X176616081Y-78503325D01*
X176931831Y-78372537D01*
X177215998Y-78182663D01*
X177457663Y-77940998D01*
X177647537Y-77656831D01*
X177778325Y-77341081D01*
X177845000Y-77005883D01*
X177845000Y-76664117D01*
X177827369Y-76575475D01*
X178975000Y-76575475D01*
X178975000Y-77094525D01*
X179076261Y-77603601D01*
X179274893Y-78083141D01*
X179563262Y-78514715D01*
X179930285Y-78881738D01*
X180361859Y-79170107D01*
X180841399Y-79368739D01*
X181350475Y-79470000D01*
X181869525Y-79470000D01*
X182378601Y-79368739D01*
X182858141Y-79170107D01*
X183289715Y-78881738D01*
X183656738Y-78514715D01*
X183945107Y-78083141D01*
X184143739Y-77603601D01*
X184245000Y-77094525D01*
X184245000Y-76664117D01*
X185375000Y-76664117D01*
X185375000Y-77005883D01*
X185441675Y-77341081D01*
X185572463Y-77656831D01*
X185762337Y-77940998D01*
X186004002Y-78182663D01*
X186288169Y-78372537D01*
X186603919Y-78503325D01*
X186939117Y-78570000D01*
X187280883Y-78570000D01*
X187616081Y-78503325D01*
X187931831Y-78372537D01*
X188215998Y-78182663D01*
X188457663Y-77940998D01*
X188647537Y-77656831D01*
X188778325Y-77341081D01*
X188845000Y-77005883D01*
X188845000Y-76664117D01*
X188778325Y-76328919D01*
X188647537Y-76013169D01*
X188457663Y-75729002D01*
X188215998Y-75487337D01*
X187931831Y-75297463D01*
X187616081Y-75166675D01*
X187280883Y-75100000D01*
X186939117Y-75100000D01*
X186603919Y-75166675D01*
X186288169Y-75297463D01*
X186004002Y-75487337D01*
X185762337Y-75729002D01*
X185572463Y-76013169D01*
X185441675Y-76328919D01*
X185375000Y-76664117D01*
X184245000Y-76664117D01*
X184245000Y-76575475D01*
X184143739Y-76066399D01*
X183945107Y-75586859D01*
X183656738Y-75155285D01*
X183289715Y-74788262D01*
X182858141Y-74499893D01*
X182378601Y-74301261D01*
X181869525Y-74200000D01*
X181350475Y-74200000D01*
X180841399Y-74301261D01*
X180361859Y-74499893D01*
X179930285Y-74788262D01*
X179563262Y-75155285D01*
X179274893Y-75586859D01*
X179076261Y-76066399D01*
X178975000Y-76575475D01*
X177827369Y-76575475D01*
X177778325Y-76328919D01*
X177647537Y-76013169D01*
X177457663Y-75729002D01*
X177215998Y-75487337D01*
X176931831Y-75297463D01*
X176616081Y-75166675D01*
X176280883Y-75100000D01*
X175939117Y-75100000D01*
X175603919Y-75166675D01*
X175288169Y-75297463D01*
X175004002Y-75487337D01*
X174762337Y-75729002D01*
X174572463Y-76013169D01*
X174441675Y-76328919D01*
X174375000Y-76664117D01*
X168525000Y-76664117D01*
X168458325Y-76328919D01*
X168327537Y-76013169D01*
X168137663Y-75729002D01*
X167895998Y-75487337D01*
X167611831Y-75297463D01*
X167296081Y-75166675D01*
X166960883Y-75100000D01*
X166619117Y-75100000D01*
X166283919Y-75166675D01*
X165968169Y-75297463D01*
X165684002Y-75487337D01*
X165442337Y-75729002D01*
X165252463Y-76013169D01*
X165121675Y-76328919D01*
X165055000Y-76664117D01*
X163925000Y-76664117D01*
X163925000Y-76575475D01*
X163823739Y-76066399D01*
X163625107Y-75586859D01*
X163336738Y-75155285D01*
X162969715Y-74788262D01*
X162538141Y-74499893D01*
X162058601Y-74301261D01*
X161549525Y-74200000D01*
X161030475Y-74200000D01*
X160521399Y-74301261D01*
X160041859Y-74499893D01*
X159610285Y-74788262D01*
X159243262Y-75155285D01*
X158954893Y-75586859D01*
X158756261Y-76066399D01*
X158655000Y-76575475D01*
X157507369Y-76575475D01*
X157458325Y-76328919D01*
X157327537Y-76013169D01*
X157137663Y-75729002D01*
X156895998Y-75487337D01*
X156611831Y-75297463D01*
X156296081Y-75166675D01*
X155960883Y-75100000D01*
X155619117Y-75100000D01*
X155283919Y-75166675D01*
X154968169Y-75297463D01*
X154684002Y-75487337D01*
X154442337Y-75729002D01*
X154252463Y-76013169D01*
X154121675Y-76328919D01*
X154055000Y-76664117D01*
X148205000Y-76664117D01*
X148138325Y-76328919D01*
X148007537Y-76013169D01*
X147817663Y-75729002D01*
X147575998Y-75487337D01*
X147291831Y-75297463D01*
X146976081Y-75166675D01*
X146640883Y-75100000D01*
X146299117Y-75100000D01*
X145963919Y-75166675D01*
X145648169Y-75297463D01*
X145364002Y-75487337D01*
X145122337Y-75729002D01*
X144932463Y-76013169D01*
X144801675Y-76328919D01*
X144735000Y-76664117D01*
X143605000Y-76664117D01*
X143605000Y-76575475D01*
X143503739Y-76066399D01*
X143305107Y-75586859D01*
X143016738Y-75155285D01*
X142649715Y-74788262D01*
X142218141Y-74499893D01*
X141738601Y-74301261D01*
X141229525Y-74200000D01*
X140710475Y-74200000D01*
X140201399Y-74301261D01*
X139721859Y-74499893D01*
X139290285Y-74788262D01*
X138923262Y-75155285D01*
X138634893Y-75586859D01*
X138436261Y-76066399D01*
X138335000Y-76575475D01*
X137187369Y-76575475D01*
X137138325Y-76328919D01*
X137007537Y-76013169D01*
X136817663Y-75729002D01*
X136575998Y-75487337D01*
X136291831Y-75297463D01*
X135976081Y-75166675D01*
X135640883Y-75100000D01*
X135299117Y-75100000D01*
X134963919Y-75166675D01*
X134648169Y-75297463D01*
X134364002Y-75487337D01*
X134122337Y-75729002D01*
X133932463Y-76013169D01*
X133801675Y-76328919D01*
X133735000Y-76664117D01*
X132207000Y-76664117D01*
X132207000Y-72864117D01*
X144235000Y-72864117D01*
X144235000Y-73205883D01*
X144301675Y-73541081D01*
X144432463Y-73856831D01*
X144622337Y-74140998D01*
X144864002Y-74382663D01*
X145148169Y-74572537D01*
X145463919Y-74703325D01*
X145799117Y-74770000D01*
X146140883Y-74770000D01*
X146476081Y-74703325D01*
X146791831Y-74572537D01*
X147075998Y-74382663D01*
X147317663Y-74140998D01*
X147507537Y-73856831D01*
X147533148Y-73795000D01*
X164726852Y-73795000D01*
X164752463Y-73856831D01*
X164942337Y-74140998D01*
X165184002Y-74382663D01*
X165468169Y-74572537D01*
X165783919Y-74703325D01*
X166119117Y-74770000D01*
X166460883Y-74770000D01*
X166796081Y-74703325D01*
X167111831Y-74572537D01*
X167395998Y-74382663D01*
X167637663Y-74140998D01*
X167827537Y-73856831D01*
X167853148Y-73795000D01*
X185046852Y-73795000D01*
X185072463Y-73856831D01*
X185262337Y-74140998D01*
X185504002Y-74382663D01*
X185788169Y-74572537D01*
X186103919Y-74703325D01*
X186439117Y-74770000D01*
X186780883Y-74770000D01*
X187116081Y-74703325D01*
X187431831Y-74572537D01*
X187715998Y-74382663D01*
X187957663Y-74140998D01*
X188147537Y-73856831D01*
X188278325Y-73541081D01*
X188345000Y-73205883D01*
X188345000Y-72864117D01*
X188278325Y-72528919D01*
X188147537Y-72213169D01*
X187957663Y-71929002D01*
X187715998Y-71687337D01*
X187431831Y-71497463D01*
X187116081Y-71366675D01*
X186780883Y-71300000D01*
X186439117Y-71300000D01*
X186103919Y-71366675D01*
X185788169Y-71497463D01*
X185504002Y-71687337D01*
X185262337Y-71929002D01*
X185072463Y-72213169D01*
X185046852Y-72275000D01*
X182723661Y-72275000D01*
X182957663Y-72040998D01*
X183147537Y-71756831D01*
X183278325Y-71441081D01*
X183345000Y-71105883D01*
X183345000Y-70764117D01*
X183278325Y-70428919D01*
X183147537Y-70113169D01*
X182957663Y-69829002D01*
X182715998Y-69587337D01*
X182431831Y-69397463D01*
X182116081Y-69266675D01*
X181780883Y-69200000D01*
X181439117Y-69200000D01*
X181103919Y-69266675D01*
X180788169Y-69397463D01*
X180504002Y-69587337D01*
X180262337Y-69829002D01*
X180072463Y-70113169D01*
X179941675Y-70428919D01*
X179875000Y-70764117D01*
X179875000Y-71105883D01*
X179941675Y-71441081D01*
X180072463Y-71756831D01*
X180262337Y-72040998D01*
X180496339Y-72275000D01*
X167853148Y-72275000D01*
X167827537Y-72213169D01*
X167637663Y-71929002D01*
X167395998Y-71687337D01*
X167111831Y-71497463D01*
X166796081Y-71366675D01*
X166460883Y-71300000D01*
X166119117Y-71300000D01*
X165783919Y-71366675D01*
X165468169Y-71497463D01*
X165184002Y-71687337D01*
X164942337Y-71929002D01*
X164752463Y-72213169D01*
X164726852Y-72275000D01*
X162403661Y-72275000D01*
X162637663Y-72040998D01*
X162827537Y-71756831D01*
X162958325Y-71441081D01*
X163025000Y-71105883D01*
X163025000Y-70764117D01*
X162958325Y-70428919D01*
X162827537Y-70113169D01*
X162637663Y-69829002D01*
X162395998Y-69587337D01*
X162111831Y-69397463D01*
X161796081Y-69266675D01*
X161460883Y-69200000D01*
X161119117Y-69200000D01*
X160783919Y-69266675D01*
X160468169Y-69397463D01*
X160184002Y-69587337D01*
X159942337Y-69829002D01*
X159752463Y-70113169D01*
X159621675Y-70428919D01*
X159555000Y-70764117D01*
X159555000Y-71105883D01*
X159621675Y-71441081D01*
X159752463Y-71756831D01*
X159942337Y-72040998D01*
X160176339Y-72275000D01*
X147533148Y-72275000D01*
X147507537Y-72213169D01*
X147317663Y-71929002D01*
X147075998Y-71687337D01*
X146791831Y-71497463D01*
X146476081Y-71366675D01*
X146140883Y-71300000D01*
X145799117Y-71300000D01*
X145463919Y-71366675D01*
X145148169Y-71497463D01*
X144864002Y-71687337D01*
X144622337Y-71929002D01*
X144432463Y-72213169D01*
X144301675Y-72528919D01*
X144235000Y-72864117D01*
X132207000Y-72864117D01*
X132207000Y-70764117D01*
X139235000Y-70764117D01*
X139235000Y-71105883D01*
X139301675Y-71441081D01*
X139432463Y-71756831D01*
X139622337Y-72040998D01*
X139864002Y-72282663D01*
X140148169Y-72472537D01*
X140463919Y-72603325D01*
X140799117Y-72670000D01*
X141140883Y-72670000D01*
X141476081Y-72603325D01*
X141791831Y-72472537D01*
X142075998Y-72282663D01*
X142317663Y-72040998D01*
X142507537Y-71756831D01*
X142638325Y-71441081D01*
X142705000Y-71105883D01*
X142705000Y-70764117D01*
X142638325Y-70428919D01*
X142507537Y-70113169D01*
X142317663Y-69829002D01*
X142075998Y-69587337D01*
X141791831Y-69397463D01*
X141476081Y-69266675D01*
X141140883Y-69200000D01*
X140799117Y-69200000D01*
X140463919Y-69266675D01*
X140148169Y-69397463D01*
X139864002Y-69587337D01*
X139622337Y-69829002D01*
X139432463Y-70113169D01*
X139301675Y-70428919D01*
X139235000Y-70764117D01*
X132207000Y-70764117D01*
X132207000Y-66577408D01*
X147193000Y-66577408D01*
X147193000Y-66852592D01*
X147246686Y-67122490D01*
X147351995Y-67376727D01*
X147504880Y-67605535D01*
X147699465Y-67800120D01*
X147928273Y-67953005D01*
X148182510Y-68058314D01*
X148452408Y-68112000D01*
X148727592Y-68112000D01*
X148997490Y-68058314D01*
X149251727Y-67953005D01*
X149480535Y-67800120D01*
X149675120Y-67605535D01*
X149828005Y-67376727D01*
X149933314Y-67122490D01*
X149987000Y-66852592D01*
X149987000Y-66577408D01*
X152273000Y-66577408D01*
X152273000Y-66852592D01*
X152326686Y-67122490D01*
X152431995Y-67376727D01*
X152584880Y-67605535D01*
X152779465Y-67800120D01*
X153008273Y-67953005D01*
X153262510Y-68058314D01*
X153532408Y-68112000D01*
X153807592Y-68112000D01*
X154077490Y-68058314D01*
X154331727Y-67953005D01*
X154560535Y-67800120D01*
X154755120Y-67605535D01*
X154908005Y-67376727D01*
X155013314Y-67122490D01*
X155067000Y-66852592D01*
X155067000Y-66577408D01*
X155030324Y-66393021D01*
X156955000Y-66393021D01*
X156955000Y-66956978D01*
X156971785Y-67127399D01*
X157038115Y-67346059D01*
X157145829Y-67547578D01*
X157290788Y-67724212D01*
X157467421Y-67869171D01*
X157668940Y-67976885D01*
X157887600Y-68043215D01*
X158115000Y-68065612D01*
X158342399Y-68043215D01*
X158561059Y-67976885D01*
X158750000Y-67875894D01*
X158938940Y-67976885D01*
X159157600Y-68043215D01*
X159385000Y-68065612D01*
X159612399Y-68043215D01*
X159821098Y-67979907D01*
X159885820Y-68014502D01*
X160005518Y-68050812D01*
X160130000Y-68063072D01*
X160369250Y-68060000D01*
X160528000Y-67901250D01*
X160528000Y-67128109D01*
X160528215Y-67127400D01*
X160545000Y-66956979D01*
X160545000Y-66802000D01*
X160782000Y-66802000D01*
X160782000Y-67901250D01*
X160940750Y-68060000D01*
X161180000Y-68063072D01*
X161304482Y-68050812D01*
X161424180Y-68014502D01*
X161534494Y-67955537D01*
X161631185Y-67876185D01*
X161710537Y-67779494D01*
X161769502Y-67669180D01*
X161805812Y-67549482D01*
X161818072Y-67425000D01*
X161815000Y-66960750D01*
X161656250Y-66802000D01*
X160782000Y-66802000D01*
X160545000Y-66802000D01*
X160545000Y-66528000D01*
X160782000Y-66528000D01*
X160782000Y-66548000D01*
X161656250Y-66548000D01*
X161815000Y-66389250D01*
X161815196Y-66359700D01*
X163991089Y-66359700D01*
X164035026Y-66403637D01*
X164204544Y-66516905D01*
X164392902Y-66594926D01*
X164592861Y-66634700D01*
X164796739Y-66634700D01*
X164996698Y-66594926D01*
X165185056Y-66516905D01*
X165354574Y-66403637D01*
X165498737Y-66259474D01*
X165612005Y-66089956D01*
X165690026Y-65901598D01*
X165729800Y-65701639D01*
X165729800Y-65497761D01*
X165690026Y-65297802D01*
X165612005Y-65109444D01*
X165498737Y-64939926D01*
X165354574Y-64795763D01*
X165185056Y-64682495D01*
X164996698Y-64604474D01*
X164796739Y-64564700D01*
X164592861Y-64564700D01*
X164392902Y-64604474D01*
X164204544Y-64682495D01*
X164035026Y-64795763D01*
X163991089Y-64839700D01*
X158152333Y-64839700D01*
X158115000Y-64836023D01*
X158077667Y-64839700D01*
X157966014Y-64850697D01*
X157822753Y-64894154D01*
X157690724Y-64964726D01*
X157574999Y-65059699D01*
X157480026Y-65175424D01*
X157409454Y-65307453D01*
X157365997Y-65450714D01*
X157353851Y-65574034D01*
X157290789Y-65625788D01*
X157145830Y-65802421D01*
X157038115Y-66003940D01*
X156971785Y-66222600D01*
X156955000Y-66393021D01*
X155030324Y-66393021D01*
X155013314Y-66307510D01*
X154908005Y-66053273D01*
X154755120Y-65824465D01*
X154560535Y-65629880D01*
X154331727Y-65476995D01*
X154077490Y-65371686D01*
X153807592Y-65318000D01*
X153532408Y-65318000D01*
X153262510Y-65371686D01*
X153008273Y-65476995D01*
X152779465Y-65629880D01*
X152584880Y-65824465D01*
X152431995Y-66053273D01*
X152326686Y-66307510D01*
X152273000Y-66577408D01*
X149987000Y-66577408D01*
X149933314Y-66307510D01*
X149828005Y-66053273D01*
X149675120Y-65824465D01*
X149480535Y-65629880D01*
X149251727Y-65476995D01*
X148997490Y-65371686D01*
X148727592Y-65318000D01*
X148452408Y-65318000D01*
X148182510Y-65371686D01*
X147928273Y-65476995D01*
X147699465Y-65629880D01*
X147504880Y-65824465D01*
X147351995Y-66053273D01*
X147246686Y-66307510D01*
X147193000Y-66577408D01*
X132207000Y-66577408D01*
X132207000Y-56344117D01*
X133735000Y-56344117D01*
X133735000Y-56685883D01*
X133801675Y-57021081D01*
X133932463Y-57336831D01*
X134122337Y-57620998D01*
X134364002Y-57862663D01*
X134648169Y-58052537D01*
X134963919Y-58183325D01*
X135299117Y-58250000D01*
X135640883Y-58250000D01*
X135976081Y-58183325D01*
X136291831Y-58052537D01*
X136575998Y-57862663D01*
X136817663Y-57620998D01*
X137007537Y-57336831D01*
X137138325Y-57021081D01*
X137205000Y-56685883D01*
X137205000Y-56344117D01*
X137187369Y-56255475D01*
X138335000Y-56255475D01*
X138335000Y-56774525D01*
X138436261Y-57283601D01*
X138634893Y-57763141D01*
X138923262Y-58194715D01*
X139290285Y-58561738D01*
X139721859Y-58850107D01*
X140201399Y-59048739D01*
X140710475Y-59150000D01*
X141229525Y-59150000D01*
X141738601Y-59048739D01*
X142218141Y-58850107D01*
X142649715Y-58561738D01*
X143016738Y-58194715D01*
X143305107Y-57763141D01*
X143503739Y-57283601D01*
X143605000Y-56774525D01*
X143605000Y-56344117D01*
X144735000Y-56344117D01*
X144735000Y-56685883D01*
X144801675Y-57021081D01*
X144932463Y-57336831D01*
X145122337Y-57620998D01*
X145364002Y-57862663D01*
X145648169Y-58052537D01*
X145963919Y-58183325D01*
X146299117Y-58250000D01*
X146640883Y-58250000D01*
X146976081Y-58183325D01*
X147291831Y-58052537D01*
X147575998Y-57862663D01*
X147794996Y-57643665D01*
X149695000Y-57643665D01*
X149695000Y-57926335D01*
X149750147Y-58203574D01*
X149858320Y-58464727D01*
X150015363Y-58699759D01*
X150215241Y-58899637D01*
X150450273Y-59056680D01*
X150711426Y-59164853D01*
X150988665Y-59220000D01*
X151271335Y-59220000D01*
X151548574Y-59164853D01*
X151809727Y-59056680D01*
X152044759Y-58899637D01*
X152244637Y-58699759D01*
X152401680Y-58464727D01*
X152509853Y-58203574D01*
X152565000Y-57926335D01*
X152565000Y-57643665D01*
X152509853Y-57366426D01*
X152401680Y-57105273D01*
X152244637Y-56870241D01*
X152044759Y-56670363D01*
X151809727Y-56513320D01*
X151548574Y-56405147D01*
X151271335Y-56350000D01*
X150988665Y-56350000D01*
X150711426Y-56405147D01*
X150450273Y-56513320D01*
X150215241Y-56670363D01*
X150015363Y-56870241D01*
X149858320Y-57105273D01*
X149750147Y-57366426D01*
X149695000Y-57643665D01*
X147794996Y-57643665D01*
X147817663Y-57620998D01*
X148007537Y-57336831D01*
X148138325Y-57021081D01*
X148205000Y-56685883D01*
X148205000Y-56344117D01*
X154055000Y-56344117D01*
X154055000Y-56685883D01*
X154121675Y-57021081D01*
X154252463Y-57336831D01*
X154442337Y-57620998D01*
X154684002Y-57862663D01*
X154968169Y-58052537D01*
X155283919Y-58183325D01*
X155619117Y-58250000D01*
X155960883Y-58250000D01*
X156296081Y-58183325D01*
X156611831Y-58052537D01*
X156895998Y-57862663D01*
X157137663Y-57620998D01*
X157327537Y-57336831D01*
X157458325Y-57021081D01*
X157525000Y-56685883D01*
X157525000Y-56344117D01*
X157458325Y-56008919D01*
X157327537Y-55693169D01*
X157137663Y-55409002D01*
X156895998Y-55167337D01*
X156611831Y-54977463D01*
X156296081Y-54846675D01*
X155960883Y-54780000D01*
X155619117Y-54780000D01*
X155283919Y-54846675D01*
X154968169Y-54977463D01*
X154684002Y-55167337D01*
X154442337Y-55409002D01*
X154252463Y-55693169D01*
X154121675Y-56008919D01*
X154055000Y-56344117D01*
X148205000Y-56344117D01*
X148138325Y-56008919D01*
X148007537Y-55693169D01*
X147817663Y-55409002D01*
X147575998Y-55167337D01*
X147291831Y-54977463D01*
X146976081Y-54846675D01*
X146640883Y-54780000D01*
X146299117Y-54780000D01*
X145963919Y-54846675D01*
X145648169Y-54977463D01*
X145364002Y-55167337D01*
X145122337Y-55409002D01*
X144932463Y-55693169D01*
X144801675Y-56008919D01*
X144735000Y-56344117D01*
X143605000Y-56344117D01*
X143605000Y-56255475D01*
X143503739Y-55746399D01*
X143305107Y-55266859D01*
X143016738Y-54835285D01*
X142649715Y-54468262D01*
X142218141Y-54179893D01*
X141738601Y-53981261D01*
X141229525Y-53880000D01*
X140710475Y-53880000D01*
X140201399Y-53981261D01*
X139721859Y-54179893D01*
X139290285Y-54468262D01*
X138923262Y-54835285D01*
X138634893Y-55266859D01*
X138436261Y-55746399D01*
X138335000Y-56255475D01*
X137187369Y-56255475D01*
X137138325Y-56008919D01*
X137007537Y-55693169D01*
X136817663Y-55409002D01*
X136575998Y-55167337D01*
X136291831Y-54977463D01*
X135976081Y-54846675D01*
X135640883Y-54780000D01*
X135299117Y-54780000D01*
X134963919Y-54846675D01*
X134648169Y-54977463D01*
X134364002Y-55167337D01*
X134122337Y-55409002D01*
X133932463Y-55693169D01*
X133801675Y-56008919D01*
X133735000Y-56344117D01*
X132207000Y-56344117D01*
X132207000Y-45720000D01*
X132204560Y-45695224D01*
X132197333Y-45671399D01*
X132185597Y-45649443D01*
X132169803Y-45630197D01*
X132150557Y-45614403D01*
X132128601Y-45602667D01*
X132104776Y-45595440D01*
X132080000Y-45593000D01*
X127687606Y-45593000D01*
X126492000Y-44397394D01*
X126492000Y-28210000D01*
X126875928Y-28210000D01*
X126875928Y-30210000D01*
X126888188Y-30334482D01*
X126924498Y-30454180D01*
X126983463Y-30564494D01*
X127062815Y-30661185D01*
X127079001Y-30674468D01*
X127079000Y-32825532D01*
X127062815Y-32838815D01*
X126983463Y-32935506D01*
X126924498Y-33045820D01*
X126888188Y-33165518D01*
X126875928Y-33290000D01*
X126875928Y-35290000D01*
X126888188Y-35414482D01*
X126924498Y-35534180D01*
X126983463Y-35644494D01*
X127062815Y-35741185D01*
X127079001Y-35754468D01*
X127079000Y-36635532D01*
X127062815Y-36648815D01*
X126983463Y-36745506D01*
X126924498Y-36855820D01*
X126888188Y-36975518D01*
X126875928Y-37100000D01*
X126875928Y-39100000D01*
X126888188Y-39224482D01*
X126924498Y-39344180D01*
X126983463Y-39454494D01*
X127062815Y-39551185D01*
X127079001Y-39564468D01*
X127079000Y-41715532D01*
X127062815Y-41728815D01*
X126983463Y-41825506D01*
X126924498Y-41935820D01*
X126888188Y-42055518D01*
X126875928Y-42180000D01*
X126875928Y-44180000D01*
X126888188Y-44304482D01*
X126924498Y-44424180D01*
X126983463Y-44534494D01*
X127062815Y-44631185D01*
X127078933Y-44644413D01*
X127090720Y-44764088D01*
X127137037Y-44916773D01*
X127212251Y-45057489D01*
X127313472Y-45180828D01*
X127436811Y-45282049D01*
X127577527Y-45357263D01*
X127730212Y-45403580D01*
X127849209Y-45415300D01*
X127889000Y-45419219D01*
X127928791Y-45415300D01*
X139339188Y-45415300D01*
X139426500Y-45502612D01*
X139451872Y-45533528D01*
X139575211Y-45634749D01*
X139715927Y-45709963D01*
X139868612Y-45756280D01*
X139987609Y-45768000D01*
X139987611Y-45768000D01*
X140027399Y-45771919D01*
X140067187Y-45768000D01*
X147063982Y-45768000D01*
X147138815Y-45859185D01*
X147235506Y-45938537D01*
X147345820Y-45997502D01*
X147465518Y-46033812D01*
X147590000Y-46046072D01*
X149590000Y-46046072D01*
X149714482Y-46033812D01*
X149834180Y-45997502D01*
X149883127Y-45971339D01*
X150289705Y-46377918D01*
X150315072Y-46408828D01*
X150374277Y-46457416D01*
X150438410Y-46510049D01*
X150466704Y-46525172D01*
X150537490Y-46563008D01*
X149864040Y-47236459D01*
X149834180Y-47220498D01*
X149714482Y-47184188D01*
X149590000Y-47171928D01*
X147590000Y-47171928D01*
X147465518Y-47184188D01*
X147345820Y-47220498D01*
X147235506Y-47279463D01*
X147138815Y-47358815D01*
X147059463Y-47455506D01*
X147000498Y-47565820D01*
X146964188Y-47685518D01*
X146951928Y-47810000D01*
X146951928Y-48275400D01*
X142586925Y-48275400D01*
X142549600Y-48271724D01*
X142512275Y-48275400D01*
X142512267Y-48275400D01*
X142400614Y-48286397D01*
X142257353Y-48329854D01*
X142125324Y-48400426D01*
X142009599Y-48495399D01*
X141985801Y-48524397D01*
X141537912Y-48972286D01*
X141476081Y-48946675D01*
X141140883Y-48880000D01*
X140799117Y-48880000D01*
X140463919Y-48946675D01*
X140148169Y-49077463D01*
X139864002Y-49267337D01*
X139622337Y-49509002D01*
X139432463Y-49793169D01*
X139301675Y-50108919D01*
X139235000Y-50444117D01*
X139235000Y-50785883D01*
X139301675Y-51121081D01*
X139432463Y-51436831D01*
X139622337Y-51720998D01*
X139864002Y-51962663D01*
X140148169Y-52152537D01*
X140463919Y-52283325D01*
X140799117Y-52350000D01*
X141140883Y-52350000D01*
X141476081Y-52283325D01*
X141791831Y-52152537D01*
X142075998Y-51962663D01*
X142317663Y-51720998D01*
X142507537Y-51436831D01*
X142638325Y-51121081D01*
X142705000Y-50785883D01*
X142705000Y-50444117D01*
X142638325Y-50108919D01*
X142612714Y-50047088D01*
X142864402Y-49795400D01*
X159751539Y-49795400D01*
X159621675Y-50108919D01*
X159555000Y-50444117D01*
X159555000Y-50785883D01*
X159621675Y-51121081D01*
X159752463Y-51436831D01*
X159942337Y-51720998D01*
X160184002Y-51962663D01*
X160468169Y-52152537D01*
X160783919Y-52283325D01*
X161119117Y-52350000D01*
X161460883Y-52350000D01*
X161796081Y-52283325D01*
X162111831Y-52152537D01*
X162395998Y-51962663D01*
X162637663Y-51720998D01*
X162827537Y-51436831D01*
X162958325Y-51121081D01*
X163025000Y-50785883D01*
X163025000Y-50444117D01*
X162958325Y-50108919D01*
X162828461Y-49795400D01*
X166659589Y-49795400D01*
X166703526Y-49839337D01*
X166873044Y-49952605D01*
X167061402Y-50030626D01*
X167261361Y-50070400D01*
X167465239Y-50070400D01*
X167665198Y-50030626D01*
X167853556Y-49952605D01*
X168023074Y-49839337D01*
X168167237Y-49695174D01*
X168280505Y-49525656D01*
X168354063Y-49348072D01*
X169910000Y-49348072D01*
X170034482Y-49335812D01*
X170154180Y-49299502D01*
X170184040Y-49283541D01*
X172212101Y-51311603D01*
X172235899Y-51340601D01*
X172264897Y-51364399D01*
X172351623Y-51435574D01*
X172483653Y-51506146D01*
X172626914Y-51549603D01*
X172738567Y-51560600D01*
X172738577Y-51560600D01*
X172775900Y-51564276D01*
X172813223Y-51560600D01*
X176766889Y-51560600D01*
X176810826Y-51604537D01*
X176980344Y-51717805D01*
X177168702Y-51795826D01*
X177368661Y-51835600D01*
X177572539Y-51835600D01*
X177772498Y-51795826D01*
X177960856Y-51717805D01*
X178130374Y-51604537D01*
X178274537Y-51460374D01*
X178387805Y-51290856D01*
X178465826Y-51102498D01*
X178505600Y-50902539D01*
X178505600Y-50795300D01*
X179876873Y-50795300D01*
X179941675Y-51121081D01*
X180072463Y-51436831D01*
X180262337Y-51720998D01*
X180496339Y-51955000D01*
X167853148Y-51955000D01*
X167827537Y-51893169D01*
X167637663Y-51609002D01*
X167395998Y-51367337D01*
X167111831Y-51177463D01*
X166796081Y-51046675D01*
X166460883Y-50980000D01*
X166119117Y-50980000D01*
X165783919Y-51046675D01*
X165468169Y-51177463D01*
X165184002Y-51367337D01*
X164942337Y-51609002D01*
X164752463Y-51893169D01*
X164621675Y-52208919D01*
X164555000Y-52544117D01*
X164555000Y-52885883D01*
X164591703Y-53070400D01*
X152568072Y-53070400D01*
X152568072Y-51905000D01*
X152555812Y-51780518D01*
X152519502Y-51660820D01*
X152460537Y-51550506D01*
X152381185Y-51453815D01*
X152284494Y-51374463D01*
X152174180Y-51315498D01*
X152054482Y-51279188D01*
X151930000Y-51266928D01*
X150330000Y-51266928D01*
X150205518Y-51279188D01*
X150085820Y-51315498D01*
X149975506Y-51374463D01*
X149878815Y-51453815D01*
X149799463Y-51550506D01*
X149740498Y-51660820D01*
X149704188Y-51780518D01*
X149691928Y-51905000D01*
X149691928Y-53070400D01*
X147668297Y-53070400D01*
X147705000Y-52885883D01*
X147705000Y-52544117D01*
X147638325Y-52208919D01*
X147507537Y-51893169D01*
X147317663Y-51609002D01*
X147075998Y-51367337D01*
X146791831Y-51177463D01*
X146476081Y-51046675D01*
X146140883Y-50980000D01*
X145799117Y-50980000D01*
X145463919Y-51046675D01*
X145148169Y-51177463D01*
X144864002Y-51367337D01*
X144622337Y-51609002D01*
X144432463Y-51893169D01*
X144301675Y-52208919D01*
X144235000Y-52544117D01*
X144235000Y-52885883D01*
X144301675Y-53221081D01*
X144432463Y-53536831D01*
X144622337Y-53820998D01*
X144864002Y-54062663D01*
X145148169Y-54252537D01*
X145463919Y-54383325D01*
X145799117Y-54450000D01*
X146140883Y-54450000D01*
X146476081Y-54383325D01*
X146535729Y-54358618D01*
X146545399Y-54370401D01*
X146661124Y-54465374D01*
X146793153Y-54535946D01*
X146936414Y-54579403D01*
X147048067Y-54590400D01*
X147048077Y-54590400D01*
X147085400Y-54594076D01*
X147122723Y-54590400D01*
X159488147Y-54590400D01*
X159243262Y-54835285D01*
X158954893Y-55266859D01*
X158756261Y-55746399D01*
X158655000Y-56255475D01*
X158655000Y-56774525D01*
X158756261Y-57283601D01*
X158954893Y-57763141D01*
X159243262Y-58194715D01*
X159610285Y-58561738D01*
X160041859Y-58850107D01*
X160521399Y-59048739D01*
X161030475Y-59150000D01*
X161549525Y-59150000D01*
X162058601Y-59048739D01*
X162538141Y-58850107D01*
X162969715Y-58561738D01*
X163336738Y-58194715D01*
X163625107Y-57763141D01*
X163823739Y-57283601D01*
X163925000Y-56774525D01*
X163925000Y-56344117D01*
X165055000Y-56344117D01*
X165055000Y-56685883D01*
X165121675Y-57021081D01*
X165252463Y-57336831D01*
X165442337Y-57620998D01*
X165684002Y-57862663D01*
X165968169Y-58052537D01*
X166283919Y-58183325D01*
X166619117Y-58250000D01*
X166960883Y-58250000D01*
X167296081Y-58183325D01*
X167611831Y-58052537D01*
X167895998Y-57862663D01*
X168137663Y-57620998D01*
X168327537Y-57336831D01*
X168458325Y-57021081D01*
X168525000Y-56685883D01*
X168525000Y-56344117D01*
X174375000Y-56344117D01*
X174375000Y-56685883D01*
X174441675Y-57021081D01*
X174572463Y-57336831D01*
X174762337Y-57620998D01*
X175004002Y-57862663D01*
X175288169Y-58052537D01*
X175603919Y-58183325D01*
X175939117Y-58250000D01*
X176280883Y-58250000D01*
X176616081Y-58183325D01*
X176931831Y-58052537D01*
X177215998Y-57862663D01*
X177457663Y-57620998D01*
X177647537Y-57336831D01*
X177778325Y-57021081D01*
X177845000Y-56685883D01*
X177845000Y-56344117D01*
X177827369Y-56255475D01*
X178975000Y-56255475D01*
X178975000Y-56774525D01*
X179076261Y-57283601D01*
X179274893Y-57763141D01*
X179563262Y-58194715D01*
X179930285Y-58561738D01*
X180361859Y-58850107D01*
X180841399Y-59048739D01*
X181350475Y-59150000D01*
X181869525Y-59150000D01*
X182378601Y-59048739D01*
X182858141Y-58850107D01*
X183289715Y-58561738D01*
X183656738Y-58194715D01*
X183945107Y-57763141D01*
X184143739Y-57283601D01*
X184245000Y-56774525D01*
X184245000Y-56344117D01*
X185375000Y-56344117D01*
X185375000Y-56685883D01*
X185441675Y-57021081D01*
X185572463Y-57336831D01*
X185762337Y-57620998D01*
X186004002Y-57862663D01*
X186288169Y-58052537D01*
X186603919Y-58183325D01*
X186939117Y-58250000D01*
X187280883Y-58250000D01*
X187616081Y-58183325D01*
X187931831Y-58052537D01*
X188215998Y-57862663D01*
X188457663Y-57620998D01*
X188647537Y-57336831D01*
X188778325Y-57021081D01*
X188845000Y-56685883D01*
X188845000Y-56344117D01*
X188778325Y-56008919D01*
X188647537Y-55693169D01*
X188457663Y-55409002D01*
X188215998Y-55167337D01*
X187931831Y-54977463D01*
X187616081Y-54846675D01*
X187280883Y-54780000D01*
X186939117Y-54780000D01*
X186603919Y-54846675D01*
X186288169Y-54977463D01*
X186004002Y-55167337D01*
X185762337Y-55409002D01*
X185572463Y-55693169D01*
X185441675Y-56008919D01*
X185375000Y-56344117D01*
X184245000Y-56344117D01*
X184245000Y-56255475D01*
X184143739Y-55746399D01*
X183945107Y-55266859D01*
X183656738Y-54835285D01*
X183289715Y-54468262D01*
X182858141Y-54179893D01*
X182378601Y-53981261D01*
X181869525Y-53880000D01*
X181350475Y-53880000D01*
X180841399Y-53981261D01*
X180361859Y-54179893D01*
X179930285Y-54468262D01*
X179563262Y-54835285D01*
X179274893Y-55266859D01*
X179076261Y-55746399D01*
X178975000Y-56255475D01*
X177827369Y-56255475D01*
X177778325Y-56008919D01*
X177647537Y-55693169D01*
X177457663Y-55409002D01*
X177215998Y-55167337D01*
X176931831Y-54977463D01*
X176616081Y-54846675D01*
X176280883Y-54780000D01*
X175939117Y-54780000D01*
X175603919Y-54846675D01*
X175288169Y-54977463D01*
X175004002Y-55167337D01*
X174762337Y-55409002D01*
X174572463Y-55693169D01*
X174441675Y-56008919D01*
X174375000Y-56344117D01*
X168525000Y-56344117D01*
X168458325Y-56008919D01*
X168327537Y-55693169D01*
X168137663Y-55409002D01*
X167895998Y-55167337D01*
X167611831Y-54977463D01*
X167296081Y-54846675D01*
X166960883Y-54780000D01*
X166619117Y-54780000D01*
X166283919Y-54846675D01*
X165968169Y-54977463D01*
X165684002Y-55167337D01*
X165442337Y-55409002D01*
X165252463Y-55693169D01*
X165121675Y-56008919D01*
X165055000Y-56344117D01*
X163925000Y-56344117D01*
X163925000Y-56255475D01*
X163823739Y-55746399D01*
X163625107Y-55266859D01*
X163336738Y-54835285D01*
X163091853Y-54590400D01*
X165137278Y-54590400D01*
X165174600Y-54594076D01*
X165211922Y-54590400D01*
X165211933Y-54590400D01*
X165323586Y-54579403D01*
X165466847Y-54535946D01*
X165598876Y-54465374D01*
X165714601Y-54370401D01*
X165724271Y-54358618D01*
X165783919Y-54383325D01*
X166119117Y-54450000D01*
X166460883Y-54450000D01*
X166796081Y-54383325D01*
X167111831Y-54252537D01*
X167395998Y-54062663D01*
X167637663Y-53820998D01*
X167827537Y-53536831D01*
X167853148Y-53475000D01*
X185046852Y-53475000D01*
X185072463Y-53536831D01*
X185262337Y-53820998D01*
X185504002Y-54062663D01*
X185788169Y-54252537D01*
X186103919Y-54383325D01*
X186439117Y-54450000D01*
X186780883Y-54450000D01*
X187116081Y-54383325D01*
X187431831Y-54252537D01*
X187715998Y-54062663D01*
X187957663Y-53820998D01*
X188147537Y-53536831D01*
X188278325Y-53221081D01*
X188345000Y-52885883D01*
X188345000Y-52544117D01*
X188278325Y-52208919D01*
X188147537Y-51893169D01*
X187957663Y-51609002D01*
X187715998Y-51367337D01*
X187431831Y-51177463D01*
X187116081Y-51046675D01*
X186780883Y-50980000D01*
X186439117Y-50980000D01*
X186103919Y-51046675D01*
X185788169Y-51177463D01*
X185504002Y-51367337D01*
X185262337Y-51609002D01*
X185072463Y-51893169D01*
X185046852Y-51955000D01*
X182723661Y-51955000D01*
X182957663Y-51720998D01*
X183147537Y-51436831D01*
X183278325Y-51121081D01*
X183345000Y-50785883D01*
X183345000Y-50444117D01*
X183278325Y-50108919D01*
X183147537Y-49793169D01*
X182957663Y-49509002D01*
X182715998Y-49267337D01*
X182431831Y-49077463D01*
X182116081Y-48946675D01*
X181780883Y-48880000D01*
X181439117Y-48880000D01*
X181103919Y-48946675D01*
X180788169Y-49077463D01*
X180504002Y-49267337D01*
X180496039Y-49275300D01*
X175279458Y-49275300D01*
X175344494Y-49240537D01*
X175441185Y-49161185D01*
X175520537Y-49064494D01*
X175579502Y-48954180D01*
X175615812Y-48834482D01*
X175628072Y-48710000D01*
X175625000Y-48545750D01*
X175466250Y-48387000D01*
X174117000Y-48387000D01*
X174117000Y-48407000D01*
X173863000Y-48407000D01*
X173863000Y-48387000D01*
X172513750Y-48387000D01*
X172355000Y-48545750D01*
X172351928Y-48710000D01*
X172364188Y-48834482D01*
X172400498Y-48954180D01*
X172459463Y-49064494D01*
X172538815Y-49161185D01*
X172635506Y-49240537D01*
X172745820Y-49299502D01*
X172865518Y-49335812D01*
X172962159Y-49345330D01*
X172931963Y-49375526D01*
X172818695Y-49545044D01*
X172753219Y-49703117D01*
X170799104Y-47749003D01*
X170775301Y-47719999D01*
X170659576Y-47625026D01*
X170527547Y-47554454D01*
X170486824Y-47542101D01*
X170440537Y-47455506D01*
X170439137Y-47453800D01*
X170891578Y-47453800D01*
X170928900Y-47457476D01*
X170966222Y-47453800D01*
X170966233Y-47453800D01*
X171077886Y-47442803D01*
X171221147Y-47399346D01*
X171353176Y-47328774D01*
X171468901Y-47233801D01*
X171492704Y-47204797D01*
X172177700Y-46519801D01*
X172177700Y-46605039D01*
X172217474Y-46804998D01*
X172295495Y-46993356D01*
X172408763Y-47162874D01*
X172552926Y-47307037D01*
X172579925Y-47325077D01*
X172538815Y-47358815D01*
X172459463Y-47455506D01*
X172400498Y-47565820D01*
X172364188Y-47685518D01*
X172351928Y-47810000D01*
X172355000Y-47974250D01*
X172513750Y-48133000D01*
X173863000Y-48133000D01*
X173863000Y-48113000D01*
X174117000Y-48113000D01*
X174117000Y-48133000D01*
X175466250Y-48133000D01*
X175625000Y-47974250D01*
X175628072Y-47810000D01*
X175615812Y-47685518D01*
X175579502Y-47565820D01*
X175520537Y-47455506D01*
X175441185Y-47358815D01*
X175344494Y-47279463D01*
X175313881Y-47263100D01*
X178852878Y-47263100D01*
X178890200Y-47266776D01*
X178927522Y-47263100D01*
X178927533Y-47263100D01*
X179039186Y-47252103D01*
X179182447Y-47208646D01*
X179314476Y-47138074D01*
X179430201Y-47043101D01*
X179454004Y-47014097D01*
X189520704Y-36947398D01*
X189549701Y-36923601D01*
X189576032Y-36891517D01*
X189644674Y-36807877D01*
X189715246Y-36675847D01*
X189723446Y-36648815D01*
X189758703Y-36532586D01*
X189769700Y-36420933D01*
X189769700Y-36420924D01*
X189773376Y-36383601D01*
X189769700Y-36346278D01*
X189769700Y-34022333D01*
X189773377Y-33985000D01*
X189758703Y-33836014D01*
X189715246Y-33692753D01*
X189644674Y-33560724D01*
X189573499Y-33473997D01*
X189549701Y-33444999D01*
X189520703Y-33421201D01*
X188345000Y-32245499D01*
X188345000Y-32224117D01*
X188278325Y-31888919D01*
X188147537Y-31573169D01*
X187957663Y-31289002D01*
X187715998Y-31047337D01*
X187431831Y-30857463D01*
X187116081Y-30726675D01*
X186780883Y-30660000D01*
X186439117Y-30660000D01*
X186103919Y-30726675D01*
X185788169Y-30857463D01*
X185504002Y-31047337D01*
X185262337Y-31289002D01*
X185076518Y-31567100D01*
X182791561Y-31567100D01*
X182957663Y-31400998D01*
X183147537Y-31116831D01*
X183278325Y-30801081D01*
X183345000Y-30465883D01*
X183345000Y-30124117D01*
X183278325Y-29788919D01*
X183147537Y-29473169D01*
X182957663Y-29189002D01*
X182715998Y-28947337D01*
X182431831Y-28757463D01*
X182116081Y-28626675D01*
X181780883Y-28560000D01*
X181439117Y-28560000D01*
X181103919Y-28626675D01*
X180788169Y-28757463D01*
X180504002Y-28947337D01*
X180262337Y-29189002D01*
X180072463Y-29473169D01*
X179941675Y-29788919D01*
X179875000Y-30124117D01*
X179875000Y-30465883D01*
X179941675Y-30801081D01*
X180072463Y-31116831D01*
X180262337Y-31400998D01*
X180428439Y-31567100D01*
X167823482Y-31567100D01*
X167637663Y-31289002D01*
X167395998Y-31047337D01*
X167111831Y-30857463D01*
X166796081Y-30726675D01*
X166460883Y-30660000D01*
X166119117Y-30660000D01*
X165783919Y-30726675D01*
X165468169Y-30857463D01*
X165184002Y-31047337D01*
X164942337Y-31289002D01*
X164752463Y-31573169D01*
X164726852Y-31635000D01*
X162403661Y-31635000D01*
X162637663Y-31400998D01*
X162827537Y-31116831D01*
X162958325Y-30801081D01*
X163025000Y-30465883D01*
X163025000Y-30124117D01*
X162958325Y-29788919D01*
X162827537Y-29473169D01*
X162637663Y-29189002D01*
X162395998Y-28947337D01*
X162111831Y-28757463D01*
X161796081Y-28626675D01*
X161460883Y-28560000D01*
X161119117Y-28560000D01*
X160783919Y-28626675D01*
X160468169Y-28757463D01*
X160184002Y-28947337D01*
X159942337Y-29189002D01*
X159752463Y-29473169D01*
X159621675Y-29788919D01*
X159555000Y-30124117D01*
X159555000Y-30465883D01*
X159621675Y-30801081D01*
X159752463Y-31116831D01*
X159942337Y-31400998D01*
X160176339Y-31635000D01*
X147533148Y-31635000D01*
X147507537Y-31573169D01*
X147317663Y-31289002D01*
X147075998Y-31047337D01*
X146791831Y-30857463D01*
X146476081Y-30726675D01*
X146140883Y-30660000D01*
X145799117Y-30660000D01*
X145463919Y-30726675D01*
X145148169Y-30857463D01*
X144864002Y-31047337D01*
X144622337Y-31289002D01*
X144432463Y-31573169D01*
X144301675Y-31888919D01*
X144235000Y-32224117D01*
X144235000Y-32565883D01*
X144301675Y-32901081D01*
X144388046Y-33109600D01*
X132095002Y-33109600D01*
X131439103Y-32453702D01*
X131415301Y-32424699D01*
X131299576Y-32329726D01*
X131167547Y-32259154D01*
X131093661Y-32236741D01*
X131170226Y-32051898D01*
X131210000Y-31851939D01*
X131210000Y-31648061D01*
X131170226Y-31448102D01*
X131092205Y-31259744D01*
X130978937Y-31090226D01*
X130935000Y-31046289D01*
X130935000Y-30715501D01*
X131001185Y-30661185D01*
X131080537Y-30564494D01*
X131139502Y-30454180D01*
X131175812Y-30334482D01*
X131188072Y-30210000D01*
X131188072Y-30124117D01*
X139235000Y-30124117D01*
X139235000Y-30465883D01*
X139301675Y-30801081D01*
X139432463Y-31116831D01*
X139622337Y-31400998D01*
X139864002Y-31642663D01*
X140148169Y-31832537D01*
X140463919Y-31963325D01*
X140799117Y-32030000D01*
X141140883Y-32030000D01*
X141476081Y-31963325D01*
X141791831Y-31832537D01*
X142075998Y-31642663D01*
X142317663Y-31400998D01*
X142507537Y-31116831D01*
X142638325Y-30801081D01*
X142705000Y-30465883D01*
X142705000Y-30124117D01*
X142638325Y-29788919D01*
X142507537Y-29473169D01*
X142317663Y-29189002D01*
X142075998Y-28947337D01*
X141791831Y-28757463D01*
X141476081Y-28626675D01*
X141140883Y-28560000D01*
X140799117Y-28560000D01*
X140463919Y-28626675D01*
X140148169Y-28757463D01*
X139864002Y-28947337D01*
X139622337Y-29189002D01*
X139432463Y-29473169D01*
X139301675Y-29788919D01*
X139235000Y-30124117D01*
X131188072Y-30124117D01*
X131188072Y-28210000D01*
X131175812Y-28085518D01*
X131139502Y-27965820D01*
X131080537Y-27855506D01*
X131001185Y-27758815D01*
X130904494Y-27679463D01*
X130794180Y-27620498D01*
X130674482Y-27584188D01*
X130550000Y-27571928D01*
X129800000Y-27571928D01*
X129675518Y-27584188D01*
X129555820Y-27620498D01*
X129445506Y-27679463D01*
X129348815Y-27758815D01*
X129269463Y-27855506D01*
X129210498Y-27965820D01*
X129174188Y-28085518D01*
X129161928Y-28210000D01*
X129161928Y-30210000D01*
X129174188Y-30334482D01*
X129210498Y-30454180D01*
X129269463Y-30564494D01*
X129348815Y-30661185D01*
X129415000Y-30715502D01*
X129415000Y-31046289D01*
X129371063Y-31090226D01*
X129257795Y-31259744D01*
X129179774Y-31448102D01*
X129140000Y-31648061D01*
X129140000Y-31851939D01*
X129179774Y-32051898D01*
X129257795Y-32240256D01*
X129371063Y-32409774D01*
X129415000Y-32453711D01*
X129415000Y-32784498D01*
X129348815Y-32838815D01*
X129269463Y-32935506D01*
X129210498Y-33045820D01*
X129174188Y-33165518D01*
X129161928Y-33290000D01*
X129161928Y-35290000D01*
X129174188Y-35414482D01*
X129210498Y-35534180D01*
X129269463Y-35644494D01*
X129348815Y-35741185D01*
X129445506Y-35820537D01*
X129555820Y-35879502D01*
X129675518Y-35915812D01*
X129800000Y-35928072D01*
X130550000Y-35928072D01*
X130674482Y-35915812D01*
X130794180Y-35879502D01*
X130904494Y-35820537D01*
X131001185Y-35741185D01*
X131080537Y-35644494D01*
X131139502Y-35534180D01*
X131175812Y-35414482D01*
X131188072Y-35290000D01*
X131188072Y-34352274D01*
X131216400Y-34380602D01*
X131240199Y-34409601D01*
X131355924Y-34504574D01*
X131487953Y-34575146D01*
X131631214Y-34618603D01*
X131742867Y-34629600D01*
X131742877Y-34629600D01*
X131780200Y-34633276D01*
X131817523Y-34629600D01*
X134715436Y-34629600D01*
X134648169Y-34657463D01*
X134364002Y-34847337D01*
X134122337Y-35089002D01*
X133932463Y-35373169D01*
X133801675Y-35688919D01*
X133735000Y-36024117D01*
X133735000Y-36365883D01*
X133801675Y-36701081D01*
X133932463Y-37016831D01*
X134122337Y-37300998D01*
X134364002Y-37542663D01*
X134648169Y-37732537D01*
X134963919Y-37863325D01*
X135299117Y-37930000D01*
X135640883Y-37930000D01*
X135976081Y-37863325D01*
X136291831Y-37732537D01*
X136575998Y-37542663D01*
X136817663Y-37300998D01*
X137007537Y-37016831D01*
X137138325Y-36701081D01*
X137205000Y-36365883D01*
X137205000Y-36024117D01*
X137138325Y-35688919D01*
X137007537Y-35373169D01*
X136817663Y-35089002D01*
X136575998Y-34847337D01*
X136291831Y-34657463D01*
X136224564Y-34629600D01*
X138846879Y-34629600D01*
X138634893Y-34946859D01*
X138436261Y-35426399D01*
X138335000Y-35935475D01*
X138335000Y-36454525D01*
X138436261Y-36963601D01*
X138634893Y-37443141D01*
X138923262Y-37874715D01*
X139290285Y-38241738D01*
X139721859Y-38530107D01*
X140201399Y-38728739D01*
X140710475Y-38830000D01*
X141229525Y-38830000D01*
X141738601Y-38728739D01*
X142218141Y-38530107D01*
X142649715Y-38241738D01*
X143016738Y-37874715D01*
X143305107Y-37443141D01*
X143503739Y-36963601D01*
X143605000Y-36454525D01*
X143605000Y-35935475D01*
X143503739Y-35426399D01*
X143305107Y-34946859D01*
X143093121Y-34629600D01*
X145715436Y-34629600D01*
X145648169Y-34657463D01*
X145364002Y-34847337D01*
X145122337Y-35089002D01*
X144932463Y-35373169D01*
X144801675Y-35688919D01*
X144735000Y-36024117D01*
X144735000Y-36365883D01*
X144801675Y-36701081D01*
X144932463Y-37016831D01*
X145122337Y-37300998D01*
X145364002Y-37542663D01*
X145648169Y-37732537D01*
X145963919Y-37863325D01*
X146299117Y-37930000D01*
X146640883Y-37930000D01*
X146976081Y-37863325D01*
X147291831Y-37732537D01*
X147575998Y-37542663D01*
X147817663Y-37300998D01*
X148007537Y-37016831D01*
X148138325Y-36701081D01*
X148205000Y-36365883D01*
X148205000Y-36024117D01*
X148138325Y-35688919D01*
X148007537Y-35373169D01*
X147817663Y-35089002D01*
X147575998Y-34847337D01*
X147291831Y-34657463D01*
X147224564Y-34629600D01*
X155035436Y-34629600D01*
X154968169Y-34657463D01*
X154684002Y-34847337D01*
X154442337Y-35089002D01*
X154252463Y-35373169D01*
X154121675Y-35688919D01*
X154055000Y-36024117D01*
X154055000Y-36365883D01*
X154121675Y-36701081D01*
X154252463Y-37016831D01*
X154442337Y-37300998D01*
X154684002Y-37542663D01*
X154968169Y-37732537D01*
X155283919Y-37863325D01*
X155619117Y-37930000D01*
X155960883Y-37930000D01*
X156296081Y-37863325D01*
X156611831Y-37732537D01*
X156895998Y-37542663D01*
X157137663Y-37300998D01*
X157327537Y-37016831D01*
X157458325Y-36701081D01*
X157525000Y-36365883D01*
X157525000Y-36024117D01*
X157458325Y-35688919D01*
X157327537Y-35373169D01*
X157137663Y-35089002D01*
X156895998Y-34847337D01*
X156611831Y-34657463D01*
X156544564Y-34629600D01*
X159166879Y-34629600D01*
X158954893Y-34946859D01*
X158756261Y-35426399D01*
X158655000Y-35935475D01*
X158655000Y-36454525D01*
X158756261Y-36963601D01*
X158954893Y-37443141D01*
X159243262Y-37874715D01*
X159610285Y-38241738D01*
X160041859Y-38530107D01*
X160521399Y-38728739D01*
X161030475Y-38830000D01*
X161549525Y-38830000D01*
X162058601Y-38728739D01*
X162538141Y-38530107D01*
X162969715Y-38241738D01*
X163336738Y-37874715D01*
X163625107Y-37443141D01*
X163823739Y-36963601D01*
X163925000Y-36454525D01*
X163925000Y-35935475D01*
X163823739Y-35426399D01*
X163625107Y-34946859D01*
X163413121Y-34629600D01*
X166035436Y-34629600D01*
X165968169Y-34657463D01*
X165684002Y-34847337D01*
X165442337Y-35089002D01*
X165252463Y-35373169D01*
X165121675Y-35688919D01*
X165055000Y-36024117D01*
X165055000Y-36365883D01*
X165121675Y-36701081D01*
X165252463Y-37016831D01*
X165442337Y-37300998D01*
X165684002Y-37542663D01*
X165968169Y-37732537D01*
X166283919Y-37863325D01*
X166619117Y-37930000D01*
X166960883Y-37930000D01*
X167296081Y-37863325D01*
X167611831Y-37732537D01*
X167895998Y-37542663D01*
X168137663Y-37300998D01*
X168327537Y-37016831D01*
X168458325Y-36701081D01*
X168525000Y-36365883D01*
X168525000Y-36024117D01*
X168458325Y-35688919D01*
X168327537Y-35373169D01*
X168137663Y-35089002D01*
X167895998Y-34847337D01*
X167611831Y-34657463D01*
X167544564Y-34629600D01*
X171166999Y-34629600D01*
X171357700Y-34820301D01*
X171357700Y-34882439D01*
X171397474Y-35082398D01*
X171475495Y-35270756D01*
X171588763Y-35440274D01*
X171732926Y-35584437D01*
X171902444Y-35697705D01*
X172090802Y-35775726D01*
X172290761Y-35815500D01*
X172494639Y-35815500D01*
X172694598Y-35775726D01*
X172882956Y-35697705D01*
X173052474Y-35584437D01*
X173196637Y-35440274D01*
X173309905Y-35270756D01*
X173387926Y-35082398D01*
X173427700Y-34882439D01*
X173427700Y-34678561D01*
X173387926Y-34478602D01*
X173309905Y-34290244D01*
X173196637Y-34120726D01*
X173052474Y-33976563D01*
X172882956Y-33863295D01*
X172694598Y-33785274D01*
X172494639Y-33745500D01*
X172432501Y-33745500D01*
X172045603Y-33358602D01*
X172021801Y-33329599D01*
X171906076Y-33234626D01*
X171774047Y-33164054D01*
X171630786Y-33120597D01*
X171519133Y-33109600D01*
X171519122Y-33109600D01*
X171481800Y-33105924D01*
X171444478Y-33109600D01*
X167871954Y-33109600D01*
X167881273Y-33087100D01*
X185018727Y-33087100D01*
X185072463Y-33216831D01*
X185262337Y-33500998D01*
X185504002Y-33742663D01*
X185788169Y-33932537D01*
X186103919Y-34063325D01*
X186439117Y-34130000D01*
X186780883Y-34130000D01*
X187116081Y-34063325D01*
X187431831Y-33932537D01*
X187701949Y-33752050D01*
X188249701Y-34299803D01*
X188249701Y-34881040D01*
X188215998Y-34847337D01*
X187931831Y-34657463D01*
X187616081Y-34526675D01*
X187280883Y-34460000D01*
X186939117Y-34460000D01*
X186603919Y-34526675D01*
X186288169Y-34657463D01*
X186004002Y-34847337D01*
X185762337Y-35089002D01*
X185572463Y-35373169D01*
X185441675Y-35688919D01*
X185375000Y-36024117D01*
X185375000Y-36365883D01*
X185441675Y-36701081D01*
X185572463Y-37016831D01*
X185762337Y-37300998D01*
X186004002Y-37542663D01*
X186288169Y-37732537D01*
X186498740Y-37819758D01*
X178575399Y-45743100D01*
X175530903Y-45743100D01*
X175579502Y-45652180D01*
X175615812Y-45532482D01*
X175628072Y-45408000D01*
X175628072Y-44508000D01*
X175615812Y-44383518D01*
X175579502Y-44263820D01*
X175520537Y-44153506D01*
X175441185Y-44056815D01*
X175344494Y-43977463D01*
X175234180Y-43918498D01*
X175114482Y-43882188D01*
X174990000Y-43869928D01*
X172990000Y-43869928D01*
X172865518Y-43882188D01*
X172745820Y-43918498D01*
X172635506Y-43977463D01*
X172538815Y-44056815D01*
X172459463Y-44153506D01*
X172413176Y-44240101D01*
X172379531Y-44250307D01*
X172372453Y-44252454D01*
X172240423Y-44323026D01*
X172166714Y-44383518D01*
X172124699Y-44417999D01*
X172100901Y-44446997D01*
X170614099Y-45933800D01*
X170270266Y-45933800D01*
X170361185Y-45859185D01*
X170440537Y-45762494D01*
X170499502Y-45652180D01*
X170535812Y-45532482D01*
X170548072Y-45408000D01*
X170548072Y-44508000D01*
X170535812Y-44383518D01*
X170499502Y-44263820D01*
X170440537Y-44153506D01*
X170361185Y-44056815D01*
X170296875Y-44004037D01*
X174895519Y-39405394D01*
X174926428Y-39380028D01*
X174982019Y-39312290D01*
X175027649Y-39256690D01*
X175102862Y-39115974D01*
X175102863Y-39115973D01*
X175149180Y-38963288D01*
X175160900Y-38844291D01*
X175160900Y-38844289D01*
X175164819Y-38804501D01*
X175160900Y-38764713D01*
X175160900Y-38165600D01*
X175268105Y-38005156D01*
X175346126Y-37816798D01*
X175357199Y-37761130D01*
X175603919Y-37863325D01*
X175939117Y-37930000D01*
X176280883Y-37930000D01*
X176616081Y-37863325D01*
X176931831Y-37732537D01*
X177215998Y-37542663D01*
X177457663Y-37300998D01*
X177647537Y-37016831D01*
X177778325Y-36701081D01*
X177845000Y-36365883D01*
X177845000Y-36024117D01*
X177827369Y-35935475D01*
X178975000Y-35935475D01*
X178975000Y-36454525D01*
X179076261Y-36963601D01*
X179274893Y-37443141D01*
X179563262Y-37874715D01*
X179930285Y-38241738D01*
X180361859Y-38530107D01*
X180841399Y-38728739D01*
X181350475Y-38830000D01*
X181869525Y-38830000D01*
X182378601Y-38728739D01*
X182858141Y-38530107D01*
X183289715Y-38241738D01*
X183656738Y-37874715D01*
X183945107Y-37443141D01*
X184143739Y-36963601D01*
X184245000Y-36454525D01*
X184245000Y-35935475D01*
X184143739Y-35426399D01*
X183945107Y-34946859D01*
X183656738Y-34515285D01*
X183289715Y-34148262D01*
X182858141Y-33859893D01*
X182378601Y-33661261D01*
X181869525Y-33560000D01*
X181350475Y-33560000D01*
X180841399Y-33661261D01*
X180361859Y-33859893D01*
X179930285Y-34148262D01*
X179563262Y-34515285D01*
X179274893Y-34946859D01*
X179076261Y-35426399D01*
X178975000Y-35935475D01*
X177827369Y-35935475D01*
X177778325Y-35688919D01*
X177647537Y-35373169D01*
X177457663Y-35089002D01*
X177215998Y-34847337D01*
X176931831Y-34657463D01*
X176616081Y-34526675D01*
X176280883Y-34460000D01*
X175939117Y-34460000D01*
X175603919Y-34526675D01*
X175288169Y-34657463D01*
X175004002Y-34847337D01*
X174762337Y-35089002D01*
X174572463Y-35373169D01*
X174441675Y-35688919D01*
X174375000Y-36024117D01*
X174375000Y-36365883D01*
X174397679Y-36479900D01*
X174248961Y-36479900D01*
X174049002Y-36519674D01*
X173860644Y-36597695D01*
X173691126Y-36710963D01*
X173546963Y-36855126D01*
X173433695Y-37024644D01*
X173355674Y-37213002D01*
X173315900Y-37412961D01*
X173315900Y-37616839D01*
X173355674Y-37816798D01*
X173433695Y-38005156D01*
X173540900Y-38165601D01*
X173540900Y-38468987D01*
X168139960Y-43869928D01*
X167910000Y-43869928D01*
X167785518Y-43882188D01*
X167665820Y-43918498D01*
X167555506Y-43977463D01*
X167458815Y-44056815D01*
X167379463Y-44153506D01*
X167378933Y-44154498D01*
X167325912Y-44159720D01*
X167173227Y-44206037D01*
X167107724Y-44241049D01*
X167032510Y-44281251D01*
X166991373Y-44315012D01*
X166909172Y-44382472D01*
X166883807Y-44413380D01*
X166273888Y-45023300D01*
X166002900Y-45023300D01*
X166002900Y-44856061D01*
X165963126Y-44656102D01*
X165885105Y-44467744D01*
X165771837Y-44298226D01*
X165627674Y-44154063D01*
X165458156Y-44040795D01*
X165269798Y-43962774D01*
X165069839Y-43923000D01*
X164865961Y-43923000D01*
X164666002Y-43962774D01*
X164477644Y-44040795D01*
X164308126Y-44154063D01*
X164264189Y-44198000D01*
X155224320Y-44198000D01*
X155200537Y-44153506D01*
X155121185Y-44056815D01*
X155024494Y-43977463D01*
X154914180Y-43918498D01*
X154794482Y-43882188D01*
X154670000Y-43869928D01*
X152670000Y-43869928D01*
X152545518Y-43882188D01*
X152425820Y-43918498D01*
X152315506Y-43977463D01*
X152218815Y-44056815D01*
X152139463Y-44153506D01*
X152080498Y-44263820D01*
X152044188Y-44383518D01*
X152031928Y-44508000D01*
X152031928Y-45023300D01*
X151226113Y-45023300D01*
X150616199Y-44413387D01*
X150590828Y-44382472D01*
X150467489Y-44281251D01*
X150326773Y-44206037D01*
X150174088Y-44159720D01*
X150121067Y-44154498D01*
X150120537Y-44153506D01*
X150041185Y-44056815D01*
X149944494Y-43977463D01*
X149834180Y-43918498D01*
X149714482Y-43882188D01*
X149590000Y-43869928D01*
X147590000Y-43869928D01*
X147465518Y-43882188D01*
X147345820Y-43918498D01*
X147235506Y-43977463D01*
X147138815Y-44056815D01*
X147063982Y-44148000D01*
X140484700Y-44148000D01*
X140484700Y-42967400D01*
X140591905Y-42806956D01*
X140669926Y-42618598D01*
X140709700Y-42418639D01*
X140709700Y-42214761D01*
X140669926Y-42014802D01*
X140591905Y-41826444D01*
X140478637Y-41656926D01*
X140334474Y-41512763D01*
X140164956Y-41399495D01*
X139976598Y-41321474D01*
X139776639Y-41281700D01*
X139572761Y-41281700D01*
X139372802Y-41321474D01*
X139184444Y-41399495D01*
X139014926Y-41512763D01*
X138870763Y-41656926D01*
X138757495Y-41826444D01*
X138679474Y-42014802D01*
X138639700Y-42214761D01*
X138639700Y-42418639D01*
X138679474Y-42618598D01*
X138757495Y-42806956D01*
X138864701Y-42967401D01*
X138864700Y-43795300D01*
X131188072Y-43795300D01*
X131188072Y-42180000D01*
X131175812Y-42055518D01*
X131139502Y-41935820D01*
X131080537Y-41825506D01*
X131001185Y-41728815D01*
X130935000Y-41674499D01*
X130935000Y-41107600D01*
X131076374Y-41013137D01*
X131220537Y-40868974D01*
X131333805Y-40699456D01*
X131411826Y-40511098D01*
X131451600Y-40311139D01*
X131451600Y-40107261D01*
X131411826Y-39907302D01*
X131333805Y-39718944D01*
X131220537Y-39549426D01*
X131096236Y-39425125D01*
X131139502Y-39344180D01*
X131175812Y-39224482D01*
X131188072Y-39100000D01*
X131188072Y-37100000D01*
X131175812Y-36975518D01*
X131139502Y-36855820D01*
X131080537Y-36745506D01*
X131001185Y-36648815D01*
X130904494Y-36569463D01*
X130794180Y-36510498D01*
X130674482Y-36474188D01*
X130550000Y-36461928D01*
X129800000Y-36461928D01*
X129675518Y-36474188D01*
X129555820Y-36510498D01*
X129445506Y-36569463D01*
X129348815Y-36648815D01*
X129269463Y-36745506D01*
X129210498Y-36855820D01*
X129174188Y-36975518D01*
X129161928Y-37100000D01*
X129161928Y-39100000D01*
X129174188Y-39224482D01*
X129210498Y-39344180D01*
X129269463Y-39454494D01*
X129348815Y-39551185D01*
X129415000Y-39605502D01*
X129415000Y-39939346D01*
X129381600Y-40107261D01*
X129381600Y-40311139D01*
X129415001Y-40479058D01*
X129415001Y-41674498D01*
X129348815Y-41728815D01*
X129269463Y-41825506D01*
X129210498Y-41935820D01*
X129174188Y-42055518D01*
X129161928Y-42180000D01*
X129161928Y-43795300D01*
X128902072Y-43795300D01*
X128902072Y-42180000D01*
X128889812Y-42055518D01*
X128853502Y-41935820D01*
X128794537Y-41825506D01*
X128715185Y-41728815D01*
X128699000Y-41715532D01*
X128699000Y-39564468D01*
X128715185Y-39551185D01*
X128794537Y-39454494D01*
X128853502Y-39344180D01*
X128889812Y-39224482D01*
X128902072Y-39100000D01*
X128902072Y-37100000D01*
X128889812Y-36975518D01*
X128853502Y-36855820D01*
X128794537Y-36745506D01*
X128715185Y-36648815D01*
X128699000Y-36635532D01*
X128699000Y-35754468D01*
X128715185Y-35741185D01*
X128794537Y-35644494D01*
X128853502Y-35534180D01*
X128889812Y-35414482D01*
X128902072Y-35290000D01*
X128902072Y-33290000D01*
X128889812Y-33165518D01*
X128853502Y-33045820D01*
X128794537Y-32935506D01*
X128715185Y-32838815D01*
X128699000Y-32825532D01*
X128699000Y-30674468D01*
X128715185Y-30661185D01*
X128794537Y-30564494D01*
X128853502Y-30454180D01*
X128889812Y-30334482D01*
X128902072Y-30210000D01*
X128902072Y-28210000D01*
X128889812Y-28085518D01*
X128853502Y-27965820D01*
X128794537Y-27855506D01*
X128715185Y-27758815D01*
X128618494Y-27679463D01*
X128508180Y-27620498D01*
X128388482Y-27584188D01*
X128264000Y-27571928D01*
X127514000Y-27571928D01*
X127389518Y-27584188D01*
X127269820Y-27620498D01*
X127159506Y-27679463D01*
X127062815Y-27758815D01*
X126983463Y-27855506D01*
X126924498Y-27965820D01*
X126888188Y-28085518D01*
X126875928Y-28210000D01*
X126492000Y-28210000D01*
X126492000Y-27992606D01*
X127687606Y-26797000D01*
X189177394Y-26797000D01*
X190373000Y-27992606D01*
G37*
X190373000Y-27992606D02*
X190373000Y-104722394D01*
X189177394Y-105918000D01*
X133402606Y-105918000D01*
X132207000Y-104722394D01*
X132207000Y-96984117D01*
X133735000Y-96984117D01*
X133735000Y-97325883D01*
X133801675Y-97661081D01*
X133932463Y-97976831D01*
X134122337Y-98260998D01*
X134364002Y-98502663D01*
X134648169Y-98692537D01*
X134963919Y-98823325D01*
X135299117Y-98890000D01*
X135640883Y-98890000D01*
X135976081Y-98823325D01*
X136291831Y-98692537D01*
X136575998Y-98502663D01*
X136817663Y-98260998D01*
X137007537Y-97976831D01*
X137138325Y-97661081D01*
X137205000Y-97325883D01*
X137205000Y-96984117D01*
X137187369Y-96895475D01*
X138335000Y-96895475D01*
X138335000Y-97414525D01*
X138436261Y-97923601D01*
X138634893Y-98403141D01*
X138923262Y-98834715D01*
X139290285Y-99201738D01*
X139721859Y-99490107D01*
X140201399Y-99688739D01*
X140710475Y-99790000D01*
X141229525Y-99790000D01*
X141738601Y-99688739D01*
X142218141Y-99490107D01*
X142649715Y-99201738D01*
X143016738Y-98834715D01*
X143305107Y-98403141D01*
X143503739Y-97923601D01*
X143605000Y-97414525D01*
X143605000Y-96984117D01*
X144735000Y-96984117D01*
X144735000Y-97325883D01*
X144801675Y-97661081D01*
X144932463Y-97976831D01*
X145122337Y-98260998D01*
X145364002Y-98502663D01*
X145648169Y-98692537D01*
X145963919Y-98823325D01*
X146299117Y-98890000D01*
X146640883Y-98890000D01*
X146976081Y-98823325D01*
X147291831Y-98692537D01*
X147575998Y-98502663D01*
X147817663Y-98260998D01*
X148007537Y-97976831D01*
X148138325Y-97661081D01*
X148205000Y-97325883D01*
X148205000Y-96984117D01*
X154055000Y-96984117D01*
X154055000Y-97325883D01*
X154121675Y-97661081D01*
X154252463Y-97976831D01*
X154442337Y-98260998D01*
X154684002Y-98502663D01*
X154968169Y-98692537D01*
X155283919Y-98823325D01*
X155619117Y-98890000D01*
X155960883Y-98890000D01*
X156296081Y-98823325D01*
X156611831Y-98692537D01*
X156895998Y-98502663D01*
X157137663Y-98260998D01*
X157327537Y-97976831D01*
X157458325Y-97661081D01*
X157525000Y-97325883D01*
X157525000Y-96984117D01*
X157507369Y-96895475D01*
X158655000Y-96895475D01*
X158655000Y-97414525D01*
X158756261Y-97923601D01*
X158954893Y-98403141D01*
X159243262Y-98834715D01*
X159610285Y-99201738D01*
X160041859Y-99490107D01*
X160521399Y-99688739D01*
X161030475Y-99790000D01*
X161549525Y-99790000D01*
X162058601Y-99688739D01*
X162538141Y-99490107D01*
X162969715Y-99201738D01*
X163336738Y-98834715D01*
X163625107Y-98403141D01*
X163823739Y-97923601D01*
X163925000Y-97414525D01*
X163925000Y-96984117D01*
X165055000Y-96984117D01*
X165055000Y-97325883D01*
X165121675Y-97661081D01*
X165252463Y-97976831D01*
X165442337Y-98260998D01*
X165684002Y-98502663D01*
X165968169Y-98692537D01*
X166283919Y-98823325D01*
X166619117Y-98890000D01*
X166960883Y-98890000D01*
X167296081Y-98823325D01*
X167611831Y-98692537D01*
X167895998Y-98502663D01*
X168137663Y-98260998D01*
X168327537Y-97976831D01*
X168458325Y-97661081D01*
X168525000Y-97325883D01*
X168525000Y-96984117D01*
X174375000Y-96984117D01*
X174375000Y-97325883D01*
X174441675Y-97661081D01*
X174572463Y-97976831D01*
X174762337Y-98260998D01*
X175004002Y-98502663D01*
X175288169Y-98692537D01*
X175603919Y-98823325D01*
X175939117Y-98890000D01*
X176280883Y-98890000D01*
X176616081Y-98823325D01*
X176931831Y-98692537D01*
X177215998Y-98502663D01*
X177457663Y-98260998D01*
X177647537Y-97976831D01*
X177778325Y-97661081D01*
X177845000Y-97325883D01*
X177845000Y-96984117D01*
X177827369Y-96895475D01*
X178975000Y-96895475D01*
X178975000Y-97414525D01*
X179076261Y-97923601D01*
X179274893Y-98403141D01*
X179563262Y-98834715D01*
X179930285Y-99201738D01*
X180361859Y-99490107D01*
X180841399Y-99688739D01*
X181350475Y-99790000D01*
X181869525Y-99790000D01*
X182378601Y-99688739D01*
X182858141Y-99490107D01*
X183289715Y-99201738D01*
X183656738Y-98834715D01*
X183945107Y-98403141D01*
X184143739Y-97923601D01*
X184245000Y-97414525D01*
X184245000Y-96984117D01*
X185375000Y-96984117D01*
X185375000Y-97325883D01*
X185441675Y-97661081D01*
X185572463Y-97976831D01*
X185762337Y-98260998D01*
X186004002Y-98502663D01*
X186288169Y-98692537D01*
X186603919Y-98823325D01*
X186939117Y-98890000D01*
X187280883Y-98890000D01*
X187616081Y-98823325D01*
X187931831Y-98692537D01*
X188215998Y-98502663D01*
X188457663Y-98260998D01*
X188647537Y-97976831D01*
X188778325Y-97661081D01*
X188845000Y-97325883D01*
X188845000Y-96984117D01*
X188778325Y-96648919D01*
X188647537Y-96333169D01*
X188457663Y-96049002D01*
X188215998Y-95807337D01*
X187931831Y-95617463D01*
X187616081Y-95486675D01*
X187280883Y-95420000D01*
X186939117Y-95420000D01*
X186603919Y-95486675D01*
X186288169Y-95617463D01*
X186004002Y-95807337D01*
X185762337Y-96049002D01*
X185572463Y-96333169D01*
X185441675Y-96648919D01*
X185375000Y-96984117D01*
X184245000Y-96984117D01*
X184245000Y-96895475D01*
X184143739Y-96386399D01*
X183945107Y-95906859D01*
X183656738Y-95475285D01*
X183289715Y-95108262D01*
X182858141Y-94819893D01*
X182378601Y-94621261D01*
X181869525Y-94520000D01*
X181350475Y-94520000D01*
X180841399Y-94621261D01*
X180361859Y-94819893D01*
X179930285Y-95108262D01*
X179563262Y-95475285D01*
X179274893Y-95906859D01*
X179076261Y-96386399D01*
X178975000Y-96895475D01*
X177827369Y-96895475D01*
X177778325Y-96648919D01*
X177647537Y-96333169D01*
X177457663Y-96049002D01*
X177215998Y-95807337D01*
X176931831Y-95617463D01*
X176616081Y-95486675D01*
X176280883Y-95420000D01*
X175939117Y-95420000D01*
X175603919Y-95486675D01*
X175288169Y-95617463D01*
X175004002Y-95807337D01*
X174762337Y-96049002D01*
X174572463Y-96333169D01*
X174441675Y-96648919D01*
X174375000Y-96984117D01*
X168525000Y-96984117D01*
X168458325Y-96648919D01*
X168327537Y-96333169D01*
X168137663Y-96049002D01*
X167895998Y-95807337D01*
X167611831Y-95617463D01*
X167296081Y-95486675D01*
X166960883Y-95420000D01*
X166619117Y-95420000D01*
X166283919Y-95486675D01*
X165968169Y-95617463D01*
X165684002Y-95807337D01*
X165442337Y-96049002D01*
X165252463Y-96333169D01*
X165121675Y-96648919D01*
X165055000Y-96984117D01*
X163925000Y-96984117D01*
X163925000Y-96895475D01*
X163823739Y-96386399D01*
X163625107Y-95906859D01*
X163336738Y-95475285D01*
X162969715Y-95108262D01*
X162538141Y-94819893D01*
X162058601Y-94621261D01*
X161549525Y-94520000D01*
X161030475Y-94520000D01*
X160521399Y-94621261D01*
X160041859Y-94819893D01*
X159610285Y-95108262D01*
X159243262Y-95475285D01*
X158954893Y-95906859D01*
X158756261Y-96386399D01*
X158655000Y-96895475D01*
X157507369Y-96895475D01*
X157458325Y-96648919D01*
X157327537Y-96333169D01*
X157137663Y-96049002D01*
X156895998Y-95807337D01*
X156611831Y-95617463D01*
X156296081Y-95486675D01*
X155960883Y-95420000D01*
X155619117Y-95420000D01*
X155283919Y-95486675D01*
X154968169Y-95617463D01*
X154684002Y-95807337D01*
X154442337Y-96049002D01*
X154252463Y-96333169D01*
X154121675Y-96648919D01*
X154055000Y-96984117D01*
X148205000Y-96984117D01*
X148138325Y-96648919D01*
X148007537Y-96333169D01*
X147817663Y-96049002D01*
X147575998Y-95807337D01*
X147291831Y-95617463D01*
X146976081Y-95486675D01*
X146640883Y-95420000D01*
X146299117Y-95420000D01*
X145963919Y-95486675D01*
X145648169Y-95617463D01*
X145364002Y-95807337D01*
X145122337Y-96049002D01*
X144932463Y-96333169D01*
X144801675Y-96648919D01*
X144735000Y-96984117D01*
X143605000Y-96984117D01*
X143605000Y-96895475D01*
X143503739Y-96386399D01*
X143305107Y-95906859D01*
X143016738Y-95475285D01*
X142649715Y-95108262D01*
X142218141Y-94819893D01*
X141738601Y-94621261D01*
X141229525Y-94520000D01*
X140710475Y-94520000D01*
X140201399Y-94621261D01*
X139721859Y-94819893D01*
X139290285Y-95108262D01*
X138923262Y-95475285D01*
X138634893Y-95906859D01*
X138436261Y-96386399D01*
X138335000Y-96895475D01*
X137187369Y-96895475D01*
X137138325Y-96648919D01*
X137007537Y-96333169D01*
X136817663Y-96049002D01*
X136575998Y-95807337D01*
X136291831Y-95617463D01*
X135976081Y-95486675D01*
X135640883Y-95420000D01*
X135299117Y-95420000D01*
X134963919Y-95486675D01*
X134648169Y-95617463D01*
X134364002Y-95807337D01*
X134122337Y-96049002D01*
X133932463Y-96333169D01*
X133801675Y-96648919D01*
X133735000Y-96984117D01*
X132207000Y-96984117D01*
X132207000Y-93184117D01*
X144235000Y-93184117D01*
X144235000Y-93525883D01*
X144301675Y-93861081D01*
X144432463Y-94176831D01*
X144622337Y-94460998D01*
X144864002Y-94702663D01*
X145148169Y-94892537D01*
X145463919Y-95023325D01*
X145799117Y-95090000D01*
X146140883Y-95090000D01*
X146476081Y-95023325D01*
X146791831Y-94892537D01*
X147075998Y-94702663D01*
X147317663Y-94460998D01*
X147507537Y-94176831D01*
X147533148Y-94115000D01*
X164726852Y-94115000D01*
X164752463Y-94176831D01*
X164942337Y-94460998D01*
X165184002Y-94702663D01*
X165468169Y-94892537D01*
X165783919Y-95023325D01*
X166119117Y-95090000D01*
X166460883Y-95090000D01*
X166796081Y-95023325D01*
X167111831Y-94892537D01*
X167395998Y-94702663D01*
X167637663Y-94460998D01*
X167827537Y-94176831D01*
X167853148Y-94115000D01*
X185046852Y-94115000D01*
X185072463Y-94176831D01*
X185262337Y-94460998D01*
X185504002Y-94702663D01*
X185788169Y-94892537D01*
X186103919Y-95023325D01*
X186439117Y-95090000D01*
X186780883Y-95090000D01*
X187116081Y-95023325D01*
X187431831Y-94892537D01*
X187715998Y-94702663D01*
X187957663Y-94460998D01*
X188147537Y-94176831D01*
X188278325Y-93861081D01*
X188345000Y-93525883D01*
X188345000Y-93184117D01*
X188278325Y-92848919D01*
X188147537Y-92533169D01*
X187957663Y-92249002D01*
X187715998Y-92007337D01*
X187431831Y-91817463D01*
X187116081Y-91686675D01*
X186780883Y-91620000D01*
X186439117Y-91620000D01*
X186103919Y-91686675D01*
X185788169Y-91817463D01*
X185504002Y-92007337D01*
X185262337Y-92249002D01*
X185072463Y-92533169D01*
X185046852Y-92595000D01*
X182723661Y-92595000D01*
X182957663Y-92360998D01*
X183147537Y-92076831D01*
X183278325Y-91761081D01*
X183345000Y-91425883D01*
X183345000Y-91084117D01*
X183278325Y-90748919D01*
X183147537Y-90433169D01*
X182957663Y-90149002D01*
X182715998Y-89907337D01*
X182431831Y-89717463D01*
X182116081Y-89586675D01*
X181780883Y-89520000D01*
X181439117Y-89520000D01*
X181103919Y-89586675D01*
X180788169Y-89717463D01*
X180504002Y-89907337D01*
X180262337Y-90149002D01*
X180072463Y-90433169D01*
X179941675Y-90748919D01*
X179875000Y-91084117D01*
X179875000Y-91425883D01*
X179941675Y-91761081D01*
X180072463Y-92076831D01*
X180262337Y-92360998D01*
X180496339Y-92595000D01*
X167853148Y-92595000D01*
X167827537Y-92533169D01*
X167637663Y-92249002D01*
X167395998Y-92007337D01*
X167111831Y-91817463D01*
X166796081Y-91686675D01*
X166460883Y-91620000D01*
X166119117Y-91620000D01*
X165783919Y-91686675D01*
X165468169Y-91817463D01*
X165184002Y-92007337D01*
X164942337Y-92249002D01*
X164752463Y-92533169D01*
X164726852Y-92595000D01*
X162403661Y-92595000D01*
X162637663Y-92360998D01*
X162827537Y-92076831D01*
X162958325Y-91761081D01*
X163025000Y-91425883D01*
X163025000Y-91084117D01*
X162958325Y-90748919D01*
X162827537Y-90433169D01*
X162637663Y-90149002D01*
X162395998Y-89907337D01*
X162111831Y-89717463D01*
X161796081Y-89586675D01*
X161460883Y-89520000D01*
X161119117Y-89520000D01*
X160783919Y-89586675D01*
X160468169Y-89717463D01*
X160184002Y-89907337D01*
X159942337Y-90149002D01*
X159752463Y-90433169D01*
X159621675Y-90748919D01*
X159555000Y-91084117D01*
X159555000Y-91425883D01*
X159621675Y-91761081D01*
X159752463Y-92076831D01*
X159942337Y-92360998D01*
X160176339Y-92595000D01*
X147533148Y-92595000D01*
X147507537Y-92533169D01*
X147317663Y-92249002D01*
X147075998Y-92007337D01*
X146791831Y-91817463D01*
X146476081Y-91686675D01*
X146140883Y-91620000D01*
X145799117Y-91620000D01*
X145463919Y-91686675D01*
X145148169Y-91817463D01*
X144864002Y-92007337D01*
X144622337Y-92249002D01*
X144432463Y-92533169D01*
X144301675Y-92848919D01*
X144235000Y-93184117D01*
X132207000Y-93184117D01*
X132207000Y-91084117D01*
X139235000Y-91084117D01*
X139235000Y-91425883D01*
X139301675Y-91761081D01*
X139432463Y-92076831D01*
X139622337Y-92360998D01*
X139864002Y-92602663D01*
X140148169Y-92792537D01*
X140463919Y-92923325D01*
X140799117Y-92990000D01*
X141140883Y-92990000D01*
X141476081Y-92923325D01*
X141791831Y-92792537D01*
X142075998Y-92602663D01*
X142317663Y-92360998D01*
X142507537Y-92076831D01*
X142638325Y-91761081D01*
X142705000Y-91425883D01*
X142705000Y-91084117D01*
X142638325Y-90748919D01*
X142507537Y-90433169D01*
X142317663Y-90149002D01*
X142075998Y-89907337D01*
X141791831Y-89717463D01*
X141476081Y-89586675D01*
X141140883Y-89520000D01*
X140799117Y-89520000D01*
X140463919Y-89586675D01*
X140148169Y-89717463D01*
X139864002Y-89907337D01*
X139622337Y-90149002D01*
X139432463Y-90433169D01*
X139301675Y-90748919D01*
X139235000Y-91084117D01*
X132207000Y-91084117D01*
X132207000Y-88450000D01*
X146951928Y-88450000D01*
X146951928Y-89350000D01*
X146964188Y-89474482D01*
X147000498Y-89594180D01*
X147059463Y-89704494D01*
X147138815Y-89801185D01*
X147235506Y-89880537D01*
X147345820Y-89939502D01*
X147465518Y-89975812D01*
X147590000Y-89988072D01*
X149590000Y-89988072D01*
X149714482Y-89975812D01*
X149834180Y-89939502D01*
X149944494Y-89880537D01*
X150041185Y-89801185D01*
X150120537Y-89704494D01*
X150179502Y-89594180D01*
X150215812Y-89474482D01*
X150228072Y-89350000D01*
X152031928Y-89350000D01*
X152044188Y-89474482D01*
X152080498Y-89594180D01*
X152139463Y-89704494D01*
X152218815Y-89801185D01*
X152315506Y-89880537D01*
X152425820Y-89939502D01*
X152545518Y-89975812D01*
X152670000Y-89988072D01*
X153384250Y-89985000D01*
X153543000Y-89826250D01*
X153543000Y-89027000D01*
X153797000Y-89027000D01*
X153797000Y-89826250D01*
X153955750Y-89985000D01*
X154670000Y-89988072D01*
X154794482Y-89975812D01*
X154914180Y-89939502D01*
X155024494Y-89880537D01*
X155121185Y-89801185D01*
X155200537Y-89704494D01*
X155259502Y-89594180D01*
X155295812Y-89474482D01*
X155308072Y-89350000D01*
X155305000Y-89185750D01*
X155146250Y-89027000D01*
X153797000Y-89027000D01*
X153543000Y-89027000D01*
X152193750Y-89027000D01*
X152035000Y-89185750D01*
X152031928Y-89350000D01*
X150228072Y-89350000D01*
X150228072Y-88450000D01*
X152031928Y-88450000D01*
X152035000Y-88614250D01*
X152193750Y-88773000D01*
X153543000Y-88773000D01*
X153543000Y-87973750D01*
X153797000Y-87973750D01*
X153797000Y-88773000D01*
X155146250Y-88773000D01*
X155305000Y-88614250D01*
X155308072Y-88450000D01*
X155295812Y-88325518D01*
X155259502Y-88205820D01*
X155200537Y-88095506D01*
X155121185Y-87998815D01*
X155024494Y-87919463D01*
X154914180Y-87860498D01*
X154794482Y-87824188D01*
X154670000Y-87811928D01*
X153955750Y-87815000D01*
X153797000Y-87973750D01*
X153543000Y-87973750D01*
X153384250Y-87815000D01*
X152670000Y-87811928D01*
X152545518Y-87824188D01*
X152425820Y-87860498D01*
X152315506Y-87919463D01*
X152218815Y-87998815D01*
X152139463Y-88095506D01*
X152080498Y-88205820D01*
X152044188Y-88325518D01*
X152031928Y-88450000D01*
X150228072Y-88450000D01*
X150215812Y-88325518D01*
X150179502Y-88205820D01*
X150120537Y-88095506D01*
X150041185Y-87998815D01*
X149944494Y-87919463D01*
X149834180Y-87860498D01*
X149714482Y-87824188D01*
X149590000Y-87811928D01*
X147590000Y-87811928D01*
X147465518Y-87824188D01*
X147345820Y-87860498D01*
X147235506Y-87919463D01*
X147138815Y-87998815D01*
X147059463Y-88095506D01*
X147000498Y-88205820D01*
X146964188Y-88325518D01*
X146951928Y-88450000D01*
X132207000Y-88450000D01*
X132207000Y-85148000D01*
X146951928Y-85148000D01*
X146951928Y-86048000D01*
X146964188Y-86172482D01*
X147000498Y-86292180D01*
X147059463Y-86402494D01*
X147138815Y-86499185D01*
X147235506Y-86578537D01*
X147345820Y-86637502D01*
X147465518Y-86673812D01*
X147590000Y-86686072D01*
X149590000Y-86686072D01*
X149714482Y-86673812D01*
X149834180Y-86637502D01*
X149944494Y-86578537D01*
X150041185Y-86499185D01*
X150120537Y-86402494D01*
X150121067Y-86401502D01*
X150174088Y-86396280D01*
X150326773Y-86349963D01*
X150467489Y-86274749D01*
X150590828Y-86173528D01*
X150616199Y-86142613D01*
X151226113Y-85532700D01*
X152031928Y-85532700D01*
X152031928Y-86048000D01*
X152044188Y-86172482D01*
X152080498Y-86292180D01*
X152139463Y-86402494D01*
X152218815Y-86499185D01*
X152315506Y-86578537D01*
X152425820Y-86637502D01*
X152545518Y-86673812D01*
X152670000Y-86686072D01*
X154670000Y-86686072D01*
X154794482Y-86673812D01*
X154914180Y-86637502D01*
X155024494Y-86578537D01*
X155121185Y-86499185D01*
X155200537Y-86402494D01*
X155224320Y-86358000D01*
X163782899Y-86358000D01*
X166835901Y-89411003D01*
X166859699Y-89440001D01*
X166975424Y-89534974D01*
X167107453Y-89605546D01*
X167148176Y-89617899D01*
X167194463Y-89704494D01*
X167273815Y-89801185D01*
X167370506Y-89880537D01*
X167480820Y-89939502D01*
X167600518Y-89975812D01*
X167725000Y-89988072D01*
X169725000Y-89988072D01*
X169849482Y-89975812D01*
X169969180Y-89939502D01*
X170079494Y-89880537D01*
X170176185Y-89801185D01*
X170255537Y-89704494D01*
X170314502Y-89594180D01*
X170350812Y-89474482D01*
X170363072Y-89350000D01*
X172166928Y-89350000D01*
X172179188Y-89474482D01*
X172215498Y-89594180D01*
X172274463Y-89704494D01*
X172353815Y-89801185D01*
X172450506Y-89880537D01*
X172560820Y-89939502D01*
X172680518Y-89975812D01*
X172805000Y-89988072D01*
X173519250Y-89985000D01*
X173678000Y-89826250D01*
X173678000Y-89027000D01*
X173932000Y-89027000D01*
X173932000Y-89826250D01*
X174090750Y-89985000D01*
X174805000Y-89988072D01*
X174929482Y-89975812D01*
X175049180Y-89939502D01*
X175159494Y-89880537D01*
X175256185Y-89801185D01*
X175335537Y-89704494D01*
X175394502Y-89594180D01*
X175430812Y-89474482D01*
X175443072Y-89350000D01*
X175440000Y-89185750D01*
X175281250Y-89027000D01*
X173932000Y-89027000D01*
X173678000Y-89027000D01*
X172328750Y-89027000D01*
X172170000Y-89185750D01*
X172166928Y-89350000D01*
X170363072Y-89350000D01*
X170363072Y-88450000D01*
X172166928Y-88450000D01*
X172170000Y-88614250D01*
X172328750Y-88773000D01*
X173678000Y-88773000D01*
X173678000Y-87973750D01*
X173932000Y-87973750D01*
X173932000Y-88773000D01*
X175281250Y-88773000D01*
X175440000Y-88614250D01*
X175443072Y-88450000D01*
X175430812Y-88325518D01*
X175394502Y-88205820D01*
X175335537Y-88095506D01*
X175256185Y-87998815D01*
X175159494Y-87919463D01*
X175049180Y-87860498D01*
X174929482Y-87824188D01*
X174805000Y-87811928D01*
X174090750Y-87815000D01*
X173932000Y-87973750D01*
X173678000Y-87973750D01*
X173519250Y-87815000D01*
X172805000Y-87811928D01*
X172680518Y-87824188D01*
X172560820Y-87860498D01*
X172450506Y-87919463D01*
X172353815Y-87998815D01*
X172274463Y-88095506D01*
X172215498Y-88205820D01*
X172179188Y-88325518D01*
X172166928Y-88450000D01*
X170363072Y-88450000D01*
X170350812Y-88325518D01*
X170314502Y-88205820D01*
X170255537Y-88095506D01*
X170176185Y-87998815D01*
X170079494Y-87919463D01*
X169969180Y-87860498D01*
X169849482Y-87824188D01*
X169725000Y-87811928D01*
X167725000Y-87811928D01*
X167600518Y-87824188D01*
X167480820Y-87860498D01*
X167450960Y-87876459D01*
X165107201Y-85532700D01*
X165790600Y-85532700D01*
X165951044Y-85639905D01*
X166139402Y-85717926D01*
X166307562Y-85751375D01*
X166698805Y-86142618D01*
X166724172Y-86173528D01*
X166755080Y-86198893D01*
X166847510Y-86274749D01*
X166922724Y-86314951D01*
X166988227Y-86349963D01*
X167140912Y-86396280D01*
X167193933Y-86401502D01*
X167194463Y-86402494D01*
X167273815Y-86499185D01*
X167370506Y-86578537D01*
X167480820Y-86637502D01*
X167600518Y-86673812D01*
X167725000Y-86686072D01*
X169725000Y-86686072D01*
X169849482Y-86673812D01*
X169969180Y-86637502D01*
X170079494Y-86578537D01*
X170176185Y-86499185D01*
X170255537Y-86402494D01*
X170314502Y-86292180D01*
X170350812Y-86172482D01*
X170363072Y-86048000D01*
X170363072Y-85148000D01*
X172166928Y-85148000D01*
X172166928Y-86048000D01*
X172179188Y-86172482D01*
X172215498Y-86292180D01*
X172274463Y-86402494D01*
X172353815Y-86499185D01*
X172450506Y-86578537D01*
X172560820Y-86637502D01*
X172680518Y-86673812D01*
X172805000Y-86686072D01*
X174805000Y-86686072D01*
X174929482Y-86673812D01*
X175049180Y-86637502D01*
X175159494Y-86578537D01*
X175256185Y-86499185D01*
X175335537Y-86402494D01*
X175381824Y-86315899D01*
X175422547Y-86303546D01*
X175554576Y-86232974D01*
X175670301Y-86138001D01*
X175765274Y-86022276D01*
X175835846Y-85890247D01*
X175879303Y-85746986D01*
X175893977Y-85598000D01*
X175890300Y-85560667D01*
X175890300Y-85080376D01*
X175931005Y-85019456D01*
X176009026Y-84831098D01*
X176048800Y-84631139D01*
X176048800Y-84427261D01*
X176009026Y-84227302D01*
X175931005Y-84038944D01*
X175817737Y-83869426D01*
X175673574Y-83725263D01*
X175504056Y-83611995D01*
X175315698Y-83533974D01*
X175115739Y-83494200D01*
X174911861Y-83494200D01*
X174711902Y-83533974D01*
X174523544Y-83611995D01*
X174354026Y-83725263D01*
X174209863Y-83869426D01*
X174096595Y-84038944D01*
X174018574Y-84227302D01*
X173978800Y-84427261D01*
X173978800Y-84509928D01*
X172805000Y-84509928D01*
X172680518Y-84522188D01*
X172560820Y-84558498D01*
X172450506Y-84617463D01*
X172353815Y-84696815D01*
X172274463Y-84793506D01*
X172215498Y-84903820D01*
X172179188Y-85023518D01*
X172166928Y-85148000D01*
X170363072Y-85148000D01*
X170350812Y-85023518D01*
X170314502Y-84903820D01*
X170255537Y-84793506D01*
X170176185Y-84696815D01*
X170079494Y-84617463D01*
X169969180Y-84558498D01*
X169849482Y-84522188D01*
X169725000Y-84509928D01*
X167725000Y-84509928D01*
X167600518Y-84522188D01*
X167480820Y-84558498D01*
X167465540Y-84566666D01*
X167436526Y-84420802D01*
X167358505Y-84232444D01*
X167245237Y-84062926D01*
X167101074Y-83918763D01*
X166931556Y-83805495D01*
X166743198Y-83727474D01*
X166543239Y-83687700D01*
X166339361Y-83687700D01*
X166139402Y-83727474D01*
X165951044Y-83805495D01*
X165790600Y-83912700D01*
X150930387Y-83912700D01*
X150890599Y-83908781D01*
X150850811Y-83912700D01*
X150850809Y-83912700D01*
X150731812Y-83924420D01*
X150579127Y-83970737D01*
X150544587Y-83989199D01*
X150438410Y-84045951D01*
X150382810Y-84091581D01*
X150315072Y-84147172D01*
X150289705Y-84178082D01*
X149883127Y-84584661D01*
X149834180Y-84558498D01*
X149714482Y-84522188D01*
X149590000Y-84509928D01*
X147590000Y-84509928D01*
X147465518Y-84522188D01*
X147345820Y-84558498D01*
X147235506Y-84617463D01*
X147138815Y-84696815D01*
X147059463Y-84793506D01*
X147000498Y-84903820D01*
X146964188Y-85023518D01*
X146951928Y-85148000D01*
X132207000Y-85148000D01*
X132207000Y-76664117D01*
X133735000Y-76664117D01*
X133735000Y-77005883D01*
X133801675Y-77341081D01*
X133932463Y-77656831D01*
X134122337Y-77940998D01*
X134364002Y-78182663D01*
X134648169Y-78372537D01*
X134963919Y-78503325D01*
X135299117Y-78570000D01*
X135640883Y-78570000D01*
X135976081Y-78503325D01*
X136291831Y-78372537D01*
X136575998Y-78182663D01*
X136817663Y-77940998D01*
X137007537Y-77656831D01*
X137138325Y-77341081D01*
X137205000Y-77005883D01*
X137205000Y-76664117D01*
X137187369Y-76575475D01*
X138335000Y-76575475D01*
X138335000Y-77094525D01*
X138436261Y-77603601D01*
X138634893Y-78083141D01*
X138923262Y-78514715D01*
X139290285Y-78881738D01*
X139721859Y-79170107D01*
X140201399Y-79368739D01*
X140710475Y-79470000D01*
X141229525Y-79470000D01*
X141738601Y-79368739D01*
X142218141Y-79170107D01*
X142649715Y-78881738D01*
X143016738Y-78514715D01*
X143305107Y-78083141D01*
X143503739Y-77603601D01*
X143605000Y-77094525D01*
X143605000Y-76664117D01*
X144735000Y-76664117D01*
X144735000Y-77005883D01*
X144801675Y-77341081D01*
X144932463Y-77656831D01*
X145122337Y-77940998D01*
X145364002Y-78182663D01*
X145648169Y-78372537D01*
X145963919Y-78503325D01*
X146299117Y-78570000D01*
X146640883Y-78570000D01*
X146976081Y-78503325D01*
X147291831Y-78372537D01*
X147575998Y-78182663D01*
X147817663Y-77940998D01*
X148007537Y-77656831D01*
X148138325Y-77341081D01*
X148205000Y-77005883D01*
X148205000Y-76664117D01*
X154055000Y-76664117D01*
X154055000Y-77005883D01*
X154121675Y-77341081D01*
X154252463Y-77656831D01*
X154442337Y-77940998D01*
X154684002Y-78182663D01*
X154968169Y-78372537D01*
X155283919Y-78503325D01*
X155619117Y-78570000D01*
X155960883Y-78570000D01*
X156296081Y-78503325D01*
X156611831Y-78372537D01*
X156895998Y-78182663D01*
X157137663Y-77940998D01*
X157327537Y-77656831D01*
X157458325Y-77341081D01*
X157525000Y-77005883D01*
X157525000Y-76664117D01*
X157507369Y-76575475D01*
X158655000Y-76575475D01*
X158655000Y-77094525D01*
X158756261Y-77603601D01*
X158954893Y-78083141D01*
X159243262Y-78514715D01*
X159610285Y-78881738D01*
X160041859Y-79170107D01*
X160521399Y-79368739D01*
X161030475Y-79470000D01*
X161549525Y-79470000D01*
X162058601Y-79368739D01*
X162538141Y-79170107D01*
X162969715Y-78881738D01*
X163336738Y-78514715D01*
X163625107Y-78083141D01*
X163823739Y-77603601D01*
X163925000Y-77094525D01*
X163925000Y-76664117D01*
X165055000Y-76664117D01*
X165055000Y-77005883D01*
X165121675Y-77341081D01*
X165252463Y-77656831D01*
X165442337Y-77940998D01*
X165684002Y-78182663D01*
X165968169Y-78372537D01*
X166283919Y-78503325D01*
X166619117Y-78570000D01*
X166960883Y-78570000D01*
X167296081Y-78503325D01*
X167611831Y-78372537D01*
X167895998Y-78182663D01*
X168137663Y-77940998D01*
X168327537Y-77656831D01*
X168458325Y-77341081D01*
X168525000Y-77005883D01*
X168525000Y-76664117D01*
X174375000Y-76664117D01*
X174375000Y-77005883D01*
X174441675Y-77341081D01*
X174572463Y-77656831D01*
X174762337Y-77940998D01*
X175004002Y-78182663D01*
X175288169Y-78372537D01*
X175603919Y-78503325D01*
X175939117Y-78570000D01*
X176280883Y-78570000D01*
X176616081Y-78503325D01*
X176931831Y-78372537D01*
X177215998Y-78182663D01*
X177457663Y-77940998D01*
X177647537Y-77656831D01*
X177778325Y-77341081D01*
X177845000Y-77005883D01*
X177845000Y-76664117D01*
X177827369Y-76575475D01*
X178975000Y-76575475D01*
X178975000Y-77094525D01*
X179076261Y-77603601D01*
X179274893Y-78083141D01*
X179563262Y-78514715D01*
X179930285Y-78881738D01*
X180361859Y-79170107D01*
X180841399Y-79368739D01*
X181350475Y-79470000D01*
X181869525Y-79470000D01*
X182378601Y-79368739D01*
X182858141Y-79170107D01*
X183289715Y-78881738D01*
X183656738Y-78514715D01*
X183945107Y-78083141D01*
X184143739Y-77603601D01*
X184245000Y-77094525D01*
X184245000Y-76664117D01*
X185375000Y-76664117D01*
X185375000Y-77005883D01*
X185441675Y-77341081D01*
X185572463Y-77656831D01*
X185762337Y-77940998D01*
X186004002Y-78182663D01*
X186288169Y-78372537D01*
X186603919Y-78503325D01*
X186939117Y-78570000D01*
X187280883Y-78570000D01*
X187616081Y-78503325D01*
X187931831Y-78372537D01*
X188215998Y-78182663D01*
X188457663Y-77940998D01*
X188647537Y-77656831D01*
X188778325Y-77341081D01*
X188845000Y-77005883D01*
X188845000Y-76664117D01*
X188778325Y-76328919D01*
X188647537Y-76013169D01*
X188457663Y-75729002D01*
X188215998Y-75487337D01*
X187931831Y-75297463D01*
X187616081Y-75166675D01*
X187280883Y-75100000D01*
X186939117Y-75100000D01*
X186603919Y-75166675D01*
X186288169Y-75297463D01*
X186004002Y-75487337D01*
X185762337Y-75729002D01*
X185572463Y-76013169D01*
X185441675Y-76328919D01*
X185375000Y-76664117D01*
X184245000Y-76664117D01*
X184245000Y-76575475D01*
X184143739Y-76066399D01*
X183945107Y-75586859D01*
X183656738Y-75155285D01*
X183289715Y-74788262D01*
X182858141Y-74499893D01*
X182378601Y-74301261D01*
X181869525Y-74200000D01*
X181350475Y-74200000D01*
X180841399Y-74301261D01*
X180361859Y-74499893D01*
X179930285Y-74788262D01*
X179563262Y-75155285D01*
X179274893Y-75586859D01*
X179076261Y-76066399D01*
X178975000Y-76575475D01*
X177827369Y-76575475D01*
X177778325Y-76328919D01*
X177647537Y-76013169D01*
X177457663Y-75729002D01*
X177215998Y-75487337D01*
X176931831Y-75297463D01*
X176616081Y-75166675D01*
X176280883Y-75100000D01*
X175939117Y-75100000D01*
X175603919Y-75166675D01*
X175288169Y-75297463D01*
X175004002Y-75487337D01*
X174762337Y-75729002D01*
X174572463Y-76013169D01*
X174441675Y-76328919D01*
X174375000Y-76664117D01*
X168525000Y-76664117D01*
X168458325Y-76328919D01*
X168327537Y-76013169D01*
X168137663Y-75729002D01*
X167895998Y-75487337D01*
X167611831Y-75297463D01*
X167296081Y-75166675D01*
X166960883Y-75100000D01*
X166619117Y-75100000D01*
X166283919Y-75166675D01*
X165968169Y-75297463D01*
X165684002Y-75487337D01*
X165442337Y-75729002D01*
X165252463Y-76013169D01*
X165121675Y-76328919D01*
X165055000Y-76664117D01*
X163925000Y-76664117D01*
X163925000Y-76575475D01*
X163823739Y-76066399D01*
X163625107Y-75586859D01*
X163336738Y-75155285D01*
X162969715Y-74788262D01*
X162538141Y-74499893D01*
X162058601Y-74301261D01*
X161549525Y-74200000D01*
X161030475Y-74200000D01*
X160521399Y-74301261D01*
X160041859Y-74499893D01*
X159610285Y-74788262D01*
X159243262Y-75155285D01*
X158954893Y-75586859D01*
X158756261Y-76066399D01*
X158655000Y-76575475D01*
X157507369Y-76575475D01*
X157458325Y-76328919D01*
X157327537Y-76013169D01*
X157137663Y-75729002D01*
X156895998Y-75487337D01*
X156611831Y-75297463D01*
X156296081Y-75166675D01*
X155960883Y-75100000D01*
X155619117Y-75100000D01*
X155283919Y-75166675D01*
X154968169Y-75297463D01*
X154684002Y-75487337D01*
X154442337Y-75729002D01*
X154252463Y-76013169D01*
X154121675Y-76328919D01*
X154055000Y-76664117D01*
X148205000Y-76664117D01*
X148138325Y-76328919D01*
X148007537Y-76013169D01*
X147817663Y-75729002D01*
X147575998Y-75487337D01*
X147291831Y-75297463D01*
X146976081Y-75166675D01*
X146640883Y-75100000D01*
X146299117Y-75100000D01*
X145963919Y-75166675D01*
X145648169Y-75297463D01*
X145364002Y-75487337D01*
X145122337Y-75729002D01*
X144932463Y-76013169D01*
X144801675Y-76328919D01*
X144735000Y-76664117D01*
X143605000Y-76664117D01*
X143605000Y-76575475D01*
X143503739Y-76066399D01*
X143305107Y-75586859D01*
X143016738Y-75155285D01*
X142649715Y-74788262D01*
X142218141Y-74499893D01*
X141738601Y-74301261D01*
X141229525Y-74200000D01*
X140710475Y-74200000D01*
X140201399Y-74301261D01*
X139721859Y-74499893D01*
X139290285Y-74788262D01*
X138923262Y-75155285D01*
X138634893Y-75586859D01*
X138436261Y-76066399D01*
X138335000Y-76575475D01*
X137187369Y-76575475D01*
X137138325Y-76328919D01*
X137007537Y-76013169D01*
X136817663Y-75729002D01*
X136575998Y-75487337D01*
X136291831Y-75297463D01*
X135976081Y-75166675D01*
X135640883Y-75100000D01*
X135299117Y-75100000D01*
X134963919Y-75166675D01*
X134648169Y-75297463D01*
X134364002Y-75487337D01*
X134122337Y-75729002D01*
X133932463Y-76013169D01*
X133801675Y-76328919D01*
X133735000Y-76664117D01*
X132207000Y-76664117D01*
X132207000Y-72864117D01*
X144235000Y-72864117D01*
X144235000Y-73205883D01*
X144301675Y-73541081D01*
X144432463Y-73856831D01*
X144622337Y-74140998D01*
X144864002Y-74382663D01*
X145148169Y-74572537D01*
X145463919Y-74703325D01*
X145799117Y-74770000D01*
X146140883Y-74770000D01*
X146476081Y-74703325D01*
X146791831Y-74572537D01*
X147075998Y-74382663D01*
X147317663Y-74140998D01*
X147507537Y-73856831D01*
X147533148Y-73795000D01*
X164726852Y-73795000D01*
X164752463Y-73856831D01*
X164942337Y-74140998D01*
X165184002Y-74382663D01*
X165468169Y-74572537D01*
X165783919Y-74703325D01*
X166119117Y-74770000D01*
X166460883Y-74770000D01*
X166796081Y-74703325D01*
X167111831Y-74572537D01*
X167395998Y-74382663D01*
X167637663Y-74140998D01*
X167827537Y-73856831D01*
X167853148Y-73795000D01*
X185046852Y-73795000D01*
X185072463Y-73856831D01*
X185262337Y-74140998D01*
X185504002Y-74382663D01*
X185788169Y-74572537D01*
X186103919Y-74703325D01*
X186439117Y-74770000D01*
X186780883Y-74770000D01*
X187116081Y-74703325D01*
X187431831Y-74572537D01*
X187715998Y-74382663D01*
X187957663Y-74140998D01*
X188147537Y-73856831D01*
X188278325Y-73541081D01*
X188345000Y-73205883D01*
X188345000Y-72864117D01*
X188278325Y-72528919D01*
X188147537Y-72213169D01*
X187957663Y-71929002D01*
X187715998Y-71687337D01*
X187431831Y-71497463D01*
X187116081Y-71366675D01*
X186780883Y-71300000D01*
X186439117Y-71300000D01*
X186103919Y-71366675D01*
X185788169Y-71497463D01*
X185504002Y-71687337D01*
X185262337Y-71929002D01*
X185072463Y-72213169D01*
X185046852Y-72275000D01*
X182723661Y-72275000D01*
X182957663Y-72040998D01*
X183147537Y-71756831D01*
X183278325Y-71441081D01*
X183345000Y-71105883D01*
X183345000Y-70764117D01*
X183278325Y-70428919D01*
X183147537Y-70113169D01*
X182957663Y-69829002D01*
X182715998Y-69587337D01*
X182431831Y-69397463D01*
X182116081Y-69266675D01*
X181780883Y-69200000D01*
X181439117Y-69200000D01*
X181103919Y-69266675D01*
X180788169Y-69397463D01*
X180504002Y-69587337D01*
X180262337Y-69829002D01*
X180072463Y-70113169D01*
X179941675Y-70428919D01*
X179875000Y-70764117D01*
X179875000Y-71105883D01*
X179941675Y-71441081D01*
X180072463Y-71756831D01*
X180262337Y-72040998D01*
X180496339Y-72275000D01*
X167853148Y-72275000D01*
X167827537Y-72213169D01*
X167637663Y-71929002D01*
X167395998Y-71687337D01*
X167111831Y-71497463D01*
X166796081Y-71366675D01*
X166460883Y-71300000D01*
X166119117Y-71300000D01*
X165783919Y-71366675D01*
X165468169Y-71497463D01*
X165184002Y-71687337D01*
X164942337Y-71929002D01*
X164752463Y-72213169D01*
X164726852Y-72275000D01*
X162403661Y-72275000D01*
X162637663Y-72040998D01*
X162827537Y-71756831D01*
X162958325Y-71441081D01*
X163025000Y-71105883D01*
X163025000Y-70764117D01*
X162958325Y-70428919D01*
X162827537Y-70113169D01*
X162637663Y-69829002D01*
X162395998Y-69587337D01*
X162111831Y-69397463D01*
X161796081Y-69266675D01*
X161460883Y-69200000D01*
X161119117Y-69200000D01*
X160783919Y-69266675D01*
X160468169Y-69397463D01*
X160184002Y-69587337D01*
X159942337Y-69829002D01*
X159752463Y-70113169D01*
X159621675Y-70428919D01*
X159555000Y-70764117D01*
X159555000Y-71105883D01*
X159621675Y-71441081D01*
X159752463Y-71756831D01*
X159942337Y-72040998D01*
X160176339Y-72275000D01*
X147533148Y-72275000D01*
X147507537Y-72213169D01*
X147317663Y-71929002D01*
X147075998Y-71687337D01*
X146791831Y-71497463D01*
X146476081Y-71366675D01*
X146140883Y-71300000D01*
X145799117Y-71300000D01*
X145463919Y-71366675D01*
X145148169Y-71497463D01*
X144864002Y-71687337D01*
X144622337Y-71929002D01*
X144432463Y-72213169D01*
X144301675Y-72528919D01*
X144235000Y-72864117D01*
X132207000Y-72864117D01*
X132207000Y-70764117D01*
X139235000Y-70764117D01*
X139235000Y-71105883D01*
X139301675Y-71441081D01*
X139432463Y-71756831D01*
X139622337Y-72040998D01*
X139864002Y-72282663D01*
X140148169Y-72472537D01*
X140463919Y-72603325D01*
X140799117Y-72670000D01*
X141140883Y-72670000D01*
X141476081Y-72603325D01*
X141791831Y-72472537D01*
X142075998Y-72282663D01*
X142317663Y-72040998D01*
X142507537Y-71756831D01*
X142638325Y-71441081D01*
X142705000Y-71105883D01*
X142705000Y-70764117D01*
X142638325Y-70428919D01*
X142507537Y-70113169D01*
X142317663Y-69829002D01*
X142075998Y-69587337D01*
X141791831Y-69397463D01*
X141476081Y-69266675D01*
X141140883Y-69200000D01*
X140799117Y-69200000D01*
X140463919Y-69266675D01*
X140148169Y-69397463D01*
X139864002Y-69587337D01*
X139622337Y-69829002D01*
X139432463Y-70113169D01*
X139301675Y-70428919D01*
X139235000Y-70764117D01*
X132207000Y-70764117D01*
X132207000Y-66577408D01*
X147193000Y-66577408D01*
X147193000Y-66852592D01*
X147246686Y-67122490D01*
X147351995Y-67376727D01*
X147504880Y-67605535D01*
X147699465Y-67800120D01*
X147928273Y-67953005D01*
X148182510Y-68058314D01*
X148452408Y-68112000D01*
X148727592Y-68112000D01*
X148997490Y-68058314D01*
X149251727Y-67953005D01*
X149480535Y-67800120D01*
X149675120Y-67605535D01*
X149828005Y-67376727D01*
X149933314Y-67122490D01*
X149987000Y-66852592D01*
X149987000Y-66577408D01*
X152273000Y-66577408D01*
X152273000Y-66852592D01*
X152326686Y-67122490D01*
X152431995Y-67376727D01*
X152584880Y-67605535D01*
X152779465Y-67800120D01*
X153008273Y-67953005D01*
X153262510Y-68058314D01*
X153532408Y-68112000D01*
X153807592Y-68112000D01*
X154077490Y-68058314D01*
X154331727Y-67953005D01*
X154560535Y-67800120D01*
X154755120Y-67605535D01*
X154908005Y-67376727D01*
X155013314Y-67122490D01*
X155067000Y-66852592D01*
X155067000Y-66577408D01*
X155030324Y-66393021D01*
X156955000Y-66393021D01*
X156955000Y-66956978D01*
X156971785Y-67127399D01*
X157038115Y-67346059D01*
X157145829Y-67547578D01*
X157290788Y-67724212D01*
X157467421Y-67869171D01*
X157668940Y-67976885D01*
X157887600Y-68043215D01*
X158115000Y-68065612D01*
X158342399Y-68043215D01*
X158561059Y-67976885D01*
X158750000Y-67875894D01*
X158938940Y-67976885D01*
X159157600Y-68043215D01*
X159385000Y-68065612D01*
X159612399Y-68043215D01*
X159821098Y-67979907D01*
X159885820Y-68014502D01*
X160005518Y-68050812D01*
X160130000Y-68063072D01*
X160369250Y-68060000D01*
X160528000Y-67901250D01*
X160528000Y-67128109D01*
X160528215Y-67127400D01*
X160545000Y-66956979D01*
X160545000Y-66802000D01*
X160782000Y-66802000D01*
X160782000Y-67901250D01*
X160940750Y-68060000D01*
X161180000Y-68063072D01*
X161304482Y-68050812D01*
X161424180Y-68014502D01*
X161534494Y-67955537D01*
X161631185Y-67876185D01*
X161710537Y-67779494D01*
X161769502Y-67669180D01*
X161805812Y-67549482D01*
X161818072Y-67425000D01*
X161815000Y-66960750D01*
X161656250Y-66802000D01*
X160782000Y-66802000D01*
X160545000Y-66802000D01*
X160545000Y-66528000D01*
X160782000Y-66528000D01*
X160782000Y-66548000D01*
X161656250Y-66548000D01*
X161815000Y-66389250D01*
X161815196Y-66359700D01*
X163991089Y-66359700D01*
X164035026Y-66403637D01*
X164204544Y-66516905D01*
X164392902Y-66594926D01*
X164592861Y-66634700D01*
X164796739Y-66634700D01*
X164996698Y-66594926D01*
X165185056Y-66516905D01*
X165354574Y-66403637D01*
X165498737Y-66259474D01*
X165612005Y-66089956D01*
X165690026Y-65901598D01*
X165729800Y-65701639D01*
X165729800Y-65497761D01*
X165690026Y-65297802D01*
X165612005Y-65109444D01*
X165498737Y-64939926D01*
X165354574Y-64795763D01*
X165185056Y-64682495D01*
X164996698Y-64604474D01*
X164796739Y-64564700D01*
X164592861Y-64564700D01*
X164392902Y-64604474D01*
X164204544Y-64682495D01*
X164035026Y-64795763D01*
X163991089Y-64839700D01*
X158152333Y-64839700D01*
X158115000Y-64836023D01*
X158077667Y-64839700D01*
X157966014Y-64850697D01*
X157822753Y-64894154D01*
X157690724Y-64964726D01*
X157574999Y-65059699D01*
X157480026Y-65175424D01*
X157409454Y-65307453D01*
X157365997Y-65450714D01*
X157353851Y-65574034D01*
X157290789Y-65625788D01*
X157145830Y-65802421D01*
X157038115Y-66003940D01*
X156971785Y-66222600D01*
X156955000Y-66393021D01*
X155030324Y-66393021D01*
X155013314Y-66307510D01*
X154908005Y-66053273D01*
X154755120Y-65824465D01*
X154560535Y-65629880D01*
X154331727Y-65476995D01*
X154077490Y-65371686D01*
X153807592Y-65318000D01*
X153532408Y-65318000D01*
X153262510Y-65371686D01*
X153008273Y-65476995D01*
X152779465Y-65629880D01*
X152584880Y-65824465D01*
X152431995Y-66053273D01*
X152326686Y-66307510D01*
X152273000Y-66577408D01*
X149987000Y-66577408D01*
X149933314Y-66307510D01*
X149828005Y-66053273D01*
X149675120Y-65824465D01*
X149480535Y-65629880D01*
X149251727Y-65476995D01*
X148997490Y-65371686D01*
X148727592Y-65318000D01*
X148452408Y-65318000D01*
X148182510Y-65371686D01*
X147928273Y-65476995D01*
X147699465Y-65629880D01*
X147504880Y-65824465D01*
X147351995Y-66053273D01*
X147246686Y-66307510D01*
X147193000Y-66577408D01*
X132207000Y-66577408D01*
X132207000Y-56344117D01*
X133735000Y-56344117D01*
X133735000Y-56685883D01*
X133801675Y-57021081D01*
X133932463Y-57336831D01*
X134122337Y-57620998D01*
X134364002Y-57862663D01*
X134648169Y-58052537D01*
X134963919Y-58183325D01*
X135299117Y-58250000D01*
X135640883Y-58250000D01*
X135976081Y-58183325D01*
X136291831Y-58052537D01*
X136575998Y-57862663D01*
X136817663Y-57620998D01*
X137007537Y-57336831D01*
X137138325Y-57021081D01*
X137205000Y-56685883D01*
X137205000Y-56344117D01*
X137187369Y-56255475D01*
X138335000Y-56255475D01*
X138335000Y-56774525D01*
X138436261Y-57283601D01*
X138634893Y-57763141D01*
X138923262Y-58194715D01*
X139290285Y-58561738D01*
X139721859Y-58850107D01*
X140201399Y-59048739D01*
X140710475Y-59150000D01*
X141229525Y-59150000D01*
X141738601Y-59048739D01*
X142218141Y-58850107D01*
X142649715Y-58561738D01*
X143016738Y-58194715D01*
X143305107Y-57763141D01*
X143503739Y-57283601D01*
X143605000Y-56774525D01*
X143605000Y-56344117D01*
X144735000Y-56344117D01*
X144735000Y-56685883D01*
X144801675Y-57021081D01*
X144932463Y-57336831D01*
X145122337Y-57620998D01*
X145364002Y-57862663D01*
X145648169Y-58052537D01*
X145963919Y-58183325D01*
X146299117Y-58250000D01*
X146640883Y-58250000D01*
X146976081Y-58183325D01*
X147291831Y-58052537D01*
X147575998Y-57862663D01*
X147794996Y-57643665D01*
X149695000Y-57643665D01*
X149695000Y-57926335D01*
X149750147Y-58203574D01*
X149858320Y-58464727D01*
X150015363Y-58699759D01*
X150215241Y-58899637D01*
X150450273Y-59056680D01*
X150711426Y-59164853D01*
X150988665Y-59220000D01*
X151271335Y-59220000D01*
X151548574Y-59164853D01*
X151809727Y-59056680D01*
X152044759Y-58899637D01*
X152244637Y-58699759D01*
X152401680Y-58464727D01*
X152509853Y-58203574D01*
X152565000Y-57926335D01*
X152565000Y-57643665D01*
X152509853Y-57366426D01*
X152401680Y-57105273D01*
X152244637Y-56870241D01*
X152044759Y-56670363D01*
X151809727Y-56513320D01*
X151548574Y-56405147D01*
X151271335Y-56350000D01*
X150988665Y-56350000D01*
X150711426Y-56405147D01*
X150450273Y-56513320D01*
X150215241Y-56670363D01*
X150015363Y-56870241D01*
X149858320Y-57105273D01*
X149750147Y-57366426D01*
X149695000Y-57643665D01*
X147794996Y-57643665D01*
X147817663Y-57620998D01*
X148007537Y-57336831D01*
X148138325Y-57021081D01*
X148205000Y-56685883D01*
X148205000Y-56344117D01*
X154055000Y-56344117D01*
X154055000Y-56685883D01*
X154121675Y-57021081D01*
X154252463Y-57336831D01*
X154442337Y-57620998D01*
X154684002Y-57862663D01*
X154968169Y-58052537D01*
X155283919Y-58183325D01*
X155619117Y-58250000D01*
X155960883Y-58250000D01*
X156296081Y-58183325D01*
X156611831Y-58052537D01*
X156895998Y-57862663D01*
X157137663Y-57620998D01*
X157327537Y-57336831D01*
X157458325Y-57021081D01*
X157525000Y-56685883D01*
X157525000Y-56344117D01*
X157458325Y-56008919D01*
X157327537Y-55693169D01*
X157137663Y-55409002D01*
X156895998Y-55167337D01*
X156611831Y-54977463D01*
X156296081Y-54846675D01*
X155960883Y-54780000D01*
X155619117Y-54780000D01*
X155283919Y-54846675D01*
X154968169Y-54977463D01*
X154684002Y-55167337D01*
X154442337Y-55409002D01*
X154252463Y-55693169D01*
X154121675Y-56008919D01*
X154055000Y-56344117D01*
X148205000Y-56344117D01*
X148138325Y-56008919D01*
X148007537Y-55693169D01*
X147817663Y-55409002D01*
X147575998Y-55167337D01*
X147291831Y-54977463D01*
X146976081Y-54846675D01*
X146640883Y-54780000D01*
X146299117Y-54780000D01*
X145963919Y-54846675D01*
X145648169Y-54977463D01*
X145364002Y-55167337D01*
X145122337Y-55409002D01*
X144932463Y-55693169D01*
X144801675Y-56008919D01*
X144735000Y-56344117D01*
X143605000Y-56344117D01*
X143605000Y-56255475D01*
X143503739Y-55746399D01*
X143305107Y-55266859D01*
X143016738Y-54835285D01*
X142649715Y-54468262D01*
X142218141Y-54179893D01*
X141738601Y-53981261D01*
X141229525Y-53880000D01*
X140710475Y-53880000D01*
X140201399Y-53981261D01*
X139721859Y-54179893D01*
X139290285Y-54468262D01*
X138923262Y-54835285D01*
X138634893Y-55266859D01*
X138436261Y-55746399D01*
X138335000Y-56255475D01*
X137187369Y-56255475D01*
X137138325Y-56008919D01*
X137007537Y-55693169D01*
X136817663Y-55409002D01*
X136575998Y-55167337D01*
X136291831Y-54977463D01*
X135976081Y-54846675D01*
X135640883Y-54780000D01*
X135299117Y-54780000D01*
X134963919Y-54846675D01*
X134648169Y-54977463D01*
X134364002Y-55167337D01*
X134122337Y-55409002D01*
X133932463Y-55693169D01*
X133801675Y-56008919D01*
X133735000Y-56344117D01*
X132207000Y-56344117D01*
X132207000Y-45720000D01*
X132204560Y-45695224D01*
X132197333Y-45671399D01*
X132185597Y-45649443D01*
X132169803Y-45630197D01*
X132150557Y-45614403D01*
X132128601Y-45602667D01*
X132104776Y-45595440D01*
X132080000Y-45593000D01*
X127687606Y-45593000D01*
X126492000Y-44397394D01*
X126492000Y-28210000D01*
X126875928Y-28210000D01*
X126875928Y-30210000D01*
X126888188Y-30334482D01*
X126924498Y-30454180D01*
X126983463Y-30564494D01*
X127062815Y-30661185D01*
X127079001Y-30674468D01*
X127079000Y-32825532D01*
X127062815Y-32838815D01*
X126983463Y-32935506D01*
X126924498Y-33045820D01*
X126888188Y-33165518D01*
X126875928Y-33290000D01*
X126875928Y-35290000D01*
X126888188Y-35414482D01*
X126924498Y-35534180D01*
X126983463Y-35644494D01*
X127062815Y-35741185D01*
X127079001Y-35754468D01*
X127079000Y-36635532D01*
X127062815Y-36648815D01*
X126983463Y-36745506D01*
X126924498Y-36855820D01*
X126888188Y-36975518D01*
X126875928Y-37100000D01*
X126875928Y-39100000D01*
X126888188Y-39224482D01*
X126924498Y-39344180D01*
X126983463Y-39454494D01*
X127062815Y-39551185D01*
X127079001Y-39564468D01*
X127079000Y-41715532D01*
X127062815Y-41728815D01*
X126983463Y-41825506D01*
X126924498Y-41935820D01*
X126888188Y-42055518D01*
X126875928Y-42180000D01*
X126875928Y-44180000D01*
X126888188Y-44304482D01*
X126924498Y-44424180D01*
X126983463Y-44534494D01*
X127062815Y-44631185D01*
X127078933Y-44644413D01*
X127090720Y-44764088D01*
X127137037Y-44916773D01*
X127212251Y-45057489D01*
X127313472Y-45180828D01*
X127436811Y-45282049D01*
X127577527Y-45357263D01*
X127730212Y-45403580D01*
X127849209Y-45415300D01*
X127889000Y-45419219D01*
X127928791Y-45415300D01*
X139339188Y-45415300D01*
X139426500Y-45502612D01*
X139451872Y-45533528D01*
X139575211Y-45634749D01*
X139715927Y-45709963D01*
X139868612Y-45756280D01*
X139987609Y-45768000D01*
X139987611Y-45768000D01*
X140027399Y-45771919D01*
X140067187Y-45768000D01*
X147063982Y-45768000D01*
X147138815Y-45859185D01*
X147235506Y-45938537D01*
X147345820Y-45997502D01*
X147465518Y-46033812D01*
X147590000Y-46046072D01*
X149590000Y-46046072D01*
X149714482Y-46033812D01*
X149834180Y-45997502D01*
X149883127Y-45971339D01*
X150289705Y-46377918D01*
X150315072Y-46408828D01*
X150374277Y-46457416D01*
X150438410Y-46510049D01*
X150466704Y-46525172D01*
X150537490Y-46563008D01*
X149864040Y-47236459D01*
X149834180Y-47220498D01*
X149714482Y-47184188D01*
X149590000Y-47171928D01*
X147590000Y-47171928D01*
X147465518Y-47184188D01*
X147345820Y-47220498D01*
X147235506Y-47279463D01*
X147138815Y-47358815D01*
X147059463Y-47455506D01*
X147000498Y-47565820D01*
X146964188Y-47685518D01*
X146951928Y-47810000D01*
X146951928Y-48275400D01*
X142586925Y-48275400D01*
X142549600Y-48271724D01*
X142512275Y-48275400D01*
X142512267Y-48275400D01*
X142400614Y-48286397D01*
X142257353Y-48329854D01*
X142125324Y-48400426D01*
X142009599Y-48495399D01*
X141985801Y-48524397D01*
X141537912Y-48972286D01*
X141476081Y-48946675D01*
X141140883Y-48880000D01*
X140799117Y-48880000D01*
X140463919Y-48946675D01*
X140148169Y-49077463D01*
X139864002Y-49267337D01*
X139622337Y-49509002D01*
X139432463Y-49793169D01*
X139301675Y-50108919D01*
X139235000Y-50444117D01*
X139235000Y-50785883D01*
X139301675Y-51121081D01*
X139432463Y-51436831D01*
X139622337Y-51720998D01*
X139864002Y-51962663D01*
X140148169Y-52152537D01*
X140463919Y-52283325D01*
X140799117Y-52350000D01*
X141140883Y-52350000D01*
X141476081Y-52283325D01*
X141791831Y-52152537D01*
X142075998Y-51962663D01*
X142317663Y-51720998D01*
X142507537Y-51436831D01*
X142638325Y-51121081D01*
X142705000Y-50785883D01*
X142705000Y-50444117D01*
X142638325Y-50108919D01*
X142612714Y-50047088D01*
X142864402Y-49795400D01*
X159751539Y-49795400D01*
X159621675Y-50108919D01*
X159555000Y-50444117D01*
X159555000Y-50785883D01*
X159621675Y-51121081D01*
X159752463Y-51436831D01*
X159942337Y-51720998D01*
X160184002Y-51962663D01*
X160468169Y-52152537D01*
X160783919Y-52283325D01*
X161119117Y-52350000D01*
X161460883Y-52350000D01*
X161796081Y-52283325D01*
X162111831Y-52152537D01*
X162395998Y-51962663D01*
X162637663Y-51720998D01*
X162827537Y-51436831D01*
X162958325Y-51121081D01*
X163025000Y-50785883D01*
X163025000Y-50444117D01*
X162958325Y-50108919D01*
X162828461Y-49795400D01*
X166659589Y-49795400D01*
X166703526Y-49839337D01*
X166873044Y-49952605D01*
X167061402Y-50030626D01*
X167261361Y-50070400D01*
X167465239Y-50070400D01*
X167665198Y-50030626D01*
X167853556Y-49952605D01*
X168023074Y-49839337D01*
X168167237Y-49695174D01*
X168280505Y-49525656D01*
X168354063Y-49348072D01*
X169910000Y-49348072D01*
X170034482Y-49335812D01*
X170154180Y-49299502D01*
X170184040Y-49283541D01*
X172212101Y-51311603D01*
X172235899Y-51340601D01*
X172264897Y-51364399D01*
X172351623Y-51435574D01*
X172483653Y-51506146D01*
X172626914Y-51549603D01*
X172738567Y-51560600D01*
X172738577Y-51560600D01*
X172775900Y-51564276D01*
X172813223Y-51560600D01*
X176766889Y-51560600D01*
X176810826Y-51604537D01*
X176980344Y-51717805D01*
X177168702Y-51795826D01*
X177368661Y-51835600D01*
X177572539Y-51835600D01*
X177772498Y-51795826D01*
X177960856Y-51717805D01*
X178130374Y-51604537D01*
X178274537Y-51460374D01*
X178387805Y-51290856D01*
X178465826Y-51102498D01*
X178505600Y-50902539D01*
X178505600Y-50795300D01*
X179876873Y-50795300D01*
X179941675Y-51121081D01*
X180072463Y-51436831D01*
X180262337Y-51720998D01*
X180496339Y-51955000D01*
X167853148Y-51955000D01*
X167827537Y-51893169D01*
X167637663Y-51609002D01*
X167395998Y-51367337D01*
X167111831Y-51177463D01*
X166796081Y-51046675D01*
X166460883Y-50980000D01*
X166119117Y-50980000D01*
X165783919Y-51046675D01*
X165468169Y-51177463D01*
X165184002Y-51367337D01*
X164942337Y-51609002D01*
X164752463Y-51893169D01*
X164621675Y-52208919D01*
X164555000Y-52544117D01*
X164555000Y-52885883D01*
X164591703Y-53070400D01*
X152568072Y-53070400D01*
X152568072Y-51905000D01*
X152555812Y-51780518D01*
X152519502Y-51660820D01*
X152460537Y-51550506D01*
X152381185Y-51453815D01*
X152284494Y-51374463D01*
X152174180Y-51315498D01*
X152054482Y-51279188D01*
X151930000Y-51266928D01*
X150330000Y-51266928D01*
X150205518Y-51279188D01*
X150085820Y-51315498D01*
X149975506Y-51374463D01*
X149878815Y-51453815D01*
X149799463Y-51550506D01*
X149740498Y-51660820D01*
X149704188Y-51780518D01*
X149691928Y-51905000D01*
X149691928Y-53070400D01*
X147668297Y-53070400D01*
X147705000Y-52885883D01*
X147705000Y-52544117D01*
X147638325Y-52208919D01*
X147507537Y-51893169D01*
X147317663Y-51609002D01*
X147075998Y-51367337D01*
X146791831Y-51177463D01*
X146476081Y-51046675D01*
X146140883Y-50980000D01*
X145799117Y-50980000D01*
X145463919Y-51046675D01*
X145148169Y-51177463D01*
X144864002Y-51367337D01*
X144622337Y-51609002D01*
X144432463Y-51893169D01*
X144301675Y-52208919D01*
X144235000Y-52544117D01*
X144235000Y-52885883D01*
X144301675Y-53221081D01*
X144432463Y-53536831D01*
X144622337Y-53820998D01*
X144864002Y-54062663D01*
X145148169Y-54252537D01*
X145463919Y-54383325D01*
X145799117Y-54450000D01*
X146140883Y-54450000D01*
X146476081Y-54383325D01*
X146535729Y-54358618D01*
X146545399Y-54370401D01*
X146661124Y-54465374D01*
X146793153Y-54535946D01*
X146936414Y-54579403D01*
X147048067Y-54590400D01*
X147048077Y-54590400D01*
X147085400Y-54594076D01*
X147122723Y-54590400D01*
X159488147Y-54590400D01*
X159243262Y-54835285D01*
X158954893Y-55266859D01*
X158756261Y-55746399D01*
X158655000Y-56255475D01*
X158655000Y-56774525D01*
X158756261Y-57283601D01*
X158954893Y-57763141D01*
X159243262Y-58194715D01*
X159610285Y-58561738D01*
X160041859Y-58850107D01*
X160521399Y-59048739D01*
X161030475Y-59150000D01*
X161549525Y-59150000D01*
X162058601Y-59048739D01*
X162538141Y-58850107D01*
X162969715Y-58561738D01*
X163336738Y-58194715D01*
X163625107Y-57763141D01*
X163823739Y-57283601D01*
X163925000Y-56774525D01*
X163925000Y-56344117D01*
X165055000Y-56344117D01*
X165055000Y-56685883D01*
X165121675Y-57021081D01*
X165252463Y-57336831D01*
X165442337Y-57620998D01*
X165684002Y-57862663D01*
X165968169Y-58052537D01*
X166283919Y-58183325D01*
X166619117Y-58250000D01*
X166960883Y-58250000D01*
X167296081Y-58183325D01*
X167611831Y-58052537D01*
X167895998Y-57862663D01*
X168137663Y-57620998D01*
X168327537Y-57336831D01*
X168458325Y-57021081D01*
X168525000Y-56685883D01*
X168525000Y-56344117D01*
X174375000Y-56344117D01*
X174375000Y-56685883D01*
X174441675Y-57021081D01*
X174572463Y-57336831D01*
X174762337Y-57620998D01*
X175004002Y-57862663D01*
X175288169Y-58052537D01*
X175603919Y-58183325D01*
X175939117Y-58250000D01*
X176280883Y-58250000D01*
X176616081Y-58183325D01*
X176931831Y-58052537D01*
X177215998Y-57862663D01*
X177457663Y-57620998D01*
X177647537Y-57336831D01*
X177778325Y-57021081D01*
X177845000Y-56685883D01*
X177845000Y-56344117D01*
X177827369Y-56255475D01*
X178975000Y-56255475D01*
X178975000Y-56774525D01*
X179076261Y-57283601D01*
X179274893Y-57763141D01*
X179563262Y-58194715D01*
X179930285Y-58561738D01*
X180361859Y-58850107D01*
X180841399Y-59048739D01*
X181350475Y-59150000D01*
X181869525Y-59150000D01*
X182378601Y-59048739D01*
X182858141Y-58850107D01*
X183289715Y-58561738D01*
X183656738Y-58194715D01*
X183945107Y-57763141D01*
X184143739Y-57283601D01*
X184245000Y-56774525D01*
X184245000Y-56344117D01*
X185375000Y-56344117D01*
X185375000Y-56685883D01*
X185441675Y-57021081D01*
X185572463Y-57336831D01*
X185762337Y-57620998D01*
X186004002Y-57862663D01*
X186288169Y-58052537D01*
X186603919Y-58183325D01*
X186939117Y-58250000D01*
X187280883Y-58250000D01*
X187616081Y-58183325D01*
X187931831Y-58052537D01*
X188215998Y-57862663D01*
X188457663Y-57620998D01*
X188647537Y-57336831D01*
X188778325Y-57021081D01*
X188845000Y-56685883D01*
X188845000Y-56344117D01*
X188778325Y-56008919D01*
X188647537Y-55693169D01*
X188457663Y-55409002D01*
X188215998Y-55167337D01*
X187931831Y-54977463D01*
X187616081Y-54846675D01*
X187280883Y-54780000D01*
X186939117Y-54780000D01*
X186603919Y-54846675D01*
X186288169Y-54977463D01*
X186004002Y-55167337D01*
X185762337Y-55409002D01*
X185572463Y-55693169D01*
X185441675Y-56008919D01*
X185375000Y-56344117D01*
X184245000Y-56344117D01*
X184245000Y-56255475D01*
X184143739Y-55746399D01*
X183945107Y-55266859D01*
X183656738Y-54835285D01*
X183289715Y-54468262D01*
X182858141Y-54179893D01*
X182378601Y-53981261D01*
X181869525Y-53880000D01*
X181350475Y-53880000D01*
X180841399Y-53981261D01*
X180361859Y-54179893D01*
X179930285Y-54468262D01*
X179563262Y-54835285D01*
X179274893Y-55266859D01*
X179076261Y-55746399D01*
X178975000Y-56255475D01*
X177827369Y-56255475D01*
X177778325Y-56008919D01*
X177647537Y-55693169D01*
X177457663Y-55409002D01*
X177215998Y-55167337D01*
X176931831Y-54977463D01*
X176616081Y-54846675D01*
X176280883Y-54780000D01*
X175939117Y-54780000D01*
X175603919Y-54846675D01*
X175288169Y-54977463D01*
X175004002Y-55167337D01*
X174762337Y-55409002D01*
X174572463Y-55693169D01*
X174441675Y-56008919D01*
X174375000Y-56344117D01*
X168525000Y-56344117D01*
X168458325Y-56008919D01*
X168327537Y-55693169D01*
X168137663Y-55409002D01*
X167895998Y-55167337D01*
X167611831Y-54977463D01*
X167296081Y-54846675D01*
X166960883Y-54780000D01*
X166619117Y-54780000D01*
X166283919Y-54846675D01*
X165968169Y-54977463D01*
X165684002Y-55167337D01*
X165442337Y-55409002D01*
X165252463Y-55693169D01*
X165121675Y-56008919D01*
X165055000Y-56344117D01*
X163925000Y-56344117D01*
X163925000Y-56255475D01*
X163823739Y-55746399D01*
X163625107Y-55266859D01*
X163336738Y-54835285D01*
X163091853Y-54590400D01*
X165137278Y-54590400D01*
X165174600Y-54594076D01*
X165211922Y-54590400D01*
X165211933Y-54590400D01*
X165323586Y-54579403D01*
X165466847Y-54535946D01*
X165598876Y-54465374D01*
X165714601Y-54370401D01*
X165724271Y-54358618D01*
X165783919Y-54383325D01*
X166119117Y-54450000D01*
X166460883Y-54450000D01*
X166796081Y-54383325D01*
X167111831Y-54252537D01*
X167395998Y-54062663D01*
X167637663Y-53820998D01*
X167827537Y-53536831D01*
X167853148Y-53475000D01*
X185046852Y-53475000D01*
X185072463Y-53536831D01*
X185262337Y-53820998D01*
X185504002Y-54062663D01*
X185788169Y-54252537D01*
X186103919Y-54383325D01*
X186439117Y-54450000D01*
X186780883Y-54450000D01*
X187116081Y-54383325D01*
X187431831Y-54252537D01*
X187715998Y-54062663D01*
X187957663Y-53820998D01*
X188147537Y-53536831D01*
X188278325Y-53221081D01*
X188345000Y-52885883D01*
X188345000Y-52544117D01*
X188278325Y-52208919D01*
X188147537Y-51893169D01*
X187957663Y-51609002D01*
X187715998Y-51367337D01*
X187431831Y-51177463D01*
X187116081Y-51046675D01*
X186780883Y-50980000D01*
X186439117Y-50980000D01*
X186103919Y-51046675D01*
X185788169Y-51177463D01*
X185504002Y-51367337D01*
X185262337Y-51609002D01*
X185072463Y-51893169D01*
X185046852Y-51955000D01*
X182723661Y-51955000D01*
X182957663Y-51720998D01*
X183147537Y-51436831D01*
X183278325Y-51121081D01*
X183345000Y-50785883D01*
X183345000Y-50444117D01*
X183278325Y-50108919D01*
X183147537Y-49793169D01*
X182957663Y-49509002D01*
X182715998Y-49267337D01*
X182431831Y-49077463D01*
X182116081Y-48946675D01*
X181780883Y-48880000D01*
X181439117Y-48880000D01*
X181103919Y-48946675D01*
X180788169Y-49077463D01*
X180504002Y-49267337D01*
X180496039Y-49275300D01*
X175279458Y-49275300D01*
X175344494Y-49240537D01*
X175441185Y-49161185D01*
X175520537Y-49064494D01*
X175579502Y-48954180D01*
X175615812Y-48834482D01*
X175628072Y-48710000D01*
X175625000Y-48545750D01*
X175466250Y-48387000D01*
X174117000Y-48387000D01*
X174117000Y-48407000D01*
X173863000Y-48407000D01*
X173863000Y-48387000D01*
X172513750Y-48387000D01*
X172355000Y-48545750D01*
X172351928Y-48710000D01*
X172364188Y-48834482D01*
X172400498Y-48954180D01*
X172459463Y-49064494D01*
X172538815Y-49161185D01*
X172635506Y-49240537D01*
X172745820Y-49299502D01*
X172865518Y-49335812D01*
X172962159Y-49345330D01*
X172931963Y-49375526D01*
X172818695Y-49545044D01*
X172753219Y-49703117D01*
X170799104Y-47749003D01*
X170775301Y-47719999D01*
X170659576Y-47625026D01*
X170527547Y-47554454D01*
X170486824Y-47542101D01*
X170440537Y-47455506D01*
X170439137Y-47453800D01*
X170891578Y-47453800D01*
X170928900Y-47457476D01*
X170966222Y-47453800D01*
X170966233Y-47453800D01*
X171077886Y-47442803D01*
X171221147Y-47399346D01*
X171353176Y-47328774D01*
X171468901Y-47233801D01*
X171492704Y-47204797D01*
X172177700Y-46519801D01*
X172177700Y-46605039D01*
X172217474Y-46804998D01*
X172295495Y-46993356D01*
X172408763Y-47162874D01*
X172552926Y-47307037D01*
X172579925Y-47325077D01*
X172538815Y-47358815D01*
X172459463Y-47455506D01*
X172400498Y-47565820D01*
X172364188Y-47685518D01*
X172351928Y-47810000D01*
X172355000Y-47974250D01*
X172513750Y-48133000D01*
X173863000Y-48133000D01*
X173863000Y-48113000D01*
X174117000Y-48113000D01*
X174117000Y-48133000D01*
X175466250Y-48133000D01*
X175625000Y-47974250D01*
X175628072Y-47810000D01*
X175615812Y-47685518D01*
X175579502Y-47565820D01*
X175520537Y-47455506D01*
X175441185Y-47358815D01*
X175344494Y-47279463D01*
X175313881Y-47263100D01*
X178852878Y-47263100D01*
X178890200Y-47266776D01*
X178927522Y-47263100D01*
X178927533Y-47263100D01*
X179039186Y-47252103D01*
X179182447Y-47208646D01*
X179314476Y-47138074D01*
X179430201Y-47043101D01*
X179454004Y-47014097D01*
X189520704Y-36947398D01*
X189549701Y-36923601D01*
X189576032Y-36891517D01*
X189644674Y-36807877D01*
X189715246Y-36675847D01*
X189723446Y-36648815D01*
X189758703Y-36532586D01*
X189769700Y-36420933D01*
X189769700Y-36420924D01*
X189773376Y-36383601D01*
X189769700Y-36346278D01*
X189769700Y-34022333D01*
X189773377Y-33985000D01*
X189758703Y-33836014D01*
X189715246Y-33692753D01*
X189644674Y-33560724D01*
X189573499Y-33473997D01*
X189549701Y-33444999D01*
X189520703Y-33421201D01*
X188345000Y-32245499D01*
X188345000Y-32224117D01*
X188278325Y-31888919D01*
X188147537Y-31573169D01*
X187957663Y-31289002D01*
X187715998Y-31047337D01*
X187431831Y-30857463D01*
X187116081Y-30726675D01*
X186780883Y-30660000D01*
X186439117Y-30660000D01*
X186103919Y-30726675D01*
X185788169Y-30857463D01*
X185504002Y-31047337D01*
X185262337Y-31289002D01*
X185076518Y-31567100D01*
X182791561Y-31567100D01*
X182957663Y-31400998D01*
X183147537Y-31116831D01*
X183278325Y-30801081D01*
X183345000Y-30465883D01*
X183345000Y-30124117D01*
X183278325Y-29788919D01*
X183147537Y-29473169D01*
X182957663Y-29189002D01*
X182715998Y-28947337D01*
X182431831Y-28757463D01*
X182116081Y-28626675D01*
X181780883Y-28560000D01*
X181439117Y-28560000D01*
X181103919Y-28626675D01*
X180788169Y-28757463D01*
X180504002Y-28947337D01*
X180262337Y-29189002D01*
X180072463Y-29473169D01*
X179941675Y-29788919D01*
X179875000Y-30124117D01*
X179875000Y-30465883D01*
X179941675Y-30801081D01*
X180072463Y-31116831D01*
X180262337Y-31400998D01*
X180428439Y-31567100D01*
X167823482Y-31567100D01*
X167637663Y-31289002D01*
X167395998Y-31047337D01*
X167111831Y-30857463D01*
X166796081Y-30726675D01*
X166460883Y-30660000D01*
X166119117Y-30660000D01*
X165783919Y-30726675D01*
X165468169Y-30857463D01*
X165184002Y-31047337D01*
X164942337Y-31289002D01*
X164752463Y-31573169D01*
X164726852Y-31635000D01*
X162403661Y-31635000D01*
X162637663Y-31400998D01*
X162827537Y-31116831D01*
X162958325Y-30801081D01*
X163025000Y-30465883D01*
X163025000Y-30124117D01*
X162958325Y-29788919D01*
X162827537Y-29473169D01*
X162637663Y-29189002D01*
X162395998Y-28947337D01*
X162111831Y-28757463D01*
X161796081Y-28626675D01*
X161460883Y-28560000D01*
X161119117Y-28560000D01*
X160783919Y-28626675D01*
X160468169Y-28757463D01*
X160184002Y-28947337D01*
X159942337Y-29189002D01*
X159752463Y-29473169D01*
X159621675Y-29788919D01*
X159555000Y-30124117D01*
X159555000Y-30465883D01*
X159621675Y-30801081D01*
X159752463Y-31116831D01*
X159942337Y-31400998D01*
X160176339Y-31635000D01*
X147533148Y-31635000D01*
X147507537Y-31573169D01*
X147317663Y-31289002D01*
X147075998Y-31047337D01*
X146791831Y-30857463D01*
X146476081Y-30726675D01*
X146140883Y-30660000D01*
X145799117Y-30660000D01*
X145463919Y-30726675D01*
X145148169Y-30857463D01*
X144864002Y-31047337D01*
X144622337Y-31289002D01*
X144432463Y-31573169D01*
X144301675Y-31888919D01*
X144235000Y-32224117D01*
X144235000Y-32565883D01*
X144301675Y-32901081D01*
X144388046Y-33109600D01*
X132095002Y-33109600D01*
X131439103Y-32453702D01*
X131415301Y-32424699D01*
X131299576Y-32329726D01*
X131167547Y-32259154D01*
X131093661Y-32236741D01*
X131170226Y-32051898D01*
X131210000Y-31851939D01*
X131210000Y-31648061D01*
X131170226Y-31448102D01*
X131092205Y-31259744D01*
X130978937Y-31090226D01*
X130935000Y-31046289D01*
X130935000Y-30715501D01*
X131001185Y-30661185D01*
X131080537Y-30564494D01*
X131139502Y-30454180D01*
X131175812Y-30334482D01*
X131188072Y-30210000D01*
X131188072Y-30124117D01*
X139235000Y-30124117D01*
X139235000Y-30465883D01*
X139301675Y-30801081D01*
X139432463Y-31116831D01*
X139622337Y-31400998D01*
X139864002Y-31642663D01*
X140148169Y-31832537D01*
X140463919Y-31963325D01*
X140799117Y-32030000D01*
X141140883Y-32030000D01*
X141476081Y-31963325D01*
X141791831Y-31832537D01*
X142075998Y-31642663D01*
X142317663Y-31400998D01*
X142507537Y-31116831D01*
X142638325Y-30801081D01*
X142705000Y-30465883D01*
X142705000Y-30124117D01*
X142638325Y-29788919D01*
X142507537Y-29473169D01*
X142317663Y-29189002D01*
X142075998Y-28947337D01*
X141791831Y-28757463D01*
X141476081Y-28626675D01*
X141140883Y-28560000D01*
X140799117Y-28560000D01*
X140463919Y-28626675D01*
X140148169Y-28757463D01*
X139864002Y-28947337D01*
X139622337Y-29189002D01*
X139432463Y-29473169D01*
X139301675Y-29788919D01*
X139235000Y-30124117D01*
X131188072Y-30124117D01*
X131188072Y-28210000D01*
X131175812Y-28085518D01*
X131139502Y-27965820D01*
X131080537Y-27855506D01*
X131001185Y-27758815D01*
X130904494Y-27679463D01*
X130794180Y-27620498D01*
X130674482Y-27584188D01*
X130550000Y-27571928D01*
X129800000Y-27571928D01*
X129675518Y-27584188D01*
X129555820Y-27620498D01*
X129445506Y-27679463D01*
X129348815Y-27758815D01*
X129269463Y-27855506D01*
X129210498Y-27965820D01*
X129174188Y-28085518D01*
X129161928Y-28210000D01*
X129161928Y-30210000D01*
X129174188Y-30334482D01*
X129210498Y-30454180D01*
X129269463Y-30564494D01*
X129348815Y-30661185D01*
X129415000Y-30715502D01*
X129415000Y-31046289D01*
X129371063Y-31090226D01*
X129257795Y-31259744D01*
X129179774Y-31448102D01*
X129140000Y-31648061D01*
X129140000Y-31851939D01*
X129179774Y-32051898D01*
X129257795Y-32240256D01*
X129371063Y-32409774D01*
X129415000Y-32453711D01*
X129415000Y-32784498D01*
X129348815Y-32838815D01*
X129269463Y-32935506D01*
X129210498Y-33045820D01*
X129174188Y-33165518D01*
X129161928Y-33290000D01*
X129161928Y-35290000D01*
X129174188Y-35414482D01*
X129210498Y-35534180D01*
X129269463Y-35644494D01*
X129348815Y-35741185D01*
X129445506Y-35820537D01*
X129555820Y-35879502D01*
X129675518Y-35915812D01*
X129800000Y-35928072D01*
X130550000Y-35928072D01*
X130674482Y-35915812D01*
X130794180Y-35879502D01*
X130904494Y-35820537D01*
X131001185Y-35741185D01*
X131080537Y-35644494D01*
X131139502Y-35534180D01*
X131175812Y-35414482D01*
X131188072Y-35290000D01*
X131188072Y-34352274D01*
X131216400Y-34380602D01*
X131240199Y-34409601D01*
X131355924Y-34504574D01*
X131487953Y-34575146D01*
X131631214Y-34618603D01*
X131742867Y-34629600D01*
X131742877Y-34629600D01*
X131780200Y-34633276D01*
X131817523Y-34629600D01*
X134715436Y-34629600D01*
X134648169Y-34657463D01*
X134364002Y-34847337D01*
X134122337Y-35089002D01*
X133932463Y-35373169D01*
X133801675Y-35688919D01*
X133735000Y-36024117D01*
X133735000Y-36365883D01*
X133801675Y-36701081D01*
X133932463Y-37016831D01*
X134122337Y-37300998D01*
X134364002Y-37542663D01*
X134648169Y-37732537D01*
X134963919Y-37863325D01*
X135299117Y-37930000D01*
X135640883Y-37930000D01*
X135976081Y-37863325D01*
X136291831Y-37732537D01*
X136575998Y-37542663D01*
X136817663Y-37300998D01*
X137007537Y-37016831D01*
X137138325Y-36701081D01*
X137205000Y-36365883D01*
X137205000Y-36024117D01*
X137138325Y-35688919D01*
X137007537Y-35373169D01*
X136817663Y-35089002D01*
X136575998Y-34847337D01*
X136291831Y-34657463D01*
X136224564Y-34629600D01*
X138846879Y-34629600D01*
X138634893Y-34946859D01*
X138436261Y-35426399D01*
X138335000Y-35935475D01*
X138335000Y-36454525D01*
X138436261Y-36963601D01*
X138634893Y-37443141D01*
X138923262Y-37874715D01*
X139290285Y-38241738D01*
X139721859Y-38530107D01*
X140201399Y-38728739D01*
X140710475Y-38830000D01*
X141229525Y-38830000D01*
X141738601Y-38728739D01*
X142218141Y-38530107D01*
X142649715Y-38241738D01*
X143016738Y-37874715D01*
X143305107Y-37443141D01*
X143503739Y-36963601D01*
X143605000Y-36454525D01*
X143605000Y-35935475D01*
X143503739Y-35426399D01*
X143305107Y-34946859D01*
X143093121Y-34629600D01*
X145715436Y-34629600D01*
X145648169Y-34657463D01*
X145364002Y-34847337D01*
X145122337Y-35089002D01*
X144932463Y-35373169D01*
X144801675Y-35688919D01*
X144735000Y-36024117D01*
X144735000Y-36365883D01*
X144801675Y-36701081D01*
X144932463Y-37016831D01*
X145122337Y-37300998D01*
X145364002Y-37542663D01*
X145648169Y-37732537D01*
X145963919Y-37863325D01*
X146299117Y-37930000D01*
X146640883Y-37930000D01*
X146976081Y-37863325D01*
X147291831Y-37732537D01*
X147575998Y-37542663D01*
X147817663Y-37300998D01*
X148007537Y-37016831D01*
X148138325Y-36701081D01*
X148205000Y-36365883D01*
X148205000Y-36024117D01*
X148138325Y-35688919D01*
X148007537Y-35373169D01*
X147817663Y-35089002D01*
X147575998Y-34847337D01*
X147291831Y-34657463D01*
X147224564Y-34629600D01*
X155035436Y-34629600D01*
X154968169Y-34657463D01*
X154684002Y-34847337D01*
X154442337Y-35089002D01*
X154252463Y-35373169D01*
X154121675Y-35688919D01*
X154055000Y-36024117D01*
X154055000Y-36365883D01*
X154121675Y-36701081D01*
X154252463Y-37016831D01*
X154442337Y-37300998D01*
X154684002Y-37542663D01*
X154968169Y-37732537D01*
X155283919Y-37863325D01*
X155619117Y-37930000D01*
X155960883Y-37930000D01*
X156296081Y-37863325D01*
X156611831Y-37732537D01*
X156895998Y-37542663D01*
X157137663Y-37300998D01*
X157327537Y-37016831D01*
X157458325Y-36701081D01*
X157525000Y-36365883D01*
X157525000Y-36024117D01*
X157458325Y-35688919D01*
X157327537Y-35373169D01*
X157137663Y-35089002D01*
X156895998Y-34847337D01*
X156611831Y-34657463D01*
X156544564Y-34629600D01*
X159166879Y-34629600D01*
X158954893Y-34946859D01*
X158756261Y-35426399D01*
X158655000Y-35935475D01*
X158655000Y-36454525D01*
X158756261Y-36963601D01*
X158954893Y-37443141D01*
X159243262Y-37874715D01*
X159610285Y-38241738D01*
X160041859Y-38530107D01*
X160521399Y-38728739D01*
X161030475Y-38830000D01*
X161549525Y-38830000D01*
X162058601Y-38728739D01*
X162538141Y-38530107D01*
X162969715Y-38241738D01*
X163336738Y-37874715D01*
X163625107Y-37443141D01*
X163823739Y-36963601D01*
X163925000Y-36454525D01*
X163925000Y-35935475D01*
X163823739Y-35426399D01*
X163625107Y-34946859D01*
X163413121Y-34629600D01*
X166035436Y-34629600D01*
X165968169Y-34657463D01*
X165684002Y-34847337D01*
X165442337Y-35089002D01*
X165252463Y-35373169D01*
X165121675Y-35688919D01*
X165055000Y-36024117D01*
X165055000Y-36365883D01*
X165121675Y-36701081D01*
X165252463Y-37016831D01*
X165442337Y-37300998D01*
X165684002Y-37542663D01*
X165968169Y-37732537D01*
X166283919Y-37863325D01*
X166619117Y-37930000D01*
X166960883Y-37930000D01*
X167296081Y-37863325D01*
X167611831Y-37732537D01*
X167895998Y-37542663D01*
X168137663Y-37300998D01*
X168327537Y-37016831D01*
X168458325Y-36701081D01*
X168525000Y-36365883D01*
X168525000Y-36024117D01*
X168458325Y-35688919D01*
X168327537Y-35373169D01*
X168137663Y-35089002D01*
X167895998Y-34847337D01*
X167611831Y-34657463D01*
X167544564Y-34629600D01*
X171166999Y-34629600D01*
X171357700Y-34820301D01*
X171357700Y-34882439D01*
X171397474Y-35082398D01*
X171475495Y-35270756D01*
X171588763Y-35440274D01*
X171732926Y-35584437D01*
X171902444Y-35697705D01*
X172090802Y-35775726D01*
X172290761Y-35815500D01*
X172494639Y-35815500D01*
X172694598Y-35775726D01*
X172882956Y-35697705D01*
X173052474Y-35584437D01*
X173196637Y-35440274D01*
X173309905Y-35270756D01*
X173387926Y-35082398D01*
X173427700Y-34882439D01*
X173427700Y-34678561D01*
X173387926Y-34478602D01*
X173309905Y-34290244D01*
X173196637Y-34120726D01*
X173052474Y-33976563D01*
X172882956Y-33863295D01*
X172694598Y-33785274D01*
X172494639Y-33745500D01*
X172432501Y-33745500D01*
X172045603Y-33358602D01*
X172021801Y-33329599D01*
X171906076Y-33234626D01*
X171774047Y-33164054D01*
X171630786Y-33120597D01*
X171519133Y-33109600D01*
X171519122Y-33109600D01*
X171481800Y-33105924D01*
X171444478Y-33109600D01*
X167871954Y-33109600D01*
X167881273Y-33087100D01*
X185018727Y-33087100D01*
X185072463Y-33216831D01*
X185262337Y-33500998D01*
X185504002Y-33742663D01*
X185788169Y-33932537D01*
X186103919Y-34063325D01*
X186439117Y-34130000D01*
X186780883Y-34130000D01*
X187116081Y-34063325D01*
X187431831Y-33932537D01*
X187701949Y-33752050D01*
X188249701Y-34299803D01*
X188249701Y-34881040D01*
X188215998Y-34847337D01*
X187931831Y-34657463D01*
X187616081Y-34526675D01*
X187280883Y-34460000D01*
X186939117Y-34460000D01*
X186603919Y-34526675D01*
X186288169Y-34657463D01*
X186004002Y-34847337D01*
X185762337Y-35089002D01*
X185572463Y-35373169D01*
X185441675Y-35688919D01*
X185375000Y-36024117D01*
X185375000Y-36365883D01*
X185441675Y-36701081D01*
X185572463Y-37016831D01*
X185762337Y-37300998D01*
X186004002Y-37542663D01*
X186288169Y-37732537D01*
X186498740Y-37819758D01*
X178575399Y-45743100D01*
X175530903Y-45743100D01*
X175579502Y-45652180D01*
X175615812Y-45532482D01*
X175628072Y-45408000D01*
X175628072Y-44508000D01*
X175615812Y-44383518D01*
X175579502Y-44263820D01*
X175520537Y-44153506D01*
X175441185Y-44056815D01*
X175344494Y-43977463D01*
X175234180Y-43918498D01*
X175114482Y-43882188D01*
X174990000Y-43869928D01*
X172990000Y-43869928D01*
X172865518Y-43882188D01*
X172745820Y-43918498D01*
X172635506Y-43977463D01*
X172538815Y-44056815D01*
X172459463Y-44153506D01*
X172413176Y-44240101D01*
X172379531Y-44250307D01*
X172372453Y-44252454D01*
X172240423Y-44323026D01*
X172166714Y-44383518D01*
X172124699Y-44417999D01*
X172100901Y-44446997D01*
X170614099Y-45933800D01*
X170270266Y-45933800D01*
X170361185Y-45859185D01*
X170440537Y-45762494D01*
X170499502Y-45652180D01*
X170535812Y-45532482D01*
X170548072Y-45408000D01*
X170548072Y-44508000D01*
X170535812Y-44383518D01*
X170499502Y-44263820D01*
X170440537Y-44153506D01*
X170361185Y-44056815D01*
X170296875Y-44004037D01*
X174895519Y-39405394D01*
X174926428Y-39380028D01*
X174982019Y-39312290D01*
X175027649Y-39256690D01*
X175102862Y-39115974D01*
X175102863Y-39115973D01*
X175149180Y-38963288D01*
X175160900Y-38844291D01*
X175160900Y-38844289D01*
X175164819Y-38804501D01*
X175160900Y-38764713D01*
X175160900Y-38165600D01*
X175268105Y-38005156D01*
X175346126Y-37816798D01*
X175357199Y-37761130D01*
X175603919Y-37863325D01*
X175939117Y-37930000D01*
X176280883Y-37930000D01*
X176616081Y-37863325D01*
X176931831Y-37732537D01*
X177215998Y-37542663D01*
X177457663Y-37300998D01*
X177647537Y-37016831D01*
X177778325Y-36701081D01*
X177845000Y-36365883D01*
X177845000Y-36024117D01*
X177827369Y-35935475D01*
X178975000Y-35935475D01*
X178975000Y-36454525D01*
X179076261Y-36963601D01*
X179274893Y-37443141D01*
X179563262Y-37874715D01*
X179930285Y-38241738D01*
X180361859Y-38530107D01*
X180841399Y-38728739D01*
X181350475Y-38830000D01*
X181869525Y-38830000D01*
X182378601Y-38728739D01*
X182858141Y-38530107D01*
X183289715Y-38241738D01*
X183656738Y-37874715D01*
X183945107Y-37443141D01*
X184143739Y-36963601D01*
X184245000Y-36454525D01*
X184245000Y-35935475D01*
X184143739Y-35426399D01*
X183945107Y-34946859D01*
X183656738Y-34515285D01*
X183289715Y-34148262D01*
X182858141Y-33859893D01*
X182378601Y-33661261D01*
X181869525Y-33560000D01*
X181350475Y-33560000D01*
X180841399Y-33661261D01*
X180361859Y-33859893D01*
X179930285Y-34148262D01*
X179563262Y-34515285D01*
X179274893Y-34946859D01*
X179076261Y-35426399D01*
X178975000Y-35935475D01*
X177827369Y-35935475D01*
X177778325Y-35688919D01*
X177647537Y-35373169D01*
X177457663Y-35089002D01*
X177215998Y-34847337D01*
X176931831Y-34657463D01*
X176616081Y-34526675D01*
X176280883Y-34460000D01*
X175939117Y-34460000D01*
X175603919Y-34526675D01*
X175288169Y-34657463D01*
X175004002Y-34847337D01*
X174762337Y-35089002D01*
X174572463Y-35373169D01*
X174441675Y-35688919D01*
X174375000Y-36024117D01*
X174375000Y-36365883D01*
X174397679Y-36479900D01*
X174248961Y-36479900D01*
X174049002Y-36519674D01*
X173860644Y-36597695D01*
X173691126Y-36710963D01*
X173546963Y-36855126D01*
X173433695Y-37024644D01*
X173355674Y-37213002D01*
X173315900Y-37412961D01*
X173315900Y-37616839D01*
X173355674Y-37816798D01*
X173433695Y-38005156D01*
X173540900Y-38165601D01*
X173540900Y-38468987D01*
X168139960Y-43869928D01*
X167910000Y-43869928D01*
X167785518Y-43882188D01*
X167665820Y-43918498D01*
X167555506Y-43977463D01*
X167458815Y-44056815D01*
X167379463Y-44153506D01*
X167378933Y-44154498D01*
X167325912Y-44159720D01*
X167173227Y-44206037D01*
X167107724Y-44241049D01*
X167032510Y-44281251D01*
X166991373Y-44315012D01*
X166909172Y-44382472D01*
X166883807Y-44413380D01*
X166273888Y-45023300D01*
X166002900Y-45023300D01*
X166002900Y-44856061D01*
X165963126Y-44656102D01*
X165885105Y-44467744D01*
X165771837Y-44298226D01*
X165627674Y-44154063D01*
X165458156Y-44040795D01*
X165269798Y-43962774D01*
X165069839Y-43923000D01*
X164865961Y-43923000D01*
X164666002Y-43962774D01*
X164477644Y-44040795D01*
X164308126Y-44154063D01*
X164264189Y-44198000D01*
X155224320Y-44198000D01*
X155200537Y-44153506D01*
X155121185Y-44056815D01*
X155024494Y-43977463D01*
X154914180Y-43918498D01*
X154794482Y-43882188D01*
X154670000Y-43869928D01*
X152670000Y-43869928D01*
X152545518Y-43882188D01*
X152425820Y-43918498D01*
X152315506Y-43977463D01*
X152218815Y-44056815D01*
X152139463Y-44153506D01*
X152080498Y-44263820D01*
X152044188Y-44383518D01*
X152031928Y-44508000D01*
X152031928Y-45023300D01*
X151226113Y-45023300D01*
X150616199Y-44413387D01*
X150590828Y-44382472D01*
X150467489Y-44281251D01*
X150326773Y-44206037D01*
X150174088Y-44159720D01*
X150121067Y-44154498D01*
X150120537Y-44153506D01*
X150041185Y-44056815D01*
X149944494Y-43977463D01*
X149834180Y-43918498D01*
X149714482Y-43882188D01*
X149590000Y-43869928D01*
X147590000Y-43869928D01*
X147465518Y-43882188D01*
X147345820Y-43918498D01*
X147235506Y-43977463D01*
X147138815Y-44056815D01*
X147063982Y-44148000D01*
X140484700Y-44148000D01*
X140484700Y-42967400D01*
X140591905Y-42806956D01*
X140669926Y-42618598D01*
X140709700Y-42418639D01*
X140709700Y-42214761D01*
X140669926Y-42014802D01*
X140591905Y-41826444D01*
X140478637Y-41656926D01*
X140334474Y-41512763D01*
X140164956Y-41399495D01*
X139976598Y-41321474D01*
X139776639Y-41281700D01*
X139572761Y-41281700D01*
X139372802Y-41321474D01*
X139184444Y-41399495D01*
X139014926Y-41512763D01*
X138870763Y-41656926D01*
X138757495Y-41826444D01*
X138679474Y-42014802D01*
X138639700Y-42214761D01*
X138639700Y-42418639D01*
X138679474Y-42618598D01*
X138757495Y-42806956D01*
X138864701Y-42967401D01*
X138864700Y-43795300D01*
X131188072Y-43795300D01*
X131188072Y-42180000D01*
X131175812Y-42055518D01*
X131139502Y-41935820D01*
X131080537Y-41825506D01*
X131001185Y-41728815D01*
X130935000Y-41674499D01*
X130935000Y-41107600D01*
X131076374Y-41013137D01*
X131220537Y-40868974D01*
X131333805Y-40699456D01*
X131411826Y-40511098D01*
X131451600Y-40311139D01*
X131451600Y-40107261D01*
X131411826Y-39907302D01*
X131333805Y-39718944D01*
X131220537Y-39549426D01*
X131096236Y-39425125D01*
X131139502Y-39344180D01*
X131175812Y-39224482D01*
X131188072Y-39100000D01*
X131188072Y-37100000D01*
X131175812Y-36975518D01*
X131139502Y-36855820D01*
X131080537Y-36745506D01*
X131001185Y-36648815D01*
X130904494Y-36569463D01*
X130794180Y-36510498D01*
X130674482Y-36474188D01*
X130550000Y-36461928D01*
X129800000Y-36461928D01*
X129675518Y-36474188D01*
X129555820Y-36510498D01*
X129445506Y-36569463D01*
X129348815Y-36648815D01*
X129269463Y-36745506D01*
X129210498Y-36855820D01*
X129174188Y-36975518D01*
X129161928Y-37100000D01*
X129161928Y-39100000D01*
X129174188Y-39224482D01*
X129210498Y-39344180D01*
X129269463Y-39454494D01*
X129348815Y-39551185D01*
X129415000Y-39605502D01*
X129415000Y-39939346D01*
X129381600Y-40107261D01*
X129381600Y-40311139D01*
X129415001Y-40479058D01*
X129415001Y-41674498D01*
X129348815Y-41728815D01*
X129269463Y-41825506D01*
X129210498Y-41935820D01*
X129174188Y-42055518D01*
X129161928Y-42180000D01*
X129161928Y-43795300D01*
X128902072Y-43795300D01*
X128902072Y-42180000D01*
X128889812Y-42055518D01*
X128853502Y-41935820D01*
X128794537Y-41825506D01*
X128715185Y-41728815D01*
X128699000Y-41715532D01*
X128699000Y-39564468D01*
X128715185Y-39551185D01*
X128794537Y-39454494D01*
X128853502Y-39344180D01*
X128889812Y-39224482D01*
X128902072Y-39100000D01*
X128902072Y-37100000D01*
X128889812Y-36975518D01*
X128853502Y-36855820D01*
X128794537Y-36745506D01*
X128715185Y-36648815D01*
X128699000Y-36635532D01*
X128699000Y-35754468D01*
X128715185Y-35741185D01*
X128794537Y-35644494D01*
X128853502Y-35534180D01*
X128889812Y-35414482D01*
X128902072Y-35290000D01*
X128902072Y-33290000D01*
X128889812Y-33165518D01*
X128853502Y-33045820D01*
X128794537Y-32935506D01*
X128715185Y-32838815D01*
X128699000Y-32825532D01*
X128699000Y-30674468D01*
X128715185Y-30661185D01*
X128794537Y-30564494D01*
X128853502Y-30454180D01*
X128889812Y-30334482D01*
X128902072Y-30210000D01*
X128902072Y-28210000D01*
X128889812Y-28085518D01*
X128853502Y-27965820D01*
X128794537Y-27855506D01*
X128715185Y-27758815D01*
X128618494Y-27679463D01*
X128508180Y-27620498D01*
X128388482Y-27584188D01*
X128264000Y-27571928D01*
X127514000Y-27571928D01*
X127389518Y-27584188D01*
X127269820Y-27620498D01*
X127159506Y-27679463D01*
X127062815Y-27758815D01*
X126983463Y-27855506D01*
X126924498Y-27965820D01*
X126888188Y-28085518D01*
X126875928Y-28210000D01*
X126492000Y-28210000D01*
X126492000Y-27992606D01*
X127687606Y-26797000D01*
X189177394Y-26797000D01*
X190373000Y-27992606D01*
G36*
X152139463Y-47455506D02*
G01*
X152080498Y-47565820D01*
X152044188Y-47685518D01*
X152031928Y-47810000D01*
X152035000Y-47974250D01*
X152193750Y-48133000D01*
X153543000Y-48133000D01*
X153543000Y-48113000D01*
X153797000Y-48113000D01*
X153797000Y-48133000D01*
X155146250Y-48133000D01*
X155305000Y-47974250D01*
X155308072Y-47810000D01*
X155295812Y-47685518D01*
X155259502Y-47565820D01*
X155200537Y-47455506D01*
X155199137Y-47453800D01*
X167380863Y-47453800D01*
X167379463Y-47455506D01*
X167320498Y-47565820D01*
X167284188Y-47685518D01*
X167271928Y-47810000D01*
X167271928Y-48000400D01*
X167261361Y-48000400D01*
X167061402Y-48040174D01*
X166873044Y-48118195D01*
X166703526Y-48231463D01*
X166659589Y-48275400D01*
X150974701Y-48275400D01*
X151796302Y-47453800D01*
X152140863Y-47453800D01*
X152139463Y-47455506D01*
G37*
X152139463Y-47455506D02*
X152080498Y-47565820D01*
X152044188Y-47685518D01*
X152031928Y-47810000D01*
X152035000Y-47974250D01*
X152193750Y-48133000D01*
X153543000Y-48133000D01*
X153543000Y-48113000D01*
X153797000Y-48113000D01*
X153797000Y-48133000D01*
X155146250Y-48133000D01*
X155305000Y-47974250D01*
X155308072Y-47810000D01*
X155295812Y-47685518D01*
X155259502Y-47565820D01*
X155200537Y-47455506D01*
X155199137Y-47453800D01*
X167380863Y-47453800D01*
X167379463Y-47455506D01*
X167320498Y-47565820D01*
X167284188Y-47685518D01*
X167271928Y-47810000D01*
X167271928Y-48000400D01*
X167261361Y-48000400D01*
X167061402Y-48040174D01*
X166873044Y-48118195D01*
X166703526Y-48231463D01*
X166659589Y-48275400D01*
X150974701Y-48275400D01*
X151796302Y-47453800D01*
X152140863Y-47453800D01*
X152139463Y-47455506D01*
M02*
