M48
; DRILL file {KiCad (5.1.5)-3} date 2020/09/25 18:16:37
; FORMAT={-:-/ absolute / inch / decimal}
; #@! TF.CreationDate,2020-09-25T18:16:37+09:00
; #@! TF.GenerationSoftware,Kicad,Pcbnew,(5.1.5)-3
FMAT,2
INCH
T1C0.0157
T2C0.0295
T3C0.0300
T4C0.0315
T5C0.0591
T6C0.0866
T7C0.1575
%
G90
G05
T1
X5.125Y-1.25
X5.1345Y-1.583
X5.1715Y-1.4663
X5.2779Y-1.5894
X5.4646Y-1.8797
X5.499Y-1.666
X5.5534Y-1.8871
X5.9445Y-1.9
X6.206Y-1.9
X6.484Y-2.5827
X6.4948Y-1.77
X6.5081Y-3.5269
X6.5528Y-3.3355
X6.573Y-2.625
X6.5891Y-1.9305
X6.6717Y-1.3013
X6.7871Y-1.3693
X6.8194Y-1.8308
X6.84Y-1.9699
X6.8642Y-1.477
X6.8903Y-3.3279
X6.987Y-2.0
X7.4128Y-1.3528
X7.5002Y-1.8539
T2
X6.225Y-2.625
X6.275Y-2.625
X6.325Y-2.625
T3
X5.85Y-2.6266
X6.05Y-2.6266
T4
X5.95Y-2.075
X5.95Y-2.275
T5
X5.55Y-2.7927
X5.7469Y-2.8754
X7.15Y-1.1927
X7.3469Y-1.2754
X7.15Y-2.7927
X7.3469Y-2.8754
X6.35Y-3.5927
X6.5469Y-3.6754
X6.35Y-1.9927
X6.5469Y-2.0754
X7.15Y-1.9927
X7.3469Y-2.0754
X6.35Y-2.7927
X6.5469Y-2.8754
X6.35Y-1.1927
X6.5469Y-1.2754
X5.55Y-3.5927
X5.7469Y-3.6754
X5.55Y-1.9927
X5.7469Y-2.0754
X5.55Y-1.1927
X5.7469Y-1.2754
X7.15Y-3.5927
X7.3469Y-3.6754
T6
X6.1335Y-3.025
X6.5665Y-3.025
X6.1335Y-1.425
X6.5665Y-1.425
X5.3335Y-3.825
X5.7665Y-3.825
X5.3335Y-2.225
X5.7665Y-2.225
X5.3335Y-1.425
X5.7665Y-1.425
X6.9335Y-3.825
X7.3665Y-3.825
X5.3335Y-3.025
X5.7665Y-3.025
X6.9335Y-1.425
X7.3665Y-1.425
X6.9335Y-3.025
X7.3665Y-3.025
X6.1335Y-3.825
X6.5665Y-3.825
X6.1335Y-2.225
X6.5665Y-2.225
X6.9335Y-2.225
X7.3665Y-2.225
T7
X7.15Y-2.225
X6.35Y-1.425
X5.55Y-3.825
X7.15Y-3.825
X5.55Y-3.025
X7.15Y-1.425
X7.15Y-3.025
X6.35Y-2.225
X6.35Y-3.025
X5.55Y-2.225
X5.55Y-1.425
X6.35Y-3.825
T0
M30
