G04 #@! TF.GenerationSoftware,KiCad,Pcbnew,(5.1.5)-3*
G04 #@! TF.CreationDate,2020-09-04T17:37:12+09:00*
G04 #@! TF.ProjectId,futureKeyboardLeft,66757475-7265-44b6-9579-626f6172644c,rev?*
G04 #@! TF.SameCoordinates,Original*
G04 #@! TF.FileFunction,Copper,L1,Top*
G04 #@! TF.FilePolarity,Positive*
%FSLAX46Y46*%
G04 Gerber Fmt 4.6, Leading zero omitted, Abs format (unit mm)*
G04 Created by KiCad (PCBNEW (5.1.5)-3) date 2020-09-04 17:37:12*
%MOMM*%
%LPD*%
G04 APERTURE LIST*
%ADD10R,1.800000X1.800000*%
%ADD11O,1.800000X1.800000*%
%ADD12C,1.524000*%
%ADD13O,1.500000X1.050000*%
%ADD14R,1.500000X1.050000*%
%ADD15C,2.200000*%
%ADD16R,0.750000X2.000000*%
%ADD17R,2.000000X0.900000*%
%ADD18C,0.800000*%
%ADD19C,0.250000*%
%ADD20C,0.350000*%
%ADD21C,0.254000*%
G04 APERTURE END LIST*
D10*
X154940000Y-60325000D03*
D11*
X147320000Y-60325000D03*
D12*
X153670000Y-66715000D03*
X148590000Y-66715000D03*
D13*
X159385000Y-66675000D03*
X159385000Y-67945000D03*
D14*
X159385000Y-65405000D03*
D15*
X137160000Y-33655000D03*
X143510000Y-31115000D03*
X137160000Y-53975000D03*
X143510000Y-51435000D03*
X143510000Y-71755000D03*
X137160000Y-74295000D03*
X143510000Y-92075000D03*
X137160000Y-94615000D03*
X163830000Y-31115000D03*
X157480000Y-33655000D03*
X163830000Y-51435000D03*
X157480000Y-53975000D03*
X157480000Y-74295000D03*
X163830000Y-71755000D03*
X157480000Y-94615000D03*
X163830000Y-92075000D03*
X184150000Y-31115000D03*
X177800000Y-33655000D03*
X184150000Y-51435000D03*
X177800000Y-53975000D03*
X177800000Y-74295000D03*
X184150000Y-71755000D03*
X177800000Y-94615000D03*
X184150000Y-92075000D03*
D16*
X127889000Y-34290000D03*
X130175000Y-34290000D03*
X130175000Y-29210000D03*
X127889000Y-29210000D03*
X127889000Y-38100000D03*
X130175000Y-38100000D03*
X130175000Y-43180000D03*
X127889000Y-43180000D03*
D17*
X153670000Y-44958000D03*
X153670000Y-48260000D03*
X148590000Y-48260000D03*
X148590000Y-44958000D03*
X168910000Y-44958000D03*
X168910000Y-48260000D03*
X173990000Y-48260000D03*
X173990000Y-44958000D03*
X168725000Y-85598000D03*
X168725000Y-88900000D03*
X173805000Y-88900000D03*
X173805000Y-85598000D03*
X153670000Y-85598000D03*
X153670000Y-88900000D03*
X148590000Y-88900000D03*
X148590000Y-85598000D03*
D18*
X168139300Y-33860700D03*
X145575300Y-43960100D03*
X162578700Y-40365400D03*
X144495300Y-48825500D03*
X130394800Y-39882600D03*
X130204100Y-30821300D03*
D19*
X154940000Y-66675000D02*
X153710000Y-66675000D01*
X153710000Y-66675000D02*
X153670000Y-66715000D01*
X159385000Y-66675000D02*
X154940000Y-66675000D01*
X154940000Y-66675000D02*
X154940000Y-61550300D01*
X154940000Y-60325000D02*
X154940000Y-61550300D01*
X148590000Y-48260000D02*
X149915300Y-48260000D01*
X173990000Y-44958000D02*
X172664700Y-44958000D01*
X172664700Y-44958000D02*
X171265500Y-46357200D01*
X171265500Y-46357200D02*
X151818100Y-46357200D01*
X151818100Y-46357200D02*
X149915300Y-48260000D01*
X168910000Y-48260000D02*
X170235300Y-48260000D01*
X173805000Y-85598000D02*
X170235300Y-82028300D01*
X170235300Y-82028300D02*
X170235300Y-48260000D01*
X168725000Y-88900000D02*
X167399700Y-88900000D01*
X167399700Y-88900000D02*
X164097700Y-85598000D01*
X164097700Y-85598000D02*
X153670000Y-85598000D01*
D20*
X163981500Y-40479000D02*
X163868900Y-40366500D01*
X163868900Y-40366500D02*
X163747000Y-40366500D01*
X163747000Y-40366500D02*
X162920600Y-39540100D01*
X162920600Y-39540100D02*
X162237000Y-39540100D01*
X162237000Y-39540100D02*
X161410600Y-40366500D01*
X161410600Y-40366500D02*
X154606800Y-40366500D01*
X154606800Y-40366500D02*
X150015300Y-44958000D01*
X163981500Y-40479000D02*
X167952600Y-36507900D01*
X167952600Y-36507900D02*
X167952600Y-34047400D01*
X167952600Y-34047400D02*
X168139300Y-33860700D01*
X167484700Y-44958000D02*
X164319100Y-41792400D01*
X164319100Y-41792400D02*
X164319100Y-40816700D01*
X164319100Y-40816700D02*
X163981500Y-40479000D01*
X148590000Y-85598000D02*
X150015300Y-85598000D01*
X168725000Y-85598000D02*
X167299700Y-85598000D01*
X167299700Y-85598000D02*
X166424400Y-84722700D01*
X166424400Y-84722700D02*
X150890600Y-84722700D01*
X150890600Y-84722700D02*
X150015300Y-85598000D01*
X127889000Y-38100000D02*
X127889000Y-34290000D01*
X127889000Y-43180000D02*
X127889000Y-38100000D01*
X134593400Y-44605300D02*
X145575300Y-44605300D01*
X127889000Y-44605300D02*
X134593400Y-44605300D01*
X148590000Y-85598000D02*
X142799600Y-85598000D01*
X142799600Y-85598000D02*
X134593400Y-77391800D01*
X134593400Y-77391800D02*
X134593400Y-44605300D01*
X148590000Y-44958000D02*
X150015300Y-44958000D01*
X145575300Y-44605300D02*
X146812000Y-44605300D01*
X146812000Y-44605300D02*
X147164700Y-44958000D01*
X145575300Y-43960100D02*
X145575300Y-44605300D01*
X148590000Y-44958000D02*
X147164700Y-44958000D01*
X127889000Y-43180000D02*
X127889000Y-44605300D01*
X168910000Y-44958000D02*
X167484700Y-44958000D01*
X127889000Y-29210000D02*
X127889000Y-34290000D01*
D19*
X153670000Y-44958000D02*
X157986100Y-44958000D01*
X157986100Y-44958000D02*
X162578700Y-40365400D01*
D20*
X159008600Y-52173300D02*
X155095300Y-48260000D01*
X155095300Y-48260000D02*
X154382700Y-48260000D01*
X159385000Y-64454700D02*
X158820100Y-63889800D01*
X158820100Y-63889800D02*
X158820100Y-55554900D01*
X158820100Y-55554900D02*
X159008600Y-55366400D01*
X159008600Y-55366400D02*
X159008600Y-52173300D01*
X159008600Y-52173300D02*
X163797200Y-47384700D01*
X163797200Y-47384700D02*
X171689400Y-47384700D01*
X171689400Y-47384700D02*
X172564700Y-48260000D01*
X173990000Y-48260000D02*
X172564700Y-48260000D01*
X153670000Y-48260000D02*
X154382700Y-48260000D01*
X159385000Y-65405000D02*
X160560300Y-65405000D01*
X172379700Y-88900000D02*
X172379700Y-85944900D01*
X172379700Y-85944900D02*
X163851000Y-77416200D01*
X163851000Y-77416200D02*
X163851000Y-75291000D01*
X163851000Y-75291000D02*
X160560300Y-72000300D01*
X160560300Y-72000300D02*
X160560300Y-65405000D01*
X172529800Y-88900000D02*
X172379700Y-88900000D01*
X173805000Y-88900000D02*
X172529800Y-88900000D01*
X172379700Y-88900000D02*
X171504400Y-89775300D01*
X171504400Y-89775300D02*
X155970600Y-89775300D01*
X155970600Y-89775300D02*
X155095300Y-88900000D01*
X153670000Y-88900000D02*
X155095300Y-88900000D01*
X159385000Y-65405000D02*
X159385000Y-64454700D01*
X153670000Y-48260000D02*
X152244700Y-48260000D01*
X144495300Y-48825500D02*
X144805100Y-49135300D01*
X144805100Y-49135300D02*
X151369400Y-49135300D01*
X151369400Y-49135300D02*
X152244700Y-48260000D01*
D19*
X157480000Y-74295000D02*
X137160000Y-74295000D01*
X177800000Y-33655000D02*
X177230400Y-33085400D01*
X177230400Y-33085400D02*
X158049600Y-33085400D01*
X158049600Y-33085400D02*
X157480000Y-33655000D01*
X137160000Y-33655000D02*
X157480000Y-33655000D01*
X163830000Y-51435000D02*
X163830000Y-71755000D01*
X130175000Y-43180000D02*
X130175000Y-41854700D01*
X130175000Y-41854700D02*
X130394800Y-41634900D01*
X130394800Y-41634900D02*
X130394800Y-39882600D01*
X130394800Y-39882600D02*
X130175000Y-39662800D01*
X130175000Y-39662800D02*
X130175000Y-38100000D01*
X157480000Y-94615000D02*
X137160000Y-94615000D01*
X137160000Y-53975000D02*
X157480000Y-53975000D01*
X184150000Y-71755000D02*
X184150000Y-51435000D01*
X130175000Y-29210000D02*
X130175000Y-30792200D01*
X130175000Y-30792200D02*
X130204100Y-30821300D01*
X130204100Y-30821300D02*
X130175000Y-30850400D01*
X130175000Y-30850400D02*
X130175000Y-34290000D01*
D21*
G36*
X190373000Y-27992606D02*
G01*
X190373000Y-104722394D01*
X189177394Y-105918000D01*
X133402606Y-105918000D01*
X132207000Y-104722394D01*
X132207000Y-97008740D01*
X134405000Y-97008740D01*
X134405000Y-97301260D01*
X134462068Y-97588158D01*
X134574010Y-97858411D01*
X134736525Y-98101632D01*
X134943368Y-98308475D01*
X135186589Y-98470990D01*
X135456842Y-98582932D01*
X135743740Y-98640000D01*
X136036260Y-98640000D01*
X136323158Y-98582932D01*
X136593411Y-98470990D01*
X136836632Y-98308475D01*
X137043475Y-98101632D01*
X137205990Y-97858411D01*
X137317932Y-97588158D01*
X137375000Y-97301260D01*
X137375000Y-97008740D01*
X137317932Y-96721842D01*
X137205990Y-96451589D01*
X137138110Y-96350000D01*
X137330883Y-96350000D01*
X137666081Y-96283325D01*
X137981831Y-96152537D01*
X138265998Y-95962663D01*
X138507663Y-95720998D01*
X138697537Y-95436831D01*
X138723148Y-95375000D01*
X139023547Y-95375000D01*
X138923262Y-95475285D01*
X138634893Y-95906859D01*
X138436261Y-96386399D01*
X138335000Y-96895475D01*
X138335000Y-97414525D01*
X138436261Y-97923601D01*
X138634893Y-98403141D01*
X138923262Y-98834715D01*
X139290285Y-99201738D01*
X139721859Y-99490107D01*
X140201399Y-99688739D01*
X140710475Y-99790000D01*
X141229525Y-99790000D01*
X141738601Y-99688739D01*
X142218141Y-99490107D01*
X142649715Y-99201738D01*
X143016738Y-98834715D01*
X143305107Y-98403141D01*
X143503739Y-97923601D01*
X143605000Y-97414525D01*
X143605000Y-97008740D01*
X144565000Y-97008740D01*
X144565000Y-97301260D01*
X144622068Y-97588158D01*
X144734010Y-97858411D01*
X144896525Y-98101632D01*
X145103368Y-98308475D01*
X145346589Y-98470990D01*
X145616842Y-98582932D01*
X145903740Y-98640000D01*
X146196260Y-98640000D01*
X146483158Y-98582932D01*
X146753411Y-98470990D01*
X146996632Y-98308475D01*
X147203475Y-98101632D01*
X147365990Y-97858411D01*
X147477932Y-97588158D01*
X147535000Y-97301260D01*
X147535000Y-97008740D01*
X147477932Y-96721842D01*
X147365990Y-96451589D01*
X147203475Y-96208368D01*
X146996632Y-96001525D01*
X146753411Y-95839010D01*
X146483158Y-95727068D01*
X146196260Y-95670000D01*
X145903740Y-95670000D01*
X145616842Y-95727068D01*
X145346589Y-95839010D01*
X145103368Y-96001525D01*
X144896525Y-96208368D01*
X144734010Y-96451589D01*
X144622068Y-96721842D01*
X144565000Y-97008740D01*
X143605000Y-97008740D01*
X143605000Y-96895475D01*
X143503739Y-96386399D01*
X143305107Y-95906859D01*
X143016738Y-95475285D01*
X142916453Y-95375000D01*
X155916852Y-95375000D01*
X155942463Y-95436831D01*
X156098261Y-95670000D01*
X156063740Y-95670000D01*
X155776842Y-95727068D01*
X155506589Y-95839010D01*
X155263368Y-96001525D01*
X155056525Y-96208368D01*
X154894010Y-96451589D01*
X154782068Y-96721842D01*
X154725000Y-97008740D01*
X154725000Y-97301260D01*
X154782068Y-97588158D01*
X154894010Y-97858411D01*
X155056525Y-98101632D01*
X155263368Y-98308475D01*
X155506589Y-98470990D01*
X155776842Y-98582932D01*
X156063740Y-98640000D01*
X156356260Y-98640000D01*
X156643158Y-98582932D01*
X156913411Y-98470990D01*
X157156632Y-98308475D01*
X157363475Y-98101632D01*
X157525990Y-97858411D01*
X157637932Y-97588158D01*
X157695000Y-97301260D01*
X157695000Y-97008740D01*
X157672471Y-96895475D01*
X158655000Y-96895475D01*
X158655000Y-97414525D01*
X158756261Y-97923601D01*
X158954893Y-98403141D01*
X159243262Y-98834715D01*
X159610285Y-99201738D01*
X160041859Y-99490107D01*
X160521399Y-99688739D01*
X161030475Y-99790000D01*
X161549525Y-99790000D01*
X162058601Y-99688739D01*
X162538141Y-99490107D01*
X162969715Y-99201738D01*
X163336738Y-98834715D01*
X163625107Y-98403141D01*
X163823739Y-97923601D01*
X163925000Y-97414525D01*
X163925000Y-97008740D01*
X164885000Y-97008740D01*
X164885000Y-97301260D01*
X164942068Y-97588158D01*
X165054010Y-97858411D01*
X165216525Y-98101632D01*
X165423368Y-98308475D01*
X165666589Y-98470990D01*
X165936842Y-98582932D01*
X166223740Y-98640000D01*
X166516260Y-98640000D01*
X166803158Y-98582932D01*
X167073411Y-98470990D01*
X167316632Y-98308475D01*
X167523475Y-98101632D01*
X167685990Y-97858411D01*
X167797932Y-97588158D01*
X167855000Y-97301260D01*
X167855000Y-97008740D01*
X175045000Y-97008740D01*
X175045000Y-97301260D01*
X175102068Y-97588158D01*
X175214010Y-97858411D01*
X175376525Y-98101632D01*
X175583368Y-98308475D01*
X175826589Y-98470990D01*
X176096842Y-98582932D01*
X176383740Y-98640000D01*
X176676260Y-98640000D01*
X176963158Y-98582932D01*
X177233411Y-98470990D01*
X177476632Y-98308475D01*
X177683475Y-98101632D01*
X177845990Y-97858411D01*
X177957932Y-97588158D01*
X178015000Y-97301260D01*
X178015000Y-97008740D01*
X177992471Y-96895475D01*
X178975000Y-96895475D01*
X178975000Y-97414525D01*
X179076261Y-97923601D01*
X179274893Y-98403141D01*
X179563262Y-98834715D01*
X179930285Y-99201738D01*
X180361859Y-99490107D01*
X180841399Y-99688739D01*
X181350475Y-99790000D01*
X181869525Y-99790000D01*
X182378601Y-99688739D01*
X182858141Y-99490107D01*
X183289715Y-99201738D01*
X183656738Y-98834715D01*
X183945107Y-98403141D01*
X184143739Y-97923601D01*
X184245000Y-97414525D01*
X184245000Y-97008740D01*
X185205000Y-97008740D01*
X185205000Y-97301260D01*
X185262068Y-97588158D01*
X185374010Y-97858411D01*
X185536525Y-98101632D01*
X185743368Y-98308475D01*
X185986589Y-98470990D01*
X186256842Y-98582932D01*
X186543740Y-98640000D01*
X186836260Y-98640000D01*
X187123158Y-98582932D01*
X187393411Y-98470990D01*
X187636632Y-98308475D01*
X187843475Y-98101632D01*
X188005990Y-97858411D01*
X188117932Y-97588158D01*
X188175000Y-97301260D01*
X188175000Y-97008740D01*
X188117932Y-96721842D01*
X188005990Y-96451589D01*
X187843475Y-96208368D01*
X187636632Y-96001525D01*
X187393411Y-95839010D01*
X187123158Y-95727068D01*
X186836260Y-95670000D01*
X186543740Y-95670000D01*
X186256842Y-95727068D01*
X185986589Y-95839010D01*
X185743368Y-96001525D01*
X185536525Y-96208368D01*
X185374010Y-96451589D01*
X185262068Y-96721842D01*
X185205000Y-97008740D01*
X184245000Y-97008740D01*
X184245000Y-96895475D01*
X184143739Y-96386399D01*
X183945107Y-95906859D01*
X183656738Y-95475285D01*
X183289715Y-95108262D01*
X182858141Y-94819893D01*
X182378601Y-94621261D01*
X181869525Y-94520000D01*
X181350475Y-94520000D01*
X180841399Y-94621261D01*
X180361859Y-94819893D01*
X179930285Y-95108262D01*
X179563262Y-95475285D01*
X179274893Y-95906859D01*
X179076261Y-96386399D01*
X178975000Y-96895475D01*
X177992471Y-96895475D01*
X177957932Y-96721842D01*
X177845990Y-96451589D01*
X177778110Y-96350000D01*
X177970883Y-96350000D01*
X178306081Y-96283325D01*
X178621831Y-96152537D01*
X178905998Y-95962663D01*
X179147663Y-95720998D01*
X179337537Y-95436831D01*
X179468325Y-95121081D01*
X179535000Y-94785883D01*
X179535000Y-94444117D01*
X179468325Y-94108919D01*
X179337537Y-93793169D01*
X179147663Y-93509002D01*
X178905998Y-93267337D01*
X178621831Y-93077463D01*
X178306081Y-92946675D01*
X177970883Y-92880000D01*
X177629117Y-92880000D01*
X177293919Y-92946675D01*
X176978169Y-93077463D01*
X176694002Y-93267337D01*
X176452337Y-93509002D01*
X176262463Y-93793169D01*
X176131675Y-94108919D01*
X176065000Y-94444117D01*
X176065000Y-94785883D01*
X176131675Y-95121081D01*
X176262463Y-95436831D01*
X176418261Y-95670000D01*
X176383740Y-95670000D01*
X176096842Y-95727068D01*
X175826589Y-95839010D01*
X175583368Y-96001525D01*
X175376525Y-96208368D01*
X175214010Y-96451589D01*
X175102068Y-96721842D01*
X175045000Y-97008740D01*
X167855000Y-97008740D01*
X167797932Y-96721842D01*
X167685990Y-96451589D01*
X167523475Y-96208368D01*
X167316632Y-96001525D01*
X167073411Y-95839010D01*
X166803158Y-95727068D01*
X166516260Y-95670000D01*
X166223740Y-95670000D01*
X165936842Y-95727068D01*
X165666589Y-95839010D01*
X165423368Y-96001525D01*
X165216525Y-96208368D01*
X165054010Y-96451589D01*
X164942068Y-96721842D01*
X164885000Y-97008740D01*
X163925000Y-97008740D01*
X163925000Y-96895475D01*
X163823739Y-96386399D01*
X163625107Y-95906859D01*
X163336738Y-95475285D01*
X162969715Y-95108262D01*
X162538141Y-94819893D01*
X162058601Y-94621261D01*
X161549525Y-94520000D01*
X161030475Y-94520000D01*
X160521399Y-94621261D01*
X160041859Y-94819893D01*
X159610285Y-95108262D01*
X159243262Y-95475285D01*
X158954893Y-95906859D01*
X158756261Y-96386399D01*
X158655000Y-96895475D01*
X157672471Y-96895475D01*
X157637932Y-96721842D01*
X157525990Y-96451589D01*
X157458110Y-96350000D01*
X157650883Y-96350000D01*
X157986081Y-96283325D01*
X158301831Y-96152537D01*
X158585998Y-95962663D01*
X158827663Y-95720998D01*
X159017537Y-95436831D01*
X159148325Y-95121081D01*
X159215000Y-94785883D01*
X159215000Y-94444117D01*
X159148325Y-94108919D01*
X159017537Y-93793169D01*
X158827663Y-93509002D01*
X158585998Y-93267337D01*
X158301831Y-93077463D01*
X157986081Y-92946675D01*
X157650883Y-92880000D01*
X157309117Y-92880000D01*
X156973919Y-92946675D01*
X156658169Y-93077463D01*
X156374002Y-93267337D01*
X156132337Y-93509002D01*
X155942463Y-93793169D01*
X155916852Y-93855000D01*
X138723148Y-93855000D01*
X138697537Y-93793169D01*
X138507663Y-93509002D01*
X138265998Y-93267337D01*
X137981831Y-93077463D01*
X137666081Y-92946675D01*
X137330883Y-92880000D01*
X136989117Y-92880000D01*
X136653919Y-92946675D01*
X136338169Y-93077463D01*
X136054002Y-93267337D01*
X135812337Y-93509002D01*
X135622463Y-93793169D01*
X135491675Y-94108919D01*
X135425000Y-94444117D01*
X135425000Y-94785883D01*
X135491675Y-95121081D01*
X135622463Y-95436831D01*
X135778261Y-95670000D01*
X135743740Y-95670000D01*
X135456842Y-95727068D01*
X135186589Y-95839010D01*
X134943368Y-96001525D01*
X134736525Y-96208368D01*
X134574010Y-96451589D01*
X134462068Y-96721842D01*
X134405000Y-97008740D01*
X132207000Y-97008740D01*
X132207000Y-91904117D01*
X141775000Y-91904117D01*
X141775000Y-92245883D01*
X141841675Y-92581081D01*
X141972463Y-92896831D01*
X142162337Y-93180998D01*
X142404002Y-93422663D01*
X142688169Y-93612537D01*
X143003919Y-93743325D01*
X143339117Y-93810000D01*
X143680883Y-93810000D01*
X144016081Y-93743325D01*
X144331831Y-93612537D01*
X144615998Y-93422663D01*
X144857663Y-93180998D01*
X145047537Y-92896831D01*
X145178325Y-92581081D01*
X145245000Y-92245883D01*
X145245000Y-91904117D01*
X162095000Y-91904117D01*
X162095000Y-92245883D01*
X162161675Y-92581081D01*
X162292463Y-92896831D01*
X162482337Y-93180998D01*
X162724002Y-93422663D01*
X163008169Y-93612537D01*
X163323919Y-93743325D01*
X163659117Y-93810000D01*
X164000883Y-93810000D01*
X164336081Y-93743325D01*
X164651831Y-93612537D01*
X164935998Y-93422663D01*
X165177663Y-93180998D01*
X165367537Y-92896831D01*
X165498325Y-92581081D01*
X165565000Y-92245883D01*
X165565000Y-91904117D01*
X182415000Y-91904117D01*
X182415000Y-92245883D01*
X182481675Y-92581081D01*
X182612463Y-92896831D01*
X182802337Y-93180998D01*
X183044002Y-93422663D01*
X183328169Y-93612537D01*
X183643919Y-93743325D01*
X183979117Y-93810000D01*
X184320883Y-93810000D01*
X184656081Y-93743325D01*
X184971831Y-93612537D01*
X185255998Y-93422663D01*
X185497663Y-93180998D01*
X185687537Y-92896831D01*
X185818325Y-92581081D01*
X185885000Y-92245883D01*
X185885000Y-91904117D01*
X185818325Y-91568919D01*
X185687537Y-91253169D01*
X185497663Y-90969002D01*
X185255998Y-90727337D01*
X184971831Y-90537463D01*
X184656081Y-90406675D01*
X184320883Y-90340000D01*
X183979117Y-90340000D01*
X183643919Y-90406675D01*
X183328169Y-90537463D01*
X183044002Y-90727337D01*
X182802337Y-90969002D01*
X182612463Y-91253169D01*
X182481675Y-91568919D01*
X182415000Y-91904117D01*
X165565000Y-91904117D01*
X165498325Y-91568919D01*
X165367537Y-91253169D01*
X165177663Y-90969002D01*
X164935998Y-90727337D01*
X164651831Y-90537463D01*
X164336081Y-90406675D01*
X164000883Y-90340000D01*
X163659117Y-90340000D01*
X163323919Y-90406675D01*
X163008169Y-90537463D01*
X162724002Y-90727337D01*
X162482337Y-90969002D01*
X162292463Y-91253169D01*
X162161675Y-91568919D01*
X162095000Y-91904117D01*
X145245000Y-91904117D01*
X145178325Y-91568919D01*
X145047537Y-91253169D01*
X144857663Y-90969002D01*
X144615998Y-90727337D01*
X144331831Y-90537463D01*
X144016081Y-90406675D01*
X143680883Y-90340000D01*
X143339117Y-90340000D01*
X143003919Y-90406675D01*
X142688169Y-90537463D01*
X142404002Y-90727337D01*
X142162337Y-90969002D01*
X141972463Y-91253169D01*
X141841675Y-91568919D01*
X141775000Y-91904117D01*
X132207000Y-91904117D01*
X132207000Y-88450000D01*
X146951928Y-88450000D01*
X146951928Y-89350000D01*
X146964188Y-89474482D01*
X147000498Y-89594180D01*
X147059463Y-89704494D01*
X147138815Y-89801185D01*
X147235506Y-89880537D01*
X147345820Y-89939502D01*
X147465518Y-89975812D01*
X147590000Y-89988072D01*
X149590000Y-89988072D01*
X149714482Y-89975812D01*
X149834180Y-89939502D01*
X149944494Y-89880537D01*
X150041185Y-89801185D01*
X150120537Y-89704494D01*
X150179502Y-89594180D01*
X150215812Y-89474482D01*
X150228072Y-89350000D01*
X152031928Y-89350000D01*
X152044188Y-89474482D01*
X152080498Y-89594180D01*
X152139463Y-89704494D01*
X152218815Y-89801185D01*
X152315506Y-89880537D01*
X152425820Y-89939502D01*
X152545518Y-89975812D01*
X152670000Y-89988072D01*
X153384250Y-89985000D01*
X153543000Y-89826250D01*
X153543000Y-89027000D01*
X153797000Y-89027000D01*
X153797000Y-89826250D01*
X153955750Y-89985000D01*
X154670000Y-89988072D01*
X154794482Y-89975812D01*
X154914180Y-89939502D01*
X155024494Y-89880537D01*
X155121185Y-89801185D01*
X155200537Y-89704494D01*
X155259502Y-89594180D01*
X155295812Y-89474482D01*
X155308072Y-89350000D01*
X155305000Y-89185750D01*
X155146250Y-89027000D01*
X153797000Y-89027000D01*
X153543000Y-89027000D01*
X152193750Y-89027000D01*
X152035000Y-89185750D01*
X152031928Y-89350000D01*
X150228072Y-89350000D01*
X150228072Y-88450000D01*
X152031928Y-88450000D01*
X152035000Y-88614250D01*
X152193750Y-88773000D01*
X153543000Y-88773000D01*
X153543000Y-87973750D01*
X153797000Y-87973750D01*
X153797000Y-88773000D01*
X155146250Y-88773000D01*
X155305000Y-88614250D01*
X155308072Y-88450000D01*
X155295812Y-88325518D01*
X155259502Y-88205820D01*
X155200537Y-88095506D01*
X155121185Y-87998815D01*
X155024494Y-87919463D01*
X154914180Y-87860498D01*
X154794482Y-87824188D01*
X154670000Y-87811928D01*
X153955750Y-87815000D01*
X153797000Y-87973750D01*
X153543000Y-87973750D01*
X153384250Y-87815000D01*
X152670000Y-87811928D01*
X152545518Y-87824188D01*
X152425820Y-87860498D01*
X152315506Y-87919463D01*
X152218815Y-87998815D01*
X152139463Y-88095506D01*
X152080498Y-88205820D01*
X152044188Y-88325518D01*
X152031928Y-88450000D01*
X150228072Y-88450000D01*
X150215812Y-88325518D01*
X150179502Y-88205820D01*
X150120537Y-88095506D01*
X150041185Y-87998815D01*
X149944494Y-87919463D01*
X149834180Y-87860498D01*
X149714482Y-87824188D01*
X149590000Y-87811928D01*
X147590000Y-87811928D01*
X147465518Y-87824188D01*
X147345820Y-87860498D01*
X147235506Y-87919463D01*
X147138815Y-87998815D01*
X147059463Y-88095506D01*
X147000498Y-88205820D01*
X146964188Y-88325518D01*
X146951928Y-88450000D01*
X132207000Y-88450000D01*
X132207000Y-45720000D01*
X132204560Y-45695224D01*
X132197333Y-45671399D01*
X132185597Y-45649443D01*
X132169803Y-45630197D01*
X132150557Y-45614403D01*
X132128601Y-45602667D01*
X132104776Y-45595440D01*
X132080000Y-45593000D01*
X127687606Y-45593000D01*
X126492000Y-44397394D01*
X126492000Y-28210000D01*
X126875928Y-28210000D01*
X126875928Y-30210000D01*
X126888188Y-30334482D01*
X126924498Y-30454180D01*
X126983463Y-30564494D01*
X127062815Y-30661185D01*
X127079000Y-30674468D01*
X127079001Y-32825532D01*
X127062815Y-32838815D01*
X126983463Y-32935506D01*
X126924498Y-33045820D01*
X126888188Y-33165518D01*
X126875928Y-33290000D01*
X126875928Y-35290000D01*
X126888188Y-35414482D01*
X126924498Y-35534180D01*
X126983463Y-35644494D01*
X127062815Y-35741185D01*
X127079001Y-35754468D01*
X127079000Y-36635532D01*
X127062815Y-36648815D01*
X126983463Y-36745506D01*
X126924498Y-36855820D01*
X126888188Y-36975518D01*
X126875928Y-37100000D01*
X126875928Y-39100000D01*
X126888188Y-39224482D01*
X126924498Y-39344180D01*
X126983463Y-39454494D01*
X127062815Y-39551185D01*
X127079001Y-39564468D01*
X127079000Y-41715532D01*
X127062815Y-41728815D01*
X126983463Y-41825506D01*
X126924498Y-41935820D01*
X126888188Y-42055518D01*
X126875928Y-42180000D01*
X126875928Y-44180000D01*
X126888188Y-44304482D01*
X126924498Y-44424180D01*
X126983463Y-44534494D01*
X127062815Y-44631185D01*
X127078933Y-44644413D01*
X127090720Y-44764088D01*
X127137037Y-44916773D01*
X127212251Y-45057489D01*
X127313472Y-45180828D01*
X127436811Y-45282049D01*
X127577527Y-45357263D01*
X127730212Y-45403580D01*
X127849209Y-45415300D01*
X127889000Y-45419219D01*
X127928791Y-45415300D01*
X133783401Y-45415300D01*
X133783400Y-77352012D01*
X133779481Y-77391800D01*
X133783400Y-77431588D01*
X133783400Y-77431590D01*
X133795120Y-77550587D01*
X133841437Y-77703272D01*
X133841438Y-77703273D01*
X133916651Y-77843989D01*
X133948103Y-77882313D01*
X134017872Y-77967328D01*
X134048788Y-77992700D01*
X142198705Y-86142618D01*
X142224072Y-86173528D01*
X142291810Y-86229119D01*
X142347410Y-86274749D01*
X142422624Y-86314951D01*
X142488127Y-86349963D01*
X142640812Y-86396280D01*
X142759809Y-86408000D01*
X142759811Y-86408000D01*
X142799599Y-86411919D01*
X142839387Y-86408000D01*
X147063982Y-86408000D01*
X147138815Y-86499185D01*
X147235506Y-86578537D01*
X147345820Y-86637502D01*
X147465518Y-86673812D01*
X147590000Y-86686072D01*
X149590000Y-86686072D01*
X149714482Y-86673812D01*
X149834180Y-86637502D01*
X149944494Y-86578537D01*
X150041185Y-86499185D01*
X150120537Y-86402494D01*
X150121067Y-86401502D01*
X150174088Y-86396280D01*
X150326773Y-86349963D01*
X150467489Y-86274749D01*
X150590828Y-86173528D01*
X150616199Y-86142613D01*
X151226113Y-85532700D01*
X152031928Y-85532700D01*
X152031928Y-86048000D01*
X152044188Y-86172482D01*
X152080498Y-86292180D01*
X152139463Y-86402494D01*
X152218815Y-86499185D01*
X152315506Y-86578537D01*
X152425820Y-86637502D01*
X152545518Y-86673812D01*
X152670000Y-86686072D01*
X154670000Y-86686072D01*
X154794482Y-86673812D01*
X154914180Y-86637502D01*
X155024494Y-86578537D01*
X155121185Y-86499185D01*
X155200537Y-86402494D01*
X155224320Y-86358000D01*
X163782899Y-86358000D01*
X166835901Y-89411003D01*
X166859699Y-89440001D01*
X166975424Y-89534974D01*
X167107453Y-89605546D01*
X167148176Y-89617899D01*
X167194463Y-89704494D01*
X167273815Y-89801185D01*
X167370506Y-89880537D01*
X167480820Y-89939502D01*
X167600518Y-89975812D01*
X167725000Y-89988072D01*
X169725000Y-89988072D01*
X169849482Y-89975812D01*
X169969180Y-89939502D01*
X170079494Y-89880537D01*
X170176185Y-89801185D01*
X170255537Y-89704494D01*
X170314502Y-89594180D01*
X170350812Y-89474482D01*
X170363072Y-89350000D01*
X172166928Y-89350000D01*
X172179188Y-89474482D01*
X172215498Y-89594180D01*
X172274463Y-89704494D01*
X172353815Y-89801185D01*
X172450506Y-89880537D01*
X172560820Y-89939502D01*
X172680518Y-89975812D01*
X172805000Y-89988072D01*
X173519250Y-89985000D01*
X173678000Y-89826250D01*
X173678000Y-89027000D01*
X173932000Y-89027000D01*
X173932000Y-89826250D01*
X174090750Y-89985000D01*
X174805000Y-89988072D01*
X174929482Y-89975812D01*
X175049180Y-89939502D01*
X175159494Y-89880537D01*
X175256185Y-89801185D01*
X175335537Y-89704494D01*
X175394502Y-89594180D01*
X175430812Y-89474482D01*
X175443072Y-89350000D01*
X175440000Y-89185750D01*
X175281250Y-89027000D01*
X173932000Y-89027000D01*
X173678000Y-89027000D01*
X172328750Y-89027000D01*
X172170000Y-89185750D01*
X172166928Y-89350000D01*
X170363072Y-89350000D01*
X170363072Y-88450000D01*
X172166928Y-88450000D01*
X172170000Y-88614250D01*
X172328750Y-88773000D01*
X173678000Y-88773000D01*
X173678000Y-87973750D01*
X173932000Y-87973750D01*
X173932000Y-88773000D01*
X175281250Y-88773000D01*
X175440000Y-88614250D01*
X175443072Y-88450000D01*
X175430812Y-88325518D01*
X175394502Y-88205820D01*
X175335537Y-88095506D01*
X175256185Y-87998815D01*
X175159494Y-87919463D01*
X175049180Y-87860498D01*
X174929482Y-87824188D01*
X174805000Y-87811928D01*
X174090750Y-87815000D01*
X173932000Y-87973750D01*
X173678000Y-87973750D01*
X173519250Y-87815000D01*
X172805000Y-87811928D01*
X172680518Y-87824188D01*
X172560820Y-87860498D01*
X172450506Y-87919463D01*
X172353815Y-87998815D01*
X172274463Y-88095506D01*
X172215498Y-88205820D01*
X172179188Y-88325518D01*
X172166928Y-88450000D01*
X170363072Y-88450000D01*
X170350812Y-88325518D01*
X170314502Y-88205820D01*
X170255537Y-88095506D01*
X170176185Y-87998815D01*
X170079494Y-87919463D01*
X169969180Y-87860498D01*
X169849482Y-87824188D01*
X169725000Y-87811928D01*
X167725000Y-87811928D01*
X167600518Y-87824188D01*
X167480820Y-87860498D01*
X167450960Y-87876459D01*
X165107201Y-85532700D01*
X166088888Y-85532700D01*
X166698805Y-86142618D01*
X166724172Y-86173528D01*
X166791910Y-86229119D01*
X166847510Y-86274749D01*
X166922724Y-86314951D01*
X166988227Y-86349963D01*
X167140912Y-86396280D01*
X167193933Y-86401502D01*
X167194463Y-86402494D01*
X167273815Y-86499185D01*
X167370506Y-86578537D01*
X167480820Y-86637502D01*
X167600518Y-86673812D01*
X167725000Y-86686072D01*
X169725000Y-86686072D01*
X169849482Y-86673812D01*
X169969180Y-86637502D01*
X170079494Y-86578537D01*
X170176185Y-86499185D01*
X170255537Y-86402494D01*
X170314502Y-86292180D01*
X170350812Y-86172482D01*
X170363072Y-86048000D01*
X170363072Y-85148000D01*
X170350812Y-85023518D01*
X170314502Y-84903820D01*
X170255537Y-84793506D01*
X170176185Y-84696815D01*
X170079494Y-84617463D01*
X169969180Y-84558498D01*
X169849482Y-84522188D01*
X169725000Y-84509928D01*
X167725000Y-84509928D01*
X167600518Y-84522188D01*
X167480820Y-84558498D01*
X167431873Y-84584661D01*
X167025299Y-84178087D01*
X166999928Y-84147172D01*
X166876589Y-84045951D01*
X166735873Y-83970737D01*
X166583188Y-83924420D01*
X166464191Y-83912700D01*
X166464188Y-83912700D01*
X166424400Y-83908781D01*
X166384612Y-83912700D01*
X150930387Y-83912700D01*
X150890599Y-83908781D01*
X150850811Y-83912700D01*
X150850809Y-83912700D01*
X150731812Y-83924420D01*
X150579127Y-83970737D01*
X150513624Y-84005749D01*
X150438410Y-84045951D01*
X150382810Y-84091581D01*
X150315072Y-84147172D01*
X150289705Y-84178082D01*
X149883127Y-84584661D01*
X149834180Y-84558498D01*
X149714482Y-84522188D01*
X149590000Y-84509928D01*
X147590000Y-84509928D01*
X147465518Y-84522188D01*
X147345820Y-84558498D01*
X147235506Y-84617463D01*
X147138815Y-84696815D01*
X147063982Y-84788000D01*
X143135113Y-84788000D01*
X136526017Y-78178905D01*
X136593411Y-78150990D01*
X136836632Y-77988475D01*
X137043475Y-77781632D01*
X137205990Y-77538411D01*
X137317932Y-77268158D01*
X137375000Y-76981260D01*
X137375000Y-76688740D01*
X137317932Y-76401842D01*
X137205990Y-76131589D01*
X137138110Y-76030000D01*
X137330883Y-76030000D01*
X137666081Y-75963325D01*
X137981831Y-75832537D01*
X138265998Y-75642663D01*
X138507663Y-75400998D01*
X138697537Y-75116831D01*
X138723148Y-75055000D01*
X139023547Y-75055000D01*
X138923262Y-75155285D01*
X138634893Y-75586859D01*
X138436261Y-76066399D01*
X138335000Y-76575475D01*
X138335000Y-77094525D01*
X138436261Y-77603601D01*
X138634893Y-78083141D01*
X138923262Y-78514715D01*
X139290285Y-78881738D01*
X139721859Y-79170107D01*
X140201399Y-79368739D01*
X140710475Y-79470000D01*
X141229525Y-79470000D01*
X141738601Y-79368739D01*
X142218141Y-79170107D01*
X142649715Y-78881738D01*
X143016738Y-78514715D01*
X143305107Y-78083141D01*
X143503739Y-77603601D01*
X143605000Y-77094525D01*
X143605000Y-76688740D01*
X144565000Y-76688740D01*
X144565000Y-76981260D01*
X144622068Y-77268158D01*
X144734010Y-77538411D01*
X144896525Y-77781632D01*
X145103368Y-77988475D01*
X145346589Y-78150990D01*
X145616842Y-78262932D01*
X145903740Y-78320000D01*
X146196260Y-78320000D01*
X146483158Y-78262932D01*
X146753411Y-78150990D01*
X146996632Y-77988475D01*
X147203475Y-77781632D01*
X147365990Y-77538411D01*
X147477932Y-77268158D01*
X147535000Y-76981260D01*
X147535000Y-76688740D01*
X147477932Y-76401842D01*
X147365990Y-76131589D01*
X147203475Y-75888368D01*
X146996632Y-75681525D01*
X146753411Y-75519010D01*
X146483158Y-75407068D01*
X146196260Y-75350000D01*
X145903740Y-75350000D01*
X145616842Y-75407068D01*
X145346589Y-75519010D01*
X145103368Y-75681525D01*
X144896525Y-75888368D01*
X144734010Y-76131589D01*
X144622068Y-76401842D01*
X144565000Y-76688740D01*
X143605000Y-76688740D01*
X143605000Y-76575475D01*
X143503739Y-76066399D01*
X143305107Y-75586859D01*
X143016738Y-75155285D01*
X142916453Y-75055000D01*
X155916852Y-75055000D01*
X155942463Y-75116831D01*
X156098261Y-75350000D01*
X156063740Y-75350000D01*
X155776842Y-75407068D01*
X155506589Y-75519010D01*
X155263368Y-75681525D01*
X155056525Y-75888368D01*
X154894010Y-76131589D01*
X154782068Y-76401842D01*
X154725000Y-76688740D01*
X154725000Y-76981260D01*
X154782068Y-77268158D01*
X154894010Y-77538411D01*
X155056525Y-77781632D01*
X155263368Y-77988475D01*
X155506589Y-78150990D01*
X155776842Y-78262932D01*
X156063740Y-78320000D01*
X156356260Y-78320000D01*
X156643158Y-78262932D01*
X156913411Y-78150990D01*
X157156632Y-77988475D01*
X157363475Y-77781632D01*
X157525990Y-77538411D01*
X157637932Y-77268158D01*
X157695000Y-76981260D01*
X157695000Y-76688740D01*
X157672471Y-76575475D01*
X158655000Y-76575475D01*
X158655000Y-77094525D01*
X158756261Y-77603601D01*
X158954893Y-78083141D01*
X159243262Y-78514715D01*
X159610285Y-78881738D01*
X160041859Y-79170107D01*
X160521399Y-79368739D01*
X161030475Y-79470000D01*
X161549525Y-79470000D01*
X162058601Y-79368739D01*
X162538141Y-79170107D01*
X162969715Y-78881738D01*
X163336738Y-78514715D01*
X163625107Y-78083141D01*
X163823739Y-77603601D01*
X163925000Y-77094525D01*
X163925000Y-76688740D01*
X164885000Y-76688740D01*
X164885000Y-76981260D01*
X164942068Y-77268158D01*
X165054010Y-77538411D01*
X165216525Y-77781632D01*
X165423368Y-77988475D01*
X165666589Y-78150990D01*
X165936842Y-78262932D01*
X166223740Y-78320000D01*
X166516260Y-78320000D01*
X166803158Y-78262932D01*
X167073411Y-78150990D01*
X167316632Y-77988475D01*
X167523475Y-77781632D01*
X167685990Y-77538411D01*
X167797932Y-77268158D01*
X167855000Y-76981260D01*
X167855000Y-76688740D01*
X167797932Y-76401842D01*
X167685990Y-76131589D01*
X167523475Y-75888368D01*
X167316632Y-75681525D01*
X167073411Y-75519010D01*
X166803158Y-75407068D01*
X166516260Y-75350000D01*
X166223740Y-75350000D01*
X165936842Y-75407068D01*
X165666589Y-75519010D01*
X165423368Y-75681525D01*
X165216525Y-75888368D01*
X165054010Y-76131589D01*
X164942068Y-76401842D01*
X164885000Y-76688740D01*
X163925000Y-76688740D01*
X163925000Y-76575475D01*
X163823739Y-76066399D01*
X163625107Y-75586859D01*
X163336738Y-75155285D01*
X162969715Y-74788262D01*
X162538141Y-74499893D01*
X162058601Y-74301261D01*
X161549525Y-74200000D01*
X161030475Y-74200000D01*
X160521399Y-74301261D01*
X160041859Y-74499893D01*
X159610285Y-74788262D01*
X159243262Y-75155285D01*
X158954893Y-75586859D01*
X158756261Y-76066399D01*
X158655000Y-76575475D01*
X157672471Y-76575475D01*
X157637932Y-76401842D01*
X157525990Y-76131589D01*
X157458110Y-76030000D01*
X157650883Y-76030000D01*
X157986081Y-75963325D01*
X158301831Y-75832537D01*
X158585998Y-75642663D01*
X158827663Y-75400998D01*
X159017537Y-75116831D01*
X159148325Y-74801081D01*
X159215000Y-74465883D01*
X159215000Y-74124117D01*
X159148325Y-73788919D01*
X159017537Y-73473169D01*
X158827663Y-73189002D01*
X158585998Y-72947337D01*
X158301831Y-72757463D01*
X157986081Y-72626675D01*
X157650883Y-72560000D01*
X157309117Y-72560000D01*
X156973919Y-72626675D01*
X156658169Y-72757463D01*
X156374002Y-72947337D01*
X156132337Y-73189002D01*
X155942463Y-73473169D01*
X155916852Y-73535000D01*
X138723148Y-73535000D01*
X138697537Y-73473169D01*
X138507663Y-73189002D01*
X138265998Y-72947337D01*
X137981831Y-72757463D01*
X137666081Y-72626675D01*
X137330883Y-72560000D01*
X136989117Y-72560000D01*
X136653919Y-72626675D01*
X136338169Y-72757463D01*
X136054002Y-72947337D01*
X135812337Y-73189002D01*
X135622463Y-73473169D01*
X135491675Y-73788919D01*
X135425000Y-74124117D01*
X135425000Y-74465883D01*
X135491675Y-74801081D01*
X135622463Y-75116831D01*
X135778261Y-75350000D01*
X135743740Y-75350000D01*
X135456842Y-75407068D01*
X135403400Y-75429204D01*
X135403400Y-71584117D01*
X141775000Y-71584117D01*
X141775000Y-71925883D01*
X141841675Y-72261081D01*
X141972463Y-72576831D01*
X142162337Y-72860998D01*
X142404002Y-73102663D01*
X142688169Y-73292537D01*
X143003919Y-73423325D01*
X143339117Y-73490000D01*
X143680883Y-73490000D01*
X144016081Y-73423325D01*
X144331831Y-73292537D01*
X144615998Y-73102663D01*
X144857663Y-72860998D01*
X145047537Y-72576831D01*
X145178325Y-72261081D01*
X145245000Y-71925883D01*
X145245000Y-71584117D01*
X145178325Y-71248919D01*
X145047537Y-70933169D01*
X144857663Y-70649002D01*
X144615998Y-70407337D01*
X144331831Y-70217463D01*
X144016081Y-70086675D01*
X143680883Y-70020000D01*
X143339117Y-70020000D01*
X143003919Y-70086675D01*
X142688169Y-70217463D01*
X142404002Y-70407337D01*
X142162337Y-70649002D01*
X141972463Y-70933169D01*
X141841675Y-71248919D01*
X141775000Y-71584117D01*
X135403400Y-71584117D01*
X135403400Y-66577408D01*
X147193000Y-66577408D01*
X147193000Y-66852592D01*
X147246686Y-67122490D01*
X147351995Y-67376727D01*
X147504880Y-67605535D01*
X147699465Y-67800120D01*
X147928273Y-67953005D01*
X148182510Y-68058314D01*
X148452408Y-68112000D01*
X148727592Y-68112000D01*
X148997490Y-68058314D01*
X149251727Y-67953005D01*
X149480535Y-67800120D01*
X149675120Y-67605535D01*
X149828005Y-67376727D01*
X149933314Y-67122490D01*
X149987000Y-66852592D01*
X149987000Y-66577408D01*
X152273000Y-66577408D01*
X152273000Y-66852592D01*
X152326686Y-67122490D01*
X152431995Y-67376727D01*
X152584880Y-67605535D01*
X152779465Y-67800120D01*
X153008273Y-67953005D01*
X153262510Y-68058314D01*
X153532408Y-68112000D01*
X153807592Y-68112000D01*
X154077490Y-68058314D01*
X154331727Y-67953005D01*
X154560535Y-67800120D01*
X154755120Y-67605535D01*
X154869068Y-67435000D01*
X154902667Y-67435000D01*
X154940000Y-67438677D01*
X154977333Y-67435000D01*
X158117292Y-67435000D01*
X158083115Y-67498940D01*
X158016785Y-67717600D01*
X157994388Y-67945000D01*
X158016785Y-68172400D01*
X158083115Y-68391060D01*
X158190829Y-68592579D01*
X158335788Y-68769212D01*
X158512421Y-68914171D01*
X158713940Y-69021885D01*
X158932600Y-69088215D01*
X159103021Y-69105000D01*
X159666979Y-69105000D01*
X159837400Y-69088215D01*
X160056060Y-69021885D01*
X160257579Y-68914171D01*
X160434212Y-68769212D01*
X160579171Y-68592579D01*
X160686885Y-68391060D01*
X160753215Y-68172400D01*
X160775612Y-67945000D01*
X160753215Y-67717600D01*
X160686885Y-67498940D01*
X160585895Y-67310000D01*
X160686885Y-67121060D01*
X160753215Y-66902400D01*
X160775612Y-66675000D01*
X160753215Y-66447600D01*
X160689907Y-66238902D01*
X160724502Y-66174180D01*
X160760812Y-66054482D01*
X160773072Y-65930000D01*
X160770000Y-65690750D01*
X160611250Y-65532000D01*
X159838109Y-65532000D01*
X159837400Y-65531785D01*
X159666979Y-65515000D01*
X159103021Y-65515000D01*
X158932600Y-65531785D01*
X158931891Y-65532000D01*
X158158750Y-65532000D01*
X158000000Y-65690750D01*
X157997121Y-65915000D01*
X155700000Y-65915000D01*
X155700000Y-64880000D01*
X157996928Y-64880000D01*
X158000000Y-65119250D01*
X158158750Y-65278000D01*
X159258000Y-65278000D01*
X159258000Y-64403750D01*
X159512000Y-64403750D01*
X159512000Y-65278000D01*
X160611250Y-65278000D01*
X160770000Y-65119250D01*
X160773072Y-64880000D01*
X160760812Y-64755518D01*
X160724502Y-64635820D01*
X160665537Y-64525506D01*
X160586185Y-64428815D01*
X160489494Y-64349463D01*
X160379180Y-64290498D01*
X160259482Y-64254188D01*
X160135000Y-64241928D01*
X159670750Y-64245000D01*
X159512000Y-64403750D01*
X159258000Y-64403750D01*
X159099250Y-64245000D01*
X158635000Y-64241928D01*
X158510518Y-64254188D01*
X158390820Y-64290498D01*
X158280506Y-64349463D01*
X158183815Y-64428815D01*
X158104463Y-64525506D01*
X158045498Y-64635820D01*
X158009188Y-64755518D01*
X157996928Y-64880000D01*
X155700000Y-64880000D01*
X155700000Y-61863072D01*
X155840000Y-61863072D01*
X155964482Y-61850812D01*
X156084180Y-61814502D01*
X156194494Y-61755537D01*
X156291185Y-61676185D01*
X156370537Y-61579494D01*
X156429502Y-61469180D01*
X156465812Y-61349482D01*
X156478072Y-61225000D01*
X156478072Y-59425000D01*
X156465812Y-59300518D01*
X156429502Y-59180820D01*
X156370537Y-59070506D01*
X156291185Y-58973815D01*
X156194494Y-58894463D01*
X156084180Y-58835498D01*
X155964482Y-58799188D01*
X155840000Y-58786928D01*
X154040000Y-58786928D01*
X153915518Y-58799188D01*
X153795820Y-58835498D01*
X153685506Y-58894463D01*
X153588815Y-58973815D01*
X153509463Y-59070506D01*
X153450498Y-59180820D01*
X153414188Y-59300518D01*
X153401928Y-59425000D01*
X153401928Y-61225000D01*
X153414188Y-61349482D01*
X153450498Y-61469180D01*
X153509463Y-61579494D01*
X153588815Y-61676185D01*
X153685506Y-61755537D01*
X153795820Y-61814502D01*
X153915518Y-61850812D01*
X154040000Y-61863072D01*
X154180001Y-61863072D01*
X154180000Y-65414147D01*
X154077490Y-65371686D01*
X153807592Y-65318000D01*
X153532408Y-65318000D01*
X153262510Y-65371686D01*
X153008273Y-65476995D01*
X152779465Y-65629880D01*
X152584880Y-65824465D01*
X152431995Y-66053273D01*
X152326686Y-66307510D01*
X152273000Y-66577408D01*
X149987000Y-66577408D01*
X149933314Y-66307510D01*
X149828005Y-66053273D01*
X149675120Y-65824465D01*
X149480535Y-65629880D01*
X149251727Y-65476995D01*
X148997490Y-65371686D01*
X148727592Y-65318000D01*
X148452408Y-65318000D01*
X148182510Y-65371686D01*
X147928273Y-65476995D01*
X147699465Y-65629880D01*
X147504880Y-65824465D01*
X147351995Y-66053273D01*
X147246686Y-66307510D01*
X147193000Y-66577408D01*
X135403400Y-66577408D01*
X135403400Y-60173816D01*
X145785000Y-60173816D01*
X145785000Y-60476184D01*
X145843989Y-60772743D01*
X145959701Y-61052095D01*
X146127688Y-61303505D01*
X146341495Y-61517312D01*
X146592905Y-61685299D01*
X146872257Y-61801011D01*
X147168816Y-61860000D01*
X147471184Y-61860000D01*
X147767743Y-61801011D01*
X148047095Y-61685299D01*
X148298505Y-61517312D01*
X148512312Y-61303505D01*
X148680299Y-61052095D01*
X148796011Y-60772743D01*
X148855000Y-60476184D01*
X148855000Y-60173816D01*
X148796011Y-59877257D01*
X148680299Y-59597905D01*
X148512312Y-59346495D01*
X148298505Y-59132688D01*
X148047095Y-58964701D01*
X147767743Y-58848989D01*
X147471184Y-58790000D01*
X147168816Y-58790000D01*
X146872257Y-58848989D01*
X146592905Y-58964701D01*
X146341495Y-59132688D01*
X146127688Y-59346495D01*
X145959701Y-59597905D01*
X145843989Y-59877257D01*
X145785000Y-60173816D01*
X135403400Y-60173816D01*
X135403400Y-57920796D01*
X135456842Y-57942932D01*
X135743740Y-58000000D01*
X136036260Y-58000000D01*
X136323158Y-57942932D01*
X136593411Y-57830990D01*
X136836632Y-57668475D01*
X137043475Y-57461632D01*
X137205990Y-57218411D01*
X137317932Y-56948158D01*
X137375000Y-56661260D01*
X137375000Y-56368740D01*
X137317932Y-56081842D01*
X137205990Y-55811589D01*
X137138110Y-55710000D01*
X137330883Y-55710000D01*
X137666081Y-55643325D01*
X137981831Y-55512537D01*
X138265998Y-55322663D01*
X138507663Y-55080998D01*
X138697537Y-54796831D01*
X138723148Y-54735000D01*
X139023547Y-54735000D01*
X138923262Y-54835285D01*
X138634893Y-55266859D01*
X138436261Y-55746399D01*
X138335000Y-56255475D01*
X138335000Y-56774525D01*
X138436261Y-57283601D01*
X138634893Y-57763141D01*
X138923262Y-58194715D01*
X139290285Y-58561738D01*
X139721859Y-58850107D01*
X140201399Y-59048739D01*
X140710475Y-59150000D01*
X141229525Y-59150000D01*
X141738601Y-59048739D01*
X142218141Y-58850107D01*
X142649715Y-58561738D01*
X143016738Y-58194715D01*
X143305107Y-57763141D01*
X143503739Y-57283601D01*
X143605000Y-56774525D01*
X143605000Y-56368740D01*
X144565000Y-56368740D01*
X144565000Y-56661260D01*
X144622068Y-56948158D01*
X144734010Y-57218411D01*
X144896525Y-57461632D01*
X145103368Y-57668475D01*
X145346589Y-57830990D01*
X145616842Y-57942932D01*
X145903740Y-58000000D01*
X146196260Y-58000000D01*
X146483158Y-57942932D01*
X146753411Y-57830990D01*
X146996632Y-57668475D01*
X147203475Y-57461632D01*
X147365990Y-57218411D01*
X147477932Y-56948158D01*
X147535000Y-56661260D01*
X147535000Y-56368740D01*
X147477932Y-56081842D01*
X147365990Y-55811589D01*
X147203475Y-55568368D01*
X146996632Y-55361525D01*
X146753411Y-55199010D01*
X146483158Y-55087068D01*
X146196260Y-55030000D01*
X145903740Y-55030000D01*
X145616842Y-55087068D01*
X145346589Y-55199010D01*
X145103368Y-55361525D01*
X144896525Y-55568368D01*
X144734010Y-55811589D01*
X144622068Y-56081842D01*
X144565000Y-56368740D01*
X143605000Y-56368740D01*
X143605000Y-56255475D01*
X143503739Y-55746399D01*
X143305107Y-55266859D01*
X143016738Y-54835285D01*
X142916453Y-54735000D01*
X155916852Y-54735000D01*
X155942463Y-54796831D01*
X156098261Y-55030000D01*
X156063740Y-55030000D01*
X155776842Y-55087068D01*
X155506589Y-55199010D01*
X155263368Y-55361525D01*
X155056525Y-55568368D01*
X154894010Y-55811589D01*
X154782068Y-56081842D01*
X154725000Y-56368740D01*
X154725000Y-56661260D01*
X154782068Y-56948158D01*
X154894010Y-57218411D01*
X155056525Y-57461632D01*
X155263368Y-57668475D01*
X155506589Y-57830990D01*
X155776842Y-57942932D01*
X156063740Y-58000000D01*
X156356260Y-58000000D01*
X156643158Y-57942932D01*
X156913411Y-57830990D01*
X157156632Y-57668475D01*
X157363475Y-57461632D01*
X157525990Y-57218411D01*
X157637932Y-56948158D01*
X157695000Y-56661260D01*
X157695000Y-56368740D01*
X157672471Y-56255475D01*
X158655000Y-56255475D01*
X158655000Y-56774525D01*
X158756261Y-57283601D01*
X158954893Y-57763141D01*
X159243262Y-58194715D01*
X159610285Y-58561738D01*
X160041859Y-58850107D01*
X160521399Y-59048739D01*
X161030475Y-59150000D01*
X161549525Y-59150000D01*
X162058601Y-59048739D01*
X162538141Y-58850107D01*
X162969715Y-58561738D01*
X163070000Y-58461453D01*
X163070001Y-70191851D01*
X163008169Y-70217463D01*
X162724002Y-70407337D01*
X162482337Y-70649002D01*
X162292463Y-70933169D01*
X162161675Y-71248919D01*
X162095000Y-71584117D01*
X162095000Y-71925883D01*
X162161675Y-72261081D01*
X162292463Y-72576831D01*
X162482337Y-72860998D01*
X162724002Y-73102663D01*
X163008169Y-73292537D01*
X163323919Y-73423325D01*
X163659117Y-73490000D01*
X164000883Y-73490000D01*
X164336081Y-73423325D01*
X164651831Y-73292537D01*
X164935998Y-73102663D01*
X165177663Y-72860998D01*
X165367537Y-72576831D01*
X165498325Y-72261081D01*
X165565000Y-71925883D01*
X165565000Y-71584117D01*
X165498325Y-71248919D01*
X165367537Y-70933169D01*
X165177663Y-70649002D01*
X164935998Y-70407337D01*
X164651831Y-70217463D01*
X164590000Y-70191852D01*
X164590000Y-56368740D01*
X164885000Y-56368740D01*
X164885000Y-56661260D01*
X164942068Y-56948158D01*
X165054010Y-57218411D01*
X165216525Y-57461632D01*
X165423368Y-57668475D01*
X165666589Y-57830990D01*
X165936842Y-57942932D01*
X166223740Y-58000000D01*
X166516260Y-58000000D01*
X166803158Y-57942932D01*
X167073411Y-57830990D01*
X167316632Y-57668475D01*
X167523475Y-57461632D01*
X167685990Y-57218411D01*
X167797932Y-56948158D01*
X167855000Y-56661260D01*
X167855000Y-56368740D01*
X167797932Y-56081842D01*
X167685990Y-55811589D01*
X167523475Y-55568368D01*
X167316632Y-55361525D01*
X167073411Y-55199010D01*
X166803158Y-55087068D01*
X166516260Y-55030000D01*
X166223740Y-55030000D01*
X165936842Y-55087068D01*
X165666589Y-55199010D01*
X165423368Y-55361525D01*
X165216525Y-55568368D01*
X165054010Y-55811589D01*
X164942068Y-56081842D01*
X164885000Y-56368740D01*
X164590000Y-56368740D01*
X164590000Y-52998148D01*
X164651831Y-52972537D01*
X164935998Y-52782663D01*
X165177663Y-52540998D01*
X165367537Y-52256831D01*
X165498325Y-51941081D01*
X165565000Y-51605883D01*
X165565000Y-51264117D01*
X165498325Y-50928919D01*
X165367537Y-50613169D01*
X165177663Y-50329002D01*
X164935998Y-50087337D01*
X164651831Y-49897463D01*
X164336081Y-49766675D01*
X164000883Y-49700000D01*
X163659117Y-49700000D01*
X163323919Y-49766675D01*
X163008169Y-49897463D01*
X162724002Y-50087337D01*
X162482337Y-50329002D01*
X162292463Y-50613169D01*
X162161675Y-50928919D01*
X162095000Y-51264117D01*
X162095000Y-51605883D01*
X162161675Y-51941081D01*
X162292463Y-52256831D01*
X162482337Y-52540998D01*
X162724002Y-52782663D01*
X163008169Y-52972537D01*
X163070000Y-52998148D01*
X163070000Y-54568547D01*
X162969715Y-54468262D01*
X162538141Y-54179893D01*
X162058601Y-53981261D01*
X161549525Y-53880000D01*
X161030475Y-53880000D01*
X160521399Y-53981261D01*
X160041859Y-54179893D01*
X159610285Y-54468262D01*
X159243262Y-54835285D01*
X158954893Y-55266859D01*
X158756261Y-55746399D01*
X158655000Y-56255475D01*
X157672471Y-56255475D01*
X157637932Y-56081842D01*
X157525990Y-55811589D01*
X157458110Y-55710000D01*
X157650883Y-55710000D01*
X157986081Y-55643325D01*
X158301831Y-55512537D01*
X158585998Y-55322663D01*
X158827663Y-55080998D01*
X159017537Y-54796831D01*
X159148325Y-54481081D01*
X159215000Y-54145883D01*
X159215000Y-53804117D01*
X159148325Y-53468919D01*
X159017537Y-53153169D01*
X158827663Y-52869002D01*
X158585998Y-52627337D01*
X158301831Y-52437463D01*
X157986081Y-52306675D01*
X157650883Y-52240000D01*
X157309117Y-52240000D01*
X156973919Y-52306675D01*
X156658169Y-52437463D01*
X156374002Y-52627337D01*
X156132337Y-52869002D01*
X155942463Y-53153169D01*
X155916852Y-53215000D01*
X138723148Y-53215000D01*
X138697537Y-53153169D01*
X138507663Y-52869002D01*
X138265998Y-52627337D01*
X137981831Y-52437463D01*
X137666081Y-52306675D01*
X137330883Y-52240000D01*
X136989117Y-52240000D01*
X136653919Y-52306675D01*
X136338169Y-52437463D01*
X136054002Y-52627337D01*
X135812337Y-52869002D01*
X135622463Y-53153169D01*
X135491675Y-53468919D01*
X135425000Y-53804117D01*
X135425000Y-54145883D01*
X135491675Y-54481081D01*
X135622463Y-54796831D01*
X135778261Y-55030000D01*
X135743740Y-55030000D01*
X135456842Y-55087068D01*
X135403400Y-55109204D01*
X135403400Y-51264117D01*
X141775000Y-51264117D01*
X141775000Y-51605883D01*
X141841675Y-51941081D01*
X141972463Y-52256831D01*
X142162337Y-52540998D01*
X142404002Y-52782663D01*
X142688169Y-52972537D01*
X143003919Y-53103325D01*
X143339117Y-53170000D01*
X143680883Y-53170000D01*
X144016081Y-53103325D01*
X144331831Y-52972537D01*
X144615998Y-52782663D01*
X144857663Y-52540998D01*
X145047537Y-52256831D01*
X145178325Y-51941081D01*
X145245000Y-51605883D01*
X145245000Y-51264117D01*
X145178325Y-50928919D01*
X145047537Y-50613169D01*
X144857663Y-50329002D01*
X144615998Y-50087337D01*
X144331831Y-49897463D01*
X144016081Y-49766675D01*
X143680883Y-49700000D01*
X143339117Y-49700000D01*
X143003919Y-49766675D01*
X142688169Y-49897463D01*
X142404002Y-50087337D01*
X142162337Y-50329002D01*
X141972463Y-50613169D01*
X141841675Y-50928919D01*
X141775000Y-51264117D01*
X135403400Y-51264117D01*
X135403400Y-45415300D01*
X145535509Y-45415300D01*
X145575300Y-45419219D01*
X145615091Y-45415300D01*
X146476488Y-45415300D01*
X146563800Y-45502612D01*
X146589172Y-45533528D01*
X146712511Y-45634749D01*
X146853227Y-45709963D01*
X147005912Y-45756280D01*
X147058933Y-45761502D01*
X147059463Y-45762494D01*
X147138815Y-45859185D01*
X147235506Y-45938537D01*
X147345820Y-45997502D01*
X147465518Y-46033812D01*
X147590000Y-46046072D01*
X149590000Y-46046072D01*
X149714482Y-46033812D01*
X149834180Y-45997502D01*
X149944494Y-45938537D01*
X150041185Y-45859185D01*
X150120537Y-45762494D01*
X150121067Y-45761502D01*
X150174088Y-45756280D01*
X150326773Y-45709963D01*
X150467489Y-45634749D01*
X150590828Y-45533528D01*
X150616200Y-45502612D01*
X154942313Y-41176500D01*
X160692798Y-41176500D01*
X157671299Y-44198000D01*
X155224320Y-44198000D01*
X155200537Y-44153506D01*
X155121185Y-44056815D01*
X155024494Y-43977463D01*
X154914180Y-43918498D01*
X154794482Y-43882188D01*
X154670000Y-43869928D01*
X152670000Y-43869928D01*
X152545518Y-43882188D01*
X152425820Y-43918498D01*
X152315506Y-43977463D01*
X152218815Y-44056815D01*
X152139463Y-44153506D01*
X152080498Y-44263820D01*
X152044188Y-44383518D01*
X152031928Y-44508000D01*
X152031928Y-45408000D01*
X152044188Y-45532482D01*
X152063820Y-45597200D01*
X151855433Y-45597200D01*
X151818100Y-45593523D01*
X151780767Y-45597200D01*
X151669114Y-45608197D01*
X151525853Y-45651654D01*
X151393824Y-45722226D01*
X151278099Y-45817199D01*
X151254301Y-45846197D01*
X149864040Y-47236459D01*
X149834180Y-47220498D01*
X149714482Y-47184188D01*
X149590000Y-47171928D01*
X147590000Y-47171928D01*
X147465518Y-47184188D01*
X147345820Y-47220498D01*
X147235506Y-47279463D01*
X147138815Y-47358815D01*
X147059463Y-47455506D01*
X147000498Y-47565820D01*
X146964188Y-47685518D01*
X146951928Y-47810000D01*
X146951928Y-48710000D01*
X146964188Y-48834482D01*
X147000498Y-48954180D01*
X147059463Y-49064494D01*
X147138815Y-49161185D01*
X147235506Y-49240537D01*
X147345820Y-49299502D01*
X147465518Y-49335812D01*
X147590000Y-49348072D01*
X149590000Y-49348072D01*
X149714482Y-49335812D01*
X149834180Y-49299502D01*
X149944494Y-49240537D01*
X150041185Y-49161185D01*
X150120537Y-49064494D01*
X150166824Y-48977899D01*
X150207547Y-48965546D01*
X150339576Y-48894974D01*
X150455301Y-48800001D01*
X150479104Y-48770997D01*
X150540101Y-48710000D01*
X152031928Y-48710000D01*
X152044188Y-48834482D01*
X152080498Y-48954180D01*
X152139463Y-49064494D01*
X152218815Y-49161185D01*
X152315506Y-49240537D01*
X152425820Y-49299502D01*
X152545518Y-49335812D01*
X152670000Y-49348072D01*
X153384250Y-49345000D01*
X153543000Y-49186250D01*
X153543000Y-48387000D01*
X153797000Y-48387000D01*
X153797000Y-49186250D01*
X153955750Y-49345000D01*
X154670000Y-49348072D01*
X154794482Y-49335812D01*
X154914180Y-49299502D01*
X155024494Y-49240537D01*
X155121185Y-49161185D01*
X155200537Y-49064494D01*
X155259502Y-48954180D01*
X155295812Y-48834482D01*
X155308072Y-48710000D01*
X155305000Y-48545750D01*
X155146250Y-48387000D01*
X153797000Y-48387000D01*
X153543000Y-48387000D01*
X152193750Y-48387000D01*
X152035000Y-48545750D01*
X152031928Y-48710000D01*
X150540101Y-48710000D01*
X151440101Y-47810000D01*
X152031928Y-47810000D01*
X152035000Y-47974250D01*
X152193750Y-48133000D01*
X153543000Y-48133000D01*
X153543000Y-47333750D01*
X153797000Y-47333750D01*
X153797000Y-48133000D01*
X155146250Y-48133000D01*
X155305000Y-47974250D01*
X155308072Y-47810000D01*
X167271928Y-47810000D01*
X167271928Y-48710000D01*
X167284188Y-48834482D01*
X167320498Y-48954180D01*
X167379463Y-49064494D01*
X167458815Y-49161185D01*
X167555506Y-49240537D01*
X167665820Y-49299502D01*
X167785518Y-49335812D01*
X167910000Y-49348072D01*
X169475301Y-49348072D01*
X169475300Y-81990978D01*
X169471624Y-82028300D01*
X169475300Y-82065622D01*
X169475300Y-82065632D01*
X169486297Y-82177285D01*
X169529754Y-82320546D01*
X169600326Y-82452576D01*
X169640171Y-82501126D01*
X169695299Y-82568301D01*
X169724303Y-82592104D01*
X172177084Y-85044885D01*
X172166928Y-85148000D01*
X172166928Y-86048000D01*
X172179188Y-86172482D01*
X172215498Y-86292180D01*
X172274463Y-86402494D01*
X172353815Y-86499185D01*
X172450506Y-86578537D01*
X172560820Y-86637502D01*
X172680518Y-86673812D01*
X172805000Y-86686072D01*
X174805000Y-86686072D01*
X174929482Y-86673812D01*
X175049180Y-86637502D01*
X175159494Y-86578537D01*
X175256185Y-86499185D01*
X175335537Y-86402494D01*
X175394502Y-86292180D01*
X175430812Y-86172482D01*
X175443072Y-86048000D01*
X175443072Y-85148000D01*
X175430812Y-85023518D01*
X175394502Y-84903820D01*
X175335537Y-84793506D01*
X175256185Y-84696815D01*
X175159494Y-84617463D01*
X175049180Y-84558498D01*
X174929482Y-84522188D01*
X174805000Y-84509928D01*
X173791730Y-84509928D01*
X170995300Y-81713499D01*
X170995300Y-76688740D01*
X175045000Y-76688740D01*
X175045000Y-76981260D01*
X175102068Y-77268158D01*
X175214010Y-77538411D01*
X175376525Y-77781632D01*
X175583368Y-77988475D01*
X175826589Y-78150990D01*
X176096842Y-78262932D01*
X176383740Y-78320000D01*
X176676260Y-78320000D01*
X176963158Y-78262932D01*
X177233411Y-78150990D01*
X177476632Y-77988475D01*
X177683475Y-77781632D01*
X177845990Y-77538411D01*
X177957932Y-77268158D01*
X178015000Y-76981260D01*
X178015000Y-76688740D01*
X177992471Y-76575475D01*
X178975000Y-76575475D01*
X178975000Y-77094525D01*
X179076261Y-77603601D01*
X179274893Y-78083141D01*
X179563262Y-78514715D01*
X179930285Y-78881738D01*
X180361859Y-79170107D01*
X180841399Y-79368739D01*
X181350475Y-79470000D01*
X181869525Y-79470000D01*
X182378601Y-79368739D01*
X182858141Y-79170107D01*
X183289715Y-78881738D01*
X183656738Y-78514715D01*
X183945107Y-78083141D01*
X184143739Y-77603601D01*
X184245000Y-77094525D01*
X184245000Y-76688740D01*
X185205000Y-76688740D01*
X185205000Y-76981260D01*
X185262068Y-77268158D01*
X185374010Y-77538411D01*
X185536525Y-77781632D01*
X185743368Y-77988475D01*
X185986589Y-78150990D01*
X186256842Y-78262932D01*
X186543740Y-78320000D01*
X186836260Y-78320000D01*
X187123158Y-78262932D01*
X187393411Y-78150990D01*
X187636632Y-77988475D01*
X187843475Y-77781632D01*
X188005990Y-77538411D01*
X188117932Y-77268158D01*
X188175000Y-76981260D01*
X188175000Y-76688740D01*
X188117932Y-76401842D01*
X188005990Y-76131589D01*
X187843475Y-75888368D01*
X187636632Y-75681525D01*
X187393411Y-75519010D01*
X187123158Y-75407068D01*
X186836260Y-75350000D01*
X186543740Y-75350000D01*
X186256842Y-75407068D01*
X185986589Y-75519010D01*
X185743368Y-75681525D01*
X185536525Y-75888368D01*
X185374010Y-76131589D01*
X185262068Y-76401842D01*
X185205000Y-76688740D01*
X184245000Y-76688740D01*
X184245000Y-76575475D01*
X184143739Y-76066399D01*
X183945107Y-75586859D01*
X183656738Y-75155285D01*
X183289715Y-74788262D01*
X182858141Y-74499893D01*
X182378601Y-74301261D01*
X181869525Y-74200000D01*
X181350475Y-74200000D01*
X180841399Y-74301261D01*
X180361859Y-74499893D01*
X179930285Y-74788262D01*
X179563262Y-75155285D01*
X179274893Y-75586859D01*
X179076261Y-76066399D01*
X178975000Y-76575475D01*
X177992471Y-76575475D01*
X177957932Y-76401842D01*
X177845990Y-76131589D01*
X177778110Y-76030000D01*
X177970883Y-76030000D01*
X178306081Y-75963325D01*
X178621831Y-75832537D01*
X178905998Y-75642663D01*
X179147663Y-75400998D01*
X179337537Y-75116831D01*
X179468325Y-74801081D01*
X179535000Y-74465883D01*
X179535000Y-74124117D01*
X179468325Y-73788919D01*
X179337537Y-73473169D01*
X179147663Y-73189002D01*
X178905998Y-72947337D01*
X178621831Y-72757463D01*
X178306081Y-72626675D01*
X177970883Y-72560000D01*
X177629117Y-72560000D01*
X177293919Y-72626675D01*
X176978169Y-72757463D01*
X176694002Y-72947337D01*
X176452337Y-73189002D01*
X176262463Y-73473169D01*
X176131675Y-73788919D01*
X176065000Y-74124117D01*
X176065000Y-74465883D01*
X176131675Y-74801081D01*
X176262463Y-75116831D01*
X176418261Y-75350000D01*
X176383740Y-75350000D01*
X176096842Y-75407068D01*
X175826589Y-75519010D01*
X175583368Y-75681525D01*
X175376525Y-75888368D01*
X175214010Y-76131589D01*
X175102068Y-76401842D01*
X175045000Y-76688740D01*
X170995300Y-76688740D01*
X170995300Y-56368740D01*
X175045000Y-56368740D01*
X175045000Y-56661260D01*
X175102068Y-56948158D01*
X175214010Y-57218411D01*
X175376525Y-57461632D01*
X175583368Y-57668475D01*
X175826589Y-57830990D01*
X176096842Y-57942932D01*
X176383740Y-58000000D01*
X176676260Y-58000000D01*
X176963158Y-57942932D01*
X177233411Y-57830990D01*
X177476632Y-57668475D01*
X177683475Y-57461632D01*
X177845990Y-57218411D01*
X177957932Y-56948158D01*
X178015000Y-56661260D01*
X178015000Y-56368740D01*
X177992471Y-56255475D01*
X178975000Y-56255475D01*
X178975000Y-56774525D01*
X179076261Y-57283601D01*
X179274893Y-57763141D01*
X179563262Y-58194715D01*
X179930285Y-58561738D01*
X180361859Y-58850107D01*
X180841399Y-59048739D01*
X181350475Y-59150000D01*
X181869525Y-59150000D01*
X182378601Y-59048739D01*
X182858141Y-58850107D01*
X183289715Y-58561738D01*
X183390001Y-58461452D01*
X183390000Y-70191852D01*
X183328169Y-70217463D01*
X183044002Y-70407337D01*
X182802337Y-70649002D01*
X182612463Y-70933169D01*
X182481675Y-71248919D01*
X182415000Y-71584117D01*
X182415000Y-71925883D01*
X182481675Y-72261081D01*
X182612463Y-72576831D01*
X182802337Y-72860998D01*
X183044002Y-73102663D01*
X183328169Y-73292537D01*
X183643919Y-73423325D01*
X183979117Y-73490000D01*
X184320883Y-73490000D01*
X184656081Y-73423325D01*
X184971831Y-73292537D01*
X185255998Y-73102663D01*
X185497663Y-72860998D01*
X185687537Y-72576831D01*
X185818325Y-72261081D01*
X185885000Y-71925883D01*
X185885000Y-71584117D01*
X185818325Y-71248919D01*
X185687537Y-70933169D01*
X185497663Y-70649002D01*
X185255998Y-70407337D01*
X184971831Y-70217463D01*
X184910000Y-70191852D01*
X184910000Y-56368740D01*
X185205000Y-56368740D01*
X185205000Y-56661260D01*
X185262068Y-56948158D01*
X185374010Y-57218411D01*
X185536525Y-57461632D01*
X185743368Y-57668475D01*
X185986589Y-57830990D01*
X186256842Y-57942932D01*
X186543740Y-58000000D01*
X186836260Y-58000000D01*
X187123158Y-57942932D01*
X187393411Y-57830990D01*
X187636632Y-57668475D01*
X187843475Y-57461632D01*
X188005990Y-57218411D01*
X188117932Y-56948158D01*
X188175000Y-56661260D01*
X188175000Y-56368740D01*
X188117932Y-56081842D01*
X188005990Y-55811589D01*
X187843475Y-55568368D01*
X187636632Y-55361525D01*
X187393411Y-55199010D01*
X187123158Y-55087068D01*
X186836260Y-55030000D01*
X186543740Y-55030000D01*
X186256842Y-55087068D01*
X185986589Y-55199010D01*
X185743368Y-55361525D01*
X185536525Y-55568368D01*
X185374010Y-55811589D01*
X185262068Y-56081842D01*
X185205000Y-56368740D01*
X184910000Y-56368740D01*
X184910000Y-52998148D01*
X184971831Y-52972537D01*
X185255998Y-52782663D01*
X185497663Y-52540998D01*
X185687537Y-52256831D01*
X185818325Y-51941081D01*
X185885000Y-51605883D01*
X185885000Y-51264117D01*
X185818325Y-50928919D01*
X185687537Y-50613169D01*
X185497663Y-50329002D01*
X185255998Y-50087337D01*
X184971831Y-49897463D01*
X184656081Y-49766675D01*
X184320883Y-49700000D01*
X183979117Y-49700000D01*
X183643919Y-49766675D01*
X183328169Y-49897463D01*
X183044002Y-50087337D01*
X182802337Y-50329002D01*
X182612463Y-50613169D01*
X182481675Y-50928919D01*
X182415000Y-51264117D01*
X182415000Y-51605883D01*
X182481675Y-51941081D01*
X182612463Y-52256831D01*
X182802337Y-52540998D01*
X183044002Y-52782663D01*
X183328169Y-52972537D01*
X183390001Y-52998149D01*
X183390001Y-54568548D01*
X183289715Y-54468262D01*
X182858141Y-54179893D01*
X182378601Y-53981261D01*
X181869525Y-53880000D01*
X181350475Y-53880000D01*
X180841399Y-53981261D01*
X180361859Y-54179893D01*
X179930285Y-54468262D01*
X179563262Y-54835285D01*
X179274893Y-55266859D01*
X179076261Y-55746399D01*
X178975000Y-56255475D01*
X177992471Y-56255475D01*
X177957932Y-56081842D01*
X177845990Y-55811589D01*
X177778110Y-55710000D01*
X177970883Y-55710000D01*
X178306081Y-55643325D01*
X178621831Y-55512537D01*
X178905998Y-55322663D01*
X179147663Y-55080998D01*
X179337537Y-54796831D01*
X179468325Y-54481081D01*
X179535000Y-54145883D01*
X179535000Y-53804117D01*
X179468325Y-53468919D01*
X179337537Y-53153169D01*
X179147663Y-52869002D01*
X178905998Y-52627337D01*
X178621831Y-52437463D01*
X178306081Y-52306675D01*
X177970883Y-52240000D01*
X177629117Y-52240000D01*
X177293919Y-52306675D01*
X176978169Y-52437463D01*
X176694002Y-52627337D01*
X176452337Y-52869002D01*
X176262463Y-53153169D01*
X176131675Y-53468919D01*
X176065000Y-53804117D01*
X176065000Y-54145883D01*
X176131675Y-54481081D01*
X176262463Y-54796831D01*
X176418261Y-55030000D01*
X176383740Y-55030000D01*
X176096842Y-55087068D01*
X175826589Y-55199010D01*
X175583368Y-55361525D01*
X175376525Y-55568368D01*
X175214010Y-55811589D01*
X175102068Y-56081842D01*
X175045000Y-56368740D01*
X170995300Y-56368740D01*
X170995300Y-48710000D01*
X172351928Y-48710000D01*
X172364188Y-48834482D01*
X172400498Y-48954180D01*
X172459463Y-49064494D01*
X172538815Y-49161185D01*
X172635506Y-49240537D01*
X172745820Y-49299502D01*
X172865518Y-49335812D01*
X172990000Y-49348072D01*
X173704250Y-49345000D01*
X173863000Y-49186250D01*
X173863000Y-48387000D01*
X174117000Y-48387000D01*
X174117000Y-49186250D01*
X174275750Y-49345000D01*
X174990000Y-49348072D01*
X175114482Y-49335812D01*
X175234180Y-49299502D01*
X175344494Y-49240537D01*
X175441185Y-49161185D01*
X175520537Y-49064494D01*
X175579502Y-48954180D01*
X175615812Y-48834482D01*
X175628072Y-48710000D01*
X175625000Y-48545750D01*
X175466250Y-48387000D01*
X174117000Y-48387000D01*
X173863000Y-48387000D01*
X172513750Y-48387000D01*
X172355000Y-48545750D01*
X172351928Y-48710000D01*
X170995300Y-48710000D01*
X170995300Y-48297333D01*
X170998977Y-48260000D01*
X170984303Y-48111014D01*
X170940846Y-47967753D01*
X170870274Y-47835724D01*
X170849163Y-47810000D01*
X172351928Y-47810000D01*
X172355000Y-47974250D01*
X172513750Y-48133000D01*
X173863000Y-48133000D01*
X173863000Y-47333750D01*
X174117000Y-47333750D01*
X174117000Y-48133000D01*
X175466250Y-48133000D01*
X175625000Y-47974250D01*
X175628072Y-47810000D01*
X175615812Y-47685518D01*
X175579502Y-47565820D01*
X175520537Y-47455506D01*
X175441185Y-47358815D01*
X175344494Y-47279463D01*
X175234180Y-47220498D01*
X175114482Y-47184188D01*
X174990000Y-47171928D01*
X174275750Y-47175000D01*
X174117000Y-47333750D01*
X173863000Y-47333750D01*
X173704250Y-47175000D01*
X172990000Y-47171928D01*
X172865518Y-47184188D01*
X172745820Y-47220498D01*
X172635506Y-47279463D01*
X172538815Y-47358815D01*
X172459463Y-47455506D01*
X172400498Y-47565820D01*
X172364188Y-47685518D01*
X172351928Y-47810000D01*
X170849163Y-47810000D01*
X170775301Y-47719999D01*
X170659576Y-47625026D01*
X170527547Y-47554454D01*
X170486824Y-47542101D01*
X170440537Y-47455506D01*
X170361185Y-47358815D01*
X170264494Y-47279463D01*
X170154180Y-47220498D01*
X170034482Y-47184188D01*
X169910000Y-47171928D01*
X167910000Y-47171928D01*
X167785518Y-47184188D01*
X167665820Y-47220498D01*
X167555506Y-47279463D01*
X167458815Y-47358815D01*
X167379463Y-47455506D01*
X167320498Y-47565820D01*
X167284188Y-47685518D01*
X167271928Y-47810000D01*
X155308072Y-47810000D01*
X155295812Y-47685518D01*
X155259502Y-47565820D01*
X155200537Y-47455506D01*
X155121185Y-47358815D01*
X155024494Y-47279463D01*
X154914180Y-47220498D01*
X154794482Y-47184188D01*
X154670000Y-47171928D01*
X153955750Y-47175000D01*
X153797000Y-47333750D01*
X153543000Y-47333750D01*
X153384250Y-47175000D01*
X152670000Y-47171928D01*
X152545518Y-47184188D01*
X152425820Y-47220498D01*
X152315506Y-47279463D01*
X152218815Y-47358815D01*
X152139463Y-47455506D01*
X152080498Y-47565820D01*
X152044188Y-47685518D01*
X152031928Y-47810000D01*
X151440101Y-47810000D01*
X152132902Y-47117200D01*
X171228178Y-47117200D01*
X171265500Y-47120876D01*
X171302822Y-47117200D01*
X171302833Y-47117200D01*
X171414486Y-47106203D01*
X171557747Y-47062746D01*
X171689776Y-46992174D01*
X171805501Y-46897201D01*
X171829304Y-46868197D01*
X172715960Y-45981541D01*
X172745820Y-45997502D01*
X172865518Y-46033812D01*
X172990000Y-46046072D01*
X174990000Y-46046072D01*
X175114482Y-46033812D01*
X175234180Y-45997502D01*
X175344494Y-45938537D01*
X175441185Y-45859185D01*
X175520537Y-45762494D01*
X175579502Y-45652180D01*
X175615812Y-45532482D01*
X175628072Y-45408000D01*
X175628072Y-44508000D01*
X175615812Y-44383518D01*
X175579502Y-44263820D01*
X175520537Y-44153506D01*
X175441185Y-44056815D01*
X175344494Y-43977463D01*
X175234180Y-43918498D01*
X175114482Y-43882188D01*
X174990000Y-43869928D01*
X172990000Y-43869928D01*
X172865518Y-43882188D01*
X172745820Y-43918498D01*
X172635506Y-43977463D01*
X172538815Y-44056815D01*
X172459463Y-44153506D01*
X172413176Y-44240101D01*
X172372453Y-44252454D01*
X172240424Y-44323026D01*
X172124699Y-44417999D01*
X172100901Y-44446997D01*
X170950699Y-45597200D01*
X170516180Y-45597200D01*
X170535812Y-45532482D01*
X170548072Y-45408000D01*
X170548072Y-44508000D01*
X170535812Y-44383518D01*
X170499502Y-44263820D01*
X170440537Y-44153506D01*
X170361185Y-44056815D01*
X170264494Y-43977463D01*
X170154180Y-43918498D01*
X170034482Y-43882188D01*
X169910000Y-43869928D01*
X167910000Y-43869928D01*
X167785518Y-43882188D01*
X167665820Y-43918498D01*
X167616874Y-43944661D01*
X165129100Y-41456888D01*
X165129100Y-40856549D01*
X165133019Y-40816820D01*
X165129100Y-40776970D01*
X165129100Y-40776909D01*
X165125059Y-40735881D01*
X165117403Y-40658030D01*
X165117386Y-40657974D01*
X165117380Y-40657912D01*
X165093153Y-40578046D01*
X165077987Y-40528025D01*
X168497219Y-37108794D01*
X168528128Y-37083428D01*
X168629349Y-36960089D01*
X168704563Y-36819373D01*
X168750880Y-36666688D01*
X168762600Y-36547691D01*
X168762600Y-36547689D01*
X168766519Y-36507901D01*
X168762600Y-36468113D01*
X168762600Y-34689008D01*
X168799074Y-34664637D01*
X168943237Y-34520474D01*
X169056505Y-34350956D01*
X169134526Y-34162598D01*
X169174300Y-33962639D01*
X169174300Y-33845400D01*
X176068882Y-33845400D01*
X176131675Y-34161081D01*
X176262463Y-34476831D01*
X176418261Y-34710000D01*
X176383740Y-34710000D01*
X176096842Y-34767068D01*
X175826589Y-34879010D01*
X175583368Y-35041525D01*
X175376525Y-35248368D01*
X175214010Y-35491589D01*
X175102068Y-35761842D01*
X175045000Y-36048740D01*
X175045000Y-36341260D01*
X175102068Y-36628158D01*
X175214010Y-36898411D01*
X175376525Y-37141632D01*
X175583368Y-37348475D01*
X175826589Y-37510990D01*
X176096842Y-37622932D01*
X176383740Y-37680000D01*
X176676260Y-37680000D01*
X176963158Y-37622932D01*
X177233411Y-37510990D01*
X177476632Y-37348475D01*
X177683475Y-37141632D01*
X177845990Y-36898411D01*
X177957932Y-36628158D01*
X178015000Y-36341260D01*
X178015000Y-36048740D01*
X177992471Y-35935475D01*
X178975000Y-35935475D01*
X178975000Y-36454525D01*
X179076261Y-36963601D01*
X179274893Y-37443141D01*
X179563262Y-37874715D01*
X179930285Y-38241738D01*
X180361859Y-38530107D01*
X180841399Y-38728739D01*
X181350475Y-38830000D01*
X181869525Y-38830000D01*
X182378601Y-38728739D01*
X182858141Y-38530107D01*
X183289715Y-38241738D01*
X183656738Y-37874715D01*
X183945107Y-37443141D01*
X184143739Y-36963601D01*
X184245000Y-36454525D01*
X184245000Y-36048740D01*
X185205000Y-36048740D01*
X185205000Y-36341260D01*
X185262068Y-36628158D01*
X185374010Y-36898411D01*
X185536525Y-37141632D01*
X185743368Y-37348475D01*
X185986589Y-37510990D01*
X186256842Y-37622932D01*
X186543740Y-37680000D01*
X186836260Y-37680000D01*
X187123158Y-37622932D01*
X187393411Y-37510990D01*
X187636632Y-37348475D01*
X187843475Y-37141632D01*
X188005990Y-36898411D01*
X188117932Y-36628158D01*
X188175000Y-36341260D01*
X188175000Y-36048740D01*
X188117932Y-35761842D01*
X188005990Y-35491589D01*
X187843475Y-35248368D01*
X187636632Y-35041525D01*
X187393411Y-34879010D01*
X187123158Y-34767068D01*
X186836260Y-34710000D01*
X186543740Y-34710000D01*
X186256842Y-34767068D01*
X185986589Y-34879010D01*
X185743368Y-35041525D01*
X185536525Y-35248368D01*
X185374010Y-35491589D01*
X185262068Y-35761842D01*
X185205000Y-36048740D01*
X184245000Y-36048740D01*
X184245000Y-35935475D01*
X184143739Y-35426399D01*
X183945107Y-34946859D01*
X183656738Y-34515285D01*
X183289715Y-34148262D01*
X182858141Y-33859893D01*
X182378601Y-33661261D01*
X181869525Y-33560000D01*
X181350475Y-33560000D01*
X180841399Y-33661261D01*
X180361859Y-33859893D01*
X179930285Y-34148262D01*
X179563262Y-34515285D01*
X179274893Y-34946859D01*
X179076261Y-35426399D01*
X178975000Y-35935475D01*
X177992471Y-35935475D01*
X177957932Y-35761842D01*
X177845990Y-35491589D01*
X177778110Y-35390000D01*
X177970883Y-35390000D01*
X178306081Y-35323325D01*
X178621831Y-35192537D01*
X178905998Y-35002663D01*
X179147663Y-34760998D01*
X179337537Y-34476831D01*
X179468325Y-34161081D01*
X179535000Y-33825883D01*
X179535000Y-33484117D01*
X179468325Y-33148919D01*
X179337537Y-32833169D01*
X179147663Y-32549002D01*
X178905998Y-32307337D01*
X178621831Y-32117463D01*
X178306081Y-31986675D01*
X177970883Y-31920000D01*
X177629117Y-31920000D01*
X177293919Y-31986675D01*
X176978169Y-32117463D01*
X176694002Y-32307337D01*
X176675939Y-32325400D01*
X165073261Y-32325400D01*
X165177663Y-32220998D01*
X165367537Y-31936831D01*
X165498325Y-31621081D01*
X165565000Y-31285883D01*
X165565000Y-30944117D01*
X182415000Y-30944117D01*
X182415000Y-31285883D01*
X182481675Y-31621081D01*
X182612463Y-31936831D01*
X182802337Y-32220998D01*
X183044002Y-32462663D01*
X183328169Y-32652537D01*
X183643919Y-32783325D01*
X183979117Y-32850000D01*
X184320883Y-32850000D01*
X184656081Y-32783325D01*
X184971831Y-32652537D01*
X185255998Y-32462663D01*
X185497663Y-32220998D01*
X185687537Y-31936831D01*
X185818325Y-31621081D01*
X185885000Y-31285883D01*
X185885000Y-30944117D01*
X185818325Y-30608919D01*
X185687537Y-30293169D01*
X185497663Y-30009002D01*
X185255998Y-29767337D01*
X184971831Y-29577463D01*
X184656081Y-29446675D01*
X184320883Y-29380000D01*
X183979117Y-29380000D01*
X183643919Y-29446675D01*
X183328169Y-29577463D01*
X183044002Y-29767337D01*
X182802337Y-30009002D01*
X182612463Y-30293169D01*
X182481675Y-30608919D01*
X182415000Y-30944117D01*
X165565000Y-30944117D01*
X165498325Y-30608919D01*
X165367537Y-30293169D01*
X165177663Y-30009002D01*
X164935998Y-29767337D01*
X164651831Y-29577463D01*
X164336081Y-29446675D01*
X164000883Y-29380000D01*
X163659117Y-29380000D01*
X163323919Y-29446675D01*
X163008169Y-29577463D01*
X162724002Y-29767337D01*
X162482337Y-30009002D01*
X162292463Y-30293169D01*
X162161675Y-30608919D01*
X162095000Y-30944117D01*
X162095000Y-31285883D01*
X162161675Y-31621081D01*
X162292463Y-31936831D01*
X162482337Y-32220998D01*
X162586739Y-32325400D01*
X158604061Y-32325400D01*
X158585998Y-32307337D01*
X158301831Y-32117463D01*
X157986081Y-31986675D01*
X157650883Y-31920000D01*
X157309117Y-31920000D01*
X156973919Y-31986675D01*
X156658169Y-32117463D01*
X156374002Y-32307337D01*
X156132337Y-32549002D01*
X155942463Y-32833169D01*
X155916852Y-32895000D01*
X138723148Y-32895000D01*
X138697537Y-32833169D01*
X138507663Y-32549002D01*
X138265998Y-32307337D01*
X137981831Y-32117463D01*
X137666081Y-31986675D01*
X137330883Y-31920000D01*
X136989117Y-31920000D01*
X136653919Y-31986675D01*
X136338169Y-32117463D01*
X136054002Y-32307337D01*
X135812337Y-32549002D01*
X135622463Y-32833169D01*
X135491675Y-33148919D01*
X135425000Y-33484117D01*
X135425000Y-33825883D01*
X135491675Y-34161081D01*
X135622463Y-34476831D01*
X135778261Y-34710000D01*
X135743740Y-34710000D01*
X135456842Y-34767068D01*
X135186589Y-34879010D01*
X134943368Y-35041525D01*
X134736525Y-35248368D01*
X134574010Y-35491589D01*
X134462068Y-35761842D01*
X134405000Y-36048740D01*
X134405000Y-36341260D01*
X134462068Y-36628158D01*
X134574010Y-36898411D01*
X134736525Y-37141632D01*
X134943368Y-37348475D01*
X135186589Y-37510990D01*
X135456842Y-37622932D01*
X135743740Y-37680000D01*
X136036260Y-37680000D01*
X136323158Y-37622932D01*
X136593411Y-37510990D01*
X136836632Y-37348475D01*
X137043475Y-37141632D01*
X137205990Y-36898411D01*
X137317932Y-36628158D01*
X137375000Y-36341260D01*
X137375000Y-36048740D01*
X137317932Y-35761842D01*
X137205990Y-35491589D01*
X137138110Y-35390000D01*
X137330883Y-35390000D01*
X137666081Y-35323325D01*
X137981831Y-35192537D01*
X138265998Y-35002663D01*
X138507663Y-34760998D01*
X138697537Y-34476831D01*
X138723148Y-34415000D01*
X139023547Y-34415000D01*
X138923262Y-34515285D01*
X138634893Y-34946859D01*
X138436261Y-35426399D01*
X138335000Y-35935475D01*
X138335000Y-36454525D01*
X138436261Y-36963601D01*
X138634893Y-37443141D01*
X138923262Y-37874715D01*
X139290285Y-38241738D01*
X139721859Y-38530107D01*
X140201399Y-38728739D01*
X140710475Y-38830000D01*
X141229525Y-38830000D01*
X141738601Y-38728739D01*
X142218141Y-38530107D01*
X142649715Y-38241738D01*
X143016738Y-37874715D01*
X143305107Y-37443141D01*
X143503739Y-36963601D01*
X143605000Y-36454525D01*
X143605000Y-36048740D01*
X144565000Y-36048740D01*
X144565000Y-36341260D01*
X144622068Y-36628158D01*
X144734010Y-36898411D01*
X144896525Y-37141632D01*
X145103368Y-37348475D01*
X145346589Y-37510990D01*
X145616842Y-37622932D01*
X145903740Y-37680000D01*
X146196260Y-37680000D01*
X146483158Y-37622932D01*
X146753411Y-37510990D01*
X146996632Y-37348475D01*
X147203475Y-37141632D01*
X147365990Y-36898411D01*
X147477932Y-36628158D01*
X147535000Y-36341260D01*
X147535000Y-36048740D01*
X147477932Y-35761842D01*
X147365990Y-35491589D01*
X147203475Y-35248368D01*
X146996632Y-35041525D01*
X146753411Y-34879010D01*
X146483158Y-34767068D01*
X146196260Y-34710000D01*
X145903740Y-34710000D01*
X145616842Y-34767068D01*
X145346589Y-34879010D01*
X145103368Y-35041525D01*
X144896525Y-35248368D01*
X144734010Y-35491589D01*
X144622068Y-35761842D01*
X144565000Y-36048740D01*
X143605000Y-36048740D01*
X143605000Y-35935475D01*
X143503739Y-35426399D01*
X143305107Y-34946859D01*
X143016738Y-34515285D01*
X142916453Y-34415000D01*
X155916852Y-34415000D01*
X155942463Y-34476831D01*
X156098261Y-34710000D01*
X156063740Y-34710000D01*
X155776842Y-34767068D01*
X155506589Y-34879010D01*
X155263368Y-35041525D01*
X155056525Y-35248368D01*
X154894010Y-35491589D01*
X154782068Y-35761842D01*
X154725000Y-36048740D01*
X154725000Y-36341260D01*
X154782068Y-36628158D01*
X154894010Y-36898411D01*
X155056525Y-37141632D01*
X155263368Y-37348475D01*
X155506589Y-37510990D01*
X155776842Y-37622932D01*
X156063740Y-37680000D01*
X156356260Y-37680000D01*
X156643158Y-37622932D01*
X156913411Y-37510990D01*
X157156632Y-37348475D01*
X157363475Y-37141632D01*
X157525990Y-36898411D01*
X157637932Y-36628158D01*
X157695000Y-36341260D01*
X157695000Y-36048740D01*
X157637932Y-35761842D01*
X157525990Y-35491589D01*
X157458110Y-35390000D01*
X157650883Y-35390000D01*
X157986081Y-35323325D01*
X158301831Y-35192537D01*
X158585998Y-35002663D01*
X158827663Y-34760998D01*
X159017537Y-34476831D01*
X159148325Y-34161081D01*
X159211118Y-33845400D01*
X160076848Y-33845400D01*
X160041859Y-33859893D01*
X159610285Y-34148262D01*
X159243262Y-34515285D01*
X158954893Y-34946859D01*
X158756261Y-35426399D01*
X158655000Y-35935475D01*
X158655000Y-36454525D01*
X158756261Y-36963601D01*
X158954893Y-37443141D01*
X159243262Y-37874715D01*
X159610285Y-38241738D01*
X160041859Y-38530107D01*
X160521399Y-38728739D01*
X161030475Y-38830000D01*
X161549525Y-38830000D01*
X162058601Y-38728739D01*
X162538141Y-38530107D01*
X162969715Y-38241738D01*
X163336738Y-37874715D01*
X163625107Y-37443141D01*
X163823739Y-36963601D01*
X163925000Y-36454525D01*
X163925000Y-35935475D01*
X163823739Y-35426399D01*
X163625107Y-34946859D01*
X163336738Y-34515285D01*
X162969715Y-34148262D01*
X162538141Y-33859893D01*
X162503152Y-33845400D01*
X167104300Y-33845400D01*
X167104300Y-33962639D01*
X167142601Y-34155192D01*
X167142601Y-34925241D01*
X167073411Y-34879010D01*
X166803158Y-34767068D01*
X166516260Y-34710000D01*
X166223740Y-34710000D01*
X165936842Y-34767068D01*
X165666589Y-34879010D01*
X165423368Y-35041525D01*
X165216525Y-35248368D01*
X165054010Y-35491589D01*
X164942068Y-35761842D01*
X164885000Y-36048740D01*
X164885000Y-36341260D01*
X164942068Y-36628158D01*
X165054010Y-36898411D01*
X165216525Y-37141632D01*
X165423368Y-37348475D01*
X165666589Y-37510990D01*
X165763752Y-37551236D01*
X163920500Y-39394488D01*
X163521499Y-38995487D01*
X163496128Y-38964572D01*
X163372789Y-38863351D01*
X163232073Y-38788137D01*
X163079388Y-38741820D01*
X162960391Y-38730100D01*
X162960388Y-38730100D01*
X162920600Y-38726181D01*
X162880812Y-38730100D01*
X162276787Y-38730100D01*
X162236999Y-38726181D01*
X162197211Y-38730100D01*
X162197209Y-38730100D01*
X162078212Y-38741820D01*
X161925527Y-38788137D01*
X161860024Y-38823149D01*
X161784810Y-38863351D01*
X161741221Y-38899124D01*
X161661472Y-38964572D01*
X161636105Y-38995482D01*
X161075088Y-39556500D01*
X154646591Y-39556500D01*
X154606800Y-39552581D01*
X154448012Y-39568220D01*
X154295326Y-39614537D01*
X154205033Y-39662800D01*
X154154611Y-39689751D01*
X154031272Y-39790972D01*
X154005907Y-39821880D01*
X149883127Y-43944661D01*
X149834180Y-43918498D01*
X149714482Y-43882188D01*
X149590000Y-43869928D01*
X147590000Y-43869928D01*
X147465518Y-43882188D01*
X147345820Y-43918498D01*
X147288968Y-43948886D01*
X147264189Y-43928551D01*
X147123473Y-43853337D01*
X146970788Y-43807020D01*
X146851791Y-43795300D01*
X146851788Y-43795300D01*
X146812000Y-43791381D01*
X146772212Y-43795300D01*
X146597796Y-43795300D01*
X146570526Y-43658202D01*
X146492505Y-43469844D01*
X146379237Y-43300326D01*
X146235074Y-43156163D01*
X146065556Y-43042895D01*
X145877198Y-42964874D01*
X145677239Y-42925100D01*
X145473361Y-42925100D01*
X145273402Y-42964874D01*
X145085044Y-43042895D01*
X144915526Y-43156163D01*
X144771363Y-43300326D01*
X144658095Y-43469844D01*
X144580074Y-43658202D01*
X144552804Y-43795300D01*
X134633191Y-43795300D01*
X134593400Y-43791381D01*
X134553609Y-43795300D01*
X131188072Y-43795300D01*
X131188072Y-42180000D01*
X131175812Y-42055518D01*
X131139502Y-41935820D01*
X131112844Y-41885947D01*
X131143803Y-41783886D01*
X131154800Y-41672233D01*
X131154800Y-41672224D01*
X131158476Y-41634901D01*
X131154800Y-41597578D01*
X131154800Y-40586311D01*
X131198737Y-40542374D01*
X131312005Y-40372856D01*
X131390026Y-40184498D01*
X131429800Y-39984539D01*
X131429800Y-39780661D01*
X131390026Y-39580702D01*
X131312005Y-39392344D01*
X131198737Y-39222826D01*
X131178016Y-39202105D01*
X131188072Y-39100000D01*
X131188072Y-37100000D01*
X131175812Y-36975518D01*
X131139502Y-36855820D01*
X131080537Y-36745506D01*
X131001185Y-36648815D01*
X130904494Y-36569463D01*
X130794180Y-36510498D01*
X130674482Y-36474188D01*
X130550000Y-36461928D01*
X129800000Y-36461928D01*
X129675518Y-36474188D01*
X129555820Y-36510498D01*
X129445506Y-36569463D01*
X129348815Y-36648815D01*
X129269463Y-36745506D01*
X129210498Y-36855820D01*
X129174188Y-36975518D01*
X129161928Y-37100000D01*
X129161928Y-39100000D01*
X129174188Y-39224482D01*
X129210498Y-39344180D01*
X129269463Y-39454494D01*
X129348815Y-39551185D01*
X129397498Y-39591138D01*
X129359800Y-39780661D01*
X129359800Y-39984539D01*
X129399574Y-40184498D01*
X129477595Y-40372856D01*
X129590863Y-40542374D01*
X129634801Y-40586312D01*
X129634800Y-41314942D01*
X129611202Y-41343697D01*
X129611201Y-41343698D01*
X129540026Y-41430424D01*
X129469454Y-41562454D01*
X129443061Y-41649463D01*
X129442251Y-41652134D01*
X129348815Y-41728815D01*
X129269463Y-41825506D01*
X129210498Y-41935820D01*
X129174188Y-42055518D01*
X129161928Y-42180000D01*
X129161928Y-43795300D01*
X128902072Y-43795300D01*
X128902072Y-42180000D01*
X128889812Y-42055518D01*
X128853502Y-41935820D01*
X128794537Y-41825506D01*
X128715185Y-41728815D01*
X128699000Y-41715532D01*
X128699000Y-39564468D01*
X128715185Y-39551185D01*
X128794537Y-39454494D01*
X128853502Y-39344180D01*
X128889812Y-39224482D01*
X128902072Y-39100000D01*
X128902072Y-37100000D01*
X128889812Y-36975518D01*
X128853502Y-36855820D01*
X128794537Y-36745506D01*
X128715185Y-36648815D01*
X128699000Y-36635532D01*
X128699000Y-35754468D01*
X128715185Y-35741185D01*
X128794537Y-35644494D01*
X128853502Y-35534180D01*
X128889812Y-35414482D01*
X128902072Y-35290000D01*
X128902072Y-33290000D01*
X128889812Y-33165518D01*
X128853502Y-33045820D01*
X128794537Y-32935506D01*
X128715185Y-32838815D01*
X128699000Y-32825532D01*
X128699000Y-30674468D01*
X128715185Y-30661185D01*
X128794537Y-30564494D01*
X128853502Y-30454180D01*
X128889812Y-30334482D01*
X128902072Y-30210000D01*
X128902072Y-28210000D01*
X129161928Y-28210000D01*
X129161928Y-30210000D01*
X129174188Y-30334482D01*
X129210498Y-30454180D01*
X129224804Y-30480944D01*
X129208874Y-30519402D01*
X129169100Y-30719361D01*
X129169100Y-30923239D01*
X129208874Y-31123198D01*
X129286895Y-31311556D01*
X129400163Y-31481074D01*
X129415000Y-31495911D01*
X129415001Y-32784498D01*
X129348815Y-32838815D01*
X129269463Y-32935506D01*
X129210498Y-33045820D01*
X129174188Y-33165518D01*
X129161928Y-33290000D01*
X129161928Y-35290000D01*
X129174188Y-35414482D01*
X129210498Y-35534180D01*
X129269463Y-35644494D01*
X129348815Y-35741185D01*
X129445506Y-35820537D01*
X129555820Y-35879502D01*
X129675518Y-35915812D01*
X129800000Y-35928072D01*
X130550000Y-35928072D01*
X130674482Y-35915812D01*
X130794180Y-35879502D01*
X130904494Y-35820537D01*
X131001185Y-35741185D01*
X131080537Y-35644494D01*
X131139502Y-35534180D01*
X131175812Y-35414482D01*
X131188072Y-35290000D01*
X131188072Y-33290000D01*
X131175812Y-33165518D01*
X131139502Y-33045820D01*
X131080537Y-32935506D01*
X131001185Y-32838815D01*
X130935000Y-32784499D01*
X130935000Y-31554111D01*
X131008037Y-31481074D01*
X131121305Y-31311556D01*
X131199326Y-31123198D01*
X131234947Y-30944117D01*
X141775000Y-30944117D01*
X141775000Y-31285883D01*
X141841675Y-31621081D01*
X141972463Y-31936831D01*
X142162337Y-32220998D01*
X142404002Y-32462663D01*
X142688169Y-32652537D01*
X143003919Y-32783325D01*
X143339117Y-32850000D01*
X143680883Y-32850000D01*
X144016081Y-32783325D01*
X144331831Y-32652537D01*
X144615998Y-32462663D01*
X144857663Y-32220998D01*
X145047537Y-31936831D01*
X145178325Y-31621081D01*
X145245000Y-31285883D01*
X145245000Y-30944117D01*
X145178325Y-30608919D01*
X145047537Y-30293169D01*
X144857663Y-30009002D01*
X144615998Y-29767337D01*
X144331831Y-29577463D01*
X144016081Y-29446675D01*
X143680883Y-29380000D01*
X143339117Y-29380000D01*
X143003919Y-29446675D01*
X142688169Y-29577463D01*
X142404002Y-29767337D01*
X142162337Y-30009002D01*
X141972463Y-30293169D01*
X141841675Y-30608919D01*
X141775000Y-30944117D01*
X131234947Y-30944117D01*
X131239100Y-30923239D01*
X131239100Y-30719361D01*
X131199326Y-30519402D01*
X131153371Y-30408459D01*
X131175812Y-30334482D01*
X131188072Y-30210000D01*
X131188072Y-28210000D01*
X131175812Y-28085518D01*
X131139502Y-27965820D01*
X131080537Y-27855506D01*
X131001185Y-27758815D01*
X130904494Y-27679463D01*
X130794180Y-27620498D01*
X130674482Y-27584188D01*
X130550000Y-27571928D01*
X129800000Y-27571928D01*
X129675518Y-27584188D01*
X129555820Y-27620498D01*
X129445506Y-27679463D01*
X129348815Y-27758815D01*
X129269463Y-27855506D01*
X129210498Y-27965820D01*
X129174188Y-28085518D01*
X129161928Y-28210000D01*
X128902072Y-28210000D01*
X128889812Y-28085518D01*
X128853502Y-27965820D01*
X128794537Y-27855506D01*
X128715185Y-27758815D01*
X128618494Y-27679463D01*
X128508180Y-27620498D01*
X128388482Y-27584188D01*
X128264000Y-27571928D01*
X127514000Y-27571928D01*
X127389518Y-27584188D01*
X127269820Y-27620498D01*
X127159506Y-27679463D01*
X127062815Y-27758815D01*
X126983463Y-27855506D01*
X126924498Y-27965820D01*
X126888188Y-28085518D01*
X126875928Y-28210000D01*
X126492000Y-28210000D01*
X126492000Y-27992606D01*
X127687606Y-26797000D01*
X189177394Y-26797000D01*
X190373000Y-27992606D01*
G37*
X190373000Y-27992606D02*
X190373000Y-104722394D01*
X189177394Y-105918000D01*
X133402606Y-105918000D01*
X132207000Y-104722394D01*
X132207000Y-97008740D01*
X134405000Y-97008740D01*
X134405000Y-97301260D01*
X134462068Y-97588158D01*
X134574010Y-97858411D01*
X134736525Y-98101632D01*
X134943368Y-98308475D01*
X135186589Y-98470990D01*
X135456842Y-98582932D01*
X135743740Y-98640000D01*
X136036260Y-98640000D01*
X136323158Y-98582932D01*
X136593411Y-98470990D01*
X136836632Y-98308475D01*
X137043475Y-98101632D01*
X137205990Y-97858411D01*
X137317932Y-97588158D01*
X137375000Y-97301260D01*
X137375000Y-97008740D01*
X137317932Y-96721842D01*
X137205990Y-96451589D01*
X137138110Y-96350000D01*
X137330883Y-96350000D01*
X137666081Y-96283325D01*
X137981831Y-96152537D01*
X138265998Y-95962663D01*
X138507663Y-95720998D01*
X138697537Y-95436831D01*
X138723148Y-95375000D01*
X139023547Y-95375000D01*
X138923262Y-95475285D01*
X138634893Y-95906859D01*
X138436261Y-96386399D01*
X138335000Y-96895475D01*
X138335000Y-97414525D01*
X138436261Y-97923601D01*
X138634893Y-98403141D01*
X138923262Y-98834715D01*
X139290285Y-99201738D01*
X139721859Y-99490107D01*
X140201399Y-99688739D01*
X140710475Y-99790000D01*
X141229525Y-99790000D01*
X141738601Y-99688739D01*
X142218141Y-99490107D01*
X142649715Y-99201738D01*
X143016738Y-98834715D01*
X143305107Y-98403141D01*
X143503739Y-97923601D01*
X143605000Y-97414525D01*
X143605000Y-97008740D01*
X144565000Y-97008740D01*
X144565000Y-97301260D01*
X144622068Y-97588158D01*
X144734010Y-97858411D01*
X144896525Y-98101632D01*
X145103368Y-98308475D01*
X145346589Y-98470990D01*
X145616842Y-98582932D01*
X145903740Y-98640000D01*
X146196260Y-98640000D01*
X146483158Y-98582932D01*
X146753411Y-98470990D01*
X146996632Y-98308475D01*
X147203475Y-98101632D01*
X147365990Y-97858411D01*
X147477932Y-97588158D01*
X147535000Y-97301260D01*
X147535000Y-97008740D01*
X147477932Y-96721842D01*
X147365990Y-96451589D01*
X147203475Y-96208368D01*
X146996632Y-96001525D01*
X146753411Y-95839010D01*
X146483158Y-95727068D01*
X146196260Y-95670000D01*
X145903740Y-95670000D01*
X145616842Y-95727068D01*
X145346589Y-95839010D01*
X145103368Y-96001525D01*
X144896525Y-96208368D01*
X144734010Y-96451589D01*
X144622068Y-96721842D01*
X144565000Y-97008740D01*
X143605000Y-97008740D01*
X143605000Y-96895475D01*
X143503739Y-96386399D01*
X143305107Y-95906859D01*
X143016738Y-95475285D01*
X142916453Y-95375000D01*
X155916852Y-95375000D01*
X155942463Y-95436831D01*
X156098261Y-95670000D01*
X156063740Y-95670000D01*
X155776842Y-95727068D01*
X155506589Y-95839010D01*
X155263368Y-96001525D01*
X155056525Y-96208368D01*
X154894010Y-96451589D01*
X154782068Y-96721842D01*
X154725000Y-97008740D01*
X154725000Y-97301260D01*
X154782068Y-97588158D01*
X154894010Y-97858411D01*
X155056525Y-98101632D01*
X155263368Y-98308475D01*
X155506589Y-98470990D01*
X155776842Y-98582932D01*
X156063740Y-98640000D01*
X156356260Y-98640000D01*
X156643158Y-98582932D01*
X156913411Y-98470990D01*
X157156632Y-98308475D01*
X157363475Y-98101632D01*
X157525990Y-97858411D01*
X157637932Y-97588158D01*
X157695000Y-97301260D01*
X157695000Y-97008740D01*
X157672471Y-96895475D01*
X158655000Y-96895475D01*
X158655000Y-97414525D01*
X158756261Y-97923601D01*
X158954893Y-98403141D01*
X159243262Y-98834715D01*
X159610285Y-99201738D01*
X160041859Y-99490107D01*
X160521399Y-99688739D01*
X161030475Y-99790000D01*
X161549525Y-99790000D01*
X162058601Y-99688739D01*
X162538141Y-99490107D01*
X162969715Y-99201738D01*
X163336738Y-98834715D01*
X163625107Y-98403141D01*
X163823739Y-97923601D01*
X163925000Y-97414525D01*
X163925000Y-97008740D01*
X164885000Y-97008740D01*
X164885000Y-97301260D01*
X164942068Y-97588158D01*
X165054010Y-97858411D01*
X165216525Y-98101632D01*
X165423368Y-98308475D01*
X165666589Y-98470990D01*
X165936842Y-98582932D01*
X166223740Y-98640000D01*
X166516260Y-98640000D01*
X166803158Y-98582932D01*
X167073411Y-98470990D01*
X167316632Y-98308475D01*
X167523475Y-98101632D01*
X167685990Y-97858411D01*
X167797932Y-97588158D01*
X167855000Y-97301260D01*
X167855000Y-97008740D01*
X175045000Y-97008740D01*
X175045000Y-97301260D01*
X175102068Y-97588158D01*
X175214010Y-97858411D01*
X175376525Y-98101632D01*
X175583368Y-98308475D01*
X175826589Y-98470990D01*
X176096842Y-98582932D01*
X176383740Y-98640000D01*
X176676260Y-98640000D01*
X176963158Y-98582932D01*
X177233411Y-98470990D01*
X177476632Y-98308475D01*
X177683475Y-98101632D01*
X177845990Y-97858411D01*
X177957932Y-97588158D01*
X178015000Y-97301260D01*
X178015000Y-97008740D01*
X177992471Y-96895475D01*
X178975000Y-96895475D01*
X178975000Y-97414525D01*
X179076261Y-97923601D01*
X179274893Y-98403141D01*
X179563262Y-98834715D01*
X179930285Y-99201738D01*
X180361859Y-99490107D01*
X180841399Y-99688739D01*
X181350475Y-99790000D01*
X181869525Y-99790000D01*
X182378601Y-99688739D01*
X182858141Y-99490107D01*
X183289715Y-99201738D01*
X183656738Y-98834715D01*
X183945107Y-98403141D01*
X184143739Y-97923601D01*
X184245000Y-97414525D01*
X184245000Y-97008740D01*
X185205000Y-97008740D01*
X185205000Y-97301260D01*
X185262068Y-97588158D01*
X185374010Y-97858411D01*
X185536525Y-98101632D01*
X185743368Y-98308475D01*
X185986589Y-98470990D01*
X186256842Y-98582932D01*
X186543740Y-98640000D01*
X186836260Y-98640000D01*
X187123158Y-98582932D01*
X187393411Y-98470990D01*
X187636632Y-98308475D01*
X187843475Y-98101632D01*
X188005990Y-97858411D01*
X188117932Y-97588158D01*
X188175000Y-97301260D01*
X188175000Y-97008740D01*
X188117932Y-96721842D01*
X188005990Y-96451589D01*
X187843475Y-96208368D01*
X187636632Y-96001525D01*
X187393411Y-95839010D01*
X187123158Y-95727068D01*
X186836260Y-95670000D01*
X186543740Y-95670000D01*
X186256842Y-95727068D01*
X185986589Y-95839010D01*
X185743368Y-96001525D01*
X185536525Y-96208368D01*
X185374010Y-96451589D01*
X185262068Y-96721842D01*
X185205000Y-97008740D01*
X184245000Y-97008740D01*
X184245000Y-96895475D01*
X184143739Y-96386399D01*
X183945107Y-95906859D01*
X183656738Y-95475285D01*
X183289715Y-95108262D01*
X182858141Y-94819893D01*
X182378601Y-94621261D01*
X181869525Y-94520000D01*
X181350475Y-94520000D01*
X180841399Y-94621261D01*
X180361859Y-94819893D01*
X179930285Y-95108262D01*
X179563262Y-95475285D01*
X179274893Y-95906859D01*
X179076261Y-96386399D01*
X178975000Y-96895475D01*
X177992471Y-96895475D01*
X177957932Y-96721842D01*
X177845990Y-96451589D01*
X177778110Y-96350000D01*
X177970883Y-96350000D01*
X178306081Y-96283325D01*
X178621831Y-96152537D01*
X178905998Y-95962663D01*
X179147663Y-95720998D01*
X179337537Y-95436831D01*
X179468325Y-95121081D01*
X179535000Y-94785883D01*
X179535000Y-94444117D01*
X179468325Y-94108919D01*
X179337537Y-93793169D01*
X179147663Y-93509002D01*
X178905998Y-93267337D01*
X178621831Y-93077463D01*
X178306081Y-92946675D01*
X177970883Y-92880000D01*
X177629117Y-92880000D01*
X177293919Y-92946675D01*
X176978169Y-93077463D01*
X176694002Y-93267337D01*
X176452337Y-93509002D01*
X176262463Y-93793169D01*
X176131675Y-94108919D01*
X176065000Y-94444117D01*
X176065000Y-94785883D01*
X176131675Y-95121081D01*
X176262463Y-95436831D01*
X176418261Y-95670000D01*
X176383740Y-95670000D01*
X176096842Y-95727068D01*
X175826589Y-95839010D01*
X175583368Y-96001525D01*
X175376525Y-96208368D01*
X175214010Y-96451589D01*
X175102068Y-96721842D01*
X175045000Y-97008740D01*
X167855000Y-97008740D01*
X167797932Y-96721842D01*
X167685990Y-96451589D01*
X167523475Y-96208368D01*
X167316632Y-96001525D01*
X167073411Y-95839010D01*
X166803158Y-95727068D01*
X166516260Y-95670000D01*
X166223740Y-95670000D01*
X165936842Y-95727068D01*
X165666589Y-95839010D01*
X165423368Y-96001525D01*
X165216525Y-96208368D01*
X165054010Y-96451589D01*
X164942068Y-96721842D01*
X164885000Y-97008740D01*
X163925000Y-97008740D01*
X163925000Y-96895475D01*
X163823739Y-96386399D01*
X163625107Y-95906859D01*
X163336738Y-95475285D01*
X162969715Y-95108262D01*
X162538141Y-94819893D01*
X162058601Y-94621261D01*
X161549525Y-94520000D01*
X161030475Y-94520000D01*
X160521399Y-94621261D01*
X160041859Y-94819893D01*
X159610285Y-95108262D01*
X159243262Y-95475285D01*
X158954893Y-95906859D01*
X158756261Y-96386399D01*
X158655000Y-96895475D01*
X157672471Y-96895475D01*
X157637932Y-96721842D01*
X157525990Y-96451589D01*
X157458110Y-96350000D01*
X157650883Y-96350000D01*
X157986081Y-96283325D01*
X158301831Y-96152537D01*
X158585998Y-95962663D01*
X158827663Y-95720998D01*
X159017537Y-95436831D01*
X159148325Y-95121081D01*
X159215000Y-94785883D01*
X159215000Y-94444117D01*
X159148325Y-94108919D01*
X159017537Y-93793169D01*
X158827663Y-93509002D01*
X158585998Y-93267337D01*
X158301831Y-93077463D01*
X157986081Y-92946675D01*
X157650883Y-92880000D01*
X157309117Y-92880000D01*
X156973919Y-92946675D01*
X156658169Y-93077463D01*
X156374002Y-93267337D01*
X156132337Y-93509002D01*
X155942463Y-93793169D01*
X155916852Y-93855000D01*
X138723148Y-93855000D01*
X138697537Y-93793169D01*
X138507663Y-93509002D01*
X138265998Y-93267337D01*
X137981831Y-93077463D01*
X137666081Y-92946675D01*
X137330883Y-92880000D01*
X136989117Y-92880000D01*
X136653919Y-92946675D01*
X136338169Y-93077463D01*
X136054002Y-93267337D01*
X135812337Y-93509002D01*
X135622463Y-93793169D01*
X135491675Y-94108919D01*
X135425000Y-94444117D01*
X135425000Y-94785883D01*
X135491675Y-95121081D01*
X135622463Y-95436831D01*
X135778261Y-95670000D01*
X135743740Y-95670000D01*
X135456842Y-95727068D01*
X135186589Y-95839010D01*
X134943368Y-96001525D01*
X134736525Y-96208368D01*
X134574010Y-96451589D01*
X134462068Y-96721842D01*
X134405000Y-97008740D01*
X132207000Y-97008740D01*
X132207000Y-91904117D01*
X141775000Y-91904117D01*
X141775000Y-92245883D01*
X141841675Y-92581081D01*
X141972463Y-92896831D01*
X142162337Y-93180998D01*
X142404002Y-93422663D01*
X142688169Y-93612537D01*
X143003919Y-93743325D01*
X143339117Y-93810000D01*
X143680883Y-93810000D01*
X144016081Y-93743325D01*
X144331831Y-93612537D01*
X144615998Y-93422663D01*
X144857663Y-93180998D01*
X145047537Y-92896831D01*
X145178325Y-92581081D01*
X145245000Y-92245883D01*
X145245000Y-91904117D01*
X162095000Y-91904117D01*
X162095000Y-92245883D01*
X162161675Y-92581081D01*
X162292463Y-92896831D01*
X162482337Y-93180998D01*
X162724002Y-93422663D01*
X163008169Y-93612537D01*
X163323919Y-93743325D01*
X163659117Y-93810000D01*
X164000883Y-93810000D01*
X164336081Y-93743325D01*
X164651831Y-93612537D01*
X164935998Y-93422663D01*
X165177663Y-93180998D01*
X165367537Y-92896831D01*
X165498325Y-92581081D01*
X165565000Y-92245883D01*
X165565000Y-91904117D01*
X182415000Y-91904117D01*
X182415000Y-92245883D01*
X182481675Y-92581081D01*
X182612463Y-92896831D01*
X182802337Y-93180998D01*
X183044002Y-93422663D01*
X183328169Y-93612537D01*
X183643919Y-93743325D01*
X183979117Y-93810000D01*
X184320883Y-93810000D01*
X184656081Y-93743325D01*
X184971831Y-93612537D01*
X185255998Y-93422663D01*
X185497663Y-93180998D01*
X185687537Y-92896831D01*
X185818325Y-92581081D01*
X185885000Y-92245883D01*
X185885000Y-91904117D01*
X185818325Y-91568919D01*
X185687537Y-91253169D01*
X185497663Y-90969002D01*
X185255998Y-90727337D01*
X184971831Y-90537463D01*
X184656081Y-90406675D01*
X184320883Y-90340000D01*
X183979117Y-90340000D01*
X183643919Y-90406675D01*
X183328169Y-90537463D01*
X183044002Y-90727337D01*
X182802337Y-90969002D01*
X182612463Y-91253169D01*
X182481675Y-91568919D01*
X182415000Y-91904117D01*
X165565000Y-91904117D01*
X165498325Y-91568919D01*
X165367537Y-91253169D01*
X165177663Y-90969002D01*
X164935998Y-90727337D01*
X164651831Y-90537463D01*
X164336081Y-90406675D01*
X164000883Y-90340000D01*
X163659117Y-90340000D01*
X163323919Y-90406675D01*
X163008169Y-90537463D01*
X162724002Y-90727337D01*
X162482337Y-90969002D01*
X162292463Y-91253169D01*
X162161675Y-91568919D01*
X162095000Y-91904117D01*
X145245000Y-91904117D01*
X145178325Y-91568919D01*
X145047537Y-91253169D01*
X144857663Y-90969002D01*
X144615998Y-90727337D01*
X144331831Y-90537463D01*
X144016081Y-90406675D01*
X143680883Y-90340000D01*
X143339117Y-90340000D01*
X143003919Y-90406675D01*
X142688169Y-90537463D01*
X142404002Y-90727337D01*
X142162337Y-90969002D01*
X141972463Y-91253169D01*
X141841675Y-91568919D01*
X141775000Y-91904117D01*
X132207000Y-91904117D01*
X132207000Y-88450000D01*
X146951928Y-88450000D01*
X146951928Y-89350000D01*
X146964188Y-89474482D01*
X147000498Y-89594180D01*
X147059463Y-89704494D01*
X147138815Y-89801185D01*
X147235506Y-89880537D01*
X147345820Y-89939502D01*
X147465518Y-89975812D01*
X147590000Y-89988072D01*
X149590000Y-89988072D01*
X149714482Y-89975812D01*
X149834180Y-89939502D01*
X149944494Y-89880537D01*
X150041185Y-89801185D01*
X150120537Y-89704494D01*
X150179502Y-89594180D01*
X150215812Y-89474482D01*
X150228072Y-89350000D01*
X152031928Y-89350000D01*
X152044188Y-89474482D01*
X152080498Y-89594180D01*
X152139463Y-89704494D01*
X152218815Y-89801185D01*
X152315506Y-89880537D01*
X152425820Y-89939502D01*
X152545518Y-89975812D01*
X152670000Y-89988072D01*
X153384250Y-89985000D01*
X153543000Y-89826250D01*
X153543000Y-89027000D01*
X153797000Y-89027000D01*
X153797000Y-89826250D01*
X153955750Y-89985000D01*
X154670000Y-89988072D01*
X154794482Y-89975812D01*
X154914180Y-89939502D01*
X155024494Y-89880537D01*
X155121185Y-89801185D01*
X155200537Y-89704494D01*
X155259502Y-89594180D01*
X155295812Y-89474482D01*
X155308072Y-89350000D01*
X155305000Y-89185750D01*
X155146250Y-89027000D01*
X153797000Y-89027000D01*
X153543000Y-89027000D01*
X152193750Y-89027000D01*
X152035000Y-89185750D01*
X152031928Y-89350000D01*
X150228072Y-89350000D01*
X150228072Y-88450000D01*
X152031928Y-88450000D01*
X152035000Y-88614250D01*
X152193750Y-88773000D01*
X153543000Y-88773000D01*
X153543000Y-87973750D01*
X153797000Y-87973750D01*
X153797000Y-88773000D01*
X155146250Y-88773000D01*
X155305000Y-88614250D01*
X155308072Y-88450000D01*
X155295812Y-88325518D01*
X155259502Y-88205820D01*
X155200537Y-88095506D01*
X155121185Y-87998815D01*
X155024494Y-87919463D01*
X154914180Y-87860498D01*
X154794482Y-87824188D01*
X154670000Y-87811928D01*
X153955750Y-87815000D01*
X153797000Y-87973750D01*
X153543000Y-87973750D01*
X153384250Y-87815000D01*
X152670000Y-87811928D01*
X152545518Y-87824188D01*
X152425820Y-87860498D01*
X152315506Y-87919463D01*
X152218815Y-87998815D01*
X152139463Y-88095506D01*
X152080498Y-88205820D01*
X152044188Y-88325518D01*
X152031928Y-88450000D01*
X150228072Y-88450000D01*
X150215812Y-88325518D01*
X150179502Y-88205820D01*
X150120537Y-88095506D01*
X150041185Y-87998815D01*
X149944494Y-87919463D01*
X149834180Y-87860498D01*
X149714482Y-87824188D01*
X149590000Y-87811928D01*
X147590000Y-87811928D01*
X147465518Y-87824188D01*
X147345820Y-87860498D01*
X147235506Y-87919463D01*
X147138815Y-87998815D01*
X147059463Y-88095506D01*
X147000498Y-88205820D01*
X146964188Y-88325518D01*
X146951928Y-88450000D01*
X132207000Y-88450000D01*
X132207000Y-45720000D01*
X132204560Y-45695224D01*
X132197333Y-45671399D01*
X132185597Y-45649443D01*
X132169803Y-45630197D01*
X132150557Y-45614403D01*
X132128601Y-45602667D01*
X132104776Y-45595440D01*
X132080000Y-45593000D01*
X127687606Y-45593000D01*
X126492000Y-44397394D01*
X126492000Y-28210000D01*
X126875928Y-28210000D01*
X126875928Y-30210000D01*
X126888188Y-30334482D01*
X126924498Y-30454180D01*
X126983463Y-30564494D01*
X127062815Y-30661185D01*
X127079000Y-30674468D01*
X127079001Y-32825532D01*
X127062815Y-32838815D01*
X126983463Y-32935506D01*
X126924498Y-33045820D01*
X126888188Y-33165518D01*
X126875928Y-33290000D01*
X126875928Y-35290000D01*
X126888188Y-35414482D01*
X126924498Y-35534180D01*
X126983463Y-35644494D01*
X127062815Y-35741185D01*
X127079001Y-35754468D01*
X127079000Y-36635532D01*
X127062815Y-36648815D01*
X126983463Y-36745506D01*
X126924498Y-36855820D01*
X126888188Y-36975518D01*
X126875928Y-37100000D01*
X126875928Y-39100000D01*
X126888188Y-39224482D01*
X126924498Y-39344180D01*
X126983463Y-39454494D01*
X127062815Y-39551185D01*
X127079001Y-39564468D01*
X127079000Y-41715532D01*
X127062815Y-41728815D01*
X126983463Y-41825506D01*
X126924498Y-41935820D01*
X126888188Y-42055518D01*
X126875928Y-42180000D01*
X126875928Y-44180000D01*
X126888188Y-44304482D01*
X126924498Y-44424180D01*
X126983463Y-44534494D01*
X127062815Y-44631185D01*
X127078933Y-44644413D01*
X127090720Y-44764088D01*
X127137037Y-44916773D01*
X127212251Y-45057489D01*
X127313472Y-45180828D01*
X127436811Y-45282049D01*
X127577527Y-45357263D01*
X127730212Y-45403580D01*
X127849209Y-45415300D01*
X127889000Y-45419219D01*
X127928791Y-45415300D01*
X133783401Y-45415300D01*
X133783400Y-77352012D01*
X133779481Y-77391800D01*
X133783400Y-77431588D01*
X133783400Y-77431590D01*
X133795120Y-77550587D01*
X133841437Y-77703272D01*
X133841438Y-77703273D01*
X133916651Y-77843989D01*
X133948103Y-77882313D01*
X134017872Y-77967328D01*
X134048788Y-77992700D01*
X142198705Y-86142618D01*
X142224072Y-86173528D01*
X142291810Y-86229119D01*
X142347410Y-86274749D01*
X142422624Y-86314951D01*
X142488127Y-86349963D01*
X142640812Y-86396280D01*
X142759809Y-86408000D01*
X142759811Y-86408000D01*
X142799599Y-86411919D01*
X142839387Y-86408000D01*
X147063982Y-86408000D01*
X147138815Y-86499185D01*
X147235506Y-86578537D01*
X147345820Y-86637502D01*
X147465518Y-86673812D01*
X147590000Y-86686072D01*
X149590000Y-86686072D01*
X149714482Y-86673812D01*
X149834180Y-86637502D01*
X149944494Y-86578537D01*
X150041185Y-86499185D01*
X150120537Y-86402494D01*
X150121067Y-86401502D01*
X150174088Y-86396280D01*
X150326773Y-86349963D01*
X150467489Y-86274749D01*
X150590828Y-86173528D01*
X150616199Y-86142613D01*
X151226113Y-85532700D01*
X152031928Y-85532700D01*
X152031928Y-86048000D01*
X152044188Y-86172482D01*
X152080498Y-86292180D01*
X152139463Y-86402494D01*
X152218815Y-86499185D01*
X152315506Y-86578537D01*
X152425820Y-86637502D01*
X152545518Y-86673812D01*
X152670000Y-86686072D01*
X154670000Y-86686072D01*
X154794482Y-86673812D01*
X154914180Y-86637502D01*
X155024494Y-86578537D01*
X155121185Y-86499185D01*
X155200537Y-86402494D01*
X155224320Y-86358000D01*
X163782899Y-86358000D01*
X166835901Y-89411003D01*
X166859699Y-89440001D01*
X166975424Y-89534974D01*
X167107453Y-89605546D01*
X167148176Y-89617899D01*
X167194463Y-89704494D01*
X167273815Y-89801185D01*
X167370506Y-89880537D01*
X167480820Y-89939502D01*
X167600518Y-89975812D01*
X167725000Y-89988072D01*
X169725000Y-89988072D01*
X169849482Y-89975812D01*
X169969180Y-89939502D01*
X170079494Y-89880537D01*
X170176185Y-89801185D01*
X170255537Y-89704494D01*
X170314502Y-89594180D01*
X170350812Y-89474482D01*
X170363072Y-89350000D01*
X172166928Y-89350000D01*
X172179188Y-89474482D01*
X172215498Y-89594180D01*
X172274463Y-89704494D01*
X172353815Y-89801185D01*
X172450506Y-89880537D01*
X172560820Y-89939502D01*
X172680518Y-89975812D01*
X172805000Y-89988072D01*
X173519250Y-89985000D01*
X173678000Y-89826250D01*
X173678000Y-89027000D01*
X173932000Y-89027000D01*
X173932000Y-89826250D01*
X174090750Y-89985000D01*
X174805000Y-89988072D01*
X174929482Y-89975812D01*
X175049180Y-89939502D01*
X175159494Y-89880537D01*
X175256185Y-89801185D01*
X175335537Y-89704494D01*
X175394502Y-89594180D01*
X175430812Y-89474482D01*
X175443072Y-89350000D01*
X175440000Y-89185750D01*
X175281250Y-89027000D01*
X173932000Y-89027000D01*
X173678000Y-89027000D01*
X172328750Y-89027000D01*
X172170000Y-89185750D01*
X172166928Y-89350000D01*
X170363072Y-89350000D01*
X170363072Y-88450000D01*
X172166928Y-88450000D01*
X172170000Y-88614250D01*
X172328750Y-88773000D01*
X173678000Y-88773000D01*
X173678000Y-87973750D01*
X173932000Y-87973750D01*
X173932000Y-88773000D01*
X175281250Y-88773000D01*
X175440000Y-88614250D01*
X175443072Y-88450000D01*
X175430812Y-88325518D01*
X175394502Y-88205820D01*
X175335537Y-88095506D01*
X175256185Y-87998815D01*
X175159494Y-87919463D01*
X175049180Y-87860498D01*
X174929482Y-87824188D01*
X174805000Y-87811928D01*
X174090750Y-87815000D01*
X173932000Y-87973750D01*
X173678000Y-87973750D01*
X173519250Y-87815000D01*
X172805000Y-87811928D01*
X172680518Y-87824188D01*
X172560820Y-87860498D01*
X172450506Y-87919463D01*
X172353815Y-87998815D01*
X172274463Y-88095506D01*
X172215498Y-88205820D01*
X172179188Y-88325518D01*
X172166928Y-88450000D01*
X170363072Y-88450000D01*
X170350812Y-88325518D01*
X170314502Y-88205820D01*
X170255537Y-88095506D01*
X170176185Y-87998815D01*
X170079494Y-87919463D01*
X169969180Y-87860498D01*
X169849482Y-87824188D01*
X169725000Y-87811928D01*
X167725000Y-87811928D01*
X167600518Y-87824188D01*
X167480820Y-87860498D01*
X167450960Y-87876459D01*
X165107201Y-85532700D01*
X166088888Y-85532700D01*
X166698805Y-86142618D01*
X166724172Y-86173528D01*
X166791910Y-86229119D01*
X166847510Y-86274749D01*
X166922724Y-86314951D01*
X166988227Y-86349963D01*
X167140912Y-86396280D01*
X167193933Y-86401502D01*
X167194463Y-86402494D01*
X167273815Y-86499185D01*
X167370506Y-86578537D01*
X167480820Y-86637502D01*
X167600518Y-86673812D01*
X167725000Y-86686072D01*
X169725000Y-86686072D01*
X169849482Y-86673812D01*
X169969180Y-86637502D01*
X170079494Y-86578537D01*
X170176185Y-86499185D01*
X170255537Y-86402494D01*
X170314502Y-86292180D01*
X170350812Y-86172482D01*
X170363072Y-86048000D01*
X170363072Y-85148000D01*
X170350812Y-85023518D01*
X170314502Y-84903820D01*
X170255537Y-84793506D01*
X170176185Y-84696815D01*
X170079494Y-84617463D01*
X169969180Y-84558498D01*
X169849482Y-84522188D01*
X169725000Y-84509928D01*
X167725000Y-84509928D01*
X167600518Y-84522188D01*
X167480820Y-84558498D01*
X167431873Y-84584661D01*
X167025299Y-84178087D01*
X166999928Y-84147172D01*
X166876589Y-84045951D01*
X166735873Y-83970737D01*
X166583188Y-83924420D01*
X166464191Y-83912700D01*
X166464188Y-83912700D01*
X166424400Y-83908781D01*
X166384612Y-83912700D01*
X150930387Y-83912700D01*
X150890599Y-83908781D01*
X150850811Y-83912700D01*
X150850809Y-83912700D01*
X150731812Y-83924420D01*
X150579127Y-83970737D01*
X150513624Y-84005749D01*
X150438410Y-84045951D01*
X150382810Y-84091581D01*
X150315072Y-84147172D01*
X150289705Y-84178082D01*
X149883127Y-84584661D01*
X149834180Y-84558498D01*
X149714482Y-84522188D01*
X149590000Y-84509928D01*
X147590000Y-84509928D01*
X147465518Y-84522188D01*
X147345820Y-84558498D01*
X147235506Y-84617463D01*
X147138815Y-84696815D01*
X147063982Y-84788000D01*
X143135113Y-84788000D01*
X136526017Y-78178905D01*
X136593411Y-78150990D01*
X136836632Y-77988475D01*
X137043475Y-77781632D01*
X137205990Y-77538411D01*
X137317932Y-77268158D01*
X137375000Y-76981260D01*
X137375000Y-76688740D01*
X137317932Y-76401842D01*
X137205990Y-76131589D01*
X137138110Y-76030000D01*
X137330883Y-76030000D01*
X137666081Y-75963325D01*
X137981831Y-75832537D01*
X138265998Y-75642663D01*
X138507663Y-75400998D01*
X138697537Y-75116831D01*
X138723148Y-75055000D01*
X139023547Y-75055000D01*
X138923262Y-75155285D01*
X138634893Y-75586859D01*
X138436261Y-76066399D01*
X138335000Y-76575475D01*
X138335000Y-77094525D01*
X138436261Y-77603601D01*
X138634893Y-78083141D01*
X138923262Y-78514715D01*
X139290285Y-78881738D01*
X139721859Y-79170107D01*
X140201399Y-79368739D01*
X140710475Y-79470000D01*
X141229525Y-79470000D01*
X141738601Y-79368739D01*
X142218141Y-79170107D01*
X142649715Y-78881738D01*
X143016738Y-78514715D01*
X143305107Y-78083141D01*
X143503739Y-77603601D01*
X143605000Y-77094525D01*
X143605000Y-76688740D01*
X144565000Y-76688740D01*
X144565000Y-76981260D01*
X144622068Y-77268158D01*
X144734010Y-77538411D01*
X144896525Y-77781632D01*
X145103368Y-77988475D01*
X145346589Y-78150990D01*
X145616842Y-78262932D01*
X145903740Y-78320000D01*
X146196260Y-78320000D01*
X146483158Y-78262932D01*
X146753411Y-78150990D01*
X146996632Y-77988475D01*
X147203475Y-77781632D01*
X147365990Y-77538411D01*
X147477932Y-77268158D01*
X147535000Y-76981260D01*
X147535000Y-76688740D01*
X147477932Y-76401842D01*
X147365990Y-76131589D01*
X147203475Y-75888368D01*
X146996632Y-75681525D01*
X146753411Y-75519010D01*
X146483158Y-75407068D01*
X146196260Y-75350000D01*
X145903740Y-75350000D01*
X145616842Y-75407068D01*
X145346589Y-75519010D01*
X145103368Y-75681525D01*
X144896525Y-75888368D01*
X144734010Y-76131589D01*
X144622068Y-76401842D01*
X144565000Y-76688740D01*
X143605000Y-76688740D01*
X143605000Y-76575475D01*
X143503739Y-76066399D01*
X143305107Y-75586859D01*
X143016738Y-75155285D01*
X142916453Y-75055000D01*
X155916852Y-75055000D01*
X155942463Y-75116831D01*
X156098261Y-75350000D01*
X156063740Y-75350000D01*
X155776842Y-75407068D01*
X155506589Y-75519010D01*
X155263368Y-75681525D01*
X155056525Y-75888368D01*
X154894010Y-76131589D01*
X154782068Y-76401842D01*
X154725000Y-76688740D01*
X154725000Y-76981260D01*
X154782068Y-77268158D01*
X154894010Y-77538411D01*
X155056525Y-77781632D01*
X155263368Y-77988475D01*
X155506589Y-78150990D01*
X155776842Y-78262932D01*
X156063740Y-78320000D01*
X156356260Y-78320000D01*
X156643158Y-78262932D01*
X156913411Y-78150990D01*
X157156632Y-77988475D01*
X157363475Y-77781632D01*
X157525990Y-77538411D01*
X157637932Y-77268158D01*
X157695000Y-76981260D01*
X157695000Y-76688740D01*
X157672471Y-76575475D01*
X158655000Y-76575475D01*
X158655000Y-77094525D01*
X158756261Y-77603601D01*
X158954893Y-78083141D01*
X159243262Y-78514715D01*
X159610285Y-78881738D01*
X160041859Y-79170107D01*
X160521399Y-79368739D01*
X161030475Y-79470000D01*
X161549525Y-79470000D01*
X162058601Y-79368739D01*
X162538141Y-79170107D01*
X162969715Y-78881738D01*
X163336738Y-78514715D01*
X163625107Y-78083141D01*
X163823739Y-77603601D01*
X163925000Y-77094525D01*
X163925000Y-76688740D01*
X164885000Y-76688740D01*
X164885000Y-76981260D01*
X164942068Y-77268158D01*
X165054010Y-77538411D01*
X165216525Y-77781632D01*
X165423368Y-77988475D01*
X165666589Y-78150990D01*
X165936842Y-78262932D01*
X166223740Y-78320000D01*
X166516260Y-78320000D01*
X166803158Y-78262932D01*
X167073411Y-78150990D01*
X167316632Y-77988475D01*
X167523475Y-77781632D01*
X167685990Y-77538411D01*
X167797932Y-77268158D01*
X167855000Y-76981260D01*
X167855000Y-76688740D01*
X167797932Y-76401842D01*
X167685990Y-76131589D01*
X167523475Y-75888368D01*
X167316632Y-75681525D01*
X167073411Y-75519010D01*
X166803158Y-75407068D01*
X166516260Y-75350000D01*
X166223740Y-75350000D01*
X165936842Y-75407068D01*
X165666589Y-75519010D01*
X165423368Y-75681525D01*
X165216525Y-75888368D01*
X165054010Y-76131589D01*
X164942068Y-76401842D01*
X164885000Y-76688740D01*
X163925000Y-76688740D01*
X163925000Y-76575475D01*
X163823739Y-76066399D01*
X163625107Y-75586859D01*
X163336738Y-75155285D01*
X162969715Y-74788262D01*
X162538141Y-74499893D01*
X162058601Y-74301261D01*
X161549525Y-74200000D01*
X161030475Y-74200000D01*
X160521399Y-74301261D01*
X160041859Y-74499893D01*
X159610285Y-74788262D01*
X159243262Y-75155285D01*
X158954893Y-75586859D01*
X158756261Y-76066399D01*
X158655000Y-76575475D01*
X157672471Y-76575475D01*
X157637932Y-76401842D01*
X157525990Y-76131589D01*
X157458110Y-76030000D01*
X157650883Y-76030000D01*
X157986081Y-75963325D01*
X158301831Y-75832537D01*
X158585998Y-75642663D01*
X158827663Y-75400998D01*
X159017537Y-75116831D01*
X159148325Y-74801081D01*
X159215000Y-74465883D01*
X159215000Y-74124117D01*
X159148325Y-73788919D01*
X159017537Y-73473169D01*
X158827663Y-73189002D01*
X158585998Y-72947337D01*
X158301831Y-72757463D01*
X157986081Y-72626675D01*
X157650883Y-72560000D01*
X157309117Y-72560000D01*
X156973919Y-72626675D01*
X156658169Y-72757463D01*
X156374002Y-72947337D01*
X156132337Y-73189002D01*
X155942463Y-73473169D01*
X155916852Y-73535000D01*
X138723148Y-73535000D01*
X138697537Y-73473169D01*
X138507663Y-73189002D01*
X138265998Y-72947337D01*
X137981831Y-72757463D01*
X137666081Y-72626675D01*
X137330883Y-72560000D01*
X136989117Y-72560000D01*
X136653919Y-72626675D01*
X136338169Y-72757463D01*
X136054002Y-72947337D01*
X135812337Y-73189002D01*
X135622463Y-73473169D01*
X135491675Y-73788919D01*
X135425000Y-74124117D01*
X135425000Y-74465883D01*
X135491675Y-74801081D01*
X135622463Y-75116831D01*
X135778261Y-75350000D01*
X135743740Y-75350000D01*
X135456842Y-75407068D01*
X135403400Y-75429204D01*
X135403400Y-71584117D01*
X141775000Y-71584117D01*
X141775000Y-71925883D01*
X141841675Y-72261081D01*
X141972463Y-72576831D01*
X142162337Y-72860998D01*
X142404002Y-73102663D01*
X142688169Y-73292537D01*
X143003919Y-73423325D01*
X143339117Y-73490000D01*
X143680883Y-73490000D01*
X144016081Y-73423325D01*
X144331831Y-73292537D01*
X144615998Y-73102663D01*
X144857663Y-72860998D01*
X145047537Y-72576831D01*
X145178325Y-72261081D01*
X145245000Y-71925883D01*
X145245000Y-71584117D01*
X145178325Y-71248919D01*
X145047537Y-70933169D01*
X144857663Y-70649002D01*
X144615998Y-70407337D01*
X144331831Y-70217463D01*
X144016081Y-70086675D01*
X143680883Y-70020000D01*
X143339117Y-70020000D01*
X143003919Y-70086675D01*
X142688169Y-70217463D01*
X142404002Y-70407337D01*
X142162337Y-70649002D01*
X141972463Y-70933169D01*
X141841675Y-71248919D01*
X141775000Y-71584117D01*
X135403400Y-71584117D01*
X135403400Y-66577408D01*
X147193000Y-66577408D01*
X147193000Y-66852592D01*
X147246686Y-67122490D01*
X147351995Y-67376727D01*
X147504880Y-67605535D01*
X147699465Y-67800120D01*
X147928273Y-67953005D01*
X148182510Y-68058314D01*
X148452408Y-68112000D01*
X148727592Y-68112000D01*
X148997490Y-68058314D01*
X149251727Y-67953005D01*
X149480535Y-67800120D01*
X149675120Y-67605535D01*
X149828005Y-67376727D01*
X149933314Y-67122490D01*
X149987000Y-66852592D01*
X149987000Y-66577408D01*
X152273000Y-66577408D01*
X152273000Y-66852592D01*
X152326686Y-67122490D01*
X152431995Y-67376727D01*
X152584880Y-67605535D01*
X152779465Y-67800120D01*
X153008273Y-67953005D01*
X153262510Y-68058314D01*
X153532408Y-68112000D01*
X153807592Y-68112000D01*
X154077490Y-68058314D01*
X154331727Y-67953005D01*
X154560535Y-67800120D01*
X154755120Y-67605535D01*
X154869068Y-67435000D01*
X154902667Y-67435000D01*
X154940000Y-67438677D01*
X154977333Y-67435000D01*
X158117292Y-67435000D01*
X158083115Y-67498940D01*
X158016785Y-67717600D01*
X157994388Y-67945000D01*
X158016785Y-68172400D01*
X158083115Y-68391060D01*
X158190829Y-68592579D01*
X158335788Y-68769212D01*
X158512421Y-68914171D01*
X158713940Y-69021885D01*
X158932600Y-69088215D01*
X159103021Y-69105000D01*
X159666979Y-69105000D01*
X159837400Y-69088215D01*
X160056060Y-69021885D01*
X160257579Y-68914171D01*
X160434212Y-68769212D01*
X160579171Y-68592579D01*
X160686885Y-68391060D01*
X160753215Y-68172400D01*
X160775612Y-67945000D01*
X160753215Y-67717600D01*
X160686885Y-67498940D01*
X160585895Y-67310000D01*
X160686885Y-67121060D01*
X160753215Y-66902400D01*
X160775612Y-66675000D01*
X160753215Y-66447600D01*
X160689907Y-66238902D01*
X160724502Y-66174180D01*
X160760812Y-66054482D01*
X160773072Y-65930000D01*
X160770000Y-65690750D01*
X160611250Y-65532000D01*
X159838109Y-65532000D01*
X159837400Y-65531785D01*
X159666979Y-65515000D01*
X159103021Y-65515000D01*
X158932600Y-65531785D01*
X158931891Y-65532000D01*
X158158750Y-65532000D01*
X158000000Y-65690750D01*
X157997121Y-65915000D01*
X155700000Y-65915000D01*
X155700000Y-64880000D01*
X157996928Y-64880000D01*
X158000000Y-65119250D01*
X158158750Y-65278000D01*
X159258000Y-65278000D01*
X159258000Y-64403750D01*
X159512000Y-64403750D01*
X159512000Y-65278000D01*
X160611250Y-65278000D01*
X160770000Y-65119250D01*
X160773072Y-64880000D01*
X160760812Y-64755518D01*
X160724502Y-64635820D01*
X160665537Y-64525506D01*
X160586185Y-64428815D01*
X160489494Y-64349463D01*
X160379180Y-64290498D01*
X160259482Y-64254188D01*
X160135000Y-64241928D01*
X159670750Y-64245000D01*
X159512000Y-64403750D01*
X159258000Y-64403750D01*
X159099250Y-64245000D01*
X158635000Y-64241928D01*
X158510518Y-64254188D01*
X158390820Y-64290498D01*
X158280506Y-64349463D01*
X158183815Y-64428815D01*
X158104463Y-64525506D01*
X158045498Y-64635820D01*
X158009188Y-64755518D01*
X157996928Y-64880000D01*
X155700000Y-64880000D01*
X155700000Y-61863072D01*
X155840000Y-61863072D01*
X155964482Y-61850812D01*
X156084180Y-61814502D01*
X156194494Y-61755537D01*
X156291185Y-61676185D01*
X156370537Y-61579494D01*
X156429502Y-61469180D01*
X156465812Y-61349482D01*
X156478072Y-61225000D01*
X156478072Y-59425000D01*
X156465812Y-59300518D01*
X156429502Y-59180820D01*
X156370537Y-59070506D01*
X156291185Y-58973815D01*
X156194494Y-58894463D01*
X156084180Y-58835498D01*
X155964482Y-58799188D01*
X155840000Y-58786928D01*
X154040000Y-58786928D01*
X153915518Y-58799188D01*
X153795820Y-58835498D01*
X153685506Y-58894463D01*
X153588815Y-58973815D01*
X153509463Y-59070506D01*
X153450498Y-59180820D01*
X153414188Y-59300518D01*
X153401928Y-59425000D01*
X153401928Y-61225000D01*
X153414188Y-61349482D01*
X153450498Y-61469180D01*
X153509463Y-61579494D01*
X153588815Y-61676185D01*
X153685506Y-61755537D01*
X153795820Y-61814502D01*
X153915518Y-61850812D01*
X154040000Y-61863072D01*
X154180001Y-61863072D01*
X154180000Y-65414147D01*
X154077490Y-65371686D01*
X153807592Y-65318000D01*
X153532408Y-65318000D01*
X153262510Y-65371686D01*
X153008273Y-65476995D01*
X152779465Y-65629880D01*
X152584880Y-65824465D01*
X152431995Y-66053273D01*
X152326686Y-66307510D01*
X152273000Y-66577408D01*
X149987000Y-66577408D01*
X149933314Y-66307510D01*
X149828005Y-66053273D01*
X149675120Y-65824465D01*
X149480535Y-65629880D01*
X149251727Y-65476995D01*
X148997490Y-65371686D01*
X148727592Y-65318000D01*
X148452408Y-65318000D01*
X148182510Y-65371686D01*
X147928273Y-65476995D01*
X147699465Y-65629880D01*
X147504880Y-65824465D01*
X147351995Y-66053273D01*
X147246686Y-66307510D01*
X147193000Y-66577408D01*
X135403400Y-66577408D01*
X135403400Y-60173816D01*
X145785000Y-60173816D01*
X145785000Y-60476184D01*
X145843989Y-60772743D01*
X145959701Y-61052095D01*
X146127688Y-61303505D01*
X146341495Y-61517312D01*
X146592905Y-61685299D01*
X146872257Y-61801011D01*
X147168816Y-61860000D01*
X147471184Y-61860000D01*
X147767743Y-61801011D01*
X148047095Y-61685299D01*
X148298505Y-61517312D01*
X148512312Y-61303505D01*
X148680299Y-61052095D01*
X148796011Y-60772743D01*
X148855000Y-60476184D01*
X148855000Y-60173816D01*
X148796011Y-59877257D01*
X148680299Y-59597905D01*
X148512312Y-59346495D01*
X148298505Y-59132688D01*
X148047095Y-58964701D01*
X147767743Y-58848989D01*
X147471184Y-58790000D01*
X147168816Y-58790000D01*
X146872257Y-58848989D01*
X146592905Y-58964701D01*
X146341495Y-59132688D01*
X146127688Y-59346495D01*
X145959701Y-59597905D01*
X145843989Y-59877257D01*
X145785000Y-60173816D01*
X135403400Y-60173816D01*
X135403400Y-57920796D01*
X135456842Y-57942932D01*
X135743740Y-58000000D01*
X136036260Y-58000000D01*
X136323158Y-57942932D01*
X136593411Y-57830990D01*
X136836632Y-57668475D01*
X137043475Y-57461632D01*
X137205990Y-57218411D01*
X137317932Y-56948158D01*
X137375000Y-56661260D01*
X137375000Y-56368740D01*
X137317932Y-56081842D01*
X137205990Y-55811589D01*
X137138110Y-55710000D01*
X137330883Y-55710000D01*
X137666081Y-55643325D01*
X137981831Y-55512537D01*
X138265998Y-55322663D01*
X138507663Y-55080998D01*
X138697537Y-54796831D01*
X138723148Y-54735000D01*
X139023547Y-54735000D01*
X138923262Y-54835285D01*
X138634893Y-55266859D01*
X138436261Y-55746399D01*
X138335000Y-56255475D01*
X138335000Y-56774525D01*
X138436261Y-57283601D01*
X138634893Y-57763141D01*
X138923262Y-58194715D01*
X139290285Y-58561738D01*
X139721859Y-58850107D01*
X140201399Y-59048739D01*
X140710475Y-59150000D01*
X141229525Y-59150000D01*
X141738601Y-59048739D01*
X142218141Y-58850107D01*
X142649715Y-58561738D01*
X143016738Y-58194715D01*
X143305107Y-57763141D01*
X143503739Y-57283601D01*
X143605000Y-56774525D01*
X143605000Y-56368740D01*
X144565000Y-56368740D01*
X144565000Y-56661260D01*
X144622068Y-56948158D01*
X144734010Y-57218411D01*
X144896525Y-57461632D01*
X145103368Y-57668475D01*
X145346589Y-57830990D01*
X145616842Y-57942932D01*
X145903740Y-58000000D01*
X146196260Y-58000000D01*
X146483158Y-57942932D01*
X146753411Y-57830990D01*
X146996632Y-57668475D01*
X147203475Y-57461632D01*
X147365990Y-57218411D01*
X147477932Y-56948158D01*
X147535000Y-56661260D01*
X147535000Y-56368740D01*
X147477932Y-56081842D01*
X147365990Y-55811589D01*
X147203475Y-55568368D01*
X146996632Y-55361525D01*
X146753411Y-55199010D01*
X146483158Y-55087068D01*
X146196260Y-55030000D01*
X145903740Y-55030000D01*
X145616842Y-55087068D01*
X145346589Y-55199010D01*
X145103368Y-55361525D01*
X144896525Y-55568368D01*
X144734010Y-55811589D01*
X144622068Y-56081842D01*
X144565000Y-56368740D01*
X143605000Y-56368740D01*
X143605000Y-56255475D01*
X143503739Y-55746399D01*
X143305107Y-55266859D01*
X143016738Y-54835285D01*
X142916453Y-54735000D01*
X155916852Y-54735000D01*
X155942463Y-54796831D01*
X156098261Y-55030000D01*
X156063740Y-55030000D01*
X155776842Y-55087068D01*
X155506589Y-55199010D01*
X155263368Y-55361525D01*
X155056525Y-55568368D01*
X154894010Y-55811589D01*
X154782068Y-56081842D01*
X154725000Y-56368740D01*
X154725000Y-56661260D01*
X154782068Y-56948158D01*
X154894010Y-57218411D01*
X155056525Y-57461632D01*
X155263368Y-57668475D01*
X155506589Y-57830990D01*
X155776842Y-57942932D01*
X156063740Y-58000000D01*
X156356260Y-58000000D01*
X156643158Y-57942932D01*
X156913411Y-57830990D01*
X157156632Y-57668475D01*
X157363475Y-57461632D01*
X157525990Y-57218411D01*
X157637932Y-56948158D01*
X157695000Y-56661260D01*
X157695000Y-56368740D01*
X157672471Y-56255475D01*
X158655000Y-56255475D01*
X158655000Y-56774525D01*
X158756261Y-57283601D01*
X158954893Y-57763141D01*
X159243262Y-58194715D01*
X159610285Y-58561738D01*
X160041859Y-58850107D01*
X160521399Y-59048739D01*
X161030475Y-59150000D01*
X161549525Y-59150000D01*
X162058601Y-59048739D01*
X162538141Y-58850107D01*
X162969715Y-58561738D01*
X163070000Y-58461453D01*
X163070001Y-70191851D01*
X163008169Y-70217463D01*
X162724002Y-70407337D01*
X162482337Y-70649002D01*
X162292463Y-70933169D01*
X162161675Y-71248919D01*
X162095000Y-71584117D01*
X162095000Y-71925883D01*
X162161675Y-72261081D01*
X162292463Y-72576831D01*
X162482337Y-72860998D01*
X162724002Y-73102663D01*
X163008169Y-73292537D01*
X163323919Y-73423325D01*
X163659117Y-73490000D01*
X164000883Y-73490000D01*
X164336081Y-73423325D01*
X164651831Y-73292537D01*
X164935998Y-73102663D01*
X165177663Y-72860998D01*
X165367537Y-72576831D01*
X165498325Y-72261081D01*
X165565000Y-71925883D01*
X165565000Y-71584117D01*
X165498325Y-71248919D01*
X165367537Y-70933169D01*
X165177663Y-70649002D01*
X164935998Y-70407337D01*
X164651831Y-70217463D01*
X164590000Y-70191852D01*
X164590000Y-56368740D01*
X164885000Y-56368740D01*
X164885000Y-56661260D01*
X164942068Y-56948158D01*
X165054010Y-57218411D01*
X165216525Y-57461632D01*
X165423368Y-57668475D01*
X165666589Y-57830990D01*
X165936842Y-57942932D01*
X166223740Y-58000000D01*
X166516260Y-58000000D01*
X166803158Y-57942932D01*
X167073411Y-57830990D01*
X167316632Y-57668475D01*
X167523475Y-57461632D01*
X167685990Y-57218411D01*
X167797932Y-56948158D01*
X167855000Y-56661260D01*
X167855000Y-56368740D01*
X167797932Y-56081842D01*
X167685990Y-55811589D01*
X167523475Y-55568368D01*
X167316632Y-55361525D01*
X167073411Y-55199010D01*
X166803158Y-55087068D01*
X166516260Y-55030000D01*
X166223740Y-55030000D01*
X165936842Y-55087068D01*
X165666589Y-55199010D01*
X165423368Y-55361525D01*
X165216525Y-55568368D01*
X165054010Y-55811589D01*
X164942068Y-56081842D01*
X164885000Y-56368740D01*
X164590000Y-56368740D01*
X164590000Y-52998148D01*
X164651831Y-52972537D01*
X164935998Y-52782663D01*
X165177663Y-52540998D01*
X165367537Y-52256831D01*
X165498325Y-51941081D01*
X165565000Y-51605883D01*
X165565000Y-51264117D01*
X165498325Y-50928919D01*
X165367537Y-50613169D01*
X165177663Y-50329002D01*
X164935998Y-50087337D01*
X164651831Y-49897463D01*
X164336081Y-49766675D01*
X164000883Y-49700000D01*
X163659117Y-49700000D01*
X163323919Y-49766675D01*
X163008169Y-49897463D01*
X162724002Y-50087337D01*
X162482337Y-50329002D01*
X162292463Y-50613169D01*
X162161675Y-50928919D01*
X162095000Y-51264117D01*
X162095000Y-51605883D01*
X162161675Y-51941081D01*
X162292463Y-52256831D01*
X162482337Y-52540998D01*
X162724002Y-52782663D01*
X163008169Y-52972537D01*
X163070000Y-52998148D01*
X163070000Y-54568547D01*
X162969715Y-54468262D01*
X162538141Y-54179893D01*
X162058601Y-53981261D01*
X161549525Y-53880000D01*
X161030475Y-53880000D01*
X160521399Y-53981261D01*
X160041859Y-54179893D01*
X159610285Y-54468262D01*
X159243262Y-54835285D01*
X158954893Y-55266859D01*
X158756261Y-55746399D01*
X158655000Y-56255475D01*
X157672471Y-56255475D01*
X157637932Y-56081842D01*
X157525990Y-55811589D01*
X157458110Y-55710000D01*
X157650883Y-55710000D01*
X157986081Y-55643325D01*
X158301831Y-55512537D01*
X158585998Y-55322663D01*
X158827663Y-55080998D01*
X159017537Y-54796831D01*
X159148325Y-54481081D01*
X159215000Y-54145883D01*
X159215000Y-53804117D01*
X159148325Y-53468919D01*
X159017537Y-53153169D01*
X158827663Y-52869002D01*
X158585998Y-52627337D01*
X158301831Y-52437463D01*
X157986081Y-52306675D01*
X157650883Y-52240000D01*
X157309117Y-52240000D01*
X156973919Y-52306675D01*
X156658169Y-52437463D01*
X156374002Y-52627337D01*
X156132337Y-52869002D01*
X155942463Y-53153169D01*
X155916852Y-53215000D01*
X138723148Y-53215000D01*
X138697537Y-53153169D01*
X138507663Y-52869002D01*
X138265998Y-52627337D01*
X137981831Y-52437463D01*
X137666081Y-52306675D01*
X137330883Y-52240000D01*
X136989117Y-52240000D01*
X136653919Y-52306675D01*
X136338169Y-52437463D01*
X136054002Y-52627337D01*
X135812337Y-52869002D01*
X135622463Y-53153169D01*
X135491675Y-53468919D01*
X135425000Y-53804117D01*
X135425000Y-54145883D01*
X135491675Y-54481081D01*
X135622463Y-54796831D01*
X135778261Y-55030000D01*
X135743740Y-55030000D01*
X135456842Y-55087068D01*
X135403400Y-55109204D01*
X135403400Y-51264117D01*
X141775000Y-51264117D01*
X141775000Y-51605883D01*
X141841675Y-51941081D01*
X141972463Y-52256831D01*
X142162337Y-52540998D01*
X142404002Y-52782663D01*
X142688169Y-52972537D01*
X143003919Y-53103325D01*
X143339117Y-53170000D01*
X143680883Y-53170000D01*
X144016081Y-53103325D01*
X144331831Y-52972537D01*
X144615998Y-52782663D01*
X144857663Y-52540998D01*
X145047537Y-52256831D01*
X145178325Y-51941081D01*
X145245000Y-51605883D01*
X145245000Y-51264117D01*
X145178325Y-50928919D01*
X145047537Y-50613169D01*
X144857663Y-50329002D01*
X144615998Y-50087337D01*
X144331831Y-49897463D01*
X144016081Y-49766675D01*
X143680883Y-49700000D01*
X143339117Y-49700000D01*
X143003919Y-49766675D01*
X142688169Y-49897463D01*
X142404002Y-50087337D01*
X142162337Y-50329002D01*
X141972463Y-50613169D01*
X141841675Y-50928919D01*
X141775000Y-51264117D01*
X135403400Y-51264117D01*
X135403400Y-45415300D01*
X145535509Y-45415300D01*
X145575300Y-45419219D01*
X145615091Y-45415300D01*
X146476488Y-45415300D01*
X146563800Y-45502612D01*
X146589172Y-45533528D01*
X146712511Y-45634749D01*
X146853227Y-45709963D01*
X147005912Y-45756280D01*
X147058933Y-45761502D01*
X147059463Y-45762494D01*
X147138815Y-45859185D01*
X147235506Y-45938537D01*
X147345820Y-45997502D01*
X147465518Y-46033812D01*
X147590000Y-46046072D01*
X149590000Y-46046072D01*
X149714482Y-46033812D01*
X149834180Y-45997502D01*
X149944494Y-45938537D01*
X150041185Y-45859185D01*
X150120537Y-45762494D01*
X150121067Y-45761502D01*
X150174088Y-45756280D01*
X150326773Y-45709963D01*
X150467489Y-45634749D01*
X150590828Y-45533528D01*
X150616200Y-45502612D01*
X154942313Y-41176500D01*
X160692798Y-41176500D01*
X157671299Y-44198000D01*
X155224320Y-44198000D01*
X155200537Y-44153506D01*
X155121185Y-44056815D01*
X155024494Y-43977463D01*
X154914180Y-43918498D01*
X154794482Y-43882188D01*
X154670000Y-43869928D01*
X152670000Y-43869928D01*
X152545518Y-43882188D01*
X152425820Y-43918498D01*
X152315506Y-43977463D01*
X152218815Y-44056815D01*
X152139463Y-44153506D01*
X152080498Y-44263820D01*
X152044188Y-44383518D01*
X152031928Y-44508000D01*
X152031928Y-45408000D01*
X152044188Y-45532482D01*
X152063820Y-45597200D01*
X151855433Y-45597200D01*
X151818100Y-45593523D01*
X151780767Y-45597200D01*
X151669114Y-45608197D01*
X151525853Y-45651654D01*
X151393824Y-45722226D01*
X151278099Y-45817199D01*
X151254301Y-45846197D01*
X149864040Y-47236459D01*
X149834180Y-47220498D01*
X149714482Y-47184188D01*
X149590000Y-47171928D01*
X147590000Y-47171928D01*
X147465518Y-47184188D01*
X147345820Y-47220498D01*
X147235506Y-47279463D01*
X147138815Y-47358815D01*
X147059463Y-47455506D01*
X147000498Y-47565820D01*
X146964188Y-47685518D01*
X146951928Y-47810000D01*
X146951928Y-48710000D01*
X146964188Y-48834482D01*
X147000498Y-48954180D01*
X147059463Y-49064494D01*
X147138815Y-49161185D01*
X147235506Y-49240537D01*
X147345820Y-49299502D01*
X147465518Y-49335812D01*
X147590000Y-49348072D01*
X149590000Y-49348072D01*
X149714482Y-49335812D01*
X149834180Y-49299502D01*
X149944494Y-49240537D01*
X150041185Y-49161185D01*
X150120537Y-49064494D01*
X150166824Y-48977899D01*
X150207547Y-48965546D01*
X150339576Y-48894974D01*
X150455301Y-48800001D01*
X150479104Y-48770997D01*
X150540101Y-48710000D01*
X152031928Y-48710000D01*
X152044188Y-48834482D01*
X152080498Y-48954180D01*
X152139463Y-49064494D01*
X152218815Y-49161185D01*
X152315506Y-49240537D01*
X152425820Y-49299502D01*
X152545518Y-49335812D01*
X152670000Y-49348072D01*
X153384250Y-49345000D01*
X153543000Y-49186250D01*
X153543000Y-48387000D01*
X153797000Y-48387000D01*
X153797000Y-49186250D01*
X153955750Y-49345000D01*
X154670000Y-49348072D01*
X154794482Y-49335812D01*
X154914180Y-49299502D01*
X155024494Y-49240537D01*
X155121185Y-49161185D01*
X155200537Y-49064494D01*
X155259502Y-48954180D01*
X155295812Y-48834482D01*
X155308072Y-48710000D01*
X155305000Y-48545750D01*
X155146250Y-48387000D01*
X153797000Y-48387000D01*
X153543000Y-48387000D01*
X152193750Y-48387000D01*
X152035000Y-48545750D01*
X152031928Y-48710000D01*
X150540101Y-48710000D01*
X151440101Y-47810000D01*
X152031928Y-47810000D01*
X152035000Y-47974250D01*
X152193750Y-48133000D01*
X153543000Y-48133000D01*
X153543000Y-47333750D01*
X153797000Y-47333750D01*
X153797000Y-48133000D01*
X155146250Y-48133000D01*
X155305000Y-47974250D01*
X155308072Y-47810000D01*
X167271928Y-47810000D01*
X167271928Y-48710000D01*
X167284188Y-48834482D01*
X167320498Y-48954180D01*
X167379463Y-49064494D01*
X167458815Y-49161185D01*
X167555506Y-49240537D01*
X167665820Y-49299502D01*
X167785518Y-49335812D01*
X167910000Y-49348072D01*
X169475301Y-49348072D01*
X169475300Y-81990978D01*
X169471624Y-82028300D01*
X169475300Y-82065622D01*
X169475300Y-82065632D01*
X169486297Y-82177285D01*
X169529754Y-82320546D01*
X169600326Y-82452576D01*
X169640171Y-82501126D01*
X169695299Y-82568301D01*
X169724303Y-82592104D01*
X172177084Y-85044885D01*
X172166928Y-85148000D01*
X172166928Y-86048000D01*
X172179188Y-86172482D01*
X172215498Y-86292180D01*
X172274463Y-86402494D01*
X172353815Y-86499185D01*
X172450506Y-86578537D01*
X172560820Y-86637502D01*
X172680518Y-86673812D01*
X172805000Y-86686072D01*
X174805000Y-86686072D01*
X174929482Y-86673812D01*
X175049180Y-86637502D01*
X175159494Y-86578537D01*
X175256185Y-86499185D01*
X175335537Y-86402494D01*
X175394502Y-86292180D01*
X175430812Y-86172482D01*
X175443072Y-86048000D01*
X175443072Y-85148000D01*
X175430812Y-85023518D01*
X175394502Y-84903820D01*
X175335537Y-84793506D01*
X175256185Y-84696815D01*
X175159494Y-84617463D01*
X175049180Y-84558498D01*
X174929482Y-84522188D01*
X174805000Y-84509928D01*
X173791730Y-84509928D01*
X170995300Y-81713499D01*
X170995300Y-76688740D01*
X175045000Y-76688740D01*
X175045000Y-76981260D01*
X175102068Y-77268158D01*
X175214010Y-77538411D01*
X175376525Y-77781632D01*
X175583368Y-77988475D01*
X175826589Y-78150990D01*
X176096842Y-78262932D01*
X176383740Y-78320000D01*
X176676260Y-78320000D01*
X176963158Y-78262932D01*
X177233411Y-78150990D01*
X177476632Y-77988475D01*
X177683475Y-77781632D01*
X177845990Y-77538411D01*
X177957932Y-77268158D01*
X178015000Y-76981260D01*
X178015000Y-76688740D01*
X177992471Y-76575475D01*
X178975000Y-76575475D01*
X178975000Y-77094525D01*
X179076261Y-77603601D01*
X179274893Y-78083141D01*
X179563262Y-78514715D01*
X179930285Y-78881738D01*
X180361859Y-79170107D01*
X180841399Y-79368739D01*
X181350475Y-79470000D01*
X181869525Y-79470000D01*
X182378601Y-79368739D01*
X182858141Y-79170107D01*
X183289715Y-78881738D01*
X183656738Y-78514715D01*
X183945107Y-78083141D01*
X184143739Y-77603601D01*
X184245000Y-77094525D01*
X184245000Y-76688740D01*
X185205000Y-76688740D01*
X185205000Y-76981260D01*
X185262068Y-77268158D01*
X185374010Y-77538411D01*
X185536525Y-77781632D01*
X185743368Y-77988475D01*
X185986589Y-78150990D01*
X186256842Y-78262932D01*
X186543740Y-78320000D01*
X186836260Y-78320000D01*
X187123158Y-78262932D01*
X187393411Y-78150990D01*
X187636632Y-77988475D01*
X187843475Y-77781632D01*
X188005990Y-77538411D01*
X188117932Y-77268158D01*
X188175000Y-76981260D01*
X188175000Y-76688740D01*
X188117932Y-76401842D01*
X188005990Y-76131589D01*
X187843475Y-75888368D01*
X187636632Y-75681525D01*
X187393411Y-75519010D01*
X187123158Y-75407068D01*
X186836260Y-75350000D01*
X186543740Y-75350000D01*
X186256842Y-75407068D01*
X185986589Y-75519010D01*
X185743368Y-75681525D01*
X185536525Y-75888368D01*
X185374010Y-76131589D01*
X185262068Y-76401842D01*
X185205000Y-76688740D01*
X184245000Y-76688740D01*
X184245000Y-76575475D01*
X184143739Y-76066399D01*
X183945107Y-75586859D01*
X183656738Y-75155285D01*
X183289715Y-74788262D01*
X182858141Y-74499893D01*
X182378601Y-74301261D01*
X181869525Y-74200000D01*
X181350475Y-74200000D01*
X180841399Y-74301261D01*
X180361859Y-74499893D01*
X179930285Y-74788262D01*
X179563262Y-75155285D01*
X179274893Y-75586859D01*
X179076261Y-76066399D01*
X178975000Y-76575475D01*
X177992471Y-76575475D01*
X177957932Y-76401842D01*
X177845990Y-76131589D01*
X177778110Y-76030000D01*
X177970883Y-76030000D01*
X178306081Y-75963325D01*
X178621831Y-75832537D01*
X178905998Y-75642663D01*
X179147663Y-75400998D01*
X179337537Y-75116831D01*
X179468325Y-74801081D01*
X179535000Y-74465883D01*
X179535000Y-74124117D01*
X179468325Y-73788919D01*
X179337537Y-73473169D01*
X179147663Y-73189002D01*
X178905998Y-72947337D01*
X178621831Y-72757463D01*
X178306081Y-72626675D01*
X177970883Y-72560000D01*
X177629117Y-72560000D01*
X177293919Y-72626675D01*
X176978169Y-72757463D01*
X176694002Y-72947337D01*
X176452337Y-73189002D01*
X176262463Y-73473169D01*
X176131675Y-73788919D01*
X176065000Y-74124117D01*
X176065000Y-74465883D01*
X176131675Y-74801081D01*
X176262463Y-75116831D01*
X176418261Y-75350000D01*
X176383740Y-75350000D01*
X176096842Y-75407068D01*
X175826589Y-75519010D01*
X175583368Y-75681525D01*
X175376525Y-75888368D01*
X175214010Y-76131589D01*
X175102068Y-76401842D01*
X175045000Y-76688740D01*
X170995300Y-76688740D01*
X170995300Y-56368740D01*
X175045000Y-56368740D01*
X175045000Y-56661260D01*
X175102068Y-56948158D01*
X175214010Y-57218411D01*
X175376525Y-57461632D01*
X175583368Y-57668475D01*
X175826589Y-57830990D01*
X176096842Y-57942932D01*
X176383740Y-58000000D01*
X176676260Y-58000000D01*
X176963158Y-57942932D01*
X177233411Y-57830990D01*
X177476632Y-57668475D01*
X177683475Y-57461632D01*
X177845990Y-57218411D01*
X177957932Y-56948158D01*
X178015000Y-56661260D01*
X178015000Y-56368740D01*
X177992471Y-56255475D01*
X178975000Y-56255475D01*
X178975000Y-56774525D01*
X179076261Y-57283601D01*
X179274893Y-57763141D01*
X179563262Y-58194715D01*
X179930285Y-58561738D01*
X180361859Y-58850107D01*
X180841399Y-59048739D01*
X181350475Y-59150000D01*
X181869525Y-59150000D01*
X182378601Y-59048739D01*
X182858141Y-58850107D01*
X183289715Y-58561738D01*
X183390001Y-58461452D01*
X183390000Y-70191852D01*
X183328169Y-70217463D01*
X183044002Y-70407337D01*
X182802337Y-70649002D01*
X182612463Y-70933169D01*
X182481675Y-71248919D01*
X182415000Y-71584117D01*
X182415000Y-71925883D01*
X182481675Y-72261081D01*
X182612463Y-72576831D01*
X182802337Y-72860998D01*
X183044002Y-73102663D01*
X183328169Y-73292537D01*
X183643919Y-73423325D01*
X183979117Y-73490000D01*
X184320883Y-73490000D01*
X184656081Y-73423325D01*
X184971831Y-73292537D01*
X185255998Y-73102663D01*
X185497663Y-72860998D01*
X185687537Y-72576831D01*
X185818325Y-72261081D01*
X185885000Y-71925883D01*
X185885000Y-71584117D01*
X185818325Y-71248919D01*
X185687537Y-70933169D01*
X185497663Y-70649002D01*
X185255998Y-70407337D01*
X184971831Y-70217463D01*
X184910000Y-70191852D01*
X184910000Y-56368740D01*
X185205000Y-56368740D01*
X185205000Y-56661260D01*
X185262068Y-56948158D01*
X185374010Y-57218411D01*
X185536525Y-57461632D01*
X185743368Y-57668475D01*
X185986589Y-57830990D01*
X186256842Y-57942932D01*
X186543740Y-58000000D01*
X186836260Y-58000000D01*
X187123158Y-57942932D01*
X187393411Y-57830990D01*
X187636632Y-57668475D01*
X187843475Y-57461632D01*
X188005990Y-57218411D01*
X188117932Y-56948158D01*
X188175000Y-56661260D01*
X188175000Y-56368740D01*
X188117932Y-56081842D01*
X188005990Y-55811589D01*
X187843475Y-55568368D01*
X187636632Y-55361525D01*
X187393411Y-55199010D01*
X187123158Y-55087068D01*
X186836260Y-55030000D01*
X186543740Y-55030000D01*
X186256842Y-55087068D01*
X185986589Y-55199010D01*
X185743368Y-55361525D01*
X185536525Y-55568368D01*
X185374010Y-55811589D01*
X185262068Y-56081842D01*
X185205000Y-56368740D01*
X184910000Y-56368740D01*
X184910000Y-52998148D01*
X184971831Y-52972537D01*
X185255998Y-52782663D01*
X185497663Y-52540998D01*
X185687537Y-52256831D01*
X185818325Y-51941081D01*
X185885000Y-51605883D01*
X185885000Y-51264117D01*
X185818325Y-50928919D01*
X185687537Y-50613169D01*
X185497663Y-50329002D01*
X185255998Y-50087337D01*
X184971831Y-49897463D01*
X184656081Y-49766675D01*
X184320883Y-49700000D01*
X183979117Y-49700000D01*
X183643919Y-49766675D01*
X183328169Y-49897463D01*
X183044002Y-50087337D01*
X182802337Y-50329002D01*
X182612463Y-50613169D01*
X182481675Y-50928919D01*
X182415000Y-51264117D01*
X182415000Y-51605883D01*
X182481675Y-51941081D01*
X182612463Y-52256831D01*
X182802337Y-52540998D01*
X183044002Y-52782663D01*
X183328169Y-52972537D01*
X183390001Y-52998149D01*
X183390001Y-54568548D01*
X183289715Y-54468262D01*
X182858141Y-54179893D01*
X182378601Y-53981261D01*
X181869525Y-53880000D01*
X181350475Y-53880000D01*
X180841399Y-53981261D01*
X180361859Y-54179893D01*
X179930285Y-54468262D01*
X179563262Y-54835285D01*
X179274893Y-55266859D01*
X179076261Y-55746399D01*
X178975000Y-56255475D01*
X177992471Y-56255475D01*
X177957932Y-56081842D01*
X177845990Y-55811589D01*
X177778110Y-55710000D01*
X177970883Y-55710000D01*
X178306081Y-55643325D01*
X178621831Y-55512537D01*
X178905998Y-55322663D01*
X179147663Y-55080998D01*
X179337537Y-54796831D01*
X179468325Y-54481081D01*
X179535000Y-54145883D01*
X179535000Y-53804117D01*
X179468325Y-53468919D01*
X179337537Y-53153169D01*
X179147663Y-52869002D01*
X178905998Y-52627337D01*
X178621831Y-52437463D01*
X178306081Y-52306675D01*
X177970883Y-52240000D01*
X177629117Y-52240000D01*
X177293919Y-52306675D01*
X176978169Y-52437463D01*
X176694002Y-52627337D01*
X176452337Y-52869002D01*
X176262463Y-53153169D01*
X176131675Y-53468919D01*
X176065000Y-53804117D01*
X176065000Y-54145883D01*
X176131675Y-54481081D01*
X176262463Y-54796831D01*
X176418261Y-55030000D01*
X176383740Y-55030000D01*
X176096842Y-55087068D01*
X175826589Y-55199010D01*
X175583368Y-55361525D01*
X175376525Y-55568368D01*
X175214010Y-55811589D01*
X175102068Y-56081842D01*
X175045000Y-56368740D01*
X170995300Y-56368740D01*
X170995300Y-48710000D01*
X172351928Y-48710000D01*
X172364188Y-48834482D01*
X172400498Y-48954180D01*
X172459463Y-49064494D01*
X172538815Y-49161185D01*
X172635506Y-49240537D01*
X172745820Y-49299502D01*
X172865518Y-49335812D01*
X172990000Y-49348072D01*
X173704250Y-49345000D01*
X173863000Y-49186250D01*
X173863000Y-48387000D01*
X174117000Y-48387000D01*
X174117000Y-49186250D01*
X174275750Y-49345000D01*
X174990000Y-49348072D01*
X175114482Y-49335812D01*
X175234180Y-49299502D01*
X175344494Y-49240537D01*
X175441185Y-49161185D01*
X175520537Y-49064494D01*
X175579502Y-48954180D01*
X175615812Y-48834482D01*
X175628072Y-48710000D01*
X175625000Y-48545750D01*
X175466250Y-48387000D01*
X174117000Y-48387000D01*
X173863000Y-48387000D01*
X172513750Y-48387000D01*
X172355000Y-48545750D01*
X172351928Y-48710000D01*
X170995300Y-48710000D01*
X170995300Y-48297333D01*
X170998977Y-48260000D01*
X170984303Y-48111014D01*
X170940846Y-47967753D01*
X170870274Y-47835724D01*
X170849163Y-47810000D01*
X172351928Y-47810000D01*
X172355000Y-47974250D01*
X172513750Y-48133000D01*
X173863000Y-48133000D01*
X173863000Y-47333750D01*
X174117000Y-47333750D01*
X174117000Y-48133000D01*
X175466250Y-48133000D01*
X175625000Y-47974250D01*
X175628072Y-47810000D01*
X175615812Y-47685518D01*
X175579502Y-47565820D01*
X175520537Y-47455506D01*
X175441185Y-47358815D01*
X175344494Y-47279463D01*
X175234180Y-47220498D01*
X175114482Y-47184188D01*
X174990000Y-47171928D01*
X174275750Y-47175000D01*
X174117000Y-47333750D01*
X173863000Y-47333750D01*
X173704250Y-47175000D01*
X172990000Y-47171928D01*
X172865518Y-47184188D01*
X172745820Y-47220498D01*
X172635506Y-47279463D01*
X172538815Y-47358815D01*
X172459463Y-47455506D01*
X172400498Y-47565820D01*
X172364188Y-47685518D01*
X172351928Y-47810000D01*
X170849163Y-47810000D01*
X170775301Y-47719999D01*
X170659576Y-47625026D01*
X170527547Y-47554454D01*
X170486824Y-47542101D01*
X170440537Y-47455506D01*
X170361185Y-47358815D01*
X170264494Y-47279463D01*
X170154180Y-47220498D01*
X170034482Y-47184188D01*
X169910000Y-47171928D01*
X167910000Y-47171928D01*
X167785518Y-47184188D01*
X167665820Y-47220498D01*
X167555506Y-47279463D01*
X167458815Y-47358815D01*
X167379463Y-47455506D01*
X167320498Y-47565820D01*
X167284188Y-47685518D01*
X167271928Y-47810000D01*
X155308072Y-47810000D01*
X155295812Y-47685518D01*
X155259502Y-47565820D01*
X155200537Y-47455506D01*
X155121185Y-47358815D01*
X155024494Y-47279463D01*
X154914180Y-47220498D01*
X154794482Y-47184188D01*
X154670000Y-47171928D01*
X153955750Y-47175000D01*
X153797000Y-47333750D01*
X153543000Y-47333750D01*
X153384250Y-47175000D01*
X152670000Y-47171928D01*
X152545518Y-47184188D01*
X152425820Y-47220498D01*
X152315506Y-47279463D01*
X152218815Y-47358815D01*
X152139463Y-47455506D01*
X152080498Y-47565820D01*
X152044188Y-47685518D01*
X152031928Y-47810000D01*
X151440101Y-47810000D01*
X152132902Y-47117200D01*
X171228178Y-47117200D01*
X171265500Y-47120876D01*
X171302822Y-47117200D01*
X171302833Y-47117200D01*
X171414486Y-47106203D01*
X171557747Y-47062746D01*
X171689776Y-46992174D01*
X171805501Y-46897201D01*
X171829304Y-46868197D01*
X172715960Y-45981541D01*
X172745820Y-45997502D01*
X172865518Y-46033812D01*
X172990000Y-46046072D01*
X174990000Y-46046072D01*
X175114482Y-46033812D01*
X175234180Y-45997502D01*
X175344494Y-45938537D01*
X175441185Y-45859185D01*
X175520537Y-45762494D01*
X175579502Y-45652180D01*
X175615812Y-45532482D01*
X175628072Y-45408000D01*
X175628072Y-44508000D01*
X175615812Y-44383518D01*
X175579502Y-44263820D01*
X175520537Y-44153506D01*
X175441185Y-44056815D01*
X175344494Y-43977463D01*
X175234180Y-43918498D01*
X175114482Y-43882188D01*
X174990000Y-43869928D01*
X172990000Y-43869928D01*
X172865518Y-43882188D01*
X172745820Y-43918498D01*
X172635506Y-43977463D01*
X172538815Y-44056815D01*
X172459463Y-44153506D01*
X172413176Y-44240101D01*
X172372453Y-44252454D01*
X172240424Y-44323026D01*
X172124699Y-44417999D01*
X172100901Y-44446997D01*
X170950699Y-45597200D01*
X170516180Y-45597200D01*
X170535812Y-45532482D01*
X170548072Y-45408000D01*
X170548072Y-44508000D01*
X170535812Y-44383518D01*
X170499502Y-44263820D01*
X170440537Y-44153506D01*
X170361185Y-44056815D01*
X170264494Y-43977463D01*
X170154180Y-43918498D01*
X170034482Y-43882188D01*
X169910000Y-43869928D01*
X167910000Y-43869928D01*
X167785518Y-43882188D01*
X167665820Y-43918498D01*
X167616874Y-43944661D01*
X165129100Y-41456888D01*
X165129100Y-40856549D01*
X165133019Y-40816820D01*
X165129100Y-40776970D01*
X165129100Y-40776909D01*
X165125059Y-40735881D01*
X165117403Y-40658030D01*
X165117386Y-40657974D01*
X165117380Y-40657912D01*
X165093153Y-40578046D01*
X165077987Y-40528025D01*
X168497219Y-37108794D01*
X168528128Y-37083428D01*
X168629349Y-36960089D01*
X168704563Y-36819373D01*
X168750880Y-36666688D01*
X168762600Y-36547691D01*
X168762600Y-36547689D01*
X168766519Y-36507901D01*
X168762600Y-36468113D01*
X168762600Y-34689008D01*
X168799074Y-34664637D01*
X168943237Y-34520474D01*
X169056505Y-34350956D01*
X169134526Y-34162598D01*
X169174300Y-33962639D01*
X169174300Y-33845400D01*
X176068882Y-33845400D01*
X176131675Y-34161081D01*
X176262463Y-34476831D01*
X176418261Y-34710000D01*
X176383740Y-34710000D01*
X176096842Y-34767068D01*
X175826589Y-34879010D01*
X175583368Y-35041525D01*
X175376525Y-35248368D01*
X175214010Y-35491589D01*
X175102068Y-35761842D01*
X175045000Y-36048740D01*
X175045000Y-36341260D01*
X175102068Y-36628158D01*
X175214010Y-36898411D01*
X175376525Y-37141632D01*
X175583368Y-37348475D01*
X175826589Y-37510990D01*
X176096842Y-37622932D01*
X176383740Y-37680000D01*
X176676260Y-37680000D01*
X176963158Y-37622932D01*
X177233411Y-37510990D01*
X177476632Y-37348475D01*
X177683475Y-37141632D01*
X177845990Y-36898411D01*
X177957932Y-36628158D01*
X178015000Y-36341260D01*
X178015000Y-36048740D01*
X177992471Y-35935475D01*
X178975000Y-35935475D01*
X178975000Y-36454525D01*
X179076261Y-36963601D01*
X179274893Y-37443141D01*
X179563262Y-37874715D01*
X179930285Y-38241738D01*
X180361859Y-38530107D01*
X180841399Y-38728739D01*
X181350475Y-38830000D01*
X181869525Y-38830000D01*
X182378601Y-38728739D01*
X182858141Y-38530107D01*
X183289715Y-38241738D01*
X183656738Y-37874715D01*
X183945107Y-37443141D01*
X184143739Y-36963601D01*
X184245000Y-36454525D01*
X184245000Y-36048740D01*
X185205000Y-36048740D01*
X185205000Y-36341260D01*
X185262068Y-36628158D01*
X185374010Y-36898411D01*
X185536525Y-37141632D01*
X185743368Y-37348475D01*
X185986589Y-37510990D01*
X186256842Y-37622932D01*
X186543740Y-37680000D01*
X186836260Y-37680000D01*
X187123158Y-37622932D01*
X187393411Y-37510990D01*
X187636632Y-37348475D01*
X187843475Y-37141632D01*
X188005990Y-36898411D01*
X188117932Y-36628158D01*
X188175000Y-36341260D01*
X188175000Y-36048740D01*
X188117932Y-35761842D01*
X188005990Y-35491589D01*
X187843475Y-35248368D01*
X187636632Y-35041525D01*
X187393411Y-34879010D01*
X187123158Y-34767068D01*
X186836260Y-34710000D01*
X186543740Y-34710000D01*
X186256842Y-34767068D01*
X185986589Y-34879010D01*
X185743368Y-35041525D01*
X185536525Y-35248368D01*
X185374010Y-35491589D01*
X185262068Y-35761842D01*
X185205000Y-36048740D01*
X184245000Y-36048740D01*
X184245000Y-35935475D01*
X184143739Y-35426399D01*
X183945107Y-34946859D01*
X183656738Y-34515285D01*
X183289715Y-34148262D01*
X182858141Y-33859893D01*
X182378601Y-33661261D01*
X181869525Y-33560000D01*
X181350475Y-33560000D01*
X180841399Y-33661261D01*
X180361859Y-33859893D01*
X179930285Y-34148262D01*
X179563262Y-34515285D01*
X179274893Y-34946859D01*
X179076261Y-35426399D01*
X178975000Y-35935475D01*
X177992471Y-35935475D01*
X177957932Y-35761842D01*
X177845990Y-35491589D01*
X177778110Y-35390000D01*
X177970883Y-35390000D01*
X178306081Y-35323325D01*
X178621831Y-35192537D01*
X178905998Y-35002663D01*
X179147663Y-34760998D01*
X179337537Y-34476831D01*
X179468325Y-34161081D01*
X179535000Y-33825883D01*
X179535000Y-33484117D01*
X179468325Y-33148919D01*
X179337537Y-32833169D01*
X179147663Y-32549002D01*
X178905998Y-32307337D01*
X178621831Y-32117463D01*
X178306081Y-31986675D01*
X177970883Y-31920000D01*
X177629117Y-31920000D01*
X177293919Y-31986675D01*
X176978169Y-32117463D01*
X176694002Y-32307337D01*
X176675939Y-32325400D01*
X165073261Y-32325400D01*
X165177663Y-32220998D01*
X165367537Y-31936831D01*
X165498325Y-31621081D01*
X165565000Y-31285883D01*
X165565000Y-30944117D01*
X182415000Y-30944117D01*
X182415000Y-31285883D01*
X182481675Y-31621081D01*
X182612463Y-31936831D01*
X182802337Y-32220998D01*
X183044002Y-32462663D01*
X183328169Y-32652537D01*
X183643919Y-32783325D01*
X183979117Y-32850000D01*
X184320883Y-32850000D01*
X184656081Y-32783325D01*
X184971831Y-32652537D01*
X185255998Y-32462663D01*
X185497663Y-32220998D01*
X185687537Y-31936831D01*
X185818325Y-31621081D01*
X185885000Y-31285883D01*
X185885000Y-30944117D01*
X185818325Y-30608919D01*
X185687537Y-30293169D01*
X185497663Y-30009002D01*
X185255998Y-29767337D01*
X184971831Y-29577463D01*
X184656081Y-29446675D01*
X184320883Y-29380000D01*
X183979117Y-29380000D01*
X183643919Y-29446675D01*
X183328169Y-29577463D01*
X183044002Y-29767337D01*
X182802337Y-30009002D01*
X182612463Y-30293169D01*
X182481675Y-30608919D01*
X182415000Y-30944117D01*
X165565000Y-30944117D01*
X165498325Y-30608919D01*
X165367537Y-30293169D01*
X165177663Y-30009002D01*
X164935998Y-29767337D01*
X164651831Y-29577463D01*
X164336081Y-29446675D01*
X164000883Y-29380000D01*
X163659117Y-29380000D01*
X163323919Y-29446675D01*
X163008169Y-29577463D01*
X162724002Y-29767337D01*
X162482337Y-30009002D01*
X162292463Y-30293169D01*
X162161675Y-30608919D01*
X162095000Y-30944117D01*
X162095000Y-31285883D01*
X162161675Y-31621081D01*
X162292463Y-31936831D01*
X162482337Y-32220998D01*
X162586739Y-32325400D01*
X158604061Y-32325400D01*
X158585998Y-32307337D01*
X158301831Y-32117463D01*
X157986081Y-31986675D01*
X157650883Y-31920000D01*
X157309117Y-31920000D01*
X156973919Y-31986675D01*
X156658169Y-32117463D01*
X156374002Y-32307337D01*
X156132337Y-32549002D01*
X155942463Y-32833169D01*
X155916852Y-32895000D01*
X138723148Y-32895000D01*
X138697537Y-32833169D01*
X138507663Y-32549002D01*
X138265998Y-32307337D01*
X137981831Y-32117463D01*
X137666081Y-31986675D01*
X137330883Y-31920000D01*
X136989117Y-31920000D01*
X136653919Y-31986675D01*
X136338169Y-32117463D01*
X136054002Y-32307337D01*
X135812337Y-32549002D01*
X135622463Y-32833169D01*
X135491675Y-33148919D01*
X135425000Y-33484117D01*
X135425000Y-33825883D01*
X135491675Y-34161081D01*
X135622463Y-34476831D01*
X135778261Y-34710000D01*
X135743740Y-34710000D01*
X135456842Y-34767068D01*
X135186589Y-34879010D01*
X134943368Y-35041525D01*
X134736525Y-35248368D01*
X134574010Y-35491589D01*
X134462068Y-35761842D01*
X134405000Y-36048740D01*
X134405000Y-36341260D01*
X134462068Y-36628158D01*
X134574010Y-36898411D01*
X134736525Y-37141632D01*
X134943368Y-37348475D01*
X135186589Y-37510990D01*
X135456842Y-37622932D01*
X135743740Y-37680000D01*
X136036260Y-37680000D01*
X136323158Y-37622932D01*
X136593411Y-37510990D01*
X136836632Y-37348475D01*
X137043475Y-37141632D01*
X137205990Y-36898411D01*
X137317932Y-36628158D01*
X137375000Y-36341260D01*
X137375000Y-36048740D01*
X137317932Y-35761842D01*
X137205990Y-35491589D01*
X137138110Y-35390000D01*
X137330883Y-35390000D01*
X137666081Y-35323325D01*
X137981831Y-35192537D01*
X138265998Y-35002663D01*
X138507663Y-34760998D01*
X138697537Y-34476831D01*
X138723148Y-34415000D01*
X139023547Y-34415000D01*
X138923262Y-34515285D01*
X138634893Y-34946859D01*
X138436261Y-35426399D01*
X138335000Y-35935475D01*
X138335000Y-36454525D01*
X138436261Y-36963601D01*
X138634893Y-37443141D01*
X138923262Y-37874715D01*
X139290285Y-38241738D01*
X139721859Y-38530107D01*
X140201399Y-38728739D01*
X140710475Y-38830000D01*
X141229525Y-38830000D01*
X141738601Y-38728739D01*
X142218141Y-38530107D01*
X142649715Y-38241738D01*
X143016738Y-37874715D01*
X143305107Y-37443141D01*
X143503739Y-36963601D01*
X143605000Y-36454525D01*
X143605000Y-36048740D01*
X144565000Y-36048740D01*
X144565000Y-36341260D01*
X144622068Y-36628158D01*
X144734010Y-36898411D01*
X144896525Y-37141632D01*
X145103368Y-37348475D01*
X145346589Y-37510990D01*
X145616842Y-37622932D01*
X145903740Y-37680000D01*
X146196260Y-37680000D01*
X146483158Y-37622932D01*
X146753411Y-37510990D01*
X146996632Y-37348475D01*
X147203475Y-37141632D01*
X147365990Y-36898411D01*
X147477932Y-36628158D01*
X147535000Y-36341260D01*
X147535000Y-36048740D01*
X147477932Y-35761842D01*
X147365990Y-35491589D01*
X147203475Y-35248368D01*
X146996632Y-35041525D01*
X146753411Y-34879010D01*
X146483158Y-34767068D01*
X146196260Y-34710000D01*
X145903740Y-34710000D01*
X145616842Y-34767068D01*
X145346589Y-34879010D01*
X145103368Y-35041525D01*
X144896525Y-35248368D01*
X144734010Y-35491589D01*
X144622068Y-35761842D01*
X144565000Y-36048740D01*
X143605000Y-36048740D01*
X143605000Y-35935475D01*
X143503739Y-35426399D01*
X143305107Y-34946859D01*
X143016738Y-34515285D01*
X142916453Y-34415000D01*
X155916852Y-34415000D01*
X155942463Y-34476831D01*
X156098261Y-34710000D01*
X156063740Y-34710000D01*
X155776842Y-34767068D01*
X155506589Y-34879010D01*
X155263368Y-35041525D01*
X155056525Y-35248368D01*
X154894010Y-35491589D01*
X154782068Y-35761842D01*
X154725000Y-36048740D01*
X154725000Y-36341260D01*
X154782068Y-36628158D01*
X154894010Y-36898411D01*
X155056525Y-37141632D01*
X155263368Y-37348475D01*
X155506589Y-37510990D01*
X155776842Y-37622932D01*
X156063740Y-37680000D01*
X156356260Y-37680000D01*
X156643158Y-37622932D01*
X156913411Y-37510990D01*
X157156632Y-37348475D01*
X157363475Y-37141632D01*
X157525990Y-36898411D01*
X157637932Y-36628158D01*
X157695000Y-36341260D01*
X157695000Y-36048740D01*
X157637932Y-35761842D01*
X157525990Y-35491589D01*
X157458110Y-35390000D01*
X157650883Y-35390000D01*
X157986081Y-35323325D01*
X158301831Y-35192537D01*
X158585998Y-35002663D01*
X158827663Y-34760998D01*
X159017537Y-34476831D01*
X159148325Y-34161081D01*
X159211118Y-33845400D01*
X160076848Y-33845400D01*
X160041859Y-33859893D01*
X159610285Y-34148262D01*
X159243262Y-34515285D01*
X158954893Y-34946859D01*
X158756261Y-35426399D01*
X158655000Y-35935475D01*
X158655000Y-36454525D01*
X158756261Y-36963601D01*
X158954893Y-37443141D01*
X159243262Y-37874715D01*
X159610285Y-38241738D01*
X160041859Y-38530107D01*
X160521399Y-38728739D01*
X161030475Y-38830000D01*
X161549525Y-38830000D01*
X162058601Y-38728739D01*
X162538141Y-38530107D01*
X162969715Y-38241738D01*
X163336738Y-37874715D01*
X163625107Y-37443141D01*
X163823739Y-36963601D01*
X163925000Y-36454525D01*
X163925000Y-35935475D01*
X163823739Y-35426399D01*
X163625107Y-34946859D01*
X163336738Y-34515285D01*
X162969715Y-34148262D01*
X162538141Y-33859893D01*
X162503152Y-33845400D01*
X167104300Y-33845400D01*
X167104300Y-33962639D01*
X167142601Y-34155192D01*
X167142601Y-34925241D01*
X167073411Y-34879010D01*
X166803158Y-34767068D01*
X166516260Y-34710000D01*
X166223740Y-34710000D01*
X165936842Y-34767068D01*
X165666589Y-34879010D01*
X165423368Y-35041525D01*
X165216525Y-35248368D01*
X165054010Y-35491589D01*
X164942068Y-35761842D01*
X164885000Y-36048740D01*
X164885000Y-36341260D01*
X164942068Y-36628158D01*
X165054010Y-36898411D01*
X165216525Y-37141632D01*
X165423368Y-37348475D01*
X165666589Y-37510990D01*
X165763752Y-37551236D01*
X163920500Y-39394488D01*
X163521499Y-38995487D01*
X163496128Y-38964572D01*
X163372789Y-38863351D01*
X163232073Y-38788137D01*
X163079388Y-38741820D01*
X162960391Y-38730100D01*
X162960388Y-38730100D01*
X162920600Y-38726181D01*
X162880812Y-38730100D01*
X162276787Y-38730100D01*
X162236999Y-38726181D01*
X162197211Y-38730100D01*
X162197209Y-38730100D01*
X162078212Y-38741820D01*
X161925527Y-38788137D01*
X161860024Y-38823149D01*
X161784810Y-38863351D01*
X161741221Y-38899124D01*
X161661472Y-38964572D01*
X161636105Y-38995482D01*
X161075088Y-39556500D01*
X154646591Y-39556500D01*
X154606800Y-39552581D01*
X154448012Y-39568220D01*
X154295326Y-39614537D01*
X154205033Y-39662800D01*
X154154611Y-39689751D01*
X154031272Y-39790972D01*
X154005907Y-39821880D01*
X149883127Y-43944661D01*
X149834180Y-43918498D01*
X149714482Y-43882188D01*
X149590000Y-43869928D01*
X147590000Y-43869928D01*
X147465518Y-43882188D01*
X147345820Y-43918498D01*
X147288968Y-43948886D01*
X147264189Y-43928551D01*
X147123473Y-43853337D01*
X146970788Y-43807020D01*
X146851791Y-43795300D01*
X146851788Y-43795300D01*
X146812000Y-43791381D01*
X146772212Y-43795300D01*
X146597796Y-43795300D01*
X146570526Y-43658202D01*
X146492505Y-43469844D01*
X146379237Y-43300326D01*
X146235074Y-43156163D01*
X146065556Y-43042895D01*
X145877198Y-42964874D01*
X145677239Y-42925100D01*
X145473361Y-42925100D01*
X145273402Y-42964874D01*
X145085044Y-43042895D01*
X144915526Y-43156163D01*
X144771363Y-43300326D01*
X144658095Y-43469844D01*
X144580074Y-43658202D01*
X144552804Y-43795300D01*
X134633191Y-43795300D01*
X134593400Y-43791381D01*
X134553609Y-43795300D01*
X131188072Y-43795300D01*
X131188072Y-42180000D01*
X131175812Y-42055518D01*
X131139502Y-41935820D01*
X131112844Y-41885947D01*
X131143803Y-41783886D01*
X131154800Y-41672233D01*
X131154800Y-41672224D01*
X131158476Y-41634901D01*
X131154800Y-41597578D01*
X131154800Y-40586311D01*
X131198737Y-40542374D01*
X131312005Y-40372856D01*
X131390026Y-40184498D01*
X131429800Y-39984539D01*
X131429800Y-39780661D01*
X131390026Y-39580702D01*
X131312005Y-39392344D01*
X131198737Y-39222826D01*
X131178016Y-39202105D01*
X131188072Y-39100000D01*
X131188072Y-37100000D01*
X131175812Y-36975518D01*
X131139502Y-36855820D01*
X131080537Y-36745506D01*
X131001185Y-36648815D01*
X130904494Y-36569463D01*
X130794180Y-36510498D01*
X130674482Y-36474188D01*
X130550000Y-36461928D01*
X129800000Y-36461928D01*
X129675518Y-36474188D01*
X129555820Y-36510498D01*
X129445506Y-36569463D01*
X129348815Y-36648815D01*
X129269463Y-36745506D01*
X129210498Y-36855820D01*
X129174188Y-36975518D01*
X129161928Y-37100000D01*
X129161928Y-39100000D01*
X129174188Y-39224482D01*
X129210498Y-39344180D01*
X129269463Y-39454494D01*
X129348815Y-39551185D01*
X129397498Y-39591138D01*
X129359800Y-39780661D01*
X129359800Y-39984539D01*
X129399574Y-40184498D01*
X129477595Y-40372856D01*
X129590863Y-40542374D01*
X129634801Y-40586312D01*
X129634800Y-41314942D01*
X129611202Y-41343697D01*
X129611201Y-41343698D01*
X129540026Y-41430424D01*
X129469454Y-41562454D01*
X129443061Y-41649463D01*
X129442251Y-41652134D01*
X129348815Y-41728815D01*
X129269463Y-41825506D01*
X129210498Y-41935820D01*
X129174188Y-42055518D01*
X129161928Y-42180000D01*
X129161928Y-43795300D01*
X128902072Y-43795300D01*
X128902072Y-42180000D01*
X128889812Y-42055518D01*
X128853502Y-41935820D01*
X128794537Y-41825506D01*
X128715185Y-41728815D01*
X128699000Y-41715532D01*
X128699000Y-39564468D01*
X128715185Y-39551185D01*
X128794537Y-39454494D01*
X128853502Y-39344180D01*
X128889812Y-39224482D01*
X128902072Y-39100000D01*
X128902072Y-37100000D01*
X128889812Y-36975518D01*
X128853502Y-36855820D01*
X128794537Y-36745506D01*
X128715185Y-36648815D01*
X128699000Y-36635532D01*
X128699000Y-35754468D01*
X128715185Y-35741185D01*
X128794537Y-35644494D01*
X128853502Y-35534180D01*
X128889812Y-35414482D01*
X128902072Y-35290000D01*
X128902072Y-33290000D01*
X128889812Y-33165518D01*
X128853502Y-33045820D01*
X128794537Y-32935506D01*
X128715185Y-32838815D01*
X128699000Y-32825532D01*
X128699000Y-30674468D01*
X128715185Y-30661185D01*
X128794537Y-30564494D01*
X128853502Y-30454180D01*
X128889812Y-30334482D01*
X128902072Y-30210000D01*
X128902072Y-28210000D01*
X129161928Y-28210000D01*
X129161928Y-30210000D01*
X129174188Y-30334482D01*
X129210498Y-30454180D01*
X129224804Y-30480944D01*
X129208874Y-30519402D01*
X129169100Y-30719361D01*
X129169100Y-30923239D01*
X129208874Y-31123198D01*
X129286895Y-31311556D01*
X129400163Y-31481074D01*
X129415000Y-31495911D01*
X129415001Y-32784498D01*
X129348815Y-32838815D01*
X129269463Y-32935506D01*
X129210498Y-33045820D01*
X129174188Y-33165518D01*
X129161928Y-33290000D01*
X129161928Y-35290000D01*
X129174188Y-35414482D01*
X129210498Y-35534180D01*
X129269463Y-35644494D01*
X129348815Y-35741185D01*
X129445506Y-35820537D01*
X129555820Y-35879502D01*
X129675518Y-35915812D01*
X129800000Y-35928072D01*
X130550000Y-35928072D01*
X130674482Y-35915812D01*
X130794180Y-35879502D01*
X130904494Y-35820537D01*
X131001185Y-35741185D01*
X131080537Y-35644494D01*
X131139502Y-35534180D01*
X131175812Y-35414482D01*
X131188072Y-35290000D01*
X131188072Y-33290000D01*
X131175812Y-33165518D01*
X131139502Y-33045820D01*
X131080537Y-32935506D01*
X131001185Y-32838815D01*
X130935000Y-32784499D01*
X130935000Y-31554111D01*
X131008037Y-31481074D01*
X131121305Y-31311556D01*
X131199326Y-31123198D01*
X131234947Y-30944117D01*
X141775000Y-30944117D01*
X141775000Y-31285883D01*
X141841675Y-31621081D01*
X141972463Y-31936831D01*
X142162337Y-32220998D01*
X142404002Y-32462663D01*
X142688169Y-32652537D01*
X143003919Y-32783325D01*
X143339117Y-32850000D01*
X143680883Y-32850000D01*
X144016081Y-32783325D01*
X144331831Y-32652537D01*
X144615998Y-32462663D01*
X144857663Y-32220998D01*
X145047537Y-31936831D01*
X145178325Y-31621081D01*
X145245000Y-31285883D01*
X145245000Y-30944117D01*
X145178325Y-30608919D01*
X145047537Y-30293169D01*
X144857663Y-30009002D01*
X144615998Y-29767337D01*
X144331831Y-29577463D01*
X144016081Y-29446675D01*
X143680883Y-29380000D01*
X143339117Y-29380000D01*
X143003919Y-29446675D01*
X142688169Y-29577463D01*
X142404002Y-29767337D01*
X142162337Y-30009002D01*
X141972463Y-30293169D01*
X141841675Y-30608919D01*
X141775000Y-30944117D01*
X131234947Y-30944117D01*
X131239100Y-30923239D01*
X131239100Y-30719361D01*
X131199326Y-30519402D01*
X131153371Y-30408459D01*
X131175812Y-30334482D01*
X131188072Y-30210000D01*
X131188072Y-28210000D01*
X131175812Y-28085518D01*
X131139502Y-27965820D01*
X131080537Y-27855506D01*
X131001185Y-27758815D01*
X130904494Y-27679463D01*
X130794180Y-27620498D01*
X130674482Y-27584188D01*
X130550000Y-27571928D01*
X129800000Y-27571928D01*
X129675518Y-27584188D01*
X129555820Y-27620498D01*
X129445506Y-27679463D01*
X129348815Y-27758815D01*
X129269463Y-27855506D01*
X129210498Y-27965820D01*
X129174188Y-28085518D01*
X129161928Y-28210000D01*
X128902072Y-28210000D01*
X128889812Y-28085518D01*
X128853502Y-27965820D01*
X128794537Y-27855506D01*
X128715185Y-27758815D01*
X128618494Y-27679463D01*
X128508180Y-27620498D01*
X128388482Y-27584188D01*
X128264000Y-27571928D01*
X127514000Y-27571928D01*
X127389518Y-27584188D01*
X127269820Y-27620498D01*
X127159506Y-27679463D01*
X127062815Y-27758815D01*
X126983463Y-27855506D01*
X126924498Y-27965820D01*
X126888188Y-28085518D01*
X126875928Y-28210000D01*
X126492000Y-28210000D01*
X126492000Y-27992606D01*
X127687606Y-26797000D01*
X189177394Y-26797000D01*
X190373000Y-27992606D01*
M02*
