G04 #@! TF.GenerationSoftware,KiCad,Pcbnew,(5.1.5)-3*
G04 #@! TF.CreationDate,2020-09-04T17:37:12+09:00*
G04 #@! TF.ProjectId,futureKeyboardLeft,66757475-7265-44b6-9579-626f6172644c,rev?*
G04 #@! TF.SameCoordinates,Original*
G04 #@! TF.FileFunction,Legend,Top*
G04 #@! TF.FilePolarity,Positive*
%FSLAX46Y46*%
G04 Gerber Fmt 4.6, Leading zero omitted, Abs format (unit mm)*
G04 Created by KiCad (PCBNEW (5.1.5)-3) date 2020-09-04 17:37:12*
%MOMM*%
%LPD*%
G04 APERTURE LIST*
%ADD10C,0.120000*%
%ADD11C,0.150000*%
G04 APERTURE END LIST*
D10*
X133985000Y-43180000D02*
X133985000Y-29210000D01*
X147955000Y-43180000D02*
X133985000Y-43180000D01*
X147955000Y-29210000D02*
X147955000Y-43180000D01*
X133985000Y-29210000D02*
X147955000Y-29210000D01*
X133985000Y-63500000D02*
X133985000Y-49530000D01*
X147955000Y-63500000D02*
X133985000Y-63500000D01*
X147955000Y-49530000D02*
X147955000Y-63500000D01*
X133985000Y-49530000D02*
X147955000Y-49530000D01*
X133985000Y-69850000D02*
X147955000Y-69850000D01*
X147955000Y-69850000D02*
X147955000Y-83820000D01*
X147955000Y-83820000D02*
X133985000Y-83820000D01*
X133985000Y-83820000D02*
X133985000Y-69850000D01*
X133985000Y-90170000D02*
X147955000Y-90170000D01*
X147955000Y-90170000D02*
X147955000Y-104140000D01*
X147955000Y-104140000D02*
X133985000Y-104140000D01*
X133985000Y-104140000D02*
X133985000Y-90170000D01*
X154305000Y-29210000D02*
X168275000Y-29210000D01*
X168275000Y-29210000D02*
X168275000Y-43180000D01*
X168275000Y-43180000D02*
X154305000Y-43180000D01*
X154305000Y-43180000D02*
X154305000Y-29210000D01*
X154305000Y-49530000D02*
X168275000Y-49530000D01*
X168275000Y-49530000D02*
X168275000Y-63500000D01*
X168275000Y-63500000D02*
X154305000Y-63500000D01*
X154305000Y-63500000D02*
X154305000Y-49530000D01*
X154305000Y-83820000D02*
X154305000Y-69850000D01*
X168275000Y-83820000D02*
X154305000Y-83820000D01*
X168275000Y-69850000D02*
X168275000Y-83820000D01*
X154305000Y-69850000D02*
X168275000Y-69850000D01*
X154305000Y-104140000D02*
X154305000Y-90170000D01*
X168275000Y-104140000D02*
X154305000Y-104140000D01*
X168275000Y-90170000D02*
X168275000Y-104140000D01*
X154305000Y-90170000D02*
X168275000Y-90170000D01*
X174625000Y-29210000D02*
X188595000Y-29210000D01*
X188595000Y-29210000D02*
X188595000Y-43180000D01*
X188595000Y-43180000D02*
X174625000Y-43180000D01*
X174625000Y-43180000D02*
X174625000Y-29210000D01*
X174625000Y-49530000D02*
X188595000Y-49530000D01*
X188595000Y-49530000D02*
X188595000Y-63500000D01*
X188595000Y-63500000D02*
X174625000Y-63500000D01*
X174625000Y-63500000D02*
X174625000Y-49530000D01*
X174625000Y-83820000D02*
X174625000Y-69850000D01*
X188595000Y-83820000D02*
X174625000Y-83820000D01*
X188595000Y-69850000D02*
X188595000Y-83820000D01*
X174625000Y-69850000D02*
X188595000Y-69850000D01*
X174625000Y-104140000D02*
X174625000Y-90170000D01*
X188595000Y-104140000D02*
X174625000Y-104140000D01*
X188595000Y-90170000D02*
X188595000Y-104140000D01*
X174625000Y-90170000D02*
X188595000Y-90170000D01*
D11*
X128397000Y-34290000D02*
X129667000Y-34290000D01*
X130429000Y-33020000D02*
X130429000Y-30480000D01*
X127635000Y-30480000D02*
X127635000Y-33020000D01*
X128397000Y-29210000D02*
X129667000Y-29210000D01*
X128651000Y-33274000D02*
X129413000Y-33274000D01*
X129413000Y-33274000D02*
X129667000Y-33020000D01*
X129667000Y-33020000D02*
X129667000Y-30480000D01*
X129667000Y-30480000D02*
X129413000Y-30226000D01*
X129413000Y-30226000D02*
X128651000Y-30226000D01*
X128651000Y-30226000D02*
X128397000Y-30480000D01*
X128397000Y-30480000D02*
X128397000Y-33020000D01*
X128397000Y-33020000D02*
X128651000Y-33274000D01*
X128397000Y-41910000D02*
X128651000Y-42164000D01*
X128397000Y-39370000D02*
X128397000Y-41910000D01*
X128651000Y-39116000D02*
X128397000Y-39370000D01*
X129413000Y-39116000D02*
X128651000Y-39116000D01*
X129667000Y-39370000D02*
X129413000Y-39116000D01*
X129667000Y-41910000D02*
X129667000Y-39370000D01*
X129413000Y-42164000D02*
X129667000Y-41910000D01*
X128651000Y-42164000D02*
X129413000Y-42164000D01*
X128397000Y-38100000D02*
X129667000Y-38100000D01*
X127635000Y-39370000D02*
X127635000Y-41910000D01*
X130429000Y-41910000D02*
X130429000Y-39370000D01*
X128397000Y-43180000D02*
X129667000Y-43180000D01*
X148590000Y-45466000D02*
X148590000Y-47625000D01*
X153670000Y-45466000D02*
X153670000Y-47625000D01*
X152549903Y-46355000D02*
G75*
G03X152549903Y-46355000I-1419903J0D01*
G01*
X153670000Y-46990000D02*
X151765000Y-48895000D01*
X153670000Y-44196000D02*
X148590000Y-44196000D01*
X148590000Y-48895000D02*
X153670000Y-48895000D01*
X168910000Y-48895000D02*
X173990000Y-48895000D01*
X173990000Y-44196000D02*
X168910000Y-44196000D01*
X173990000Y-46990000D02*
X172085000Y-48895000D01*
X172869903Y-46355000D02*
G75*
G03X172869903Y-46355000I-1419903J0D01*
G01*
X173990000Y-45466000D02*
X173990000Y-47625000D01*
X168910000Y-45466000D02*
X168910000Y-47625000D01*
X168725000Y-89535000D02*
X173805000Y-89535000D01*
X173805000Y-84836000D02*
X168725000Y-84836000D01*
X173805000Y-87630000D02*
X171900000Y-89535000D01*
X172684903Y-86995000D02*
G75*
G03X172684903Y-86995000I-1419903J0D01*
G01*
X173805000Y-86106000D02*
X173805000Y-88265000D01*
X168725000Y-86106000D02*
X168725000Y-88265000D01*
X148590000Y-86106000D02*
X148590000Y-88265000D01*
X153670000Y-86106000D02*
X153670000Y-88265000D01*
X152549903Y-86995000D02*
G75*
G03X152549903Y-86995000I-1419903J0D01*
G01*
X153670000Y-87630000D02*
X151765000Y-89535000D01*
X153670000Y-84836000D02*
X148590000Y-84836000D01*
X148590000Y-89535000D02*
X153670000Y-89535000D01*
X139160476Y-28725761D02*
X139303333Y-28773380D01*
X139541428Y-28773380D01*
X139636666Y-28725761D01*
X139684285Y-28678142D01*
X139731904Y-28582904D01*
X139731904Y-28487666D01*
X139684285Y-28392428D01*
X139636666Y-28344809D01*
X139541428Y-28297190D01*
X139350952Y-28249571D01*
X139255714Y-28201952D01*
X139208095Y-28154333D01*
X139160476Y-28059095D01*
X139160476Y-27963857D01*
X139208095Y-27868619D01*
X139255714Y-27821000D01*
X139350952Y-27773380D01*
X139589047Y-27773380D01*
X139731904Y-27821000D01*
X140065238Y-27773380D02*
X140303333Y-28773380D01*
X140493809Y-28059095D01*
X140684285Y-28773380D01*
X140922380Y-27773380D01*
X141827142Y-28773380D02*
X141255714Y-28773380D01*
X141541428Y-28773380D02*
X141541428Y-27773380D01*
X141446190Y-27916238D01*
X141350952Y-28011476D01*
X141255714Y-28059095D01*
X142208095Y-27868619D02*
X142255714Y-27821000D01*
X142350952Y-27773380D01*
X142589047Y-27773380D01*
X142684285Y-27821000D01*
X142731904Y-27868619D01*
X142779523Y-27963857D01*
X142779523Y-28059095D01*
X142731904Y-28201952D01*
X142160476Y-28773380D01*
X142779523Y-28773380D01*
X139160476Y-49045761D02*
X139303333Y-49093380D01*
X139541428Y-49093380D01*
X139636666Y-49045761D01*
X139684285Y-48998142D01*
X139731904Y-48902904D01*
X139731904Y-48807666D01*
X139684285Y-48712428D01*
X139636666Y-48664809D01*
X139541428Y-48617190D01*
X139350952Y-48569571D01*
X139255714Y-48521952D01*
X139208095Y-48474333D01*
X139160476Y-48379095D01*
X139160476Y-48283857D01*
X139208095Y-48188619D01*
X139255714Y-48141000D01*
X139350952Y-48093380D01*
X139589047Y-48093380D01*
X139731904Y-48141000D01*
X140065238Y-48093380D02*
X140303333Y-49093380D01*
X140493809Y-48379095D01*
X140684285Y-49093380D01*
X140922380Y-48093380D01*
X141827142Y-49093380D02*
X141255714Y-49093380D01*
X141541428Y-49093380D02*
X141541428Y-48093380D01*
X141446190Y-48236238D01*
X141350952Y-48331476D01*
X141255714Y-48379095D01*
X142160476Y-48093380D02*
X142779523Y-48093380D01*
X142446190Y-48474333D01*
X142589047Y-48474333D01*
X142684285Y-48521952D01*
X142731904Y-48569571D01*
X142779523Y-48664809D01*
X142779523Y-48902904D01*
X142731904Y-48998142D01*
X142684285Y-49045761D01*
X142589047Y-49093380D01*
X142303333Y-49093380D01*
X142208095Y-49045761D01*
X142160476Y-48998142D01*
X139160476Y-69365761D02*
X139303333Y-69413380D01*
X139541428Y-69413380D01*
X139636666Y-69365761D01*
X139684285Y-69318142D01*
X139731904Y-69222904D01*
X139731904Y-69127666D01*
X139684285Y-69032428D01*
X139636666Y-68984809D01*
X139541428Y-68937190D01*
X139350952Y-68889571D01*
X139255714Y-68841952D01*
X139208095Y-68794333D01*
X139160476Y-68699095D01*
X139160476Y-68603857D01*
X139208095Y-68508619D01*
X139255714Y-68461000D01*
X139350952Y-68413380D01*
X139589047Y-68413380D01*
X139731904Y-68461000D01*
X140065238Y-68413380D02*
X140303333Y-69413380D01*
X140493809Y-68699095D01*
X140684285Y-69413380D01*
X140922380Y-68413380D01*
X141827142Y-69413380D02*
X141255714Y-69413380D01*
X141541428Y-69413380D02*
X141541428Y-68413380D01*
X141446190Y-68556238D01*
X141350952Y-68651476D01*
X141255714Y-68699095D01*
X142684285Y-68746714D02*
X142684285Y-69413380D01*
X142446190Y-68365761D02*
X142208095Y-69080047D01*
X142827142Y-69080047D01*
X139160476Y-89685761D02*
X139303333Y-89733380D01*
X139541428Y-89733380D01*
X139636666Y-89685761D01*
X139684285Y-89638142D01*
X139731904Y-89542904D01*
X139731904Y-89447666D01*
X139684285Y-89352428D01*
X139636666Y-89304809D01*
X139541428Y-89257190D01*
X139350952Y-89209571D01*
X139255714Y-89161952D01*
X139208095Y-89114333D01*
X139160476Y-89019095D01*
X139160476Y-88923857D01*
X139208095Y-88828619D01*
X139255714Y-88781000D01*
X139350952Y-88733380D01*
X139589047Y-88733380D01*
X139731904Y-88781000D01*
X140065238Y-88733380D02*
X140303333Y-89733380D01*
X140493809Y-89019095D01*
X140684285Y-89733380D01*
X140922380Y-88733380D01*
X141827142Y-89733380D02*
X141255714Y-89733380D01*
X141541428Y-89733380D02*
X141541428Y-88733380D01*
X141446190Y-88876238D01*
X141350952Y-88971476D01*
X141255714Y-89019095D01*
X142731904Y-88733380D02*
X142255714Y-88733380D01*
X142208095Y-89209571D01*
X142255714Y-89161952D01*
X142350952Y-89114333D01*
X142589047Y-89114333D01*
X142684285Y-89161952D01*
X142731904Y-89209571D01*
X142779523Y-89304809D01*
X142779523Y-89542904D01*
X142731904Y-89638142D01*
X142684285Y-89685761D01*
X142589047Y-89733380D01*
X142350952Y-89733380D01*
X142255714Y-89685761D01*
X142208095Y-89638142D01*
X159480476Y-28725761D02*
X159623333Y-28773380D01*
X159861428Y-28773380D01*
X159956666Y-28725761D01*
X160004285Y-28678142D01*
X160051904Y-28582904D01*
X160051904Y-28487666D01*
X160004285Y-28392428D01*
X159956666Y-28344809D01*
X159861428Y-28297190D01*
X159670952Y-28249571D01*
X159575714Y-28201952D01*
X159528095Y-28154333D01*
X159480476Y-28059095D01*
X159480476Y-27963857D01*
X159528095Y-27868619D01*
X159575714Y-27821000D01*
X159670952Y-27773380D01*
X159909047Y-27773380D01*
X160051904Y-27821000D01*
X160385238Y-27773380D02*
X160623333Y-28773380D01*
X160813809Y-28059095D01*
X161004285Y-28773380D01*
X161242380Y-27773380D01*
X162147142Y-28773380D02*
X161575714Y-28773380D01*
X161861428Y-28773380D02*
X161861428Y-27773380D01*
X161766190Y-27916238D01*
X161670952Y-28011476D01*
X161575714Y-28059095D01*
X163004285Y-27773380D02*
X162813809Y-27773380D01*
X162718571Y-27821000D01*
X162670952Y-27868619D01*
X162575714Y-28011476D01*
X162528095Y-28201952D01*
X162528095Y-28582904D01*
X162575714Y-28678142D01*
X162623333Y-28725761D01*
X162718571Y-28773380D01*
X162909047Y-28773380D01*
X163004285Y-28725761D01*
X163051904Y-28678142D01*
X163099523Y-28582904D01*
X163099523Y-28344809D01*
X163051904Y-28249571D01*
X163004285Y-28201952D01*
X162909047Y-28154333D01*
X162718571Y-28154333D01*
X162623333Y-28201952D01*
X162575714Y-28249571D01*
X162528095Y-28344809D01*
X159480476Y-49045761D02*
X159623333Y-49093380D01*
X159861428Y-49093380D01*
X159956666Y-49045761D01*
X160004285Y-48998142D01*
X160051904Y-48902904D01*
X160051904Y-48807666D01*
X160004285Y-48712428D01*
X159956666Y-48664809D01*
X159861428Y-48617190D01*
X159670952Y-48569571D01*
X159575714Y-48521952D01*
X159528095Y-48474333D01*
X159480476Y-48379095D01*
X159480476Y-48283857D01*
X159528095Y-48188619D01*
X159575714Y-48141000D01*
X159670952Y-48093380D01*
X159909047Y-48093380D01*
X160051904Y-48141000D01*
X160385238Y-48093380D02*
X160623333Y-49093380D01*
X160813809Y-48379095D01*
X161004285Y-49093380D01*
X161242380Y-48093380D01*
X162147142Y-49093380D02*
X161575714Y-49093380D01*
X161861428Y-49093380D02*
X161861428Y-48093380D01*
X161766190Y-48236238D01*
X161670952Y-48331476D01*
X161575714Y-48379095D01*
X162480476Y-48093380D02*
X163147142Y-48093380D01*
X162718571Y-49093380D01*
X159480476Y-69365761D02*
X159623333Y-69413380D01*
X159861428Y-69413380D01*
X159956666Y-69365761D01*
X160004285Y-69318142D01*
X160051904Y-69222904D01*
X160051904Y-69127666D01*
X160004285Y-69032428D01*
X159956666Y-68984809D01*
X159861428Y-68937190D01*
X159670952Y-68889571D01*
X159575714Y-68841952D01*
X159528095Y-68794333D01*
X159480476Y-68699095D01*
X159480476Y-68603857D01*
X159528095Y-68508619D01*
X159575714Y-68461000D01*
X159670952Y-68413380D01*
X159909047Y-68413380D01*
X160051904Y-68461000D01*
X160385238Y-68413380D02*
X160623333Y-69413380D01*
X160813809Y-68699095D01*
X161004285Y-69413380D01*
X161242380Y-68413380D01*
X162147142Y-69413380D02*
X161575714Y-69413380D01*
X161861428Y-69413380D02*
X161861428Y-68413380D01*
X161766190Y-68556238D01*
X161670952Y-68651476D01*
X161575714Y-68699095D01*
X162718571Y-68841952D02*
X162623333Y-68794333D01*
X162575714Y-68746714D01*
X162528095Y-68651476D01*
X162528095Y-68603857D01*
X162575714Y-68508619D01*
X162623333Y-68461000D01*
X162718571Y-68413380D01*
X162909047Y-68413380D01*
X163004285Y-68461000D01*
X163051904Y-68508619D01*
X163099523Y-68603857D01*
X163099523Y-68651476D01*
X163051904Y-68746714D01*
X163004285Y-68794333D01*
X162909047Y-68841952D01*
X162718571Y-68841952D01*
X162623333Y-68889571D01*
X162575714Y-68937190D01*
X162528095Y-69032428D01*
X162528095Y-69222904D01*
X162575714Y-69318142D01*
X162623333Y-69365761D01*
X162718571Y-69413380D01*
X162909047Y-69413380D01*
X163004285Y-69365761D01*
X163051904Y-69318142D01*
X163099523Y-69222904D01*
X163099523Y-69032428D01*
X163051904Y-68937190D01*
X163004285Y-68889571D01*
X162909047Y-68841952D01*
X159480476Y-89685761D02*
X159623333Y-89733380D01*
X159861428Y-89733380D01*
X159956666Y-89685761D01*
X160004285Y-89638142D01*
X160051904Y-89542904D01*
X160051904Y-89447666D01*
X160004285Y-89352428D01*
X159956666Y-89304809D01*
X159861428Y-89257190D01*
X159670952Y-89209571D01*
X159575714Y-89161952D01*
X159528095Y-89114333D01*
X159480476Y-89019095D01*
X159480476Y-88923857D01*
X159528095Y-88828619D01*
X159575714Y-88781000D01*
X159670952Y-88733380D01*
X159909047Y-88733380D01*
X160051904Y-88781000D01*
X160385238Y-88733380D02*
X160623333Y-89733380D01*
X160813809Y-89019095D01*
X161004285Y-89733380D01*
X161242380Y-88733380D01*
X162147142Y-89733380D02*
X161575714Y-89733380D01*
X161861428Y-89733380D02*
X161861428Y-88733380D01*
X161766190Y-88876238D01*
X161670952Y-88971476D01*
X161575714Y-89019095D01*
X162623333Y-89733380D02*
X162813809Y-89733380D01*
X162909047Y-89685761D01*
X162956666Y-89638142D01*
X163051904Y-89495285D01*
X163099523Y-89304809D01*
X163099523Y-88923857D01*
X163051904Y-88828619D01*
X163004285Y-88781000D01*
X162909047Y-88733380D01*
X162718571Y-88733380D01*
X162623333Y-88781000D01*
X162575714Y-88828619D01*
X162528095Y-88923857D01*
X162528095Y-89161952D01*
X162575714Y-89257190D01*
X162623333Y-89304809D01*
X162718571Y-89352428D01*
X162909047Y-89352428D01*
X163004285Y-89304809D01*
X163051904Y-89257190D01*
X163099523Y-89161952D01*
X179800476Y-28725761D02*
X179943333Y-28773380D01*
X180181428Y-28773380D01*
X180276666Y-28725761D01*
X180324285Y-28678142D01*
X180371904Y-28582904D01*
X180371904Y-28487666D01*
X180324285Y-28392428D01*
X180276666Y-28344809D01*
X180181428Y-28297190D01*
X179990952Y-28249571D01*
X179895714Y-28201952D01*
X179848095Y-28154333D01*
X179800476Y-28059095D01*
X179800476Y-27963857D01*
X179848095Y-27868619D01*
X179895714Y-27821000D01*
X179990952Y-27773380D01*
X180229047Y-27773380D01*
X180371904Y-27821000D01*
X180705238Y-27773380D02*
X180943333Y-28773380D01*
X181133809Y-28059095D01*
X181324285Y-28773380D01*
X181562380Y-27773380D01*
X181895714Y-27868619D02*
X181943333Y-27821000D01*
X182038571Y-27773380D01*
X182276666Y-27773380D01*
X182371904Y-27821000D01*
X182419523Y-27868619D01*
X182467142Y-27963857D01*
X182467142Y-28059095D01*
X182419523Y-28201952D01*
X181848095Y-28773380D01*
X182467142Y-28773380D01*
X183086190Y-27773380D02*
X183181428Y-27773380D01*
X183276666Y-27821000D01*
X183324285Y-27868619D01*
X183371904Y-27963857D01*
X183419523Y-28154333D01*
X183419523Y-28392428D01*
X183371904Y-28582904D01*
X183324285Y-28678142D01*
X183276666Y-28725761D01*
X183181428Y-28773380D01*
X183086190Y-28773380D01*
X182990952Y-28725761D01*
X182943333Y-28678142D01*
X182895714Y-28582904D01*
X182848095Y-28392428D01*
X182848095Y-28154333D01*
X182895714Y-27963857D01*
X182943333Y-27868619D01*
X182990952Y-27821000D01*
X183086190Y-27773380D01*
X179800476Y-49045761D02*
X179943333Y-49093380D01*
X180181428Y-49093380D01*
X180276666Y-49045761D01*
X180324285Y-48998142D01*
X180371904Y-48902904D01*
X180371904Y-48807666D01*
X180324285Y-48712428D01*
X180276666Y-48664809D01*
X180181428Y-48617190D01*
X179990952Y-48569571D01*
X179895714Y-48521952D01*
X179848095Y-48474333D01*
X179800476Y-48379095D01*
X179800476Y-48283857D01*
X179848095Y-48188619D01*
X179895714Y-48141000D01*
X179990952Y-48093380D01*
X180229047Y-48093380D01*
X180371904Y-48141000D01*
X180705238Y-48093380D02*
X180943333Y-49093380D01*
X181133809Y-48379095D01*
X181324285Y-49093380D01*
X181562380Y-48093380D01*
X181895714Y-48188619D02*
X181943333Y-48141000D01*
X182038571Y-48093380D01*
X182276666Y-48093380D01*
X182371904Y-48141000D01*
X182419523Y-48188619D01*
X182467142Y-48283857D01*
X182467142Y-48379095D01*
X182419523Y-48521952D01*
X181848095Y-49093380D01*
X182467142Y-49093380D01*
X183419523Y-49093380D02*
X182848095Y-49093380D01*
X183133809Y-49093380D02*
X183133809Y-48093380D01*
X183038571Y-48236238D01*
X182943333Y-48331476D01*
X182848095Y-48379095D01*
X179800476Y-69365761D02*
X179943333Y-69413380D01*
X180181428Y-69413380D01*
X180276666Y-69365761D01*
X180324285Y-69318142D01*
X180371904Y-69222904D01*
X180371904Y-69127666D01*
X180324285Y-69032428D01*
X180276666Y-68984809D01*
X180181428Y-68937190D01*
X179990952Y-68889571D01*
X179895714Y-68841952D01*
X179848095Y-68794333D01*
X179800476Y-68699095D01*
X179800476Y-68603857D01*
X179848095Y-68508619D01*
X179895714Y-68461000D01*
X179990952Y-68413380D01*
X180229047Y-68413380D01*
X180371904Y-68461000D01*
X180705238Y-68413380D02*
X180943333Y-69413380D01*
X181133809Y-68699095D01*
X181324285Y-69413380D01*
X181562380Y-68413380D01*
X181895714Y-68508619D02*
X181943333Y-68461000D01*
X182038571Y-68413380D01*
X182276666Y-68413380D01*
X182371904Y-68461000D01*
X182419523Y-68508619D01*
X182467142Y-68603857D01*
X182467142Y-68699095D01*
X182419523Y-68841952D01*
X181848095Y-69413380D01*
X182467142Y-69413380D01*
X182848095Y-68508619D02*
X182895714Y-68461000D01*
X182990952Y-68413380D01*
X183229047Y-68413380D01*
X183324285Y-68461000D01*
X183371904Y-68508619D01*
X183419523Y-68603857D01*
X183419523Y-68699095D01*
X183371904Y-68841952D01*
X182800476Y-69413380D01*
X183419523Y-69413380D01*
X179800476Y-89685761D02*
X179943333Y-89733380D01*
X180181428Y-89733380D01*
X180276666Y-89685761D01*
X180324285Y-89638142D01*
X180371904Y-89542904D01*
X180371904Y-89447666D01*
X180324285Y-89352428D01*
X180276666Y-89304809D01*
X180181428Y-89257190D01*
X179990952Y-89209571D01*
X179895714Y-89161952D01*
X179848095Y-89114333D01*
X179800476Y-89019095D01*
X179800476Y-88923857D01*
X179848095Y-88828619D01*
X179895714Y-88781000D01*
X179990952Y-88733380D01*
X180229047Y-88733380D01*
X180371904Y-88781000D01*
X180705238Y-88733380D02*
X180943333Y-89733380D01*
X181133809Y-89019095D01*
X181324285Y-89733380D01*
X181562380Y-88733380D01*
X181895714Y-88828619D02*
X181943333Y-88781000D01*
X182038571Y-88733380D01*
X182276666Y-88733380D01*
X182371904Y-88781000D01*
X182419523Y-88828619D01*
X182467142Y-88923857D01*
X182467142Y-89019095D01*
X182419523Y-89161952D01*
X181848095Y-89733380D01*
X182467142Y-89733380D01*
X182800476Y-88733380D02*
X183419523Y-88733380D01*
X183086190Y-89114333D01*
X183229047Y-89114333D01*
X183324285Y-89161952D01*
X183371904Y-89209571D01*
X183419523Y-89304809D01*
X183419523Y-89542904D01*
X183371904Y-89638142D01*
X183324285Y-89685761D01*
X183229047Y-89733380D01*
X182943333Y-89733380D01*
X182848095Y-89685761D01*
X182800476Y-89638142D01*
X131849761Y-33559523D02*
X131897380Y-33416666D01*
X131897380Y-33178571D01*
X131849761Y-33083333D01*
X131802142Y-33035714D01*
X131706904Y-32988095D01*
X131611666Y-32988095D01*
X131516428Y-33035714D01*
X131468809Y-33083333D01*
X131421190Y-33178571D01*
X131373571Y-33369047D01*
X131325952Y-33464285D01*
X131278333Y-33511904D01*
X131183095Y-33559523D01*
X131087857Y-33559523D01*
X130992619Y-33511904D01*
X130945000Y-33464285D01*
X130897380Y-33369047D01*
X130897380Y-33130952D01*
X130945000Y-32988095D01*
X130897380Y-32654761D02*
X131897380Y-32416666D01*
X131183095Y-32226190D01*
X131897380Y-32035714D01*
X130897380Y-31797619D01*
X130992619Y-31464285D02*
X130945000Y-31416666D01*
X130897380Y-31321428D01*
X130897380Y-31083333D01*
X130945000Y-30988095D01*
X130992619Y-30940476D01*
X131087857Y-30892857D01*
X131183095Y-30892857D01*
X131325952Y-30940476D01*
X131897380Y-31511904D01*
X131897380Y-30892857D01*
X131230714Y-30035714D02*
X131897380Y-30035714D01*
X130849761Y-30273809D02*
X131564047Y-30511904D01*
X131564047Y-29892857D01*
X131849761Y-42449523D02*
X131897380Y-42306666D01*
X131897380Y-42068571D01*
X131849761Y-41973333D01*
X131802142Y-41925714D01*
X131706904Y-41878095D01*
X131611666Y-41878095D01*
X131516428Y-41925714D01*
X131468809Y-41973333D01*
X131421190Y-42068571D01*
X131373571Y-42259047D01*
X131325952Y-42354285D01*
X131278333Y-42401904D01*
X131183095Y-42449523D01*
X131087857Y-42449523D01*
X130992619Y-42401904D01*
X130945000Y-42354285D01*
X130897380Y-42259047D01*
X130897380Y-42020952D01*
X130945000Y-41878095D01*
X130897380Y-41544761D02*
X131897380Y-41306666D01*
X131183095Y-41116190D01*
X131897380Y-40925714D01*
X130897380Y-40687619D01*
X130992619Y-40354285D02*
X130945000Y-40306666D01*
X130897380Y-40211428D01*
X130897380Y-39973333D01*
X130945000Y-39878095D01*
X130992619Y-39830476D01*
X131087857Y-39782857D01*
X131183095Y-39782857D01*
X131325952Y-39830476D01*
X131897380Y-40401904D01*
X131897380Y-39782857D01*
X130897380Y-38878095D02*
X130897380Y-39354285D01*
X131373571Y-39401904D01*
X131325952Y-39354285D01*
X131278333Y-39259047D01*
X131278333Y-39020952D01*
X131325952Y-38925714D01*
X131373571Y-38878095D01*
X131468809Y-38830476D01*
X131706904Y-38830476D01*
X131802142Y-38878095D01*
X131849761Y-38925714D01*
X131897380Y-39020952D01*
X131897380Y-39259047D01*
X131849761Y-39354285D01*
X131802142Y-39401904D01*
X150391904Y-50617380D02*
X150391904Y-49617380D01*
X150630000Y-49617380D01*
X150772857Y-49665000D01*
X150868095Y-49760238D01*
X150915714Y-49855476D01*
X150963333Y-50045952D01*
X150963333Y-50188809D01*
X150915714Y-50379285D01*
X150868095Y-50474523D01*
X150772857Y-50569761D01*
X150630000Y-50617380D01*
X150391904Y-50617380D01*
X151296666Y-49617380D02*
X151963333Y-49617380D01*
X151534761Y-50617380D01*
X170711904Y-50617380D02*
X170711904Y-49617380D01*
X170950000Y-49617380D01*
X171092857Y-49665000D01*
X171188095Y-49760238D01*
X171235714Y-49855476D01*
X171283333Y-50045952D01*
X171283333Y-50188809D01*
X171235714Y-50379285D01*
X171188095Y-50474523D01*
X171092857Y-50569761D01*
X170950000Y-50617380D01*
X170711904Y-50617380D01*
X171854761Y-50045952D02*
X171759523Y-49998333D01*
X171711904Y-49950714D01*
X171664285Y-49855476D01*
X171664285Y-49807857D01*
X171711904Y-49712619D01*
X171759523Y-49665000D01*
X171854761Y-49617380D01*
X172045238Y-49617380D01*
X172140476Y-49665000D01*
X172188095Y-49712619D01*
X172235714Y-49807857D01*
X172235714Y-49855476D01*
X172188095Y-49950714D01*
X172140476Y-49998333D01*
X172045238Y-50045952D01*
X171854761Y-50045952D01*
X171759523Y-50093571D01*
X171711904Y-50141190D01*
X171664285Y-50236428D01*
X171664285Y-50426904D01*
X171711904Y-50522142D01*
X171759523Y-50569761D01*
X171854761Y-50617380D01*
X172045238Y-50617380D01*
X172140476Y-50569761D01*
X172188095Y-50522142D01*
X172235714Y-50426904D01*
X172235714Y-50236428D01*
X172188095Y-50141190D01*
X172140476Y-50093571D01*
X172045238Y-50045952D01*
X170526904Y-91257380D02*
X170526904Y-90257380D01*
X170765000Y-90257380D01*
X170907857Y-90305000D01*
X171003095Y-90400238D01*
X171050714Y-90495476D01*
X171098333Y-90685952D01*
X171098333Y-90828809D01*
X171050714Y-91019285D01*
X171003095Y-91114523D01*
X170907857Y-91209761D01*
X170765000Y-91257380D01*
X170526904Y-91257380D01*
X171574523Y-91257380D02*
X171765000Y-91257380D01*
X171860238Y-91209761D01*
X171907857Y-91162142D01*
X172003095Y-91019285D01*
X172050714Y-90828809D01*
X172050714Y-90447857D01*
X172003095Y-90352619D01*
X171955476Y-90305000D01*
X171860238Y-90257380D01*
X171669761Y-90257380D01*
X171574523Y-90305000D01*
X171526904Y-90352619D01*
X171479285Y-90447857D01*
X171479285Y-90685952D01*
X171526904Y-90781190D01*
X171574523Y-90828809D01*
X171669761Y-90876428D01*
X171860238Y-90876428D01*
X171955476Y-90828809D01*
X172003095Y-90781190D01*
X172050714Y-90685952D01*
X149915714Y-91257380D02*
X149915714Y-90257380D01*
X150153809Y-90257380D01*
X150296666Y-90305000D01*
X150391904Y-90400238D01*
X150439523Y-90495476D01*
X150487142Y-90685952D01*
X150487142Y-90828809D01*
X150439523Y-91019285D01*
X150391904Y-91114523D01*
X150296666Y-91209761D01*
X150153809Y-91257380D01*
X149915714Y-91257380D01*
X151439523Y-91257380D02*
X150868095Y-91257380D01*
X151153809Y-91257380D02*
X151153809Y-90257380D01*
X151058571Y-90400238D01*
X150963333Y-90495476D01*
X150868095Y-90543095D01*
X152058571Y-90257380D02*
X152153809Y-90257380D01*
X152249047Y-90305000D01*
X152296666Y-90352619D01*
X152344285Y-90447857D01*
X152391904Y-90638333D01*
X152391904Y-90876428D01*
X152344285Y-91066904D01*
X152296666Y-91162142D01*
X152249047Y-91209761D01*
X152153809Y-91257380D01*
X152058571Y-91257380D01*
X151963333Y-91209761D01*
X151915714Y-91162142D01*
X151868095Y-91066904D01*
X151820476Y-90876428D01*
X151820476Y-90638333D01*
X151868095Y-90447857D01*
X151915714Y-90352619D01*
X151963333Y-90305000D01*
X152058571Y-90257380D01*
M02*
