M48
; DRILL file {KiCad (5.1.5)-3} date 2020/09/04 17:37:15
; FORMAT={-:-/ absolute / inch / decimal}
; #@! TF.CreationDate,2020-09-04T17:37:15+09:00
; #@! TF.GenerationSoftware,Kicad,Pcbnew,(5.1.5)-3
FMAT,2
INCH
T1C0.0157
T2C0.0295
T3C0.0300
T4C0.0354
T5C0.0591
T6C0.0669
T7C0.1575
%
G90
G05
T1
X5.1261Y-1.2134
X5.1337Y-1.5702
X5.6888Y-1.9223
X5.7313Y-1.7307
X6.4007Y-1.5892
X6.6197Y-1.3331
T2
X6.275Y-2.575
X6.275Y-2.625
X6.275Y-2.675
T3
X5.85Y-2.6266
X6.05Y-2.6266
T4
X5.8Y-2.375
X6.1Y-2.375
T5
X7.0Y-2.925
X7.25Y-2.825
X6.2Y-3.725
X6.45Y-3.625
X5.4Y-2.925
X5.65Y-2.825
X5.4Y-3.725
X5.65Y-3.625
X6.2Y-2.925
X6.45Y-2.825
X7.0Y-3.725
X7.25Y-3.625
X7.0Y-2.125
X7.25Y-2.025
X6.2Y-1.325
X6.45Y-1.225
X5.4Y-2.125
X5.65Y-2.025
X5.4Y-1.325
X5.65Y-1.225
X7.0Y-1.325
X7.25Y-1.225
X6.2Y-2.125
X6.45Y-2.025
T6
X6.15Y-1.425
X6.55Y-1.425
X5.35Y-2.225
X5.75Y-2.225
X5.35Y-1.425
X5.75Y-1.425
X6.95Y-1.425
X7.35Y-1.425
X6.15Y-2.225
X6.55Y-2.225
X6.95Y-3.025
X7.35Y-3.025
X6.15Y-3.825
X6.55Y-3.825
X5.35Y-3.025
X5.75Y-3.025
X5.35Y-3.825
X5.75Y-3.825
X6.15Y-3.025
X6.55Y-3.025
X6.95Y-3.825
X7.35Y-3.825
X6.95Y-2.225
X7.35Y-2.225
T7
X6.35Y-3.825
X7.15Y-2.225
X6.35Y-1.425
X6.35Y-2.225
X7.15Y-3.025
X5.55Y-3.825
X6.35Y-3.025
X7.15Y-3.825
X5.55Y-2.225
X5.55Y-1.425
X7.15Y-1.425
X5.55Y-3.025
T0
M30
