G04 #@! TF.GenerationSoftware,KiCad,Pcbnew,(5.1.5)-3*
G04 #@! TF.CreationDate,2020-09-04T17:37:12+09:00*
G04 #@! TF.ProjectId,futureKeyboardLeft,66757475-7265-44b6-9579-626f6172644c,rev?*
G04 #@! TF.SameCoordinates,Original*
G04 #@! TF.FileFunction,Copper,L2,Bot*
G04 #@! TF.FilePolarity,Positive*
%FSLAX46Y46*%
G04 Gerber Fmt 4.6, Leading zero omitted, Abs format (unit mm)*
G04 Created by KiCad (PCBNEW (5.1.5)-3) date 2020-09-04 17:37:12*
%MOMM*%
%LPD*%
G04 APERTURE LIST*
%ADD10R,1.800000X1.800000*%
%ADD11O,1.800000X1.800000*%
%ADD12C,1.524000*%
%ADD13O,1.500000X1.050000*%
%ADD14R,1.500000X1.050000*%
%ADD15R,1.200000X0.800000*%
%ADD16R,0.800000X1.200000*%
%ADD17C,2.200000*%
%ADD18R,2.510000X1.000000*%
%ADD19C,0.800000*%
%ADD20C,0.250000*%
%ADD21C,0.350000*%
%ADD22C,0.254000*%
G04 APERTURE END LIST*
D10*
X154940000Y-60325000D03*
D11*
X147320000Y-60325000D03*
D12*
X153670000Y-66715000D03*
X148590000Y-66715000D03*
D13*
X159385000Y-66675000D03*
X159385000Y-67945000D03*
D14*
X159385000Y-65405000D03*
D15*
X150114000Y-57785000D03*
X152146000Y-57785000D03*
D16*
X189865000Y-33909000D03*
X189865000Y-35941000D03*
X189865000Y-56261000D03*
X189865000Y-54229000D03*
X189865000Y-74549000D03*
X189865000Y-76581000D03*
X189865000Y-96901000D03*
X189865000Y-94869000D03*
X131445000Y-30734000D03*
X131445000Y-32766000D03*
X131445000Y-41656000D03*
X131445000Y-39624000D03*
D17*
X137160000Y-33655000D03*
X143510000Y-31115000D03*
X137160000Y-53975000D03*
X143510000Y-51435000D03*
X143510000Y-71755000D03*
X137160000Y-74295000D03*
X143510000Y-92075000D03*
X137160000Y-94615000D03*
X163830000Y-31115000D03*
X157480000Y-33655000D03*
X163830000Y-51435000D03*
X157480000Y-53975000D03*
X157480000Y-74295000D03*
X163830000Y-71755000D03*
X157480000Y-94615000D03*
X163830000Y-92075000D03*
X184150000Y-31115000D03*
X177800000Y-33655000D03*
X184150000Y-51435000D03*
X177800000Y-53975000D03*
X177800000Y-74295000D03*
X184150000Y-71755000D03*
X177800000Y-94615000D03*
X184150000Y-92075000D03*
D18*
X169795000Y-61595000D03*
X169795000Y-56515000D03*
X169795000Y-51435000D03*
X169795000Y-46355000D03*
X169795000Y-41275000D03*
X169795000Y-36195000D03*
X169795000Y-31115000D03*
X173105000Y-64135000D03*
X173105000Y-59055000D03*
X173105000Y-53975000D03*
X173105000Y-48895000D03*
X173105000Y-43815000D03*
X173105000Y-38735000D03*
X173105000Y-33655000D03*
X173105000Y-28575000D03*
X140585000Y-50165000D03*
X140585000Y-45085000D03*
X143895000Y-47625000D03*
X143895000Y-42545000D03*
D19*
X168139300Y-33860700D03*
X145575300Y-43960100D03*
X162578700Y-40365400D03*
X144495300Y-48825500D03*
X130394800Y-39882600D03*
X130204100Y-30821300D03*
D20*
X148545300Y-60325000D02*
X150114000Y-58756300D01*
X150114000Y-58756300D02*
X150114000Y-57785000D01*
X148545300Y-60325000D02*
X148545300Y-66670300D01*
X148545300Y-66670300D02*
X148590000Y-66715000D01*
X147320000Y-60325000D02*
X148545300Y-60325000D01*
D21*
X145297900Y-49904300D02*
X145297900Y-50111600D01*
X145297900Y-50111600D02*
X152146000Y-56959700D01*
X145575300Y-43960100D02*
X145575300Y-49626900D01*
X145575300Y-49626900D02*
X145297900Y-49904300D01*
X145297900Y-49904300D02*
X142526000Y-49904300D01*
X142526000Y-49904300D02*
X142265300Y-50165000D01*
X152146000Y-57785000D02*
X152146000Y-56959700D01*
X140585000Y-50165000D02*
X142265300Y-50165000D01*
X145575300Y-42545000D02*
X145575300Y-43960100D01*
X173105000Y-28575000D02*
X169938900Y-28575000D01*
X169938900Y-28575000D02*
X168045900Y-30468000D01*
X168045900Y-30468000D02*
X168045900Y-33767300D01*
X168045900Y-33767300D02*
X168139300Y-33860700D01*
X173105000Y-64135000D02*
X171424700Y-64135000D01*
X152146000Y-57785000D02*
X152146000Y-62293600D01*
X152146000Y-62293600D02*
X158749500Y-68897100D01*
X158749500Y-68897100D02*
X166662600Y-68897100D01*
X166662600Y-68897100D02*
X171424700Y-64135000D01*
X143895000Y-42545000D02*
X145575300Y-42545000D01*
D20*
X168214700Y-36195000D02*
X164044300Y-40365400D01*
X164044300Y-40365400D02*
X162578700Y-40365400D01*
X169795000Y-36195000D02*
X168214700Y-36195000D01*
D21*
X188210900Y-58940400D02*
X177152000Y-58940400D01*
X177152000Y-58940400D02*
X173796400Y-55584800D01*
X173796400Y-55584800D02*
X168295300Y-55584800D01*
X168295300Y-55584800D02*
X168114700Y-55765400D01*
X168114700Y-55765400D02*
X168114700Y-61595000D01*
X189865000Y-57286300D02*
X188210900Y-58940400D01*
X188210900Y-58940400D02*
X190690300Y-61419800D01*
X190690300Y-61419800D02*
X190690300Y-76581000D01*
X169795000Y-61595000D02*
X168114700Y-61595000D01*
X159385000Y-65405000D02*
X164304700Y-65405000D01*
X164304700Y-65405000D02*
X168114700Y-61595000D01*
X189865000Y-96901000D02*
X190690300Y-96901000D01*
X190690300Y-76581000D02*
X190690300Y-96901000D01*
X190690300Y-35941000D02*
X190690300Y-33100400D01*
X190690300Y-33100400D02*
X186668200Y-29078300D01*
X186668200Y-29078300D02*
X180219500Y-29078300D01*
X180219500Y-29078300D02*
X178182800Y-31115000D01*
X178182800Y-31115000D02*
X169795000Y-31115000D01*
X190540200Y-35941000D02*
X190690300Y-35941000D01*
X189865000Y-35941000D02*
X190540200Y-35941000D01*
X189865000Y-56773600D02*
X190690300Y-55948300D01*
X190690300Y-55948300D02*
X190690300Y-35941000D01*
X189865000Y-56773600D02*
X189865000Y-57286300D01*
X189865000Y-56261000D02*
X189865000Y-56773600D01*
X189865000Y-76581000D02*
X190690300Y-76581000D01*
X140585000Y-45085000D02*
X142265300Y-45085000D01*
X143594900Y-47625000D02*
X142265300Y-46295400D01*
X142265300Y-46295400D02*
X142265300Y-45085000D01*
X143594900Y-47625000D02*
X143294800Y-47625000D01*
X143895000Y-47625000D02*
X143594900Y-47625000D01*
X131445000Y-41656000D02*
X132270300Y-41656000D01*
X140585000Y-45085000D02*
X135699300Y-45085000D01*
X135699300Y-45085000D02*
X132270300Y-41656000D01*
X131445000Y-32766000D02*
X130619700Y-32766000D01*
X131445000Y-41656000D02*
X130619700Y-41656000D01*
X130619700Y-41656000D02*
X129566400Y-40602700D01*
X129566400Y-40602700D02*
X129566400Y-33819300D01*
X129566400Y-33819300D02*
X130619700Y-32766000D01*
X143294800Y-47625000D02*
X144495300Y-48825500D01*
D20*
X169795000Y-56515000D02*
X171375300Y-56515000D01*
X171475000Y-58221500D02*
X171475000Y-59727200D01*
X171475000Y-59727200D02*
X174735300Y-62987500D01*
X174735300Y-62987500D02*
X174735300Y-64790400D01*
X174735300Y-64790400D02*
X169796500Y-69729200D01*
X169796500Y-69729200D02*
X162045800Y-69729200D01*
X162045800Y-69729200D02*
X157480000Y-74295000D01*
X171375300Y-56515000D02*
X171375300Y-58121800D01*
X171375300Y-58121800D02*
X171475000Y-58221500D01*
X171475000Y-58221500D02*
X174512900Y-58221500D01*
X174512900Y-58221500D02*
X181787900Y-65496500D01*
X181787900Y-65496500D02*
X181787900Y-70307100D01*
X181787900Y-70307100D02*
X177800000Y-74295000D01*
X189139700Y-74549000D02*
X184897800Y-70307100D01*
X184897800Y-70307100D02*
X181787900Y-70307100D01*
X189865000Y-74549000D02*
X189139700Y-74549000D01*
X177800000Y-33655000D02*
X181770800Y-29684200D01*
X181770800Y-29684200D02*
X184914900Y-29684200D01*
X184914900Y-29684200D02*
X189139700Y-33909000D01*
X171375300Y-51435000D02*
X171375300Y-48398700D01*
X171375300Y-48398700D02*
X173877900Y-45896100D01*
X173877900Y-45896100D02*
X174639200Y-45896100D01*
X174639200Y-45896100D02*
X177800000Y-42735300D01*
X177800000Y-42735300D02*
X177800000Y-33655000D01*
X189865000Y-33909000D02*
X189139700Y-33909000D01*
X169795000Y-51435000D02*
X171375300Y-51435000D01*
X169795000Y-46355000D02*
X168214700Y-46355000D01*
X168214700Y-46355000D02*
X168214700Y-47050300D01*
X168214700Y-47050300D02*
X163830000Y-51435000D01*
X170274900Y-46355000D02*
X169795000Y-46355000D01*
X171375300Y-46355000D02*
X173012400Y-44717900D01*
X173012400Y-44717900D02*
X174441300Y-44717900D01*
X174441300Y-44717900D02*
X174685300Y-44473900D01*
X174685300Y-44473900D02*
X174685300Y-37998000D01*
X174685300Y-37998000D02*
X171323400Y-34636100D01*
X171323400Y-34636100D02*
X167351100Y-34636100D01*
X167351100Y-34636100D02*
X163830000Y-31115000D01*
X170274900Y-46355000D02*
X171375300Y-46355000D01*
X163830000Y-92075000D02*
X163830000Y-71755000D01*
X131445000Y-39624000D02*
X132170300Y-39624000D01*
X169795000Y-41275000D02*
X168214700Y-41275000D01*
X168214700Y-41275000D02*
X167899800Y-41589900D01*
X167899800Y-41589900D02*
X134136200Y-41589900D01*
X134136200Y-41589900D02*
X132170300Y-39624000D01*
X130394800Y-39882600D02*
X130653400Y-39624000D01*
X130653400Y-39624000D02*
X131445000Y-39624000D01*
X175213900Y-92028900D02*
X177800000Y-94615000D01*
X174685300Y-59055000D02*
X175213900Y-59583600D01*
X175213900Y-59583600D02*
X175213900Y-92028900D01*
X157480000Y-94615000D02*
X172627800Y-94615000D01*
X172627800Y-94615000D02*
X175213900Y-92028900D01*
X173105000Y-59055000D02*
X174685300Y-59055000D01*
X189865000Y-94869000D02*
X189139700Y-94869000D01*
X177800000Y-94615000D02*
X188885700Y-94615000D01*
X188885700Y-94615000D02*
X189139700Y-94869000D01*
X157480000Y-53975000D02*
X173105000Y-53975000D01*
X189865000Y-54229000D02*
X189139700Y-54229000D01*
X177800000Y-53975000D02*
X188885700Y-53975000D01*
X188885700Y-53975000D02*
X189139700Y-54229000D01*
X173105000Y-53975000D02*
X177800000Y-53975000D01*
X181610000Y-48895000D02*
X184150000Y-51435000D01*
X173105000Y-48895000D02*
X181610000Y-48895000D01*
X184150000Y-31115000D02*
X184150000Y-46355000D01*
X184150000Y-46355000D02*
X181610000Y-48895000D01*
X184150000Y-92075000D02*
X184150000Y-71755000D01*
X171524700Y-43815000D02*
X171524700Y-40724200D01*
X171524700Y-40724200D02*
X171239700Y-40439200D01*
X171239700Y-40439200D02*
X164770000Y-40439200D01*
X164770000Y-40439200D02*
X164118300Y-41090900D01*
X164118300Y-41090900D02*
X153485900Y-41090900D01*
X153485900Y-41090900D02*
X143510000Y-31115000D01*
X173105000Y-43815000D02*
X171524700Y-43815000D01*
X143510000Y-51435000D02*
X139516000Y-51435000D01*
X139516000Y-51435000D02*
X128998200Y-40917200D01*
X128998200Y-40917200D02*
X128998200Y-33556900D01*
X128998200Y-33556900D02*
X130883400Y-31671700D01*
X130883400Y-31671700D02*
X142953300Y-31671700D01*
X142953300Y-31671700D02*
X143510000Y-31115000D01*
X143510000Y-51435000D02*
X143510000Y-71755000D01*
X143510000Y-71755000D02*
X143510000Y-92075000D01*
X131445000Y-30734000D02*
X132170300Y-30734000D01*
X173105000Y-38735000D02*
X171524700Y-38735000D01*
X171524700Y-38735000D02*
X171524700Y-35687200D01*
X171524700Y-35687200D02*
X170923900Y-35086400D01*
X170923900Y-35086400D02*
X166994600Y-35086400D01*
X166994600Y-35086400D02*
X164803800Y-32895600D01*
X164803800Y-32895600D02*
X159843400Y-32895600D01*
X159843400Y-32895600D02*
X156613400Y-29665600D01*
X156613400Y-29665600D02*
X133238700Y-29665600D01*
X133238700Y-29665600D02*
X132170300Y-30734000D01*
X131445000Y-30734000D02*
X130291400Y-30734000D01*
X130291400Y-30734000D02*
X130204100Y-30821300D01*
X173105000Y-33655000D02*
X174685300Y-33655000D01*
X174685300Y-33655000D02*
X175135700Y-34105400D01*
X175135700Y-34105400D02*
X175135700Y-44672700D01*
X175135700Y-44672700D02*
X174640100Y-45168300D01*
X174640100Y-45168300D02*
X173775800Y-45168300D01*
X173775800Y-45168300D02*
X166083700Y-52860400D01*
X166083700Y-52860400D02*
X160156000Y-52860400D01*
X160156000Y-52860400D02*
X159829200Y-52533600D01*
X159829200Y-52533600D02*
X156896000Y-52533600D01*
X156896000Y-52533600D02*
X156009600Y-53420000D01*
X156009600Y-53420000D02*
X156009600Y-54603500D01*
X156009600Y-54603500D02*
X158256700Y-56850600D01*
X158256700Y-56850600D02*
X158256700Y-66994000D01*
X158256700Y-66994000D02*
X159207700Y-67945000D01*
X159207700Y-67945000D02*
X159385000Y-67945000D01*
D22*
G36*
X190373000Y-27992606D02*
G01*
X190373000Y-32681565D01*
X190265000Y-32670928D01*
X189465000Y-32670928D01*
X189340518Y-32683188D01*
X189220820Y-32719498D01*
X189110506Y-32778463D01*
X189095929Y-32790426D01*
X185478704Y-29173203D01*
X185454901Y-29144199D01*
X185339176Y-29049226D01*
X185207147Y-28978654D01*
X185063886Y-28935197D01*
X184952233Y-28924200D01*
X184952222Y-28924200D01*
X184914900Y-28920524D01*
X184877578Y-28924200D01*
X181808122Y-28924200D01*
X181770799Y-28920524D01*
X181733476Y-28924200D01*
X181733467Y-28924200D01*
X181621814Y-28935197D01*
X181478553Y-28978654D01*
X181346524Y-29049226D01*
X181230799Y-29144199D01*
X181207001Y-29173197D01*
X178367912Y-32012286D01*
X178306081Y-31986675D01*
X177970883Y-31920000D01*
X177629117Y-31920000D01*
X177293919Y-31986675D01*
X176978169Y-32117463D01*
X176694002Y-32307337D01*
X176452337Y-32549002D01*
X176262463Y-32833169D01*
X176131675Y-33148919D01*
X176065000Y-33484117D01*
X176065000Y-33825883D01*
X176131675Y-34161081D01*
X176262463Y-34476831D01*
X176418261Y-34710000D01*
X176383740Y-34710000D01*
X176096842Y-34767068D01*
X175895700Y-34850383D01*
X175895700Y-34142725D01*
X175899376Y-34105400D01*
X175895700Y-34068075D01*
X175895700Y-34068067D01*
X175884703Y-33956414D01*
X175841246Y-33813153D01*
X175770674Y-33681124D01*
X175675701Y-33565399D01*
X175646698Y-33541597D01*
X175249104Y-33144003D01*
X175225301Y-33114999D01*
X175109576Y-33020026D01*
X174977547Y-32949454D01*
X174959567Y-32944000D01*
X174949502Y-32910820D01*
X174890537Y-32800506D01*
X174811185Y-32703815D01*
X174714494Y-32624463D01*
X174604180Y-32565498D01*
X174484482Y-32529188D01*
X174360000Y-32516928D01*
X171850000Y-32516928D01*
X171725518Y-32529188D01*
X171605820Y-32565498D01*
X171495506Y-32624463D01*
X171398815Y-32703815D01*
X171319463Y-32800506D01*
X171260498Y-32910820D01*
X171224188Y-33030518D01*
X171211928Y-33155000D01*
X171211928Y-33876100D01*
X169174300Y-33876100D01*
X169174300Y-33758761D01*
X169134526Y-33558802D01*
X169056505Y-33370444D01*
X168943237Y-33200926D01*
X168855900Y-33113589D01*
X168855900Y-32252071D01*
X169509250Y-32250000D01*
X169668000Y-32091250D01*
X169668000Y-31242000D01*
X169922000Y-31242000D01*
X169922000Y-32091250D01*
X170080750Y-32250000D01*
X171050000Y-32253072D01*
X171174482Y-32240812D01*
X171294180Y-32204502D01*
X171404494Y-32145537D01*
X171501185Y-32066185D01*
X171580537Y-31969494D01*
X171639502Y-31859180D01*
X171675812Y-31739482D01*
X171688072Y-31615000D01*
X171685000Y-31400750D01*
X171526250Y-31242000D01*
X169922000Y-31242000D01*
X169668000Y-31242000D01*
X169648000Y-31242000D01*
X169648000Y-30988000D01*
X169668000Y-30988000D01*
X169668000Y-30138750D01*
X169922000Y-30138750D01*
X169922000Y-30988000D01*
X171526250Y-30988000D01*
X171685000Y-30829250D01*
X171688072Y-30615000D01*
X171675812Y-30490518D01*
X171639502Y-30370820D01*
X171580537Y-30260506D01*
X171501185Y-30163815D01*
X171404494Y-30084463D01*
X171294180Y-30025498D01*
X171174482Y-29989188D01*
X171050000Y-29976928D01*
X170080750Y-29980000D01*
X169922000Y-30138750D01*
X169668000Y-30138750D01*
X169594331Y-30065081D01*
X170274413Y-29385000D01*
X171295680Y-29385000D01*
X171319463Y-29429494D01*
X171398815Y-29526185D01*
X171495506Y-29605537D01*
X171605820Y-29664502D01*
X171725518Y-29700812D01*
X171850000Y-29713072D01*
X174360000Y-29713072D01*
X174484482Y-29700812D01*
X174604180Y-29664502D01*
X174714494Y-29605537D01*
X174811185Y-29526185D01*
X174890537Y-29429494D01*
X174949502Y-29319180D01*
X174985812Y-29199482D01*
X174998072Y-29075000D01*
X174998072Y-28075000D01*
X174985812Y-27950518D01*
X174949502Y-27830820D01*
X174890537Y-27720506D01*
X174811185Y-27623815D01*
X174714494Y-27544463D01*
X174604180Y-27485498D01*
X174484482Y-27449188D01*
X174360000Y-27436928D01*
X171850000Y-27436928D01*
X171725518Y-27449188D01*
X171605820Y-27485498D01*
X171495506Y-27544463D01*
X171398815Y-27623815D01*
X171319463Y-27720506D01*
X171295680Y-27765000D01*
X169978687Y-27765000D01*
X169938899Y-27761081D01*
X169899111Y-27765000D01*
X169899109Y-27765000D01*
X169780112Y-27776720D01*
X169627427Y-27823037D01*
X169582206Y-27847208D01*
X169486710Y-27898251D01*
X169450504Y-27927965D01*
X169363372Y-27999472D01*
X169338005Y-28030382D01*
X167501287Y-29867101D01*
X167470372Y-29892472D01*
X167403465Y-29974000D01*
X167369151Y-30015811D01*
X167332456Y-30084463D01*
X167293937Y-30156528D01*
X167247620Y-30309213D01*
X167237240Y-30414603D01*
X167231981Y-30468000D01*
X167235900Y-30507788D01*
X167235901Y-33349782D01*
X167222095Y-33370444D01*
X167203980Y-33414177D01*
X165472714Y-31682912D01*
X165498325Y-31621081D01*
X165565000Y-31285883D01*
X165565000Y-30944117D01*
X165498325Y-30608919D01*
X165367537Y-30293169D01*
X165177663Y-30009002D01*
X164935998Y-29767337D01*
X164651831Y-29577463D01*
X164336081Y-29446675D01*
X164000883Y-29380000D01*
X163659117Y-29380000D01*
X163323919Y-29446675D01*
X163008169Y-29577463D01*
X162724002Y-29767337D01*
X162482337Y-30009002D01*
X162292463Y-30293169D01*
X162161675Y-30608919D01*
X162095000Y-30944117D01*
X162095000Y-31285883D01*
X162161675Y-31621081D01*
X162292463Y-31936831D01*
X162425276Y-32135600D01*
X160158202Y-32135600D01*
X157177204Y-29154603D01*
X157153401Y-29125599D01*
X157037676Y-29030626D01*
X156905647Y-28960054D01*
X156762386Y-28916597D01*
X156650733Y-28905600D01*
X156650722Y-28905600D01*
X156613400Y-28901924D01*
X156576078Y-28905600D01*
X133276025Y-28905600D01*
X133238700Y-28901924D01*
X133201375Y-28905600D01*
X133201367Y-28905600D01*
X133089714Y-28916597D01*
X132946453Y-28960054D01*
X132814424Y-29030626D01*
X132698699Y-29125599D01*
X132674901Y-29154597D01*
X132214072Y-29615427D01*
X132199494Y-29603463D01*
X132089180Y-29544498D01*
X131969482Y-29508188D01*
X131845000Y-29495928D01*
X131045000Y-29495928D01*
X130920518Y-29508188D01*
X130800820Y-29544498D01*
X130690506Y-29603463D01*
X130593815Y-29682815D01*
X130514463Y-29779506D01*
X130491150Y-29823121D01*
X130306039Y-29786300D01*
X130102161Y-29786300D01*
X129902202Y-29826074D01*
X129713844Y-29904095D01*
X129544326Y-30017363D01*
X129400163Y-30161526D01*
X129286895Y-30331044D01*
X129208874Y-30519402D01*
X129169100Y-30719361D01*
X129169100Y-30923239D01*
X129208874Y-31123198D01*
X129286895Y-31311556D01*
X129400163Y-31481074D01*
X129544326Y-31625237D01*
X129713844Y-31738505D01*
X129733607Y-31746691D01*
X128487198Y-32993101D01*
X128458200Y-33016899D01*
X128434402Y-33045897D01*
X128434401Y-33045898D01*
X128363226Y-33132624D01*
X128292654Y-33264654D01*
X128249198Y-33407915D01*
X128234524Y-33556900D01*
X128238201Y-33594232D01*
X128238200Y-40879878D01*
X128234524Y-40917200D01*
X128238200Y-40954522D01*
X128238200Y-40954532D01*
X128249197Y-41066185D01*
X128286210Y-41188203D01*
X128292654Y-41209446D01*
X128363226Y-41341476D01*
X128397424Y-41383146D01*
X128458199Y-41457201D01*
X128487203Y-41481004D01*
X138952205Y-51946008D01*
X138975999Y-51975001D01*
X139004992Y-51998795D01*
X139004996Y-51998799D01*
X139075685Y-52056811D01*
X139091724Y-52069974D01*
X139223753Y-52140546D01*
X139367014Y-52184003D01*
X139478667Y-52195000D01*
X139478676Y-52195000D01*
X139515999Y-52198676D01*
X139553322Y-52195000D01*
X141946852Y-52195000D01*
X141972463Y-52256831D01*
X142162337Y-52540998D01*
X142404002Y-52782663D01*
X142688169Y-52972537D01*
X142750000Y-52998148D01*
X142750000Y-54568547D01*
X142649715Y-54468262D01*
X142218141Y-54179893D01*
X141738601Y-53981261D01*
X141229525Y-53880000D01*
X140710475Y-53880000D01*
X140201399Y-53981261D01*
X139721859Y-54179893D01*
X139290285Y-54468262D01*
X138923262Y-54835285D01*
X138634893Y-55266859D01*
X138436261Y-55746399D01*
X138335000Y-56255475D01*
X138335000Y-56774525D01*
X138436261Y-57283601D01*
X138634893Y-57763141D01*
X138923262Y-58194715D01*
X139290285Y-58561738D01*
X139721859Y-58850107D01*
X140201399Y-59048739D01*
X140710475Y-59150000D01*
X141229525Y-59150000D01*
X141738601Y-59048739D01*
X142218141Y-58850107D01*
X142649715Y-58561738D01*
X142750000Y-58461453D01*
X142750001Y-70191851D01*
X142688169Y-70217463D01*
X142404002Y-70407337D01*
X142162337Y-70649002D01*
X141972463Y-70933169D01*
X141841675Y-71248919D01*
X141775000Y-71584117D01*
X141775000Y-71925883D01*
X141841675Y-72261081D01*
X141972463Y-72576831D01*
X142162337Y-72860998D01*
X142404002Y-73102663D01*
X142688169Y-73292537D01*
X142750000Y-73318148D01*
X142750000Y-74888547D01*
X142649715Y-74788262D01*
X142218141Y-74499893D01*
X141738601Y-74301261D01*
X141229525Y-74200000D01*
X140710475Y-74200000D01*
X140201399Y-74301261D01*
X139721859Y-74499893D01*
X139290285Y-74788262D01*
X138923262Y-75155285D01*
X138634893Y-75586859D01*
X138436261Y-76066399D01*
X138335000Y-76575475D01*
X138335000Y-77094525D01*
X138436261Y-77603601D01*
X138634893Y-78083141D01*
X138923262Y-78514715D01*
X139290285Y-78881738D01*
X139721859Y-79170107D01*
X140201399Y-79368739D01*
X140710475Y-79470000D01*
X141229525Y-79470000D01*
X141738601Y-79368739D01*
X142218141Y-79170107D01*
X142649715Y-78881738D01*
X142750000Y-78781453D01*
X142750001Y-90511851D01*
X142688169Y-90537463D01*
X142404002Y-90727337D01*
X142162337Y-90969002D01*
X141972463Y-91253169D01*
X141841675Y-91568919D01*
X141775000Y-91904117D01*
X141775000Y-92245883D01*
X141841675Y-92581081D01*
X141972463Y-92896831D01*
X142162337Y-93180998D01*
X142404002Y-93422663D01*
X142688169Y-93612537D01*
X143003919Y-93743325D01*
X143339117Y-93810000D01*
X143680883Y-93810000D01*
X144016081Y-93743325D01*
X144331831Y-93612537D01*
X144615998Y-93422663D01*
X144857663Y-93180998D01*
X145047537Y-92896831D01*
X145178325Y-92581081D01*
X145245000Y-92245883D01*
X145245000Y-91904117D01*
X145178325Y-91568919D01*
X145047537Y-91253169D01*
X144857663Y-90969002D01*
X144615998Y-90727337D01*
X144331831Y-90537463D01*
X144270000Y-90511852D01*
X144270000Y-76688740D01*
X144565000Y-76688740D01*
X144565000Y-76981260D01*
X144622068Y-77268158D01*
X144734010Y-77538411D01*
X144896525Y-77781632D01*
X145103368Y-77988475D01*
X145346589Y-78150990D01*
X145616842Y-78262932D01*
X145903740Y-78320000D01*
X146196260Y-78320000D01*
X146483158Y-78262932D01*
X146753411Y-78150990D01*
X146996632Y-77988475D01*
X147203475Y-77781632D01*
X147365990Y-77538411D01*
X147477932Y-77268158D01*
X147535000Y-76981260D01*
X147535000Y-76688740D01*
X147477932Y-76401842D01*
X147365990Y-76131589D01*
X147203475Y-75888368D01*
X146996632Y-75681525D01*
X146753411Y-75519010D01*
X146483158Y-75407068D01*
X146196260Y-75350000D01*
X145903740Y-75350000D01*
X145616842Y-75407068D01*
X145346589Y-75519010D01*
X145103368Y-75681525D01*
X144896525Y-75888368D01*
X144734010Y-76131589D01*
X144622068Y-76401842D01*
X144565000Y-76688740D01*
X144270000Y-76688740D01*
X144270000Y-73318148D01*
X144331831Y-73292537D01*
X144615998Y-73102663D01*
X144857663Y-72860998D01*
X145047537Y-72576831D01*
X145178325Y-72261081D01*
X145245000Y-71925883D01*
X145245000Y-71584117D01*
X145178325Y-71248919D01*
X145047537Y-70933169D01*
X144857663Y-70649002D01*
X144615998Y-70407337D01*
X144331831Y-70217463D01*
X144270000Y-70191852D01*
X144270000Y-56368740D01*
X144565000Y-56368740D01*
X144565000Y-56661260D01*
X144622068Y-56948158D01*
X144734010Y-57218411D01*
X144896525Y-57461632D01*
X145103368Y-57668475D01*
X145346589Y-57830990D01*
X145616842Y-57942932D01*
X145903740Y-58000000D01*
X146196260Y-58000000D01*
X146483158Y-57942932D01*
X146753411Y-57830990D01*
X146996632Y-57668475D01*
X147203475Y-57461632D01*
X147365990Y-57218411D01*
X147477932Y-56948158D01*
X147535000Y-56661260D01*
X147535000Y-56368740D01*
X147477932Y-56081842D01*
X147365990Y-55811589D01*
X147203475Y-55568368D01*
X146996632Y-55361525D01*
X146753411Y-55199010D01*
X146483158Y-55087068D01*
X146196260Y-55030000D01*
X145903740Y-55030000D01*
X145616842Y-55087068D01*
X145346589Y-55199010D01*
X145103368Y-55361525D01*
X144896525Y-55568368D01*
X144734010Y-55811589D01*
X144622068Y-56081842D01*
X144565000Y-56368740D01*
X144270000Y-56368740D01*
X144270000Y-52998148D01*
X144331831Y-52972537D01*
X144615998Y-52782663D01*
X144857663Y-52540998D01*
X145047537Y-52256831D01*
X145178325Y-51941081D01*
X145245000Y-51605883D01*
X145245000Y-51264117D01*
X145230125Y-51189338D01*
X150795768Y-56754981D01*
X150714000Y-56746928D01*
X149514000Y-56746928D01*
X149389518Y-56759188D01*
X149269820Y-56795498D01*
X149159506Y-56854463D01*
X149062815Y-56933815D01*
X148983463Y-57030506D01*
X148924498Y-57140820D01*
X148888188Y-57260518D01*
X148875928Y-57385000D01*
X148875928Y-58185000D01*
X148888188Y-58309482D01*
X148924498Y-58429180D01*
X148983463Y-58539494D01*
X149062815Y-58636185D01*
X149115816Y-58679682D01*
X148480658Y-59314841D01*
X148298505Y-59132688D01*
X148047095Y-58964701D01*
X147767743Y-58848989D01*
X147471184Y-58790000D01*
X147168816Y-58790000D01*
X146872257Y-58848989D01*
X146592905Y-58964701D01*
X146341495Y-59132688D01*
X146127688Y-59346495D01*
X145959701Y-59597905D01*
X145843989Y-59877257D01*
X145785000Y-60173816D01*
X145785000Y-60476184D01*
X145843989Y-60772743D01*
X145959701Y-61052095D01*
X146127688Y-61303505D01*
X146341495Y-61517312D01*
X146592905Y-61685299D01*
X146872257Y-61801011D01*
X147168816Y-61860000D01*
X147471184Y-61860000D01*
X147767743Y-61801011D01*
X147785300Y-61793739D01*
X147785301Y-65572526D01*
X147699465Y-65629880D01*
X147504880Y-65824465D01*
X147351995Y-66053273D01*
X147246686Y-66307510D01*
X147193000Y-66577408D01*
X147193000Y-66852592D01*
X147246686Y-67122490D01*
X147351995Y-67376727D01*
X147504880Y-67605535D01*
X147699465Y-67800120D01*
X147928273Y-67953005D01*
X148182510Y-68058314D01*
X148452408Y-68112000D01*
X148727592Y-68112000D01*
X148997490Y-68058314D01*
X149251727Y-67953005D01*
X149480535Y-67800120D01*
X149675120Y-67605535D01*
X149828005Y-67376727D01*
X149933314Y-67122490D01*
X149987000Y-66852592D01*
X149987000Y-66577408D01*
X149933314Y-66307510D01*
X149828005Y-66053273D01*
X149675120Y-65824465D01*
X149480535Y-65629880D01*
X149305300Y-65512791D01*
X149305300Y-60639801D01*
X150625004Y-59320098D01*
X150654001Y-59296301D01*
X150748974Y-59180576D01*
X150819546Y-59048547D01*
X150863003Y-58905286D01*
X150873350Y-58800235D01*
X150958180Y-58774502D01*
X151068494Y-58715537D01*
X151130000Y-58665060D01*
X151191506Y-58715537D01*
X151301820Y-58774502D01*
X151336000Y-58784870D01*
X151336001Y-62253802D01*
X151332081Y-62293600D01*
X151346305Y-62438010D01*
X151347240Y-62447499D01*
X151347721Y-62452387D01*
X151394038Y-62605073D01*
X151469251Y-62745789D01*
X151524852Y-62813539D01*
X151570473Y-62869128D01*
X151601383Y-62894495D01*
X154079340Y-65372452D01*
X154077490Y-65371686D01*
X153807592Y-65318000D01*
X153532408Y-65318000D01*
X153262510Y-65371686D01*
X153008273Y-65476995D01*
X152779465Y-65629880D01*
X152584880Y-65824465D01*
X152431995Y-66053273D01*
X152326686Y-66307510D01*
X152273000Y-66577408D01*
X152273000Y-66852592D01*
X152326686Y-67122490D01*
X152431995Y-67376727D01*
X152584880Y-67605535D01*
X152779465Y-67800120D01*
X153008273Y-67953005D01*
X153262510Y-68058314D01*
X153532408Y-68112000D01*
X153807592Y-68112000D01*
X154077490Y-68058314D01*
X154331727Y-67953005D01*
X154560535Y-67800120D01*
X154755120Y-67605535D01*
X154908005Y-67376727D01*
X155013314Y-67122490D01*
X155067000Y-66852592D01*
X155067000Y-66577408D01*
X155013314Y-66307510D01*
X155012548Y-66305660D01*
X158148605Y-69441718D01*
X158173972Y-69472628D01*
X158241710Y-69528219D01*
X158297310Y-69573849D01*
X158372524Y-69614051D01*
X158438027Y-69649063D01*
X158590712Y-69695380D01*
X158709709Y-69707100D01*
X158709711Y-69707100D01*
X158749499Y-69711019D01*
X158789287Y-69707100D01*
X160993098Y-69707100D01*
X158047912Y-72652286D01*
X157986081Y-72626675D01*
X157650883Y-72560000D01*
X157309117Y-72560000D01*
X156973919Y-72626675D01*
X156658169Y-72757463D01*
X156374002Y-72947337D01*
X156132337Y-73189002D01*
X155942463Y-73473169D01*
X155811675Y-73788919D01*
X155745000Y-74124117D01*
X155745000Y-74465883D01*
X155811675Y-74801081D01*
X155942463Y-75116831D01*
X156098261Y-75350000D01*
X156063740Y-75350000D01*
X155776842Y-75407068D01*
X155506589Y-75519010D01*
X155263368Y-75681525D01*
X155056525Y-75888368D01*
X154894010Y-76131589D01*
X154782068Y-76401842D01*
X154725000Y-76688740D01*
X154725000Y-76981260D01*
X154782068Y-77268158D01*
X154894010Y-77538411D01*
X155056525Y-77781632D01*
X155263368Y-77988475D01*
X155506589Y-78150990D01*
X155776842Y-78262932D01*
X156063740Y-78320000D01*
X156356260Y-78320000D01*
X156643158Y-78262932D01*
X156913411Y-78150990D01*
X157156632Y-77988475D01*
X157363475Y-77781632D01*
X157525990Y-77538411D01*
X157637932Y-77268158D01*
X157695000Y-76981260D01*
X157695000Y-76688740D01*
X157637932Y-76401842D01*
X157525990Y-76131589D01*
X157458110Y-76030000D01*
X157650883Y-76030000D01*
X157986081Y-75963325D01*
X158301831Y-75832537D01*
X158585998Y-75642663D01*
X158827663Y-75400998D01*
X159017537Y-75116831D01*
X159148325Y-74801081D01*
X159215000Y-74465883D01*
X159215000Y-74124117D01*
X159148325Y-73788919D01*
X159122714Y-73727088D01*
X162360602Y-70489200D01*
X162642139Y-70489200D01*
X162482337Y-70649002D01*
X162292463Y-70933169D01*
X162161675Y-71248919D01*
X162095000Y-71584117D01*
X162095000Y-71925883D01*
X162161675Y-72261081D01*
X162292463Y-72576831D01*
X162482337Y-72860998D01*
X162724002Y-73102663D01*
X163008169Y-73292537D01*
X163070001Y-73318149D01*
X163070001Y-74888548D01*
X162969715Y-74788262D01*
X162538141Y-74499893D01*
X162058601Y-74301261D01*
X161549525Y-74200000D01*
X161030475Y-74200000D01*
X160521399Y-74301261D01*
X160041859Y-74499893D01*
X159610285Y-74788262D01*
X159243262Y-75155285D01*
X158954893Y-75586859D01*
X158756261Y-76066399D01*
X158655000Y-76575475D01*
X158655000Y-77094525D01*
X158756261Y-77603601D01*
X158954893Y-78083141D01*
X159243262Y-78514715D01*
X159610285Y-78881738D01*
X160041859Y-79170107D01*
X160521399Y-79368739D01*
X161030475Y-79470000D01*
X161549525Y-79470000D01*
X162058601Y-79368739D01*
X162538141Y-79170107D01*
X162969715Y-78881738D01*
X163070001Y-78781452D01*
X163070000Y-90511852D01*
X163008169Y-90537463D01*
X162724002Y-90727337D01*
X162482337Y-90969002D01*
X162292463Y-91253169D01*
X162161675Y-91568919D01*
X162095000Y-91904117D01*
X162095000Y-92245883D01*
X162161675Y-92581081D01*
X162292463Y-92896831D01*
X162482337Y-93180998D01*
X162724002Y-93422663D01*
X163008169Y-93612537D01*
X163323919Y-93743325D01*
X163659117Y-93810000D01*
X164000883Y-93810000D01*
X164336081Y-93743325D01*
X164651831Y-93612537D01*
X164935998Y-93422663D01*
X165177663Y-93180998D01*
X165367537Y-92896831D01*
X165498325Y-92581081D01*
X165565000Y-92245883D01*
X165565000Y-91904117D01*
X165498325Y-91568919D01*
X165367537Y-91253169D01*
X165177663Y-90969002D01*
X164935998Y-90727337D01*
X164651831Y-90537463D01*
X164590000Y-90511852D01*
X164590000Y-76688740D01*
X164885000Y-76688740D01*
X164885000Y-76981260D01*
X164942068Y-77268158D01*
X165054010Y-77538411D01*
X165216525Y-77781632D01*
X165423368Y-77988475D01*
X165666589Y-78150990D01*
X165936842Y-78262932D01*
X166223740Y-78320000D01*
X166516260Y-78320000D01*
X166803158Y-78262932D01*
X167073411Y-78150990D01*
X167316632Y-77988475D01*
X167523475Y-77781632D01*
X167685990Y-77538411D01*
X167797932Y-77268158D01*
X167855000Y-76981260D01*
X167855000Y-76688740D01*
X167797932Y-76401842D01*
X167685990Y-76131589D01*
X167523475Y-75888368D01*
X167316632Y-75681525D01*
X167073411Y-75519010D01*
X166803158Y-75407068D01*
X166516260Y-75350000D01*
X166223740Y-75350000D01*
X165936842Y-75407068D01*
X165666589Y-75519010D01*
X165423368Y-75681525D01*
X165216525Y-75888368D01*
X165054010Y-76131589D01*
X164942068Y-76401842D01*
X164885000Y-76688740D01*
X164590000Y-76688740D01*
X164590000Y-73318148D01*
X164651831Y-73292537D01*
X164935998Y-73102663D01*
X165177663Y-72860998D01*
X165367537Y-72576831D01*
X165498325Y-72261081D01*
X165565000Y-71925883D01*
X165565000Y-71584117D01*
X165498325Y-71248919D01*
X165367537Y-70933169D01*
X165177663Y-70649002D01*
X165017861Y-70489200D01*
X169759178Y-70489200D01*
X169796500Y-70492876D01*
X169833822Y-70489200D01*
X169833833Y-70489200D01*
X169945486Y-70478203D01*
X170088747Y-70434746D01*
X170220776Y-70364174D01*
X170336501Y-70269201D01*
X170360304Y-70240197D01*
X174453900Y-66146602D01*
X174453901Y-91714097D01*
X172312999Y-93855000D01*
X159043148Y-93855000D01*
X159017537Y-93793169D01*
X158827663Y-93509002D01*
X158585998Y-93267337D01*
X158301831Y-93077463D01*
X157986081Y-92946675D01*
X157650883Y-92880000D01*
X157309117Y-92880000D01*
X156973919Y-92946675D01*
X156658169Y-93077463D01*
X156374002Y-93267337D01*
X156132337Y-93509002D01*
X155942463Y-93793169D01*
X155811675Y-94108919D01*
X155745000Y-94444117D01*
X155745000Y-94785883D01*
X155811675Y-95121081D01*
X155942463Y-95436831D01*
X156098261Y-95670000D01*
X156063740Y-95670000D01*
X155776842Y-95727068D01*
X155506589Y-95839010D01*
X155263368Y-96001525D01*
X155056525Y-96208368D01*
X154894010Y-96451589D01*
X154782068Y-96721842D01*
X154725000Y-97008740D01*
X154725000Y-97301260D01*
X154782068Y-97588158D01*
X154894010Y-97858411D01*
X155056525Y-98101632D01*
X155263368Y-98308475D01*
X155506589Y-98470990D01*
X155776842Y-98582932D01*
X156063740Y-98640000D01*
X156356260Y-98640000D01*
X156643158Y-98582932D01*
X156913411Y-98470990D01*
X157156632Y-98308475D01*
X157363475Y-98101632D01*
X157525990Y-97858411D01*
X157637932Y-97588158D01*
X157695000Y-97301260D01*
X157695000Y-97008740D01*
X157637932Y-96721842D01*
X157525990Y-96451589D01*
X157458110Y-96350000D01*
X157650883Y-96350000D01*
X157986081Y-96283325D01*
X158301831Y-96152537D01*
X158585998Y-95962663D01*
X158827663Y-95720998D01*
X159017537Y-95436831D01*
X159043148Y-95375000D01*
X159343547Y-95375000D01*
X159243262Y-95475285D01*
X158954893Y-95906859D01*
X158756261Y-96386399D01*
X158655000Y-96895475D01*
X158655000Y-97414525D01*
X158756261Y-97923601D01*
X158954893Y-98403141D01*
X159243262Y-98834715D01*
X159610285Y-99201738D01*
X160041859Y-99490107D01*
X160521399Y-99688739D01*
X161030475Y-99790000D01*
X161549525Y-99790000D01*
X162058601Y-99688739D01*
X162538141Y-99490107D01*
X162969715Y-99201738D01*
X163336738Y-98834715D01*
X163625107Y-98403141D01*
X163823739Y-97923601D01*
X163925000Y-97414525D01*
X163925000Y-97008740D01*
X164885000Y-97008740D01*
X164885000Y-97301260D01*
X164942068Y-97588158D01*
X165054010Y-97858411D01*
X165216525Y-98101632D01*
X165423368Y-98308475D01*
X165666589Y-98470990D01*
X165936842Y-98582932D01*
X166223740Y-98640000D01*
X166516260Y-98640000D01*
X166803158Y-98582932D01*
X167073411Y-98470990D01*
X167316632Y-98308475D01*
X167523475Y-98101632D01*
X167685990Y-97858411D01*
X167797932Y-97588158D01*
X167855000Y-97301260D01*
X167855000Y-97008740D01*
X167797932Y-96721842D01*
X167685990Y-96451589D01*
X167523475Y-96208368D01*
X167316632Y-96001525D01*
X167073411Y-95839010D01*
X166803158Y-95727068D01*
X166516260Y-95670000D01*
X166223740Y-95670000D01*
X165936842Y-95727068D01*
X165666589Y-95839010D01*
X165423368Y-96001525D01*
X165216525Y-96208368D01*
X165054010Y-96451589D01*
X164942068Y-96721842D01*
X164885000Y-97008740D01*
X163925000Y-97008740D01*
X163925000Y-96895475D01*
X163823739Y-96386399D01*
X163625107Y-95906859D01*
X163336738Y-95475285D01*
X163236453Y-95375000D01*
X172590478Y-95375000D01*
X172627800Y-95378676D01*
X172665122Y-95375000D01*
X172665133Y-95375000D01*
X172776786Y-95364003D01*
X172920047Y-95320546D01*
X173052076Y-95249974D01*
X173167801Y-95155001D01*
X173191604Y-95125997D01*
X175213900Y-93103702D01*
X176157286Y-94047088D01*
X176131675Y-94108919D01*
X176065000Y-94444117D01*
X176065000Y-94785883D01*
X176131675Y-95121081D01*
X176262463Y-95436831D01*
X176418261Y-95670000D01*
X176383740Y-95670000D01*
X176096842Y-95727068D01*
X175826589Y-95839010D01*
X175583368Y-96001525D01*
X175376525Y-96208368D01*
X175214010Y-96451589D01*
X175102068Y-96721842D01*
X175045000Y-97008740D01*
X175045000Y-97301260D01*
X175102068Y-97588158D01*
X175214010Y-97858411D01*
X175376525Y-98101632D01*
X175583368Y-98308475D01*
X175826589Y-98470990D01*
X176096842Y-98582932D01*
X176383740Y-98640000D01*
X176676260Y-98640000D01*
X176963158Y-98582932D01*
X177233411Y-98470990D01*
X177476632Y-98308475D01*
X177683475Y-98101632D01*
X177845990Y-97858411D01*
X177957932Y-97588158D01*
X178015000Y-97301260D01*
X178015000Y-97008740D01*
X177957932Y-96721842D01*
X177845990Y-96451589D01*
X177778110Y-96350000D01*
X177970883Y-96350000D01*
X178306081Y-96283325D01*
X178621831Y-96152537D01*
X178905998Y-95962663D01*
X179147663Y-95720998D01*
X179337537Y-95436831D01*
X179363148Y-95375000D01*
X179663547Y-95375000D01*
X179563262Y-95475285D01*
X179274893Y-95906859D01*
X179076261Y-96386399D01*
X178975000Y-96895475D01*
X178975000Y-97414525D01*
X179076261Y-97923601D01*
X179274893Y-98403141D01*
X179563262Y-98834715D01*
X179930285Y-99201738D01*
X180361859Y-99490107D01*
X180841399Y-99688739D01*
X181350475Y-99790000D01*
X181869525Y-99790000D01*
X182378601Y-99688739D01*
X182858141Y-99490107D01*
X183289715Y-99201738D01*
X183656738Y-98834715D01*
X183945107Y-98403141D01*
X184143739Y-97923601D01*
X184245000Y-97414525D01*
X184245000Y-97008740D01*
X185205000Y-97008740D01*
X185205000Y-97301260D01*
X185262068Y-97588158D01*
X185374010Y-97858411D01*
X185536525Y-98101632D01*
X185743368Y-98308475D01*
X185986589Y-98470990D01*
X186256842Y-98582932D01*
X186543740Y-98640000D01*
X186836260Y-98640000D01*
X187123158Y-98582932D01*
X187393411Y-98470990D01*
X187636632Y-98308475D01*
X187843475Y-98101632D01*
X188005990Y-97858411D01*
X188117932Y-97588158D01*
X188135268Y-97501000D01*
X188826928Y-97501000D01*
X188839188Y-97625482D01*
X188875498Y-97745180D01*
X188934463Y-97855494D01*
X189013815Y-97952185D01*
X189110506Y-98031537D01*
X189220820Y-98090502D01*
X189340518Y-98126812D01*
X189465000Y-98139072D01*
X189579250Y-98136000D01*
X189738000Y-97977250D01*
X189738000Y-97028000D01*
X188988750Y-97028000D01*
X188830000Y-97186750D01*
X188826928Y-97501000D01*
X188135268Y-97501000D01*
X188175000Y-97301260D01*
X188175000Y-97008740D01*
X188117932Y-96721842D01*
X188005990Y-96451589D01*
X187843475Y-96208368D01*
X187636632Y-96001525D01*
X187393411Y-95839010D01*
X187123158Y-95727068D01*
X186836260Y-95670000D01*
X186543740Y-95670000D01*
X186256842Y-95727068D01*
X185986589Y-95839010D01*
X185743368Y-96001525D01*
X185536525Y-96208368D01*
X185374010Y-96451589D01*
X185262068Y-96721842D01*
X185205000Y-97008740D01*
X184245000Y-97008740D01*
X184245000Y-96895475D01*
X184143739Y-96386399D01*
X183945107Y-95906859D01*
X183656738Y-95475285D01*
X183556453Y-95375000D01*
X188570899Y-95375000D01*
X188575896Y-95379997D01*
X188599699Y-95409001D01*
X188715424Y-95503974D01*
X188836760Y-95568830D01*
X188839188Y-95593482D01*
X188875498Y-95713180D01*
X188934463Y-95823494D01*
X188984940Y-95885000D01*
X188934463Y-95946506D01*
X188875498Y-96056820D01*
X188839188Y-96176518D01*
X188826928Y-96301000D01*
X188830000Y-96615250D01*
X188988750Y-96774000D01*
X189738000Y-96774000D01*
X189738000Y-96754000D01*
X189992000Y-96754000D01*
X189992000Y-96774000D01*
X190012000Y-96774000D01*
X190012000Y-97028000D01*
X189992000Y-97028000D01*
X189992000Y-97977250D01*
X190150750Y-98136000D01*
X190265000Y-98139072D01*
X190373000Y-98128435D01*
X190373000Y-104722394D01*
X189177394Y-105918000D01*
X133402606Y-105918000D01*
X132207000Y-104722394D01*
X132207000Y-97008740D01*
X134405000Y-97008740D01*
X134405000Y-97301260D01*
X134462068Y-97588158D01*
X134574010Y-97858411D01*
X134736525Y-98101632D01*
X134943368Y-98308475D01*
X135186589Y-98470990D01*
X135456842Y-98582932D01*
X135743740Y-98640000D01*
X136036260Y-98640000D01*
X136323158Y-98582932D01*
X136593411Y-98470990D01*
X136836632Y-98308475D01*
X137043475Y-98101632D01*
X137205990Y-97858411D01*
X137317932Y-97588158D01*
X137375000Y-97301260D01*
X137375000Y-97008740D01*
X137352471Y-96895475D01*
X138335000Y-96895475D01*
X138335000Y-97414525D01*
X138436261Y-97923601D01*
X138634893Y-98403141D01*
X138923262Y-98834715D01*
X139290285Y-99201738D01*
X139721859Y-99490107D01*
X140201399Y-99688739D01*
X140710475Y-99790000D01*
X141229525Y-99790000D01*
X141738601Y-99688739D01*
X142218141Y-99490107D01*
X142649715Y-99201738D01*
X143016738Y-98834715D01*
X143305107Y-98403141D01*
X143503739Y-97923601D01*
X143605000Y-97414525D01*
X143605000Y-97008740D01*
X144565000Y-97008740D01*
X144565000Y-97301260D01*
X144622068Y-97588158D01*
X144734010Y-97858411D01*
X144896525Y-98101632D01*
X145103368Y-98308475D01*
X145346589Y-98470990D01*
X145616842Y-98582932D01*
X145903740Y-98640000D01*
X146196260Y-98640000D01*
X146483158Y-98582932D01*
X146753411Y-98470990D01*
X146996632Y-98308475D01*
X147203475Y-98101632D01*
X147365990Y-97858411D01*
X147477932Y-97588158D01*
X147535000Y-97301260D01*
X147535000Y-97008740D01*
X147477932Y-96721842D01*
X147365990Y-96451589D01*
X147203475Y-96208368D01*
X146996632Y-96001525D01*
X146753411Y-95839010D01*
X146483158Y-95727068D01*
X146196260Y-95670000D01*
X145903740Y-95670000D01*
X145616842Y-95727068D01*
X145346589Y-95839010D01*
X145103368Y-96001525D01*
X144896525Y-96208368D01*
X144734010Y-96451589D01*
X144622068Y-96721842D01*
X144565000Y-97008740D01*
X143605000Y-97008740D01*
X143605000Y-96895475D01*
X143503739Y-96386399D01*
X143305107Y-95906859D01*
X143016738Y-95475285D01*
X142649715Y-95108262D01*
X142218141Y-94819893D01*
X141738601Y-94621261D01*
X141229525Y-94520000D01*
X140710475Y-94520000D01*
X140201399Y-94621261D01*
X139721859Y-94819893D01*
X139290285Y-95108262D01*
X138923262Y-95475285D01*
X138634893Y-95906859D01*
X138436261Y-96386399D01*
X138335000Y-96895475D01*
X137352471Y-96895475D01*
X137317932Y-96721842D01*
X137205990Y-96451589D01*
X137138110Y-96350000D01*
X137330883Y-96350000D01*
X137666081Y-96283325D01*
X137981831Y-96152537D01*
X138265998Y-95962663D01*
X138507663Y-95720998D01*
X138697537Y-95436831D01*
X138828325Y-95121081D01*
X138895000Y-94785883D01*
X138895000Y-94444117D01*
X138828325Y-94108919D01*
X138697537Y-93793169D01*
X138507663Y-93509002D01*
X138265998Y-93267337D01*
X137981831Y-93077463D01*
X137666081Y-92946675D01*
X137330883Y-92880000D01*
X136989117Y-92880000D01*
X136653919Y-92946675D01*
X136338169Y-93077463D01*
X136054002Y-93267337D01*
X135812337Y-93509002D01*
X135622463Y-93793169D01*
X135491675Y-94108919D01*
X135425000Y-94444117D01*
X135425000Y-94785883D01*
X135491675Y-95121081D01*
X135622463Y-95436831D01*
X135778261Y-95670000D01*
X135743740Y-95670000D01*
X135456842Y-95727068D01*
X135186589Y-95839010D01*
X134943368Y-96001525D01*
X134736525Y-96208368D01*
X134574010Y-96451589D01*
X134462068Y-96721842D01*
X134405000Y-97008740D01*
X132207000Y-97008740D01*
X132207000Y-76688740D01*
X134405000Y-76688740D01*
X134405000Y-76981260D01*
X134462068Y-77268158D01*
X134574010Y-77538411D01*
X134736525Y-77781632D01*
X134943368Y-77988475D01*
X135186589Y-78150990D01*
X135456842Y-78262932D01*
X135743740Y-78320000D01*
X136036260Y-78320000D01*
X136323158Y-78262932D01*
X136593411Y-78150990D01*
X136836632Y-77988475D01*
X137043475Y-77781632D01*
X137205990Y-77538411D01*
X137317932Y-77268158D01*
X137375000Y-76981260D01*
X137375000Y-76688740D01*
X137317932Y-76401842D01*
X137205990Y-76131589D01*
X137138110Y-76030000D01*
X137330883Y-76030000D01*
X137666081Y-75963325D01*
X137981831Y-75832537D01*
X138265998Y-75642663D01*
X138507663Y-75400998D01*
X138697537Y-75116831D01*
X138828325Y-74801081D01*
X138895000Y-74465883D01*
X138895000Y-74124117D01*
X138828325Y-73788919D01*
X138697537Y-73473169D01*
X138507663Y-73189002D01*
X138265998Y-72947337D01*
X137981831Y-72757463D01*
X137666081Y-72626675D01*
X137330883Y-72560000D01*
X136989117Y-72560000D01*
X136653919Y-72626675D01*
X136338169Y-72757463D01*
X136054002Y-72947337D01*
X135812337Y-73189002D01*
X135622463Y-73473169D01*
X135491675Y-73788919D01*
X135425000Y-74124117D01*
X135425000Y-74465883D01*
X135491675Y-74801081D01*
X135622463Y-75116831D01*
X135778261Y-75350000D01*
X135743740Y-75350000D01*
X135456842Y-75407068D01*
X135186589Y-75519010D01*
X134943368Y-75681525D01*
X134736525Y-75888368D01*
X134574010Y-76131589D01*
X134462068Y-76401842D01*
X134405000Y-76688740D01*
X132207000Y-76688740D01*
X132207000Y-56368740D01*
X134405000Y-56368740D01*
X134405000Y-56661260D01*
X134462068Y-56948158D01*
X134574010Y-57218411D01*
X134736525Y-57461632D01*
X134943368Y-57668475D01*
X135186589Y-57830990D01*
X135456842Y-57942932D01*
X135743740Y-58000000D01*
X136036260Y-58000000D01*
X136323158Y-57942932D01*
X136593411Y-57830990D01*
X136836632Y-57668475D01*
X137043475Y-57461632D01*
X137205990Y-57218411D01*
X137317932Y-56948158D01*
X137375000Y-56661260D01*
X137375000Y-56368740D01*
X137317932Y-56081842D01*
X137205990Y-55811589D01*
X137138110Y-55710000D01*
X137330883Y-55710000D01*
X137666081Y-55643325D01*
X137981831Y-55512537D01*
X138265998Y-55322663D01*
X138507663Y-55080998D01*
X138697537Y-54796831D01*
X138828325Y-54481081D01*
X138895000Y-54145883D01*
X138895000Y-53804117D01*
X138828325Y-53468919D01*
X138697537Y-53153169D01*
X138507663Y-52869002D01*
X138265998Y-52627337D01*
X137981831Y-52437463D01*
X137666081Y-52306675D01*
X137330883Y-52240000D01*
X136989117Y-52240000D01*
X136653919Y-52306675D01*
X136338169Y-52437463D01*
X136054002Y-52627337D01*
X135812337Y-52869002D01*
X135622463Y-53153169D01*
X135491675Y-53468919D01*
X135425000Y-53804117D01*
X135425000Y-54145883D01*
X135491675Y-54481081D01*
X135622463Y-54796831D01*
X135778261Y-55030000D01*
X135743740Y-55030000D01*
X135456842Y-55087068D01*
X135186589Y-55199010D01*
X134943368Y-55361525D01*
X134736525Y-55568368D01*
X134574010Y-55811589D01*
X134462068Y-56081842D01*
X134405000Y-56368740D01*
X132207000Y-56368740D01*
X132207000Y-45720000D01*
X132204560Y-45695224D01*
X132197333Y-45671399D01*
X132185597Y-45649443D01*
X132169803Y-45630197D01*
X132150557Y-45614403D01*
X132128601Y-45602667D01*
X132104776Y-45595440D01*
X132080000Y-45593000D01*
X127687606Y-45593000D01*
X126492000Y-44397394D01*
X126492000Y-27992606D01*
X127687606Y-26797000D01*
X189177394Y-26797000D01*
X190373000Y-27992606D01*
G37*
X190373000Y-27992606D02*
X190373000Y-32681565D01*
X190265000Y-32670928D01*
X189465000Y-32670928D01*
X189340518Y-32683188D01*
X189220820Y-32719498D01*
X189110506Y-32778463D01*
X189095929Y-32790426D01*
X185478704Y-29173203D01*
X185454901Y-29144199D01*
X185339176Y-29049226D01*
X185207147Y-28978654D01*
X185063886Y-28935197D01*
X184952233Y-28924200D01*
X184952222Y-28924200D01*
X184914900Y-28920524D01*
X184877578Y-28924200D01*
X181808122Y-28924200D01*
X181770799Y-28920524D01*
X181733476Y-28924200D01*
X181733467Y-28924200D01*
X181621814Y-28935197D01*
X181478553Y-28978654D01*
X181346524Y-29049226D01*
X181230799Y-29144199D01*
X181207001Y-29173197D01*
X178367912Y-32012286D01*
X178306081Y-31986675D01*
X177970883Y-31920000D01*
X177629117Y-31920000D01*
X177293919Y-31986675D01*
X176978169Y-32117463D01*
X176694002Y-32307337D01*
X176452337Y-32549002D01*
X176262463Y-32833169D01*
X176131675Y-33148919D01*
X176065000Y-33484117D01*
X176065000Y-33825883D01*
X176131675Y-34161081D01*
X176262463Y-34476831D01*
X176418261Y-34710000D01*
X176383740Y-34710000D01*
X176096842Y-34767068D01*
X175895700Y-34850383D01*
X175895700Y-34142725D01*
X175899376Y-34105400D01*
X175895700Y-34068075D01*
X175895700Y-34068067D01*
X175884703Y-33956414D01*
X175841246Y-33813153D01*
X175770674Y-33681124D01*
X175675701Y-33565399D01*
X175646698Y-33541597D01*
X175249104Y-33144003D01*
X175225301Y-33114999D01*
X175109576Y-33020026D01*
X174977547Y-32949454D01*
X174959567Y-32944000D01*
X174949502Y-32910820D01*
X174890537Y-32800506D01*
X174811185Y-32703815D01*
X174714494Y-32624463D01*
X174604180Y-32565498D01*
X174484482Y-32529188D01*
X174360000Y-32516928D01*
X171850000Y-32516928D01*
X171725518Y-32529188D01*
X171605820Y-32565498D01*
X171495506Y-32624463D01*
X171398815Y-32703815D01*
X171319463Y-32800506D01*
X171260498Y-32910820D01*
X171224188Y-33030518D01*
X171211928Y-33155000D01*
X171211928Y-33876100D01*
X169174300Y-33876100D01*
X169174300Y-33758761D01*
X169134526Y-33558802D01*
X169056505Y-33370444D01*
X168943237Y-33200926D01*
X168855900Y-33113589D01*
X168855900Y-32252071D01*
X169509250Y-32250000D01*
X169668000Y-32091250D01*
X169668000Y-31242000D01*
X169922000Y-31242000D01*
X169922000Y-32091250D01*
X170080750Y-32250000D01*
X171050000Y-32253072D01*
X171174482Y-32240812D01*
X171294180Y-32204502D01*
X171404494Y-32145537D01*
X171501185Y-32066185D01*
X171580537Y-31969494D01*
X171639502Y-31859180D01*
X171675812Y-31739482D01*
X171688072Y-31615000D01*
X171685000Y-31400750D01*
X171526250Y-31242000D01*
X169922000Y-31242000D01*
X169668000Y-31242000D01*
X169648000Y-31242000D01*
X169648000Y-30988000D01*
X169668000Y-30988000D01*
X169668000Y-30138750D01*
X169922000Y-30138750D01*
X169922000Y-30988000D01*
X171526250Y-30988000D01*
X171685000Y-30829250D01*
X171688072Y-30615000D01*
X171675812Y-30490518D01*
X171639502Y-30370820D01*
X171580537Y-30260506D01*
X171501185Y-30163815D01*
X171404494Y-30084463D01*
X171294180Y-30025498D01*
X171174482Y-29989188D01*
X171050000Y-29976928D01*
X170080750Y-29980000D01*
X169922000Y-30138750D01*
X169668000Y-30138750D01*
X169594331Y-30065081D01*
X170274413Y-29385000D01*
X171295680Y-29385000D01*
X171319463Y-29429494D01*
X171398815Y-29526185D01*
X171495506Y-29605537D01*
X171605820Y-29664502D01*
X171725518Y-29700812D01*
X171850000Y-29713072D01*
X174360000Y-29713072D01*
X174484482Y-29700812D01*
X174604180Y-29664502D01*
X174714494Y-29605537D01*
X174811185Y-29526185D01*
X174890537Y-29429494D01*
X174949502Y-29319180D01*
X174985812Y-29199482D01*
X174998072Y-29075000D01*
X174998072Y-28075000D01*
X174985812Y-27950518D01*
X174949502Y-27830820D01*
X174890537Y-27720506D01*
X174811185Y-27623815D01*
X174714494Y-27544463D01*
X174604180Y-27485498D01*
X174484482Y-27449188D01*
X174360000Y-27436928D01*
X171850000Y-27436928D01*
X171725518Y-27449188D01*
X171605820Y-27485498D01*
X171495506Y-27544463D01*
X171398815Y-27623815D01*
X171319463Y-27720506D01*
X171295680Y-27765000D01*
X169978687Y-27765000D01*
X169938899Y-27761081D01*
X169899111Y-27765000D01*
X169899109Y-27765000D01*
X169780112Y-27776720D01*
X169627427Y-27823037D01*
X169582206Y-27847208D01*
X169486710Y-27898251D01*
X169450504Y-27927965D01*
X169363372Y-27999472D01*
X169338005Y-28030382D01*
X167501287Y-29867101D01*
X167470372Y-29892472D01*
X167403465Y-29974000D01*
X167369151Y-30015811D01*
X167332456Y-30084463D01*
X167293937Y-30156528D01*
X167247620Y-30309213D01*
X167237240Y-30414603D01*
X167231981Y-30468000D01*
X167235900Y-30507788D01*
X167235901Y-33349782D01*
X167222095Y-33370444D01*
X167203980Y-33414177D01*
X165472714Y-31682912D01*
X165498325Y-31621081D01*
X165565000Y-31285883D01*
X165565000Y-30944117D01*
X165498325Y-30608919D01*
X165367537Y-30293169D01*
X165177663Y-30009002D01*
X164935998Y-29767337D01*
X164651831Y-29577463D01*
X164336081Y-29446675D01*
X164000883Y-29380000D01*
X163659117Y-29380000D01*
X163323919Y-29446675D01*
X163008169Y-29577463D01*
X162724002Y-29767337D01*
X162482337Y-30009002D01*
X162292463Y-30293169D01*
X162161675Y-30608919D01*
X162095000Y-30944117D01*
X162095000Y-31285883D01*
X162161675Y-31621081D01*
X162292463Y-31936831D01*
X162425276Y-32135600D01*
X160158202Y-32135600D01*
X157177204Y-29154603D01*
X157153401Y-29125599D01*
X157037676Y-29030626D01*
X156905647Y-28960054D01*
X156762386Y-28916597D01*
X156650733Y-28905600D01*
X156650722Y-28905600D01*
X156613400Y-28901924D01*
X156576078Y-28905600D01*
X133276025Y-28905600D01*
X133238700Y-28901924D01*
X133201375Y-28905600D01*
X133201367Y-28905600D01*
X133089714Y-28916597D01*
X132946453Y-28960054D01*
X132814424Y-29030626D01*
X132698699Y-29125599D01*
X132674901Y-29154597D01*
X132214072Y-29615427D01*
X132199494Y-29603463D01*
X132089180Y-29544498D01*
X131969482Y-29508188D01*
X131845000Y-29495928D01*
X131045000Y-29495928D01*
X130920518Y-29508188D01*
X130800820Y-29544498D01*
X130690506Y-29603463D01*
X130593815Y-29682815D01*
X130514463Y-29779506D01*
X130491150Y-29823121D01*
X130306039Y-29786300D01*
X130102161Y-29786300D01*
X129902202Y-29826074D01*
X129713844Y-29904095D01*
X129544326Y-30017363D01*
X129400163Y-30161526D01*
X129286895Y-30331044D01*
X129208874Y-30519402D01*
X129169100Y-30719361D01*
X129169100Y-30923239D01*
X129208874Y-31123198D01*
X129286895Y-31311556D01*
X129400163Y-31481074D01*
X129544326Y-31625237D01*
X129713844Y-31738505D01*
X129733607Y-31746691D01*
X128487198Y-32993101D01*
X128458200Y-33016899D01*
X128434402Y-33045897D01*
X128434401Y-33045898D01*
X128363226Y-33132624D01*
X128292654Y-33264654D01*
X128249198Y-33407915D01*
X128234524Y-33556900D01*
X128238201Y-33594232D01*
X128238200Y-40879878D01*
X128234524Y-40917200D01*
X128238200Y-40954522D01*
X128238200Y-40954532D01*
X128249197Y-41066185D01*
X128286210Y-41188203D01*
X128292654Y-41209446D01*
X128363226Y-41341476D01*
X128397424Y-41383146D01*
X128458199Y-41457201D01*
X128487203Y-41481004D01*
X138952205Y-51946008D01*
X138975999Y-51975001D01*
X139004992Y-51998795D01*
X139004996Y-51998799D01*
X139075685Y-52056811D01*
X139091724Y-52069974D01*
X139223753Y-52140546D01*
X139367014Y-52184003D01*
X139478667Y-52195000D01*
X139478676Y-52195000D01*
X139515999Y-52198676D01*
X139553322Y-52195000D01*
X141946852Y-52195000D01*
X141972463Y-52256831D01*
X142162337Y-52540998D01*
X142404002Y-52782663D01*
X142688169Y-52972537D01*
X142750000Y-52998148D01*
X142750000Y-54568547D01*
X142649715Y-54468262D01*
X142218141Y-54179893D01*
X141738601Y-53981261D01*
X141229525Y-53880000D01*
X140710475Y-53880000D01*
X140201399Y-53981261D01*
X139721859Y-54179893D01*
X139290285Y-54468262D01*
X138923262Y-54835285D01*
X138634893Y-55266859D01*
X138436261Y-55746399D01*
X138335000Y-56255475D01*
X138335000Y-56774525D01*
X138436261Y-57283601D01*
X138634893Y-57763141D01*
X138923262Y-58194715D01*
X139290285Y-58561738D01*
X139721859Y-58850107D01*
X140201399Y-59048739D01*
X140710475Y-59150000D01*
X141229525Y-59150000D01*
X141738601Y-59048739D01*
X142218141Y-58850107D01*
X142649715Y-58561738D01*
X142750000Y-58461453D01*
X142750001Y-70191851D01*
X142688169Y-70217463D01*
X142404002Y-70407337D01*
X142162337Y-70649002D01*
X141972463Y-70933169D01*
X141841675Y-71248919D01*
X141775000Y-71584117D01*
X141775000Y-71925883D01*
X141841675Y-72261081D01*
X141972463Y-72576831D01*
X142162337Y-72860998D01*
X142404002Y-73102663D01*
X142688169Y-73292537D01*
X142750000Y-73318148D01*
X142750000Y-74888547D01*
X142649715Y-74788262D01*
X142218141Y-74499893D01*
X141738601Y-74301261D01*
X141229525Y-74200000D01*
X140710475Y-74200000D01*
X140201399Y-74301261D01*
X139721859Y-74499893D01*
X139290285Y-74788262D01*
X138923262Y-75155285D01*
X138634893Y-75586859D01*
X138436261Y-76066399D01*
X138335000Y-76575475D01*
X138335000Y-77094525D01*
X138436261Y-77603601D01*
X138634893Y-78083141D01*
X138923262Y-78514715D01*
X139290285Y-78881738D01*
X139721859Y-79170107D01*
X140201399Y-79368739D01*
X140710475Y-79470000D01*
X141229525Y-79470000D01*
X141738601Y-79368739D01*
X142218141Y-79170107D01*
X142649715Y-78881738D01*
X142750000Y-78781453D01*
X142750001Y-90511851D01*
X142688169Y-90537463D01*
X142404002Y-90727337D01*
X142162337Y-90969002D01*
X141972463Y-91253169D01*
X141841675Y-91568919D01*
X141775000Y-91904117D01*
X141775000Y-92245883D01*
X141841675Y-92581081D01*
X141972463Y-92896831D01*
X142162337Y-93180998D01*
X142404002Y-93422663D01*
X142688169Y-93612537D01*
X143003919Y-93743325D01*
X143339117Y-93810000D01*
X143680883Y-93810000D01*
X144016081Y-93743325D01*
X144331831Y-93612537D01*
X144615998Y-93422663D01*
X144857663Y-93180998D01*
X145047537Y-92896831D01*
X145178325Y-92581081D01*
X145245000Y-92245883D01*
X145245000Y-91904117D01*
X145178325Y-91568919D01*
X145047537Y-91253169D01*
X144857663Y-90969002D01*
X144615998Y-90727337D01*
X144331831Y-90537463D01*
X144270000Y-90511852D01*
X144270000Y-76688740D01*
X144565000Y-76688740D01*
X144565000Y-76981260D01*
X144622068Y-77268158D01*
X144734010Y-77538411D01*
X144896525Y-77781632D01*
X145103368Y-77988475D01*
X145346589Y-78150990D01*
X145616842Y-78262932D01*
X145903740Y-78320000D01*
X146196260Y-78320000D01*
X146483158Y-78262932D01*
X146753411Y-78150990D01*
X146996632Y-77988475D01*
X147203475Y-77781632D01*
X147365990Y-77538411D01*
X147477932Y-77268158D01*
X147535000Y-76981260D01*
X147535000Y-76688740D01*
X147477932Y-76401842D01*
X147365990Y-76131589D01*
X147203475Y-75888368D01*
X146996632Y-75681525D01*
X146753411Y-75519010D01*
X146483158Y-75407068D01*
X146196260Y-75350000D01*
X145903740Y-75350000D01*
X145616842Y-75407068D01*
X145346589Y-75519010D01*
X145103368Y-75681525D01*
X144896525Y-75888368D01*
X144734010Y-76131589D01*
X144622068Y-76401842D01*
X144565000Y-76688740D01*
X144270000Y-76688740D01*
X144270000Y-73318148D01*
X144331831Y-73292537D01*
X144615998Y-73102663D01*
X144857663Y-72860998D01*
X145047537Y-72576831D01*
X145178325Y-72261081D01*
X145245000Y-71925883D01*
X145245000Y-71584117D01*
X145178325Y-71248919D01*
X145047537Y-70933169D01*
X144857663Y-70649002D01*
X144615998Y-70407337D01*
X144331831Y-70217463D01*
X144270000Y-70191852D01*
X144270000Y-56368740D01*
X144565000Y-56368740D01*
X144565000Y-56661260D01*
X144622068Y-56948158D01*
X144734010Y-57218411D01*
X144896525Y-57461632D01*
X145103368Y-57668475D01*
X145346589Y-57830990D01*
X145616842Y-57942932D01*
X145903740Y-58000000D01*
X146196260Y-58000000D01*
X146483158Y-57942932D01*
X146753411Y-57830990D01*
X146996632Y-57668475D01*
X147203475Y-57461632D01*
X147365990Y-57218411D01*
X147477932Y-56948158D01*
X147535000Y-56661260D01*
X147535000Y-56368740D01*
X147477932Y-56081842D01*
X147365990Y-55811589D01*
X147203475Y-55568368D01*
X146996632Y-55361525D01*
X146753411Y-55199010D01*
X146483158Y-55087068D01*
X146196260Y-55030000D01*
X145903740Y-55030000D01*
X145616842Y-55087068D01*
X145346589Y-55199010D01*
X145103368Y-55361525D01*
X144896525Y-55568368D01*
X144734010Y-55811589D01*
X144622068Y-56081842D01*
X144565000Y-56368740D01*
X144270000Y-56368740D01*
X144270000Y-52998148D01*
X144331831Y-52972537D01*
X144615998Y-52782663D01*
X144857663Y-52540998D01*
X145047537Y-52256831D01*
X145178325Y-51941081D01*
X145245000Y-51605883D01*
X145245000Y-51264117D01*
X145230125Y-51189338D01*
X150795768Y-56754981D01*
X150714000Y-56746928D01*
X149514000Y-56746928D01*
X149389518Y-56759188D01*
X149269820Y-56795498D01*
X149159506Y-56854463D01*
X149062815Y-56933815D01*
X148983463Y-57030506D01*
X148924498Y-57140820D01*
X148888188Y-57260518D01*
X148875928Y-57385000D01*
X148875928Y-58185000D01*
X148888188Y-58309482D01*
X148924498Y-58429180D01*
X148983463Y-58539494D01*
X149062815Y-58636185D01*
X149115816Y-58679682D01*
X148480658Y-59314841D01*
X148298505Y-59132688D01*
X148047095Y-58964701D01*
X147767743Y-58848989D01*
X147471184Y-58790000D01*
X147168816Y-58790000D01*
X146872257Y-58848989D01*
X146592905Y-58964701D01*
X146341495Y-59132688D01*
X146127688Y-59346495D01*
X145959701Y-59597905D01*
X145843989Y-59877257D01*
X145785000Y-60173816D01*
X145785000Y-60476184D01*
X145843989Y-60772743D01*
X145959701Y-61052095D01*
X146127688Y-61303505D01*
X146341495Y-61517312D01*
X146592905Y-61685299D01*
X146872257Y-61801011D01*
X147168816Y-61860000D01*
X147471184Y-61860000D01*
X147767743Y-61801011D01*
X147785300Y-61793739D01*
X147785301Y-65572526D01*
X147699465Y-65629880D01*
X147504880Y-65824465D01*
X147351995Y-66053273D01*
X147246686Y-66307510D01*
X147193000Y-66577408D01*
X147193000Y-66852592D01*
X147246686Y-67122490D01*
X147351995Y-67376727D01*
X147504880Y-67605535D01*
X147699465Y-67800120D01*
X147928273Y-67953005D01*
X148182510Y-68058314D01*
X148452408Y-68112000D01*
X148727592Y-68112000D01*
X148997490Y-68058314D01*
X149251727Y-67953005D01*
X149480535Y-67800120D01*
X149675120Y-67605535D01*
X149828005Y-67376727D01*
X149933314Y-67122490D01*
X149987000Y-66852592D01*
X149987000Y-66577408D01*
X149933314Y-66307510D01*
X149828005Y-66053273D01*
X149675120Y-65824465D01*
X149480535Y-65629880D01*
X149305300Y-65512791D01*
X149305300Y-60639801D01*
X150625004Y-59320098D01*
X150654001Y-59296301D01*
X150748974Y-59180576D01*
X150819546Y-59048547D01*
X150863003Y-58905286D01*
X150873350Y-58800235D01*
X150958180Y-58774502D01*
X151068494Y-58715537D01*
X151130000Y-58665060D01*
X151191506Y-58715537D01*
X151301820Y-58774502D01*
X151336000Y-58784870D01*
X151336001Y-62253802D01*
X151332081Y-62293600D01*
X151346305Y-62438010D01*
X151347240Y-62447499D01*
X151347721Y-62452387D01*
X151394038Y-62605073D01*
X151469251Y-62745789D01*
X151524852Y-62813539D01*
X151570473Y-62869128D01*
X151601383Y-62894495D01*
X154079340Y-65372452D01*
X154077490Y-65371686D01*
X153807592Y-65318000D01*
X153532408Y-65318000D01*
X153262510Y-65371686D01*
X153008273Y-65476995D01*
X152779465Y-65629880D01*
X152584880Y-65824465D01*
X152431995Y-66053273D01*
X152326686Y-66307510D01*
X152273000Y-66577408D01*
X152273000Y-66852592D01*
X152326686Y-67122490D01*
X152431995Y-67376727D01*
X152584880Y-67605535D01*
X152779465Y-67800120D01*
X153008273Y-67953005D01*
X153262510Y-68058314D01*
X153532408Y-68112000D01*
X153807592Y-68112000D01*
X154077490Y-68058314D01*
X154331727Y-67953005D01*
X154560535Y-67800120D01*
X154755120Y-67605535D01*
X154908005Y-67376727D01*
X155013314Y-67122490D01*
X155067000Y-66852592D01*
X155067000Y-66577408D01*
X155013314Y-66307510D01*
X155012548Y-66305660D01*
X158148605Y-69441718D01*
X158173972Y-69472628D01*
X158241710Y-69528219D01*
X158297310Y-69573849D01*
X158372524Y-69614051D01*
X158438027Y-69649063D01*
X158590712Y-69695380D01*
X158709709Y-69707100D01*
X158709711Y-69707100D01*
X158749499Y-69711019D01*
X158789287Y-69707100D01*
X160993098Y-69707100D01*
X158047912Y-72652286D01*
X157986081Y-72626675D01*
X157650883Y-72560000D01*
X157309117Y-72560000D01*
X156973919Y-72626675D01*
X156658169Y-72757463D01*
X156374002Y-72947337D01*
X156132337Y-73189002D01*
X155942463Y-73473169D01*
X155811675Y-73788919D01*
X155745000Y-74124117D01*
X155745000Y-74465883D01*
X155811675Y-74801081D01*
X155942463Y-75116831D01*
X156098261Y-75350000D01*
X156063740Y-75350000D01*
X155776842Y-75407068D01*
X155506589Y-75519010D01*
X155263368Y-75681525D01*
X155056525Y-75888368D01*
X154894010Y-76131589D01*
X154782068Y-76401842D01*
X154725000Y-76688740D01*
X154725000Y-76981260D01*
X154782068Y-77268158D01*
X154894010Y-77538411D01*
X155056525Y-77781632D01*
X155263368Y-77988475D01*
X155506589Y-78150990D01*
X155776842Y-78262932D01*
X156063740Y-78320000D01*
X156356260Y-78320000D01*
X156643158Y-78262932D01*
X156913411Y-78150990D01*
X157156632Y-77988475D01*
X157363475Y-77781632D01*
X157525990Y-77538411D01*
X157637932Y-77268158D01*
X157695000Y-76981260D01*
X157695000Y-76688740D01*
X157637932Y-76401842D01*
X157525990Y-76131589D01*
X157458110Y-76030000D01*
X157650883Y-76030000D01*
X157986081Y-75963325D01*
X158301831Y-75832537D01*
X158585998Y-75642663D01*
X158827663Y-75400998D01*
X159017537Y-75116831D01*
X159148325Y-74801081D01*
X159215000Y-74465883D01*
X159215000Y-74124117D01*
X159148325Y-73788919D01*
X159122714Y-73727088D01*
X162360602Y-70489200D01*
X162642139Y-70489200D01*
X162482337Y-70649002D01*
X162292463Y-70933169D01*
X162161675Y-71248919D01*
X162095000Y-71584117D01*
X162095000Y-71925883D01*
X162161675Y-72261081D01*
X162292463Y-72576831D01*
X162482337Y-72860998D01*
X162724002Y-73102663D01*
X163008169Y-73292537D01*
X163070001Y-73318149D01*
X163070001Y-74888548D01*
X162969715Y-74788262D01*
X162538141Y-74499893D01*
X162058601Y-74301261D01*
X161549525Y-74200000D01*
X161030475Y-74200000D01*
X160521399Y-74301261D01*
X160041859Y-74499893D01*
X159610285Y-74788262D01*
X159243262Y-75155285D01*
X158954893Y-75586859D01*
X158756261Y-76066399D01*
X158655000Y-76575475D01*
X158655000Y-77094525D01*
X158756261Y-77603601D01*
X158954893Y-78083141D01*
X159243262Y-78514715D01*
X159610285Y-78881738D01*
X160041859Y-79170107D01*
X160521399Y-79368739D01*
X161030475Y-79470000D01*
X161549525Y-79470000D01*
X162058601Y-79368739D01*
X162538141Y-79170107D01*
X162969715Y-78881738D01*
X163070001Y-78781452D01*
X163070000Y-90511852D01*
X163008169Y-90537463D01*
X162724002Y-90727337D01*
X162482337Y-90969002D01*
X162292463Y-91253169D01*
X162161675Y-91568919D01*
X162095000Y-91904117D01*
X162095000Y-92245883D01*
X162161675Y-92581081D01*
X162292463Y-92896831D01*
X162482337Y-93180998D01*
X162724002Y-93422663D01*
X163008169Y-93612537D01*
X163323919Y-93743325D01*
X163659117Y-93810000D01*
X164000883Y-93810000D01*
X164336081Y-93743325D01*
X164651831Y-93612537D01*
X164935998Y-93422663D01*
X165177663Y-93180998D01*
X165367537Y-92896831D01*
X165498325Y-92581081D01*
X165565000Y-92245883D01*
X165565000Y-91904117D01*
X165498325Y-91568919D01*
X165367537Y-91253169D01*
X165177663Y-90969002D01*
X164935998Y-90727337D01*
X164651831Y-90537463D01*
X164590000Y-90511852D01*
X164590000Y-76688740D01*
X164885000Y-76688740D01*
X164885000Y-76981260D01*
X164942068Y-77268158D01*
X165054010Y-77538411D01*
X165216525Y-77781632D01*
X165423368Y-77988475D01*
X165666589Y-78150990D01*
X165936842Y-78262932D01*
X166223740Y-78320000D01*
X166516260Y-78320000D01*
X166803158Y-78262932D01*
X167073411Y-78150990D01*
X167316632Y-77988475D01*
X167523475Y-77781632D01*
X167685990Y-77538411D01*
X167797932Y-77268158D01*
X167855000Y-76981260D01*
X167855000Y-76688740D01*
X167797932Y-76401842D01*
X167685990Y-76131589D01*
X167523475Y-75888368D01*
X167316632Y-75681525D01*
X167073411Y-75519010D01*
X166803158Y-75407068D01*
X166516260Y-75350000D01*
X166223740Y-75350000D01*
X165936842Y-75407068D01*
X165666589Y-75519010D01*
X165423368Y-75681525D01*
X165216525Y-75888368D01*
X165054010Y-76131589D01*
X164942068Y-76401842D01*
X164885000Y-76688740D01*
X164590000Y-76688740D01*
X164590000Y-73318148D01*
X164651831Y-73292537D01*
X164935998Y-73102663D01*
X165177663Y-72860998D01*
X165367537Y-72576831D01*
X165498325Y-72261081D01*
X165565000Y-71925883D01*
X165565000Y-71584117D01*
X165498325Y-71248919D01*
X165367537Y-70933169D01*
X165177663Y-70649002D01*
X165017861Y-70489200D01*
X169759178Y-70489200D01*
X169796500Y-70492876D01*
X169833822Y-70489200D01*
X169833833Y-70489200D01*
X169945486Y-70478203D01*
X170088747Y-70434746D01*
X170220776Y-70364174D01*
X170336501Y-70269201D01*
X170360304Y-70240197D01*
X174453900Y-66146602D01*
X174453901Y-91714097D01*
X172312999Y-93855000D01*
X159043148Y-93855000D01*
X159017537Y-93793169D01*
X158827663Y-93509002D01*
X158585998Y-93267337D01*
X158301831Y-93077463D01*
X157986081Y-92946675D01*
X157650883Y-92880000D01*
X157309117Y-92880000D01*
X156973919Y-92946675D01*
X156658169Y-93077463D01*
X156374002Y-93267337D01*
X156132337Y-93509002D01*
X155942463Y-93793169D01*
X155811675Y-94108919D01*
X155745000Y-94444117D01*
X155745000Y-94785883D01*
X155811675Y-95121081D01*
X155942463Y-95436831D01*
X156098261Y-95670000D01*
X156063740Y-95670000D01*
X155776842Y-95727068D01*
X155506589Y-95839010D01*
X155263368Y-96001525D01*
X155056525Y-96208368D01*
X154894010Y-96451589D01*
X154782068Y-96721842D01*
X154725000Y-97008740D01*
X154725000Y-97301260D01*
X154782068Y-97588158D01*
X154894010Y-97858411D01*
X155056525Y-98101632D01*
X155263368Y-98308475D01*
X155506589Y-98470990D01*
X155776842Y-98582932D01*
X156063740Y-98640000D01*
X156356260Y-98640000D01*
X156643158Y-98582932D01*
X156913411Y-98470990D01*
X157156632Y-98308475D01*
X157363475Y-98101632D01*
X157525990Y-97858411D01*
X157637932Y-97588158D01*
X157695000Y-97301260D01*
X157695000Y-97008740D01*
X157637932Y-96721842D01*
X157525990Y-96451589D01*
X157458110Y-96350000D01*
X157650883Y-96350000D01*
X157986081Y-96283325D01*
X158301831Y-96152537D01*
X158585998Y-95962663D01*
X158827663Y-95720998D01*
X159017537Y-95436831D01*
X159043148Y-95375000D01*
X159343547Y-95375000D01*
X159243262Y-95475285D01*
X158954893Y-95906859D01*
X158756261Y-96386399D01*
X158655000Y-96895475D01*
X158655000Y-97414525D01*
X158756261Y-97923601D01*
X158954893Y-98403141D01*
X159243262Y-98834715D01*
X159610285Y-99201738D01*
X160041859Y-99490107D01*
X160521399Y-99688739D01*
X161030475Y-99790000D01*
X161549525Y-99790000D01*
X162058601Y-99688739D01*
X162538141Y-99490107D01*
X162969715Y-99201738D01*
X163336738Y-98834715D01*
X163625107Y-98403141D01*
X163823739Y-97923601D01*
X163925000Y-97414525D01*
X163925000Y-97008740D01*
X164885000Y-97008740D01*
X164885000Y-97301260D01*
X164942068Y-97588158D01*
X165054010Y-97858411D01*
X165216525Y-98101632D01*
X165423368Y-98308475D01*
X165666589Y-98470990D01*
X165936842Y-98582932D01*
X166223740Y-98640000D01*
X166516260Y-98640000D01*
X166803158Y-98582932D01*
X167073411Y-98470990D01*
X167316632Y-98308475D01*
X167523475Y-98101632D01*
X167685990Y-97858411D01*
X167797932Y-97588158D01*
X167855000Y-97301260D01*
X167855000Y-97008740D01*
X167797932Y-96721842D01*
X167685990Y-96451589D01*
X167523475Y-96208368D01*
X167316632Y-96001525D01*
X167073411Y-95839010D01*
X166803158Y-95727068D01*
X166516260Y-95670000D01*
X166223740Y-95670000D01*
X165936842Y-95727068D01*
X165666589Y-95839010D01*
X165423368Y-96001525D01*
X165216525Y-96208368D01*
X165054010Y-96451589D01*
X164942068Y-96721842D01*
X164885000Y-97008740D01*
X163925000Y-97008740D01*
X163925000Y-96895475D01*
X163823739Y-96386399D01*
X163625107Y-95906859D01*
X163336738Y-95475285D01*
X163236453Y-95375000D01*
X172590478Y-95375000D01*
X172627800Y-95378676D01*
X172665122Y-95375000D01*
X172665133Y-95375000D01*
X172776786Y-95364003D01*
X172920047Y-95320546D01*
X173052076Y-95249974D01*
X173167801Y-95155001D01*
X173191604Y-95125997D01*
X175213900Y-93103702D01*
X176157286Y-94047088D01*
X176131675Y-94108919D01*
X176065000Y-94444117D01*
X176065000Y-94785883D01*
X176131675Y-95121081D01*
X176262463Y-95436831D01*
X176418261Y-95670000D01*
X176383740Y-95670000D01*
X176096842Y-95727068D01*
X175826589Y-95839010D01*
X175583368Y-96001525D01*
X175376525Y-96208368D01*
X175214010Y-96451589D01*
X175102068Y-96721842D01*
X175045000Y-97008740D01*
X175045000Y-97301260D01*
X175102068Y-97588158D01*
X175214010Y-97858411D01*
X175376525Y-98101632D01*
X175583368Y-98308475D01*
X175826589Y-98470990D01*
X176096842Y-98582932D01*
X176383740Y-98640000D01*
X176676260Y-98640000D01*
X176963158Y-98582932D01*
X177233411Y-98470990D01*
X177476632Y-98308475D01*
X177683475Y-98101632D01*
X177845990Y-97858411D01*
X177957932Y-97588158D01*
X178015000Y-97301260D01*
X178015000Y-97008740D01*
X177957932Y-96721842D01*
X177845990Y-96451589D01*
X177778110Y-96350000D01*
X177970883Y-96350000D01*
X178306081Y-96283325D01*
X178621831Y-96152537D01*
X178905998Y-95962663D01*
X179147663Y-95720998D01*
X179337537Y-95436831D01*
X179363148Y-95375000D01*
X179663547Y-95375000D01*
X179563262Y-95475285D01*
X179274893Y-95906859D01*
X179076261Y-96386399D01*
X178975000Y-96895475D01*
X178975000Y-97414525D01*
X179076261Y-97923601D01*
X179274893Y-98403141D01*
X179563262Y-98834715D01*
X179930285Y-99201738D01*
X180361859Y-99490107D01*
X180841399Y-99688739D01*
X181350475Y-99790000D01*
X181869525Y-99790000D01*
X182378601Y-99688739D01*
X182858141Y-99490107D01*
X183289715Y-99201738D01*
X183656738Y-98834715D01*
X183945107Y-98403141D01*
X184143739Y-97923601D01*
X184245000Y-97414525D01*
X184245000Y-97008740D01*
X185205000Y-97008740D01*
X185205000Y-97301260D01*
X185262068Y-97588158D01*
X185374010Y-97858411D01*
X185536525Y-98101632D01*
X185743368Y-98308475D01*
X185986589Y-98470990D01*
X186256842Y-98582932D01*
X186543740Y-98640000D01*
X186836260Y-98640000D01*
X187123158Y-98582932D01*
X187393411Y-98470990D01*
X187636632Y-98308475D01*
X187843475Y-98101632D01*
X188005990Y-97858411D01*
X188117932Y-97588158D01*
X188135268Y-97501000D01*
X188826928Y-97501000D01*
X188839188Y-97625482D01*
X188875498Y-97745180D01*
X188934463Y-97855494D01*
X189013815Y-97952185D01*
X189110506Y-98031537D01*
X189220820Y-98090502D01*
X189340518Y-98126812D01*
X189465000Y-98139072D01*
X189579250Y-98136000D01*
X189738000Y-97977250D01*
X189738000Y-97028000D01*
X188988750Y-97028000D01*
X188830000Y-97186750D01*
X188826928Y-97501000D01*
X188135268Y-97501000D01*
X188175000Y-97301260D01*
X188175000Y-97008740D01*
X188117932Y-96721842D01*
X188005990Y-96451589D01*
X187843475Y-96208368D01*
X187636632Y-96001525D01*
X187393411Y-95839010D01*
X187123158Y-95727068D01*
X186836260Y-95670000D01*
X186543740Y-95670000D01*
X186256842Y-95727068D01*
X185986589Y-95839010D01*
X185743368Y-96001525D01*
X185536525Y-96208368D01*
X185374010Y-96451589D01*
X185262068Y-96721842D01*
X185205000Y-97008740D01*
X184245000Y-97008740D01*
X184245000Y-96895475D01*
X184143739Y-96386399D01*
X183945107Y-95906859D01*
X183656738Y-95475285D01*
X183556453Y-95375000D01*
X188570899Y-95375000D01*
X188575896Y-95379997D01*
X188599699Y-95409001D01*
X188715424Y-95503974D01*
X188836760Y-95568830D01*
X188839188Y-95593482D01*
X188875498Y-95713180D01*
X188934463Y-95823494D01*
X188984940Y-95885000D01*
X188934463Y-95946506D01*
X188875498Y-96056820D01*
X188839188Y-96176518D01*
X188826928Y-96301000D01*
X188830000Y-96615250D01*
X188988750Y-96774000D01*
X189738000Y-96774000D01*
X189738000Y-96754000D01*
X189992000Y-96754000D01*
X189992000Y-96774000D01*
X190012000Y-96774000D01*
X190012000Y-97028000D01*
X189992000Y-97028000D01*
X189992000Y-97977250D01*
X190150750Y-98136000D01*
X190265000Y-98139072D01*
X190373000Y-98128435D01*
X190373000Y-104722394D01*
X189177394Y-105918000D01*
X133402606Y-105918000D01*
X132207000Y-104722394D01*
X132207000Y-97008740D01*
X134405000Y-97008740D01*
X134405000Y-97301260D01*
X134462068Y-97588158D01*
X134574010Y-97858411D01*
X134736525Y-98101632D01*
X134943368Y-98308475D01*
X135186589Y-98470990D01*
X135456842Y-98582932D01*
X135743740Y-98640000D01*
X136036260Y-98640000D01*
X136323158Y-98582932D01*
X136593411Y-98470990D01*
X136836632Y-98308475D01*
X137043475Y-98101632D01*
X137205990Y-97858411D01*
X137317932Y-97588158D01*
X137375000Y-97301260D01*
X137375000Y-97008740D01*
X137352471Y-96895475D01*
X138335000Y-96895475D01*
X138335000Y-97414525D01*
X138436261Y-97923601D01*
X138634893Y-98403141D01*
X138923262Y-98834715D01*
X139290285Y-99201738D01*
X139721859Y-99490107D01*
X140201399Y-99688739D01*
X140710475Y-99790000D01*
X141229525Y-99790000D01*
X141738601Y-99688739D01*
X142218141Y-99490107D01*
X142649715Y-99201738D01*
X143016738Y-98834715D01*
X143305107Y-98403141D01*
X143503739Y-97923601D01*
X143605000Y-97414525D01*
X143605000Y-97008740D01*
X144565000Y-97008740D01*
X144565000Y-97301260D01*
X144622068Y-97588158D01*
X144734010Y-97858411D01*
X144896525Y-98101632D01*
X145103368Y-98308475D01*
X145346589Y-98470990D01*
X145616842Y-98582932D01*
X145903740Y-98640000D01*
X146196260Y-98640000D01*
X146483158Y-98582932D01*
X146753411Y-98470990D01*
X146996632Y-98308475D01*
X147203475Y-98101632D01*
X147365990Y-97858411D01*
X147477932Y-97588158D01*
X147535000Y-97301260D01*
X147535000Y-97008740D01*
X147477932Y-96721842D01*
X147365990Y-96451589D01*
X147203475Y-96208368D01*
X146996632Y-96001525D01*
X146753411Y-95839010D01*
X146483158Y-95727068D01*
X146196260Y-95670000D01*
X145903740Y-95670000D01*
X145616842Y-95727068D01*
X145346589Y-95839010D01*
X145103368Y-96001525D01*
X144896525Y-96208368D01*
X144734010Y-96451589D01*
X144622068Y-96721842D01*
X144565000Y-97008740D01*
X143605000Y-97008740D01*
X143605000Y-96895475D01*
X143503739Y-96386399D01*
X143305107Y-95906859D01*
X143016738Y-95475285D01*
X142649715Y-95108262D01*
X142218141Y-94819893D01*
X141738601Y-94621261D01*
X141229525Y-94520000D01*
X140710475Y-94520000D01*
X140201399Y-94621261D01*
X139721859Y-94819893D01*
X139290285Y-95108262D01*
X138923262Y-95475285D01*
X138634893Y-95906859D01*
X138436261Y-96386399D01*
X138335000Y-96895475D01*
X137352471Y-96895475D01*
X137317932Y-96721842D01*
X137205990Y-96451589D01*
X137138110Y-96350000D01*
X137330883Y-96350000D01*
X137666081Y-96283325D01*
X137981831Y-96152537D01*
X138265998Y-95962663D01*
X138507663Y-95720998D01*
X138697537Y-95436831D01*
X138828325Y-95121081D01*
X138895000Y-94785883D01*
X138895000Y-94444117D01*
X138828325Y-94108919D01*
X138697537Y-93793169D01*
X138507663Y-93509002D01*
X138265998Y-93267337D01*
X137981831Y-93077463D01*
X137666081Y-92946675D01*
X137330883Y-92880000D01*
X136989117Y-92880000D01*
X136653919Y-92946675D01*
X136338169Y-93077463D01*
X136054002Y-93267337D01*
X135812337Y-93509002D01*
X135622463Y-93793169D01*
X135491675Y-94108919D01*
X135425000Y-94444117D01*
X135425000Y-94785883D01*
X135491675Y-95121081D01*
X135622463Y-95436831D01*
X135778261Y-95670000D01*
X135743740Y-95670000D01*
X135456842Y-95727068D01*
X135186589Y-95839010D01*
X134943368Y-96001525D01*
X134736525Y-96208368D01*
X134574010Y-96451589D01*
X134462068Y-96721842D01*
X134405000Y-97008740D01*
X132207000Y-97008740D01*
X132207000Y-76688740D01*
X134405000Y-76688740D01*
X134405000Y-76981260D01*
X134462068Y-77268158D01*
X134574010Y-77538411D01*
X134736525Y-77781632D01*
X134943368Y-77988475D01*
X135186589Y-78150990D01*
X135456842Y-78262932D01*
X135743740Y-78320000D01*
X136036260Y-78320000D01*
X136323158Y-78262932D01*
X136593411Y-78150990D01*
X136836632Y-77988475D01*
X137043475Y-77781632D01*
X137205990Y-77538411D01*
X137317932Y-77268158D01*
X137375000Y-76981260D01*
X137375000Y-76688740D01*
X137317932Y-76401842D01*
X137205990Y-76131589D01*
X137138110Y-76030000D01*
X137330883Y-76030000D01*
X137666081Y-75963325D01*
X137981831Y-75832537D01*
X138265998Y-75642663D01*
X138507663Y-75400998D01*
X138697537Y-75116831D01*
X138828325Y-74801081D01*
X138895000Y-74465883D01*
X138895000Y-74124117D01*
X138828325Y-73788919D01*
X138697537Y-73473169D01*
X138507663Y-73189002D01*
X138265998Y-72947337D01*
X137981831Y-72757463D01*
X137666081Y-72626675D01*
X137330883Y-72560000D01*
X136989117Y-72560000D01*
X136653919Y-72626675D01*
X136338169Y-72757463D01*
X136054002Y-72947337D01*
X135812337Y-73189002D01*
X135622463Y-73473169D01*
X135491675Y-73788919D01*
X135425000Y-74124117D01*
X135425000Y-74465883D01*
X135491675Y-74801081D01*
X135622463Y-75116831D01*
X135778261Y-75350000D01*
X135743740Y-75350000D01*
X135456842Y-75407068D01*
X135186589Y-75519010D01*
X134943368Y-75681525D01*
X134736525Y-75888368D01*
X134574010Y-76131589D01*
X134462068Y-76401842D01*
X134405000Y-76688740D01*
X132207000Y-76688740D01*
X132207000Y-56368740D01*
X134405000Y-56368740D01*
X134405000Y-56661260D01*
X134462068Y-56948158D01*
X134574010Y-57218411D01*
X134736525Y-57461632D01*
X134943368Y-57668475D01*
X135186589Y-57830990D01*
X135456842Y-57942932D01*
X135743740Y-58000000D01*
X136036260Y-58000000D01*
X136323158Y-57942932D01*
X136593411Y-57830990D01*
X136836632Y-57668475D01*
X137043475Y-57461632D01*
X137205990Y-57218411D01*
X137317932Y-56948158D01*
X137375000Y-56661260D01*
X137375000Y-56368740D01*
X137317932Y-56081842D01*
X137205990Y-55811589D01*
X137138110Y-55710000D01*
X137330883Y-55710000D01*
X137666081Y-55643325D01*
X137981831Y-55512537D01*
X138265998Y-55322663D01*
X138507663Y-55080998D01*
X138697537Y-54796831D01*
X138828325Y-54481081D01*
X138895000Y-54145883D01*
X138895000Y-53804117D01*
X138828325Y-53468919D01*
X138697537Y-53153169D01*
X138507663Y-52869002D01*
X138265998Y-52627337D01*
X137981831Y-52437463D01*
X137666081Y-52306675D01*
X137330883Y-52240000D01*
X136989117Y-52240000D01*
X136653919Y-52306675D01*
X136338169Y-52437463D01*
X136054002Y-52627337D01*
X135812337Y-52869002D01*
X135622463Y-53153169D01*
X135491675Y-53468919D01*
X135425000Y-53804117D01*
X135425000Y-54145883D01*
X135491675Y-54481081D01*
X135622463Y-54796831D01*
X135778261Y-55030000D01*
X135743740Y-55030000D01*
X135456842Y-55087068D01*
X135186589Y-55199010D01*
X134943368Y-55361525D01*
X134736525Y-55568368D01*
X134574010Y-55811589D01*
X134462068Y-56081842D01*
X134405000Y-56368740D01*
X132207000Y-56368740D01*
X132207000Y-45720000D01*
X132204560Y-45695224D01*
X132197333Y-45671399D01*
X132185597Y-45649443D01*
X132169803Y-45630197D01*
X132150557Y-45614403D01*
X132128601Y-45602667D01*
X132104776Y-45595440D01*
X132080000Y-45593000D01*
X127687606Y-45593000D01*
X126492000Y-44397394D01*
X126492000Y-27992606D01*
X127687606Y-26797000D01*
X189177394Y-26797000D01*
X190373000Y-27992606D01*
G36*
X182481675Y-71248919D02*
G01*
X182415000Y-71584117D01*
X182415000Y-71925883D01*
X182481675Y-72261081D01*
X182612463Y-72576831D01*
X182802337Y-72860998D01*
X183044002Y-73102663D01*
X183328169Y-73292537D01*
X183390001Y-73318149D01*
X183390001Y-74888548D01*
X183289715Y-74788262D01*
X182858141Y-74499893D01*
X182378601Y-74301261D01*
X181869525Y-74200000D01*
X181350475Y-74200000D01*
X180841399Y-74301261D01*
X180361859Y-74499893D01*
X179930285Y-74788262D01*
X179563262Y-75155285D01*
X179274893Y-75586859D01*
X179076261Y-76066399D01*
X178975000Y-76575475D01*
X178975000Y-77094525D01*
X179076261Y-77603601D01*
X179274893Y-78083141D01*
X179563262Y-78514715D01*
X179930285Y-78881738D01*
X180361859Y-79170107D01*
X180841399Y-79368739D01*
X181350475Y-79470000D01*
X181869525Y-79470000D01*
X182378601Y-79368739D01*
X182858141Y-79170107D01*
X183289715Y-78881738D01*
X183390001Y-78781452D01*
X183390000Y-90511852D01*
X183328169Y-90537463D01*
X183044002Y-90727337D01*
X182802337Y-90969002D01*
X182612463Y-91253169D01*
X182481675Y-91568919D01*
X182415000Y-91904117D01*
X182415000Y-92245883D01*
X182481675Y-92581081D01*
X182612463Y-92896831D01*
X182802337Y-93180998D01*
X183044002Y-93422663D01*
X183328169Y-93612537D01*
X183643919Y-93743325D01*
X183979117Y-93810000D01*
X184320883Y-93810000D01*
X184656081Y-93743325D01*
X184971831Y-93612537D01*
X185255998Y-93422663D01*
X185497663Y-93180998D01*
X185687537Y-92896831D01*
X185818325Y-92581081D01*
X185885000Y-92245883D01*
X185885000Y-91904117D01*
X185818325Y-91568919D01*
X185687537Y-91253169D01*
X185497663Y-90969002D01*
X185255998Y-90727337D01*
X184971831Y-90537463D01*
X184910000Y-90511852D01*
X184910000Y-76688740D01*
X185205000Y-76688740D01*
X185205000Y-76981260D01*
X185262068Y-77268158D01*
X185374010Y-77538411D01*
X185536525Y-77781632D01*
X185743368Y-77988475D01*
X185986589Y-78150990D01*
X186256842Y-78262932D01*
X186543740Y-78320000D01*
X186836260Y-78320000D01*
X187123158Y-78262932D01*
X187393411Y-78150990D01*
X187636632Y-77988475D01*
X187843475Y-77781632D01*
X188005990Y-77538411D01*
X188117932Y-77268158D01*
X188135268Y-77181000D01*
X188826928Y-77181000D01*
X188839188Y-77305482D01*
X188875498Y-77425180D01*
X188934463Y-77535494D01*
X189013815Y-77632185D01*
X189110506Y-77711537D01*
X189220820Y-77770502D01*
X189340518Y-77806812D01*
X189465000Y-77819072D01*
X189579250Y-77816000D01*
X189738000Y-77657250D01*
X189738000Y-76708000D01*
X188988750Y-76708000D01*
X188830000Y-76866750D01*
X188826928Y-77181000D01*
X188135268Y-77181000D01*
X188175000Y-76981260D01*
X188175000Y-76688740D01*
X188117932Y-76401842D01*
X188005990Y-76131589D01*
X187843475Y-75888368D01*
X187636632Y-75681525D01*
X187393411Y-75519010D01*
X187123158Y-75407068D01*
X186836260Y-75350000D01*
X186543740Y-75350000D01*
X186256842Y-75407068D01*
X185986589Y-75519010D01*
X185743368Y-75681525D01*
X185536525Y-75888368D01*
X185374010Y-76131589D01*
X185262068Y-76401842D01*
X185205000Y-76688740D01*
X184910000Y-76688740D01*
X184910000Y-73318148D01*
X184971831Y-73292537D01*
X185255998Y-73102663D01*
X185497663Y-72860998D01*
X185687537Y-72576831D01*
X185806215Y-72290317D01*
X188575901Y-75060003D01*
X188599699Y-75089001D01*
X188628697Y-75112799D01*
X188715424Y-75183974D01*
X188836760Y-75248830D01*
X188839188Y-75273482D01*
X188875498Y-75393180D01*
X188934463Y-75503494D01*
X188984940Y-75565000D01*
X188934463Y-75626506D01*
X188875498Y-75736820D01*
X188839188Y-75856518D01*
X188826928Y-75981000D01*
X188830000Y-76295250D01*
X188988750Y-76454000D01*
X189738000Y-76454000D01*
X189738000Y-76434000D01*
X189992000Y-76434000D01*
X189992000Y-76454000D01*
X190012000Y-76454000D01*
X190012000Y-76708000D01*
X189992000Y-76708000D01*
X189992000Y-77657250D01*
X190150750Y-77816000D01*
X190265000Y-77819072D01*
X190373000Y-77808435D01*
X190373000Y-93641565D01*
X190265000Y-93630928D01*
X189465000Y-93630928D01*
X189340518Y-93643188D01*
X189220820Y-93679498D01*
X189110506Y-93738463D01*
X189013815Y-93817815D01*
X188978791Y-93860492D01*
X188923033Y-93855000D01*
X188923022Y-93855000D01*
X188885700Y-93851324D01*
X188848378Y-93855000D01*
X179363148Y-93855000D01*
X179337537Y-93793169D01*
X179147663Y-93509002D01*
X178905998Y-93267337D01*
X178621831Y-93077463D01*
X178306081Y-92946675D01*
X177970883Y-92880000D01*
X177629117Y-92880000D01*
X177293919Y-92946675D01*
X177232088Y-92972286D01*
X175973900Y-91714099D01*
X175973900Y-78212008D01*
X176096842Y-78262932D01*
X176383740Y-78320000D01*
X176676260Y-78320000D01*
X176963158Y-78262932D01*
X177233411Y-78150990D01*
X177476632Y-77988475D01*
X177683475Y-77781632D01*
X177845990Y-77538411D01*
X177957932Y-77268158D01*
X178015000Y-76981260D01*
X178015000Y-76688740D01*
X177957932Y-76401842D01*
X177845990Y-76131589D01*
X177778110Y-76030000D01*
X177970883Y-76030000D01*
X178306081Y-75963325D01*
X178621831Y-75832537D01*
X178905998Y-75642663D01*
X179147663Y-75400998D01*
X179337537Y-75116831D01*
X179468325Y-74801081D01*
X179535000Y-74465883D01*
X179535000Y-74124117D01*
X179468325Y-73788919D01*
X179442714Y-73727088D01*
X182102702Y-71067100D01*
X182556987Y-71067100D01*
X182481675Y-71248919D01*
G37*
X182481675Y-71248919D02*
X182415000Y-71584117D01*
X182415000Y-71925883D01*
X182481675Y-72261081D01*
X182612463Y-72576831D01*
X182802337Y-72860998D01*
X183044002Y-73102663D01*
X183328169Y-73292537D01*
X183390001Y-73318149D01*
X183390001Y-74888548D01*
X183289715Y-74788262D01*
X182858141Y-74499893D01*
X182378601Y-74301261D01*
X181869525Y-74200000D01*
X181350475Y-74200000D01*
X180841399Y-74301261D01*
X180361859Y-74499893D01*
X179930285Y-74788262D01*
X179563262Y-75155285D01*
X179274893Y-75586859D01*
X179076261Y-76066399D01*
X178975000Y-76575475D01*
X178975000Y-77094525D01*
X179076261Y-77603601D01*
X179274893Y-78083141D01*
X179563262Y-78514715D01*
X179930285Y-78881738D01*
X180361859Y-79170107D01*
X180841399Y-79368739D01*
X181350475Y-79470000D01*
X181869525Y-79470000D01*
X182378601Y-79368739D01*
X182858141Y-79170107D01*
X183289715Y-78881738D01*
X183390001Y-78781452D01*
X183390000Y-90511852D01*
X183328169Y-90537463D01*
X183044002Y-90727337D01*
X182802337Y-90969002D01*
X182612463Y-91253169D01*
X182481675Y-91568919D01*
X182415000Y-91904117D01*
X182415000Y-92245883D01*
X182481675Y-92581081D01*
X182612463Y-92896831D01*
X182802337Y-93180998D01*
X183044002Y-93422663D01*
X183328169Y-93612537D01*
X183643919Y-93743325D01*
X183979117Y-93810000D01*
X184320883Y-93810000D01*
X184656081Y-93743325D01*
X184971831Y-93612537D01*
X185255998Y-93422663D01*
X185497663Y-93180998D01*
X185687537Y-92896831D01*
X185818325Y-92581081D01*
X185885000Y-92245883D01*
X185885000Y-91904117D01*
X185818325Y-91568919D01*
X185687537Y-91253169D01*
X185497663Y-90969002D01*
X185255998Y-90727337D01*
X184971831Y-90537463D01*
X184910000Y-90511852D01*
X184910000Y-76688740D01*
X185205000Y-76688740D01*
X185205000Y-76981260D01*
X185262068Y-77268158D01*
X185374010Y-77538411D01*
X185536525Y-77781632D01*
X185743368Y-77988475D01*
X185986589Y-78150990D01*
X186256842Y-78262932D01*
X186543740Y-78320000D01*
X186836260Y-78320000D01*
X187123158Y-78262932D01*
X187393411Y-78150990D01*
X187636632Y-77988475D01*
X187843475Y-77781632D01*
X188005990Y-77538411D01*
X188117932Y-77268158D01*
X188135268Y-77181000D01*
X188826928Y-77181000D01*
X188839188Y-77305482D01*
X188875498Y-77425180D01*
X188934463Y-77535494D01*
X189013815Y-77632185D01*
X189110506Y-77711537D01*
X189220820Y-77770502D01*
X189340518Y-77806812D01*
X189465000Y-77819072D01*
X189579250Y-77816000D01*
X189738000Y-77657250D01*
X189738000Y-76708000D01*
X188988750Y-76708000D01*
X188830000Y-76866750D01*
X188826928Y-77181000D01*
X188135268Y-77181000D01*
X188175000Y-76981260D01*
X188175000Y-76688740D01*
X188117932Y-76401842D01*
X188005990Y-76131589D01*
X187843475Y-75888368D01*
X187636632Y-75681525D01*
X187393411Y-75519010D01*
X187123158Y-75407068D01*
X186836260Y-75350000D01*
X186543740Y-75350000D01*
X186256842Y-75407068D01*
X185986589Y-75519010D01*
X185743368Y-75681525D01*
X185536525Y-75888368D01*
X185374010Y-76131589D01*
X185262068Y-76401842D01*
X185205000Y-76688740D01*
X184910000Y-76688740D01*
X184910000Y-73318148D01*
X184971831Y-73292537D01*
X185255998Y-73102663D01*
X185497663Y-72860998D01*
X185687537Y-72576831D01*
X185806215Y-72290317D01*
X188575901Y-75060003D01*
X188599699Y-75089001D01*
X188628697Y-75112799D01*
X188715424Y-75183974D01*
X188836760Y-75248830D01*
X188839188Y-75273482D01*
X188875498Y-75393180D01*
X188934463Y-75503494D01*
X188984940Y-75565000D01*
X188934463Y-75626506D01*
X188875498Y-75736820D01*
X188839188Y-75856518D01*
X188826928Y-75981000D01*
X188830000Y-76295250D01*
X188988750Y-76454000D01*
X189738000Y-76454000D01*
X189738000Y-76434000D01*
X189992000Y-76434000D01*
X189992000Y-76454000D01*
X190012000Y-76454000D01*
X190012000Y-76708000D01*
X189992000Y-76708000D01*
X189992000Y-77657250D01*
X190150750Y-77816000D01*
X190265000Y-77819072D01*
X190373000Y-77808435D01*
X190373000Y-93641565D01*
X190265000Y-93630928D01*
X189465000Y-93630928D01*
X189340518Y-93643188D01*
X189220820Y-93679498D01*
X189110506Y-93738463D01*
X189013815Y-93817815D01*
X188978791Y-93860492D01*
X188923033Y-93855000D01*
X188923022Y-93855000D01*
X188885700Y-93851324D01*
X188848378Y-93855000D01*
X179363148Y-93855000D01*
X179337537Y-93793169D01*
X179147663Y-93509002D01*
X178905998Y-93267337D01*
X178621831Y-93077463D01*
X178306081Y-92946675D01*
X177970883Y-92880000D01*
X177629117Y-92880000D01*
X177293919Y-92946675D01*
X177232088Y-92972286D01*
X175973900Y-91714099D01*
X175973900Y-78212008D01*
X176096842Y-78262932D01*
X176383740Y-78320000D01*
X176676260Y-78320000D01*
X176963158Y-78262932D01*
X177233411Y-78150990D01*
X177476632Y-77988475D01*
X177683475Y-77781632D01*
X177845990Y-77538411D01*
X177957932Y-77268158D01*
X178015000Y-76981260D01*
X178015000Y-76688740D01*
X177957932Y-76401842D01*
X177845990Y-76131589D01*
X177778110Y-76030000D01*
X177970883Y-76030000D01*
X178306081Y-75963325D01*
X178621831Y-75832537D01*
X178905998Y-75642663D01*
X179147663Y-75400998D01*
X179337537Y-75116831D01*
X179468325Y-74801081D01*
X179535000Y-74465883D01*
X179535000Y-74124117D01*
X179468325Y-73788919D01*
X179442714Y-73727088D01*
X182102702Y-71067100D01*
X182556987Y-71067100D01*
X182481675Y-71248919D01*
G36*
X171319463Y-54829494D02*
G01*
X171398815Y-54926185D01*
X171495506Y-55005537D01*
X171605820Y-55064502D01*
X171725518Y-55100812D01*
X171850000Y-55113072D01*
X174360000Y-55113072D01*
X174484482Y-55100812D01*
X174604180Y-55064502D01*
X174714494Y-55005537D01*
X174811185Y-54926185D01*
X174890537Y-54829494D01*
X174941046Y-54735000D01*
X176236852Y-54735000D01*
X176262463Y-54796831D01*
X176418261Y-55030000D01*
X176383740Y-55030000D01*
X176096842Y-55087068D01*
X175826589Y-55199010D01*
X175583368Y-55361525D01*
X175376525Y-55568368D01*
X175214010Y-55811589D01*
X175102068Y-56081842D01*
X175045000Y-56368740D01*
X175045000Y-56661260D01*
X175102068Y-56948158D01*
X175214010Y-57218411D01*
X175376525Y-57461632D01*
X175583368Y-57668475D01*
X175826589Y-57830990D01*
X176096842Y-57942932D01*
X176383740Y-58000000D01*
X176676260Y-58000000D01*
X176963158Y-57942932D01*
X177233411Y-57830990D01*
X177476632Y-57668475D01*
X177683475Y-57461632D01*
X177845990Y-57218411D01*
X177957932Y-56948158D01*
X178015000Y-56661260D01*
X178015000Y-56368740D01*
X177957932Y-56081842D01*
X177845990Y-55811589D01*
X177778110Y-55710000D01*
X177970883Y-55710000D01*
X178306081Y-55643325D01*
X178621831Y-55512537D01*
X178905998Y-55322663D01*
X179147663Y-55080998D01*
X179337537Y-54796831D01*
X179363148Y-54735000D01*
X179663547Y-54735000D01*
X179563262Y-54835285D01*
X179274893Y-55266859D01*
X179076261Y-55746399D01*
X178975000Y-56255475D01*
X178975000Y-56774525D01*
X179076261Y-57283601D01*
X179274893Y-57763141D01*
X179563262Y-58194715D01*
X179930285Y-58561738D01*
X180361859Y-58850107D01*
X180841399Y-59048739D01*
X181350475Y-59150000D01*
X181869525Y-59150000D01*
X182378601Y-59048739D01*
X182858141Y-58850107D01*
X183289715Y-58561738D01*
X183656738Y-58194715D01*
X183945107Y-57763141D01*
X184143739Y-57283601D01*
X184245000Y-56774525D01*
X184245000Y-56368740D01*
X185205000Y-56368740D01*
X185205000Y-56661260D01*
X185262068Y-56948158D01*
X185374010Y-57218411D01*
X185536525Y-57461632D01*
X185743368Y-57668475D01*
X185986589Y-57830990D01*
X186256842Y-57942932D01*
X186543740Y-58000000D01*
X186836260Y-58000000D01*
X187123158Y-57942932D01*
X187393411Y-57830990D01*
X187636632Y-57668475D01*
X187843475Y-57461632D01*
X188005990Y-57218411D01*
X188117932Y-56948158D01*
X188135268Y-56861000D01*
X188826928Y-56861000D01*
X188839188Y-56985482D01*
X188875498Y-57105180D01*
X188934463Y-57215494D01*
X189013815Y-57312185D01*
X189110506Y-57391537D01*
X189220820Y-57450502D01*
X189340518Y-57486812D01*
X189465000Y-57499072D01*
X189579250Y-57496000D01*
X189738000Y-57337250D01*
X189738000Y-56388000D01*
X188988750Y-56388000D01*
X188830000Y-56546750D01*
X188826928Y-56861000D01*
X188135268Y-56861000D01*
X188175000Y-56661260D01*
X188175000Y-56368740D01*
X188117932Y-56081842D01*
X188005990Y-55811589D01*
X187843475Y-55568368D01*
X187636632Y-55361525D01*
X187393411Y-55199010D01*
X187123158Y-55087068D01*
X186836260Y-55030000D01*
X186543740Y-55030000D01*
X186256842Y-55087068D01*
X185986589Y-55199010D01*
X185743368Y-55361525D01*
X185536525Y-55568368D01*
X185374010Y-55811589D01*
X185262068Y-56081842D01*
X185205000Y-56368740D01*
X184245000Y-56368740D01*
X184245000Y-56255475D01*
X184143739Y-55746399D01*
X183945107Y-55266859D01*
X183656738Y-54835285D01*
X183556453Y-54735000D01*
X188570899Y-54735000D01*
X188575896Y-54739997D01*
X188599699Y-54769001D01*
X188715424Y-54863974D01*
X188836760Y-54928830D01*
X188839188Y-54953482D01*
X188875498Y-55073180D01*
X188934463Y-55183494D01*
X188984940Y-55245000D01*
X188934463Y-55306506D01*
X188875498Y-55416820D01*
X188839188Y-55536518D01*
X188826928Y-55661000D01*
X188830000Y-55975250D01*
X188988750Y-56134000D01*
X189738000Y-56134000D01*
X189738000Y-56114000D01*
X189992000Y-56114000D01*
X189992000Y-56134000D01*
X190012000Y-56134000D01*
X190012000Y-56388000D01*
X189992000Y-56388000D01*
X189992000Y-57337250D01*
X190150750Y-57496000D01*
X190265000Y-57499072D01*
X190373000Y-57488435D01*
X190373000Y-73321565D01*
X190265000Y-73310928D01*
X189465000Y-73310928D01*
X189340518Y-73323188D01*
X189220820Y-73359498D01*
X189110506Y-73418463D01*
X189095928Y-73430427D01*
X185461604Y-69796103D01*
X185437801Y-69767099D01*
X185322076Y-69672126D01*
X185190047Y-69601554D01*
X185046786Y-69558097D01*
X184935133Y-69547100D01*
X184935122Y-69547100D01*
X184897800Y-69543424D01*
X184860478Y-69547100D01*
X182547900Y-69547100D01*
X182547900Y-65533825D01*
X182551576Y-65496500D01*
X182547900Y-65459175D01*
X182547900Y-65459167D01*
X182536903Y-65347514D01*
X182493446Y-65204253D01*
X182422874Y-65072224D01*
X182327901Y-64956499D01*
X182298904Y-64932702D01*
X175076704Y-57710503D01*
X175052901Y-57681499D01*
X174937176Y-57586526D01*
X174805147Y-57515954D01*
X174661886Y-57472497D01*
X174550233Y-57461500D01*
X174550222Y-57461500D01*
X174512900Y-57457824D01*
X174475578Y-57461500D01*
X172135300Y-57461500D01*
X172135300Y-56552333D01*
X172138977Y-56515000D01*
X172124303Y-56366014D01*
X172080846Y-56222753D01*
X172010274Y-56090724D01*
X171915301Y-55974999D01*
X171799576Y-55880026D01*
X171667547Y-55809454D01*
X171649567Y-55804000D01*
X171639502Y-55770820D01*
X171580537Y-55660506D01*
X171501185Y-55563815D01*
X171404494Y-55484463D01*
X171294180Y-55425498D01*
X171174482Y-55389188D01*
X171050000Y-55376928D01*
X168540000Y-55376928D01*
X168415518Y-55389188D01*
X168295820Y-55425498D01*
X168185506Y-55484463D01*
X168088815Y-55563815D01*
X168009463Y-55660506D01*
X167950498Y-55770820D01*
X167914188Y-55890518D01*
X167901928Y-56015000D01*
X167901928Y-57015000D01*
X167914188Y-57139482D01*
X167950498Y-57259180D01*
X168009463Y-57369494D01*
X168088815Y-57466185D01*
X168185506Y-57545537D01*
X168295820Y-57604502D01*
X168415518Y-57640812D01*
X168540000Y-57653072D01*
X170615301Y-57653072D01*
X170615301Y-58084468D01*
X170611624Y-58121800D01*
X170615301Y-58159133D01*
X170620932Y-58216299D01*
X170626298Y-58270785D01*
X170669754Y-58414046D01*
X170715000Y-58498695D01*
X170715001Y-59689868D01*
X170711324Y-59727200D01*
X170715001Y-59764533D01*
X170725998Y-59876186D01*
X170733442Y-59900725D01*
X170769454Y-60019446D01*
X170840026Y-60151476D01*
X170895092Y-60218573D01*
X170935000Y-60267201D01*
X170963998Y-60290999D01*
X171138659Y-60465660D01*
X171050000Y-60456928D01*
X170080750Y-60460000D01*
X169922000Y-60618750D01*
X169922000Y-61468000D01*
X171526250Y-61468000D01*
X171685000Y-61309250D01*
X171688072Y-61095000D01*
X171679340Y-61006342D01*
X173669925Y-62996928D01*
X171850000Y-62996928D01*
X171725518Y-63009188D01*
X171605820Y-63045498D01*
X171495506Y-63104463D01*
X171398815Y-63183815D01*
X171319463Y-63280506D01*
X171290722Y-63334277D01*
X171265912Y-63336720D01*
X171113227Y-63383037D01*
X170972511Y-63458251D01*
X170849172Y-63559472D01*
X170823805Y-63590382D01*
X166327088Y-68087100D01*
X160761616Y-68087100D01*
X160775612Y-67945000D01*
X160753215Y-67717600D01*
X160686885Y-67498940D01*
X160585895Y-67310000D01*
X160686885Y-67121060D01*
X160753215Y-66902400D01*
X160775612Y-66675000D01*
X160753215Y-66447600D01*
X160689907Y-66238902D01*
X160724502Y-66174180D01*
X160760812Y-66054482D01*
X160773072Y-65930000D01*
X160770000Y-65690750D01*
X160611250Y-65532000D01*
X159838109Y-65532000D01*
X159837400Y-65531785D01*
X159666979Y-65515000D01*
X159238000Y-65515000D01*
X159238000Y-65278000D01*
X159258000Y-65278000D01*
X159258000Y-64403750D01*
X159512000Y-64403750D01*
X159512000Y-65278000D01*
X160611250Y-65278000D01*
X160770000Y-65119250D01*
X160773072Y-64880000D01*
X160760812Y-64755518D01*
X160724502Y-64635820D01*
X160665537Y-64525506D01*
X160586185Y-64428815D01*
X160489494Y-64349463D01*
X160379180Y-64290498D01*
X160259482Y-64254188D01*
X160135000Y-64241928D01*
X159670750Y-64245000D01*
X159512000Y-64403750D01*
X159258000Y-64403750D01*
X159099250Y-64245000D01*
X159016700Y-64244454D01*
X159016700Y-62095000D01*
X167901928Y-62095000D01*
X167914188Y-62219482D01*
X167950498Y-62339180D01*
X168009463Y-62449494D01*
X168088815Y-62546185D01*
X168185506Y-62625537D01*
X168295820Y-62684502D01*
X168415518Y-62720812D01*
X168540000Y-62733072D01*
X169509250Y-62730000D01*
X169668000Y-62571250D01*
X169668000Y-61722000D01*
X169922000Y-61722000D01*
X169922000Y-62571250D01*
X170080750Y-62730000D01*
X171050000Y-62733072D01*
X171174482Y-62720812D01*
X171294180Y-62684502D01*
X171404494Y-62625537D01*
X171501185Y-62546185D01*
X171580537Y-62449494D01*
X171639502Y-62339180D01*
X171675812Y-62219482D01*
X171688072Y-62095000D01*
X171685000Y-61880750D01*
X171526250Y-61722000D01*
X169922000Y-61722000D01*
X169668000Y-61722000D01*
X168063750Y-61722000D01*
X167905000Y-61880750D01*
X167901928Y-62095000D01*
X159016700Y-62095000D01*
X159016700Y-61095000D01*
X167901928Y-61095000D01*
X167905000Y-61309250D01*
X168063750Y-61468000D01*
X169668000Y-61468000D01*
X169668000Y-60618750D01*
X169509250Y-60460000D01*
X168540000Y-60456928D01*
X168415518Y-60469188D01*
X168295820Y-60505498D01*
X168185506Y-60564463D01*
X168088815Y-60643815D01*
X168009463Y-60740506D01*
X167950498Y-60850820D01*
X167914188Y-60970518D01*
X167901928Y-61095000D01*
X159016700Y-61095000D01*
X159016700Y-57855642D01*
X159243262Y-58194715D01*
X159610285Y-58561738D01*
X160041859Y-58850107D01*
X160521399Y-59048739D01*
X161030475Y-59150000D01*
X161549525Y-59150000D01*
X162058601Y-59048739D01*
X162538141Y-58850107D01*
X162969715Y-58561738D01*
X163336738Y-58194715D01*
X163625107Y-57763141D01*
X163823739Y-57283601D01*
X163925000Y-56774525D01*
X163925000Y-56368740D01*
X164885000Y-56368740D01*
X164885000Y-56661260D01*
X164942068Y-56948158D01*
X165054010Y-57218411D01*
X165216525Y-57461632D01*
X165423368Y-57668475D01*
X165666589Y-57830990D01*
X165936842Y-57942932D01*
X166223740Y-58000000D01*
X166516260Y-58000000D01*
X166803158Y-57942932D01*
X167073411Y-57830990D01*
X167316632Y-57668475D01*
X167523475Y-57461632D01*
X167685990Y-57218411D01*
X167797932Y-56948158D01*
X167855000Y-56661260D01*
X167855000Y-56368740D01*
X167797932Y-56081842D01*
X167685990Y-55811589D01*
X167523475Y-55568368D01*
X167316632Y-55361525D01*
X167073411Y-55199010D01*
X166803158Y-55087068D01*
X166516260Y-55030000D01*
X166223740Y-55030000D01*
X165936842Y-55087068D01*
X165666589Y-55199010D01*
X165423368Y-55361525D01*
X165216525Y-55568368D01*
X165054010Y-55811589D01*
X164942068Y-56081842D01*
X164885000Y-56368740D01*
X163925000Y-56368740D01*
X163925000Y-56255475D01*
X163823739Y-55746399D01*
X163625107Y-55266859D01*
X163336738Y-54835285D01*
X163236453Y-54735000D01*
X171268954Y-54735000D01*
X171319463Y-54829494D01*
G37*
X171319463Y-54829494D02*
X171398815Y-54926185D01*
X171495506Y-55005537D01*
X171605820Y-55064502D01*
X171725518Y-55100812D01*
X171850000Y-55113072D01*
X174360000Y-55113072D01*
X174484482Y-55100812D01*
X174604180Y-55064502D01*
X174714494Y-55005537D01*
X174811185Y-54926185D01*
X174890537Y-54829494D01*
X174941046Y-54735000D01*
X176236852Y-54735000D01*
X176262463Y-54796831D01*
X176418261Y-55030000D01*
X176383740Y-55030000D01*
X176096842Y-55087068D01*
X175826589Y-55199010D01*
X175583368Y-55361525D01*
X175376525Y-55568368D01*
X175214010Y-55811589D01*
X175102068Y-56081842D01*
X175045000Y-56368740D01*
X175045000Y-56661260D01*
X175102068Y-56948158D01*
X175214010Y-57218411D01*
X175376525Y-57461632D01*
X175583368Y-57668475D01*
X175826589Y-57830990D01*
X176096842Y-57942932D01*
X176383740Y-58000000D01*
X176676260Y-58000000D01*
X176963158Y-57942932D01*
X177233411Y-57830990D01*
X177476632Y-57668475D01*
X177683475Y-57461632D01*
X177845990Y-57218411D01*
X177957932Y-56948158D01*
X178015000Y-56661260D01*
X178015000Y-56368740D01*
X177957932Y-56081842D01*
X177845990Y-55811589D01*
X177778110Y-55710000D01*
X177970883Y-55710000D01*
X178306081Y-55643325D01*
X178621831Y-55512537D01*
X178905998Y-55322663D01*
X179147663Y-55080998D01*
X179337537Y-54796831D01*
X179363148Y-54735000D01*
X179663547Y-54735000D01*
X179563262Y-54835285D01*
X179274893Y-55266859D01*
X179076261Y-55746399D01*
X178975000Y-56255475D01*
X178975000Y-56774525D01*
X179076261Y-57283601D01*
X179274893Y-57763141D01*
X179563262Y-58194715D01*
X179930285Y-58561738D01*
X180361859Y-58850107D01*
X180841399Y-59048739D01*
X181350475Y-59150000D01*
X181869525Y-59150000D01*
X182378601Y-59048739D01*
X182858141Y-58850107D01*
X183289715Y-58561738D01*
X183656738Y-58194715D01*
X183945107Y-57763141D01*
X184143739Y-57283601D01*
X184245000Y-56774525D01*
X184245000Y-56368740D01*
X185205000Y-56368740D01*
X185205000Y-56661260D01*
X185262068Y-56948158D01*
X185374010Y-57218411D01*
X185536525Y-57461632D01*
X185743368Y-57668475D01*
X185986589Y-57830990D01*
X186256842Y-57942932D01*
X186543740Y-58000000D01*
X186836260Y-58000000D01*
X187123158Y-57942932D01*
X187393411Y-57830990D01*
X187636632Y-57668475D01*
X187843475Y-57461632D01*
X188005990Y-57218411D01*
X188117932Y-56948158D01*
X188135268Y-56861000D01*
X188826928Y-56861000D01*
X188839188Y-56985482D01*
X188875498Y-57105180D01*
X188934463Y-57215494D01*
X189013815Y-57312185D01*
X189110506Y-57391537D01*
X189220820Y-57450502D01*
X189340518Y-57486812D01*
X189465000Y-57499072D01*
X189579250Y-57496000D01*
X189738000Y-57337250D01*
X189738000Y-56388000D01*
X188988750Y-56388000D01*
X188830000Y-56546750D01*
X188826928Y-56861000D01*
X188135268Y-56861000D01*
X188175000Y-56661260D01*
X188175000Y-56368740D01*
X188117932Y-56081842D01*
X188005990Y-55811589D01*
X187843475Y-55568368D01*
X187636632Y-55361525D01*
X187393411Y-55199010D01*
X187123158Y-55087068D01*
X186836260Y-55030000D01*
X186543740Y-55030000D01*
X186256842Y-55087068D01*
X185986589Y-55199010D01*
X185743368Y-55361525D01*
X185536525Y-55568368D01*
X185374010Y-55811589D01*
X185262068Y-56081842D01*
X185205000Y-56368740D01*
X184245000Y-56368740D01*
X184245000Y-56255475D01*
X184143739Y-55746399D01*
X183945107Y-55266859D01*
X183656738Y-54835285D01*
X183556453Y-54735000D01*
X188570899Y-54735000D01*
X188575896Y-54739997D01*
X188599699Y-54769001D01*
X188715424Y-54863974D01*
X188836760Y-54928830D01*
X188839188Y-54953482D01*
X188875498Y-55073180D01*
X188934463Y-55183494D01*
X188984940Y-55245000D01*
X188934463Y-55306506D01*
X188875498Y-55416820D01*
X188839188Y-55536518D01*
X188826928Y-55661000D01*
X188830000Y-55975250D01*
X188988750Y-56134000D01*
X189738000Y-56134000D01*
X189738000Y-56114000D01*
X189992000Y-56114000D01*
X189992000Y-56134000D01*
X190012000Y-56134000D01*
X190012000Y-56388000D01*
X189992000Y-56388000D01*
X189992000Y-57337250D01*
X190150750Y-57496000D01*
X190265000Y-57499072D01*
X190373000Y-57488435D01*
X190373000Y-73321565D01*
X190265000Y-73310928D01*
X189465000Y-73310928D01*
X189340518Y-73323188D01*
X189220820Y-73359498D01*
X189110506Y-73418463D01*
X189095928Y-73430427D01*
X185461604Y-69796103D01*
X185437801Y-69767099D01*
X185322076Y-69672126D01*
X185190047Y-69601554D01*
X185046786Y-69558097D01*
X184935133Y-69547100D01*
X184935122Y-69547100D01*
X184897800Y-69543424D01*
X184860478Y-69547100D01*
X182547900Y-69547100D01*
X182547900Y-65533825D01*
X182551576Y-65496500D01*
X182547900Y-65459175D01*
X182547900Y-65459167D01*
X182536903Y-65347514D01*
X182493446Y-65204253D01*
X182422874Y-65072224D01*
X182327901Y-64956499D01*
X182298904Y-64932702D01*
X175076704Y-57710503D01*
X175052901Y-57681499D01*
X174937176Y-57586526D01*
X174805147Y-57515954D01*
X174661886Y-57472497D01*
X174550233Y-57461500D01*
X174550222Y-57461500D01*
X174512900Y-57457824D01*
X174475578Y-57461500D01*
X172135300Y-57461500D01*
X172135300Y-56552333D01*
X172138977Y-56515000D01*
X172124303Y-56366014D01*
X172080846Y-56222753D01*
X172010274Y-56090724D01*
X171915301Y-55974999D01*
X171799576Y-55880026D01*
X171667547Y-55809454D01*
X171649567Y-55804000D01*
X171639502Y-55770820D01*
X171580537Y-55660506D01*
X171501185Y-55563815D01*
X171404494Y-55484463D01*
X171294180Y-55425498D01*
X171174482Y-55389188D01*
X171050000Y-55376928D01*
X168540000Y-55376928D01*
X168415518Y-55389188D01*
X168295820Y-55425498D01*
X168185506Y-55484463D01*
X168088815Y-55563815D01*
X168009463Y-55660506D01*
X167950498Y-55770820D01*
X167914188Y-55890518D01*
X167901928Y-56015000D01*
X167901928Y-57015000D01*
X167914188Y-57139482D01*
X167950498Y-57259180D01*
X168009463Y-57369494D01*
X168088815Y-57466185D01*
X168185506Y-57545537D01*
X168295820Y-57604502D01*
X168415518Y-57640812D01*
X168540000Y-57653072D01*
X170615301Y-57653072D01*
X170615301Y-58084468D01*
X170611624Y-58121800D01*
X170615301Y-58159133D01*
X170620932Y-58216299D01*
X170626298Y-58270785D01*
X170669754Y-58414046D01*
X170715000Y-58498695D01*
X170715001Y-59689868D01*
X170711324Y-59727200D01*
X170715001Y-59764533D01*
X170725998Y-59876186D01*
X170733442Y-59900725D01*
X170769454Y-60019446D01*
X170840026Y-60151476D01*
X170895092Y-60218573D01*
X170935000Y-60267201D01*
X170963998Y-60290999D01*
X171138659Y-60465660D01*
X171050000Y-60456928D01*
X170080750Y-60460000D01*
X169922000Y-60618750D01*
X169922000Y-61468000D01*
X171526250Y-61468000D01*
X171685000Y-61309250D01*
X171688072Y-61095000D01*
X171679340Y-61006342D01*
X173669925Y-62996928D01*
X171850000Y-62996928D01*
X171725518Y-63009188D01*
X171605820Y-63045498D01*
X171495506Y-63104463D01*
X171398815Y-63183815D01*
X171319463Y-63280506D01*
X171290722Y-63334277D01*
X171265912Y-63336720D01*
X171113227Y-63383037D01*
X170972511Y-63458251D01*
X170849172Y-63559472D01*
X170823805Y-63590382D01*
X166327088Y-68087100D01*
X160761616Y-68087100D01*
X160775612Y-67945000D01*
X160753215Y-67717600D01*
X160686885Y-67498940D01*
X160585895Y-67310000D01*
X160686885Y-67121060D01*
X160753215Y-66902400D01*
X160775612Y-66675000D01*
X160753215Y-66447600D01*
X160689907Y-66238902D01*
X160724502Y-66174180D01*
X160760812Y-66054482D01*
X160773072Y-65930000D01*
X160770000Y-65690750D01*
X160611250Y-65532000D01*
X159838109Y-65532000D01*
X159837400Y-65531785D01*
X159666979Y-65515000D01*
X159238000Y-65515000D01*
X159238000Y-65278000D01*
X159258000Y-65278000D01*
X159258000Y-64403750D01*
X159512000Y-64403750D01*
X159512000Y-65278000D01*
X160611250Y-65278000D01*
X160770000Y-65119250D01*
X160773072Y-64880000D01*
X160760812Y-64755518D01*
X160724502Y-64635820D01*
X160665537Y-64525506D01*
X160586185Y-64428815D01*
X160489494Y-64349463D01*
X160379180Y-64290498D01*
X160259482Y-64254188D01*
X160135000Y-64241928D01*
X159670750Y-64245000D01*
X159512000Y-64403750D01*
X159258000Y-64403750D01*
X159099250Y-64245000D01*
X159016700Y-64244454D01*
X159016700Y-62095000D01*
X167901928Y-62095000D01*
X167914188Y-62219482D01*
X167950498Y-62339180D01*
X168009463Y-62449494D01*
X168088815Y-62546185D01*
X168185506Y-62625537D01*
X168295820Y-62684502D01*
X168415518Y-62720812D01*
X168540000Y-62733072D01*
X169509250Y-62730000D01*
X169668000Y-62571250D01*
X169668000Y-61722000D01*
X169922000Y-61722000D01*
X169922000Y-62571250D01*
X170080750Y-62730000D01*
X171050000Y-62733072D01*
X171174482Y-62720812D01*
X171294180Y-62684502D01*
X171404494Y-62625537D01*
X171501185Y-62546185D01*
X171580537Y-62449494D01*
X171639502Y-62339180D01*
X171675812Y-62219482D01*
X171688072Y-62095000D01*
X171685000Y-61880750D01*
X171526250Y-61722000D01*
X169922000Y-61722000D01*
X169668000Y-61722000D01*
X168063750Y-61722000D01*
X167905000Y-61880750D01*
X167901928Y-62095000D01*
X159016700Y-62095000D01*
X159016700Y-61095000D01*
X167901928Y-61095000D01*
X167905000Y-61309250D01*
X168063750Y-61468000D01*
X169668000Y-61468000D01*
X169668000Y-60618750D01*
X169509250Y-60460000D01*
X168540000Y-60456928D01*
X168415518Y-60469188D01*
X168295820Y-60505498D01*
X168185506Y-60564463D01*
X168088815Y-60643815D01*
X168009463Y-60740506D01*
X167950498Y-60850820D01*
X167914188Y-60970518D01*
X167901928Y-61095000D01*
X159016700Y-61095000D01*
X159016700Y-57855642D01*
X159243262Y-58194715D01*
X159610285Y-58561738D01*
X160041859Y-58850107D01*
X160521399Y-59048739D01*
X161030475Y-59150000D01*
X161549525Y-59150000D01*
X162058601Y-59048739D01*
X162538141Y-58850107D01*
X162969715Y-58561738D01*
X163336738Y-58194715D01*
X163625107Y-57763141D01*
X163823739Y-57283601D01*
X163925000Y-56774525D01*
X163925000Y-56368740D01*
X164885000Y-56368740D01*
X164885000Y-56661260D01*
X164942068Y-56948158D01*
X165054010Y-57218411D01*
X165216525Y-57461632D01*
X165423368Y-57668475D01*
X165666589Y-57830990D01*
X165936842Y-57942932D01*
X166223740Y-58000000D01*
X166516260Y-58000000D01*
X166803158Y-57942932D01*
X167073411Y-57830990D01*
X167316632Y-57668475D01*
X167523475Y-57461632D01*
X167685990Y-57218411D01*
X167797932Y-56948158D01*
X167855000Y-56661260D01*
X167855000Y-56368740D01*
X167797932Y-56081842D01*
X167685990Y-55811589D01*
X167523475Y-55568368D01*
X167316632Y-55361525D01*
X167073411Y-55199010D01*
X166803158Y-55087068D01*
X166516260Y-55030000D01*
X166223740Y-55030000D01*
X165936842Y-55087068D01*
X165666589Y-55199010D01*
X165423368Y-55361525D01*
X165216525Y-55568368D01*
X165054010Y-55811589D01*
X164942068Y-56081842D01*
X164885000Y-56368740D01*
X163925000Y-56368740D01*
X163925000Y-56255475D01*
X163823739Y-55746399D01*
X163625107Y-55266859D01*
X163336738Y-54835285D01*
X163236453Y-54735000D01*
X171268954Y-54735000D01*
X171319463Y-54829494D01*
G36*
X188575905Y-34420008D02*
G01*
X188599699Y-34449001D01*
X188628692Y-34472795D01*
X188628696Y-34472799D01*
X188686789Y-34520474D01*
X188715424Y-34543974D01*
X188836760Y-34608830D01*
X188839188Y-34633482D01*
X188875498Y-34753180D01*
X188934463Y-34863494D01*
X188984940Y-34925000D01*
X188934463Y-34986506D01*
X188875498Y-35096820D01*
X188839188Y-35216518D01*
X188826928Y-35341000D01*
X188830000Y-35655250D01*
X188988750Y-35814000D01*
X189738000Y-35814000D01*
X189738000Y-35794000D01*
X189992000Y-35794000D01*
X189992000Y-35814000D01*
X190012000Y-35814000D01*
X190012000Y-36068000D01*
X189992000Y-36068000D01*
X189992000Y-37017250D01*
X190150750Y-37176000D01*
X190265000Y-37179072D01*
X190373000Y-37168435D01*
X190373000Y-53001565D01*
X190265000Y-52990928D01*
X189465000Y-52990928D01*
X189340518Y-53003188D01*
X189220820Y-53039498D01*
X189110506Y-53098463D01*
X189013815Y-53177815D01*
X188978791Y-53220492D01*
X188923033Y-53215000D01*
X188923022Y-53215000D01*
X188885700Y-53211324D01*
X188848378Y-53215000D01*
X179363148Y-53215000D01*
X179337537Y-53153169D01*
X179147663Y-52869002D01*
X178905998Y-52627337D01*
X178621831Y-52437463D01*
X178306081Y-52306675D01*
X177970883Y-52240000D01*
X177629117Y-52240000D01*
X177293919Y-52306675D01*
X176978169Y-52437463D01*
X176694002Y-52627337D01*
X176452337Y-52869002D01*
X176262463Y-53153169D01*
X176236852Y-53215000D01*
X174941046Y-53215000D01*
X174890537Y-53120506D01*
X174811185Y-53023815D01*
X174714494Y-52944463D01*
X174604180Y-52885498D01*
X174484482Y-52849188D01*
X174360000Y-52836928D01*
X171850000Y-52836928D01*
X171725518Y-52849188D01*
X171605820Y-52885498D01*
X171495506Y-52944463D01*
X171398815Y-53023815D01*
X171319463Y-53120506D01*
X171268954Y-53215000D01*
X166803901Y-53215000D01*
X167924715Y-52094186D01*
X167950498Y-52179180D01*
X168009463Y-52289494D01*
X168088815Y-52386185D01*
X168185506Y-52465537D01*
X168295820Y-52524502D01*
X168415518Y-52560812D01*
X168540000Y-52573072D01*
X171050000Y-52573072D01*
X171174482Y-52560812D01*
X171294180Y-52524502D01*
X171404494Y-52465537D01*
X171501185Y-52386185D01*
X171580537Y-52289494D01*
X171639502Y-52179180D01*
X171649567Y-52146000D01*
X171667547Y-52140546D01*
X171799576Y-52069974D01*
X171915301Y-51975001D01*
X172010274Y-51859276D01*
X172080846Y-51727247D01*
X172124303Y-51583986D01*
X172138977Y-51435000D01*
X172135300Y-51397667D01*
X172135300Y-50033072D01*
X174360000Y-50033072D01*
X174484482Y-50020812D01*
X174604180Y-49984502D01*
X174714494Y-49925537D01*
X174811185Y-49846185D01*
X174890537Y-49749494D01*
X174941046Y-49655000D01*
X181295199Y-49655000D01*
X182507286Y-50867088D01*
X182481675Y-50928919D01*
X182415000Y-51264117D01*
X182415000Y-51605883D01*
X182481675Y-51941081D01*
X182612463Y-52256831D01*
X182802337Y-52540998D01*
X183044002Y-52782663D01*
X183328169Y-52972537D01*
X183643919Y-53103325D01*
X183979117Y-53170000D01*
X184320883Y-53170000D01*
X184656081Y-53103325D01*
X184971831Y-52972537D01*
X185255998Y-52782663D01*
X185497663Y-52540998D01*
X185687537Y-52256831D01*
X185818325Y-51941081D01*
X185885000Y-51605883D01*
X185885000Y-51264117D01*
X185818325Y-50928919D01*
X185687537Y-50613169D01*
X185497663Y-50329002D01*
X185255998Y-50087337D01*
X184971831Y-49897463D01*
X184656081Y-49766675D01*
X184320883Y-49700000D01*
X183979117Y-49700000D01*
X183643919Y-49766675D01*
X183582088Y-49792286D01*
X182684801Y-48895000D01*
X184661008Y-46918795D01*
X184690001Y-46895001D01*
X184713795Y-46866008D01*
X184713799Y-46866004D01*
X184784973Y-46779277D01*
X184784974Y-46779276D01*
X184855546Y-46647247D01*
X184899003Y-46503986D01*
X184910000Y-46392333D01*
X184910000Y-46392324D01*
X184913676Y-46355001D01*
X184910000Y-46317678D01*
X184910000Y-36048740D01*
X185205000Y-36048740D01*
X185205000Y-36341260D01*
X185262068Y-36628158D01*
X185374010Y-36898411D01*
X185536525Y-37141632D01*
X185743368Y-37348475D01*
X185986589Y-37510990D01*
X186256842Y-37622932D01*
X186543740Y-37680000D01*
X186836260Y-37680000D01*
X187123158Y-37622932D01*
X187393411Y-37510990D01*
X187636632Y-37348475D01*
X187843475Y-37141632D01*
X188005990Y-36898411D01*
X188117932Y-36628158D01*
X188135268Y-36541000D01*
X188826928Y-36541000D01*
X188839188Y-36665482D01*
X188875498Y-36785180D01*
X188934463Y-36895494D01*
X189013815Y-36992185D01*
X189110506Y-37071537D01*
X189220820Y-37130502D01*
X189340518Y-37166812D01*
X189465000Y-37179072D01*
X189579250Y-37176000D01*
X189738000Y-37017250D01*
X189738000Y-36068000D01*
X188988750Y-36068000D01*
X188830000Y-36226750D01*
X188826928Y-36541000D01*
X188135268Y-36541000D01*
X188175000Y-36341260D01*
X188175000Y-36048740D01*
X188117932Y-35761842D01*
X188005990Y-35491589D01*
X187843475Y-35248368D01*
X187636632Y-35041525D01*
X187393411Y-34879010D01*
X187123158Y-34767068D01*
X186836260Y-34710000D01*
X186543740Y-34710000D01*
X186256842Y-34767068D01*
X185986589Y-34879010D01*
X185743368Y-35041525D01*
X185536525Y-35248368D01*
X185374010Y-35491589D01*
X185262068Y-35761842D01*
X185205000Y-36048740D01*
X184910000Y-36048740D01*
X184910000Y-32678148D01*
X184971831Y-32652537D01*
X185255998Y-32462663D01*
X185497663Y-32220998D01*
X185687537Y-31936831D01*
X185806215Y-31650317D01*
X188575905Y-34420008D01*
G37*
X188575905Y-34420008D02*
X188599699Y-34449001D01*
X188628692Y-34472795D01*
X188628696Y-34472799D01*
X188686789Y-34520474D01*
X188715424Y-34543974D01*
X188836760Y-34608830D01*
X188839188Y-34633482D01*
X188875498Y-34753180D01*
X188934463Y-34863494D01*
X188984940Y-34925000D01*
X188934463Y-34986506D01*
X188875498Y-35096820D01*
X188839188Y-35216518D01*
X188826928Y-35341000D01*
X188830000Y-35655250D01*
X188988750Y-35814000D01*
X189738000Y-35814000D01*
X189738000Y-35794000D01*
X189992000Y-35794000D01*
X189992000Y-35814000D01*
X190012000Y-35814000D01*
X190012000Y-36068000D01*
X189992000Y-36068000D01*
X189992000Y-37017250D01*
X190150750Y-37176000D01*
X190265000Y-37179072D01*
X190373000Y-37168435D01*
X190373000Y-53001565D01*
X190265000Y-52990928D01*
X189465000Y-52990928D01*
X189340518Y-53003188D01*
X189220820Y-53039498D01*
X189110506Y-53098463D01*
X189013815Y-53177815D01*
X188978791Y-53220492D01*
X188923033Y-53215000D01*
X188923022Y-53215000D01*
X188885700Y-53211324D01*
X188848378Y-53215000D01*
X179363148Y-53215000D01*
X179337537Y-53153169D01*
X179147663Y-52869002D01*
X178905998Y-52627337D01*
X178621831Y-52437463D01*
X178306081Y-52306675D01*
X177970883Y-52240000D01*
X177629117Y-52240000D01*
X177293919Y-52306675D01*
X176978169Y-52437463D01*
X176694002Y-52627337D01*
X176452337Y-52869002D01*
X176262463Y-53153169D01*
X176236852Y-53215000D01*
X174941046Y-53215000D01*
X174890537Y-53120506D01*
X174811185Y-53023815D01*
X174714494Y-52944463D01*
X174604180Y-52885498D01*
X174484482Y-52849188D01*
X174360000Y-52836928D01*
X171850000Y-52836928D01*
X171725518Y-52849188D01*
X171605820Y-52885498D01*
X171495506Y-52944463D01*
X171398815Y-53023815D01*
X171319463Y-53120506D01*
X171268954Y-53215000D01*
X166803901Y-53215000D01*
X167924715Y-52094186D01*
X167950498Y-52179180D01*
X168009463Y-52289494D01*
X168088815Y-52386185D01*
X168185506Y-52465537D01*
X168295820Y-52524502D01*
X168415518Y-52560812D01*
X168540000Y-52573072D01*
X171050000Y-52573072D01*
X171174482Y-52560812D01*
X171294180Y-52524502D01*
X171404494Y-52465537D01*
X171501185Y-52386185D01*
X171580537Y-52289494D01*
X171639502Y-52179180D01*
X171649567Y-52146000D01*
X171667547Y-52140546D01*
X171799576Y-52069974D01*
X171915301Y-51975001D01*
X172010274Y-51859276D01*
X172080846Y-51727247D01*
X172124303Y-51583986D01*
X172138977Y-51435000D01*
X172135300Y-51397667D01*
X172135300Y-50033072D01*
X174360000Y-50033072D01*
X174484482Y-50020812D01*
X174604180Y-49984502D01*
X174714494Y-49925537D01*
X174811185Y-49846185D01*
X174890537Y-49749494D01*
X174941046Y-49655000D01*
X181295199Y-49655000D01*
X182507286Y-50867088D01*
X182481675Y-50928919D01*
X182415000Y-51264117D01*
X182415000Y-51605883D01*
X182481675Y-51941081D01*
X182612463Y-52256831D01*
X182802337Y-52540998D01*
X183044002Y-52782663D01*
X183328169Y-52972537D01*
X183643919Y-53103325D01*
X183979117Y-53170000D01*
X184320883Y-53170000D01*
X184656081Y-53103325D01*
X184971831Y-52972537D01*
X185255998Y-52782663D01*
X185497663Y-52540998D01*
X185687537Y-52256831D01*
X185818325Y-51941081D01*
X185885000Y-51605883D01*
X185885000Y-51264117D01*
X185818325Y-50928919D01*
X185687537Y-50613169D01*
X185497663Y-50329002D01*
X185255998Y-50087337D01*
X184971831Y-49897463D01*
X184656081Y-49766675D01*
X184320883Y-49700000D01*
X183979117Y-49700000D01*
X183643919Y-49766675D01*
X183582088Y-49792286D01*
X182684801Y-48895000D01*
X184661008Y-46918795D01*
X184690001Y-46895001D01*
X184713795Y-46866008D01*
X184713799Y-46866004D01*
X184784973Y-46779277D01*
X184784974Y-46779276D01*
X184855546Y-46647247D01*
X184899003Y-46503986D01*
X184910000Y-46392333D01*
X184910000Y-46392324D01*
X184913676Y-46355001D01*
X184910000Y-46317678D01*
X184910000Y-36048740D01*
X185205000Y-36048740D01*
X185205000Y-36341260D01*
X185262068Y-36628158D01*
X185374010Y-36898411D01*
X185536525Y-37141632D01*
X185743368Y-37348475D01*
X185986589Y-37510990D01*
X186256842Y-37622932D01*
X186543740Y-37680000D01*
X186836260Y-37680000D01*
X187123158Y-37622932D01*
X187393411Y-37510990D01*
X187636632Y-37348475D01*
X187843475Y-37141632D01*
X188005990Y-36898411D01*
X188117932Y-36628158D01*
X188135268Y-36541000D01*
X188826928Y-36541000D01*
X188839188Y-36665482D01*
X188875498Y-36785180D01*
X188934463Y-36895494D01*
X189013815Y-36992185D01*
X189110506Y-37071537D01*
X189220820Y-37130502D01*
X189340518Y-37166812D01*
X189465000Y-37179072D01*
X189579250Y-37176000D01*
X189738000Y-37017250D01*
X189738000Y-36068000D01*
X188988750Y-36068000D01*
X188830000Y-36226750D01*
X188826928Y-36541000D01*
X188135268Y-36541000D01*
X188175000Y-36341260D01*
X188175000Y-36048740D01*
X188117932Y-35761842D01*
X188005990Y-35491589D01*
X187843475Y-35248368D01*
X187636632Y-35041525D01*
X187393411Y-34879010D01*
X187123158Y-34767068D01*
X186836260Y-34710000D01*
X186543740Y-34710000D01*
X186256842Y-34767068D01*
X185986589Y-34879010D01*
X185743368Y-35041525D01*
X185536525Y-35248368D01*
X185374010Y-35491589D01*
X185262068Y-35761842D01*
X185205000Y-36048740D01*
X184910000Y-36048740D01*
X184910000Y-32678148D01*
X184971831Y-32652537D01*
X185255998Y-32462663D01*
X185497663Y-32220998D01*
X185687537Y-31936831D01*
X185806215Y-31650317D01*
X188575905Y-34420008D01*
G36*
X133572405Y-42100908D02*
G01*
X133596199Y-42129901D01*
X133625192Y-42153695D01*
X133625196Y-42153699D01*
X133695885Y-42211711D01*
X133711924Y-42224874D01*
X133843953Y-42295446D01*
X133987214Y-42338903D01*
X134098867Y-42349900D01*
X134098876Y-42349900D01*
X134136199Y-42353576D01*
X134173522Y-42349900D01*
X142001928Y-42349900D01*
X142001928Y-43045000D01*
X142014188Y-43169482D01*
X142050498Y-43289180D01*
X142109463Y-43399494D01*
X142188815Y-43496185D01*
X142285506Y-43575537D01*
X142395820Y-43634502D01*
X142515518Y-43670812D01*
X142640000Y-43683072D01*
X144575127Y-43683072D01*
X144540300Y-43858161D01*
X144540300Y-44062039D01*
X144580074Y-44261998D01*
X144658095Y-44450356D01*
X144765300Y-44610800D01*
X144765300Y-46488147D01*
X144180750Y-46490000D01*
X144022000Y-46648750D01*
X144022000Y-47498000D01*
X144042000Y-47498000D01*
X144042000Y-47752000D01*
X144022000Y-47752000D01*
X144022000Y-48601250D01*
X144180750Y-48760000D01*
X144765301Y-48761853D01*
X144765301Y-49094300D01*
X142565787Y-49094300D01*
X142525999Y-49090381D01*
X142486211Y-49094300D01*
X142486209Y-49094300D01*
X142367212Y-49106020D01*
X142215802Y-49151950D01*
X142194494Y-49134463D01*
X142084180Y-49075498D01*
X141964482Y-49039188D01*
X141840000Y-49026928D01*
X139330000Y-49026928D01*
X139205518Y-49039188D01*
X139085820Y-49075498D01*
X138975506Y-49134463D01*
X138878815Y-49213815D01*
X138799463Y-49310506D01*
X138740498Y-49420820D01*
X138704188Y-49540518D01*
X138703483Y-49547680D01*
X137280803Y-48125000D01*
X142001928Y-48125000D01*
X142014188Y-48249482D01*
X142050498Y-48369180D01*
X142109463Y-48479494D01*
X142188815Y-48576185D01*
X142285506Y-48655537D01*
X142395820Y-48714502D01*
X142515518Y-48750812D01*
X142640000Y-48763072D01*
X143609250Y-48760000D01*
X143768000Y-48601250D01*
X143768000Y-47752000D01*
X142163750Y-47752000D01*
X142005000Y-47910750D01*
X142001928Y-48125000D01*
X137280803Y-48125000D01*
X136280803Y-47125000D01*
X142001928Y-47125000D01*
X142005000Y-47339250D01*
X142163750Y-47498000D01*
X143768000Y-47498000D01*
X143768000Y-46648750D01*
X143609250Y-46490000D01*
X142640000Y-46486928D01*
X142515518Y-46499188D01*
X142395820Y-46535498D01*
X142285506Y-46594463D01*
X142188815Y-46673815D01*
X142109463Y-46770506D01*
X142050498Y-46880820D01*
X142014188Y-47000518D01*
X142001928Y-47125000D01*
X136280803Y-47125000D01*
X134740802Y-45585000D01*
X138691928Y-45585000D01*
X138704188Y-45709482D01*
X138740498Y-45829180D01*
X138799463Y-45939494D01*
X138878815Y-46036185D01*
X138975506Y-46115537D01*
X139085820Y-46174502D01*
X139205518Y-46210812D01*
X139330000Y-46223072D01*
X140299250Y-46220000D01*
X140458000Y-46061250D01*
X140458000Y-45212000D01*
X140712000Y-45212000D01*
X140712000Y-46061250D01*
X140870750Y-46220000D01*
X141840000Y-46223072D01*
X141964482Y-46210812D01*
X142084180Y-46174502D01*
X142194494Y-46115537D01*
X142291185Y-46036185D01*
X142370537Y-45939494D01*
X142429502Y-45829180D01*
X142465812Y-45709482D01*
X142478072Y-45585000D01*
X142475000Y-45370750D01*
X142316250Y-45212000D01*
X140712000Y-45212000D01*
X140458000Y-45212000D01*
X138853750Y-45212000D01*
X138695000Y-45370750D01*
X138691928Y-45585000D01*
X134740802Y-45585000D01*
X133740802Y-44585000D01*
X138691928Y-44585000D01*
X138695000Y-44799250D01*
X138853750Y-44958000D01*
X140458000Y-44958000D01*
X140458000Y-44108750D01*
X140712000Y-44108750D01*
X140712000Y-44958000D01*
X142316250Y-44958000D01*
X142475000Y-44799250D01*
X142478072Y-44585000D01*
X142465812Y-44460518D01*
X142429502Y-44340820D01*
X142370537Y-44230506D01*
X142291185Y-44133815D01*
X142194494Y-44054463D01*
X142084180Y-43995498D01*
X141964482Y-43959188D01*
X141840000Y-43946928D01*
X140870750Y-43950000D01*
X140712000Y-44108750D01*
X140458000Y-44108750D01*
X140299250Y-43950000D01*
X139330000Y-43946928D01*
X139205518Y-43959188D01*
X139085820Y-43995498D01*
X138975506Y-44054463D01*
X138878815Y-44133815D01*
X138799463Y-44230506D01*
X138740498Y-44340820D01*
X138704188Y-44460518D01*
X138691928Y-44585000D01*
X133740802Y-44585000D01*
X132021756Y-42865955D01*
X132089180Y-42845502D01*
X132199494Y-42786537D01*
X132296185Y-42707185D01*
X132375537Y-42610494D01*
X132434502Y-42500180D01*
X132470812Y-42380482D01*
X132483072Y-42256000D01*
X132480000Y-41941750D01*
X132321250Y-41783000D01*
X131572000Y-41783000D01*
X131572000Y-41803000D01*
X131318000Y-41803000D01*
X131318000Y-41783000D01*
X131298000Y-41783000D01*
X131298000Y-41529000D01*
X131318000Y-41529000D01*
X131318000Y-41509000D01*
X131572000Y-41509000D01*
X131572000Y-41529000D01*
X132321250Y-41529000D01*
X132480000Y-41370250D01*
X132483072Y-41056000D01*
X132478219Y-41006720D01*
X133572405Y-42100908D01*
G37*
X133572405Y-42100908D02*
X133596199Y-42129901D01*
X133625192Y-42153695D01*
X133625196Y-42153699D01*
X133695885Y-42211711D01*
X133711924Y-42224874D01*
X133843953Y-42295446D01*
X133987214Y-42338903D01*
X134098867Y-42349900D01*
X134098876Y-42349900D01*
X134136199Y-42353576D01*
X134173522Y-42349900D01*
X142001928Y-42349900D01*
X142001928Y-43045000D01*
X142014188Y-43169482D01*
X142050498Y-43289180D01*
X142109463Y-43399494D01*
X142188815Y-43496185D01*
X142285506Y-43575537D01*
X142395820Y-43634502D01*
X142515518Y-43670812D01*
X142640000Y-43683072D01*
X144575127Y-43683072D01*
X144540300Y-43858161D01*
X144540300Y-44062039D01*
X144580074Y-44261998D01*
X144658095Y-44450356D01*
X144765300Y-44610800D01*
X144765300Y-46488147D01*
X144180750Y-46490000D01*
X144022000Y-46648750D01*
X144022000Y-47498000D01*
X144042000Y-47498000D01*
X144042000Y-47752000D01*
X144022000Y-47752000D01*
X144022000Y-48601250D01*
X144180750Y-48760000D01*
X144765301Y-48761853D01*
X144765301Y-49094300D01*
X142565787Y-49094300D01*
X142525999Y-49090381D01*
X142486211Y-49094300D01*
X142486209Y-49094300D01*
X142367212Y-49106020D01*
X142215802Y-49151950D01*
X142194494Y-49134463D01*
X142084180Y-49075498D01*
X141964482Y-49039188D01*
X141840000Y-49026928D01*
X139330000Y-49026928D01*
X139205518Y-49039188D01*
X139085820Y-49075498D01*
X138975506Y-49134463D01*
X138878815Y-49213815D01*
X138799463Y-49310506D01*
X138740498Y-49420820D01*
X138704188Y-49540518D01*
X138703483Y-49547680D01*
X137280803Y-48125000D01*
X142001928Y-48125000D01*
X142014188Y-48249482D01*
X142050498Y-48369180D01*
X142109463Y-48479494D01*
X142188815Y-48576185D01*
X142285506Y-48655537D01*
X142395820Y-48714502D01*
X142515518Y-48750812D01*
X142640000Y-48763072D01*
X143609250Y-48760000D01*
X143768000Y-48601250D01*
X143768000Y-47752000D01*
X142163750Y-47752000D01*
X142005000Y-47910750D01*
X142001928Y-48125000D01*
X137280803Y-48125000D01*
X136280803Y-47125000D01*
X142001928Y-47125000D01*
X142005000Y-47339250D01*
X142163750Y-47498000D01*
X143768000Y-47498000D01*
X143768000Y-46648750D01*
X143609250Y-46490000D01*
X142640000Y-46486928D01*
X142515518Y-46499188D01*
X142395820Y-46535498D01*
X142285506Y-46594463D01*
X142188815Y-46673815D01*
X142109463Y-46770506D01*
X142050498Y-46880820D01*
X142014188Y-47000518D01*
X142001928Y-47125000D01*
X136280803Y-47125000D01*
X134740802Y-45585000D01*
X138691928Y-45585000D01*
X138704188Y-45709482D01*
X138740498Y-45829180D01*
X138799463Y-45939494D01*
X138878815Y-46036185D01*
X138975506Y-46115537D01*
X139085820Y-46174502D01*
X139205518Y-46210812D01*
X139330000Y-46223072D01*
X140299250Y-46220000D01*
X140458000Y-46061250D01*
X140458000Y-45212000D01*
X140712000Y-45212000D01*
X140712000Y-46061250D01*
X140870750Y-46220000D01*
X141840000Y-46223072D01*
X141964482Y-46210812D01*
X142084180Y-46174502D01*
X142194494Y-46115537D01*
X142291185Y-46036185D01*
X142370537Y-45939494D01*
X142429502Y-45829180D01*
X142465812Y-45709482D01*
X142478072Y-45585000D01*
X142475000Y-45370750D01*
X142316250Y-45212000D01*
X140712000Y-45212000D01*
X140458000Y-45212000D01*
X138853750Y-45212000D01*
X138695000Y-45370750D01*
X138691928Y-45585000D01*
X134740802Y-45585000D01*
X133740802Y-44585000D01*
X138691928Y-44585000D01*
X138695000Y-44799250D01*
X138853750Y-44958000D01*
X140458000Y-44958000D01*
X140458000Y-44108750D01*
X140712000Y-44108750D01*
X140712000Y-44958000D01*
X142316250Y-44958000D01*
X142475000Y-44799250D01*
X142478072Y-44585000D01*
X142465812Y-44460518D01*
X142429502Y-44340820D01*
X142370537Y-44230506D01*
X142291185Y-44133815D01*
X142194494Y-44054463D01*
X142084180Y-43995498D01*
X141964482Y-43959188D01*
X141840000Y-43946928D01*
X140870750Y-43950000D01*
X140712000Y-44108750D01*
X140458000Y-44108750D01*
X140299250Y-43950000D01*
X139330000Y-43946928D01*
X139205518Y-43959188D01*
X139085820Y-43995498D01*
X138975506Y-44054463D01*
X138878815Y-44133815D01*
X138799463Y-44230506D01*
X138740498Y-44340820D01*
X138704188Y-44460518D01*
X138691928Y-44585000D01*
X133740802Y-44585000D01*
X132021756Y-42865955D01*
X132089180Y-42845502D01*
X132199494Y-42786537D01*
X132296185Y-42707185D01*
X132375537Y-42610494D01*
X132434502Y-42500180D01*
X132470812Y-42380482D01*
X132483072Y-42256000D01*
X132480000Y-41941750D01*
X132321250Y-41783000D01*
X131572000Y-41783000D01*
X131572000Y-41803000D01*
X131318000Y-41803000D01*
X131318000Y-41783000D01*
X131298000Y-41783000D01*
X131298000Y-41529000D01*
X131318000Y-41529000D01*
X131318000Y-41509000D01*
X131572000Y-41509000D01*
X131572000Y-41529000D01*
X132321250Y-41529000D01*
X132480000Y-41370250D01*
X132483072Y-41056000D01*
X132478219Y-41006720D01*
X133572405Y-42100908D01*
G36*
X135812337Y-32549002D02*
G01*
X135622463Y-32833169D01*
X135491675Y-33148919D01*
X135425000Y-33484117D01*
X135425000Y-33825883D01*
X135491675Y-34161081D01*
X135622463Y-34476831D01*
X135778261Y-34710000D01*
X135743740Y-34710000D01*
X135456842Y-34767068D01*
X135186589Y-34879010D01*
X134943368Y-35041525D01*
X134736525Y-35248368D01*
X134574010Y-35491589D01*
X134462068Y-35761842D01*
X134405000Y-36048740D01*
X134405000Y-36341260D01*
X134462068Y-36628158D01*
X134574010Y-36898411D01*
X134736525Y-37141632D01*
X134943368Y-37348475D01*
X135186589Y-37510990D01*
X135456842Y-37622932D01*
X135743740Y-37680000D01*
X136036260Y-37680000D01*
X136323158Y-37622932D01*
X136593411Y-37510990D01*
X136836632Y-37348475D01*
X137043475Y-37141632D01*
X137205990Y-36898411D01*
X137317932Y-36628158D01*
X137375000Y-36341260D01*
X137375000Y-36048740D01*
X137352471Y-35935475D01*
X138335000Y-35935475D01*
X138335000Y-36454525D01*
X138436261Y-36963601D01*
X138634893Y-37443141D01*
X138923262Y-37874715D01*
X139290285Y-38241738D01*
X139721859Y-38530107D01*
X140201399Y-38728739D01*
X140710475Y-38830000D01*
X141229525Y-38830000D01*
X141738601Y-38728739D01*
X142218141Y-38530107D01*
X142649715Y-38241738D01*
X143016738Y-37874715D01*
X143305107Y-37443141D01*
X143503739Y-36963601D01*
X143605000Y-36454525D01*
X143605000Y-35935475D01*
X143503739Y-35426399D01*
X143305107Y-34946859D01*
X143016738Y-34515285D01*
X142649715Y-34148262D01*
X142218141Y-33859893D01*
X141738601Y-33661261D01*
X141229525Y-33560000D01*
X140710475Y-33560000D01*
X140201399Y-33661261D01*
X139721859Y-33859893D01*
X139290285Y-34148262D01*
X138923262Y-34515285D01*
X138634893Y-34946859D01*
X138436261Y-35426399D01*
X138335000Y-35935475D01*
X137352471Y-35935475D01*
X137317932Y-35761842D01*
X137205990Y-35491589D01*
X137138110Y-35390000D01*
X137330883Y-35390000D01*
X137666081Y-35323325D01*
X137981831Y-35192537D01*
X138265998Y-35002663D01*
X138507663Y-34760998D01*
X138697537Y-34476831D01*
X138828325Y-34161081D01*
X138895000Y-33825883D01*
X138895000Y-33484117D01*
X138828325Y-33148919D01*
X138697537Y-32833169D01*
X138507663Y-32549002D01*
X138390361Y-32431700D01*
X142373039Y-32431700D01*
X142404002Y-32462663D01*
X142688169Y-32652537D01*
X143003919Y-32783325D01*
X143339117Y-32850000D01*
X143680883Y-32850000D01*
X144016081Y-32783325D01*
X144077912Y-32757714D01*
X146030199Y-34710000D01*
X145903740Y-34710000D01*
X145616842Y-34767068D01*
X145346589Y-34879010D01*
X145103368Y-35041525D01*
X144896525Y-35248368D01*
X144734010Y-35491589D01*
X144622068Y-35761842D01*
X144565000Y-36048740D01*
X144565000Y-36341260D01*
X144622068Y-36628158D01*
X144734010Y-36898411D01*
X144896525Y-37141632D01*
X145103368Y-37348475D01*
X145346589Y-37510990D01*
X145616842Y-37622932D01*
X145903740Y-37680000D01*
X146196260Y-37680000D01*
X146483158Y-37622932D01*
X146753411Y-37510990D01*
X146996632Y-37348475D01*
X147203475Y-37141632D01*
X147365990Y-36898411D01*
X147477932Y-36628158D01*
X147535000Y-36341260D01*
X147535000Y-36214801D01*
X152150098Y-40829900D01*
X134451003Y-40829900D01*
X132734104Y-39113002D01*
X132710301Y-39083999D01*
X132594576Y-38989026D01*
X132473240Y-38924170D01*
X132470812Y-38899518D01*
X132434502Y-38779820D01*
X132375537Y-38669506D01*
X132296185Y-38572815D01*
X132199494Y-38493463D01*
X132089180Y-38434498D01*
X131969482Y-38398188D01*
X131845000Y-38385928D01*
X131045000Y-38385928D01*
X130920518Y-38398188D01*
X130800820Y-38434498D01*
X130690506Y-38493463D01*
X130593815Y-38572815D01*
X130514463Y-38669506D01*
X130455498Y-38779820D01*
X130434937Y-38847600D01*
X130292861Y-38847600D01*
X130092902Y-38887374D01*
X129904544Y-38965395D01*
X129758200Y-39063179D01*
X129758200Y-33871701D01*
X130408340Y-33221562D01*
X130406928Y-33366000D01*
X130419188Y-33490482D01*
X130455498Y-33610180D01*
X130514463Y-33720494D01*
X130593815Y-33817185D01*
X130690506Y-33896537D01*
X130800820Y-33955502D01*
X130920518Y-33991812D01*
X131045000Y-34004072D01*
X131159250Y-34001000D01*
X131318000Y-33842250D01*
X131318000Y-32893000D01*
X131572000Y-32893000D01*
X131572000Y-33842250D01*
X131730750Y-34001000D01*
X131845000Y-34004072D01*
X131969482Y-33991812D01*
X132089180Y-33955502D01*
X132199494Y-33896537D01*
X132296185Y-33817185D01*
X132375537Y-33720494D01*
X132434502Y-33610180D01*
X132470812Y-33490482D01*
X132483072Y-33366000D01*
X132480000Y-33051750D01*
X132321250Y-32893000D01*
X131572000Y-32893000D01*
X131318000Y-32893000D01*
X131298000Y-32893000D01*
X131298000Y-32639000D01*
X131318000Y-32639000D01*
X131318000Y-32619000D01*
X131572000Y-32619000D01*
X131572000Y-32639000D01*
X132321250Y-32639000D01*
X132480000Y-32480250D01*
X132480475Y-32431700D01*
X135929639Y-32431700D01*
X135812337Y-32549002D01*
G37*
X135812337Y-32549002D02*
X135622463Y-32833169D01*
X135491675Y-33148919D01*
X135425000Y-33484117D01*
X135425000Y-33825883D01*
X135491675Y-34161081D01*
X135622463Y-34476831D01*
X135778261Y-34710000D01*
X135743740Y-34710000D01*
X135456842Y-34767068D01*
X135186589Y-34879010D01*
X134943368Y-35041525D01*
X134736525Y-35248368D01*
X134574010Y-35491589D01*
X134462068Y-35761842D01*
X134405000Y-36048740D01*
X134405000Y-36341260D01*
X134462068Y-36628158D01*
X134574010Y-36898411D01*
X134736525Y-37141632D01*
X134943368Y-37348475D01*
X135186589Y-37510990D01*
X135456842Y-37622932D01*
X135743740Y-37680000D01*
X136036260Y-37680000D01*
X136323158Y-37622932D01*
X136593411Y-37510990D01*
X136836632Y-37348475D01*
X137043475Y-37141632D01*
X137205990Y-36898411D01*
X137317932Y-36628158D01*
X137375000Y-36341260D01*
X137375000Y-36048740D01*
X137352471Y-35935475D01*
X138335000Y-35935475D01*
X138335000Y-36454525D01*
X138436261Y-36963601D01*
X138634893Y-37443141D01*
X138923262Y-37874715D01*
X139290285Y-38241738D01*
X139721859Y-38530107D01*
X140201399Y-38728739D01*
X140710475Y-38830000D01*
X141229525Y-38830000D01*
X141738601Y-38728739D01*
X142218141Y-38530107D01*
X142649715Y-38241738D01*
X143016738Y-37874715D01*
X143305107Y-37443141D01*
X143503739Y-36963601D01*
X143605000Y-36454525D01*
X143605000Y-35935475D01*
X143503739Y-35426399D01*
X143305107Y-34946859D01*
X143016738Y-34515285D01*
X142649715Y-34148262D01*
X142218141Y-33859893D01*
X141738601Y-33661261D01*
X141229525Y-33560000D01*
X140710475Y-33560000D01*
X140201399Y-33661261D01*
X139721859Y-33859893D01*
X139290285Y-34148262D01*
X138923262Y-34515285D01*
X138634893Y-34946859D01*
X138436261Y-35426399D01*
X138335000Y-35935475D01*
X137352471Y-35935475D01*
X137317932Y-35761842D01*
X137205990Y-35491589D01*
X137138110Y-35390000D01*
X137330883Y-35390000D01*
X137666081Y-35323325D01*
X137981831Y-35192537D01*
X138265998Y-35002663D01*
X138507663Y-34760998D01*
X138697537Y-34476831D01*
X138828325Y-34161081D01*
X138895000Y-33825883D01*
X138895000Y-33484117D01*
X138828325Y-33148919D01*
X138697537Y-32833169D01*
X138507663Y-32549002D01*
X138390361Y-32431700D01*
X142373039Y-32431700D01*
X142404002Y-32462663D01*
X142688169Y-32652537D01*
X143003919Y-32783325D01*
X143339117Y-32850000D01*
X143680883Y-32850000D01*
X144016081Y-32783325D01*
X144077912Y-32757714D01*
X146030199Y-34710000D01*
X145903740Y-34710000D01*
X145616842Y-34767068D01*
X145346589Y-34879010D01*
X145103368Y-35041525D01*
X144896525Y-35248368D01*
X144734010Y-35491589D01*
X144622068Y-35761842D01*
X144565000Y-36048740D01*
X144565000Y-36341260D01*
X144622068Y-36628158D01*
X144734010Y-36898411D01*
X144896525Y-37141632D01*
X145103368Y-37348475D01*
X145346589Y-37510990D01*
X145616842Y-37622932D01*
X145903740Y-37680000D01*
X146196260Y-37680000D01*
X146483158Y-37622932D01*
X146753411Y-37510990D01*
X146996632Y-37348475D01*
X147203475Y-37141632D01*
X147365990Y-36898411D01*
X147477932Y-36628158D01*
X147535000Y-36341260D01*
X147535000Y-36214801D01*
X152150098Y-40829900D01*
X134451003Y-40829900D01*
X132734104Y-39113002D01*
X132710301Y-39083999D01*
X132594576Y-38989026D01*
X132473240Y-38924170D01*
X132470812Y-38899518D01*
X132434502Y-38779820D01*
X132375537Y-38669506D01*
X132296185Y-38572815D01*
X132199494Y-38493463D01*
X132089180Y-38434498D01*
X131969482Y-38398188D01*
X131845000Y-38385928D01*
X131045000Y-38385928D01*
X130920518Y-38398188D01*
X130800820Y-38434498D01*
X130690506Y-38493463D01*
X130593815Y-38572815D01*
X130514463Y-38669506D01*
X130455498Y-38779820D01*
X130434937Y-38847600D01*
X130292861Y-38847600D01*
X130092902Y-38887374D01*
X129904544Y-38965395D01*
X129758200Y-39063179D01*
X129758200Y-33871701D01*
X130408340Y-33221562D01*
X130406928Y-33366000D01*
X130419188Y-33490482D01*
X130455498Y-33610180D01*
X130514463Y-33720494D01*
X130593815Y-33817185D01*
X130690506Y-33896537D01*
X130800820Y-33955502D01*
X130920518Y-33991812D01*
X131045000Y-34004072D01*
X131159250Y-34001000D01*
X131318000Y-33842250D01*
X131318000Y-32893000D01*
X131572000Y-32893000D01*
X131572000Y-33842250D01*
X131730750Y-34001000D01*
X131845000Y-34004072D01*
X131969482Y-33991812D01*
X132089180Y-33955502D01*
X132199494Y-33896537D01*
X132296185Y-33817185D01*
X132375537Y-33720494D01*
X132434502Y-33610180D01*
X132470812Y-33490482D01*
X132483072Y-33366000D01*
X132480000Y-33051750D01*
X132321250Y-32893000D01*
X131572000Y-32893000D01*
X131318000Y-32893000D01*
X131298000Y-32893000D01*
X131298000Y-32639000D01*
X131318000Y-32639000D01*
X131318000Y-32619000D01*
X131572000Y-32619000D01*
X131572000Y-32639000D01*
X132321250Y-32639000D01*
X132480000Y-32480250D01*
X132480475Y-32431700D01*
X135929639Y-32431700D01*
X135812337Y-32549002D01*
M02*
