G04 #@! TF.GenerationSoftware,KiCad,Pcbnew,(5.1.5)-3*
G04 #@! TF.CreationDate,2020-09-04T17:37:12+09:00*
G04 #@! TF.ProjectId,futureKeyboardLeft,66757475-7265-44b6-9579-626f6172644c,rev?*
G04 #@! TF.SameCoordinates,Original*
G04 #@! TF.FileFunction,Soldermask,Top*
G04 #@! TF.FilePolarity,Negative*
%FSLAX46Y46*%
G04 Gerber Fmt 4.6, Leading zero omitted, Abs format (unit mm)*
G04 Created by KiCad (PCBNEW (5.1.5)-3) date 2020-09-04 17:37:12*
%MOMM*%
%LPD*%
G04 APERTURE LIST*
%ADD10C,0.100000*%
G04 APERTURE END LIST*
D10*
G36*
X182208254Y-95182818D02*
G01*
X182581511Y-95337426D01*
X182581513Y-95337427D01*
X182917436Y-95561884D01*
X183203116Y-95847564D01*
X183427574Y-96183489D01*
X183582182Y-96556746D01*
X183661000Y-96952993D01*
X183661000Y-97357007D01*
X183582182Y-97753254D01*
X183427574Y-98126511D01*
X183427573Y-98126513D01*
X183203116Y-98462436D01*
X182917436Y-98748116D01*
X182581513Y-98972573D01*
X182581512Y-98972574D01*
X182581511Y-98972574D01*
X182208254Y-99127182D01*
X181812007Y-99206000D01*
X181407993Y-99206000D01*
X181011746Y-99127182D01*
X180638489Y-98972574D01*
X180638488Y-98972574D01*
X180638487Y-98972573D01*
X180302564Y-98748116D01*
X180016884Y-98462436D01*
X179792427Y-98126513D01*
X179792426Y-98126511D01*
X179637818Y-97753254D01*
X179559000Y-97357007D01*
X179559000Y-96952993D01*
X179637818Y-96556746D01*
X179792426Y-96183489D01*
X180016884Y-95847564D01*
X180302564Y-95561884D01*
X180638487Y-95337427D01*
X180638489Y-95337426D01*
X181011746Y-95182818D01*
X181407993Y-95104000D01*
X181812007Y-95104000D01*
X182208254Y-95182818D01*
G37*
G36*
X161888254Y-95182818D02*
G01*
X162261511Y-95337426D01*
X162261513Y-95337427D01*
X162597436Y-95561884D01*
X162883116Y-95847564D01*
X163107574Y-96183489D01*
X163262182Y-96556746D01*
X163341000Y-96952993D01*
X163341000Y-97357007D01*
X163262182Y-97753254D01*
X163107574Y-98126511D01*
X163107573Y-98126513D01*
X162883116Y-98462436D01*
X162597436Y-98748116D01*
X162261513Y-98972573D01*
X162261512Y-98972574D01*
X162261511Y-98972574D01*
X161888254Y-99127182D01*
X161492007Y-99206000D01*
X161087993Y-99206000D01*
X160691746Y-99127182D01*
X160318489Y-98972574D01*
X160318488Y-98972574D01*
X160318487Y-98972573D01*
X159982564Y-98748116D01*
X159696884Y-98462436D01*
X159472427Y-98126513D01*
X159472426Y-98126511D01*
X159317818Y-97753254D01*
X159239000Y-97357007D01*
X159239000Y-96952993D01*
X159317818Y-96556746D01*
X159472426Y-96183489D01*
X159696884Y-95847564D01*
X159982564Y-95561884D01*
X160318487Y-95337427D01*
X160318489Y-95337426D01*
X160691746Y-95182818D01*
X161087993Y-95104000D01*
X161492007Y-95104000D01*
X161888254Y-95182818D01*
G37*
G36*
X141568254Y-95182818D02*
G01*
X141941511Y-95337426D01*
X141941513Y-95337427D01*
X142277436Y-95561884D01*
X142563116Y-95847564D01*
X142787574Y-96183489D01*
X142942182Y-96556746D01*
X143021000Y-96952993D01*
X143021000Y-97357007D01*
X142942182Y-97753254D01*
X142787574Y-98126511D01*
X142787573Y-98126513D01*
X142563116Y-98462436D01*
X142277436Y-98748116D01*
X141941513Y-98972573D01*
X141941512Y-98972574D01*
X141941511Y-98972574D01*
X141568254Y-99127182D01*
X141172007Y-99206000D01*
X140767993Y-99206000D01*
X140371746Y-99127182D01*
X139998489Y-98972574D01*
X139998488Y-98972574D01*
X139998487Y-98972573D01*
X139662564Y-98748116D01*
X139376884Y-98462436D01*
X139152427Y-98126513D01*
X139152426Y-98126511D01*
X138997818Y-97753254D01*
X138919000Y-97357007D01*
X138919000Y-96952993D01*
X138997818Y-96556746D01*
X139152426Y-96183489D01*
X139376884Y-95847564D01*
X139662564Y-95561884D01*
X139998487Y-95337427D01*
X139998489Y-95337426D01*
X140371746Y-95182818D01*
X140767993Y-95104000D01*
X141172007Y-95104000D01*
X141568254Y-95182818D01*
G37*
G36*
X156323512Y-96258927D02*
G01*
X156472812Y-96288624D01*
X156636784Y-96356544D01*
X156784354Y-96455147D01*
X156909853Y-96580646D01*
X157008456Y-96728216D01*
X157076376Y-96892188D01*
X157111000Y-97066259D01*
X157111000Y-97243741D01*
X157076376Y-97417812D01*
X157008456Y-97581784D01*
X156909853Y-97729354D01*
X156784354Y-97854853D01*
X156636784Y-97953456D01*
X156472812Y-98021376D01*
X156323512Y-98051073D01*
X156298742Y-98056000D01*
X156121258Y-98056000D01*
X156096488Y-98051073D01*
X155947188Y-98021376D01*
X155783216Y-97953456D01*
X155635646Y-97854853D01*
X155510147Y-97729354D01*
X155411544Y-97581784D01*
X155343624Y-97417812D01*
X155309000Y-97243741D01*
X155309000Y-97066259D01*
X155343624Y-96892188D01*
X155411544Y-96728216D01*
X155510147Y-96580646D01*
X155635646Y-96455147D01*
X155783216Y-96356544D01*
X155947188Y-96288624D01*
X156096488Y-96258927D01*
X156121258Y-96254000D01*
X156298742Y-96254000D01*
X156323512Y-96258927D01*
G37*
G36*
X176643512Y-96258927D02*
G01*
X176792812Y-96288624D01*
X176956784Y-96356544D01*
X177104354Y-96455147D01*
X177229853Y-96580646D01*
X177328456Y-96728216D01*
X177396376Y-96892188D01*
X177431000Y-97066259D01*
X177431000Y-97243741D01*
X177396376Y-97417812D01*
X177328456Y-97581784D01*
X177229853Y-97729354D01*
X177104354Y-97854853D01*
X176956784Y-97953456D01*
X176792812Y-98021376D01*
X176643512Y-98051073D01*
X176618742Y-98056000D01*
X176441258Y-98056000D01*
X176416488Y-98051073D01*
X176267188Y-98021376D01*
X176103216Y-97953456D01*
X175955646Y-97854853D01*
X175830147Y-97729354D01*
X175731544Y-97581784D01*
X175663624Y-97417812D01*
X175629000Y-97243741D01*
X175629000Y-97066259D01*
X175663624Y-96892188D01*
X175731544Y-96728216D01*
X175830147Y-96580646D01*
X175955646Y-96455147D01*
X176103216Y-96356544D01*
X176267188Y-96288624D01*
X176416488Y-96258927D01*
X176441258Y-96254000D01*
X176618742Y-96254000D01*
X176643512Y-96258927D01*
G37*
G36*
X186803512Y-96258927D02*
G01*
X186952812Y-96288624D01*
X187116784Y-96356544D01*
X187264354Y-96455147D01*
X187389853Y-96580646D01*
X187488456Y-96728216D01*
X187556376Y-96892188D01*
X187591000Y-97066259D01*
X187591000Y-97243741D01*
X187556376Y-97417812D01*
X187488456Y-97581784D01*
X187389853Y-97729354D01*
X187264354Y-97854853D01*
X187116784Y-97953456D01*
X186952812Y-98021376D01*
X186803512Y-98051073D01*
X186778742Y-98056000D01*
X186601258Y-98056000D01*
X186576488Y-98051073D01*
X186427188Y-98021376D01*
X186263216Y-97953456D01*
X186115646Y-97854853D01*
X185990147Y-97729354D01*
X185891544Y-97581784D01*
X185823624Y-97417812D01*
X185789000Y-97243741D01*
X185789000Y-97066259D01*
X185823624Y-96892188D01*
X185891544Y-96728216D01*
X185990147Y-96580646D01*
X186115646Y-96455147D01*
X186263216Y-96356544D01*
X186427188Y-96288624D01*
X186576488Y-96258927D01*
X186601258Y-96254000D01*
X186778742Y-96254000D01*
X186803512Y-96258927D01*
G37*
G36*
X166483512Y-96258927D02*
G01*
X166632812Y-96288624D01*
X166796784Y-96356544D01*
X166944354Y-96455147D01*
X167069853Y-96580646D01*
X167168456Y-96728216D01*
X167236376Y-96892188D01*
X167271000Y-97066259D01*
X167271000Y-97243741D01*
X167236376Y-97417812D01*
X167168456Y-97581784D01*
X167069853Y-97729354D01*
X166944354Y-97854853D01*
X166796784Y-97953456D01*
X166632812Y-98021376D01*
X166483512Y-98051073D01*
X166458742Y-98056000D01*
X166281258Y-98056000D01*
X166256488Y-98051073D01*
X166107188Y-98021376D01*
X165943216Y-97953456D01*
X165795646Y-97854853D01*
X165670147Y-97729354D01*
X165571544Y-97581784D01*
X165503624Y-97417812D01*
X165469000Y-97243741D01*
X165469000Y-97066259D01*
X165503624Y-96892188D01*
X165571544Y-96728216D01*
X165670147Y-96580646D01*
X165795646Y-96455147D01*
X165943216Y-96356544D01*
X166107188Y-96288624D01*
X166256488Y-96258927D01*
X166281258Y-96254000D01*
X166458742Y-96254000D01*
X166483512Y-96258927D01*
G37*
G36*
X146163512Y-96258927D02*
G01*
X146312812Y-96288624D01*
X146476784Y-96356544D01*
X146624354Y-96455147D01*
X146749853Y-96580646D01*
X146848456Y-96728216D01*
X146916376Y-96892188D01*
X146951000Y-97066259D01*
X146951000Y-97243741D01*
X146916376Y-97417812D01*
X146848456Y-97581784D01*
X146749853Y-97729354D01*
X146624354Y-97854853D01*
X146476784Y-97953456D01*
X146312812Y-98021376D01*
X146163512Y-98051073D01*
X146138742Y-98056000D01*
X145961258Y-98056000D01*
X145936488Y-98051073D01*
X145787188Y-98021376D01*
X145623216Y-97953456D01*
X145475646Y-97854853D01*
X145350147Y-97729354D01*
X145251544Y-97581784D01*
X145183624Y-97417812D01*
X145149000Y-97243741D01*
X145149000Y-97066259D01*
X145183624Y-96892188D01*
X145251544Y-96728216D01*
X145350147Y-96580646D01*
X145475646Y-96455147D01*
X145623216Y-96356544D01*
X145787188Y-96288624D01*
X145936488Y-96258927D01*
X145961258Y-96254000D01*
X146138742Y-96254000D01*
X146163512Y-96258927D01*
G37*
G36*
X136003512Y-96258927D02*
G01*
X136152812Y-96288624D01*
X136316784Y-96356544D01*
X136464354Y-96455147D01*
X136589853Y-96580646D01*
X136688456Y-96728216D01*
X136756376Y-96892188D01*
X136791000Y-97066259D01*
X136791000Y-97243741D01*
X136756376Y-97417812D01*
X136688456Y-97581784D01*
X136589853Y-97729354D01*
X136464354Y-97854853D01*
X136316784Y-97953456D01*
X136152812Y-98021376D01*
X136003512Y-98051073D01*
X135978742Y-98056000D01*
X135801258Y-98056000D01*
X135776488Y-98051073D01*
X135627188Y-98021376D01*
X135463216Y-97953456D01*
X135315646Y-97854853D01*
X135190147Y-97729354D01*
X135091544Y-97581784D01*
X135023624Y-97417812D01*
X134989000Y-97243741D01*
X134989000Y-97066259D01*
X135023624Y-96892188D01*
X135091544Y-96728216D01*
X135190147Y-96580646D01*
X135315646Y-96455147D01*
X135463216Y-96356544D01*
X135627188Y-96288624D01*
X135776488Y-96258927D01*
X135801258Y-96254000D01*
X135978742Y-96254000D01*
X136003512Y-96258927D01*
G37*
G36*
X137384549Y-93486116D02*
G01*
X137495734Y-93508232D01*
X137705203Y-93594997D01*
X137893720Y-93720960D01*
X138054040Y-93881280D01*
X138180003Y-94069797D01*
X138266768Y-94279266D01*
X138311000Y-94501636D01*
X138311000Y-94728364D01*
X138266768Y-94950734D01*
X138180003Y-95160203D01*
X138054040Y-95348720D01*
X137893720Y-95509040D01*
X137705203Y-95635003D01*
X137495734Y-95721768D01*
X137384549Y-95743884D01*
X137273365Y-95766000D01*
X137046635Y-95766000D01*
X136935451Y-95743884D01*
X136824266Y-95721768D01*
X136614797Y-95635003D01*
X136426280Y-95509040D01*
X136265960Y-95348720D01*
X136139997Y-95160203D01*
X136053232Y-94950734D01*
X136009000Y-94728364D01*
X136009000Y-94501636D01*
X136053232Y-94279266D01*
X136139997Y-94069797D01*
X136265960Y-93881280D01*
X136426280Y-93720960D01*
X136614797Y-93594997D01*
X136824266Y-93508232D01*
X136935451Y-93486116D01*
X137046635Y-93464000D01*
X137273365Y-93464000D01*
X137384549Y-93486116D01*
G37*
G36*
X157704549Y-93486116D02*
G01*
X157815734Y-93508232D01*
X158025203Y-93594997D01*
X158213720Y-93720960D01*
X158374040Y-93881280D01*
X158500003Y-94069797D01*
X158586768Y-94279266D01*
X158631000Y-94501636D01*
X158631000Y-94728364D01*
X158586768Y-94950734D01*
X158500003Y-95160203D01*
X158374040Y-95348720D01*
X158213720Y-95509040D01*
X158025203Y-95635003D01*
X157815734Y-95721768D01*
X157704549Y-95743884D01*
X157593365Y-95766000D01*
X157366635Y-95766000D01*
X157255451Y-95743884D01*
X157144266Y-95721768D01*
X156934797Y-95635003D01*
X156746280Y-95509040D01*
X156585960Y-95348720D01*
X156459997Y-95160203D01*
X156373232Y-94950734D01*
X156329000Y-94728364D01*
X156329000Y-94501636D01*
X156373232Y-94279266D01*
X156459997Y-94069797D01*
X156585960Y-93881280D01*
X156746280Y-93720960D01*
X156934797Y-93594997D01*
X157144266Y-93508232D01*
X157255451Y-93486116D01*
X157366635Y-93464000D01*
X157593365Y-93464000D01*
X157704549Y-93486116D01*
G37*
G36*
X178024549Y-93486116D02*
G01*
X178135734Y-93508232D01*
X178345203Y-93594997D01*
X178533720Y-93720960D01*
X178694040Y-93881280D01*
X178820003Y-94069797D01*
X178906768Y-94279266D01*
X178951000Y-94501636D01*
X178951000Y-94728364D01*
X178906768Y-94950734D01*
X178820003Y-95160203D01*
X178694040Y-95348720D01*
X178533720Y-95509040D01*
X178345203Y-95635003D01*
X178135734Y-95721768D01*
X178024549Y-95743884D01*
X177913365Y-95766000D01*
X177686635Y-95766000D01*
X177575451Y-95743884D01*
X177464266Y-95721768D01*
X177254797Y-95635003D01*
X177066280Y-95509040D01*
X176905960Y-95348720D01*
X176779997Y-95160203D01*
X176693232Y-94950734D01*
X176649000Y-94728364D01*
X176649000Y-94501636D01*
X176693232Y-94279266D01*
X176779997Y-94069797D01*
X176905960Y-93881280D01*
X177066280Y-93720960D01*
X177254797Y-93594997D01*
X177464266Y-93508232D01*
X177575451Y-93486116D01*
X177686635Y-93464000D01*
X177913365Y-93464000D01*
X178024549Y-93486116D01*
G37*
G36*
X143734549Y-90946116D02*
G01*
X143845734Y-90968232D01*
X144055203Y-91054997D01*
X144243720Y-91180960D01*
X144404040Y-91341280D01*
X144530003Y-91529797D01*
X144616768Y-91739266D01*
X144661000Y-91961636D01*
X144661000Y-92188364D01*
X144616768Y-92410734D01*
X144530003Y-92620203D01*
X144404040Y-92808720D01*
X144243720Y-92969040D01*
X144055203Y-93095003D01*
X143845734Y-93181768D01*
X143734549Y-93203884D01*
X143623365Y-93226000D01*
X143396635Y-93226000D01*
X143285451Y-93203884D01*
X143174266Y-93181768D01*
X142964797Y-93095003D01*
X142776280Y-92969040D01*
X142615960Y-92808720D01*
X142489997Y-92620203D01*
X142403232Y-92410734D01*
X142359000Y-92188364D01*
X142359000Y-91961636D01*
X142403232Y-91739266D01*
X142489997Y-91529797D01*
X142615960Y-91341280D01*
X142776280Y-91180960D01*
X142964797Y-91054997D01*
X143174266Y-90968232D01*
X143285451Y-90946116D01*
X143396635Y-90924000D01*
X143623365Y-90924000D01*
X143734549Y-90946116D01*
G37*
G36*
X184374549Y-90946116D02*
G01*
X184485734Y-90968232D01*
X184695203Y-91054997D01*
X184883720Y-91180960D01*
X185044040Y-91341280D01*
X185170003Y-91529797D01*
X185256768Y-91739266D01*
X185301000Y-91961636D01*
X185301000Y-92188364D01*
X185256768Y-92410734D01*
X185170003Y-92620203D01*
X185044040Y-92808720D01*
X184883720Y-92969040D01*
X184695203Y-93095003D01*
X184485734Y-93181768D01*
X184374549Y-93203884D01*
X184263365Y-93226000D01*
X184036635Y-93226000D01*
X183925451Y-93203884D01*
X183814266Y-93181768D01*
X183604797Y-93095003D01*
X183416280Y-92969040D01*
X183255960Y-92808720D01*
X183129997Y-92620203D01*
X183043232Y-92410734D01*
X182999000Y-92188364D01*
X182999000Y-91961636D01*
X183043232Y-91739266D01*
X183129997Y-91529797D01*
X183255960Y-91341280D01*
X183416280Y-91180960D01*
X183604797Y-91054997D01*
X183814266Y-90968232D01*
X183925451Y-90946116D01*
X184036635Y-90924000D01*
X184263365Y-90924000D01*
X184374549Y-90946116D01*
G37*
G36*
X164054549Y-90946116D02*
G01*
X164165734Y-90968232D01*
X164375203Y-91054997D01*
X164563720Y-91180960D01*
X164724040Y-91341280D01*
X164850003Y-91529797D01*
X164936768Y-91739266D01*
X164981000Y-91961636D01*
X164981000Y-92188364D01*
X164936768Y-92410734D01*
X164850003Y-92620203D01*
X164724040Y-92808720D01*
X164563720Y-92969040D01*
X164375203Y-93095003D01*
X164165734Y-93181768D01*
X164054549Y-93203884D01*
X163943365Y-93226000D01*
X163716635Y-93226000D01*
X163605451Y-93203884D01*
X163494266Y-93181768D01*
X163284797Y-93095003D01*
X163096280Y-92969040D01*
X162935960Y-92808720D01*
X162809997Y-92620203D01*
X162723232Y-92410734D01*
X162679000Y-92188364D01*
X162679000Y-91961636D01*
X162723232Y-91739266D01*
X162809997Y-91529797D01*
X162935960Y-91341280D01*
X163096280Y-91180960D01*
X163284797Y-91054997D01*
X163494266Y-90968232D01*
X163605451Y-90946116D01*
X163716635Y-90924000D01*
X163943365Y-90924000D01*
X164054549Y-90946116D01*
G37*
G36*
X169776000Y-89401000D02*
G01*
X167674000Y-89401000D01*
X167674000Y-88399000D01*
X169776000Y-88399000D01*
X169776000Y-89401000D01*
G37*
G36*
X174856000Y-89401000D02*
G01*
X172754000Y-89401000D01*
X172754000Y-88399000D01*
X174856000Y-88399000D01*
X174856000Y-89401000D01*
G37*
G36*
X154721000Y-89401000D02*
G01*
X152619000Y-89401000D01*
X152619000Y-88399000D01*
X154721000Y-88399000D01*
X154721000Y-89401000D01*
G37*
G36*
X149641000Y-89401000D02*
G01*
X147539000Y-89401000D01*
X147539000Y-88399000D01*
X149641000Y-88399000D01*
X149641000Y-89401000D01*
G37*
G36*
X169776000Y-86099000D02*
G01*
X167674000Y-86099000D01*
X167674000Y-85097000D01*
X169776000Y-85097000D01*
X169776000Y-86099000D01*
G37*
G36*
X174856000Y-86099000D02*
G01*
X172754000Y-86099000D01*
X172754000Y-85097000D01*
X174856000Y-85097000D01*
X174856000Y-86099000D01*
G37*
G36*
X154721000Y-86099000D02*
G01*
X152619000Y-86099000D01*
X152619000Y-85097000D01*
X154721000Y-85097000D01*
X154721000Y-86099000D01*
G37*
G36*
X149641000Y-86099000D02*
G01*
X147539000Y-86099000D01*
X147539000Y-85097000D01*
X149641000Y-85097000D01*
X149641000Y-86099000D01*
G37*
G36*
X182208254Y-74862818D02*
G01*
X182581511Y-75017426D01*
X182581513Y-75017427D01*
X182917436Y-75241884D01*
X183203116Y-75527564D01*
X183427574Y-75863489D01*
X183582182Y-76236746D01*
X183661000Y-76632993D01*
X183661000Y-77037007D01*
X183582182Y-77433254D01*
X183427574Y-77806511D01*
X183427573Y-77806513D01*
X183203116Y-78142436D01*
X182917436Y-78428116D01*
X182581513Y-78652573D01*
X182581512Y-78652574D01*
X182581511Y-78652574D01*
X182208254Y-78807182D01*
X181812007Y-78886000D01*
X181407993Y-78886000D01*
X181011746Y-78807182D01*
X180638489Y-78652574D01*
X180638488Y-78652574D01*
X180638487Y-78652573D01*
X180302564Y-78428116D01*
X180016884Y-78142436D01*
X179792427Y-77806513D01*
X179792426Y-77806511D01*
X179637818Y-77433254D01*
X179559000Y-77037007D01*
X179559000Y-76632993D01*
X179637818Y-76236746D01*
X179792426Y-75863489D01*
X180016884Y-75527564D01*
X180302564Y-75241884D01*
X180638487Y-75017427D01*
X180638489Y-75017426D01*
X181011746Y-74862818D01*
X181407993Y-74784000D01*
X181812007Y-74784000D01*
X182208254Y-74862818D01*
G37*
G36*
X141568254Y-74862818D02*
G01*
X141941511Y-75017426D01*
X141941513Y-75017427D01*
X142277436Y-75241884D01*
X142563116Y-75527564D01*
X142787574Y-75863489D01*
X142942182Y-76236746D01*
X143021000Y-76632993D01*
X143021000Y-77037007D01*
X142942182Y-77433254D01*
X142787574Y-77806511D01*
X142787573Y-77806513D01*
X142563116Y-78142436D01*
X142277436Y-78428116D01*
X141941513Y-78652573D01*
X141941512Y-78652574D01*
X141941511Y-78652574D01*
X141568254Y-78807182D01*
X141172007Y-78886000D01*
X140767993Y-78886000D01*
X140371746Y-78807182D01*
X139998489Y-78652574D01*
X139998488Y-78652574D01*
X139998487Y-78652573D01*
X139662564Y-78428116D01*
X139376884Y-78142436D01*
X139152427Y-77806513D01*
X139152426Y-77806511D01*
X138997818Y-77433254D01*
X138919000Y-77037007D01*
X138919000Y-76632993D01*
X138997818Y-76236746D01*
X139152426Y-75863489D01*
X139376884Y-75527564D01*
X139662564Y-75241884D01*
X139998487Y-75017427D01*
X139998489Y-75017426D01*
X140371746Y-74862818D01*
X140767993Y-74784000D01*
X141172007Y-74784000D01*
X141568254Y-74862818D01*
G37*
G36*
X161888254Y-74862818D02*
G01*
X162261511Y-75017426D01*
X162261513Y-75017427D01*
X162597436Y-75241884D01*
X162883116Y-75527564D01*
X163107574Y-75863489D01*
X163262182Y-76236746D01*
X163341000Y-76632993D01*
X163341000Y-77037007D01*
X163262182Y-77433254D01*
X163107574Y-77806511D01*
X163107573Y-77806513D01*
X162883116Y-78142436D01*
X162597436Y-78428116D01*
X162261513Y-78652573D01*
X162261512Y-78652574D01*
X162261511Y-78652574D01*
X161888254Y-78807182D01*
X161492007Y-78886000D01*
X161087993Y-78886000D01*
X160691746Y-78807182D01*
X160318489Y-78652574D01*
X160318488Y-78652574D01*
X160318487Y-78652573D01*
X159982564Y-78428116D01*
X159696884Y-78142436D01*
X159472427Y-77806513D01*
X159472426Y-77806511D01*
X159317818Y-77433254D01*
X159239000Y-77037007D01*
X159239000Y-76632993D01*
X159317818Y-76236746D01*
X159472426Y-75863489D01*
X159696884Y-75527564D01*
X159982564Y-75241884D01*
X160318487Y-75017427D01*
X160318489Y-75017426D01*
X160691746Y-74862818D01*
X161087993Y-74784000D01*
X161492007Y-74784000D01*
X161888254Y-74862818D01*
G37*
G36*
X146163512Y-75938927D02*
G01*
X146312812Y-75968624D01*
X146476784Y-76036544D01*
X146624354Y-76135147D01*
X146749853Y-76260646D01*
X146848456Y-76408216D01*
X146916376Y-76572188D01*
X146951000Y-76746259D01*
X146951000Y-76923741D01*
X146916376Y-77097812D01*
X146848456Y-77261784D01*
X146749853Y-77409354D01*
X146624354Y-77534853D01*
X146476784Y-77633456D01*
X146312812Y-77701376D01*
X146163512Y-77731073D01*
X146138742Y-77736000D01*
X145961258Y-77736000D01*
X145936488Y-77731073D01*
X145787188Y-77701376D01*
X145623216Y-77633456D01*
X145475646Y-77534853D01*
X145350147Y-77409354D01*
X145251544Y-77261784D01*
X145183624Y-77097812D01*
X145149000Y-76923741D01*
X145149000Y-76746259D01*
X145183624Y-76572188D01*
X145251544Y-76408216D01*
X145350147Y-76260646D01*
X145475646Y-76135147D01*
X145623216Y-76036544D01*
X145787188Y-75968624D01*
X145936488Y-75938927D01*
X145961258Y-75934000D01*
X146138742Y-75934000D01*
X146163512Y-75938927D01*
G37*
G36*
X166483512Y-75938927D02*
G01*
X166632812Y-75968624D01*
X166796784Y-76036544D01*
X166944354Y-76135147D01*
X167069853Y-76260646D01*
X167168456Y-76408216D01*
X167236376Y-76572188D01*
X167271000Y-76746259D01*
X167271000Y-76923741D01*
X167236376Y-77097812D01*
X167168456Y-77261784D01*
X167069853Y-77409354D01*
X166944354Y-77534853D01*
X166796784Y-77633456D01*
X166632812Y-77701376D01*
X166483512Y-77731073D01*
X166458742Y-77736000D01*
X166281258Y-77736000D01*
X166256488Y-77731073D01*
X166107188Y-77701376D01*
X165943216Y-77633456D01*
X165795646Y-77534853D01*
X165670147Y-77409354D01*
X165571544Y-77261784D01*
X165503624Y-77097812D01*
X165469000Y-76923741D01*
X165469000Y-76746259D01*
X165503624Y-76572188D01*
X165571544Y-76408216D01*
X165670147Y-76260646D01*
X165795646Y-76135147D01*
X165943216Y-76036544D01*
X166107188Y-75968624D01*
X166256488Y-75938927D01*
X166281258Y-75934000D01*
X166458742Y-75934000D01*
X166483512Y-75938927D01*
G37*
G36*
X156323512Y-75938927D02*
G01*
X156472812Y-75968624D01*
X156636784Y-76036544D01*
X156784354Y-76135147D01*
X156909853Y-76260646D01*
X157008456Y-76408216D01*
X157076376Y-76572188D01*
X157111000Y-76746259D01*
X157111000Y-76923741D01*
X157076376Y-77097812D01*
X157008456Y-77261784D01*
X156909853Y-77409354D01*
X156784354Y-77534853D01*
X156636784Y-77633456D01*
X156472812Y-77701376D01*
X156323512Y-77731073D01*
X156298742Y-77736000D01*
X156121258Y-77736000D01*
X156096488Y-77731073D01*
X155947188Y-77701376D01*
X155783216Y-77633456D01*
X155635646Y-77534853D01*
X155510147Y-77409354D01*
X155411544Y-77261784D01*
X155343624Y-77097812D01*
X155309000Y-76923741D01*
X155309000Y-76746259D01*
X155343624Y-76572188D01*
X155411544Y-76408216D01*
X155510147Y-76260646D01*
X155635646Y-76135147D01*
X155783216Y-76036544D01*
X155947188Y-75968624D01*
X156096488Y-75938927D01*
X156121258Y-75934000D01*
X156298742Y-75934000D01*
X156323512Y-75938927D01*
G37*
G36*
X136003512Y-75938927D02*
G01*
X136152812Y-75968624D01*
X136316784Y-76036544D01*
X136464354Y-76135147D01*
X136589853Y-76260646D01*
X136688456Y-76408216D01*
X136756376Y-76572188D01*
X136791000Y-76746259D01*
X136791000Y-76923741D01*
X136756376Y-77097812D01*
X136688456Y-77261784D01*
X136589853Y-77409354D01*
X136464354Y-77534853D01*
X136316784Y-77633456D01*
X136152812Y-77701376D01*
X136003512Y-77731073D01*
X135978742Y-77736000D01*
X135801258Y-77736000D01*
X135776488Y-77731073D01*
X135627188Y-77701376D01*
X135463216Y-77633456D01*
X135315646Y-77534853D01*
X135190147Y-77409354D01*
X135091544Y-77261784D01*
X135023624Y-77097812D01*
X134989000Y-76923741D01*
X134989000Y-76746259D01*
X135023624Y-76572188D01*
X135091544Y-76408216D01*
X135190147Y-76260646D01*
X135315646Y-76135147D01*
X135463216Y-76036544D01*
X135627188Y-75968624D01*
X135776488Y-75938927D01*
X135801258Y-75934000D01*
X135978742Y-75934000D01*
X136003512Y-75938927D01*
G37*
G36*
X186803512Y-75938927D02*
G01*
X186952812Y-75968624D01*
X187116784Y-76036544D01*
X187264354Y-76135147D01*
X187389853Y-76260646D01*
X187488456Y-76408216D01*
X187556376Y-76572188D01*
X187591000Y-76746259D01*
X187591000Y-76923741D01*
X187556376Y-77097812D01*
X187488456Y-77261784D01*
X187389853Y-77409354D01*
X187264354Y-77534853D01*
X187116784Y-77633456D01*
X186952812Y-77701376D01*
X186803512Y-77731073D01*
X186778742Y-77736000D01*
X186601258Y-77736000D01*
X186576488Y-77731073D01*
X186427188Y-77701376D01*
X186263216Y-77633456D01*
X186115646Y-77534853D01*
X185990147Y-77409354D01*
X185891544Y-77261784D01*
X185823624Y-77097812D01*
X185789000Y-76923741D01*
X185789000Y-76746259D01*
X185823624Y-76572188D01*
X185891544Y-76408216D01*
X185990147Y-76260646D01*
X186115646Y-76135147D01*
X186263216Y-76036544D01*
X186427188Y-75968624D01*
X186576488Y-75938927D01*
X186601258Y-75934000D01*
X186778742Y-75934000D01*
X186803512Y-75938927D01*
G37*
G36*
X176643512Y-75938927D02*
G01*
X176792812Y-75968624D01*
X176956784Y-76036544D01*
X177104354Y-76135147D01*
X177229853Y-76260646D01*
X177328456Y-76408216D01*
X177396376Y-76572188D01*
X177431000Y-76746259D01*
X177431000Y-76923741D01*
X177396376Y-77097812D01*
X177328456Y-77261784D01*
X177229853Y-77409354D01*
X177104354Y-77534853D01*
X176956784Y-77633456D01*
X176792812Y-77701376D01*
X176643512Y-77731073D01*
X176618742Y-77736000D01*
X176441258Y-77736000D01*
X176416488Y-77731073D01*
X176267188Y-77701376D01*
X176103216Y-77633456D01*
X175955646Y-77534853D01*
X175830147Y-77409354D01*
X175731544Y-77261784D01*
X175663624Y-77097812D01*
X175629000Y-76923741D01*
X175629000Y-76746259D01*
X175663624Y-76572188D01*
X175731544Y-76408216D01*
X175830147Y-76260646D01*
X175955646Y-76135147D01*
X176103216Y-76036544D01*
X176267188Y-75968624D01*
X176416488Y-75938927D01*
X176441258Y-75934000D01*
X176618742Y-75934000D01*
X176643512Y-75938927D01*
G37*
G36*
X178024549Y-73166116D02*
G01*
X178135734Y-73188232D01*
X178345203Y-73274997D01*
X178533720Y-73400960D01*
X178694040Y-73561280D01*
X178820003Y-73749797D01*
X178906768Y-73959266D01*
X178951000Y-74181636D01*
X178951000Y-74408364D01*
X178906768Y-74630734D01*
X178820003Y-74840203D01*
X178694040Y-75028720D01*
X178533720Y-75189040D01*
X178345203Y-75315003D01*
X178135734Y-75401768D01*
X178024549Y-75423884D01*
X177913365Y-75446000D01*
X177686635Y-75446000D01*
X177575451Y-75423884D01*
X177464266Y-75401768D01*
X177254797Y-75315003D01*
X177066280Y-75189040D01*
X176905960Y-75028720D01*
X176779997Y-74840203D01*
X176693232Y-74630734D01*
X176649000Y-74408364D01*
X176649000Y-74181636D01*
X176693232Y-73959266D01*
X176779997Y-73749797D01*
X176905960Y-73561280D01*
X177066280Y-73400960D01*
X177254797Y-73274997D01*
X177464266Y-73188232D01*
X177575451Y-73166116D01*
X177686635Y-73144000D01*
X177913365Y-73144000D01*
X178024549Y-73166116D01*
G37*
G36*
X157704549Y-73166116D02*
G01*
X157815734Y-73188232D01*
X158025203Y-73274997D01*
X158213720Y-73400960D01*
X158374040Y-73561280D01*
X158500003Y-73749797D01*
X158586768Y-73959266D01*
X158631000Y-74181636D01*
X158631000Y-74408364D01*
X158586768Y-74630734D01*
X158500003Y-74840203D01*
X158374040Y-75028720D01*
X158213720Y-75189040D01*
X158025203Y-75315003D01*
X157815734Y-75401768D01*
X157704549Y-75423884D01*
X157593365Y-75446000D01*
X157366635Y-75446000D01*
X157255451Y-75423884D01*
X157144266Y-75401768D01*
X156934797Y-75315003D01*
X156746280Y-75189040D01*
X156585960Y-75028720D01*
X156459997Y-74840203D01*
X156373232Y-74630734D01*
X156329000Y-74408364D01*
X156329000Y-74181636D01*
X156373232Y-73959266D01*
X156459997Y-73749797D01*
X156585960Y-73561280D01*
X156746280Y-73400960D01*
X156934797Y-73274997D01*
X157144266Y-73188232D01*
X157255451Y-73166116D01*
X157366635Y-73144000D01*
X157593365Y-73144000D01*
X157704549Y-73166116D01*
G37*
G36*
X137384549Y-73166116D02*
G01*
X137495734Y-73188232D01*
X137705203Y-73274997D01*
X137893720Y-73400960D01*
X138054040Y-73561280D01*
X138180003Y-73749797D01*
X138266768Y-73959266D01*
X138311000Y-74181636D01*
X138311000Y-74408364D01*
X138266768Y-74630734D01*
X138180003Y-74840203D01*
X138054040Y-75028720D01*
X137893720Y-75189040D01*
X137705203Y-75315003D01*
X137495734Y-75401768D01*
X137384549Y-75423884D01*
X137273365Y-75446000D01*
X137046635Y-75446000D01*
X136935451Y-75423884D01*
X136824266Y-75401768D01*
X136614797Y-75315003D01*
X136426280Y-75189040D01*
X136265960Y-75028720D01*
X136139997Y-74840203D01*
X136053232Y-74630734D01*
X136009000Y-74408364D01*
X136009000Y-74181636D01*
X136053232Y-73959266D01*
X136139997Y-73749797D01*
X136265960Y-73561280D01*
X136426280Y-73400960D01*
X136614797Y-73274997D01*
X136824266Y-73188232D01*
X136935451Y-73166116D01*
X137046635Y-73144000D01*
X137273365Y-73144000D01*
X137384549Y-73166116D01*
G37*
G36*
X143734549Y-70626116D02*
G01*
X143845734Y-70648232D01*
X144055203Y-70734997D01*
X144243720Y-70860960D01*
X144404040Y-71021280D01*
X144530003Y-71209797D01*
X144616768Y-71419266D01*
X144661000Y-71641636D01*
X144661000Y-71868364D01*
X144616768Y-72090734D01*
X144530003Y-72300203D01*
X144404040Y-72488720D01*
X144243720Y-72649040D01*
X144055203Y-72775003D01*
X143845734Y-72861768D01*
X143734549Y-72883884D01*
X143623365Y-72906000D01*
X143396635Y-72906000D01*
X143285451Y-72883884D01*
X143174266Y-72861768D01*
X142964797Y-72775003D01*
X142776280Y-72649040D01*
X142615960Y-72488720D01*
X142489997Y-72300203D01*
X142403232Y-72090734D01*
X142359000Y-71868364D01*
X142359000Y-71641636D01*
X142403232Y-71419266D01*
X142489997Y-71209797D01*
X142615960Y-71021280D01*
X142776280Y-70860960D01*
X142964797Y-70734997D01*
X143174266Y-70648232D01*
X143285451Y-70626116D01*
X143396635Y-70604000D01*
X143623365Y-70604000D01*
X143734549Y-70626116D01*
G37*
G36*
X184374549Y-70626116D02*
G01*
X184485734Y-70648232D01*
X184695203Y-70734997D01*
X184883720Y-70860960D01*
X185044040Y-71021280D01*
X185170003Y-71209797D01*
X185256768Y-71419266D01*
X185301000Y-71641636D01*
X185301000Y-71868364D01*
X185256768Y-72090734D01*
X185170003Y-72300203D01*
X185044040Y-72488720D01*
X184883720Y-72649040D01*
X184695203Y-72775003D01*
X184485734Y-72861768D01*
X184374549Y-72883884D01*
X184263365Y-72906000D01*
X184036635Y-72906000D01*
X183925451Y-72883884D01*
X183814266Y-72861768D01*
X183604797Y-72775003D01*
X183416280Y-72649040D01*
X183255960Y-72488720D01*
X183129997Y-72300203D01*
X183043232Y-72090734D01*
X182999000Y-71868364D01*
X182999000Y-71641636D01*
X183043232Y-71419266D01*
X183129997Y-71209797D01*
X183255960Y-71021280D01*
X183416280Y-70860960D01*
X183604797Y-70734997D01*
X183814266Y-70648232D01*
X183925451Y-70626116D01*
X184036635Y-70604000D01*
X184263365Y-70604000D01*
X184374549Y-70626116D01*
G37*
G36*
X164054549Y-70626116D02*
G01*
X164165734Y-70648232D01*
X164375203Y-70734997D01*
X164563720Y-70860960D01*
X164724040Y-71021280D01*
X164850003Y-71209797D01*
X164936768Y-71419266D01*
X164981000Y-71641636D01*
X164981000Y-71868364D01*
X164936768Y-72090734D01*
X164850003Y-72300203D01*
X164724040Y-72488720D01*
X164563720Y-72649040D01*
X164375203Y-72775003D01*
X164165734Y-72861768D01*
X164054549Y-72883884D01*
X163943365Y-72906000D01*
X163716635Y-72906000D01*
X163605451Y-72883884D01*
X163494266Y-72861768D01*
X163284797Y-72775003D01*
X163096280Y-72649040D01*
X162935960Y-72488720D01*
X162809997Y-72300203D01*
X162723232Y-72090734D01*
X162679000Y-71868364D01*
X162679000Y-71641636D01*
X162723232Y-71419266D01*
X162809997Y-71209797D01*
X162935960Y-71021280D01*
X163096280Y-70860960D01*
X163284797Y-70734997D01*
X163494266Y-70648232D01*
X163605451Y-70626116D01*
X163716635Y-70604000D01*
X163943365Y-70604000D01*
X164054549Y-70626116D01*
G37*
G36*
X160186000Y-65981000D02*
G01*
X160021660Y-65981000D01*
X159997274Y-65983402D01*
X159973825Y-65990515D01*
X159952214Y-66002066D01*
X159933272Y-66017611D01*
X159917727Y-66036553D01*
X159906176Y-66058164D01*
X159899063Y-66081613D01*
X159896661Y-66105999D01*
X159899063Y-66130385D01*
X159906176Y-66153834D01*
X159917727Y-66175445D01*
X159933272Y-66194387D01*
X159942345Y-66202609D01*
X160019264Y-66265736D01*
X160091244Y-66353443D01*
X160125429Y-66417399D01*
X160144728Y-66453505D01*
X160144729Y-66453508D01*
X160177666Y-66562084D01*
X160188787Y-66675000D01*
X160177666Y-66787916D01*
X160144729Y-66896492D01*
X160144728Y-66896495D01*
X160125429Y-66932601D01*
X160091244Y-66996557D01*
X160019264Y-67084264D01*
X159931557Y-67156244D01*
X159850141Y-67199761D01*
X159829766Y-67213375D01*
X159812439Y-67230702D01*
X159798826Y-67251076D01*
X159789448Y-67273715D01*
X159784668Y-67297748D01*
X159784668Y-67322252D01*
X159789448Y-67346285D01*
X159798826Y-67368924D01*
X159812440Y-67389299D01*
X159829767Y-67406626D01*
X159850141Y-67420239D01*
X159931557Y-67463756D01*
X160019264Y-67535736D01*
X160091244Y-67623443D01*
X160125429Y-67687399D01*
X160144728Y-67723505D01*
X160144729Y-67723508D01*
X160177666Y-67832084D01*
X160188787Y-67945000D01*
X160177666Y-68057916D01*
X160144729Y-68166492D01*
X160144728Y-68166495D01*
X160125429Y-68202601D01*
X160091244Y-68266557D01*
X160019264Y-68354264D01*
X159931557Y-68426244D01*
X159867601Y-68460429D01*
X159831495Y-68479728D01*
X159831492Y-68479729D01*
X159722916Y-68512666D01*
X159638298Y-68521000D01*
X159131702Y-68521000D01*
X159047084Y-68512666D01*
X158938508Y-68479729D01*
X158938505Y-68479728D01*
X158902399Y-68460429D01*
X158838443Y-68426244D01*
X158750736Y-68354264D01*
X158678756Y-68266557D01*
X158644571Y-68202601D01*
X158625272Y-68166495D01*
X158625271Y-68166492D01*
X158592334Y-68057916D01*
X158581213Y-67945000D01*
X158592334Y-67832084D01*
X158625271Y-67723508D01*
X158625272Y-67723505D01*
X158644571Y-67687399D01*
X158678756Y-67623443D01*
X158750736Y-67535736D01*
X158838443Y-67463756D01*
X158919859Y-67420239D01*
X158940234Y-67406625D01*
X158957561Y-67389298D01*
X158971174Y-67368924D01*
X158980552Y-67346285D01*
X158985332Y-67322252D01*
X158985332Y-67297748D01*
X158980552Y-67273715D01*
X158971174Y-67251076D01*
X158957560Y-67230701D01*
X158940233Y-67213374D01*
X158919859Y-67199761D01*
X158838443Y-67156244D01*
X158750736Y-67084264D01*
X158678756Y-66996557D01*
X158644571Y-66932601D01*
X158625272Y-66896495D01*
X158625271Y-66896492D01*
X158592334Y-66787916D01*
X158581213Y-66675000D01*
X158592334Y-66562084D01*
X158625271Y-66453508D01*
X158625272Y-66453505D01*
X158644571Y-66417399D01*
X158678756Y-66353443D01*
X158750736Y-66265736D01*
X158827646Y-66202617D01*
X158844965Y-66185298D01*
X158858579Y-66164923D01*
X158867957Y-66142284D01*
X158872737Y-66118251D01*
X158872737Y-66093747D01*
X158867957Y-66069714D01*
X158858579Y-66047075D01*
X158844966Y-66026701D01*
X158827639Y-66009374D01*
X158807264Y-65995760D01*
X158784625Y-65986382D01*
X158760592Y-65981602D01*
X158748340Y-65981000D01*
X158584000Y-65981000D01*
X158584000Y-64829000D01*
X160186000Y-64829000D01*
X160186000Y-65981000D01*
G37*
G36*
X153907142Y-65933242D02*
G01*
X154055101Y-65994529D01*
X154188255Y-66083499D01*
X154301501Y-66196745D01*
X154390471Y-66329899D01*
X154451758Y-66477858D01*
X154483000Y-66634925D01*
X154483000Y-66795075D01*
X154451758Y-66952142D01*
X154390471Y-67100101D01*
X154301501Y-67233255D01*
X154188255Y-67346501D01*
X154055101Y-67435471D01*
X153907142Y-67496758D01*
X153750075Y-67528000D01*
X153589925Y-67528000D01*
X153432858Y-67496758D01*
X153284899Y-67435471D01*
X153151745Y-67346501D01*
X153038499Y-67233255D01*
X152949529Y-67100101D01*
X152888242Y-66952142D01*
X152857000Y-66795075D01*
X152857000Y-66634925D01*
X152888242Y-66477858D01*
X152949529Y-66329899D01*
X153038499Y-66196745D01*
X153151745Y-66083499D01*
X153284899Y-65994529D01*
X153432858Y-65933242D01*
X153589925Y-65902000D01*
X153750075Y-65902000D01*
X153907142Y-65933242D01*
G37*
G36*
X148827142Y-65933242D02*
G01*
X148975101Y-65994529D01*
X149108255Y-66083499D01*
X149221501Y-66196745D01*
X149310471Y-66329899D01*
X149371758Y-66477858D01*
X149403000Y-66634925D01*
X149403000Y-66795075D01*
X149371758Y-66952142D01*
X149310471Y-67100101D01*
X149221501Y-67233255D01*
X149108255Y-67346501D01*
X148975101Y-67435471D01*
X148827142Y-67496758D01*
X148670075Y-67528000D01*
X148509925Y-67528000D01*
X148352858Y-67496758D01*
X148204899Y-67435471D01*
X148071745Y-67346501D01*
X147958499Y-67233255D01*
X147869529Y-67100101D01*
X147808242Y-66952142D01*
X147777000Y-66795075D01*
X147777000Y-66634925D01*
X147808242Y-66477858D01*
X147869529Y-66329899D01*
X147958499Y-66196745D01*
X148071745Y-66083499D01*
X148204899Y-65994529D01*
X148352858Y-65933242D01*
X148509925Y-65902000D01*
X148670075Y-65902000D01*
X148827142Y-65933242D01*
G37*
G36*
X147597395Y-59410546D02*
G01*
X147770466Y-59482234D01*
X147770467Y-59482235D01*
X147926227Y-59586310D01*
X148058690Y-59718773D01*
X148058691Y-59718775D01*
X148162766Y-59874534D01*
X148234454Y-60047605D01*
X148271000Y-60231333D01*
X148271000Y-60418667D01*
X148234454Y-60602395D01*
X148162766Y-60775466D01*
X148162765Y-60775467D01*
X148058690Y-60931227D01*
X147926227Y-61063690D01*
X147847818Y-61116081D01*
X147770466Y-61167766D01*
X147597395Y-61239454D01*
X147413667Y-61276000D01*
X147226333Y-61276000D01*
X147042605Y-61239454D01*
X146869534Y-61167766D01*
X146792182Y-61116081D01*
X146713773Y-61063690D01*
X146581310Y-60931227D01*
X146477235Y-60775467D01*
X146477234Y-60775466D01*
X146405546Y-60602395D01*
X146369000Y-60418667D01*
X146369000Y-60231333D01*
X146405546Y-60047605D01*
X146477234Y-59874534D01*
X146581309Y-59718775D01*
X146581310Y-59718773D01*
X146713773Y-59586310D01*
X146869533Y-59482235D01*
X146869534Y-59482234D01*
X147042605Y-59410546D01*
X147226333Y-59374000D01*
X147413667Y-59374000D01*
X147597395Y-59410546D01*
G37*
G36*
X155891000Y-61276000D02*
G01*
X153989000Y-61276000D01*
X153989000Y-59374000D01*
X155891000Y-59374000D01*
X155891000Y-61276000D01*
G37*
G36*
X141568254Y-54542818D02*
G01*
X141941511Y-54697426D01*
X141941513Y-54697427D01*
X142277436Y-54921884D01*
X142563116Y-55207564D01*
X142787574Y-55543489D01*
X142942182Y-55916746D01*
X143021000Y-56312993D01*
X143021000Y-56717007D01*
X142942182Y-57113254D01*
X142787574Y-57486511D01*
X142787573Y-57486513D01*
X142563116Y-57822436D01*
X142277436Y-58108116D01*
X141941513Y-58332573D01*
X141941512Y-58332574D01*
X141941511Y-58332574D01*
X141568254Y-58487182D01*
X141172007Y-58566000D01*
X140767993Y-58566000D01*
X140371746Y-58487182D01*
X139998489Y-58332574D01*
X139998488Y-58332574D01*
X139998487Y-58332573D01*
X139662564Y-58108116D01*
X139376884Y-57822436D01*
X139152427Y-57486513D01*
X139152426Y-57486511D01*
X138997818Y-57113254D01*
X138919000Y-56717007D01*
X138919000Y-56312993D01*
X138997818Y-55916746D01*
X139152426Y-55543489D01*
X139376884Y-55207564D01*
X139662564Y-54921884D01*
X139998487Y-54697427D01*
X139998489Y-54697426D01*
X140371746Y-54542818D01*
X140767993Y-54464000D01*
X141172007Y-54464000D01*
X141568254Y-54542818D01*
G37*
G36*
X161888254Y-54542818D02*
G01*
X162261511Y-54697426D01*
X162261513Y-54697427D01*
X162597436Y-54921884D01*
X162883116Y-55207564D01*
X163107574Y-55543489D01*
X163262182Y-55916746D01*
X163341000Y-56312993D01*
X163341000Y-56717007D01*
X163262182Y-57113254D01*
X163107574Y-57486511D01*
X163107573Y-57486513D01*
X162883116Y-57822436D01*
X162597436Y-58108116D01*
X162261513Y-58332573D01*
X162261512Y-58332574D01*
X162261511Y-58332574D01*
X161888254Y-58487182D01*
X161492007Y-58566000D01*
X161087993Y-58566000D01*
X160691746Y-58487182D01*
X160318489Y-58332574D01*
X160318488Y-58332574D01*
X160318487Y-58332573D01*
X159982564Y-58108116D01*
X159696884Y-57822436D01*
X159472427Y-57486513D01*
X159472426Y-57486511D01*
X159317818Y-57113254D01*
X159239000Y-56717007D01*
X159239000Y-56312993D01*
X159317818Y-55916746D01*
X159472426Y-55543489D01*
X159696884Y-55207564D01*
X159982564Y-54921884D01*
X160318487Y-54697427D01*
X160318489Y-54697426D01*
X160691746Y-54542818D01*
X161087993Y-54464000D01*
X161492007Y-54464000D01*
X161888254Y-54542818D01*
G37*
G36*
X182208254Y-54542818D02*
G01*
X182581511Y-54697426D01*
X182581513Y-54697427D01*
X182917436Y-54921884D01*
X183203116Y-55207564D01*
X183427574Y-55543489D01*
X183582182Y-55916746D01*
X183661000Y-56312993D01*
X183661000Y-56717007D01*
X183582182Y-57113254D01*
X183427574Y-57486511D01*
X183427573Y-57486513D01*
X183203116Y-57822436D01*
X182917436Y-58108116D01*
X182581513Y-58332573D01*
X182581512Y-58332574D01*
X182581511Y-58332574D01*
X182208254Y-58487182D01*
X181812007Y-58566000D01*
X181407993Y-58566000D01*
X181011746Y-58487182D01*
X180638489Y-58332574D01*
X180638488Y-58332574D01*
X180638487Y-58332573D01*
X180302564Y-58108116D01*
X180016884Y-57822436D01*
X179792427Y-57486513D01*
X179792426Y-57486511D01*
X179637818Y-57113254D01*
X179559000Y-56717007D01*
X179559000Y-56312993D01*
X179637818Y-55916746D01*
X179792426Y-55543489D01*
X180016884Y-55207564D01*
X180302564Y-54921884D01*
X180638487Y-54697427D01*
X180638489Y-54697426D01*
X181011746Y-54542818D01*
X181407993Y-54464000D01*
X181812007Y-54464000D01*
X182208254Y-54542818D01*
G37*
G36*
X136003512Y-55618927D02*
G01*
X136152812Y-55648624D01*
X136316784Y-55716544D01*
X136464354Y-55815147D01*
X136589853Y-55940646D01*
X136688456Y-56088216D01*
X136756376Y-56252188D01*
X136791000Y-56426259D01*
X136791000Y-56603741D01*
X136756376Y-56777812D01*
X136688456Y-56941784D01*
X136589853Y-57089354D01*
X136464354Y-57214853D01*
X136316784Y-57313456D01*
X136152812Y-57381376D01*
X136003512Y-57411073D01*
X135978742Y-57416000D01*
X135801258Y-57416000D01*
X135776488Y-57411073D01*
X135627188Y-57381376D01*
X135463216Y-57313456D01*
X135315646Y-57214853D01*
X135190147Y-57089354D01*
X135091544Y-56941784D01*
X135023624Y-56777812D01*
X134989000Y-56603741D01*
X134989000Y-56426259D01*
X135023624Y-56252188D01*
X135091544Y-56088216D01*
X135190147Y-55940646D01*
X135315646Y-55815147D01*
X135463216Y-55716544D01*
X135627188Y-55648624D01*
X135776488Y-55618927D01*
X135801258Y-55614000D01*
X135978742Y-55614000D01*
X136003512Y-55618927D01*
G37*
G36*
X146163512Y-55618927D02*
G01*
X146312812Y-55648624D01*
X146476784Y-55716544D01*
X146624354Y-55815147D01*
X146749853Y-55940646D01*
X146848456Y-56088216D01*
X146916376Y-56252188D01*
X146951000Y-56426259D01*
X146951000Y-56603741D01*
X146916376Y-56777812D01*
X146848456Y-56941784D01*
X146749853Y-57089354D01*
X146624354Y-57214853D01*
X146476784Y-57313456D01*
X146312812Y-57381376D01*
X146163512Y-57411073D01*
X146138742Y-57416000D01*
X145961258Y-57416000D01*
X145936488Y-57411073D01*
X145787188Y-57381376D01*
X145623216Y-57313456D01*
X145475646Y-57214853D01*
X145350147Y-57089354D01*
X145251544Y-56941784D01*
X145183624Y-56777812D01*
X145149000Y-56603741D01*
X145149000Y-56426259D01*
X145183624Y-56252188D01*
X145251544Y-56088216D01*
X145350147Y-55940646D01*
X145475646Y-55815147D01*
X145623216Y-55716544D01*
X145787188Y-55648624D01*
X145936488Y-55618927D01*
X145961258Y-55614000D01*
X146138742Y-55614000D01*
X146163512Y-55618927D01*
G37*
G36*
X186803512Y-55618927D02*
G01*
X186952812Y-55648624D01*
X187116784Y-55716544D01*
X187264354Y-55815147D01*
X187389853Y-55940646D01*
X187488456Y-56088216D01*
X187556376Y-56252188D01*
X187591000Y-56426259D01*
X187591000Y-56603741D01*
X187556376Y-56777812D01*
X187488456Y-56941784D01*
X187389853Y-57089354D01*
X187264354Y-57214853D01*
X187116784Y-57313456D01*
X186952812Y-57381376D01*
X186803512Y-57411073D01*
X186778742Y-57416000D01*
X186601258Y-57416000D01*
X186576488Y-57411073D01*
X186427188Y-57381376D01*
X186263216Y-57313456D01*
X186115646Y-57214853D01*
X185990147Y-57089354D01*
X185891544Y-56941784D01*
X185823624Y-56777812D01*
X185789000Y-56603741D01*
X185789000Y-56426259D01*
X185823624Y-56252188D01*
X185891544Y-56088216D01*
X185990147Y-55940646D01*
X186115646Y-55815147D01*
X186263216Y-55716544D01*
X186427188Y-55648624D01*
X186576488Y-55618927D01*
X186601258Y-55614000D01*
X186778742Y-55614000D01*
X186803512Y-55618927D01*
G37*
G36*
X166483512Y-55618927D02*
G01*
X166632812Y-55648624D01*
X166796784Y-55716544D01*
X166944354Y-55815147D01*
X167069853Y-55940646D01*
X167168456Y-56088216D01*
X167236376Y-56252188D01*
X167271000Y-56426259D01*
X167271000Y-56603741D01*
X167236376Y-56777812D01*
X167168456Y-56941784D01*
X167069853Y-57089354D01*
X166944354Y-57214853D01*
X166796784Y-57313456D01*
X166632812Y-57381376D01*
X166483512Y-57411073D01*
X166458742Y-57416000D01*
X166281258Y-57416000D01*
X166256488Y-57411073D01*
X166107188Y-57381376D01*
X165943216Y-57313456D01*
X165795646Y-57214853D01*
X165670147Y-57089354D01*
X165571544Y-56941784D01*
X165503624Y-56777812D01*
X165469000Y-56603741D01*
X165469000Y-56426259D01*
X165503624Y-56252188D01*
X165571544Y-56088216D01*
X165670147Y-55940646D01*
X165795646Y-55815147D01*
X165943216Y-55716544D01*
X166107188Y-55648624D01*
X166256488Y-55618927D01*
X166281258Y-55614000D01*
X166458742Y-55614000D01*
X166483512Y-55618927D01*
G37*
G36*
X176643512Y-55618927D02*
G01*
X176792812Y-55648624D01*
X176956784Y-55716544D01*
X177104354Y-55815147D01*
X177229853Y-55940646D01*
X177328456Y-56088216D01*
X177396376Y-56252188D01*
X177431000Y-56426259D01*
X177431000Y-56603741D01*
X177396376Y-56777812D01*
X177328456Y-56941784D01*
X177229853Y-57089354D01*
X177104354Y-57214853D01*
X176956784Y-57313456D01*
X176792812Y-57381376D01*
X176643512Y-57411073D01*
X176618742Y-57416000D01*
X176441258Y-57416000D01*
X176416488Y-57411073D01*
X176267188Y-57381376D01*
X176103216Y-57313456D01*
X175955646Y-57214853D01*
X175830147Y-57089354D01*
X175731544Y-56941784D01*
X175663624Y-56777812D01*
X175629000Y-56603741D01*
X175629000Y-56426259D01*
X175663624Y-56252188D01*
X175731544Y-56088216D01*
X175830147Y-55940646D01*
X175955646Y-55815147D01*
X176103216Y-55716544D01*
X176267188Y-55648624D01*
X176416488Y-55618927D01*
X176441258Y-55614000D01*
X176618742Y-55614000D01*
X176643512Y-55618927D01*
G37*
G36*
X156323512Y-55618927D02*
G01*
X156472812Y-55648624D01*
X156636784Y-55716544D01*
X156784354Y-55815147D01*
X156909853Y-55940646D01*
X157008456Y-56088216D01*
X157076376Y-56252188D01*
X157111000Y-56426259D01*
X157111000Y-56603741D01*
X157076376Y-56777812D01*
X157008456Y-56941784D01*
X156909853Y-57089354D01*
X156784354Y-57214853D01*
X156636784Y-57313456D01*
X156472812Y-57381376D01*
X156323512Y-57411073D01*
X156298742Y-57416000D01*
X156121258Y-57416000D01*
X156096488Y-57411073D01*
X155947188Y-57381376D01*
X155783216Y-57313456D01*
X155635646Y-57214853D01*
X155510147Y-57089354D01*
X155411544Y-56941784D01*
X155343624Y-56777812D01*
X155309000Y-56603741D01*
X155309000Y-56426259D01*
X155343624Y-56252188D01*
X155411544Y-56088216D01*
X155510147Y-55940646D01*
X155635646Y-55815147D01*
X155783216Y-55716544D01*
X155947188Y-55648624D01*
X156096488Y-55618927D01*
X156121258Y-55614000D01*
X156298742Y-55614000D01*
X156323512Y-55618927D01*
G37*
G36*
X157704549Y-52846116D02*
G01*
X157815734Y-52868232D01*
X158025203Y-52954997D01*
X158213720Y-53080960D01*
X158374040Y-53241280D01*
X158500003Y-53429797D01*
X158586768Y-53639266D01*
X158631000Y-53861636D01*
X158631000Y-54088364D01*
X158586768Y-54310734D01*
X158500003Y-54520203D01*
X158374040Y-54708720D01*
X158213720Y-54869040D01*
X158025203Y-54995003D01*
X157815734Y-55081768D01*
X157704549Y-55103884D01*
X157593365Y-55126000D01*
X157366635Y-55126000D01*
X157255451Y-55103884D01*
X157144266Y-55081768D01*
X156934797Y-54995003D01*
X156746280Y-54869040D01*
X156585960Y-54708720D01*
X156459997Y-54520203D01*
X156373232Y-54310734D01*
X156329000Y-54088364D01*
X156329000Y-53861636D01*
X156373232Y-53639266D01*
X156459997Y-53429797D01*
X156585960Y-53241280D01*
X156746280Y-53080960D01*
X156934797Y-52954997D01*
X157144266Y-52868232D01*
X157255451Y-52846116D01*
X157366635Y-52824000D01*
X157593365Y-52824000D01*
X157704549Y-52846116D01*
G37*
G36*
X137384549Y-52846116D02*
G01*
X137495734Y-52868232D01*
X137705203Y-52954997D01*
X137893720Y-53080960D01*
X138054040Y-53241280D01*
X138180003Y-53429797D01*
X138266768Y-53639266D01*
X138311000Y-53861636D01*
X138311000Y-54088364D01*
X138266768Y-54310734D01*
X138180003Y-54520203D01*
X138054040Y-54708720D01*
X137893720Y-54869040D01*
X137705203Y-54995003D01*
X137495734Y-55081768D01*
X137384549Y-55103884D01*
X137273365Y-55126000D01*
X137046635Y-55126000D01*
X136935451Y-55103884D01*
X136824266Y-55081768D01*
X136614797Y-54995003D01*
X136426280Y-54869040D01*
X136265960Y-54708720D01*
X136139997Y-54520203D01*
X136053232Y-54310734D01*
X136009000Y-54088364D01*
X136009000Y-53861636D01*
X136053232Y-53639266D01*
X136139997Y-53429797D01*
X136265960Y-53241280D01*
X136426280Y-53080960D01*
X136614797Y-52954997D01*
X136824266Y-52868232D01*
X136935451Y-52846116D01*
X137046635Y-52824000D01*
X137273365Y-52824000D01*
X137384549Y-52846116D01*
G37*
G36*
X178024549Y-52846116D02*
G01*
X178135734Y-52868232D01*
X178345203Y-52954997D01*
X178533720Y-53080960D01*
X178694040Y-53241280D01*
X178820003Y-53429797D01*
X178906768Y-53639266D01*
X178951000Y-53861636D01*
X178951000Y-54088364D01*
X178906768Y-54310734D01*
X178820003Y-54520203D01*
X178694040Y-54708720D01*
X178533720Y-54869040D01*
X178345203Y-54995003D01*
X178135734Y-55081768D01*
X178024549Y-55103884D01*
X177913365Y-55126000D01*
X177686635Y-55126000D01*
X177575451Y-55103884D01*
X177464266Y-55081768D01*
X177254797Y-54995003D01*
X177066280Y-54869040D01*
X176905960Y-54708720D01*
X176779997Y-54520203D01*
X176693232Y-54310734D01*
X176649000Y-54088364D01*
X176649000Y-53861636D01*
X176693232Y-53639266D01*
X176779997Y-53429797D01*
X176905960Y-53241280D01*
X177066280Y-53080960D01*
X177254797Y-52954997D01*
X177464266Y-52868232D01*
X177575451Y-52846116D01*
X177686635Y-52824000D01*
X177913365Y-52824000D01*
X178024549Y-52846116D01*
G37*
G36*
X164054549Y-50306116D02*
G01*
X164165734Y-50328232D01*
X164375203Y-50414997D01*
X164563720Y-50540960D01*
X164724040Y-50701280D01*
X164850003Y-50889797D01*
X164936768Y-51099266D01*
X164981000Y-51321636D01*
X164981000Y-51548364D01*
X164936768Y-51770734D01*
X164850003Y-51980203D01*
X164724040Y-52168720D01*
X164563720Y-52329040D01*
X164375203Y-52455003D01*
X164165734Y-52541768D01*
X164054549Y-52563884D01*
X163943365Y-52586000D01*
X163716635Y-52586000D01*
X163605451Y-52563884D01*
X163494266Y-52541768D01*
X163284797Y-52455003D01*
X163096280Y-52329040D01*
X162935960Y-52168720D01*
X162809997Y-51980203D01*
X162723232Y-51770734D01*
X162679000Y-51548364D01*
X162679000Y-51321636D01*
X162723232Y-51099266D01*
X162809997Y-50889797D01*
X162935960Y-50701280D01*
X163096280Y-50540960D01*
X163284797Y-50414997D01*
X163494266Y-50328232D01*
X163605451Y-50306116D01*
X163716635Y-50284000D01*
X163943365Y-50284000D01*
X164054549Y-50306116D01*
G37*
G36*
X143734549Y-50306116D02*
G01*
X143845734Y-50328232D01*
X144055203Y-50414997D01*
X144243720Y-50540960D01*
X144404040Y-50701280D01*
X144530003Y-50889797D01*
X144616768Y-51099266D01*
X144661000Y-51321636D01*
X144661000Y-51548364D01*
X144616768Y-51770734D01*
X144530003Y-51980203D01*
X144404040Y-52168720D01*
X144243720Y-52329040D01*
X144055203Y-52455003D01*
X143845734Y-52541768D01*
X143734549Y-52563884D01*
X143623365Y-52586000D01*
X143396635Y-52586000D01*
X143285451Y-52563884D01*
X143174266Y-52541768D01*
X142964797Y-52455003D01*
X142776280Y-52329040D01*
X142615960Y-52168720D01*
X142489997Y-51980203D01*
X142403232Y-51770734D01*
X142359000Y-51548364D01*
X142359000Y-51321636D01*
X142403232Y-51099266D01*
X142489997Y-50889797D01*
X142615960Y-50701280D01*
X142776280Y-50540960D01*
X142964797Y-50414997D01*
X143174266Y-50328232D01*
X143285451Y-50306116D01*
X143396635Y-50284000D01*
X143623365Y-50284000D01*
X143734549Y-50306116D01*
G37*
G36*
X184374549Y-50306116D02*
G01*
X184485734Y-50328232D01*
X184695203Y-50414997D01*
X184883720Y-50540960D01*
X185044040Y-50701280D01*
X185170003Y-50889797D01*
X185256768Y-51099266D01*
X185301000Y-51321636D01*
X185301000Y-51548364D01*
X185256768Y-51770734D01*
X185170003Y-51980203D01*
X185044040Y-52168720D01*
X184883720Y-52329040D01*
X184695203Y-52455003D01*
X184485734Y-52541768D01*
X184374549Y-52563884D01*
X184263365Y-52586000D01*
X184036635Y-52586000D01*
X183925451Y-52563884D01*
X183814266Y-52541768D01*
X183604797Y-52455003D01*
X183416280Y-52329040D01*
X183255960Y-52168720D01*
X183129997Y-51980203D01*
X183043232Y-51770734D01*
X182999000Y-51548364D01*
X182999000Y-51321636D01*
X183043232Y-51099266D01*
X183129997Y-50889797D01*
X183255960Y-50701280D01*
X183416280Y-50540960D01*
X183604797Y-50414997D01*
X183814266Y-50328232D01*
X183925451Y-50306116D01*
X184036635Y-50284000D01*
X184263365Y-50284000D01*
X184374549Y-50306116D01*
G37*
G36*
X149641000Y-48761000D02*
G01*
X147539000Y-48761000D01*
X147539000Y-47759000D01*
X149641000Y-47759000D01*
X149641000Y-48761000D01*
G37*
G36*
X175041000Y-48761000D02*
G01*
X172939000Y-48761000D01*
X172939000Y-47759000D01*
X175041000Y-47759000D01*
X175041000Y-48761000D01*
G37*
G36*
X154721000Y-48761000D02*
G01*
X152619000Y-48761000D01*
X152619000Y-47759000D01*
X154721000Y-47759000D01*
X154721000Y-48761000D01*
G37*
G36*
X169961000Y-48761000D02*
G01*
X167859000Y-48761000D01*
X167859000Y-47759000D01*
X169961000Y-47759000D01*
X169961000Y-48761000D01*
G37*
G36*
X175041000Y-45459000D02*
G01*
X172939000Y-45459000D01*
X172939000Y-44457000D01*
X175041000Y-44457000D01*
X175041000Y-45459000D01*
G37*
G36*
X154721000Y-45459000D02*
G01*
X152619000Y-45459000D01*
X152619000Y-44457000D01*
X154721000Y-44457000D01*
X154721000Y-45459000D01*
G37*
G36*
X149641000Y-45459000D02*
G01*
X147539000Y-45459000D01*
X147539000Y-44457000D01*
X149641000Y-44457000D01*
X149641000Y-45459000D01*
G37*
G36*
X169961000Y-45459000D02*
G01*
X167859000Y-45459000D01*
X167859000Y-44457000D01*
X169961000Y-44457000D01*
X169961000Y-45459000D01*
G37*
G36*
X128315000Y-44231000D02*
G01*
X127463000Y-44231000D01*
X127463000Y-42129000D01*
X128315000Y-42129000D01*
X128315000Y-44231000D01*
G37*
G36*
X130601000Y-44231000D02*
G01*
X129749000Y-44231000D01*
X129749000Y-42129000D01*
X130601000Y-42129000D01*
X130601000Y-44231000D01*
G37*
G36*
X130601000Y-39151000D02*
G01*
X129749000Y-39151000D01*
X129749000Y-37049000D01*
X130601000Y-37049000D01*
X130601000Y-39151000D01*
G37*
G36*
X128315000Y-39151000D02*
G01*
X127463000Y-39151000D01*
X127463000Y-37049000D01*
X128315000Y-37049000D01*
X128315000Y-39151000D01*
G37*
G36*
X182208254Y-34222818D02*
G01*
X182581511Y-34377426D01*
X182581513Y-34377427D01*
X182917436Y-34601884D01*
X183203116Y-34887564D01*
X183427574Y-35223489D01*
X183582182Y-35596746D01*
X183661000Y-35992993D01*
X183661000Y-36397007D01*
X183582182Y-36793254D01*
X183427574Y-37166511D01*
X183427573Y-37166513D01*
X183203116Y-37502436D01*
X182917436Y-37788116D01*
X182581513Y-38012573D01*
X182581512Y-38012574D01*
X182581511Y-38012574D01*
X182208254Y-38167182D01*
X181812007Y-38246000D01*
X181407993Y-38246000D01*
X181011746Y-38167182D01*
X180638489Y-38012574D01*
X180638488Y-38012574D01*
X180638487Y-38012573D01*
X180302564Y-37788116D01*
X180016884Y-37502436D01*
X179792427Y-37166513D01*
X179792426Y-37166511D01*
X179637818Y-36793254D01*
X179559000Y-36397007D01*
X179559000Y-35992993D01*
X179637818Y-35596746D01*
X179792426Y-35223489D01*
X180016884Y-34887564D01*
X180302564Y-34601884D01*
X180638487Y-34377427D01*
X180638489Y-34377426D01*
X181011746Y-34222818D01*
X181407993Y-34144000D01*
X181812007Y-34144000D01*
X182208254Y-34222818D01*
G37*
G36*
X141568254Y-34222818D02*
G01*
X141941511Y-34377426D01*
X141941513Y-34377427D01*
X142277436Y-34601884D01*
X142563116Y-34887564D01*
X142787574Y-35223489D01*
X142942182Y-35596746D01*
X143021000Y-35992993D01*
X143021000Y-36397007D01*
X142942182Y-36793254D01*
X142787574Y-37166511D01*
X142787573Y-37166513D01*
X142563116Y-37502436D01*
X142277436Y-37788116D01*
X141941513Y-38012573D01*
X141941512Y-38012574D01*
X141941511Y-38012574D01*
X141568254Y-38167182D01*
X141172007Y-38246000D01*
X140767993Y-38246000D01*
X140371746Y-38167182D01*
X139998489Y-38012574D01*
X139998488Y-38012574D01*
X139998487Y-38012573D01*
X139662564Y-37788116D01*
X139376884Y-37502436D01*
X139152427Y-37166513D01*
X139152426Y-37166511D01*
X138997818Y-36793254D01*
X138919000Y-36397007D01*
X138919000Y-35992993D01*
X138997818Y-35596746D01*
X139152426Y-35223489D01*
X139376884Y-34887564D01*
X139662564Y-34601884D01*
X139998487Y-34377427D01*
X139998489Y-34377426D01*
X140371746Y-34222818D01*
X140767993Y-34144000D01*
X141172007Y-34144000D01*
X141568254Y-34222818D01*
G37*
G36*
X161888254Y-34222818D02*
G01*
X162261511Y-34377426D01*
X162261513Y-34377427D01*
X162597436Y-34601884D01*
X162883116Y-34887564D01*
X163107574Y-35223489D01*
X163262182Y-35596746D01*
X163341000Y-35992993D01*
X163341000Y-36397007D01*
X163262182Y-36793254D01*
X163107574Y-37166511D01*
X163107573Y-37166513D01*
X162883116Y-37502436D01*
X162597436Y-37788116D01*
X162261513Y-38012573D01*
X162261512Y-38012574D01*
X162261511Y-38012574D01*
X161888254Y-38167182D01*
X161492007Y-38246000D01*
X161087993Y-38246000D01*
X160691746Y-38167182D01*
X160318489Y-38012574D01*
X160318488Y-38012574D01*
X160318487Y-38012573D01*
X159982564Y-37788116D01*
X159696884Y-37502436D01*
X159472427Y-37166513D01*
X159472426Y-37166511D01*
X159317818Y-36793254D01*
X159239000Y-36397007D01*
X159239000Y-35992993D01*
X159317818Y-35596746D01*
X159472426Y-35223489D01*
X159696884Y-34887564D01*
X159982564Y-34601884D01*
X160318487Y-34377427D01*
X160318489Y-34377426D01*
X160691746Y-34222818D01*
X161087993Y-34144000D01*
X161492007Y-34144000D01*
X161888254Y-34222818D01*
G37*
G36*
X156323512Y-35298927D02*
G01*
X156472812Y-35328624D01*
X156636784Y-35396544D01*
X156784354Y-35495147D01*
X156909853Y-35620646D01*
X157008456Y-35768216D01*
X157076376Y-35932188D01*
X157111000Y-36106259D01*
X157111000Y-36283741D01*
X157076376Y-36457812D01*
X157008456Y-36621784D01*
X156909853Y-36769354D01*
X156784354Y-36894853D01*
X156636784Y-36993456D01*
X156472812Y-37061376D01*
X156323512Y-37091073D01*
X156298742Y-37096000D01*
X156121258Y-37096000D01*
X156096488Y-37091073D01*
X155947188Y-37061376D01*
X155783216Y-36993456D01*
X155635646Y-36894853D01*
X155510147Y-36769354D01*
X155411544Y-36621784D01*
X155343624Y-36457812D01*
X155309000Y-36283741D01*
X155309000Y-36106259D01*
X155343624Y-35932188D01*
X155411544Y-35768216D01*
X155510147Y-35620646D01*
X155635646Y-35495147D01*
X155783216Y-35396544D01*
X155947188Y-35328624D01*
X156096488Y-35298927D01*
X156121258Y-35294000D01*
X156298742Y-35294000D01*
X156323512Y-35298927D01*
G37*
G36*
X186803512Y-35298927D02*
G01*
X186952812Y-35328624D01*
X187116784Y-35396544D01*
X187264354Y-35495147D01*
X187389853Y-35620646D01*
X187488456Y-35768216D01*
X187556376Y-35932188D01*
X187591000Y-36106259D01*
X187591000Y-36283741D01*
X187556376Y-36457812D01*
X187488456Y-36621784D01*
X187389853Y-36769354D01*
X187264354Y-36894853D01*
X187116784Y-36993456D01*
X186952812Y-37061376D01*
X186803512Y-37091073D01*
X186778742Y-37096000D01*
X186601258Y-37096000D01*
X186576488Y-37091073D01*
X186427188Y-37061376D01*
X186263216Y-36993456D01*
X186115646Y-36894853D01*
X185990147Y-36769354D01*
X185891544Y-36621784D01*
X185823624Y-36457812D01*
X185789000Y-36283741D01*
X185789000Y-36106259D01*
X185823624Y-35932188D01*
X185891544Y-35768216D01*
X185990147Y-35620646D01*
X186115646Y-35495147D01*
X186263216Y-35396544D01*
X186427188Y-35328624D01*
X186576488Y-35298927D01*
X186601258Y-35294000D01*
X186778742Y-35294000D01*
X186803512Y-35298927D01*
G37*
G36*
X136003512Y-35298927D02*
G01*
X136152812Y-35328624D01*
X136316784Y-35396544D01*
X136464354Y-35495147D01*
X136589853Y-35620646D01*
X136688456Y-35768216D01*
X136756376Y-35932188D01*
X136791000Y-36106259D01*
X136791000Y-36283741D01*
X136756376Y-36457812D01*
X136688456Y-36621784D01*
X136589853Y-36769354D01*
X136464354Y-36894853D01*
X136316784Y-36993456D01*
X136152812Y-37061376D01*
X136003512Y-37091073D01*
X135978742Y-37096000D01*
X135801258Y-37096000D01*
X135776488Y-37091073D01*
X135627188Y-37061376D01*
X135463216Y-36993456D01*
X135315646Y-36894853D01*
X135190147Y-36769354D01*
X135091544Y-36621784D01*
X135023624Y-36457812D01*
X134989000Y-36283741D01*
X134989000Y-36106259D01*
X135023624Y-35932188D01*
X135091544Y-35768216D01*
X135190147Y-35620646D01*
X135315646Y-35495147D01*
X135463216Y-35396544D01*
X135627188Y-35328624D01*
X135776488Y-35298927D01*
X135801258Y-35294000D01*
X135978742Y-35294000D01*
X136003512Y-35298927D01*
G37*
G36*
X146163512Y-35298927D02*
G01*
X146312812Y-35328624D01*
X146476784Y-35396544D01*
X146624354Y-35495147D01*
X146749853Y-35620646D01*
X146848456Y-35768216D01*
X146916376Y-35932188D01*
X146951000Y-36106259D01*
X146951000Y-36283741D01*
X146916376Y-36457812D01*
X146848456Y-36621784D01*
X146749853Y-36769354D01*
X146624354Y-36894853D01*
X146476784Y-36993456D01*
X146312812Y-37061376D01*
X146163512Y-37091073D01*
X146138742Y-37096000D01*
X145961258Y-37096000D01*
X145936488Y-37091073D01*
X145787188Y-37061376D01*
X145623216Y-36993456D01*
X145475646Y-36894853D01*
X145350147Y-36769354D01*
X145251544Y-36621784D01*
X145183624Y-36457812D01*
X145149000Y-36283741D01*
X145149000Y-36106259D01*
X145183624Y-35932188D01*
X145251544Y-35768216D01*
X145350147Y-35620646D01*
X145475646Y-35495147D01*
X145623216Y-35396544D01*
X145787188Y-35328624D01*
X145936488Y-35298927D01*
X145961258Y-35294000D01*
X146138742Y-35294000D01*
X146163512Y-35298927D01*
G37*
G36*
X176643512Y-35298927D02*
G01*
X176792812Y-35328624D01*
X176956784Y-35396544D01*
X177104354Y-35495147D01*
X177229853Y-35620646D01*
X177328456Y-35768216D01*
X177396376Y-35932188D01*
X177431000Y-36106259D01*
X177431000Y-36283741D01*
X177396376Y-36457812D01*
X177328456Y-36621784D01*
X177229853Y-36769354D01*
X177104354Y-36894853D01*
X176956784Y-36993456D01*
X176792812Y-37061376D01*
X176643512Y-37091073D01*
X176618742Y-37096000D01*
X176441258Y-37096000D01*
X176416488Y-37091073D01*
X176267188Y-37061376D01*
X176103216Y-36993456D01*
X175955646Y-36894853D01*
X175830147Y-36769354D01*
X175731544Y-36621784D01*
X175663624Y-36457812D01*
X175629000Y-36283741D01*
X175629000Y-36106259D01*
X175663624Y-35932188D01*
X175731544Y-35768216D01*
X175830147Y-35620646D01*
X175955646Y-35495147D01*
X176103216Y-35396544D01*
X176267188Y-35328624D01*
X176416488Y-35298927D01*
X176441258Y-35294000D01*
X176618742Y-35294000D01*
X176643512Y-35298927D01*
G37*
G36*
X166483512Y-35298927D02*
G01*
X166632812Y-35328624D01*
X166796784Y-35396544D01*
X166944354Y-35495147D01*
X167069853Y-35620646D01*
X167168456Y-35768216D01*
X167236376Y-35932188D01*
X167271000Y-36106259D01*
X167271000Y-36283741D01*
X167236376Y-36457812D01*
X167168456Y-36621784D01*
X167069853Y-36769354D01*
X166944354Y-36894853D01*
X166796784Y-36993456D01*
X166632812Y-37061376D01*
X166483512Y-37091073D01*
X166458742Y-37096000D01*
X166281258Y-37096000D01*
X166256488Y-37091073D01*
X166107188Y-37061376D01*
X165943216Y-36993456D01*
X165795646Y-36894853D01*
X165670147Y-36769354D01*
X165571544Y-36621784D01*
X165503624Y-36457812D01*
X165469000Y-36283741D01*
X165469000Y-36106259D01*
X165503624Y-35932188D01*
X165571544Y-35768216D01*
X165670147Y-35620646D01*
X165795646Y-35495147D01*
X165943216Y-35396544D01*
X166107188Y-35328624D01*
X166256488Y-35298927D01*
X166281258Y-35294000D01*
X166458742Y-35294000D01*
X166483512Y-35298927D01*
G37*
G36*
X130601000Y-35341000D02*
G01*
X129749000Y-35341000D01*
X129749000Y-33239000D01*
X130601000Y-33239000D01*
X130601000Y-35341000D01*
G37*
G36*
X128315000Y-35341000D02*
G01*
X127463000Y-35341000D01*
X127463000Y-33239000D01*
X128315000Y-33239000D01*
X128315000Y-35341000D01*
G37*
G36*
X157704549Y-32526116D02*
G01*
X157815734Y-32548232D01*
X158025203Y-32634997D01*
X158213720Y-32760960D01*
X158374040Y-32921280D01*
X158500003Y-33109797D01*
X158586768Y-33319266D01*
X158631000Y-33541636D01*
X158631000Y-33768364D01*
X158586768Y-33990734D01*
X158500003Y-34200203D01*
X158374040Y-34388720D01*
X158213720Y-34549040D01*
X158025203Y-34675003D01*
X157815734Y-34761768D01*
X157704549Y-34783884D01*
X157593365Y-34806000D01*
X157366635Y-34806000D01*
X157255451Y-34783884D01*
X157144266Y-34761768D01*
X156934797Y-34675003D01*
X156746280Y-34549040D01*
X156585960Y-34388720D01*
X156459997Y-34200203D01*
X156373232Y-33990734D01*
X156329000Y-33768364D01*
X156329000Y-33541636D01*
X156373232Y-33319266D01*
X156459997Y-33109797D01*
X156585960Y-32921280D01*
X156746280Y-32760960D01*
X156934797Y-32634997D01*
X157144266Y-32548232D01*
X157255451Y-32526116D01*
X157366635Y-32504000D01*
X157593365Y-32504000D01*
X157704549Y-32526116D01*
G37*
G36*
X137384549Y-32526116D02*
G01*
X137495734Y-32548232D01*
X137705203Y-32634997D01*
X137893720Y-32760960D01*
X138054040Y-32921280D01*
X138180003Y-33109797D01*
X138266768Y-33319266D01*
X138311000Y-33541636D01*
X138311000Y-33768364D01*
X138266768Y-33990734D01*
X138180003Y-34200203D01*
X138054040Y-34388720D01*
X137893720Y-34549040D01*
X137705203Y-34675003D01*
X137495734Y-34761768D01*
X137384549Y-34783884D01*
X137273365Y-34806000D01*
X137046635Y-34806000D01*
X136935451Y-34783884D01*
X136824266Y-34761768D01*
X136614797Y-34675003D01*
X136426280Y-34549040D01*
X136265960Y-34388720D01*
X136139997Y-34200203D01*
X136053232Y-33990734D01*
X136009000Y-33768364D01*
X136009000Y-33541636D01*
X136053232Y-33319266D01*
X136139997Y-33109797D01*
X136265960Y-32921280D01*
X136426280Y-32760960D01*
X136614797Y-32634997D01*
X136824266Y-32548232D01*
X136935451Y-32526116D01*
X137046635Y-32504000D01*
X137273365Y-32504000D01*
X137384549Y-32526116D01*
G37*
G36*
X178024549Y-32526116D02*
G01*
X178135734Y-32548232D01*
X178345203Y-32634997D01*
X178533720Y-32760960D01*
X178694040Y-32921280D01*
X178820003Y-33109797D01*
X178906768Y-33319266D01*
X178951000Y-33541636D01*
X178951000Y-33768364D01*
X178906768Y-33990734D01*
X178820003Y-34200203D01*
X178694040Y-34388720D01*
X178533720Y-34549040D01*
X178345203Y-34675003D01*
X178135734Y-34761768D01*
X178024549Y-34783884D01*
X177913365Y-34806000D01*
X177686635Y-34806000D01*
X177575451Y-34783884D01*
X177464266Y-34761768D01*
X177254797Y-34675003D01*
X177066280Y-34549040D01*
X176905960Y-34388720D01*
X176779997Y-34200203D01*
X176693232Y-33990734D01*
X176649000Y-33768364D01*
X176649000Y-33541636D01*
X176693232Y-33319266D01*
X176779997Y-33109797D01*
X176905960Y-32921280D01*
X177066280Y-32760960D01*
X177254797Y-32634997D01*
X177464266Y-32548232D01*
X177575451Y-32526116D01*
X177686635Y-32504000D01*
X177913365Y-32504000D01*
X178024549Y-32526116D01*
G37*
G36*
X164054549Y-29986116D02*
G01*
X164165734Y-30008232D01*
X164375203Y-30094997D01*
X164563720Y-30220960D01*
X164724040Y-30381280D01*
X164850003Y-30569797D01*
X164936768Y-30779266D01*
X164981000Y-31001636D01*
X164981000Y-31228364D01*
X164936768Y-31450734D01*
X164850003Y-31660203D01*
X164724040Y-31848720D01*
X164563720Y-32009040D01*
X164375203Y-32135003D01*
X164165734Y-32221768D01*
X164054549Y-32243884D01*
X163943365Y-32266000D01*
X163716635Y-32266000D01*
X163605451Y-32243884D01*
X163494266Y-32221768D01*
X163284797Y-32135003D01*
X163096280Y-32009040D01*
X162935960Y-31848720D01*
X162809997Y-31660203D01*
X162723232Y-31450734D01*
X162679000Y-31228364D01*
X162679000Y-31001636D01*
X162723232Y-30779266D01*
X162809997Y-30569797D01*
X162935960Y-30381280D01*
X163096280Y-30220960D01*
X163284797Y-30094997D01*
X163494266Y-30008232D01*
X163605451Y-29986116D01*
X163716635Y-29964000D01*
X163943365Y-29964000D01*
X164054549Y-29986116D01*
G37*
G36*
X143734549Y-29986116D02*
G01*
X143845734Y-30008232D01*
X144055203Y-30094997D01*
X144243720Y-30220960D01*
X144404040Y-30381280D01*
X144530003Y-30569797D01*
X144616768Y-30779266D01*
X144661000Y-31001636D01*
X144661000Y-31228364D01*
X144616768Y-31450734D01*
X144530003Y-31660203D01*
X144404040Y-31848720D01*
X144243720Y-32009040D01*
X144055203Y-32135003D01*
X143845734Y-32221768D01*
X143734549Y-32243884D01*
X143623365Y-32266000D01*
X143396635Y-32266000D01*
X143285451Y-32243884D01*
X143174266Y-32221768D01*
X142964797Y-32135003D01*
X142776280Y-32009040D01*
X142615960Y-31848720D01*
X142489997Y-31660203D01*
X142403232Y-31450734D01*
X142359000Y-31228364D01*
X142359000Y-31001636D01*
X142403232Y-30779266D01*
X142489997Y-30569797D01*
X142615960Y-30381280D01*
X142776280Y-30220960D01*
X142964797Y-30094997D01*
X143174266Y-30008232D01*
X143285451Y-29986116D01*
X143396635Y-29964000D01*
X143623365Y-29964000D01*
X143734549Y-29986116D01*
G37*
G36*
X184374549Y-29986116D02*
G01*
X184485734Y-30008232D01*
X184695203Y-30094997D01*
X184883720Y-30220960D01*
X185044040Y-30381280D01*
X185170003Y-30569797D01*
X185256768Y-30779266D01*
X185301000Y-31001636D01*
X185301000Y-31228364D01*
X185256768Y-31450734D01*
X185170003Y-31660203D01*
X185044040Y-31848720D01*
X184883720Y-32009040D01*
X184695203Y-32135003D01*
X184485734Y-32221768D01*
X184374549Y-32243884D01*
X184263365Y-32266000D01*
X184036635Y-32266000D01*
X183925451Y-32243884D01*
X183814266Y-32221768D01*
X183604797Y-32135003D01*
X183416280Y-32009040D01*
X183255960Y-31848720D01*
X183129997Y-31660203D01*
X183043232Y-31450734D01*
X182999000Y-31228364D01*
X182999000Y-31001636D01*
X183043232Y-30779266D01*
X183129997Y-30569797D01*
X183255960Y-30381280D01*
X183416280Y-30220960D01*
X183604797Y-30094997D01*
X183814266Y-30008232D01*
X183925451Y-29986116D01*
X184036635Y-29964000D01*
X184263365Y-29964000D01*
X184374549Y-29986116D01*
G37*
G36*
X130601000Y-30261000D02*
G01*
X129749000Y-30261000D01*
X129749000Y-28159000D01*
X130601000Y-28159000D01*
X130601000Y-30261000D01*
G37*
G36*
X128315000Y-30261000D02*
G01*
X127463000Y-30261000D01*
X127463000Y-28159000D01*
X128315000Y-28159000D01*
X128315000Y-30261000D01*
G37*
M02*
