M48
; DRILL file {KiCad (5.1.5)-3} date 2020/09/25 18:15:42
; FORMAT={-:-/ absolute / inch / decimal}
; #@! TF.CreationDate,2020-09-25T18:15:42+09:00
; #@! TF.GenerationSoftware,Kicad,Pcbnew,(5.1.5)-3
FMAT,2
INCH
T1C0.0157
T2C0.0236
T3C0.0295
T4C0.0300
T5C0.0335
T6C0.0354
T7C0.0394
T8C0.0591
T9C0.0827
T10C0.0866
T11C0.1260
T12C0.1575
%
G90
G05
T1
X1.1807Y-2.2254
X1.2064Y-1.9207
X1.2398Y-3.5013
X1.5738Y-3.6136
X1.6513Y-2.4787
X1.751Y-2.6935
X1.822Y-1.9376
X1.8338Y-2.5696
X1.8855Y-3.5092
X1.9236Y-2.4028
X1.9553Y-3.6469
X1.9871Y-2.4242
X2.0582Y-2.0284
X2.1605Y-1.99
X2.1833Y-3.6855
X2.722Y-1.8871
X2.81Y-2.0198
X2.9445Y-2.9139
X2.95Y-4.225
X2.9521Y-2.1098
X2.9827Y-2.0483
X3.1039Y-1.8887
X3.1076Y-3.6591
X3.16Y-1.8277
X3.169Y-3.8128
X3.1753Y-2.0123
X3.202Y-3.6061
X3.2383Y-3.3318
X3.2393Y-1.7676
X3.2485Y-4.0626
X3.2689Y-3.5652
X3.2936Y-1.725
X3.375Y-1.875
X3.3904Y-3.6096
X3.5666Y-3.6596
X3.599Y-1.7676
X3.6954Y-1.5823
X3.716Y-2.1531
X3.7228Y-4.0094
X3.75Y-1.15
X3.8039Y-1.7991
X3.8059Y-1.3982
X3.8235Y-3.9193
X3.8267Y-3.425
X3.8326Y-3.3602
X3.8366Y-1.551
X3.8366Y-1.625
X3.8555Y-3.4877
X3.8629Y-2.125
X3.8649Y-3.8086
X3.8739Y-3.925
X3.8827Y-3.8481
X3.8856Y-2.3225
X3.9057Y-2.025
X4.1Y-3.7
X4.1624Y-4.3
X4.175Y-3.55
X4.2451Y-4.2344
X4.2494Y-2.4097
X4.4052Y-4.2365
X4.4113Y-2.6049
X4.4115Y-4.4039
X4.4877Y-2.475
X4.4909Y-4.1992
T2
X2.925Y-3.15
X2.925Y-3.2287
X2.925Y-1.3463
X2.925Y-1.425
T3
X3.675Y-4.325
X3.725Y-4.325
X3.775Y-4.325
X3.45Y-2.525
X3.5Y-2.525
X3.55Y-2.525
X3.45Y-4.325
X3.5Y-4.325
X3.55Y-4.325
X3.675Y-2.525
X3.725Y-2.525
X3.775Y-2.525
X0.925Y-2.8
X0.975Y-2.8
X1.025Y-2.8
T4
X1.5016Y-2.7
X1.5016Y-2.9
T5
X2.0963Y-2.1114
X2.175Y-2.1114
X2.2537Y-2.1114
X2.5136Y-2.3713
X2.5136Y-2.45
X2.5136Y-2.5287
T6
X1.225Y-2.7
X1.225Y-2.9
T7
X2.75Y-3.175
X2.975Y-4.0
X3.2Y-4.1
X3.3Y-4.1
X3.4Y-4.1
X3.5Y-4.1
X3.6Y-4.1
X3.7Y-4.1
X3.2Y-2.3
X3.3Y-2.3
X3.4Y-2.3
X3.5Y-2.3
X3.6Y-2.3
X3.7Y-2.3
X4.4Y-3.15
X4.4Y-3.25
X4.4Y-3.35
X4.4Y-3.45
X4.4Y-3.55
X4.4Y-3.65
X2.775Y-2.3
X2.875Y-2.3
X2.975Y-2.3
X3.075Y-2.3
X3.1Y-4.0
X3.2Y-4.0
X3.3Y-4.0
X3.4Y-4.0
X3.5Y-4.0
X3.6Y-4.0
X2.05Y-2.9
X2.15Y-2.9
X2.75Y-1.375
X4.3258Y-1.975
X4.4242Y-1.975
X2.775Y-4.1
X2.875Y-4.1
X2.975Y-4.1
X3.075Y-4.1
X3.8Y-2.2
X3.8Y-2.3
X2.875Y-2.2
X4.4Y-1.35
X4.4Y-1.45
X4.4Y-1.55
X4.4Y-1.65
X4.4Y-1.75
X4.4Y-1.85
X4.625Y-3.925
X4.625Y-4.025
X4.625Y-4.125
X4.3258Y-3.775
X4.4242Y-3.775
X2.875Y-4.0
X2.975Y-2.2
X3.8Y-4.0
X3.8Y-4.1
X3.1Y-2.2
X3.2Y-2.2
X3.3Y-2.2
X3.4Y-2.2
X3.5Y-2.2
X3.6Y-2.2
X2.75Y-1.475
X2.75Y-3.275
X4.625Y-2.125
X4.625Y-2.225
X4.625Y-2.325
T8
X2.225Y-3.0927
X2.4219Y-3.1754
X1.35Y-2.9927
X1.5469Y-3.0754
X1.25Y-2.1427
X1.4469Y-2.2254
T9
X1.9388Y-2.2138
X2.4112Y-2.6862
T10
X2.0085Y-3.325
X2.4415Y-3.325
X1.1335Y-3.225
X1.5665Y-3.225
X1.0335Y-2.375
X1.4665Y-2.375
T11
X2.8283Y-4.35
X4.5969Y-2.55
X2.8252Y-2.55
X2.8252Y-1.172
X2.8283Y-2.972
X4.6Y-4.35
X4.6Y-2.972
X4.5969Y-1.172
T12
X2.225Y-3.325
X1.35Y-3.225
X1.25Y-2.375
T0
M30
