G04 #@! TF.GenerationSoftware,KiCad,Pcbnew,(5.1.5)-3*
G04 #@! TF.CreationDate,2020-09-25T18:15:40+09:00*
G04 #@! TF.ProjectId,lefthand,6c656674-6861-46e6-942e-6b696361645f,rev?*
G04 #@! TF.SameCoordinates,Original*
G04 #@! TF.FileFunction,Legend,Bot*
G04 #@! TF.FilePolarity,Positive*
%FSLAX46Y46*%
G04 Gerber Fmt 4.6, Leading zero omitted, Abs format (unit mm)*
G04 Created by KiCad (PCBNEW (5.1.5)-3) date 2020-09-25 18:15:40*
%MOMM*%
%LPD*%
G04 APERTURE LIST*
%ADD10C,0.150000*%
%ADD11C,0.120000*%
G04 APERTURE END LIST*
D10*
X115697000Y-51308000D02*
X116713000Y-51308000D01*
X116713000Y-50292000D02*
X115697000Y-50292000D01*
X115697000Y-97028000D02*
X116713000Y-97028000D01*
X116713000Y-96012000D02*
X115697000Y-96012000D01*
X42600000Y-71120000D02*
G75*
G03X42600000Y-71120000I-4500000J0D01*
G01*
D11*
X22926522Y-72958478D02*
G75*
G02X24765000Y-68520000I1838478J1838478D01*
G01*
X26603478Y-72958478D02*
G75*
G03X24765000Y-68520000I-1838478J1838478D01*
G01*
X26565000Y-72970000D02*
X22965000Y-72970000D01*
D10*
X92583000Y-61087000D02*
X91567000Y-61087000D01*
X91567000Y-62103000D02*
X92583000Y-62103000D01*
X91567000Y-67183000D02*
X92583000Y-67183000D01*
X92583000Y-66167000D02*
X91567000Y-66167000D01*
X24257000Y-74168000D02*
X25273000Y-74168000D01*
X25273000Y-73152000D02*
X24257000Y-73152000D01*
X24892000Y-76708000D02*
X25908000Y-76708000D01*
X25908000Y-75692000D02*
X24892000Y-75692000D01*
X54483000Y-81788000D02*
X55499000Y-81788000D01*
X55499000Y-80772000D02*
X54483000Y-80772000D01*
X33528000Y-56007000D02*
X32512000Y-56007000D01*
X32512000Y-57023000D02*
X33528000Y-57023000D01*
X52832000Y-48387000D02*
X52832000Y-49403000D01*
X53848000Y-49403000D02*
X53848000Y-48387000D01*
X55372000Y-48387000D02*
X55372000Y-49403000D01*
X56388000Y-49403000D02*
X56388000Y-48387000D01*
X54102000Y-60452000D02*
X54102000Y-61468000D01*
X55118000Y-61468000D02*
X55118000Y-60452000D01*
X91567000Y-112903000D02*
X92583000Y-112903000D01*
X92583000Y-111887000D02*
X91567000Y-111887000D01*
X92583000Y-106807000D02*
X91567000Y-106807000D01*
X91567000Y-107823000D02*
X92583000Y-107823000D01*
X108458000Y-64770000D02*
X108204000Y-65024000D01*
X108458000Y-62230000D02*
X108458000Y-64770000D01*
X108204000Y-61976000D02*
X108458000Y-62230000D01*
X107442000Y-61976000D02*
X108204000Y-61976000D01*
X107188000Y-62230000D02*
X107442000Y-61976000D01*
X107188000Y-64770000D02*
X107188000Y-62230000D01*
X107442000Y-65024000D02*
X107188000Y-64770000D01*
X108204000Y-65024000D02*
X107442000Y-65024000D01*
X108458000Y-60960000D02*
X107188000Y-60960000D01*
X109220000Y-62230000D02*
X109220000Y-64770000D01*
X106426000Y-64770000D02*
X106426000Y-62230000D01*
X108458000Y-66040000D02*
X107188000Y-66040000D01*
X111252000Y-62230000D02*
X111506000Y-61976000D01*
X111252000Y-64770000D02*
X111252000Y-62230000D01*
X111506000Y-65024000D02*
X111252000Y-64770000D01*
X112268000Y-65024000D02*
X111506000Y-65024000D01*
X112522000Y-64770000D02*
X112268000Y-65024000D01*
X112522000Y-62230000D02*
X112522000Y-64770000D01*
X112268000Y-61976000D02*
X112522000Y-62230000D01*
X111506000Y-61976000D02*
X112268000Y-61976000D01*
X111252000Y-66040000D02*
X112522000Y-66040000D01*
X110490000Y-64770000D02*
X110490000Y-62230000D01*
X113284000Y-62230000D02*
X113284000Y-64770000D01*
X111252000Y-60960000D02*
X112522000Y-60960000D01*
X108458000Y-110490000D02*
X108204000Y-110744000D01*
X108458000Y-107950000D02*
X108458000Y-110490000D01*
X108204000Y-107696000D02*
X108458000Y-107950000D01*
X107442000Y-107696000D02*
X108204000Y-107696000D01*
X107188000Y-107950000D02*
X107442000Y-107696000D01*
X107188000Y-110490000D02*
X107188000Y-107950000D01*
X107442000Y-110744000D02*
X107188000Y-110490000D01*
X108204000Y-110744000D02*
X107442000Y-110744000D01*
X108458000Y-106680000D02*
X107188000Y-106680000D01*
X109220000Y-107950000D02*
X109220000Y-110490000D01*
X106426000Y-110490000D02*
X106426000Y-107950000D01*
X108458000Y-111760000D02*
X107188000Y-111760000D01*
X111252000Y-107950000D02*
X111506000Y-107696000D01*
X111252000Y-110490000D02*
X111252000Y-107950000D01*
X111506000Y-110744000D02*
X111252000Y-110490000D01*
X112268000Y-110744000D02*
X111506000Y-110744000D01*
X112522000Y-110490000D02*
X112268000Y-110744000D01*
X112522000Y-107950000D02*
X112522000Y-110490000D01*
X112268000Y-107696000D02*
X112522000Y-107950000D01*
X111506000Y-107696000D02*
X112268000Y-107696000D01*
X111252000Y-111760000D02*
X112522000Y-111760000D01*
X110490000Y-110490000D02*
X110490000Y-107950000D01*
X113284000Y-107950000D02*
X113284000Y-110490000D01*
X111252000Y-106680000D02*
X112522000Y-106680000D01*
X95250000Y-52290000D02*
X95250000Y-51790000D01*
X92750000Y-52290000D02*
X95250000Y-52290000D01*
X77250000Y-52290000D02*
X77250000Y-51790000D01*
X79250000Y-52290000D02*
X77250000Y-52290000D01*
X95250000Y-32790000D02*
X95250000Y-33290000D01*
X77250000Y-32790000D02*
X95250000Y-32790000D01*
X77250000Y-33290000D02*
X77250000Y-32790000D01*
X77250000Y-26790000D02*
X77250000Y-32790000D01*
X95250000Y-26790000D02*
X77250000Y-26790000D01*
X95250000Y-32790000D02*
X95250000Y-26790000D01*
D11*
X113345000Y-97950000D02*
X107335000Y-97950000D01*
X111095000Y-104770000D02*
X107335000Y-104770000D01*
X107335000Y-97950000D02*
X107335000Y-99210000D01*
X107335000Y-104770000D02*
X107335000Y-103510000D01*
D10*
X95250000Y-98010000D02*
X95250000Y-97510000D01*
X92750000Y-98010000D02*
X95250000Y-98010000D01*
X77250000Y-98010000D02*
X77250000Y-97510000D01*
X79250000Y-98010000D02*
X77250000Y-98010000D01*
X95250000Y-78510000D02*
X95250000Y-79010000D01*
X77250000Y-78510000D02*
X95250000Y-78510000D01*
X77250000Y-79010000D02*
X77250000Y-78510000D01*
X77250000Y-72510000D02*
X77250000Y-78510000D01*
X95250000Y-72510000D02*
X77250000Y-72510000D01*
X95250000Y-78510000D02*
X95250000Y-72510000D01*
X53213000Y-61468000D02*
X53213000Y-60452000D01*
X52197000Y-60452000D02*
X52197000Y-61468000D01*
D11*
X32510000Y-49470000D02*
X35620000Y-49470000D01*
X27430000Y-49470000D02*
X30990000Y-49470000D01*
X29970000Y-52130000D02*
X33530000Y-52130000D01*
X35050000Y-52130000D02*
X35620000Y-52130000D01*
X25340000Y-49470000D02*
X25910000Y-49470000D01*
X25910000Y-49470000D02*
X25910000Y-47950000D01*
X25340000Y-52130000D02*
X28450000Y-52130000D01*
X35620000Y-49470000D02*
X35620000Y-52130000D01*
X25340000Y-49470000D02*
X25340000Y-52130000D01*
X47685000Y-79500000D02*
X47685000Y-83060000D01*
X47685000Y-74420000D02*
X47685000Y-77980000D01*
X47685000Y-69340000D02*
X47685000Y-72900000D01*
X47685000Y-64260000D02*
X47685000Y-67820000D01*
X47685000Y-59180000D02*
X47685000Y-62740000D01*
X47685000Y-54100000D02*
X47685000Y-57660000D01*
X47685000Y-49020000D02*
X47685000Y-52580000D01*
X45025000Y-82040000D02*
X45025000Y-85150000D01*
X45025000Y-76960000D02*
X45025000Y-80520000D01*
X45025000Y-71880000D02*
X45025000Y-75440000D01*
X45025000Y-66800000D02*
X45025000Y-70360000D01*
X45025000Y-61720000D02*
X45025000Y-65280000D01*
X45025000Y-56640000D02*
X45025000Y-60200000D01*
X45025000Y-51560000D02*
X45025000Y-55120000D01*
X45025000Y-84580000D02*
X45025000Y-85150000D01*
X47685000Y-46930000D02*
X47685000Y-47500000D01*
X47685000Y-47500000D02*
X49205000Y-47500000D01*
X45025000Y-46930000D02*
X45025000Y-50040000D01*
X47685000Y-85150000D02*
X45025000Y-85150000D01*
X47685000Y-46930000D02*
X45025000Y-46930000D01*
X55940000Y-74990000D02*
X55940000Y-73660000D01*
X54610000Y-74990000D02*
X55940000Y-74990000D01*
X53340000Y-74990000D02*
X53340000Y-72330000D01*
X53340000Y-72330000D02*
X50740000Y-72330000D01*
X53340000Y-74990000D02*
X50740000Y-74990000D01*
X50740000Y-74990000D02*
X50740000Y-72330000D01*
X113320000Y-52470000D02*
X107310000Y-52470000D01*
X111070000Y-59290000D02*
X107310000Y-59290000D01*
X107310000Y-52470000D02*
X107310000Y-53730000D01*
X107310000Y-59290000D02*
X107310000Y-58030000D01*
X31115000Y-72190000D02*
X31115000Y-69780000D01*
X32585000Y-73660000D02*
G75*
G03X32585000Y-73660000I-1470000J0D01*
G01*
D10*
X119546666Y-51157142D02*
X119594285Y-51204761D01*
X119737142Y-51252380D01*
X119832380Y-51252380D01*
X119975238Y-51204761D01*
X120070476Y-51109523D01*
X120118095Y-51014285D01*
X120165714Y-50823809D01*
X120165714Y-50680952D01*
X120118095Y-50490476D01*
X120070476Y-50395238D01*
X119975238Y-50300000D01*
X119832380Y-50252380D01*
X119737142Y-50252380D01*
X119594285Y-50300000D01*
X119546666Y-50347619D01*
X118594285Y-51252380D02*
X119165714Y-51252380D01*
X118880000Y-51252380D02*
X118880000Y-50252380D01*
X118975238Y-50395238D01*
X119070476Y-50490476D01*
X119165714Y-50538095D01*
X119546666Y-96877142D02*
X119594285Y-96924761D01*
X119737142Y-96972380D01*
X119832380Y-96972380D01*
X119975238Y-96924761D01*
X120070476Y-96829523D01*
X120118095Y-96734285D01*
X120165714Y-96543809D01*
X120165714Y-96400952D01*
X120118095Y-96210476D01*
X120070476Y-96115238D01*
X119975238Y-96020000D01*
X119832380Y-95972380D01*
X119737142Y-95972380D01*
X119594285Y-96020000D01*
X119546666Y-96067619D01*
X119213333Y-95972380D02*
X118546666Y-95972380D01*
X118975238Y-96972380D01*
X38592380Y-70477142D02*
X38592380Y-70000952D01*
X37592380Y-70000952D01*
X38544761Y-70762857D02*
X38592380Y-70905714D01*
X38592380Y-71143809D01*
X38544761Y-71239047D01*
X38497142Y-71286666D01*
X38401904Y-71334285D01*
X38306666Y-71334285D01*
X38211428Y-71286666D01*
X38163809Y-71239047D01*
X38116190Y-71143809D01*
X38068571Y-70953333D01*
X38020952Y-70858095D01*
X37973333Y-70810476D01*
X37878095Y-70762857D01*
X37782857Y-70762857D01*
X37687619Y-70810476D01*
X37640000Y-70858095D01*
X37592380Y-70953333D01*
X37592380Y-71191428D01*
X37640000Y-71334285D01*
X38592380Y-72286666D02*
X38592380Y-71715238D01*
X38592380Y-72000952D02*
X37592380Y-72000952D01*
X37735238Y-71905714D01*
X37830476Y-71810476D01*
X37878095Y-71715238D01*
X24860238Y-69762619D02*
X24955476Y-69715000D01*
X25050714Y-69619761D01*
X25193571Y-69476904D01*
X25288809Y-69429285D01*
X25384047Y-69429285D01*
X25336428Y-69667380D02*
X25431666Y-69619761D01*
X25526904Y-69524523D01*
X25574523Y-69334047D01*
X25574523Y-69000714D01*
X25526904Y-68810238D01*
X25431666Y-68715000D01*
X25336428Y-68667380D01*
X25145952Y-68667380D01*
X25050714Y-68715000D01*
X24955476Y-68810238D01*
X24907857Y-69000714D01*
X24907857Y-69334047D01*
X24955476Y-69524523D01*
X25050714Y-69619761D01*
X25145952Y-69667380D01*
X25336428Y-69667380D01*
X24574523Y-68667380D02*
X23955476Y-68667380D01*
X24288809Y-69048333D01*
X24145952Y-69048333D01*
X24050714Y-69095952D01*
X24003095Y-69143571D01*
X23955476Y-69238809D01*
X23955476Y-69476904D01*
X24003095Y-69572142D01*
X24050714Y-69619761D01*
X24145952Y-69667380D01*
X24431666Y-69667380D01*
X24526904Y-69619761D01*
X24574523Y-69572142D01*
X95416666Y-62047380D02*
X95750000Y-61571190D01*
X95988095Y-62047380D02*
X95988095Y-61047380D01*
X95607142Y-61047380D01*
X95511904Y-61095000D01*
X95464285Y-61142619D01*
X95416666Y-61237857D01*
X95416666Y-61380714D01*
X95464285Y-61475952D01*
X95511904Y-61523571D01*
X95607142Y-61571190D01*
X95988095Y-61571190D01*
X94464285Y-62047380D02*
X95035714Y-62047380D01*
X94750000Y-62047380D02*
X94750000Y-61047380D01*
X94845238Y-61190238D01*
X94940476Y-61285476D01*
X95035714Y-61333095D01*
X95416666Y-67127380D02*
X95750000Y-66651190D01*
X95988095Y-67127380D02*
X95988095Y-66127380D01*
X95607142Y-66127380D01*
X95511904Y-66175000D01*
X95464285Y-66222619D01*
X95416666Y-66317857D01*
X95416666Y-66460714D01*
X95464285Y-66555952D01*
X95511904Y-66603571D01*
X95607142Y-66651190D01*
X95988095Y-66651190D01*
X95035714Y-66222619D02*
X94988095Y-66175000D01*
X94892857Y-66127380D01*
X94654761Y-66127380D01*
X94559523Y-66175000D01*
X94511904Y-66222619D01*
X94464285Y-66317857D01*
X94464285Y-66413095D01*
X94511904Y-66555952D01*
X95083333Y-67127380D01*
X94464285Y-67127380D01*
X28106666Y-74112380D02*
X28440000Y-73636190D01*
X28678095Y-74112380D02*
X28678095Y-73112380D01*
X28297142Y-73112380D01*
X28201904Y-73160000D01*
X28154285Y-73207619D01*
X28106666Y-73302857D01*
X28106666Y-73445714D01*
X28154285Y-73540952D01*
X28201904Y-73588571D01*
X28297142Y-73636190D01*
X28678095Y-73636190D01*
X27201904Y-73112380D02*
X27678095Y-73112380D01*
X27725714Y-73588571D01*
X27678095Y-73540952D01*
X27582857Y-73493333D01*
X27344761Y-73493333D01*
X27249523Y-73540952D01*
X27201904Y-73588571D01*
X27154285Y-73683809D01*
X27154285Y-73921904D01*
X27201904Y-74017142D01*
X27249523Y-74064761D01*
X27344761Y-74112380D01*
X27582857Y-74112380D01*
X27678095Y-74064761D01*
X27725714Y-74017142D01*
X28741666Y-76652380D02*
X29075000Y-76176190D01*
X29313095Y-76652380D02*
X29313095Y-75652380D01*
X28932142Y-75652380D01*
X28836904Y-75700000D01*
X28789285Y-75747619D01*
X28741666Y-75842857D01*
X28741666Y-75985714D01*
X28789285Y-76080952D01*
X28836904Y-76128571D01*
X28932142Y-76176190D01*
X29313095Y-76176190D01*
X28408333Y-75652380D02*
X27741666Y-75652380D01*
X28170238Y-76652380D01*
X55157666Y-83002380D02*
X55491000Y-82526190D01*
X55729095Y-83002380D02*
X55729095Y-82002380D01*
X55348142Y-82002380D01*
X55252904Y-82050000D01*
X55205285Y-82097619D01*
X55157666Y-82192857D01*
X55157666Y-82335714D01*
X55205285Y-82430952D01*
X55252904Y-82478571D01*
X55348142Y-82526190D01*
X55729095Y-82526190D01*
X54586238Y-82430952D02*
X54681476Y-82383333D01*
X54729095Y-82335714D01*
X54776714Y-82240476D01*
X54776714Y-82192857D01*
X54729095Y-82097619D01*
X54681476Y-82050000D01*
X54586238Y-82002380D01*
X54395761Y-82002380D01*
X54300523Y-82050000D01*
X54252904Y-82097619D01*
X54205285Y-82192857D01*
X54205285Y-82240476D01*
X54252904Y-82335714D01*
X54300523Y-82383333D01*
X54395761Y-82430952D01*
X54586238Y-82430952D01*
X54681476Y-82478571D01*
X54729095Y-82526190D01*
X54776714Y-82621428D01*
X54776714Y-82811904D01*
X54729095Y-82907142D01*
X54681476Y-82954761D01*
X54586238Y-83002380D01*
X54395761Y-83002380D01*
X54300523Y-82954761D01*
X54252904Y-82907142D01*
X54205285Y-82811904D01*
X54205285Y-82621428D01*
X54252904Y-82526190D01*
X54300523Y-82478571D01*
X54395761Y-82430952D01*
X33186666Y-55697380D02*
X33520000Y-55221190D01*
X33758095Y-55697380D02*
X33758095Y-54697380D01*
X33377142Y-54697380D01*
X33281904Y-54745000D01*
X33234285Y-54792619D01*
X33186666Y-54887857D01*
X33186666Y-55030714D01*
X33234285Y-55125952D01*
X33281904Y-55173571D01*
X33377142Y-55221190D01*
X33758095Y-55221190D01*
X32710476Y-55697380D02*
X32520000Y-55697380D01*
X32424761Y-55649761D01*
X32377142Y-55602142D01*
X32281904Y-55459285D01*
X32234285Y-55268809D01*
X32234285Y-54887857D01*
X32281904Y-54792619D01*
X32329523Y-54745000D01*
X32424761Y-54697380D01*
X32615238Y-54697380D01*
X32710476Y-54745000D01*
X32758095Y-54792619D01*
X32805714Y-54887857D01*
X32805714Y-55125952D01*
X32758095Y-55221190D01*
X32710476Y-55268809D01*
X32615238Y-55316428D01*
X32424761Y-55316428D01*
X32329523Y-55268809D01*
X32281904Y-55221190D01*
X32234285Y-55125952D01*
X55062380Y-48252142D02*
X54586190Y-47918809D01*
X55062380Y-47680714D02*
X54062380Y-47680714D01*
X54062380Y-48061666D01*
X54110000Y-48156904D01*
X54157619Y-48204523D01*
X54252857Y-48252142D01*
X54395714Y-48252142D01*
X54490952Y-48204523D01*
X54538571Y-48156904D01*
X54586190Y-48061666D01*
X54586190Y-47680714D01*
X55062380Y-49204523D02*
X55062380Y-48633095D01*
X55062380Y-48918809D02*
X54062380Y-48918809D01*
X54205238Y-48823571D01*
X54300476Y-48728333D01*
X54348095Y-48633095D01*
X54062380Y-49823571D02*
X54062380Y-49918809D01*
X54110000Y-50014047D01*
X54157619Y-50061666D01*
X54252857Y-50109285D01*
X54443333Y-50156904D01*
X54681428Y-50156904D01*
X54871904Y-50109285D01*
X54967142Y-50061666D01*
X55014761Y-50014047D01*
X55062380Y-49918809D01*
X55062380Y-49823571D01*
X55014761Y-49728333D01*
X54967142Y-49680714D01*
X54871904Y-49633095D01*
X54681428Y-49585476D01*
X54443333Y-49585476D01*
X54252857Y-49633095D01*
X54157619Y-49680714D01*
X54110000Y-49728333D01*
X54062380Y-49823571D01*
X57602380Y-48252142D02*
X57126190Y-47918809D01*
X57602380Y-47680714D02*
X56602380Y-47680714D01*
X56602380Y-48061666D01*
X56650000Y-48156904D01*
X56697619Y-48204523D01*
X56792857Y-48252142D01*
X56935714Y-48252142D01*
X57030952Y-48204523D01*
X57078571Y-48156904D01*
X57126190Y-48061666D01*
X57126190Y-47680714D01*
X57602380Y-49204523D02*
X57602380Y-48633095D01*
X57602380Y-48918809D02*
X56602380Y-48918809D01*
X56745238Y-48823571D01*
X56840476Y-48728333D01*
X56888095Y-48633095D01*
X57602380Y-50156904D02*
X57602380Y-49585476D01*
X57602380Y-49871190D02*
X56602380Y-49871190D01*
X56745238Y-49775952D01*
X56840476Y-49680714D01*
X56888095Y-49585476D01*
X55062380Y-63492142D02*
X54586190Y-63158809D01*
X55062380Y-62920714D02*
X54062380Y-62920714D01*
X54062380Y-63301666D01*
X54110000Y-63396904D01*
X54157619Y-63444523D01*
X54252857Y-63492142D01*
X54395714Y-63492142D01*
X54490952Y-63444523D01*
X54538571Y-63396904D01*
X54586190Y-63301666D01*
X54586190Y-62920714D01*
X55062380Y-64444523D02*
X55062380Y-63873095D01*
X55062380Y-64158809D02*
X54062380Y-64158809D01*
X54205238Y-64063571D01*
X54300476Y-63968333D01*
X54348095Y-63873095D01*
X54157619Y-64825476D02*
X54110000Y-64873095D01*
X54062380Y-64968333D01*
X54062380Y-65206428D01*
X54110000Y-65301666D01*
X54157619Y-65349285D01*
X54252857Y-65396904D01*
X54348095Y-65396904D01*
X54490952Y-65349285D01*
X55062380Y-64777857D01*
X55062380Y-65396904D01*
X89542857Y-112847380D02*
X89876190Y-112371190D01*
X90114285Y-112847380D02*
X90114285Y-111847380D01*
X89733333Y-111847380D01*
X89638095Y-111895000D01*
X89590476Y-111942619D01*
X89542857Y-112037857D01*
X89542857Y-112180714D01*
X89590476Y-112275952D01*
X89638095Y-112323571D01*
X89733333Y-112371190D01*
X90114285Y-112371190D01*
X88590476Y-112847380D02*
X89161904Y-112847380D01*
X88876190Y-112847380D02*
X88876190Y-111847380D01*
X88971428Y-111990238D01*
X89066666Y-112085476D01*
X89161904Y-112133095D01*
X87733333Y-112180714D02*
X87733333Y-112847380D01*
X87971428Y-111799761D02*
X88209523Y-112514047D01*
X87590476Y-112514047D01*
X89542857Y-107767380D02*
X89876190Y-107291190D01*
X90114285Y-107767380D02*
X90114285Y-106767380D01*
X89733333Y-106767380D01*
X89638095Y-106815000D01*
X89590476Y-106862619D01*
X89542857Y-106957857D01*
X89542857Y-107100714D01*
X89590476Y-107195952D01*
X89638095Y-107243571D01*
X89733333Y-107291190D01*
X90114285Y-107291190D01*
X88590476Y-107767380D02*
X89161904Y-107767380D01*
X88876190Y-107767380D02*
X88876190Y-106767380D01*
X88971428Y-106910238D01*
X89066666Y-107005476D01*
X89161904Y-107053095D01*
X87685714Y-106767380D02*
X88161904Y-106767380D01*
X88209523Y-107243571D01*
X88161904Y-107195952D01*
X88066666Y-107148333D01*
X87828571Y-107148333D01*
X87733333Y-107195952D01*
X87685714Y-107243571D01*
X87638095Y-107338809D01*
X87638095Y-107576904D01*
X87685714Y-107672142D01*
X87733333Y-107719761D01*
X87828571Y-107767380D01*
X88066666Y-107767380D01*
X88161904Y-107719761D01*
X88209523Y-107672142D01*
X105814761Y-58991666D02*
X105862380Y-59134523D01*
X105862380Y-59372619D01*
X105814761Y-59467857D01*
X105767142Y-59515476D01*
X105671904Y-59563095D01*
X105576666Y-59563095D01*
X105481428Y-59515476D01*
X105433809Y-59467857D01*
X105386190Y-59372619D01*
X105338571Y-59182142D01*
X105290952Y-59086904D01*
X105243333Y-59039285D01*
X105148095Y-58991666D01*
X105052857Y-58991666D01*
X104957619Y-59039285D01*
X104910000Y-59086904D01*
X104862380Y-59182142D01*
X104862380Y-59420238D01*
X104910000Y-59563095D01*
X104862380Y-59896428D02*
X105862380Y-60134523D01*
X105148095Y-60325000D01*
X105862380Y-60515476D01*
X104862380Y-60753571D01*
X104957619Y-61086904D02*
X104910000Y-61134523D01*
X104862380Y-61229761D01*
X104862380Y-61467857D01*
X104910000Y-61563095D01*
X104957619Y-61610714D01*
X105052857Y-61658333D01*
X105148095Y-61658333D01*
X105290952Y-61610714D01*
X105862380Y-61039285D01*
X105862380Y-61658333D01*
X114704761Y-58991666D02*
X114752380Y-59134523D01*
X114752380Y-59372619D01*
X114704761Y-59467857D01*
X114657142Y-59515476D01*
X114561904Y-59563095D01*
X114466666Y-59563095D01*
X114371428Y-59515476D01*
X114323809Y-59467857D01*
X114276190Y-59372619D01*
X114228571Y-59182142D01*
X114180952Y-59086904D01*
X114133333Y-59039285D01*
X114038095Y-58991666D01*
X113942857Y-58991666D01*
X113847619Y-59039285D01*
X113800000Y-59086904D01*
X113752380Y-59182142D01*
X113752380Y-59420238D01*
X113800000Y-59563095D01*
X113752380Y-59896428D02*
X114752380Y-60134523D01*
X114038095Y-60325000D01*
X114752380Y-60515476D01*
X113752380Y-60753571D01*
X113752380Y-61039285D02*
X113752380Y-61658333D01*
X114133333Y-61325000D01*
X114133333Y-61467857D01*
X114180952Y-61563095D01*
X114228571Y-61610714D01*
X114323809Y-61658333D01*
X114561904Y-61658333D01*
X114657142Y-61610714D01*
X114704761Y-61563095D01*
X114752380Y-61467857D01*
X114752380Y-61182142D01*
X114704761Y-61086904D01*
X114657142Y-61039285D01*
X105814761Y-104870476D02*
X105862380Y-105013333D01*
X105862380Y-105251428D01*
X105814761Y-105346666D01*
X105767142Y-105394285D01*
X105671904Y-105441904D01*
X105576666Y-105441904D01*
X105481428Y-105394285D01*
X105433809Y-105346666D01*
X105386190Y-105251428D01*
X105338571Y-105060952D01*
X105290952Y-104965714D01*
X105243333Y-104918095D01*
X105148095Y-104870476D01*
X105052857Y-104870476D01*
X104957619Y-104918095D01*
X104910000Y-104965714D01*
X104862380Y-105060952D01*
X104862380Y-105299047D01*
X104910000Y-105441904D01*
X104862380Y-105775238D02*
X105862380Y-106013333D01*
X105148095Y-106203809D01*
X105862380Y-106394285D01*
X104862380Y-106632380D01*
X105862380Y-107537142D02*
X105862380Y-106965714D01*
X105862380Y-107251428D02*
X104862380Y-107251428D01*
X105005238Y-107156190D01*
X105100476Y-107060952D01*
X105148095Y-106965714D01*
X104862380Y-108156190D02*
X104862380Y-108251428D01*
X104910000Y-108346666D01*
X104957619Y-108394285D01*
X105052857Y-108441904D01*
X105243333Y-108489523D01*
X105481428Y-108489523D01*
X105671904Y-108441904D01*
X105767142Y-108394285D01*
X105814761Y-108346666D01*
X105862380Y-108251428D01*
X105862380Y-108156190D01*
X105814761Y-108060952D01*
X105767142Y-108013333D01*
X105671904Y-107965714D01*
X105481428Y-107918095D01*
X105243333Y-107918095D01*
X105052857Y-107965714D01*
X104957619Y-108013333D01*
X104910000Y-108060952D01*
X104862380Y-108156190D01*
X114704761Y-104870476D02*
X114752380Y-105013333D01*
X114752380Y-105251428D01*
X114704761Y-105346666D01*
X114657142Y-105394285D01*
X114561904Y-105441904D01*
X114466666Y-105441904D01*
X114371428Y-105394285D01*
X114323809Y-105346666D01*
X114276190Y-105251428D01*
X114228571Y-105060952D01*
X114180952Y-104965714D01*
X114133333Y-104918095D01*
X114038095Y-104870476D01*
X113942857Y-104870476D01*
X113847619Y-104918095D01*
X113800000Y-104965714D01*
X113752380Y-105060952D01*
X113752380Y-105299047D01*
X113800000Y-105441904D01*
X113752380Y-105775238D02*
X114752380Y-106013333D01*
X114038095Y-106203809D01*
X114752380Y-106394285D01*
X113752380Y-106632380D01*
X114752380Y-107537142D02*
X114752380Y-106965714D01*
X114752380Y-107251428D02*
X113752380Y-107251428D01*
X113895238Y-107156190D01*
X113990476Y-107060952D01*
X114038095Y-106965714D01*
X114752380Y-108489523D02*
X114752380Y-107918095D01*
X114752380Y-108203809D02*
X113752380Y-108203809D01*
X113895238Y-108108571D01*
X113990476Y-108013333D01*
X114038095Y-107918095D01*
X96646904Y-31837380D02*
X96646904Y-32646904D01*
X96599285Y-32742142D01*
X96551666Y-32789761D01*
X96456428Y-32837380D01*
X96265952Y-32837380D01*
X96170714Y-32789761D01*
X96123095Y-32742142D01*
X96075476Y-32646904D01*
X96075476Y-31837380D01*
X95646904Y-31932619D02*
X95599285Y-31885000D01*
X95504047Y-31837380D01*
X95265952Y-31837380D01*
X95170714Y-31885000D01*
X95123095Y-31932619D01*
X95075476Y-32027857D01*
X95075476Y-32123095D01*
X95123095Y-32265952D01*
X95694523Y-32837380D01*
X95075476Y-32837380D01*
X109371904Y-103352380D02*
X109371904Y-104161904D01*
X109324285Y-104257142D01*
X109276666Y-104304761D01*
X109181428Y-104352380D01*
X108990952Y-104352380D01*
X108895714Y-104304761D01*
X108848095Y-104257142D01*
X108800476Y-104161904D01*
X108800476Y-103352380D01*
X108419523Y-103352380D02*
X107800476Y-103352380D01*
X108133809Y-103733333D01*
X107990952Y-103733333D01*
X107895714Y-103780952D01*
X107848095Y-103828571D01*
X107800476Y-103923809D01*
X107800476Y-104161904D01*
X107848095Y-104257142D01*
X107895714Y-104304761D01*
X107990952Y-104352380D01*
X108276666Y-104352380D01*
X108371904Y-104304761D01*
X108419523Y-104257142D01*
X96646904Y-77557380D02*
X96646904Y-78366904D01*
X96599285Y-78462142D01*
X96551666Y-78509761D01*
X96456428Y-78557380D01*
X96265952Y-78557380D01*
X96170714Y-78509761D01*
X96123095Y-78462142D01*
X96075476Y-78366904D01*
X96075476Y-77557380D01*
X95170714Y-77890714D02*
X95170714Y-78557380D01*
X95408809Y-77509761D02*
X95646904Y-78224047D01*
X95027857Y-78224047D01*
X53157380Y-63492142D02*
X52681190Y-63158809D01*
X53157380Y-62920714D02*
X52157380Y-62920714D01*
X52157380Y-63301666D01*
X52205000Y-63396904D01*
X52252619Y-63444523D01*
X52347857Y-63492142D01*
X52490714Y-63492142D01*
X52585952Y-63444523D01*
X52633571Y-63396904D01*
X52681190Y-63301666D01*
X52681190Y-62920714D01*
X53157380Y-64444523D02*
X53157380Y-63873095D01*
X53157380Y-64158809D02*
X52157380Y-64158809D01*
X52300238Y-64063571D01*
X52395476Y-63968333D01*
X52443095Y-63873095D01*
X52157380Y-64777857D02*
X52157380Y-65396904D01*
X52538333Y-65063571D01*
X52538333Y-65206428D01*
X52585952Y-65301666D01*
X52633571Y-65349285D01*
X52728809Y-65396904D01*
X52966904Y-65396904D01*
X53062142Y-65349285D01*
X53109761Y-65301666D01*
X53157380Y-65206428D01*
X53157380Y-64920714D01*
X53109761Y-64825476D01*
X53062142Y-64777857D01*
X23792380Y-49990476D02*
X24506666Y-49990476D01*
X24649523Y-49942857D01*
X24744761Y-49847619D01*
X24792380Y-49704761D01*
X24792380Y-49609523D01*
X23887619Y-50419047D02*
X23840000Y-50466666D01*
X23792380Y-50561904D01*
X23792380Y-50800000D01*
X23840000Y-50895238D01*
X23887619Y-50942857D01*
X23982857Y-50990476D01*
X24078095Y-50990476D01*
X24220952Y-50942857D01*
X24792380Y-50371428D01*
X24792380Y-50990476D01*
X23887619Y-51371428D02*
X23840000Y-51419047D01*
X23792380Y-51514285D01*
X23792380Y-51752380D01*
X23840000Y-51847619D01*
X23887619Y-51895238D01*
X23982857Y-51942857D01*
X24078095Y-51942857D01*
X24220952Y-51895238D01*
X24792380Y-51323809D01*
X24792380Y-51942857D01*
X43989523Y-47077380D02*
X43989523Y-47791666D01*
X44037142Y-47934523D01*
X44132380Y-48029761D01*
X44275238Y-48077380D01*
X44370476Y-48077380D01*
X42989523Y-48077380D02*
X43560952Y-48077380D01*
X43275238Y-48077380D02*
X43275238Y-47077380D01*
X43370476Y-47220238D01*
X43465714Y-47315476D01*
X43560952Y-47363095D01*
X42418095Y-47505952D02*
X42513333Y-47458333D01*
X42560952Y-47410714D01*
X42608571Y-47315476D01*
X42608571Y-47267857D01*
X42560952Y-47172619D01*
X42513333Y-47125000D01*
X42418095Y-47077380D01*
X42227619Y-47077380D01*
X42132380Y-47125000D01*
X42084761Y-47172619D01*
X42037142Y-47267857D01*
X42037142Y-47315476D01*
X42084761Y-47410714D01*
X42132380Y-47458333D01*
X42227619Y-47505952D01*
X42418095Y-47505952D01*
X42513333Y-47553571D01*
X42560952Y-47601190D01*
X42608571Y-47696428D01*
X42608571Y-47886904D01*
X42560952Y-47982142D01*
X42513333Y-48029761D01*
X42418095Y-48077380D01*
X42227619Y-48077380D01*
X42132380Y-48029761D01*
X42084761Y-47982142D01*
X42037142Y-47886904D01*
X42037142Y-47696428D01*
X42084761Y-47601190D01*
X42132380Y-47553571D01*
X42227619Y-47505952D01*
X56392380Y-72850476D02*
X57106666Y-72850476D01*
X57249523Y-72802857D01*
X57344761Y-72707619D01*
X57392380Y-72564761D01*
X57392380Y-72469523D01*
X56487619Y-73279047D02*
X56440000Y-73326666D01*
X56392380Y-73421904D01*
X56392380Y-73660000D01*
X56440000Y-73755238D01*
X56487619Y-73802857D01*
X56582857Y-73850476D01*
X56678095Y-73850476D01*
X56820952Y-73802857D01*
X57392380Y-73231428D01*
X57392380Y-73850476D01*
X56392380Y-74755238D02*
X56392380Y-74279047D01*
X56868571Y-74231428D01*
X56820952Y-74279047D01*
X56773333Y-74374285D01*
X56773333Y-74612380D01*
X56820952Y-74707619D01*
X56868571Y-74755238D01*
X56963809Y-74802857D01*
X57201904Y-74802857D01*
X57297142Y-74755238D01*
X57344761Y-74707619D01*
X57392380Y-74612380D01*
X57392380Y-74374285D01*
X57344761Y-74279047D01*
X57297142Y-74231428D01*
X109981904Y-50832380D02*
X109981904Y-51641904D01*
X109934285Y-51737142D01*
X109886666Y-51784761D01*
X109791428Y-51832380D01*
X109600952Y-51832380D01*
X109505714Y-51784761D01*
X109458095Y-51737142D01*
X109410476Y-51641904D01*
X109410476Y-50832380D01*
X108410476Y-51832380D02*
X108981904Y-51832380D01*
X108696190Y-51832380D02*
X108696190Y-50832380D01*
X108791428Y-50975238D01*
X108886666Y-51070476D01*
X108981904Y-51118095D01*
X29097380Y-70381904D02*
X28097380Y-70381904D01*
X28097380Y-70620000D01*
X28145000Y-70762857D01*
X28240238Y-70858095D01*
X28335476Y-70905714D01*
X28525952Y-70953333D01*
X28668809Y-70953333D01*
X28859285Y-70905714D01*
X28954523Y-70858095D01*
X29049761Y-70762857D01*
X29097380Y-70620000D01*
X29097380Y-70381904D01*
X29097380Y-71905714D02*
X29097380Y-71334285D01*
X29097380Y-71620000D02*
X28097380Y-71620000D01*
X28240238Y-71524761D01*
X28335476Y-71429523D01*
X28383095Y-71334285D01*
X32467380Y-69918095D02*
X31467380Y-69918095D01*
X32467380Y-70489523D02*
X31895952Y-70060952D01*
X31467380Y-70489523D02*
X32038809Y-69918095D01*
M02*
