G04 #@! TF.GenerationSoftware,KiCad,Pcbnew,(5.1.5)-3*
G04 #@! TF.CreationDate,2020-09-25T18:15:40+09:00*
G04 #@! TF.ProjectId,lefthand,6c656674-6861-46e6-942e-6b696361645f,rev?*
G04 #@! TF.SameCoordinates,Original*
G04 #@! TF.FileFunction,Legend,Top*
G04 #@! TF.FilePolarity,Positive*
%FSLAX46Y46*%
G04 Gerber Fmt 4.6, Leading zero omitted, Abs format (unit mm)*
G04 Created by KiCad (PCBNEW (5.1.5)-3) date 2020-09-25 18:15:40*
%MOMM*%
%LPD*%
G04 APERTURE LIST*
%ADD10C,0.120000*%
%ADD11C,0.150000*%
G04 APERTURE END LIST*
D10*
X38650000Y-67225000D02*
X38650000Y-60425000D01*
X24850000Y-67225000D02*
X38650000Y-67225000D01*
X24850000Y-53425000D02*
X24850000Y-67225000D01*
X38650000Y-53425000D02*
X24850000Y-53425000D01*
X38650000Y-60425000D02*
X38650000Y-53425000D01*
D11*
X108458000Y-64643000D02*
X107442000Y-64643000D01*
X107442000Y-63627000D02*
X108458000Y-63627000D01*
X111252000Y-63627000D02*
X112268000Y-63627000D01*
X112268000Y-64643000D02*
X111252000Y-64643000D01*
D10*
X75690000Y-33125199D02*
X75290000Y-33125199D01*
X75490000Y-32925199D02*
X75490000Y-33325199D01*
X74665000Y-37276000D02*
X73925000Y-37276000D01*
X74832000Y-37236000D02*
X73758000Y-37236000D01*
X74959000Y-37196000D02*
X73631000Y-37196000D01*
X75063000Y-37156000D02*
X73527000Y-37156000D01*
X75154000Y-37116000D02*
X73436000Y-37116000D01*
X75235000Y-37076000D02*
X73355000Y-37076000D01*
X75308000Y-37036000D02*
X73282000Y-37036000D01*
X73455000Y-36996000D02*
X73215000Y-36996000D01*
X75375000Y-36996000D02*
X75135000Y-36996000D01*
X73455000Y-36956000D02*
X73153000Y-36956000D01*
X75437000Y-36956000D02*
X75135000Y-36956000D01*
X73455000Y-36916000D02*
X73095000Y-36916000D01*
X75495000Y-36916000D02*
X75135000Y-36916000D01*
X73455000Y-36876000D02*
X73041000Y-36876000D01*
X75549000Y-36876000D02*
X75135000Y-36876000D01*
X73455000Y-36836000D02*
X72991000Y-36836000D01*
X75599000Y-36836000D02*
X75135000Y-36836000D01*
X73455000Y-36796000D02*
X72944000Y-36796000D01*
X75646000Y-36796000D02*
X75135000Y-36796000D01*
X73455000Y-36756000D02*
X72899000Y-36756000D01*
X75691000Y-36756000D02*
X75135000Y-36756000D01*
X73455000Y-36716000D02*
X72857000Y-36716000D01*
X75733000Y-36716000D02*
X75135000Y-36716000D01*
X73455000Y-36676000D02*
X72817000Y-36676000D01*
X75773000Y-36676000D02*
X75135000Y-36676000D01*
X73455000Y-36636000D02*
X72779000Y-36636000D01*
X75811000Y-36636000D02*
X75135000Y-36636000D01*
X73455000Y-36596000D02*
X72743000Y-36596000D01*
X75847000Y-36596000D02*
X75135000Y-36596000D01*
X73455000Y-36556000D02*
X72708000Y-36556000D01*
X75882000Y-36556000D02*
X75135000Y-36556000D01*
X73455000Y-36516000D02*
X72676000Y-36516000D01*
X75914000Y-36516000D02*
X75135000Y-36516000D01*
X73455000Y-36476000D02*
X72645000Y-36476000D01*
X75945000Y-36476000D02*
X75135000Y-36476000D01*
X73455000Y-36436000D02*
X72615000Y-36436000D01*
X75975000Y-36436000D02*
X75135000Y-36436000D01*
X73455000Y-36396000D02*
X72587000Y-36396000D01*
X76003000Y-36396000D02*
X75135000Y-36396000D01*
X73455000Y-36356000D02*
X72560000Y-36356000D01*
X76030000Y-36356000D02*
X75135000Y-36356000D01*
X73455000Y-36316000D02*
X72535000Y-36316000D01*
X76055000Y-36316000D02*
X75135000Y-36316000D01*
X73455000Y-36276000D02*
X72510000Y-36276000D01*
X76080000Y-36276000D02*
X75135000Y-36276000D01*
X73455000Y-36236000D02*
X72487000Y-36236000D01*
X76103000Y-36236000D02*
X75135000Y-36236000D01*
X73455000Y-36196000D02*
X72465000Y-36196000D01*
X76125000Y-36196000D02*
X75135000Y-36196000D01*
X73455000Y-36156000D02*
X72444000Y-36156000D01*
X76146000Y-36156000D02*
X75135000Y-36156000D01*
X73455000Y-36116000D02*
X72425000Y-36116000D01*
X76165000Y-36116000D02*
X75135000Y-36116000D01*
X73455000Y-36076000D02*
X72406000Y-36076000D01*
X76184000Y-36076000D02*
X75135000Y-36076000D01*
X73455000Y-36036000D02*
X72388000Y-36036000D01*
X76202000Y-36036000D02*
X75135000Y-36036000D01*
X73455000Y-35996000D02*
X72371000Y-35996000D01*
X76219000Y-35996000D02*
X75135000Y-35996000D01*
X73455000Y-35956000D02*
X72355000Y-35956000D01*
X76235000Y-35956000D02*
X75135000Y-35956000D01*
X73455000Y-35916000D02*
X72341000Y-35916000D01*
X76249000Y-35916000D02*
X75135000Y-35916000D01*
X73455000Y-35875000D02*
X72327000Y-35875000D01*
X76263000Y-35875000D02*
X75135000Y-35875000D01*
X73455000Y-35835000D02*
X72313000Y-35835000D01*
X76277000Y-35835000D02*
X75135000Y-35835000D01*
X73455000Y-35795000D02*
X72301000Y-35795000D01*
X76289000Y-35795000D02*
X75135000Y-35795000D01*
X73455000Y-35755000D02*
X72290000Y-35755000D01*
X76300000Y-35755000D02*
X75135000Y-35755000D01*
X73455000Y-35715000D02*
X72279000Y-35715000D01*
X76311000Y-35715000D02*
X75135000Y-35715000D01*
X73455000Y-35675000D02*
X72270000Y-35675000D01*
X76320000Y-35675000D02*
X75135000Y-35675000D01*
X73455000Y-35635000D02*
X72261000Y-35635000D01*
X76329000Y-35635000D02*
X75135000Y-35635000D01*
X73455000Y-35595000D02*
X72253000Y-35595000D01*
X76337000Y-35595000D02*
X75135000Y-35595000D01*
X73455000Y-35555000D02*
X72245000Y-35555000D01*
X76345000Y-35555000D02*
X75135000Y-35555000D01*
X73455000Y-35515000D02*
X72239000Y-35515000D01*
X76351000Y-35515000D02*
X75135000Y-35515000D01*
X73455000Y-35475000D02*
X72233000Y-35475000D01*
X76357000Y-35475000D02*
X75135000Y-35475000D01*
X73455000Y-35435000D02*
X72228000Y-35435000D01*
X76362000Y-35435000D02*
X75135000Y-35435000D01*
X73455000Y-35395000D02*
X72224000Y-35395000D01*
X76366000Y-35395000D02*
X75135000Y-35395000D01*
X76369000Y-35355000D02*
X72221000Y-35355000D01*
X76372000Y-35315000D02*
X72218000Y-35315000D01*
X76374000Y-35275000D02*
X72216000Y-35275000D01*
X76375000Y-35235000D02*
X72215000Y-35235000D01*
X76375000Y-35195000D02*
X72215000Y-35195000D01*
X76415000Y-35195000D02*
G75*
G03X76415000Y-35195000I-2120000J0D01*
G01*
D11*
X91313000Y-34417000D02*
X91313000Y-35433000D01*
X90297000Y-35433000D02*
X90297000Y-34417000D01*
X92202000Y-35433000D02*
X92202000Y-34417000D01*
X93218000Y-34417000D02*
X93218000Y-35433000D01*
X108458000Y-110363000D02*
X107442000Y-110363000D01*
X107442000Y-109347000D02*
X108458000Y-109347000D01*
X111252000Y-109347000D02*
X112268000Y-109347000D01*
X112268000Y-110363000D02*
X111252000Y-110363000D01*
D10*
X75690000Y-78940199D02*
X75290000Y-78940199D01*
X75490000Y-78740199D02*
X75490000Y-79140199D01*
X74665000Y-83091000D02*
X73925000Y-83091000D01*
X74832000Y-83051000D02*
X73758000Y-83051000D01*
X74959000Y-83011000D02*
X73631000Y-83011000D01*
X75063000Y-82971000D02*
X73527000Y-82971000D01*
X75154000Y-82931000D02*
X73436000Y-82931000D01*
X75235000Y-82891000D02*
X73355000Y-82891000D01*
X75308000Y-82851000D02*
X73282000Y-82851000D01*
X73455000Y-82811000D02*
X73215000Y-82811000D01*
X75375000Y-82811000D02*
X75135000Y-82811000D01*
X73455000Y-82771000D02*
X73153000Y-82771000D01*
X75437000Y-82771000D02*
X75135000Y-82771000D01*
X73455000Y-82731000D02*
X73095000Y-82731000D01*
X75495000Y-82731000D02*
X75135000Y-82731000D01*
X73455000Y-82691000D02*
X73041000Y-82691000D01*
X75549000Y-82691000D02*
X75135000Y-82691000D01*
X73455000Y-82651000D02*
X72991000Y-82651000D01*
X75599000Y-82651000D02*
X75135000Y-82651000D01*
X73455000Y-82611000D02*
X72944000Y-82611000D01*
X75646000Y-82611000D02*
X75135000Y-82611000D01*
X73455000Y-82571000D02*
X72899000Y-82571000D01*
X75691000Y-82571000D02*
X75135000Y-82571000D01*
X73455000Y-82531000D02*
X72857000Y-82531000D01*
X75733000Y-82531000D02*
X75135000Y-82531000D01*
X73455000Y-82491000D02*
X72817000Y-82491000D01*
X75773000Y-82491000D02*
X75135000Y-82491000D01*
X73455000Y-82451000D02*
X72779000Y-82451000D01*
X75811000Y-82451000D02*
X75135000Y-82451000D01*
X73455000Y-82411000D02*
X72743000Y-82411000D01*
X75847000Y-82411000D02*
X75135000Y-82411000D01*
X73455000Y-82371000D02*
X72708000Y-82371000D01*
X75882000Y-82371000D02*
X75135000Y-82371000D01*
X73455000Y-82331000D02*
X72676000Y-82331000D01*
X75914000Y-82331000D02*
X75135000Y-82331000D01*
X73455000Y-82291000D02*
X72645000Y-82291000D01*
X75945000Y-82291000D02*
X75135000Y-82291000D01*
X73455000Y-82251000D02*
X72615000Y-82251000D01*
X75975000Y-82251000D02*
X75135000Y-82251000D01*
X73455000Y-82211000D02*
X72587000Y-82211000D01*
X76003000Y-82211000D02*
X75135000Y-82211000D01*
X73455000Y-82171000D02*
X72560000Y-82171000D01*
X76030000Y-82171000D02*
X75135000Y-82171000D01*
X73455000Y-82131000D02*
X72535000Y-82131000D01*
X76055000Y-82131000D02*
X75135000Y-82131000D01*
X73455000Y-82091000D02*
X72510000Y-82091000D01*
X76080000Y-82091000D02*
X75135000Y-82091000D01*
X73455000Y-82051000D02*
X72487000Y-82051000D01*
X76103000Y-82051000D02*
X75135000Y-82051000D01*
X73455000Y-82011000D02*
X72465000Y-82011000D01*
X76125000Y-82011000D02*
X75135000Y-82011000D01*
X73455000Y-81971000D02*
X72444000Y-81971000D01*
X76146000Y-81971000D02*
X75135000Y-81971000D01*
X73455000Y-81931000D02*
X72425000Y-81931000D01*
X76165000Y-81931000D02*
X75135000Y-81931000D01*
X73455000Y-81891000D02*
X72406000Y-81891000D01*
X76184000Y-81891000D02*
X75135000Y-81891000D01*
X73455000Y-81851000D02*
X72388000Y-81851000D01*
X76202000Y-81851000D02*
X75135000Y-81851000D01*
X73455000Y-81811000D02*
X72371000Y-81811000D01*
X76219000Y-81811000D02*
X75135000Y-81811000D01*
X73455000Y-81771000D02*
X72355000Y-81771000D01*
X76235000Y-81771000D02*
X75135000Y-81771000D01*
X73455000Y-81731000D02*
X72341000Y-81731000D01*
X76249000Y-81731000D02*
X75135000Y-81731000D01*
X73455000Y-81690000D02*
X72327000Y-81690000D01*
X76263000Y-81690000D02*
X75135000Y-81690000D01*
X73455000Y-81650000D02*
X72313000Y-81650000D01*
X76277000Y-81650000D02*
X75135000Y-81650000D01*
X73455000Y-81610000D02*
X72301000Y-81610000D01*
X76289000Y-81610000D02*
X75135000Y-81610000D01*
X73455000Y-81570000D02*
X72290000Y-81570000D01*
X76300000Y-81570000D02*
X75135000Y-81570000D01*
X73455000Y-81530000D02*
X72279000Y-81530000D01*
X76311000Y-81530000D02*
X75135000Y-81530000D01*
X73455000Y-81490000D02*
X72270000Y-81490000D01*
X76320000Y-81490000D02*
X75135000Y-81490000D01*
X73455000Y-81450000D02*
X72261000Y-81450000D01*
X76329000Y-81450000D02*
X75135000Y-81450000D01*
X73455000Y-81410000D02*
X72253000Y-81410000D01*
X76337000Y-81410000D02*
X75135000Y-81410000D01*
X73455000Y-81370000D02*
X72245000Y-81370000D01*
X76345000Y-81370000D02*
X75135000Y-81370000D01*
X73455000Y-81330000D02*
X72239000Y-81330000D01*
X76351000Y-81330000D02*
X75135000Y-81330000D01*
X73455000Y-81290000D02*
X72233000Y-81290000D01*
X76357000Y-81290000D02*
X75135000Y-81290000D01*
X73455000Y-81250000D02*
X72228000Y-81250000D01*
X76362000Y-81250000D02*
X75135000Y-81250000D01*
X73455000Y-81210000D02*
X72224000Y-81210000D01*
X76366000Y-81210000D02*
X75135000Y-81210000D01*
X76369000Y-81170000D02*
X72221000Y-81170000D01*
X76372000Y-81130000D02*
X72218000Y-81130000D01*
X76374000Y-81090000D02*
X72216000Y-81090000D01*
X76375000Y-81050000D02*
X72215000Y-81050000D01*
X76375000Y-81010000D02*
X72215000Y-81010000D01*
X76415000Y-81010000D02*
G75*
G03X76415000Y-81010000I-2120000J0D01*
G01*
D11*
X86868000Y-81788000D02*
X85852000Y-81788000D01*
X85852000Y-80772000D02*
X86868000Y-80772000D01*
X85852000Y-82677000D02*
X86868000Y-82677000D01*
X86868000Y-83693000D02*
X85852000Y-83693000D01*
D10*
X68520000Y-33595000D02*
X69850000Y-33595000D01*
X68520000Y-34925000D02*
X68520000Y-33595000D01*
X68520000Y-36195000D02*
X71180000Y-36195000D01*
X71180000Y-36195000D02*
X71180000Y-36255000D01*
X68520000Y-36195000D02*
X68520000Y-36255000D01*
X68520000Y-36255000D02*
X71180000Y-36255000D01*
X74235000Y-54550000D02*
X75565000Y-54550000D01*
X74235000Y-55880000D02*
X74235000Y-54550000D01*
X74235000Y-57150000D02*
X76895000Y-57150000D01*
X76895000Y-57150000D02*
X76895000Y-57210000D01*
X74235000Y-57150000D02*
X74235000Y-57210000D01*
X74235000Y-57210000D02*
X76895000Y-57210000D01*
X71695000Y-54550000D02*
X73025000Y-54550000D01*
X71695000Y-55880000D02*
X71695000Y-54550000D01*
X71695000Y-57150000D02*
X74355000Y-57150000D01*
X74355000Y-57150000D02*
X74355000Y-57210000D01*
X71695000Y-57150000D02*
X71695000Y-57210000D01*
X71695000Y-57210000D02*
X74355000Y-57210000D01*
X69155000Y-59750000D02*
X69155000Y-58420000D01*
X70485000Y-59750000D02*
X69155000Y-59750000D01*
X71755000Y-59750000D02*
X71755000Y-57090000D01*
X71755000Y-57090000D02*
X79435000Y-57090000D01*
X71755000Y-59750000D02*
X79435000Y-59750000D01*
X79435000Y-59750000D02*
X79435000Y-57090000D01*
X95310000Y-57090000D02*
X95310000Y-58420000D01*
X93980000Y-57090000D02*
X95310000Y-57090000D01*
X92710000Y-57090000D02*
X92710000Y-59750000D01*
X92710000Y-59750000D02*
X79950000Y-59750000D01*
X92710000Y-57090000D02*
X79950000Y-57090000D01*
X79950000Y-57090000D02*
X79950000Y-59750000D01*
X92770000Y-54550000D02*
X92770000Y-55880000D01*
X91440000Y-54550000D02*
X92770000Y-54550000D01*
X90170000Y-54550000D02*
X90170000Y-57210000D01*
X90170000Y-57210000D02*
X77410000Y-57210000D01*
X90170000Y-54550000D02*
X77410000Y-54550000D01*
X77410000Y-54550000D02*
X77410000Y-57210000D01*
X68520000Y-36135000D02*
X69850000Y-36135000D01*
X68520000Y-37465000D02*
X68520000Y-36135000D01*
X68520000Y-38735000D02*
X71180000Y-38735000D01*
X71180000Y-38735000D02*
X71180000Y-38795000D01*
X68520000Y-38735000D02*
X68520000Y-38795000D01*
X68520000Y-38795000D02*
X71180000Y-38795000D01*
X68520000Y-79315000D02*
X69850000Y-79315000D01*
X68520000Y-80645000D02*
X68520000Y-79315000D01*
X68520000Y-81915000D02*
X71180000Y-81915000D01*
X71180000Y-81915000D02*
X71180000Y-81975000D01*
X68520000Y-81915000D02*
X68520000Y-81975000D01*
X68520000Y-81975000D02*
X71180000Y-81975000D01*
X95190000Y-100270000D02*
X96520000Y-100270000D01*
X95190000Y-101600000D02*
X95190000Y-100270000D01*
X95190000Y-102870000D02*
X97850000Y-102870000D01*
X97850000Y-102870000D02*
X97850000Y-105470000D01*
X95190000Y-102870000D02*
X95190000Y-105470000D01*
X95190000Y-105470000D02*
X97850000Y-105470000D01*
X74235000Y-100270000D02*
X75565000Y-100270000D01*
X74235000Y-101600000D02*
X74235000Y-100270000D01*
X74235000Y-102870000D02*
X76895000Y-102870000D01*
X76895000Y-102870000D02*
X76895000Y-102930000D01*
X74235000Y-102870000D02*
X74235000Y-102930000D01*
X74235000Y-102930000D02*
X76895000Y-102930000D01*
X71695000Y-100270000D02*
X73025000Y-100270000D01*
X71695000Y-101600000D02*
X71695000Y-100270000D01*
X71695000Y-102870000D02*
X74355000Y-102870000D01*
X74355000Y-102870000D02*
X74355000Y-102930000D01*
X71695000Y-102870000D02*
X71695000Y-102930000D01*
X71695000Y-102930000D02*
X74355000Y-102930000D01*
X69155000Y-105470000D02*
X69155000Y-104140000D01*
X70485000Y-105470000D02*
X69155000Y-105470000D01*
X71755000Y-105470000D02*
X71755000Y-102810000D01*
X71755000Y-102810000D02*
X79435000Y-102810000D01*
X71755000Y-105470000D02*
X79435000Y-105470000D01*
X79435000Y-105470000D02*
X79435000Y-102810000D01*
X92770000Y-100270000D02*
X92770000Y-101600000D01*
X91440000Y-100270000D02*
X92770000Y-100270000D01*
X90170000Y-100270000D02*
X90170000Y-102930000D01*
X90170000Y-102930000D02*
X77410000Y-102930000D01*
X90170000Y-100270000D02*
X77410000Y-100270000D01*
X77410000Y-100270000D02*
X77410000Y-102930000D01*
X95310000Y-102810000D02*
X95310000Y-104140000D01*
X93980000Y-102810000D02*
X95310000Y-102810000D01*
X92710000Y-102810000D02*
X92710000Y-105470000D01*
X92710000Y-105470000D02*
X79950000Y-105470000D01*
X92710000Y-102810000D02*
X79950000Y-102810000D01*
X79950000Y-102810000D02*
X79950000Y-105470000D01*
X68520000Y-81855000D02*
X69850000Y-81855000D01*
X68520000Y-83185000D02*
X68520000Y-81855000D01*
X68520000Y-84455000D02*
X71180000Y-84455000D01*
X71180000Y-84455000D02*
X71180000Y-84515000D01*
X68520000Y-84455000D02*
X68520000Y-84515000D01*
X68520000Y-84515000D02*
X71180000Y-84515000D01*
D11*
X112675000Y-56865000D02*
X112375000Y-56865000D01*
X113875000Y-56865000D02*
X108675000Y-56865000D01*
X107375000Y-51365000D02*
X107375000Y-56865000D01*
X107375000Y-50165000D02*
X107375000Y-51365000D01*
X108575000Y-56865000D02*
X107375000Y-56865000D01*
X108775000Y-56865000D02*
X108575000Y-56865000D01*
X114875000Y-56865000D02*
X113875000Y-56865000D01*
X114875000Y-50165000D02*
X114875000Y-56865000D01*
X107375000Y-49665000D02*
X114875000Y-49665000D01*
X114875000Y-49965000D02*
X114875000Y-49665000D01*
X114875000Y-50165000D02*
X114875000Y-49965000D01*
X107375000Y-49665000D02*
X107375000Y-50165000D01*
X113875000Y-52165000D02*
X113875000Y-56165000D01*
X113875000Y-52165000D02*
X108875000Y-52165000D01*
X113875000Y-56165000D02*
X113875000Y-56915000D01*
X108375000Y-52165000D02*
X108375000Y-56915000D01*
X108875000Y-52165000D02*
X108375000Y-52165000D01*
X112625000Y-52165000D02*
X112625000Y-55165000D01*
X112125000Y-52165000D02*
X112125000Y-55165000D01*
X109625000Y-55165000D02*
X109625000Y-52165000D01*
X109875000Y-55415000D02*
X109625000Y-55165000D01*
X110125000Y-55165000D02*
X109875000Y-55415000D01*
X110125000Y-52165000D02*
X110125000Y-55165000D01*
X112375000Y-55415000D02*
X112125000Y-55165000D01*
X112625000Y-55165000D02*
X112375000Y-55415000D01*
X113875000Y-51415000D02*
X113875000Y-49665000D01*
X108375000Y-51415000D02*
X108375000Y-49665000D01*
X112625000Y-51165000D02*
X112625000Y-51415000D01*
X112625000Y-51165000D02*
X112625000Y-50915000D01*
X112125000Y-51415000D02*
X112125000Y-50915000D01*
X110125000Y-51415000D02*
X110125000Y-50915000D01*
X109625000Y-51415000D02*
X109625000Y-51165000D01*
X109625000Y-50915000D02*
X109625000Y-51165000D01*
X114935000Y-51435000D02*
X107315000Y-51435000D01*
X112675000Y-102585000D02*
X112375000Y-102585000D01*
X113875000Y-102585000D02*
X108675000Y-102585000D01*
X107375000Y-97085000D02*
X107375000Y-102585000D01*
X107375000Y-95885000D02*
X107375000Y-97085000D01*
X108575000Y-102585000D02*
X107375000Y-102585000D01*
X108775000Y-102585000D02*
X108575000Y-102585000D01*
X114875000Y-102585000D02*
X113875000Y-102585000D01*
X114875000Y-95885000D02*
X114875000Y-102585000D01*
X107375000Y-95385000D02*
X114875000Y-95385000D01*
X114875000Y-95685000D02*
X114875000Y-95385000D01*
X114875000Y-95885000D02*
X114875000Y-95685000D01*
X107375000Y-95385000D02*
X107375000Y-95885000D01*
X113875000Y-97885000D02*
X113875000Y-101885000D01*
X113875000Y-97885000D02*
X108875000Y-97885000D01*
X113875000Y-101885000D02*
X113875000Y-102635000D01*
X108375000Y-97885000D02*
X108375000Y-102635000D01*
X108875000Y-97885000D02*
X108375000Y-97885000D01*
X112625000Y-97885000D02*
X112625000Y-100885000D01*
X112125000Y-97885000D02*
X112125000Y-100885000D01*
X109625000Y-100885000D02*
X109625000Y-97885000D01*
X109875000Y-101135000D02*
X109625000Y-100885000D01*
X110125000Y-100885000D02*
X109875000Y-101135000D01*
X110125000Y-97885000D02*
X110125000Y-100885000D01*
X112375000Y-101135000D02*
X112125000Y-100885000D01*
X112625000Y-100885000D02*
X112375000Y-101135000D01*
X113875000Y-97135000D02*
X113875000Y-95385000D01*
X108375000Y-97135000D02*
X108375000Y-95385000D01*
X112625000Y-96885000D02*
X112625000Y-97135000D01*
X112625000Y-96885000D02*
X112625000Y-96635000D01*
X112125000Y-97135000D02*
X112125000Y-96635000D01*
X110125000Y-97135000D02*
X110125000Y-96635000D01*
X109625000Y-97135000D02*
X109625000Y-96885000D01*
X109625000Y-96635000D02*
X109625000Y-96885000D01*
X114935000Y-97155000D02*
X107315000Y-97155000D01*
D10*
X90738478Y-65973478D02*
G75*
G03X88900000Y-61535000I-1838478J1838478D01*
G01*
X87061522Y-65973478D02*
G75*
G02X88900000Y-61535000I1838478J1838478D01*
G01*
X87100000Y-65985000D02*
X90700000Y-65985000D01*
X96453478Y-65973478D02*
G75*
G03X94615000Y-61535000I-1838478J1838478D01*
G01*
X92776522Y-65973478D02*
G75*
G02X94615000Y-61535000I1838478J1838478D01*
G01*
X92815000Y-65985000D02*
X96415000Y-65985000D01*
X96453478Y-111693478D02*
G75*
G03X94615000Y-107255000I-1838478J1838478D01*
G01*
X92776522Y-111693478D02*
G75*
G02X94615000Y-107255000I1838478J1838478D01*
G01*
X92815000Y-111705000D02*
X96415000Y-111705000D01*
X90738478Y-111693478D02*
G75*
G03X88900000Y-107255000I-1838478J1838478D01*
G01*
X87061522Y-111693478D02*
G75*
G02X88900000Y-107255000I1838478J1838478D01*
G01*
X87100000Y-111705000D02*
X90700000Y-111705000D01*
D11*
X107442000Y-62357000D02*
X108458000Y-62357000D01*
X108458000Y-63373000D02*
X107442000Y-63373000D01*
X112268000Y-63373000D02*
X111252000Y-63373000D01*
X111252000Y-62357000D02*
X112268000Y-62357000D01*
X81153000Y-48387000D02*
X81153000Y-49403000D01*
X80137000Y-49403000D02*
X80137000Y-48387000D01*
X107442000Y-108077000D02*
X108458000Y-108077000D01*
X108458000Y-109093000D02*
X107442000Y-109093000D01*
X112268000Y-109093000D02*
X111252000Y-109093000D01*
X111252000Y-108077000D02*
X112268000Y-108077000D01*
X81153000Y-94107000D02*
X81153000Y-95123000D01*
X80137000Y-95123000D02*
X80137000Y-94107000D01*
D10*
X116145000Y-52645000D02*
X117475000Y-52645000D01*
X116145000Y-53975000D02*
X116145000Y-52645000D01*
X116145000Y-55245000D02*
X118805000Y-55245000D01*
X118805000Y-55245000D02*
X118805000Y-60385000D01*
X116145000Y-55245000D02*
X116145000Y-60385000D01*
X116145000Y-60385000D02*
X118805000Y-60385000D01*
D11*
X51435000Y-50038000D02*
X51689000Y-49784000D01*
X48895000Y-50038000D02*
X51435000Y-50038000D01*
X48641000Y-49784000D02*
X48895000Y-50038000D01*
X48641000Y-49022000D02*
X48641000Y-49784000D01*
X48895000Y-48768000D02*
X48641000Y-49022000D01*
X51435000Y-48768000D02*
X48895000Y-48768000D01*
X51689000Y-49022000D02*
X51435000Y-48768000D01*
X51689000Y-49784000D02*
X51689000Y-49022000D01*
X47625000Y-50038000D02*
X47625000Y-48768000D01*
X48895000Y-50800000D02*
X51435000Y-50800000D01*
X51435000Y-48006000D02*
X48895000Y-48006000D01*
X52705000Y-50038000D02*
X52705000Y-48768000D01*
X60325000Y-50038000D02*
X60579000Y-49784000D01*
X57785000Y-50038000D02*
X60325000Y-50038000D01*
X57531000Y-49784000D02*
X57785000Y-50038000D01*
X57531000Y-49022000D02*
X57531000Y-49784000D01*
X57785000Y-48768000D02*
X57531000Y-49022000D01*
X60325000Y-48768000D02*
X57785000Y-48768000D01*
X60579000Y-49022000D02*
X60325000Y-48768000D01*
X60579000Y-49784000D02*
X60579000Y-49022000D01*
X56515000Y-50038000D02*
X56515000Y-48768000D01*
X57785000Y-50800000D02*
X60325000Y-50800000D01*
X60325000Y-48006000D02*
X57785000Y-48006000D01*
X61595000Y-50038000D02*
X61595000Y-48768000D01*
D10*
X116145000Y-98365000D02*
X117475000Y-98365000D01*
X116145000Y-99695000D02*
X116145000Y-98365000D01*
X116145000Y-100965000D02*
X118805000Y-100965000D01*
X118805000Y-100965000D02*
X118805000Y-106105000D01*
X116145000Y-100965000D02*
X116145000Y-106105000D01*
X116145000Y-106105000D02*
X118805000Y-106105000D01*
X56645000Y-62230000D02*
G75*
G03X56645000Y-62230000I-1400000J0D01*
G01*
X60545000Y-62230000D02*
G75*
G03X60545000Y-62230000I-5300000J0D01*
G01*
X60344020Y-62230000D02*
G75*
G03X60344020Y-62230000I-5099020J0D01*
G01*
X56826139Y-62230000D02*
G75*
G03X56826139Y-62230000I-1581139J0D01*
G01*
X63945000Y-65230000D02*
X63945000Y-70930000D01*
X63945000Y-53530000D02*
X63945000Y-59230000D01*
X58245000Y-53530000D02*
X63945000Y-53530000D01*
X46545000Y-53530000D02*
X52245000Y-53530000D01*
X46545000Y-70930000D02*
X63945000Y-70930000D01*
X46545000Y-53530000D02*
X46545000Y-70930000D01*
X100905000Y-105535000D02*
X100905000Y-109095000D01*
X100905000Y-100455000D02*
X100905000Y-104015000D01*
X100905000Y-95375000D02*
X100905000Y-98935000D01*
X100905000Y-90295000D02*
X100905000Y-93855000D01*
X100905000Y-85215000D02*
X100905000Y-88775000D01*
X100905000Y-80135000D02*
X100905000Y-83695000D01*
X100905000Y-75055000D02*
X100905000Y-78615000D01*
X103565000Y-108075000D02*
X103565000Y-111185000D01*
X103565000Y-102995000D02*
X103565000Y-106555000D01*
X103565000Y-97915000D02*
X103565000Y-101475000D01*
X103565000Y-92835000D02*
X103565000Y-96395000D01*
X103565000Y-87755000D02*
X103565000Y-91315000D01*
X103565000Y-82675000D02*
X103565000Y-86235000D01*
X103565000Y-77595000D02*
X103565000Y-81155000D01*
X103565000Y-110615000D02*
X103565000Y-111185000D01*
X100905000Y-72965000D02*
X100905000Y-73535000D01*
X100905000Y-73535000D02*
X99385000Y-73535000D01*
X103565000Y-72965000D02*
X103565000Y-76075000D01*
X100905000Y-111185000D02*
X103565000Y-111185000D01*
X100905000Y-72965000D02*
X103565000Y-72965000D01*
D11*
X93680000Y-27640000D02*
X94380000Y-27940000D01*
X93680000Y-28240000D02*
X93680000Y-27640000D01*
X94380000Y-27940000D02*
X93680000Y-28240000D01*
X93280000Y-27340000D02*
X94680000Y-27340000D01*
X94680000Y-28540000D02*
X93280000Y-28540000D01*
X94380000Y-28240000D02*
X94380000Y-27640000D01*
X78405000Y-74595000D02*
X77705000Y-74295000D01*
X78405000Y-73995000D02*
X78405000Y-74595000D01*
X77705000Y-74295000D02*
X78405000Y-73995000D01*
X78805000Y-74895000D02*
X77405000Y-74895000D01*
X77405000Y-73695000D02*
X78805000Y-73695000D01*
X77705000Y-73995000D02*
X77705000Y-74595000D01*
D10*
X69155000Y-47115000D02*
X69155000Y-50225000D01*
X69155000Y-42035000D02*
X69155000Y-45595000D01*
X71815000Y-44575000D02*
X71815000Y-48135000D01*
X71815000Y-49655000D02*
X71815000Y-50225000D01*
X69155000Y-39945000D02*
X69155000Y-40515000D01*
X69155000Y-40515000D02*
X67635000Y-40515000D01*
X71815000Y-39945000D02*
X71815000Y-43055000D01*
X69155000Y-50225000D02*
X71815000Y-50225000D01*
X69155000Y-39945000D02*
X71815000Y-39945000D01*
X84330000Y-75505000D02*
X81220000Y-75505000D01*
X89410000Y-75505000D02*
X85850000Y-75505000D01*
X86870000Y-78165000D02*
X83310000Y-78165000D01*
X81790000Y-78165000D02*
X81220000Y-78165000D01*
X91500000Y-75505000D02*
X90930000Y-75505000D01*
X90930000Y-75505000D02*
X90930000Y-73985000D01*
X91500000Y-78165000D02*
X88390000Y-78165000D01*
X81220000Y-75505000D02*
X81220000Y-78165000D01*
X91500000Y-75505000D02*
X91500000Y-78165000D01*
D11*
X77597000Y-27432000D02*
X78613000Y-27432000D01*
X78613000Y-28448000D02*
X77597000Y-28448000D01*
X77597000Y-75692000D02*
X78613000Y-75692000D01*
X78613000Y-76708000D02*
X77597000Y-76708000D01*
X42545000Y-91440000D02*
X37465000Y-91440000D01*
X37465000Y-96139000D02*
X42545000Y-96139000D01*
X37465000Y-93345000D02*
X39370000Y-91440000D01*
X41424903Y-93980000D02*
G75*
G03X41424903Y-93980000I-1419903J0D01*
G01*
X37465000Y-94869000D02*
X37465000Y-92710000D01*
X42545000Y-94869000D02*
X42545000Y-92710000D01*
X52705000Y-92710000D02*
X47625000Y-92710000D01*
X47625000Y-97409000D02*
X52705000Y-97409000D01*
X47625000Y-94615000D02*
X49530000Y-92710000D01*
X51584903Y-95250000D02*
G75*
G03X51584903Y-95250000I-1419903J0D01*
G01*
X47625000Y-96139000D02*
X47625000Y-93980000D01*
X52705000Y-96139000D02*
X52705000Y-93980000D01*
X62230000Y-93345000D02*
X57150000Y-93345000D01*
X57150000Y-98044000D02*
X62230000Y-98044000D01*
X57150000Y-95250000D02*
X59055000Y-93345000D01*
X61109903Y-95885000D02*
G75*
G03X61109903Y-95885000I-1419903J0D01*
G01*
X57150000Y-96774000D02*
X57150000Y-94615000D01*
X62230000Y-96774000D02*
X62230000Y-94615000D01*
X33020000Y-90170000D02*
X27940000Y-90170000D01*
X27940000Y-94869000D02*
X33020000Y-94869000D01*
X27940000Y-92075000D02*
X29845000Y-90170000D01*
X31899903Y-92710000D02*
G75*
G03X31899903Y-92710000I-1419903J0D01*
G01*
X27940000Y-93599000D02*
X27940000Y-91440000D01*
X33020000Y-93599000D02*
X33020000Y-91440000D01*
D10*
X95190000Y-54550000D02*
X96520000Y-54550000D01*
X95190000Y-55880000D02*
X95190000Y-54550000D01*
X95190000Y-57150000D02*
X97850000Y-57150000D01*
X97850000Y-57150000D02*
X97850000Y-59750000D01*
X95190000Y-57150000D02*
X95190000Y-59750000D01*
X95190000Y-59750000D02*
X97850000Y-59750000D01*
X100905000Y-59815000D02*
X100905000Y-63375000D01*
X100905000Y-54735000D02*
X100905000Y-58295000D01*
X100905000Y-49655000D02*
X100905000Y-53215000D01*
X100905000Y-44575000D02*
X100905000Y-48135000D01*
X100905000Y-39495000D02*
X100905000Y-43055000D01*
X100905000Y-34415000D02*
X100905000Y-37975000D01*
X100905000Y-29335000D02*
X100905000Y-32895000D01*
X103565000Y-62355000D02*
X103565000Y-65465000D01*
X103565000Y-57275000D02*
X103565000Y-60835000D01*
X103565000Y-52195000D02*
X103565000Y-55755000D01*
X103565000Y-47115000D02*
X103565000Y-50675000D01*
X103565000Y-42035000D02*
X103565000Y-45595000D01*
X103565000Y-36955000D02*
X103565000Y-40515000D01*
X103565000Y-31875000D02*
X103565000Y-35435000D01*
X103565000Y-64895000D02*
X103565000Y-65465000D01*
X100905000Y-27245000D02*
X100905000Y-27815000D01*
X100905000Y-27815000D02*
X99385000Y-27815000D01*
X103565000Y-27245000D02*
X103565000Y-30355000D01*
X100905000Y-65465000D02*
X103565000Y-65465000D01*
X100905000Y-27245000D02*
X103565000Y-27245000D01*
X110490000Y-33020000D02*
X111760000Y-33020000D01*
X110490000Y-34290000D02*
X110490000Y-33020000D01*
X112802929Y-47370000D02*
X113200000Y-47370000D01*
X112802929Y-46610000D02*
X113200000Y-46610000D01*
X121860000Y-47370000D02*
X115860000Y-47370000D01*
X121860000Y-46610000D02*
X121860000Y-47370000D01*
X115860000Y-46610000D02*
X121860000Y-46610000D01*
X113200000Y-45720000D02*
X115860000Y-45720000D01*
X112802929Y-44830000D02*
X113200000Y-44830000D01*
X112802929Y-44070000D02*
X113200000Y-44070000D01*
X121860000Y-44830000D02*
X115860000Y-44830000D01*
X121860000Y-44070000D02*
X121860000Y-44830000D01*
X115860000Y-44070000D02*
X121860000Y-44070000D01*
X113200000Y-43180000D02*
X115860000Y-43180000D01*
X112802929Y-42290000D02*
X113200000Y-42290000D01*
X112802929Y-41530000D02*
X113200000Y-41530000D01*
X121860000Y-42290000D02*
X115860000Y-42290000D01*
X121860000Y-41530000D02*
X121860000Y-42290000D01*
X115860000Y-41530000D02*
X121860000Y-41530000D01*
X113200000Y-40640000D02*
X115860000Y-40640000D01*
X112802929Y-39750000D02*
X113200000Y-39750000D01*
X112802929Y-38990000D02*
X113200000Y-38990000D01*
X121860000Y-39750000D02*
X115860000Y-39750000D01*
X121860000Y-38990000D02*
X121860000Y-39750000D01*
X115860000Y-38990000D02*
X121860000Y-38990000D01*
X113200000Y-38100000D02*
X115860000Y-38100000D01*
X112802929Y-37210000D02*
X113200000Y-37210000D01*
X112802929Y-36450000D02*
X113200000Y-36450000D01*
X121860000Y-37210000D02*
X115860000Y-37210000D01*
X121860000Y-36450000D02*
X121860000Y-37210000D01*
X115860000Y-36450000D02*
X121860000Y-36450000D01*
X113200000Y-35560000D02*
X115860000Y-35560000D01*
X112870000Y-34670000D02*
X113200000Y-34670000D01*
X112870000Y-33910000D02*
X113200000Y-33910000D01*
X115860000Y-34570000D02*
X121860000Y-34570000D01*
X115860000Y-34450000D02*
X121860000Y-34450000D01*
X115860000Y-34330000D02*
X121860000Y-34330000D01*
X115860000Y-34210000D02*
X121860000Y-34210000D01*
X115860000Y-34090000D02*
X121860000Y-34090000D01*
X115860000Y-33970000D02*
X121860000Y-33970000D01*
X121860000Y-34670000D02*
X115860000Y-34670000D01*
X121860000Y-33910000D02*
X121860000Y-34670000D01*
X115860000Y-33910000D02*
X121860000Y-33910000D01*
X115860000Y-32960000D02*
X113200000Y-32960000D01*
X115860000Y-48320000D02*
X115860000Y-32960000D01*
X113200000Y-48320000D02*
X115860000Y-48320000D01*
X113200000Y-32960000D02*
X113200000Y-48320000D01*
X110490000Y-78740000D02*
X111760000Y-78740000D01*
X110490000Y-80010000D02*
X110490000Y-78740000D01*
X112802929Y-93090000D02*
X113200000Y-93090000D01*
X112802929Y-92330000D02*
X113200000Y-92330000D01*
X121860000Y-93090000D02*
X115860000Y-93090000D01*
X121860000Y-92330000D02*
X121860000Y-93090000D01*
X115860000Y-92330000D02*
X121860000Y-92330000D01*
X113200000Y-91440000D02*
X115860000Y-91440000D01*
X112802929Y-90550000D02*
X113200000Y-90550000D01*
X112802929Y-89790000D02*
X113200000Y-89790000D01*
X121860000Y-90550000D02*
X115860000Y-90550000D01*
X121860000Y-89790000D02*
X121860000Y-90550000D01*
X115860000Y-89790000D02*
X121860000Y-89790000D01*
X113200000Y-88900000D02*
X115860000Y-88900000D01*
X112802929Y-88010000D02*
X113200000Y-88010000D01*
X112802929Y-87250000D02*
X113200000Y-87250000D01*
X121860000Y-88010000D02*
X115860000Y-88010000D01*
X121860000Y-87250000D02*
X121860000Y-88010000D01*
X115860000Y-87250000D02*
X121860000Y-87250000D01*
X113200000Y-86360000D02*
X115860000Y-86360000D01*
X112802929Y-85470000D02*
X113200000Y-85470000D01*
X112802929Y-84710000D02*
X113200000Y-84710000D01*
X121860000Y-85470000D02*
X115860000Y-85470000D01*
X121860000Y-84710000D02*
X121860000Y-85470000D01*
X115860000Y-84710000D02*
X121860000Y-84710000D01*
X113200000Y-83820000D02*
X115860000Y-83820000D01*
X112802929Y-82930000D02*
X113200000Y-82930000D01*
X112802929Y-82170000D02*
X113200000Y-82170000D01*
X121860000Y-82930000D02*
X115860000Y-82930000D01*
X121860000Y-82170000D02*
X121860000Y-82930000D01*
X115860000Y-82170000D02*
X121860000Y-82170000D01*
X113200000Y-81280000D02*
X115860000Y-81280000D01*
X112870000Y-80390000D02*
X113200000Y-80390000D01*
X112870000Y-79630000D02*
X113200000Y-79630000D01*
X115860000Y-80290000D02*
X121860000Y-80290000D01*
X115860000Y-80170000D02*
X121860000Y-80170000D01*
X115860000Y-80050000D02*
X121860000Y-80050000D01*
X115860000Y-79930000D02*
X121860000Y-79930000D01*
X115860000Y-79810000D02*
X121860000Y-79810000D01*
X115860000Y-79690000D02*
X121860000Y-79690000D01*
X121860000Y-80390000D02*
X115860000Y-80390000D01*
X121860000Y-79630000D02*
X121860000Y-80390000D01*
X115860000Y-79630000D02*
X121860000Y-79630000D01*
X115860000Y-78680000D02*
X113200000Y-78680000D01*
X115860000Y-94040000D02*
X115860000Y-78680000D01*
X113200000Y-94040000D02*
X115860000Y-94040000D01*
X113200000Y-78680000D02*
X113200000Y-94040000D01*
X41190000Y-88815000D02*
X41190000Y-82015000D01*
X27390000Y-88815000D02*
X41190000Y-88815000D01*
X27390000Y-75015000D02*
X27390000Y-88815000D01*
X41190000Y-75015000D02*
X27390000Y-75015000D01*
X41190000Y-82015000D02*
X41190000Y-75015000D01*
X63415000Y-91355000D02*
X63415000Y-84555000D01*
X49615000Y-91355000D02*
X63415000Y-91355000D01*
X49615000Y-77555000D02*
X49615000Y-91355000D01*
X63415000Y-77555000D02*
X49615000Y-77555000D01*
X63415000Y-84555000D02*
X63415000Y-77555000D01*
D11*
X30416666Y-66944761D02*
X30559523Y-66992380D01*
X30797619Y-66992380D01*
X30892857Y-66944761D01*
X30940476Y-66897142D01*
X30988095Y-66801904D01*
X30988095Y-66706666D01*
X30940476Y-66611428D01*
X30892857Y-66563809D01*
X30797619Y-66516190D01*
X30607142Y-66468571D01*
X30511904Y-66420952D01*
X30464285Y-66373333D01*
X30416666Y-66278095D01*
X30416666Y-66182857D01*
X30464285Y-66087619D01*
X30511904Y-66040000D01*
X30607142Y-65992380D01*
X30845238Y-65992380D01*
X30988095Y-66040000D01*
X31321428Y-65992380D02*
X31559523Y-66992380D01*
X31750000Y-66278095D01*
X31940476Y-66992380D01*
X32178571Y-65992380D01*
X32988095Y-65992380D02*
X32797619Y-65992380D01*
X32702380Y-66040000D01*
X32654761Y-66087619D01*
X32559523Y-66230476D01*
X32511904Y-66420952D01*
X32511904Y-66801904D01*
X32559523Y-66897142D01*
X32607142Y-66944761D01*
X32702380Y-66992380D01*
X32892857Y-66992380D01*
X32988095Y-66944761D01*
X33035714Y-66897142D01*
X33083333Y-66801904D01*
X33083333Y-66563809D01*
X33035714Y-66468571D01*
X32988095Y-66420952D01*
X32892857Y-66373333D01*
X32702380Y-66373333D01*
X32607142Y-66420952D01*
X32559523Y-66468571D01*
X32511904Y-66563809D01*
X107783333Y-65762142D02*
X107735714Y-65809761D01*
X107592857Y-65857380D01*
X107497619Y-65857380D01*
X107354761Y-65809761D01*
X107259523Y-65714523D01*
X107211904Y-65619285D01*
X107164285Y-65428809D01*
X107164285Y-65285952D01*
X107211904Y-65095476D01*
X107259523Y-65000238D01*
X107354761Y-64905000D01*
X107497619Y-64857380D01*
X107592857Y-64857380D01*
X107735714Y-64905000D01*
X107783333Y-64952619D01*
X108164285Y-64952619D02*
X108211904Y-64905000D01*
X108307142Y-64857380D01*
X108545238Y-64857380D01*
X108640476Y-64905000D01*
X108688095Y-64952619D01*
X108735714Y-65047857D01*
X108735714Y-65143095D01*
X108688095Y-65285952D01*
X108116666Y-65857380D01*
X108735714Y-65857380D01*
X111593333Y-65762142D02*
X111545714Y-65809761D01*
X111402857Y-65857380D01*
X111307619Y-65857380D01*
X111164761Y-65809761D01*
X111069523Y-65714523D01*
X111021904Y-65619285D01*
X110974285Y-65428809D01*
X110974285Y-65285952D01*
X111021904Y-65095476D01*
X111069523Y-65000238D01*
X111164761Y-64905000D01*
X111307619Y-64857380D01*
X111402857Y-64857380D01*
X111545714Y-64905000D01*
X111593333Y-64952619D01*
X111926666Y-64857380D02*
X112545714Y-64857380D01*
X112212380Y-65238333D01*
X112355238Y-65238333D01*
X112450476Y-65285952D01*
X112498095Y-65333571D01*
X112545714Y-65428809D01*
X112545714Y-65666904D01*
X112498095Y-65762142D01*
X112450476Y-65809761D01*
X112355238Y-65857380D01*
X112069523Y-65857380D01*
X111974285Y-65809761D01*
X111926666Y-65762142D01*
X77902142Y-35361666D02*
X77949761Y-35409285D01*
X77997380Y-35552142D01*
X77997380Y-35647380D01*
X77949761Y-35790238D01*
X77854523Y-35885476D01*
X77759285Y-35933095D01*
X77568809Y-35980714D01*
X77425952Y-35980714D01*
X77235476Y-35933095D01*
X77140238Y-35885476D01*
X77045000Y-35790238D01*
X76997380Y-35647380D01*
X76997380Y-35552142D01*
X77045000Y-35409285D01*
X77092619Y-35361666D01*
X77330714Y-34504523D02*
X77997380Y-34504523D01*
X76949761Y-34742619D02*
X77664047Y-34980714D01*
X77664047Y-34361666D01*
X91162142Y-38266666D02*
X91209761Y-38314285D01*
X91257380Y-38457142D01*
X91257380Y-38552380D01*
X91209761Y-38695238D01*
X91114523Y-38790476D01*
X91019285Y-38838095D01*
X90828809Y-38885714D01*
X90685952Y-38885714D01*
X90495476Y-38838095D01*
X90400238Y-38790476D01*
X90305000Y-38695238D01*
X90257380Y-38552380D01*
X90257380Y-38457142D01*
X90305000Y-38314285D01*
X90352619Y-38266666D01*
X90257380Y-37361904D02*
X90257380Y-37838095D01*
X90733571Y-37885714D01*
X90685952Y-37838095D01*
X90638333Y-37742857D01*
X90638333Y-37504761D01*
X90685952Y-37409523D01*
X90733571Y-37361904D01*
X90828809Y-37314285D01*
X91066904Y-37314285D01*
X91162142Y-37361904D01*
X91209761Y-37409523D01*
X91257380Y-37504761D01*
X91257380Y-37742857D01*
X91209761Y-37838095D01*
X91162142Y-37885714D01*
X93067142Y-38266666D02*
X93114761Y-38314285D01*
X93162380Y-38457142D01*
X93162380Y-38552380D01*
X93114761Y-38695238D01*
X93019523Y-38790476D01*
X92924285Y-38838095D01*
X92733809Y-38885714D01*
X92590952Y-38885714D01*
X92400476Y-38838095D01*
X92305238Y-38790476D01*
X92210000Y-38695238D01*
X92162380Y-38552380D01*
X92162380Y-38457142D01*
X92210000Y-38314285D01*
X92257619Y-38266666D01*
X92162380Y-37409523D02*
X92162380Y-37600000D01*
X92210000Y-37695238D01*
X92257619Y-37742857D01*
X92400476Y-37838095D01*
X92590952Y-37885714D01*
X92971904Y-37885714D01*
X93067142Y-37838095D01*
X93114761Y-37790476D01*
X93162380Y-37695238D01*
X93162380Y-37504761D01*
X93114761Y-37409523D01*
X93067142Y-37361904D01*
X92971904Y-37314285D01*
X92733809Y-37314285D01*
X92638571Y-37361904D01*
X92590952Y-37409523D01*
X92543333Y-37504761D01*
X92543333Y-37695238D01*
X92590952Y-37790476D01*
X92638571Y-37838095D01*
X92733809Y-37885714D01*
X107783333Y-111482142D02*
X107735714Y-111529761D01*
X107592857Y-111577380D01*
X107497619Y-111577380D01*
X107354761Y-111529761D01*
X107259523Y-111434523D01*
X107211904Y-111339285D01*
X107164285Y-111148809D01*
X107164285Y-111005952D01*
X107211904Y-110815476D01*
X107259523Y-110720238D01*
X107354761Y-110625000D01*
X107497619Y-110577380D01*
X107592857Y-110577380D01*
X107735714Y-110625000D01*
X107783333Y-110672619D01*
X108354761Y-111005952D02*
X108259523Y-110958333D01*
X108211904Y-110910714D01*
X108164285Y-110815476D01*
X108164285Y-110767857D01*
X108211904Y-110672619D01*
X108259523Y-110625000D01*
X108354761Y-110577380D01*
X108545238Y-110577380D01*
X108640476Y-110625000D01*
X108688095Y-110672619D01*
X108735714Y-110767857D01*
X108735714Y-110815476D01*
X108688095Y-110910714D01*
X108640476Y-110958333D01*
X108545238Y-111005952D01*
X108354761Y-111005952D01*
X108259523Y-111053571D01*
X108211904Y-111101190D01*
X108164285Y-111196428D01*
X108164285Y-111386904D01*
X108211904Y-111482142D01*
X108259523Y-111529761D01*
X108354761Y-111577380D01*
X108545238Y-111577380D01*
X108640476Y-111529761D01*
X108688095Y-111482142D01*
X108735714Y-111386904D01*
X108735714Y-111196428D01*
X108688095Y-111101190D01*
X108640476Y-111053571D01*
X108545238Y-111005952D01*
X111593333Y-111482142D02*
X111545714Y-111529761D01*
X111402857Y-111577380D01*
X111307619Y-111577380D01*
X111164761Y-111529761D01*
X111069523Y-111434523D01*
X111021904Y-111339285D01*
X110974285Y-111148809D01*
X110974285Y-111005952D01*
X111021904Y-110815476D01*
X111069523Y-110720238D01*
X111164761Y-110625000D01*
X111307619Y-110577380D01*
X111402857Y-110577380D01*
X111545714Y-110625000D01*
X111593333Y-110672619D01*
X112069523Y-111577380D02*
X112260000Y-111577380D01*
X112355238Y-111529761D01*
X112402857Y-111482142D01*
X112498095Y-111339285D01*
X112545714Y-111148809D01*
X112545714Y-110767857D01*
X112498095Y-110672619D01*
X112450476Y-110625000D01*
X112355238Y-110577380D01*
X112164761Y-110577380D01*
X112069523Y-110625000D01*
X112021904Y-110672619D01*
X111974285Y-110767857D01*
X111974285Y-111005952D01*
X112021904Y-111101190D01*
X112069523Y-111148809D01*
X112164761Y-111196428D01*
X112355238Y-111196428D01*
X112450476Y-111148809D01*
X112498095Y-111101190D01*
X112545714Y-111005952D01*
X75557142Y-78462142D02*
X75509523Y-78509761D01*
X75366666Y-78557380D01*
X75271428Y-78557380D01*
X75128571Y-78509761D01*
X75033333Y-78414523D01*
X74985714Y-78319285D01*
X74938095Y-78128809D01*
X74938095Y-77985952D01*
X74985714Y-77795476D01*
X75033333Y-77700238D01*
X75128571Y-77605000D01*
X75271428Y-77557380D01*
X75366666Y-77557380D01*
X75509523Y-77605000D01*
X75557142Y-77652619D01*
X76509523Y-78557380D02*
X75938095Y-78557380D01*
X76223809Y-78557380D02*
X76223809Y-77557380D01*
X76128571Y-77700238D01*
X76033333Y-77795476D01*
X75938095Y-77843095D01*
X77128571Y-77557380D02*
X77223809Y-77557380D01*
X77319047Y-77605000D01*
X77366666Y-77652619D01*
X77414285Y-77747857D01*
X77461904Y-77938333D01*
X77461904Y-78176428D01*
X77414285Y-78366904D01*
X77366666Y-78462142D01*
X77319047Y-78509761D01*
X77223809Y-78557380D01*
X77128571Y-78557380D01*
X77033333Y-78509761D01*
X76985714Y-78462142D01*
X76938095Y-78366904D01*
X76890476Y-78176428D01*
X76890476Y-77938333D01*
X76938095Y-77747857D01*
X76985714Y-77652619D01*
X77033333Y-77605000D01*
X77128571Y-77557380D01*
X82542142Y-81637142D02*
X82494523Y-81684761D01*
X82351666Y-81732380D01*
X82256428Y-81732380D01*
X82113571Y-81684761D01*
X82018333Y-81589523D01*
X81970714Y-81494285D01*
X81923095Y-81303809D01*
X81923095Y-81160952D01*
X81970714Y-80970476D01*
X82018333Y-80875238D01*
X82113571Y-80780000D01*
X82256428Y-80732380D01*
X82351666Y-80732380D01*
X82494523Y-80780000D01*
X82542142Y-80827619D01*
X83494523Y-81732380D02*
X82923095Y-81732380D01*
X83208809Y-81732380D02*
X83208809Y-80732380D01*
X83113571Y-80875238D01*
X83018333Y-80970476D01*
X82923095Y-81018095D01*
X84446904Y-81732380D02*
X83875476Y-81732380D01*
X84161190Y-81732380D02*
X84161190Y-80732380D01*
X84065952Y-80875238D01*
X83970714Y-80970476D01*
X83875476Y-81018095D01*
X82542142Y-83542142D02*
X82494523Y-83589761D01*
X82351666Y-83637380D01*
X82256428Y-83637380D01*
X82113571Y-83589761D01*
X82018333Y-83494523D01*
X81970714Y-83399285D01*
X81923095Y-83208809D01*
X81923095Y-83065952D01*
X81970714Y-82875476D01*
X82018333Y-82780238D01*
X82113571Y-82685000D01*
X82256428Y-82637380D01*
X82351666Y-82637380D01*
X82494523Y-82685000D01*
X82542142Y-82732619D01*
X83494523Y-83637380D02*
X82923095Y-83637380D01*
X83208809Y-83637380D02*
X83208809Y-82637380D01*
X83113571Y-82780238D01*
X83018333Y-82875476D01*
X82923095Y-82923095D01*
X83875476Y-82732619D02*
X83923095Y-82685000D01*
X84018333Y-82637380D01*
X84256428Y-82637380D01*
X84351666Y-82685000D01*
X84399285Y-82732619D01*
X84446904Y-82827857D01*
X84446904Y-82923095D01*
X84399285Y-83065952D01*
X83827857Y-83637380D01*
X84446904Y-83637380D01*
X68032380Y-32718333D02*
X68746666Y-32718333D01*
X68889523Y-32765952D01*
X68984761Y-32861190D01*
X69032380Y-33004047D01*
X69032380Y-33099285D01*
X69032380Y-31718333D02*
X69032380Y-32289761D01*
X69032380Y-32004047D02*
X68032380Y-32004047D01*
X68175238Y-32099285D01*
X68270476Y-32194523D01*
X68318095Y-32289761D01*
X75231666Y-53002380D02*
X75231666Y-53716666D01*
X75184047Y-53859523D01*
X75088809Y-53954761D01*
X74945952Y-54002380D01*
X74850714Y-54002380D01*
X75612619Y-53002380D02*
X76231666Y-53002380D01*
X75898333Y-53383333D01*
X76041190Y-53383333D01*
X76136428Y-53430952D01*
X76184047Y-53478571D01*
X76231666Y-53573809D01*
X76231666Y-53811904D01*
X76184047Y-53907142D01*
X76136428Y-53954761D01*
X76041190Y-54002380D01*
X75755476Y-54002380D01*
X75660238Y-53954761D01*
X75612619Y-53907142D01*
X72691666Y-53002380D02*
X72691666Y-53716666D01*
X72644047Y-53859523D01*
X72548809Y-53954761D01*
X72405952Y-54002380D01*
X72310714Y-54002380D01*
X73596428Y-53335714D02*
X73596428Y-54002380D01*
X73358333Y-52954761D02*
X73120238Y-53669047D01*
X73739285Y-53669047D01*
X67607380Y-58753333D02*
X68321666Y-58753333D01*
X68464523Y-58800952D01*
X68559761Y-58896190D01*
X68607380Y-59039047D01*
X68607380Y-59134285D01*
X67607380Y-57800952D02*
X67607380Y-58277142D01*
X68083571Y-58324761D01*
X68035952Y-58277142D01*
X67988333Y-58181904D01*
X67988333Y-57943809D01*
X68035952Y-57848571D01*
X68083571Y-57800952D01*
X68178809Y-57753333D01*
X68416904Y-57753333D01*
X68512142Y-57800952D01*
X68559761Y-57848571D01*
X68607380Y-57943809D01*
X68607380Y-58181904D01*
X68559761Y-58277142D01*
X68512142Y-58324761D01*
X93646666Y-59717380D02*
X93646666Y-60431666D01*
X93599047Y-60574523D01*
X93503809Y-60669761D01*
X93360952Y-60717380D01*
X93265714Y-60717380D01*
X94551428Y-59717380D02*
X94360952Y-59717380D01*
X94265714Y-59765000D01*
X94218095Y-59812619D01*
X94122857Y-59955476D01*
X94075238Y-60145952D01*
X94075238Y-60526904D01*
X94122857Y-60622142D01*
X94170476Y-60669761D01*
X94265714Y-60717380D01*
X94456190Y-60717380D01*
X94551428Y-60669761D01*
X94599047Y-60622142D01*
X94646666Y-60526904D01*
X94646666Y-60288809D01*
X94599047Y-60193571D01*
X94551428Y-60145952D01*
X94456190Y-60098333D01*
X94265714Y-60098333D01*
X94170476Y-60145952D01*
X94122857Y-60193571D01*
X94075238Y-60288809D01*
X91106666Y-53427380D02*
X91106666Y-54141666D01*
X91059047Y-54284523D01*
X90963809Y-54379761D01*
X90820952Y-54427380D01*
X90725714Y-54427380D01*
X91487619Y-53427380D02*
X92154285Y-53427380D01*
X91725714Y-54427380D01*
X71207380Y-38433333D02*
X71921666Y-38433333D01*
X72064523Y-38480952D01*
X72159761Y-38576190D01*
X72207380Y-38719047D01*
X72207380Y-38814285D01*
X71635952Y-37814285D02*
X71588333Y-37909523D01*
X71540714Y-37957142D01*
X71445476Y-38004761D01*
X71397857Y-38004761D01*
X71302619Y-37957142D01*
X71255000Y-37909523D01*
X71207380Y-37814285D01*
X71207380Y-37623809D01*
X71255000Y-37528571D01*
X71302619Y-37480952D01*
X71397857Y-37433333D01*
X71445476Y-37433333D01*
X71540714Y-37480952D01*
X71588333Y-37528571D01*
X71635952Y-37623809D01*
X71635952Y-37814285D01*
X71683571Y-37909523D01*
X71731190Y-37957142D01*
X71826428Y-38004761D01*
X72016904Y-38004761D01*
X72112142Y-37957142D01*
X72159761Y-37909523D01*
X72207380Y-37814285D01*
X72207380Y-37623809D01*
X72159761Y-37528571D01*
X72112142Y-37480952D01*
X72016904Y-37433333D01*
X71826428Y-37433333D01*
X71731190Y-37480952D01*
X71683571Y-37528571D01*
X71635952Y-37623809D01*
X68032380Y-78438333D02*
X68746666Y-78438333D01*
X68889523Y-78485952D01*
X68984761Y-78581190D01*
X69032380Y-78724047D01*
X69032380Y-78819285D01*
X69032380Y-77914523D02*
X69032380Y-77724047D01*
X68984761Y-77628809D01*
X68937142Y-77581190D01*
X68794285Y-77485952D01*
X68603809Y-77438333D01*
X68222857Y-77438333D01*
X68127619Y-77485952D01*
X68080000Y-77533571D01*
X68032380Y-77628809D01*
X68032380Y-77819285D01*
X68080000Y-77914523D01*
X68127619Y-77962142D01*
X68222857Y-78009761D01*
X68460952Y-78009761D01*
X68556190Y-77962142D01*
X68603809Y-77914523D01*
X68651428Y-77819285D01*
X68651428Y-77628809D01*
X68603809Y-77533571D01*
X68556190Y-77485952D01*
X68460952Y-77438333D01*
X95710476Y-98722380D02*
X95710476Y-99436666D01*
X95662857Y-99579523D01*
X95567619Y-99674761D01*
X95424761Y-99722380D01*
X95329523Y-99722380D01*
X96710476Y-99722380D02*
X96139047Y-99722380D01*
X96424761Y-99722380D02*
X96424761Y-98722380D01*
X96329523Y-98865238D01*
X96234285Y-98960476D01*
X96139047Y-99008095D01*
X97329523Y-98722380D02*
X97424761Y-98722380D01*
X97520000Y-98770000D01*
X97567619Y-98817619D01*
X97615238Y-98912857D01*
X97662857Y-99103333D01*
X97662857Y-99341428D01*
X97615238Y-99531904D01*
X97567619Y-99627142D01*
X97520000Y-99674761D01*
X97424761Y-99722380D01*
X97329523Y-99722380D01*
X97234285Y-99674761D01*
X97186666Y-99627142D01*
X97139047Y-99531904D01*
X97091428Y-99341428D01*
X97091428Y-99103333D01*
X97139047Y-98912857D01*
X97186666Y-98817619D01*
X97234285Y-98770000D01*
X97329523Y-98722380D01*
X74755476Y-99147380D02*
X74755476Y-99861666D01*
X74707857Y-100004523D01*
X74612619Y-100099761D01*
X74469761Y-100147380D01*
X74374523Y-100147380D01*
X75755476Y-100147380D02*
X75184047Y-100147380D01*
X75469761Y-100147380D02*
X75469761Y-99147380D01*
X75374523Y-99290238D01*
X75279285Y-99385476D01*
X75184047Y-99433095D01*
X76707857Y-100147380D02*
X76136428Y-100147380D01*
X76422142Y-100147380D02*
X76422142Y-99147380D01*
X76326904Y-99290238D01*
X76231666Y-99385476D01*
X76136428Y-99433095D01*
X72215476Y-99147380D02*
X72215476Y-99861666D01*
X72167857Y-100004523D01*
X72072619Y-100099761D01*
X71929761Y-100147380D01*
X71834523Y-100147380D01*
X73215476Y-100147380D02*
X72644047Y-100147380D01*
X72929761Y-100147380D02*
X72929761Y-99147380D01*
X72834523Y-99290238D01*
X72739285Y-99385476D01*
X72644047Y-99433095D01*
X73596428Y-99242619D02*
X73644047Y-99195000D01*
X73739285Y-99147380D01*
X73977380Y-99147380D01*
X74072619Y-99195000D01*
X74120238Y-99242619D01*
X74167857Y-99337857D01*
X74167857Y-99433095D01*
X74120238Y-99575952D01*
X73548809Y-100147380D01*
X74167857Y-100147380D01*
X69675476Y-101687380D02*
X69675476Y-102401666D01*
X69627857Y-102544523D01*
X69532619Y-102639761D01*
X69389761Y-102687380D01*
X69294523Y-102687380D01*
X70675476Y-102687380D02*
X70104047Y-102687380D01*
X70389761Y-102687380D02*
X70389761Y-101687380D01*
X70294523Y-101830238D01*
X70199285Y-101925476D01*
X70104047Y-101973095D01*
X71008809Y-101687380D02*
X71627857Y-101687380D01*
X71294523Y-102068333D01*
X71437380Y-102068333D01*
X71532619Y-102115952D01*
X71580238Y-102163571D01*
X71627857Y-102258809D01*
X71627857Y-102496904D01*
X71580238Y-102592142D01*
X71532619Y-102639761D01*
X71437380Y-102687380D01*
X71151666Y-102687380D01*
X71056428Y-102639761D01*
X71008809Y-102592142D01*
X90630476Y-99147380D02*
X90630476Y-99861666D01*
X90582857Y-100004523D01*
X90487619Y-100099761D01*
X90344761Y-100147380D01*
X90249523Y-100147380D01*
X91630476Y-100147380D02*
X91059047Y-100147380D01*
X91344761Y-100147380D02*
X91344761Y-99147380D01*
X91249523Y-99290238D01*
X91154285Y-99385476D01*
X91059047Y-99433095D01*
X92487619Y-99480714D02*
X92487619Y-100147380D01*
X92249523Y-99099761D02*
X92011428Y-99814047D01*
X92630476Y-99814047D01*
X93170476Y-105497380D02*
X93170476Y-106211666D01*
X93122857Y-106354523D01*
X93027619Y-106449761D01*
X92884761Y-106497380D01*
X92789523Y-106497380D01*
X94170476Y-106497380D02*
X93599047Y-106497380D01*
X93884761Y-106497380D02*
X93884761Y-105497380D01*
X93789523Y-105640238D01*
X93694285Y-105735476D01*
X93599047Y-105783095D01*
X95075238Y-105497380D02*
X94599047Y-105497380D01*
X94551428Y-105973571D01*
X94599047Y-105925952D01*
X94694285Y-105878333D01*
X94932380Y-105878333D01*
X95027619Y-105925952D01*
X95075238Y-105973571D01*
X95122857Y-106068809D01*
X95122857Y-106306904D01*
X95075238Y-106402142D01*
X95027619Y-106449761D01*
X94932380Y-106497380D01*
X94694285Y-106497380D01*
X94599047Y-106449761D01*
X94551428Y-106402142D01*
X68032380Y-87169523D02*
X68746666Y-87169523D01*
X68889523Y-87217142D01*
X68984761Y-87312380D01*
X69032380Y-87455238D01*
X69032380Y-87550476D01*
X69032380Y-86169523D02*
X69032380Y-86740952D01*
X69032380Y-86455238D02*
X68032380Y-86455238D01*
X68175238Y-86550476D01*
X68270476Y-86645714D01*
X68318095Y-86740952D01*
X68032380Y-85312380D02*
X68032380Y-85502857D01*
X68080000Y-85598095D01*
X68127619Y-85645714D01*
X68270476Y-85740952D01*
X68460952Y-85788571D01*
X68841904Y-85788571D01*
X68937142Y-85740952D01*
X68984761Y-85693333D01*
X69032380Y-85598095D01*
X69032380Y-85407619D01*
X68984761Y-85312380D01*
X68937142Y-85264761D01*
X68841904Y-85217142D01*
X68603809Y-85217142D01*
X68508571Y-85264761D01*
X68460952Y-85312380D01*
X68413333Y-85407619D01*
X68413333Y-85598095D01*
X68460952Y-85693333D01*
X68508571Y-85740952D01*
X68603809Y-85788571D01*
X107211904Y-49347380D02*
X107211904Y-48347380D01*
X107592857Y-48347380D01*
X107688095Y-48395000D01*
X107735714Y-48442619D01*
X107783333Y-48537857D01*
X107783333Y-48680714D01*
X107735714Y-48775952D01*
X107688095Y-48823571D01*
X107592857Y-48871190D01*
X107211904Y-48871190D01*
X108735714Y-49347380D02*
X108164285Y-49347380D01*
X108450000Y-49347380D02*
X108450000Y-48347380D01*
X108354761Y-48490238D01*
X108259523Y-48585476D01*
X108164285Y-48633095D01*
X107211904Y-95067380D02*
X107211904Y-94067380D01*
X107592857Y-94067380D01*
X107688095Y-94115000D01*
X107735714Y-94162619D01*
X107783333Y-94257857D01*
X107783333Y-94400714D01*
X107735714Y-94495952D01*
X107688095Y-94543571D01*
X107592857Y-94591190D01*
X107211904Y-94591190D01*
X108116666Y-94067380D02*
X108735714Y-94067380D01*
X108402380Y-94448333D01*
X108545238Y-94448333D01*
X108640476Y-94495952D01*
X108688095Y-94543571D01*
X108735714Y-94638809D01*
X108735714Y-94876904D01*
X108688095Y-94972142D01*
X108640476Y-95019761D01*
X108545238Y-95067380D01*
X108259523Y-95067380D01*
X108164285Y-95019761D01*
X108116666Y-94972142D01*
X88804761Y-61122619D02*
X88709523Y-61075000D01*
X88614285Y-60979761D01*
X88471428Y-60836904D01*
X88376190Y-60789285D01*
X88280952Y-60789285D01*
X88328571Y-61027380D02*
X88233333Y-60979761D01*
X88138095Y-60884523D01*
X88090476Y-60694047D01*
X88090476Y-60360714D01*
X88138095Y-60170238D01*
X88233333Y-60075000D01*
X88328571Y-60027380D01*
X88519047Y-60027380D01*
X88614285Y-60075000D01*
X88709523Y-60170238D01*
X88757142Y-60360714D01*
X88757142Y-60694047D01*
X88709523Y-60884523D01*
X88614285Y-60979761D01*
X88519047Y-61027380D01*
X88328571Y-61027380D01*
X89709523Y-61027380D02*
X89138095Y-61027380D01*
X89423809Y-61027380D02*
X89423809Y-60027380D01*
X89328571Y-60170238D01*
X89233333Y-60265476D01*
X89138095Y-60313095D01*
X94519761Y-61122619D02*
X94424523Y-61075000D01*
X94329285Y-60979761D01*
X94186428Y-60836904D01*
X94091190Y-60789285D01*
X93995952Y-60789285D01*
X94043571Y-61027380D02*
X93948333Y-60979761D01*
X93853095Y-60884523D01*
X93805476Y-60694047D01*
X93805476Y-60360714D01*
X93853095Y-60170238D01*
X93948333Y-60075000D01*
X94043571Y-60027380D01*
X94234047Y-60027380D01*
X94329285Y-60075000D01*
X94424523Y-60170238D01*
X94472142Y-60360714D01*
X94472142Y-60694047D01*
X94424523Y-60884523D01*
X94329285Y-60979761D01*
X94234047Y-61027380D01*
X94043571Y-61027380D01*
X94853095Y-60122619D02*
X94900714Y-60075000D01*
X94995952Y-60027380D01*
X95234047Y-60027380D01*
X95329285Y-60075000D01*
X95376904Y-60122619D01*
X95424523Y-60217857D01*
X95424523Y-60313095D01*
X95376904Y-60455952D01*
X94805476Y-61027380D01*
X95424523Y-61027380D01*
X94519761Y-106842619D02*
X94424523Y-106795000D01*
X94329285Y-106699761D01*
X94186428Y-106556904D01*
X94091190Y-106509285D01*
X93995952Y-106509285D01*
X94043571Y-106747380D02*
X93948333Y-106699761D01*
X93853095Y-106604523D01*
X93805476Y-106414047D01*
X93805476Y-106080714D01*
X93853095Y-105890238D01*
X93948333Y-105795000D01*
X94043571Y-105747380D01*
X94234047Y-105747380D01*
X94329285Y-105795000D01*
X94424523Y-105890238D01*
X94472142Y-106080714D01*
X94472142Y-106414047D01*
X94424523Y-106604523D01*
X94329285Y-106699761D01*
X94234047Y-106747380D01*
X94043571Y-106747380D01*
X95329285Y-106080714D02*
X95329285Y-106747380D01*
X95091190Y-105699761D02*
X94853095Y-106414047D01*
X95472142Y-106414047D01*
X88804761Y-106842619D02*
X88709523Y-106795000D01*
X88614285Y-106699761D01*
X88471428Y-106556904D01*
X88376190Y-106509285D01*
X88280952Y-106509285D01*
X88328571Y-106747380D02*
X88233333Y-106699761D01*
X88138095Y-106604523D01*
X88090476Y-106414047D01*
X88090476Y-106080714D01*
X88138095Y-105890238D01*
X88233333Y-105795000D01*
X88328571Y-105747380D01*
X88519047Y-105747380D01*
X88614285Y-105795000D01*
X88709523Y-105890238D01*
X88757142Y-106080714D01*
X88757142Y-106414047D01*
X88709523Y-106604523D01*
X88614285Y-106699761D01*
X88519047Y-106747380D01*
X88328571Y-106747380D01*
X89661904Y-105747380D02*
X89185714Y-105747380D01*
X89138095Y-106223571D01*
X89185714Y-106175952D01*
X89280952Y-106128333D01*
X89519047Y-106128333D01*
X89614285Y-106175952D01*
X89661904Y-106223571D01*
X89709523Y-106318809D01*
X89709523Y-106556904D01*
X89661904Y-106652142D01*
X89614285Y-106699761D01*
X89519047Y-106747380D01*
X89280952Y-106747380D01*
X89185714Y-106699761D01*
X89138095Y-106652142D01*
X107783333Y-62047380D02*
X107450000Y-61571190D01*
X107211904Y-62047380D02*
X107211904Y-61047380D01*
X107592857Y-61047380D01*
X107688095Y-61095000D01*
X107735714Y-61142619D01*
X107783333Y-61237857D01*
X107783333Y-61380714D01*
X107735714Y-61475952D01*
X107688095Y-61523571D01*
X107592857Y-61571190D01*
X107211904Y-61571190D01*
X108116666Y-61047380D02*
X108735714Y-61047380D01*
X108402380Y-61428333D01*
X108545238Y-61428333D01*
X108640476Y-61475952D01*
X108688095Y-61523571D01*
X108735714Y-61618809D01*
X108735714Y-61856904D01*
X108688095Y-61952142D01*
X108640476Y-61999761D01*
X108545238Y-62047380D01*
X108259523Y-62047380D01*
X108164285Y-61999761D01*
X108116666Y-61952142D01*
X111593333Y-62047380D02*
X111260000Y-61571190D01*
X111021904Y-62047380D02*
X111021904Y-61047380D01*
X111402857Y-61047380D01*
X111498095Y-61095000D01*
X111545714Y-61142619D01*
X111593333Y-61237857D01*
X111593333Y-61380714D01*
X111545714Y-61475952D01*
X111498095Y-61523571D01*
X111402857Y-61571190D01*
X111021904Y-61571190D01*
X112450476Y-61380714D02*
X112450476Y-62047380D01*
X112212380Y-60999761D02*
X111974285Y-61714047D01*
X112593333Y-61714047D01*
X81097380Y-46140666D02*
X80621190Y-46474000D01*
X81097380Y-46712095D02*
X80097380Y-46712095D01*
X80097380Y-46331142D01*
X80145000Y-46235904D01*
X80192619Y-46188285D01*
X80287857Y-46140666D01*
X80430714Y-46140666D01*
X80525952Y-46188285D01*
X80573571Y-46235904D01*
X80621190Y-46331142D01*
X80621190Y-46712095D01*
X80097380Y-45283523D02*
X80097380Y-45474000D01*
X80145000Y-45569238D01*
X80192619Y-45616857D01*
X80335476Y-45712095D01*
X80525952Y-45759714D01*
X80906904Y-45759714D01*
X81002142Y-45712095D01*
X81049761Y-45664476D01*
X81097380Y-45569238D01*
X81097380Y-45378761D01*
X81049761Y-45283523D01*
X81002142Y-45235904D01*
X80906904Y-45188285D01*
X80668809Y-45188285D01*
X80573571Y-45235904D01*
X80525952Y-45283523D01*
X80478333Y-45378761D01*
X80478333Y-45569238D01*
X80525952Y-45664476D01*
X80573571Y-45712095D01*
X80668809Y-45759714D01*
X107307142Y-107767380D02*
X106973809Y-107291190D01*
X106735714Y-107767380D02*
X106735714Y-106767380D01*
X107116666Y-106767380D01*
X107211904Y-106815000D01*
X107259523Y-106862619D01*
X107307142Y-106957857D01*
X107307142Y-107100714D01*
X107259523Y-107195952D01*
X107211904Y-107243571D01*
X107116666Y-107291190D01*
X106735714Y-107291190D01*
X108259523Y-107767380D02*
X107688095Y-107767380D01*
X107973809Y-107767380D02*
X107973809Y-106767380D01*
X107878571Y-106910238D01*
X107783333Y-107005476D01*
X107688095Y-107053095D01*
X109116666Y-106767380D02*
X108926190Y-106767380D01*
X108830952Y-106815000D01*
X108783333Y-106862619D01*
X108688095Y-107005476D01*
X108640476Y-107195952D01*
X108640476Y-107576904D01*
X108688095Y-107672142D01*
X108735714Y-107719761D01*
X108830952Y-107767380D01*
X109021428Y-107767380D01*
X109116666Y-107719761D01*
X109164285Y-107672142D01*
X109211904Y-107576904D01*
X109211904Y-107338809D01*
X109164285Y-107243571D01*
X109116666Y-107195952D01*
X109021428Y-107148333D01*
X108830952Y-107148333D01*
X108735714Y-107195952D01*
X108688095Y-107243571D01*
X108640476Y-107338809D01*
X111117142Y-107767380D02*
X110783809Y-107291190D01*
X110545714Y-107767380D02*
X110545714Y-106767380D01*
X110926666Y-106767380D01*
X111021904Y-106815000D01*
X111069523Y-106862619D01*
X111117142Y-106957857D01*
X111117142Y-107100714D01*
X111069523Y-107195952D01*
X111021904Y-107243571D01*
X110926666Y-107291190D01*
X110545714Y-107291190D01*
X112069523Y-107767380D02*
X111498095Y-107767380D01*
X111783809Y-107767380D02*
X111783809Y-106767380D01*
X111688571Y-106910238D01*
X111593333Y-107005476D01*
X111498095Y-107053095D01*
X112402857Y-106767380D02*
X113069523Y-106767380D01*
X112640952Y-107767380D01*
X81097380Y-91447857D02*
X80621190Y-91781190D01*
X81097380Y-92019285D02*
X80097380Y-92019285D01*
X80097380Y-91638333D01*
X80145000Y-91543095D01*
X80192619Y-91495476D01*
X80287857Y-91447857D01*
X80430714Y-91447857D01*
X80525952Y-91495476D01*
X80573571Y-91543095D01*
X80621190Y-91638333D01*
X80621190Y-92019285D01*
X81097380Y-90495476D02*
X81097380Y-91066904D01*
X81097380Y-90781190D02*
X80097380Y-90781190D01*
X80240238Y-90876428D01*
X80335476Y-90971666D01*
X80383095Y-91066904D01*
X81097380Y-90019285D02*
X81097380Y-89828809D01*
X81049761Y-89733571D01*
X81002142Y-89685952D01*
X80859285Y-89590714D01*
X80668809Y-89543095D01*
X80287857Y-89543095D01*
X80192619Y-89590714D01*
X80145000Y-89638333D01*
X80097380Y-89733571D01*
X80097380Y-89924047D01*
X80145000Y-90019285D01*
X80192619Y-90066904D01*
X80287857Y-90114523D01*
X80525952Y-90114523D01*
X80621190Y-90066904D01*
X80668809Y-90019285D01*
X80716428Y-89924047D01*
X80716428Y-89733571D01*
X80668809Y-89638333D01*
X80621190Y-89590714D01*
X80525952Y-89543095D01*
X116141666Y-52049761D02*
X116284523Y-52097380D01*
X116522619Y-52097380D01*
X116617857Y-52049761D01*
X116665476Y-52002142D01*
X116713095Y-51906904D01*
X116713095Y-51811666D01*
X116665476Y-51716428D01*
X116617857Y-51668809D01*
X116522619Y-51621190D01*
X116332142Y-51573571D01*
X116236904Y-51525952D01*
X116189285Y-51478333D01*
X116141666Y-51383095D01*
X116141666Y-51287857D01*
X116189285Y-51192619D01*
X116236904Y-51145000D01*
X116332142Y-51097380D01*
X116570238Y-51097380D01*
X116713095Y-51145000D01*
X117046428Y-51097380D02*
X117284523Y-52097380D01*
X117475000Y-51383095D01*
X117665476Y-52097380D01*
X117903571Y-51097380D01*
X118808333Y-52097380D02*
X118236904Y-52097380D01*
X118522619Y-52097380D02*
X118522619Y-51097380D01*
X118427380Y-51240238D01*
X118332142Y-51335476D01*
X118236904Y-51383095D01*
X48831666Y-51839761D02*
X48974523Y-51887380D01*
X49212619Y-51887380D01*
X49307857Y-51839761D01*
X49355476Y-51792142D01*
X49403095Y-51696904D01*
X49403095Y-51601666D01*
X49355476Y-51506428D01*
X49307857Y-51458809D01*
X49212619Y-51411190D01*
X49022142Y-51363571D01*
X48926904Y-51315952D01*
X48879285Y-51268333D01*
X48831666Y-51173095D01*
X48831666Y-51077857D01*
X48879285Y-50982619D01*
X48926904Y-50935000D01*
X49022142Y-50887380D01*
X49260238Y-50887380D01*
X49403095Y-50935000D01*
X49736428Y-50887380D02*
X49974523Y-51887380D01*
X50165000Y-51173095D01*
X50355476Y-51887380D01*
X50593571Y-50887380D01*
X50879285Y-50887380D02*
X51545952Y-50887380D01*
X51117380Y-51887380D01*
X57721666Y-51839761D02*
X57864523Y-51887380D01*
X58102619Y-51887380D01*
X58197857Y-51839761D01*
X58245476Y-51792142D01*
X58293095Y-51696904D01*
X58293095Y-51601666D01*
X58245476Y-51506428D01*
X58197857Y-51458809D01*
X58102619Y-51411190D01*
X57912142Y-51363571D01*
X57816904Y-51315952D01*
X57769285Y-51268333D01*
X57721666Y-51173095D01*
X57721666Y-51077857D01*
X57769285Y-50982619D01*
X57816904Y-50935000D01*
X57912142Y-50887380D01*
X58150238Y-50887380D01*
X58293095Y-50935000D01*
X58626428Y-50887380D02*
X58864523Y-51887380D01*
X59055000Y-51173095D01*
X59245476Y-51887380D01*
X59483571Y-50887380D01*
X60007380Y-51315952D02*
X59912142Y-51268333D01*
X59864523Y-51220714D01*
X59816904Y-51125476D01*
X59816904Y-51077857D01*
X59864523Y-50982619D01*
X59912142Y-50935000D01*
X60007380Y-50887380D01*
X60197857Y-50887380D01*
X60293095Y-50935000D01*
X60340714Y-50982619D01*
X60388333Y-51077857D01*
X60388333Y-51125476D01*
X60340714Y-51220714D01*
X60293095Y-51268333D01*
X60197857Y-51315952D01*
X60007380Y-51315952D01*
X59912142Y-51363571D01*
X59864523Y-51411190D01*
X59816904Y-51506428D01*
X59816904Y-51696904D01*
X59864523Y-51792142D01*
X59912142Y-51839761D01*
X60007380Y-51887380D01*
X60197857Y-51887380D01*
X60293095Y-51839761D01*
X60340714Y-51792142D01*
X60388333Y-51696904D01*
X60388333Y-51506428D01*
X60340714Y-51411190D01*
X60293095Y-51363571D01*
X60197857Y-51315952D01*
X116141666Y-97769761D02*
X116284523Y-97817380D01*
X116522619Y-97817380D01*
X116617857Y-97769761D01*
X116665476Y-97722142D01*
X116713095Y-97626904D01*
X116713095Y-97531666D01*
X116665476Y-97436428D01*
X116617857Y-97388809D01*
X116522619Y-97341190D01*
X116332142Y-97293571D01*
X116236904Y-97245952D01*
X116189285Y-97198333D01*
X116141666Y-97103095D01*
X116141666Y-97007857D01*
X116189285Y-96912619D01*
X116236904Y-96865000D01*
X116332142Y-96817380D01*
X116570238Y-96817380D01*
X116713095Y-96865000D01*
X117046428Y-96817380D02*
X117284523Y-97817380D01*
X117475000Y-97103095D01*
X117665476Y-97817380D01*
X117903571Y-96817380D01*
X118332142Y-97817380D02*
X118522619Y-97817380D01*
X118617857Y-97769761D01*
X118665476Y-97722142D01*
X118760714Y-97579285D01*
X118808333Y-97388809D01*
X118808333Y-97007857D01*
X118760714Y-96912619D01*
X118713095Y-96865000D01*
X118617857Y-96817380D01*
X118427380Y-96817380D01*
X118332142Y-96865000D01*
X118284523Y-96912619D01*
X118236904Y-97007857D01*
X118236904Y-97245952D01*
X118284523Y-97341190D01*
X118332142Y-97388809D01*
X118427380Y-97436428D01*
X118617857Y-97436428D01*
X118713095Y-97388809D01*
X118760714Y-97341190D01*
X118808333Y-97245952D01*
X58083095Y-63182380D02*
X58083095Y-63991904D01*
X58130714Y-64087142D01*
X58178333Y-64134761D01*
X58273571Y-64182380D01*
X58464047Y-64182380D01*
X58559285Y-64134761D01*
X58606904Y-64087142D01*
X58654523Y-63991904D01*
X58654523Y-63182380D01*
X59606904Y-63182380D02*
X59130714Y-63182380D01*
X59083095Y-63658571D01*
X59130714Y-63610952D01*
X59225952Y-63563333D01*
X59464047Y-63563333D01*
X59559285Y-63610952D01*
X59606904Y-63658571D01*
X59654523Y-63753809D01*
X59654523Y-63991904D01*
X59606904Y-64087142D01*
X59559285Y-64134761D01*
X59464047Y-64182380D01*
X59225952Y-64182380D01*
X59130714Y-64134761D01*
X59083095Y-64087142D01*
X103965476Y-73112380D02*
X103965476Y-73826666D01*
X103917857Y-73969523D01*
X103822619Y-74064761D01*
X103679761Y-74112380D01*
X103584523Y-74112380D01*
X104965476Y-74112380D02*
X104394047Y-74112380D01*
X104679761Y-74112380D02*
X104679761Y-73112380D01*
X104584523Y-73255238D01*
X104489285Y-73350476D01*
X104394047Y-73398095D01*
X105441666Y-74112380D02*
X105632142Y-74112380D01*
X105727380Y-74064761D01*
X105775000Y-74017142D01*
X105870238Y-73874285D01*
X105917857Y-73683809D01*
X105917857Y-73302857D01*
X105870238Y-73207619D01*
X105822619Y-73160000D01*
X105727380Y-73112380D01*
X105536904Y-73112380D01*
X105441666Y-73160000D01*
X105394047Y-73207619D01*
X105346428Y-73302857D01*
X105346428Y-73540952D01*
X105394047Y-73636190D01*
X105441666Y-73683809D01*
X105536904Y-73731428D01*
X105727380Y-73731428D01*
X105822619Y-73683809D01*
X105870238Y-73636190D01*
X105917857Y-73540952D01*
X88796904Y-28392380D02*
X88796904Y-27392380D01*
X89035000Y-27392380D01*
X89177857Y-27440000D01*
X89273095Y-27535238D01*
X89320714Y-27630476D01*
X89368333Y-27820952D01*
X89368333Y-27963809D01*
X89320714Y-28154285D01*
X89273095Y-28249523D01*
X89177857Y-28344761D01*
X89035000Y-28392380D01*
X88796904Y-28392380D01*
X89749285Y-27487619D02*
X89796904Y-27440000D01*
X89892142Y-27392380D01*
X90130238Y-27392380D01*
X90225476Y-27440000D01*
X90273095Y-27487619D01*
X90320714Y-27582857D01*
X90320714Y-27678095D01*
X90273095Y-27820952D01*
X89701666Y-28392380D01*
X90320714Y-28392380D01*
X96418095Y-28392380D02*
X96418095Y-27392380D01*
X96989523Y-28392380D02*
X96560952Y-27820952D01*
X96989523Y-27392380D02*
X96418095Y-27963809D01*
X80700714Y-74747380D02*
X80700714Y-73747380D01*
X80938809Y-73747380D01*
X81081666Y-73795000D01*
X81176904Y-73890238D01*
X81224523Y-73985476D01*
X81272142Y-74175952D01*
X81272142Y-74318809D01*
X81224523Y-74509285D01*
X81176904Y-74604523D01*
X81081666Y-74699761D01*
X80938809Y-74747380D01*
X80700714Y-74747380D01*
X82224523Y-74747380D02*
X81653095Y-74747380D01*
X81938809Y-74747380D02*
X81938809Y-73747380D01*
X81843571Y-73890238D01*
X81748333Y-73985476D01*
X81653095Y-74033095D01*
X83176904Y-74747380D02*
X82605476Y-74747380D01*
X82891190Y-74747380D02*
X82891190Y-73747380D01*
X82795952Y-73890238D01*
X82700714Y-73985476D01*
X82605476Y-74033095D01*
X75143095Y-74747380D02*
X75143095Y-73747380D01*
X75714523Y-74747380D02*
X75285952Y-74175952D01*
X75714523Y-73747380D02*
X75143095Y-74318809D01*
X68032380Y-44624523D02*
X68746666Y-44624523D01*
X68889523Y-44672142D01*
X68984761Y-44767380D01*
X69032380Y-44910238D01*
X69032380Y-45005476D01*
X68127619Y-44195952D02*
X68080000Y-44148333D01*
X68032380Y-44053095D01*
X68032380Y-43815000D01*
X68080000Y-43719761D01*
X68127619Y-43672142D01*
X68222857Y-43624523D01*
X68318095Y-43624523D01*
X68460952Y-43672142D01*
X69032380Y-44243571D01*
X69032380Y-43624523D01*
X69032380Y-42672142D02*
X69032380Y-43243571D01*
X69032380Y-42957857D02*
X68032380Y-42957857D01*
X68175238Y-43053095D01*
X68270476Y-43148333D01*
X68318095Y-43243571D01*
X92162380Y-77644523D02*
X92876666Y-77644523D01*
X93019523Y-77692142D01*
X93114761Y-77787380D01*
X93162380Y-77930238D01*
X93162380Y-78025476D01*
X92257619Y-77215952D02*
X92210000Y-77168333D01*
X92162380Y-77073095D01*
X92162380Y-76835000D01*
X92210000Y-76739761D01*
X92257619Y-76692142D01*
X92352857Y-76644523D01*
X92448095Y-76644523D01*
X92590952Y-76692142D01*
X93162380Y-77263571D01*
X93162380Y-76644523D01*
X92162380Y-76311190D02*
X92162380Y-75692142D01*
X92543333Y-76025476D01*
X92543333Y-75882619D01*
X92590952Y-75787380D01*
X92638571Y-75739761D01*
X92733809Y-75692142D01*
X92971904Y-75692142D01*
X93067142Y-75739761D01*
X93114761Y-75787380D01*
X93162380Y-75882619D01*
X93162380Y-76168333D01*
X93114761Y-76263571D01*
X93067142Y-76311190D01*
X80637142Y-28392380D02*
X80303809Y-27916190D01*
X80065714Y-28392380D02*
X80065714Y-27392380D01*
X80446666Y-27392380D01*
X80541904Y-27440000D01*
X80589523Y-27487619D01*
X80637142Y-27582857D01*
X80637142Y-27725714D01*
X80589523Y-27820952D01*
X80541904Y-27868571D01*
X80446666Y-27916190D01*
X80065714Y-27916190D01*
X81018095Y-27487619D02*
X81065714Y-27440000D01*
X81160952Y-27392380D01*
X81399047Y-27392380D01*
X81494285Y-27440000D01*
X81541904Y-27487619D01*
X81589523Y-27582857D01*
X81589523Y-27678095D01*
X81541904Y-27820952D01*
X80970476Y-28392380D01*
X81589523Y-28392380D01*
X82446666Y-27392380D02*
X82256190Y-27392380D01*
X82160952Y-27440000D01*
X82113333Y-27487619D01*
X82018095Y-27630476D01*
X81970476Y-27820952D01*
X81970476Y-28201904D01*
X82018095Y-28297142D01*
X82065714Y-28344761D01*
X82160952Y-28392380D01*
X82351428Y-28392380D01*
X82446666Y-28344761D01*
X82494285Y-28297142D01*
X82541904Y-28201904D01*
X82541904Y-27963809D01*
X82494285Y-27868571D01*
X82446666Y-27820952D01*
X82351428Y-27773333D01*
X82160952Y-27773333D01*
X82065714Y-27820952D01*
X82018095Y-27868571D01*
X81970476Y-27963809D01*
X80637142Y-76652380D02*
X80303809Y-76176190D01*
X80065714Y-76652380D02*
X80065714Y-75652380D01*
X80446666Y-75652380D01*
X80541904Y-75700000D01*
X80589523Y-75747619D01*
X80637142Y-75842857D01*
X80637142Y-75985714D01*
X80589523Y-76080952D01*
X80541904Y-76128571D01*
X80446666Y-76176190D01*
X80065714Y-76176190D01*
X81018095Y-75747619D02*
X81065714Y-75700000D01*
X81160952Y-75652380D01*
X81399047Y-75652380D01*
X81494285Y-75700000D01*
X81541904Y-75747619D01*
X81589523Y-75842857D01*
X81589523Y-75938095D01*
X81541904Y-76080952D01*
X80970476Y-76652380D01*
X81589523Y-76652380D01*
X81922857Y-75652380D02*
X82589523Y-75652380D01*
X82160952Y-76652380D01*
X39266904Y-94432380D02*
X39266904Y-93432380D01*
X39505000Y-93432380D01*
X39647857Y-93480000D01*
X39743095Y-93575238D01*
X39790714Y-93670476D01*
X39838333Y-93860952D01*
X39838333Y-94003809D01*
X39790714Y-94194285D01*
X39743095Y-94289523D01*
X39647857Y-94384761D01*
X39505000Y-94432380D01*
X39266904Y-94432380D01*
X40171666Y-93432380D02*
X40790714Y-93432380D01*
X40457380Y-93813333D01*
X40600238Y-93813333D01*
X40695476Y-93860952D01*
X40743095Y-93908571D01*
X40790714Y-94003809D01*
X40790714Y-94241904D01*
X40743095Y-94337142D01*
X40695476Y-94384761D01*
X40600238Y-94432380D01*
X40314523Y-94432380D01*
X40219285Y-94384761D01*
X40171666Y-94337142D01*
X49426904Y-95702380D02*
X49426904Y-94702380D01*
X49665000Y-94702380D01*
X49807857Y-94750000D01*
X49903095Y-94845238D01*
X49950714Y-94940476D01*
X49998333Y-95130952D01*
X49998333Y-95273809D01*
X49950714Y-95464285D01*
X49903095Y-95559523D01*
X49807857Y-95654761D01*
X49665000Y-95702380D01*
X49426904Y-95702380D01*
X50855476Y-95035714D02*
X50855476Y-95702380D01*
X50617380Y-94654761D02*
X50379285Y-95369047D01*
X50998333Y-95369047D01*
X58951904Y-96337380D02*
X58951904Y-95337380D01*
X59190000Y-95337380D01*
X59332857Y-95385000D01*
X59428095Y-95480238D01*
X59475714Y-95575476D01*
X59523333Y-95765952D01*
X59523333Y-95908809D01*
X59475714Y-96099285D01*
X59428095Y-96194523D01*
X59332857Y-96289761D01*
X59190000Y-96337380D01*
X58951904Y-96337380D01*
X60428095Y-95337380D02*
X59951904Y-95337380D01*
X59904285Y-95813571D01*
X59951904Y-95765952D01*
X60047142Y-95718333D01*
X60285238Y-95718333D01*
X60380476Y-95765952D01*
X60428095Y-95813571D01*
X60475714Y-95908809D01*
X60475714Y-96146904D01*
X60428095Y-96242142D01*
X60380476Y-96289761D01*
X60285238Y-96337380D01*
X60047142Y-96337380D01*
X59951904Y-96289761D01*
X59904285Y-96242142D01*
X28765714Y-92210000D02*
X28670476Y-92162380D01*
X28527619Y-92162380D01*
X28384761Y-92210000D01*
X28289523Y-92305238D01*
X28241904Y-92400476D01*
X28194285Y-92590952D01*
X28194285Y-92733809D01*
X28241904Y-92924285D01*
X28289523Y-93019523D01*
X28384761Y-93114761D01*
X28527619Y-93162380D01*
X28622857Y-93162380D01*
X28765714Y-93114761D01*
X28813333Y-93067142D01*
X28813333Y-92733809D01*
X28622857Y-92733809D01*
X29241904Y-93162380D02*
X29241904Y-92162380D01*
X29813333Y-93162380D01*
X29813333Y-92162380D01*
X30289523Y-93162380D02*
X30289523Y-92162380D01*
X30527619Y-92162380D01*
X30670476Y-92210000D01*
X30765714Y-92305238D01*
X30813333Y-92400476D01*
X30860952Y-92590952D01*
X30860952Y-92733809D01*
X30813333Y-92924285D01*
X30765714Y-93019523D01*
X30670476Y-93114761D01*
X30527619Y-93162380D01*
X30289523Y-93162380D01*
X31241904Y-92257619D02*
X31289523Y-92210000D01*
X31384761Y-92162380D01*
X31622857Y-92162380D01*
X31718095Y-92210000D01*
X31765714Y-92257619D01*
X31813333Y-92352857D01*
X31813333Y-92448095D01*
X31765714Y-92590952D01*
X31194285Y-93162380D01*
X31813333Y-93162380D01*
X32194285Y-92257619D02*
X32241904Y-92210000D01*
X32337142Y-92162380D01*
X32575238Y-92162380D01*
X32670476Y-92210000D01*
X32718095Y-92257619D01*
X32765714Y-92352857D01*
X32765714Y-92448095D01*
X32718095Y-92590952D01*
X32146666Y-93162380D01*
X32765714Y-93162380D01*
X96186666Y-53002380D02*
X96186666Y-53716666D01*
X96139047Y-53859523D01*
X96043809Y-53954761D01*
X95900952Y-54002380D01*
X95805714Y-54002380D01*
X96615238Y-53097619D02*
X96662857Y-53050000D01*
X96758095Y-53002380D01*
X96996190Y-53002380D01*
X97091428Y-53050000D01*
X97139047Y-53097619D01*
X97186666Y-53192857D01*
X97186666Y-53288095D01*
X97139047Y-53430952D01*
X96567619Y-54002380D01*
X97186666Y-54002380D01*
X103965476Y-27392380D02*
X103965476Y-28106666D01*
X103917857Y-28249523D01*
X103822619Y-28344761D01*
X103679761Y-28392380D01*
X103584523Y-28392380D01*
X104965476Y-28392380D02*
X104394047Y-28392380D01*
X104679761Y-28392380D02*
X104679761Y-27392380D01*
X104584523Y-27535238D01*
X104489285Y-27630476D01*
X104394047Y-27678095D01*
X105298809Y-27392380D02*
X105965476Y-27392380D01*
X105536904Y-28392380D01*
X112926904Y-32472380D02*
X112926904Y-31472380D01*
X113307857Y-31472380D01*
X113403095Y-31520000D01*
X113450714Y-31567619D01*
X113498333Y-31662857D01*
X113498333Y-31805714D01*
X113450714Y-31900952D01*
X113403095Y-31948571D01*
X113307857Y-31996190D01*
X112926904Y-31996190D01*
X113879285Y-31567619D02*
X113926904Y-31520000D01*
X114022142Y-31472380D01*
X114260238Y-31472380D01*
X114355476Y-31520000D01*
X114403095Y-31567619D01*
X114450714Y-31662857D01*
X114450714Y-31758095D01*
X114403095Y-31900952D01*
X113831666Y-32472380D01*
X114450714Y-32472380D01*
X112926904Y-78192380D02*
X112926904Y-77192380D01*
X113307857Y-77192380D01*
X113403095Y-77240000D01*
X113450714Y-77287619D01*
X113498333Y-77382857D01*
X113498333Y-77525714D01*
X113450714Y-77620952D01*
X113403095Y-77668571D01*
X113307857Y-77716190D01*
X112926904Y-77716190D01*
X114355476Y-77525714D02*
X114355476Y-78192380D01*
X114117380Y-77144761D02*
X113879285Y-77859047D01*
X114498333Y-77859047D01*
X32956666Y-88534761D02*
X33099523Y-88582380D01*
X33337619Y-88582380D01*
X33432857Y-88534761D01*
X33480476Y-88487142D01*
X33528095Y-88391904D01*
X33528095Y-88296666D01*
X33480476Y-88201428D01*
X33432857Y-88153809D01*
X33337619Y-88106190D01*
X33147142Y-88058571D01*
X33051904Y-88010952D01*
X33004285Y-87963333D01*
X32956666Y-87868095D01*
X32956666Y-87772857D01*
X33004285Y-87677619D01*
X33051904Y-87630000D01*
X33147142Y-87582380D01*
X33385238Y-87582380D01*
X33528095Y-87630000D01*
X33861428Y-87582380D02*
X34099523Y-88582380D01*
X34290000Y-87868095D01*
X34480476Y-88582380D01*
X34718571Y-87582380D01*
X35528095Y-87915714D02*
X35528095Y-88582380D01*
X35290000Y-87534761D02*
X35051904Y-88249047D01*
X35670952Y-88249047D01*
X55181666Y-91074761D02*
X55324523Y-91122380D01*
X55562619Y-91122380D01*
X55657857Y-91074761D01*
X55705476Y-91027142D01*
X55753095Y-90931904D01*
X55753095Y-90836666D01*
X55705476Y-90741428D01*
X55657857Y-90693809D01*
X55562619Y-90646190D01*
X55372142Y-90598571D01*
X55276904Y-90550952D01*
X55229285Y-90503333D01*
X55181666Y-90408095D01*
X55181666Y-90312857D01*
X55229285Y-90217619D01*
X55276904Y-90170000D01*
X55372142Y-90122380D01*
X55610238Y-90122380D01*
X55753095Y-90170000D01*
X56086428Y-90122380D02*
X56324523Y-91122380D01*
X56515000Y-90408095D01*
X56705476Y-91122380D01*
X56943571Y-90122380D01*
X57800714Y-90122380D02*
X57324523Y-90122380D01*
X57276904Y-90598571D01*
X57324523Y-90550952D01*
X57419761Y-90503333D01*
X57657857Y-90503333D01*
X57753095Y-90550952D01*
X57800714Y-90598571D01*
X57848333Y-90693809D01*
X57848333Y-90931904D01*
X57800714Y-91027142D01*
X57753095Y-91074761D01*
X57657857Y-91122380D01*
X57419761Y-91122380D01*
X57324523Y-91074761D01*
X57276904Y-91027142D01*
M02*
