G04 #@! TF.GenerationSoftware,KiCad,Pcbnew,(5.1.5)-3*
G04 #@! TF.CreationDate,2020-09-04T01:55:59+09:00*
G04 #@! TF.ProjectId,futureKeyboard,66757475-7265-44b6-9579-626f6172642e,rev?*
G04 #@! TF.SameCoordinates,Original*
G04 #@! TF.FileFunction,Legend,Bot*
G04 #@! TF.FilePolarity,Positive*
%FSLAX46Y46*%
G04 Gerber Fmt 4.6, Leading zero omitted, Abs format (unit mm)*
G04 Created by KiCad (PCBNEW (5.1.5)-3) date 2020-09-04 01:55:59*
%MOMM*%
%LPD*%
G04 APERTURE LIST*
%ADD10C,0.120000*%
%ADD11C,0.150000*%
G04 APERTURE END LIST*
D10*
X88900000Y-76835000D02*
X102235000Y-76835000D01*
D11*
X115697000Y-51308000D02*
X116713000Y-51308000D01*
X116713000Y-50292000D02*
X115697000Y-50292000D01*
X116713000Y-96012000D02*
X115697000Y-96012000D01*
X115697000Y-97028000D02*
X116713000Y-97028000D01*
D10*
X29010000Y-67910000D02*
X31950000Y-67910000D01*
X29010000Y-68150000D02*
X31950000Y-68150000D01*
X29010000Y-68030000D02*
X31950000Y-68030000D01*
X31950000Y-72570000D02*
X31620000Y-72570000D01*
X31950000Y-67130000D02*
X31950000Y-72570000D01*
X31620000Y-67130000D02*
X31950000Y-67130000D01*
X29010000Y-72570000D02*
X29340000Y-72570000D01*
X29010000Y-67130000D02*
X29010000Y-72570000D01*
X29340000Y-67130000D02*
X29010000Y-67130000D01*
X153850000Y-59185000D02*
X153850000Y-58855000D01*
X153850000Y-58855000D02*
X148410000Y-58855000D01*
X148410000Y-58855000D02*
X148410000Y-59185000D01*
X153850000Y-61465000D02*
X153850000Y-61795000D01*
X153850000Y-61795000D02*
X148410000Y-61795000D01*
X148410000Y-61795000D02*
X148410000Y-61465000D01*
X152950000Y-58855000D02*
X152950000Y-61795000D01*
X152830000Y-58855000D02*
X152830000Y-61795000D01*
X153070000Y-58855000D02*
X153070000Y-61795000D01*
D11*
X41330000Y-69850000D02*
G75*
G03X41330000Y-69850000I-4500000J0D01*
G01*
X155630000Y-66675000D02*
G75*
G03X155630000Y-66675000I-4500000J0D01*
G01*
D10*
X22926522Y-68011522D02*
G75*
G02X27365000Y-69850000I1838478J-1838478D01*
G01*
X22926522Y-71688478D02*
G75*
G03X27365000Y-69850000I1838478J1838478D01*
G01*
X22915000Y-71650000D02*
X22915000Y-68050000D01*
X161235000Y-64875000D02*
X161235000Y-68475000D01*
X161223478Y-64836522D02*
G75*
G03X156785000Y-66675000I-1838478J-1838478D01*
G01*
X161223478Y-68513478D02*
G75*
G02X156785000Y-66675000I-1838478J1838478D01*
G01*
D11*
X91567000Y-62103000D02*
X92583000Y-62103000D01*
X92583000Y-61087000D02*
X91567000Y-61087000D01*
X92583000Y-66167000D02*
X91567000Y-66167000D01*
X91567000Y-67183000D02*
X92583000Y-67183000D01*
X24257000Y-74168000D02*
X25273000Y-74168000D01*
X25273000Y-73152000D02*
X24257000Y-73152000D01*
X33528000Y-76327000D02*
X32512000Y-76327000D01*
X32512000Y-77343000D02*
X33528000Y-77343000D01*
X54102000Y-79883000D02*
X55118000Y-79883000D01*
X55118000Y-78867000D02*
X54102000Y-78867000D01*
X30988000Y-54737000D02*
X29972000Y-54737000D01*
X29972000Y-55753000D02*
X30988000Y-55753000D01*
X53848000Y-49403000D02*
X53848000Y-48387000D01*
X52832000Y-48387000D02*
X52832000Y-49403000D01*
X55372000Y-48387000D02*
X55372000Y-49403000D01*
X56388000Y-49403000D02*
X56388000Y-48387000D01*
X54102000Y-60452000D02*
X54102000Y-61468000D01*
X55118000Y-61468000D02*
X55118000Y-60452000D01*
X91567000Y-112903000D02*
X92583000Y-112903000D01*
X92583000Y-111887000D02*
X91567000Y-111887000D01*
X91567000Y-107823000D02*
X92583000Y-107823000D01*
X92583000Y-106807000D02*
X91567000Y-106807000D01*
X150622000Y-58293000D02*
X151638000Y-58293000D01*
X151638000Y-57277000D02*
X150622000Y-57277000D01*
X189357000Y-34417000D02*
X189357000Y-35433000D01*
X190373000Y-35433000D02*
X190373000Y-34417000D01*
X190373000Y-55753000D02*
X190373000Y-54737000D01*
X189357000Y-54737000D02*
X189357000Y-55753000D01*
X189357000Y-75057000D02*
X189357000Y-76073000D01*
X190373000Y-76073000D02*
X190373000Y-75057000D01*
X190373000Y-96393000D02*
X190373000Y-95377000D01*
X189357000Y-95377000D02*
X189357000Y-96393000D01*
X130937000Y-31242000D02*
X130937000Y-32258000D01*
X131953000Y-32258000D02*
X131953000Y-31242000D01*
X131953000Y-41148000D02*
X131953000Y-40132000D01*
X130937000Y-40132000D02*
X130937000Y-41148000D01*
X108458000Y-66040000D02*
X107188000Y-66040000D01*
X106426000Y-64770000D02*
X106426000Y-62230000D01*
X109220000Y-62230000D02*
X109220000Y-64770000D01*
X108458000Y-60960000D02*
X107188000Y-60960000D01*
X108204000Y-65024000D02*
X107442000Y-65024000D01*
X107442000Y-65024000D02*
X107188000Y-64770000D01*
X107188000Y-64770000D02*
X107188000Y-62230000D01*
X107188000Y-62230000D02*
X107442000Y-61976000D01*
X107442000Y-61976000D02*
X108204000Y-61976000D01*
X108204000Y-61976000D02*
X108458000Y-62230000D01*
X108458000Y-62230000D02*
X108458000Y-64770000D01*
X108458000Y-64770000D02*
X108204000Y-65024000D01*
X111252000Y-60960000D02*
X112522000Y-60960000D01*
X113284000Y-62230000D02*
X113284000Y-64770000D01*
X110490000Y-64770000D02*
X110490000Y-62230000D01*
X111252000Y-66040000D02*
X112522000Y-66040000D01*
X111506000Y-61976000D02*
X112268000Y-61976000D01*
X112268000Y-61976000D02*
X112522000Y-62230000D01*
X112522000Y-62230000D02*
X112522000Y-64770000D01*
X112522000Y-64770000D02*
X112268000Y-65024000D01*
X112268000Y-65024000D02*
X111506000Y-65024000D01*
X111506000Y-65024000D02*
X111252000Y-64770000D01*
X111252000Y-64770000D02*
X111252000Y-62230000D01*
X111252000Y-62230000D02*
X111506000Y-61976000D01*
X108458000Y-110490000D02*
X108204000Y-110744000D01*
X108458000Y-107950000D02*
X108458000Y-110490000D01*
X108204000Y-107696000D02*
X108458000Y-107950000D01*
X107442000Y-107696000D02*
X108204000Y-107696000D01*
X107188000Y-107950000D02*
X107442000Y-107696000D01*
X107188000Y-110490000D02*
X107188000Y-107950000D01*
X107442000Y-110744000D02*
X107188000Y-110490000D01*
X108204000Y-110744000D02*
X107442000Y-110744000D01*
X108458000Y-106680000D02*
X107188000Y-106680000D01*
X109220000Y-107950000D02*
X109220000Y-110490000D01*
X106426000Y-110490000D02*
X106426000Y-107950000D01*
X108458000Y-111760000D02*
X107188000Y-111760000D01*
X111252000Y-106680000D02*
X112522000Y-106680000D01*
X113284000Y-107950000D02*
X113284000Y-110490000D01*
X110490000Y-110490000D02*
X110490000Y-107950000D01*
X111252000Y-111760000D02*
X112522000Y-111760000D01*
X111506000Y-107696000D02*
X112268000Y-107696000D01*
X112268000Y-107696000D02*
X112522000Y-107950000D01*
X112522000Y-107950000D02*
X112522000Y-110490000D01*
X112522000Y-110490000D02*
X112268000Y-110744000D01*
X112268000Y-110744000D02*
X111506000Y-110744000D01*
X111506000Y-110744000D02*
X111252000Y-110490000D01*
X111252000Y-110490000D02*
X111252000Y-107950000D01*
X111252000Y-107950000D02*
X111506000Y-107696000D01*
X95250000Y-32790000D02*
X95250000Y-26790000D01*
X95250000Y-26790000D02*
X77250000Y-26790000D01*
X77250000Y-26790000D02*
X77250000Y-32790000D01*
X77250000Y-33290000D02*
X77250000Y-32790000D01*
X77250000Y-32790000D02*
X95250000Y-32790000D01*
X95250000Y-32790000D02*
X95250000Y-33290000D01*
X79250000Y-52290000D02*
X77250000Y-52290000D01*
X77250000Y-52290000D02*
X77250000Y-51790000D01*
X92750000Y-52290000D02*
X95250000Y-52290000D01*
X95250000Y-52290000D02*
X95250000Y-51790000D01*
D10*
X107335000Y-104770000D02*
X107335000Y-103510000D01*
X107335000Y-97950000D02*
X107335000Y-99210000D01*
X111095000Y-104770000D02*
X107335000Y-104770000D01*
X113345000Y-97950000D02*
X107335000Y-97950000D01*
D11*
X95250000Y-98010000D02*
X95250000Y-97510000D01*
X92750000Y-98010000D02*
X95250000Y-98010000D01*
X77250000Y-98010000D02*
X77250000Y-97510000D01*
X79250000Y-98010000D02*
X77250000Y-98010000D01*
X95250000Y-78510000D02*
X95250000Y-79010000D01*
X77250000Y-78510000D02*
X95250000Y-78510000D01*
X77250000Y-79010000D02*
X77250000Y-78510000D01*
X77250000Y-72510000D02*
X77250000Y-78510000D01*
X95250000Y-72510000D02*
X77250000Y-72510000D01*
X95250000Y-78510000D02*
X95250000Y-72510000D01*
X52197000Y-60452000D02*
X52197000Y-61468000D01*
X53213000Y-61468000D02*
X53213000Y-60452000D01*
D10*
X172780000Y-59815000D02*
X172780000Y-63375000D01*
X172780000Y-54735000D02*
X172780000Y-58295000D01*
X172780000Y-49655000D02*
X172780000Y-53215000D01*
X172780000Y-44575000D02*
X172780000Y-48135000D01*
X172780000Y-39495000D02*
X172780000Y-43055000D01*
X172780000Y-34415000D02*
X172780000Y-37975000D01*
X172780000Y-29335000D02*
X172780000Y-32895000D01*
X170120000Y-62355000D02*
X170120000Y-65465000D01*
X170120000Y-57275000D02*
X170120000Y-60835000D01*
X170120000Y-52195000D02*
X170120000Y-55755000D01*
X170120000Y-47115000D02*
X170120000Y-50675000D01*
X170120000Y-42035000D02*
X170120000Y-45595000D01*
X170120000Y-36955000D02*
X170120000Y-40515000D01*
X170120000Y-31875000D02*
X170120000Y-35435000D01*
X170120000Y-64895000D02*
X170120000Y-65465000D01*
X172780000Y-27245000D02*
X172780000Y-27815000D01*
X172780000Y-27815000D02*
X174300000Y-27815000D01*
X170120000Y-27245000D02*
X170120000Y-30355000D01*
X172780000Y-65465000D02*
X170120000Y-65465000D01*
X172780000Y-27245000D02*
X170120000Y-27245000D01*
X35050000Y-49470000D02*
X38160000Y-49470000D01*
X29970000Y-49470000D02*
X33530000Y-49470000D01*
X32510000Y-52130000D02*
X36070000Y-52130000D01*
X37590000Y-52130000D02*
X38160000Y-52130000D01*
X27880000Y-49470000D02*
X28450000Y-49470000D01*
X28450000Y-49470000D02*
X28450000Y-47950000D01*
X27880000Y-52130000D02*
X30990000Y-52130000D01*
X38160000Y-49470000D02*
X38160000Y-52130000D01*
X27880000Y-49470000D02*
X27880000Y-52130000D01*
X143570000Y-48385000D02*
X143570000Y-51495000D01*
X143570000Y-43305000D02*
X143570000Y-46865000D01*
X140910000Y-45845000D02*
X140910000Y-49405000D01*
X140910000Y-50925000D02*
X140910000Y-51495000D01*
X143570000Y-41215000D02*
X143570000Y-41785000D01*
X143570000Y-41785000D02*
X145090000Y-41785000D01*
X140910000Y-41215000D02*
X140910000Y-44325000D01*
X143570000Y-51495000D02*
X140910000Y-51495000D01*
X143570000Y-41215000D02*
X140910000Y-41215000D01*
X47685000Y-46930000D02*
X45025000Y-46930000D01*
X47685000Y-85150000D02*
X45025000Y-85150000D01*
X45025000Y-46930000D02*
X45025000Y-50040000D01*
X47685000Y-47500000D02*
X49205000Y-47500000D01*
X47685000Y-46930000D02*
X47685000Y-47500000D01*
X45025000Y-84580000D02*
X45025000Y-85150000D01*
X45025000Y-51560000D02*
X45025000Y-55120000D01*
X45025000Y-56640000D02*
X45025000Y-60200000D01*
X45025000Y-61720000D02*
X45025000Y-65280000D01*
X45025000Y-66800000D02*
X45025000Y-70360000D01*
X45025000Y-71880000D02*
X45025000Y-75440000D01*
X45025000Y-76960000D02*
X45025000Y-80520000D01*
X45025000Y-82040000D02*
X45025000Y-85150000D01*
X47685000Y-49020000D02*
X47685000Y-52580000D01*
X47685000Y-54100000D02*
X47685000Y-57660000D01*
X47685000Y-59180000D02*
X47685000Y-62740000D01*
X47685000Y-64260000D02*
X47685000Y-67820000D01*
X47685000Y-69340000D02*
X47685000Y-72900000D01*
X47685000Y-74420000D02*
X47685000Y-77980000D01*
X47685000Y-79500000D02*
X47685000Y-83060000D01*
X53400000Y-72965000D02*
X52070000Y-72965000D01*
X53400000Y-74295000D02*
X53400000Y-72965000D01*
X53400000Y-75565000D02*
X50740000Y-75565000D01*
X50740000Y-75565000D02*
X50740000Y-78165000D01*
X53400000Y-75565000D02*
X53400000Y-78165000D01*
X53400000Y-78165000D02*
X50740000Y-78165000D01*
X107310000Y-59290000D02*
X107310000Y-58030000D01*
X107310000Y-52470000D02*
X107310000Y-53730000D01*
X111070000Y-59290000D02*
X107310000Y-59290000D01*
X113320000Y-52470000D02*
X107310000Y-52470000D01*
D11*
X119546666Y-51157142D02*
X119594285Y-51204761D01*
X119737142Y-51252380D01*
X119832380Y-51252380D01*
X119975238Y-51204761D01*
X120070476Y-51109523D01*
X120118095Y-51014285D01*
X120165714Y-50823809D01*
X120165714Y-50680952D01*
X120118095Y-50490476D01*
X120070476Y-50395238D01*
X119975238Y-50300000D01*
X119832380Y-50252380D01*
X119737142Y-50252380D01*
X119594285Y-50300000D01*
X119546666Y-50347619D01*
X118594285Y-51252380D02*
X119165714Y-51252380D01*
X118880000Y-51252380D02*
X118880000Y-50252380D01*
X118975238Y-50395238D01*
X119070476Y-50490476D01*
X119165714Y-50538095D01*
X119546666Y-96877142D02*
X119594285Y-96924761D01*
X119737142Y-96972380D01*
X119832380Y-96972380D01*
X119975238Y-96924761D01*
X120070476Y-96829523D01*
X120118095Y-96734285D01*
X120165714Y-96543809D01*
X120165714Y-96400952D01*
X120118095Y-96210476D01*
X120070476Y-96115238D01*
X119975238Y-96020000D01*
X119832380Y-95972380D01*
X119737142Y-95972380D01*
X119594285Y-96020000D01*
X119546666Y-96067619D01*
X119213333Y-95972380D02*
X118546666Y-95972380D01*
X118975238Y-96972380D01*
X30297380Y-68476904D02*
X29297380Y-68476904D01*
X29297380Y-68715000D01*
X29345000Y-68857857D01*
X29440238Y-68953095D01*
X29535476Y-69000714D01*
X29725952Y-69048333D01*
X29868809Y-69048333D01*
X30059285Y-69000714D01*
X30154523Y-68953095D01*
X30249761Y-68857857D01*
X30297380Y-68715000D01*
X30297380Y-68476904D01*
X30297380Y-70000714D02*
X30297380Y-69429285D01*
X30297380Y-69715000D02*
X29297380Y-69715000D01*
X29440238Y-69619761D01*
X29535476Y-69524523D01*
X29583095Y-69429285D01*
X29032380Y-65778095D02*
X28032380Y-65778095D01*
X29032380Y-66349523D02*
X28460952Y-65920952D01*
X28032380Y-66349523D02*
X28603809Y-65778095D01*
X151868095Y-58307380D02*
X151868095Y-57307380D01*
X151630000Y-57307380D01*
X151487142Y-57355000D01*
X151391904Y-57450238D01*
X151344285Y-57545476D01*
X151296666Y-57735952D01*
X151296666Y-57878809D01*
X151344285Y-58069285D01*
X151391904Y-58164523D01*
X151487142Y-58259761D01*
X151630000Y-58307380D01*
X151868095Y-58307380D01*
X150439523Y-57307380D02*
X150630000Y-57307380D01*
X150725238Y-57355000D01*
X150772857Y-57402619D01*
X150868095Y-57545476D01*
X150915714Y-57735952D01*
X150915714Y-58116904D01*
X150868095Y-58212142D01*
X150820476Y-58259761D01*
X150725238Y-58307380D01*
X150534761Y-58307380D01*
X150439523Y-58259761D01*
X150391904Y-58212142D01*
X150344285Y-58116904D01*
X150344285Y-57878809D01*
X150391904Y-57783571D01*
X150439523Y-57735952D01*
X150534761Y-57688333D01*
X150725238Y-57688333D01*
X150820476Y-57735952D01*
X150868095Y-57783571D01*
X150915714Y-57878809D01*
X155201904Y-58877380D02*
X155201904Y-57877380D01*
X154630476Y-58877380D02*
X155059047Y-58305952D01*
X154630476Y-57877380D02*
X155201904Y-58448809D01*
X38552380Y-69207142D02*
X38552380Y-68730952D01*
X37552380Y-68730952D01*
X38504761Y-69492857D02*
X38552380Y-69635714D01*
X38552380Y-69873809D01*
X38504761Y-69969047D01*
X38457142Y-70016666D01*
X38361904Y-70064285D01*
X38266666Y-70064285D01*
X38171428Y-70016666D01*
X38123809Y-69969047D01*
X38076190Y-69873809D01*
X38028571Y-69683333D01*
X37980952Y-69588095D01*
X37933333Y-69540476D01*
X37838095Y-69492857D01*
X37742857Y-69492857D01*
X37647619Y-69540476D01*
X37600000Y-69588095D01*
X37552380Y-69683333D01*
X37552380Y-69921428D01*
X37600000Y-70064285D01*
X38552380Y-71016666D02*
X38552380Y-70445238D01*
X38552380Y-70730952D02*
X37552380Y-70730952D01*
X37695238Y-70635714D01*
X37790476Y-70540476D01*
X37838095Y-70445238D01*
X151772857Y-68397380D02*
X152249047Y-68397380D01*
X152249047Y-67397380D01*
X151487142Y-68349761D02*
X151344285Y-68397380D01*
X151106190Y-68397380D01*
X151010952Y-68349761D01*
X150963333Y-68302142D01*
X150915714Y-68206904D01*
X150915714Y-68111666D01*
X150963333Y-68016428D01*
X151010952Y-67968809D01*
X151106190Y-67921190D01*
X151296666Y-67873571D01*
X151391904Y-67825952D01*
X151439523Y-67778333D01*
X151487142Y-67683095D01*
X151487142Y-67587857D01*
X151439523Y-67492619D01*
X151391904Y-67445000D01*
X151296666Y-67397380D01*
X151058571Y-67397380D01*
X150915714Y-67445000D01*
X150534761Y-67492619D02*
X150487142Y-67445000D01*
X150391904Y-67397380D01*
X150153809Y-67397380D01*
X150058571Y-67445000D01*
X150010952Y-67492619D01*
X149963333Y-67587857D01*
X149963333Y-67683095D01*
X150010952Y-67825952D01*
X150582380Y-68397380D01*
X149963333Y-68397380D01*
X24042619Y-65944761D02*
X23995000Y-65849523D01*
X23899761Y-65754285D01*
X23756904Y-65611428D01*
X23709285Y-65516190D01*
X23709285Y-65420952D01*
X23947380Y-65468571D02*
X23899761Y-65373333D01*
X23804523Y-65278095D01*
X23614047Y-65230476D01*
X23280714Y-65230476D01*
X23090238Y-65278095D01*
X22995000Y-65373333D01*
X22947380Y-65468571D01*
X22947380Y-65659047D01*
X22995000Y-65754285D01*
X23090238Y-65849523D01*
X23280714Y-65897142D01*
X23614047Y-65897142D01*
X23804523Y-65849523D01*
X23899761Y-65754285D01*
X23947380Y-65659047D01*
X23947380Y-65468571D01*
X22947380Y-66230476D02*
X22947380Y-66849523D01*
X23328333Y-66516190D01*
X23328333Y-66659047D01*
X23375952Y-66754285D01*
X23423571Y-66801904D01*
X23518809Y-66849523D01*
X23756904Y-66849523D01*
X23852142Y-66801904D01*
X23899761Y-66754285D01*
X23947380Y-66659047D01*
X23947380Y-66373333D01*
X23899761Y-66278095D01*
X23852142Y-66230476D01*
X157392619Y-64039761D02*
X157345000Y-63944523D01*
X157249761Y-63849285D01*
X157106904Y-63706428D01*
X157059285Y-63611190D01*
X157059285Y-63515952D01*
X157297380Y-63563571D02*
X157249761Y-63468333D01*
X157154523Y-63373095D01*
X156964047Y-63325476D01*
X156630714Y-63325476D01*
X156440238Y-63373095D01*
X156345000Y-63468333D01*
X156297380Y-63563571D01*
X156297380Y-63754047D01*
X156345000Y-63849285D01*
X156440238Y-63944523D01*
X156630714Y-63992142D01*
X156964047Y-63992142D01*
X157154523Y-63944523D01*
X157249761Y-63849285D01*
X157297380Y-63754047D01*
X157297380Y-63563571D01*
X156297380Y-64849285D02*
X156297380Y-64658809D01*
X156345000Y-64563571D01*
X156392619Y-64515952D01*
X156535476Y-64420714D01*
X156725952Y-64373095D01*
X157106904Y-64373095D01*
X157202142Y-64420714D01*
X157249761Y-64468333D01*
X157297380Y-64563571D01*
X157297380Y-64754047D01*
X157249761Y-64849285D01*
X157202142Y-64896904D01*
X157106904Y-64944523D01*
X156868809Y-64944523D01*
X156773571Y-64896904D01*
X156725952Y-64849285D01*
X156678333Y-64754047D01*
X156678333Y-64563571D01*
X156725952Y-64468333D01*
X156773571Y-64420714D01*
X156868809Y-64373095D01*
X95416666Y-62047380D02*
X95750000Y-61571190D01*
X95988095Y-62047380D02*
X95988095Y-61047380D01*
X95607142Y-61047380D01*
X95511904Y-61095000D01*
X95464285Y-61142619D01*
X95416666Y-61237857D01*
X95416666Y-61380714D01*
X95464285Y-61475952D01*
X95511904Y-61523571D01*
X95607142Y-61571190D01*
X95988095Y-61571190D01*
X94464285Y-62047380D02*
X95035714Y-62047380D01*
X94750000Y-62047380D02*
X94750000Y-61047380D01*
X94845238Y-61190238D01*
X94940476Y-61285476D01*
X95035714Y-61333095D01*
X95416666Y-67127380D02*
X95750000Y-66651190D01*
X95988095Y-67127380D02*
X95988095Y-66127380D01*
X95607142Y-66127380D01*
X95511904Y-66175000D01*
X95464285Y-66222619D01*
X95416666Y-66317857D01*
X95416666Y-66460714D01*
X95464285Y-66555952D01*
X95511904Y-66603571D01*
X95607142Y-66651190D01*
X95988095Y-66651190D01*
X95035714Y-66222619D02*
X94988095Y-66175000D01*
X94892857Y-66127380D01*
X94654761Y-66127380D01*
X94559523Y-66175000D01*
X94511904Y-66222619D01*
X94464285Y-66317857D01*
X94464285Y-66413095D01*
X94511904Y-66555952D01*
X95083333Y-67127380D01*
X94464285Y-67127380D01*
X24931666Y-75382380D02*
X25265000Y-74906190D01*
X25503095Y-75382380D02*
X25503095Y-74382380D01*
X25122142Y-74382380D01*
X25026904Y-74430000D01*
X24979285Y-74477619D01*
X24931666Y-74572857D01*
X24931666Y-74715714D01*
X24979285Y-74810952D01*
X25026904Y-74858571D01*
X25122142Y-74906190D01*
X25503095Y-74906190D01*
X24026904Y-74382380D02*
X24503095Y-74382380D01*
X24550714Y-74858571D01*
X24503095Y-74810952D01*
X24407857Y-74763333D01*
X24169761Y-74763333D01*
X24074523Y-74810952D01*
X24026904Y-74858571D01*
X23979285Y-74953809D01*
X23979285Y-75191904D01*
X24026904Y-75287142D01*
X24074523Y-75334761D01*
X24169761Y-75382380D01*
X24407857Y-75382380D01*
X24503095Y-75334761D01*
X24550714Y-75287142D01*
X33186666Y-78557380D02*
X33520000Y-78081190D01*
X33758095Y-78557380D02*
X33758095Y-77557380D01*
X33377142Y-77557380D01*
X33281904Y-77605000D01*
X33234285Y-77652619D01*
X33186666Y-77747857D01*
X33186666Y-77890714D01*
X33234285Y-77985952D01*
X33281904Y-78033571D01*
X33377142Y-78081190D01*
X33758095Y-78081190D01*
X32853333Y-77557380D02*
X32186666Y-77557380D01*
X32615238Y-78557380D01*
X54776666Y-81097380D02*
X55110000Y-80621190D01*
X55348095Y-81097380D02*
X55348095Y-80097380D01*
X54967142Y-80097380D01*
X54871904Y-80145000D01*
X54824285Y-80192619D01*
X54776666Y-80287857D01*
X54776666Y-80430714D01*
X54824285Y-80525952D01*
X54871904Y-80573571D01*
X54967142Y-80621190D01*
X55348095Y-80621190D01*
X54205238Y-80525952D02*
X54300476Y-80478333D01*
X54348095Y-80430714D01*
X54395714Y-80335476D01*
X54395714Y-80287857D01*
X54348095Y-80192619D01*
X54300476Y-80145000D01*
X54205238Y-80097380D01*
X54014761Y-80097380D01*
X53919523Y-80145000D01*
X53871904Y-80192619D01*
X53824285Y-80287857D01*
X53824285Y-80335476D01*
X53871904Y-80430714D01*
X53919523Y-80478333D01*
X54014761Y-80525952D01*
X54205238Y-80525952D01*
X54300476Y-80573571D01*
X54348095Y-80621190D01*
X54395714Y-80716428D01*
X54395714Y-80906904D01*
X54348095Y-81002142D01*
X54300476Y-81049761D01*
X54205238Y-81097380D01*
X54014761Y-81097380D01*
X53919523Y-81049761D01*
X53871904Y-81002142D01*
X53824285Y-80906904D01*
X53824285Y-80716428D01*
X53871904Y-80621190D01*
X53919523Y-80573571D01*
X54014761Y-80525952D01*
X30646666Y-56967380D02*
X30980000Y-56491190D01*
X31218095Y-56967380D02*
X31218095Y-55967380D01*
X30837142Y-55967380D01*
X30741904Y-56015000D01*
X30694285Y-56062619D01*
X30646666Y-56157857D01*
X30646666Y-56300714D01*
X30694285Y-56395952D01*
X30741904Y-56443571D01*
X30837142Y-56491190D01*
X31218095Y-56491190D01*
X30170476Y-56967380D02*
X29980000Y-56967380D01*
X29884761Y-56919761D01*
X29837142Y-56872142D01*
X29741904Y-56729285D01*
X29694285Y-56538809D01*
X29694285Y-56157857D01*
X29741904Y-56062619D01*
X29789523Y-56015000D01*
X29884761Y-55967380D01*
X30075238Y-55967380D01*
X30170476Y-56015000D01*
X30218095Y-56062619D01*
X30265714Y-56157857D01*
X30265714Y-56395952D01*
X30218095Y-56491190D01*
X30170476Y-56538809D01*
X30075238Y-56586428D01*
X29884761Y-56586428D01*
X29789523Y-56538809D01*
X29741904Y-56491190D01*
X29694285Y-56395952D01*
X55062380Y-48252142D02*
X54586190Y-47918809D01*
X55062380Y-47680714D02*
X54062380Y-47680714D01*
X54062380Y-48061666D01*
X54110000Y-48156904D01*
X54157619Y-48204523D01*
X54252857Y-48252142D01*
X54395714Y-48252142D01*
X54490952Y-48204523D01*
X54538571Y-48156904D01*
X54586190Y-48061666D01*
X54586190Y-47680714D01*
X55062380Y-49204523D02*
X55062380Y-48633095D01*
X55062380Y-48918809D02*
X54062380Y-48918809D01*
X54205238Y-48823571D01*
X54300476Y-48728333D01*
X54348095Y-48633095D01*
X54062380Y-49823571D02*
X54062380Y-49918809D01*
X54110000Y-50014047D01*
X54157619Y-50061666D01*
X54252857Y-50109285D01*
X54443333Y-50156904D01*
X54681428Y-50156904D01*
X54871904Y-50109285D01*
X54967142Y-50061666D01*
X55014761Y-50014047D01*
X55062380Y-49918809D01*
X55062380Y-49823571D01*
X55014761Y-49728333D01*
X54967142Y-49680714D01*
X54871904Y-49633095D01*
X54681428Y-49585476D01*
X54443333Y-49585476D01*
X54252857Y-49633095D01*
X54157619Y-49680714D01*
X54110000Y-49728333D01*
X54062380Y-49823571D01*
X57602380Y-48252142D02*
X57126190Y-47918809D01*
X57602380Y-47680714D02*
X56602380Y-47680714D01*
X56602380Y-48061666D01*
X56650000Y-48156904D01*
X56697619Y-48204523D01*
X56792857Y-48252142D01*
X56935714Y-48252142D01*
X57030952Y-48204523D01*
X57078571Y-48156904D01*
X57126190Y-48061666D01*
X57126190Y-47680714D01*
X57602380Y-49204523D02*
X57602380Y-48633095D01*
X57602380Y-48918809D02*
X56602380Y-48918809D01*
X56745238Y-48823571D01*
X56840476Y-48728333D01*
X56888095Y-48633095D01*
X57602380Y-50156904D02*
X57602380Y-49585476D01*
X57602380Y-49871190D02*
X56602380Y-49871190D01*
X56745238Y-49775952D01*
X56840476Y-49680714D01*
X56888095Y-49585476D01*
X55062380Y-63492142D02*
X54586190Y-63158809D01*
X55062380Y-62920714D02*
X54062380Y-62920714D01*
X54062380Y-63301666D01*
X54110000Y-63396904D01*
X54157619Y-63444523D01*
X54252857Y-63492142D01*
X54395714Y-63492142D01*
X54490952Y-63444523D01*
X54538571Y-63396904D01*
X54586190Y-63301666D01*
X54586190Y-62920714D01*
X55062380Y-64444523D02*
X55062380Y-63873095D01*
X55062380Y-64158809D02*
X54062380Y-64158809D01*
X54205238Y-64063571D01*
X54300476Y-63968333D01*
X54348095Y-63873095D01*
X54157619Y-64825476D02*
X54110000Y-64873095D01*
X54062380Y-64968333D01*
X54062380Y-65206428D01*
X54110000Y-65301666D01*
X54157619Y-65349285D01*
X54252857Y-65396904D01*
X54348095Y-65396904D01*
X54490952Y-65349285D01*
X55062380Y-64777857D01*
X55062380Y-65396904D01*
X89542857Y-112847380D02*
X89876190Y-112371190D01*
X90114285Y-112847380D02*
X90114285Y-111847380D01*
X89733333Y-111847380D01*
X89638095Y-111895000D01*
X89590476Y-111942619D01*
X89542857Y-112037857D01*
X89542857Y-112180714D01*
X89590476Y-112275952D01*
X89638095Y-112323571D01*
X89733333Y-112371190D01*
X90114285Y-112371190D01*
X88590476Y-112847380D02*
X89161904Y-112847380D01*
X88876190Y-112847380D02*
X88876190Y-111847380D01*
X88971428Y-111990238D01*
X89066666Y-112085476D01*
X89161904Y-112133095D01*
X87733333Y-112180714D02*
X87733333Y-112847380D01*
X87971428Y-111799761D02*
X88209523Y-112514047D01*
X87590476Y-112514047D01*
X89542857Y-107767380D02*
X89876190Y-107291190D01*
X90114285Y-107767380D02*
X90114285Y-106767380D01*
X89733333Y-106767380D01*
X89638095Y-106815000D01*
X89590476Y-106862619D01*
X89542857Y-106957857D01*
X89542857Y-107100714D01*
X89590476Y-107195952D01*
X89638095Y-107243571D01*
X89733333Y-107291190D01*
X90114285Y-107291190D01*
X88590476Y-107767380D02*
X89161904Y-107767380D01*
X88876190Y-107767380D02*
X88876190Y-106767380D01*
X88971428Y-106910238D01*
X89066666Y-107005476D01*
X89161904Y-107053095D01*
X87685714Y-106767380D02*
X88161904Y-106767380D01*
X88209523Y-107243571D01*
X88161904Y-107195952D01*
X88066666Y-107148333D01*
X87828571Y-107148333D01*
X87733333Y-107195952D01*
X87685714Y-107243571D01*
X87638095Y-107338809D01*
X87638095Y-107576904D01*
X87685714Y-107672142D01*
X87733333Y-107719761D01*
X87828571Y-107767380D01*
X88066666Y-107767380D01*
X88161904Y-107719761D01*
X88209523Y-107672142D01*
X151772857Y-56967380D02*
X152106190Y-56491190D01*
X152344285Y-56967380D02*
X152344285Y-55967380D01*
X151963333Y-55967380D01*
X151868095Y-56015000D01*
X151820476Y-56062619D01*
X151772857Y-56157857D01*
X151772857Y-56300714D01*
X151820476Y-56395952D01*
X151868095Y-56443571D01*
X151963333Y-56491190D01*
X152344285Y-56491190D01*
X150820476Y-56967380D02*
X151391904Y-56967380D01*
X151106190Y-56967380D02*
X151106190Y-55967380D01*
X151201428Y-56110238D01*
X151296666Y-56205476D01*
X151391904Y-56253095D01*
X150249047Y-56395952D02*
X150344285Y-56348333D01*
X150391904Y-56300714D01*
X150439523Y-56205476D01*
X150439523Y-56157857D01*
X150391904Y-56062619D01*
X150344285Y-56015000D01*
X150249047Y-55967380D01*
X150058571Y-55967380D01*
X149963333Y-56015000D01*
X149915714Y-56062619D01*
X149868095Y-56157857D01*
X149868095Y-56205476D01*
X149915714Y-56300714D01*
X149963333Y-56348333D01*
X150058571Y-56395952D01*
X150249047Y-56395952D01*
X150344285Y-56443571D01*
X150391904Y-56491190D01*
X150439523Y-56586428D01*
X150439523Y-56776904D01*
X150391904Y-56872142D01*
X150344285Y-56919761D01*
X150249047Y-56967380D01*
X150058571Y-56967380D01*
X149963333Y-56919761D01*
X149915714Y-56872142D01*
X149868095Y-56776904D01*
X149868095Y-56586428D01*
X149915714Y-56491190D01*
X149963333Y-56443571D01*
X150058571Y-56395952D01*
X190317380Y-31107142D02*
X189841190Y-30773809D01*
X190317380Y-30535714D02*
X189317380Y-30535714D01*
X189317380Y-30916666D01*
X189365000Y-31011904D01*
X189412619Y-31059523D01*
X189507857Y-31107142D01*
X189650714Y-31107142D01*
X189745952Y-31059523D01*
X189793571Y-31011904D01*
X189841190Y-30916666D01*
X189841190Y-30535714D01*
X189412619Y-31488095D02*
X189365000Y-31535714D01*
X189317380Y-31630952D01*
X189317380Y-31869047D01*
X189365000Y-31964285D01*
X189412619Y-32011904D01*
X189507857Y-32059523D01*
X189603095Y-32059523D01*
X189745952Y-32011904D01*
X190317380Y-31440476D01*
X190317380Y-32059523D01*
X189317380Y-32678571D02*
X189317380Y-32773809D01*
X189365000Y-32869047D01*
X189412619Y-32916666D01*
X189507857Y-32964285D01*
X189698333Y-33011904D01*
X189936428Y-33011904D01*
X190126904Y-32964285D01*
X190222142Y-32916666D01*
X190269761Y-32869047D01*
X190317380Y-32773809D01*
X190317380Y-32678571D01*
X190269761Y-32583333D01*
X190222142Y-32535714D01*
X190126904Y-32488095D01*
X189936428Y-32440476D01*
X189698333Y-32440476D01*
X189507857Y-32488095D01*
X189412619Y-32535714D01*
X189365000Y-32583333D01*
X189317380Y-32678571D01*
X190317380Y-51427142D02*
X189841190Y-51093809D01*
X190317380Y-50855714D02*
X189317380Y-50855714D01*
X189317380Y-51236666D01*
X189365000Y-51331904D01*
X189412619Y-51379523D01*
X189507857Y-51427142D01*
X189650714Y-51427142D01*
X189745952Y-51379523D01*
X189793571Y-51331904D01*
X189841190Y-51236666D01*
X189841190Y-50855714D01*
X189412619Y-51808095D02*
X189365000Y-51855714D01*
X189317380Y-51950952D01*
X189317380Y-52189047D01*
X189365000Y-52284285D01*
X189412619Y-52331904D01*
X189507857Y-52379523D01*
X189603095Y-52379523D01*
X189745952Y-52331904D01*
X190317380Y-51760476D01*
X190317380Y-52379523D01*
X190317380Y-53331904D02*
X190317380Y-52760476D01*
X190317380Y-53046190D02*
X189317380Y-53046190D01*
X189460238Y-52950952D01*
X189555476Y-52855714D01*
X189603095Y-52760476D01*
X190317380Y-71747142D02*
X189841190Y-71413809D01*
X190317380Y-71175714D02*
X189317380Y-71175714D01*
X189317380Y-71556666D01*
X189365000Y-71651904D01*
X189412619Y-71699523D01*
X189507857Y-71747142D01*
X189650714Y-71747142D01*
X189745952Y-71699523D01*
X189793571Y-71651904D01*
X189841190Y-71556666D01*
X189841190Y-71175714D01*
X189412619Y-72128095D02*
X189365000Y-72175714D01*
X189317380Y-72270952D01*
X189317380Y-72509047D01*
X189365000Y-72604285D01*
X189412619Y-72651904D01*
X189507857Y-72699523D01*
X189603095Y-72699523D01*
X189745952Y-72651904D01*
X190317380Y-72080476D01*
X190317380Y-72699523D01*
X189412619Y-73080476D02*
X189365000Y-73128095D01*
X189317380Y-73223333D01*
X189317380Y-73461428D01*
X189365000Y-73556666D01*
X189412619Y-73604285D01*
X189507857Y-73651904D01*
X189603095Y-73651904D01*
X189745952Y-73604285D01*
X190317380Y-73032857D01*
X190317380Y-73651904D01*
X190317380Y-92067142D02*
X189841190Y-91733809D01*
X190317380Y-91495714D02*
X189317380Y-91495714D01*
X189317380Y-91876666D01*
X189365000Y-91971904D01*
X189412619Y-92019523D01*
X189507857Y-92067142D01*
X189650714Y-92067142D01*
X189745952Y-92019523D01*
X189793571Y-91971904D01*
X189841190Y-91876666D01*
X189841190Y-91495714D01*
X189412619Y-92448095D02*
X189365000Y-92495714D01*
X189317380Y-92590952D01*
X189317380Y-92829047D01*
X189365000Y-92924285D01*
X189412619Y-92971904D01*
X189507857Y-93019523D01*
X189603095Y-93019523D01*
X189745952Y-92971904D01*
X190317380Y-92400476D01*
X190317380Y-93019523D01*
X189317380Y-93352857D02*
X189317380Y-93971904D01*
X189698333Y-93638571D01*
X189698333Y-93781428D01*
X189745952Y-93876666D01*
X189793571Y-93924285D01*
X189888809Y-93971904D01*
X190126904Y-93971904D01*
X190222142Y-93924285D01*
X190269761Y-93876666D01*
X190317380Y-93781428D01*
X190317380Y-93495714D01*
X190269761Y-93400476D01*
X190222142Y-93352857D01*
X131897380Y-34282142D02*
X131421190Y-33948809D01*
X131897380Y-33710714D02*
X130897380Y-33710714D01*
X130897380Y-34091666D01*
X130945000Y-34186904D01*
X130992619Y-34234523D01*
X131087857Y-34282142D01*
X131230714Y-34282142D01*
X131325952Y-34234523D01*
X131373571Y-34186904D01*
X131421190Y-34091666D01*
X131421190Y-33710714D01*
X130992619Y-34663095D02*
X130945000Y-34710714D01*
X130897380Y-34805952D01*
X130897380Y-35044047D01*
X130945000Y-35139285D01*
X130992619Y-35186904D01*
X131087857Y-35234523D01*
X131183095Y-35234523D01*
X131325952Y-35186904D01*
X131897380Y-34615476D01*
X131897380Y-35234523D01*
X131230714Y-36091666D02*
X131897380Y-36091666D01*
X130849761Y-35853571D02*
X131564047Y-35615476D01*
X131564047Y-36234523D01*
X131897380Y-43172142D02*
X131421190Y-42838809D01*
X131897380Y-42600714D02*
X130897380Y-42600714D01*
X130897380Y-42981666D01*
X130945000Y-43076904D01*
X130992619Y-43124523D01*
X131087857Y-43172142D01*
X131230714Y-43172142D01*
X131325952Y-43124523D01*
X131373571Y-43076904D01*
X131421190Y-42981666D01*
X131421190Y-42600714D01*
X130992619Y-43553095D02*
X130945000Y-43600714D01*
X130897380Y-43695952D01*
X130897380Y-43934047D01*
X130945000Y-44029285D01*
X130992619Y-44076904D01*
X131087857Y-44124523D01*
X131183095Y-44124523D01*
X131325952Y-44076904D01*
X131897380Y-43505476D01*
X131897380Y-44124523D01*
X130897380Y-45029285D02*
X130897380Y-44553095D01*
X131373571Y-44505476D01*
X131325952Y-44553095D01*
X131278333Y-44648333D01*
X131278333Y-44886428D01*
X131325952Y-44981666D01*
X131373571Y-45029285D01*
X131468809Y-45076904D01*
X131706904Y-45076904D01*
X131802142Y-45029285D01*
X131849761Y-44981666D01*
X131897380Y-44886428D01*
X131897380Y-44648333D01*
X131849761Y-44553095D01*
X131802142Y-44505476D01*
X105814761Y-58991666D02*
X105862380Y-59134523D01*
X105862380Y-59372619D01*
X105814761Y-59467857D01*
X105767142Y-59515476D01*
X105671904Y-59563095D01*
X105576666Y-59563095D01*
X105481428Y-59515476D01*
X105433809Y-59467857D01*
X105386190Y-59372619D01*
X105338571Y-59182142D01*
X105290952Y-59086904D01*
X105243333Y-59039285D01*
X105148095Y-58991666D01*
X105052857Y-58991666D01*
X104957619Y-59039285D01*
X104910000Y-59086904D01*
X104862380Y-59182142D01*
X104862380Y-59420238D01*
X104910000Y-59563095D01*
X104862380Y-59896428D02*
X105862380Y-60134523D01*
X105148095Y-60325000D01*
X105862380Y-60515476D01*
X104862380Y-60753571D01*
X104957619Y-61086904D02*
X104910000Y-61134523D01*
X104862380Y-61229761D01*
X104862380Y-61467857D01*
X104910000Y-61563095D01*
X104957619Y-61610714D01*
X105052857Y-61658333D01*
X105148095Y-61658333D01*
X105290952Y-61610714D01*
X105862380Y-61039285D01*
X105862380Y-61658333D01*
X114704761Y-58991666D02*
X114752380Y-59134523D01*
X114752380Y-59372619D01*
X114704761Y-59467857D01*
X114657142Y-59515476D01*
X114561904Y-59563095D01*
X114466666Y-59563095D01*
X114371428Y-59515476D01*
X114323809Y-59467857D01*
X114276190Y-59372619D01*
X114228571Y-59182142D01*
X114180952Y-59086904D01*
X114133333Y-59039285D01*
X114038095Y-58991666D01*
X113942857Y-58991666D01*
X113847619Y-59039285D01*
X113800000Y-59086904D01*
X113752380Y-59182142D01*
X113752380Y-59420238D01*
X113800000Y-59563095D01*
X113752380Y-59896428D02*
X114752380Y-60134523D01*
X114038095Y-60325000D01*
X114752380Y-60515476D01*
X113752380Y-60753571D01*
X113752380Y-61039285D02*
X113752380Y-61658333D01*
X114133333Y-61325000D01*
X114133333Y-61467857D01*
X114180952Y-61563095D01*
X114228571Y-61610714D01*
X114323809Y-61658333D01*
X114561904Y-61658333D01*
X114657142Y-61610714D01*
X114704761Y-61563095D01*
X114752380Y-61467857D01*
X114752380Y-61182142D01*
X114704761Y-61086904D01*
X114657142Y-61039285D01*
X105814761Y-104870476D02*
X105862380Y-105013333D01*
X105862380Y-105251428D01*
X105814761Y-105346666D01*
X105767142Y-105394285D01*
X105671904Y-105441904D01*
X105576666Y-105441904D01*
X105481428Y-105394285D01*
X105433809Y-105346666D01*
X105386190Y-105251428D01*
X105338571Y-105060952D01*
X105290952Y-104965714D01*
X105243333Y-104918095D01*
X105148095Y-104870476D01*
X105052857Y-104870476D01*
X104957619Y-104918095D01*
X104910000Y-104965714D01*
X104862380Y-105060952D01*
X104862380Y-105299047D01*
X104910000Y-105441904D01*
X104862380Y-105775238D02*
X105862380Y-106013333D01*
X105148095Y-106203809D01*
X105862380Y-106394285D01*
X104862380Y-106632380D01*
X105862380Y-107537142D02*
X105862380Y-106965714D01*
X105862380Y-107251428D02*
X104862380Y-107251428D01*
X105005238Y-107156190D01*
X105100476Y-107060952D01*
X105148095Y-106965714D01*
X104862380Y-108156190D02*
X104862380Y-108251428D01*
X104910000Y-108346666D01*
X104957619Y-108394285D01*
X105052857Y-108441904D01*
X105243333Y-108489523D01*
X105481428Y-108489523D01*
X105671904Y-108441904D01*
X105767142Y-108394285D01*
X105814761Y-108346666D01*
X105862380Y-108251428D01*
X105862380Y-108156190D01*
X105814761Y-108060952D01*
X105767142Y-108013333D01*
X105671904Y-107965714D01*
X105481428Y-107918095D01*
X105243333Y-107918095D01*
X105052857Y-107965714D01*
X104957619Y-108013333D01*
X104910000Y-108060952D01*
X104862380Y-108156190D01*
X114704761Y-104870476D02*
X114752380Y-105013333D01*
X114752380Y-105251428D01*
X114704761Y-105346666D01*
X114657142Y-105394285D01*
X114561904Y-105441904D01*
X114466666Y-105441904D01*
X114371428Y-105394285D01*
X114323809Y-105346666D01*
X114276190Y-105251428D01*
X114228571Y-105060952D01*
X114180952Y-104965714D01*
X114133333Y-104918095D01*
X114038095Y-104870476D01*
X113942857Y-104870476D01*
X113847619Y-104918095D01*
X113800000Y-104965714D01*
X113752380Y-105060952D01*
X113752380Y-105299047D01*
X113800000Y-105441904D01*
X113752380Y-105775238D02*
X114752380Y-106013333D01*
X114038095Y-106203809D01*
X114752380Y-106394285D01*
X113752380Y-106632380D01*
X114752380Y-107537142D02*
X114752380Y-106965714D01*
X114752380Y-107251428D02*
X113752380Y-107251428D01*
X113895238Y-107156190D01*
X113990476Y-107060952D01*
X114038095Y-106965714D01*
X114752380Y-108489523D02*
X114752380Y-107918095D01*
X114752380Y-108203809D02*
X113752380Y-108203809D01*
X113895238Y-108108571D01*
X113990476Y-108013333D01*
X114038095Y-107918095D01*
X96646904Y-31837380D02*
X96646904Y-32646904D01*
X96599285Y-32742142D01*
X96551666Y-32789761D01*
X96456428Y-32837380D01*
X96265952Y-32837380D01*
X96170714Y-32789761D01*
X96123095Y-32742142D01*
X96075476Y-32646904D01*
X96075476Y-31837380D01*
X95646904Y-31932619D02*
X95599285Y-31885000D01*
X95504047Y-31837380D01*
X95265952Y-31837380D01*
X95170714Y-31885000D01*
X95123095Y-31932619D01*
X95075476Y-32027857D01*
X95075476Y-32123095D01*
X95123095Y-32265952D01*
X95694523Y-32837380D01*
X95075476Y-32837380D01*
X109371904Y-103352380D02*
X109371904Y-104161904D01*
X109324285Y-104257142D01*
X109276666Y-104304761D01*
X109181428Y-104352380D01*
X108990952Y-104352380D01*
X108895714Y-104304761D01*
X108848095Y-104257142D01*
X108800476Y-104161904D01*
X108800476Y-103352380D01*
X108419523Y-103352380D02*
X107800476Y-103352380D01*
X108133809Y-103733333D01*
X107990952Y-103733333D01*
X107895714Y-103780952D01*
X107848095Y-103828571D01*
X107800476Y-103923809D01*
X107800476Y-104161904D01*
X107848095Y-104257142D01*
X107895714Y-104304761D01*
X107990952Y-104352380D01*
X108276666Y-104352380D01*
X108371904Y-104304761D01*
X108419523Y-104257142D01*
X96646904Y-77557380D02*
X96646904Y-78366904D01*
X96599285Y-78462142D01*
X96551666Y-78509761D01*
X96456428Y-78557380D01*
X96265952Y-78557380D01*
X96170714Y-78509761D01*
X96123095Y-78462142D01*
X96075476Y-78366904D01*
X96075476Y-77557380D01*
X95170714Y-77890714D02*
X95170714Y-78557380D01*
X95408809Y-77509761D02*
X95646904Y-78224047D01*
X95027857Y-78224047D01*
X53157380Y-63492142D02*
X52681190Y-63158809D01*
X53157380Y-62920714D02*
X52157380Y-62920714D01*
X52157380Y-63301666D01*
X52205000Y-63396904D01*
X52252619Y-63444523D01*
X52347857Y-63492142D01*
X52490714Y-63492142D01*
X52585952Y-63444523D01*
X52633571Y-63396904D01*
X52681190Y-63301666D01*
X52681190Y-62920714D01*
X53157380Y-64444523D02*
X53157380Y-63873095D01*
X53157380Y-64158809D02*
X52157380Y-64158809D01*
X52300238Y-64063571D01*
X52395476Y-63968333D01*
X52443095Y-63873095D01*
X52157380Y-64777857D02*
X52157380Y-65396904D01*
X52538333Y-65063571D01*
X52538333Y-65206428D01*
X52585952Y-65301666D01*
X52633571Y-65349285D01*
X52728809Y-65396904D01*
X52966904Y-65396904D01*
X53062142Y-65349285D01*
X53109761Y-65301666D01*
X53157380Y-65206428D01*
X53157380Y-64920714D01*
X53109761Y-64825476D01*
X53062142Y-64777857D01*
X172259523Y-25697380D02*
X172259523Y-26411666D01*
X172307142Y-26554523D01*
X172402380Y-26649761D01*
X172545238Y-26697380D01*
X172640476Y-26697380D01*
X171830952Y-25792619D02*
X171783333Y-25745000D01*
X171688095Y-25697380D01*
X171450000Y-25697380D01*
X171354761Y-25745000D01*
X171307142Y-25792619D01*
X171259523Y-25887857D01*
X171259523Y-25983095D01*
X171307142Y-26125952D01*
X171878571Y-26697380D01*
X171259523Y-26697380D01*
X170640476Y-25697380D02*
X170545238Y-25697380D01*
X170450000Y-25745000D01*
X170402380Y-25792619D01*
X170354761Y-25887857D01*
X170307142Y-26078333D01*
X170307142Y-26316428D01*
X170354761Y-26506904D01*
X170402380Y-26602142D01*
X170450000Y-26649761D01*
X170545238Y-26697380D01*
X170640476Y-26697380D01*
X170735714Y-26649761D01*
X170783333Y-26602142D01*
X170830952Y-26506904D01*
X170878571Y-26316428D01*
X170878571Y-26078333D01*
X170830952Y-25887857D01*
X170783333Y-25792619D01*
X170735714Y-25745000D01*
X170640476Y-25697380D01*
X26332380Y-49990476D02*
X27046666Y-49990476D01*
X27189523Y-49942857D01*
X27284761Y-49847619D01*
X27332380Y-49704761D01*
X27332380Y-49609523D01*
X26427619Y-50419047D02*
X26380000Y-50466666D01*
X26332380Y-50561904D01*
X26332380Y-50800000D01*
X26380000Y-50895238D01*
X26427619Y-50942857D01*
X26522857Y-50990476D01*
X26618095Y-50990476D01*
X26760952Y-50942857D01*
X27332380Y-50371428D01*
X27332380Y-50990476D01*
X26427619Y-51371428D02*
X26380000Y-51419047D01*
X26332380Y-51514285D01*
X26332380Y-51752380D01*
X26380000Y-51847619D01*
X26427619Y-51895238D01*
X26522857Y-51942857D01*
X26618095Y-51942857D01*
X26760952Y-51895238D01*
X27332380Y-51323809D01*
X27332380Y-51942857D01*
X143049523Y-39667380D02*
X143049523Y-40381666D01*
X143097142Y-40524523D01*
X143192380Y-40619761D01*
X143335238Y-40667380D01*
X143430476Y-40667380D01*
X142620952Y-39762619D02*
X142573333Y-39715000D01*
X142478095Y-39667380D01*
X142240000Y-39667380D01*
X142144761Y-39715000D01*
X142097142Y-39762619D01*
X142049523Y-39857857D01*
X142049523Y-39953095D01*
X142097142Y-40095952D01*
X142668571Y-40667380D01*
X142049523Y-40667380D01*
X141192380Y-40000714D02*
X141192380Y-40667380D01*
X141430476Y-39619761D02*
X141668571Y-40334047D01*
X141049523Y-40334047D01*
X43989523Y-47077380D02*
X43989523Y-47791666D01*
X44037142Y-47934523D01*
X44132380Y-48029761D01*
X44275238Y-48077380D01*
X44370476Y-48077380D01*
X42989523Y-48077380D02*
X43560952Y-48077380D01*
X43275238Y-48077380D02*
X43275238Y-47077380D01*
X43370476Y-47220238D01*
X43465714Y-47315476D01*
X43560952Y-47363095D01*
X42418095Y-47505952D02*
X42513333Y-47458333D01*
X42560952Y-47410714D01*
X42608571Y-47315476D01*
X42608571Y-47267857D01*
X42560952Y-47172619D01*
X42513333Y-47125000D01*
X42418095Y-47077380D01*
X42227619Y-47077380D01*
X42132380Y-47125000D01*
X42084761Y-47172619D01*
X42037142Y-47267857D01*
X42037142Y-47315476D01*
X42084761Y-47410714D01*
X42132380Y-47458333D01*
X42227619Y-47505952D01*
X42418095Y-47505952D01*
X42513333Y-47553571D01*
X42560952Y-47601190D01*
X42608571Y-47696428D01*
X42608571Y-47886904D01*
X42560952Y-47982142D01*
X42513333Y-48029761D01*
X42418095Y-48077380D01*
X42227619Y-48077380D01*
X42132380Y-48029761D01*
X42084761Y-47982142D01*
X42037142Y-47886904D01*
X42037142Y-47696428D01*
X42084761Y-47601190D01*
X42132380Y-47553571D01*
X42227619Y-47505952D01*
X52879523Y-71417380D02*
X52879523Y-72131666D01*
X52927142Y-72274523D01*
X53022380Y-72369761D01*
X53165238Y-72417380D01*
X53260476Y-72417380D01*
X52450952Y-71512619D02*
X52403333Y-71465000D01*
X52308095Y-71417380D01*
X52070000Y-71417380D01*
X51974761Y-71465000D01*
X51927142Y-71512619D01*
X51879523Y-71607857D01*
X51879523Y-71703095D01*
X51927142Y-71845952D01*
X52498571Y-72417380D01*
X51879523Y-72417380D01*
X50974761Y-71417380D02*
X51450952Y-71417380D01*
X51498571Y-71893571D01*
X51450952Y-71845952D01*
X51355714Y-71798333D01*
X51117619Y-71798333D01*
X51022380Y-71845952D01*
X50974761Y-71893571D01*
X50927142Y-71988809D01*
X50927142Y-72226904D01*
X50974761Y-72322142D01*
X51022380Y-72369761D01*
X51117619Y-72417380D01*
X51355714Y-72417380D01*
X51450952Y-72369761D01*
X51498571Y-72322142D01*
X109981904Y-50832380D02*
X109981904Y-51641904D01*
X109934285Y-51737142D01*
X109886666Y-51784761D01*
X109791428Y-51832380D01*
X109600952Y-51832380D01*
X109505714Y-51784761D01*
X109458095Y-51737142D01*
X109410476Y-51641904D01*
X109410476Y-50832380D01*
X108410476Y-51832380D02*
X108981904Y-51832380D01*
X108696190Y-51832380D02*
X108696190Y-50832380D01*
X108791428Y-50975238D01*
X108886666Y-51070476D01*
X108981904Y-51118095D01*
M02*
